%TF.GenerationSoftware,KiCad,Pcbnew,8.0.4*%
%TF.CreationDate,2024-08-02T12:22:31+01:00*%
%TF.ProjectId,left,6c656674-2e6b-4696-9361-645f70636258,v1.0.0*%
%TF.SameCoordinates,Original*%
%TF.FileFunction,Paste,Top*%
%TF.FilePolarity,Positive*%
%FSLAX46Y46*%
G04 Gerber Fmt 4.6, Leading zero omitted, Abs format (unit mm)*
G04 Created by KiCad (PCBNEW 8.0.4) date 2024-08-02 12:22:31*
%MOMM*%
%LPD*%
G01*
G04 APERTURE LIST*
G04 Aperture macros list*
%AMRotRect*
0 Rectangle, with rotation*
0 The origin of the aperture is its center*
0 $1 length*
0 $2 width*
0 $3 Rotation angle, in degrees counterclockwise*
0 Add horizontal line*
21,1,$1,$2,0,0,$3*%
G04 Aperture macros list end*
%ADD10RotRect,0.900000X1.200000X16.000000*%
%ADD11RotRect,0.900000X1.200000X12.000000*%
%ADD12RotRect,0.900000X1.200000X8.000000*%
%ADD13RotRect,0.900000X1.200000X4.000000*%
%ADD14R,0.900000X1.200000*%
%ADD15RotRect,0.900000X1.200000X10.000000*%
%ADD16RotRect,0.900000X1.200000X6.000000*%
%ADD17RotRect,0.900000X1.200000X358.000000*%
%ADD18RotRect,0.900000X1.200000X338.000000*%
%ADD19RotRect,0.900000X1.200000X318.000000*%
%ADD20R,1.100000X1.800000*%
%ADD21R,1.250000X0.900000*%
%ADD22R,0.900000X0.900000*%
G04 APERTURE END LIST*
D10*
%TO.C,D1*%
X131055871Y-170486643D03*
X134228033Y-169577039D03*
%TD*%
%TO.C,D2*%
X126163308Y-153424255D03*
X129335470Y-152514651D03*
%TD*%
%TO.C,D3*%
X121270748Y-136361862D03*
X124442910Y-135452258D03*
%TD*%
%TO.C,D4*%
X148528249Y-163395928D03*
X151700411Y-162486324D03*
%TD*%
%TO.C,D5*%
X143635697Y-146333526D03*
X146807859Y-145423922D03*
%TD*%
%TO.C,D6*%
X138743128Y-129271127D03*
X141915290Y-128361523D03*
%TD*%
D11*
%TO.C,D7*%
X164793069Y-144176806D03*
X168020955Y-143490696D03*
%TD*%
%TO.C,D8*%
X161102643Y-126814694D03*
X164330529Y-126128584D03*
%TD*%
%TO.C,D9*%
X157412209Y-109452563D03*
X160640095Y-108766453D03*
%TD*%
D12*
%TO.C,D10*%
X184482531Y-135770963D03*
X187750415Y-135311691D03*
%TD*%
%TO.C,D11*%
X182012208Y-118193699D03*
X185280092Y-117734427D03*
%TD*%
%TO.C,D12*%
X179541886Y-100616438D03*
X182809770Y-100157166D03*
%TD*%
D13*
%TO.C,D13*%
X205547132Y-139724968D03*
X208839094Y-139494768D03*
%TD*%
%TO.C,D14*%
X204308960Y-122018208D03*
X207600922Y-121788008D03*
%TD*%
%TO.C,D15*%
X203070780Y-104311438D03*
X206362742Y-104081238D03*
%TD*%
D14*
%TO.C,D16*%
X225923647Y-140802129D03*
X229223647Y-140802125D03*
%TD*%
%TO.C,D17*%
X225923651Y-123052136D03*
X229223651Y-123052132D03*
%TD*%
%TO.C,D18*%
X225923656Y-105302138D03*
X229223656Y-105302134D03*
%TD*%
D15*
%TO.C,D19*%
X173771376Y-164491750D03*
X177021240Y-163918710D03*
%TD*%
D16*
%TO.C,D20*%
X192509020Y-160917860D03*
X195790942Y-160572912D03*
%TD*%
D17*
%TO.C,D21*%
X211764402Y-160381541D03*
X215062392Y-160496705D03*
%TD*%
D18*
%TO.C,D22*%
X231114469Y-164840716D03*
X234174177Y-166076908D03*
%TD*%
D19*
%TO.C,D23*%
X247772463Y-175649060D03*
X250224833Y-177857194D03*
%TD*%
D20*
%TO.C,B1*%
X248423652Y-132702143D03*
X248423651Y-138902137D03*
X244723653Y-132702137D03*
X244723652Y-138902131D03*
%TD*%
D21*
%TO.C,T1*%
X260998648Y-138052138D03*
X260998648Y-135052136D03*
X260998646Y-133552138D03*
D22*
X264173646Y-139502138D03*
X261973646Y-139502136D03*
X261973646Y-132102138D03*
X264173646Y-132102140D03*
%TD*%
M02*
