%TF.GenerationSoftware,KiCad,Pcbnew,8.0.4*%
%TF.CreationDate,2024-08-02T12:22:31+01:00*%
%TF.ProjectId,left,6c656674-2e6b-4696-9361-645f70636258,v1.0.0*%
%TF.SameCoordinates,Original*%
%TF.FileFunction,Soldermask,Top*%
%TF.FilePolarity,Negative*%
%FSLAX46Y46*%
G04 Gerber Fmt 4.6, Leading zero omitted, Abs format (unit mm)*
G04 Created by KiCad (PCBNEW 8.0.4) date 2024-08-02 12:22:31*
%MOMM*%
%LPD*%
G01*
G04 APERTURE LIST*
G04 Aperture macros list*
%AMRoundRect*
0 Rectangle with rounded corners*
0 $1 Rounding radius*
0 $2 $3 $4 $5 $6 $7 $8 $9 X,Y pos of 4 corners*
0 Add a 4 corners polygon primitive as box body*
4,1,4,$2,$3,$4,$5,$6,$7,$8,$9,$2,$3,0*
0 Add four circle primitives for the rounded corners*
1,1,$1+$1,$2,$3*
1,1,$1+$1,$4,$5*
1,1,$1+$1,$6,$7*
1,1,$1+$1,$8,$9*
0 Add four rect primitives between the rounded corners*
20,1,$1+$1,$2,$3,$4,$5,0*
20,1,$1+$1,$4,$5,$6,$7,0*
20,1,$1+$1,$6,$7,$8,$9,0*
20,1,$1+$1,$8,$9,$2,$3,0*%
G04 Aperture macros list end*
%ADD10C,3.529000*%
%ADD11C,1.801800*%
%ADD12C,3.100000*%
%ADD13RoundRect,0.050000X-0.267185X-0.700794X0.597950X-0.452720X0.267185X0.700794X-0.597950X0.452720X0*%
%ADD14RoundRect,0.050000X-0.609520X-1.099603X1.099603X-0.609520X0.609520X1.099603X-1.099603X0.609520X0*%
%ADD15C,2.005000*%
%ADD16RoundRect,0.050000X-0.315419X-0.680449X0.564913X-0.493328X0.315419X0.680449X-0.564913X0.493328X0*%
%ADD17RoundRect,0.050000X-0.684740X-1.054407X1.054407X-0.684740X0.684740X1.054407X-1.054407X0.684740X0*%
%ADD18RoundRect,0.050000X-0.362117X-0.656789X0.529124X-0.531533X0.362117X0.656789X-0.529124X0.531533X0*%
%ADD19RoundRect,0.050000X-0.756623X-1.004073X1.004073X-0.756623X0.756623X1.004073X-1.004073X0.756623X0*%
%ADD20RoundRect,0.050000X-0.407050X-0.629929X0.490758X-0.567148X0.407050X0.629929X-0.490758X0.567148X0*%
%ADD21RoundRect,0.050000X-0.824821X-0.948848X0.948848X-0.824821X0.824821X0.948848X-0.948848X0.824821X0*%
%ADD22RoundRect,0.050000X-0.450000X-0.600000X0.450000X-0.600000X0.450000X0.600000X-0.450000X0.600000X0*%
%ADD23RoundRect,0.050000X-0.889000X-0.889000X0.889000X-0.889000X0.889000X0.889000X-0.889000X0.889000X0*%
%ADD24RoundRect,0.050000X-0.338975X-0.669026X0.547352X-0.512743X0.338975X0.669026X-0.547352X0.512743X0*%
%ADD25RoundRect,0.050000X-0.721121X-1.029867X1.029867X-0.721121X0.721121X1.029867X-1.029867X0.721121X0*%
%ADD26RoundRect,0.050000X-0.384818X-0.643751X0.510252X-0.549675X0.384818X0.643751X-0.510252X0.549675X0*%
%ADD27RoundRect,0.050000X-0.791204X-0.977056X0.977056X-0.791204X0.791204X0.977056X-0.977056X0.791204X0*%
%ADD28RoundRect,0.050000X-0.470666X-0.583930X0.428786X-0.615339X0.470666X0.583930X-0.428786X0.615339X0*%
%ADD29RoundRect,0.050000X-0.919484X-0.857433X0.857433X-0.919484X0.919484X0.857433X-0.857433X0.919484X0*%
%ADD30RoundRect,0.050000X-0.641997X-0.387737X0.192469X-0.724883X0.641997X0.387737X-0.192469X0.724883X0*%
%ADD31RoundRect,0.050000X-1.157292X-0.491241X0.491241X-1.157292X1.157292X0.491241X-0.491241X1.157292X0*%
%ADD32RoundRect,0.050000X-0.735894X-0.144778X-0.067063X-0.746996X0.735894X0.144778X0.067063X0.746996X0*%
%ADD33RoundRect,0.050000X-1.255513X-0.065799X0.065799X-1.255513X1.255513X0.065799X-0.065799X1.255513X0*%
%ADD34C,1.852600*%
%ADD35RoundRect,0.050000X-0.850000X0.600000X-0.850000X-0.600000X0.850000X-0.600000X0.850000X0.600000X0*%
%ADD36O,1.800000X1.300000*%
%ADD37RoundRect,0.050000X-0.550000X0.900000X-0.550000X-0.900000X0.550000X-0.900000X0.550000X0.900000X0*%
%ADD38C,1.100000*%
%ADD39RoundRect,0.050000X-0.625000X0.450000X-0.625000X-0.450000X0.625000X-0.450000X0.625000X0.450000X0*%
%ADD40RoundRect,0.050000X-0.450000X0.450000X-0.450000X-0.450000X0.450000X-0.450000X0.450000X0.450000X0*%
G04 APERTURE END LIST*
D10*
%TO.C,S1*%
X128379977Y-166052450D03*
D11*
X133666918Y-164536446D03*
X123093036Y-167568454D03*
D12*
X132152641Y-161069533D03*
X126739934Y-160332944D03*
%TD*%
D10*
%TO.C,S2*%
X123487424Y-148990060D03*
D11*
X128774365Y-147474056D03*
X118200483Y-150506064D03*
D12*
X127260088Y-144007143D03*
X121847381Y-143270554D03*
%TD*%
D10*
%TO.C,S3*%
X118594861Y-131927657D03*
D11*
X123881802Y-130411653D03*
X113307920Y-133443661D03*
D12*
X122367525Y-126944740D03*
X116954818Y-126208151D03*
%TD*%
D10*
%TO.C,S4*%
X145852358Y-158961721D03*
D11*
X151139299Y-157445717D03*
X140565417Y-160477725D03*
D12*
X149625022Y-153978804D03*
X144212315Y-153242215D03*
%TD*%
D10*
%TO.C,S5*%
X140959797Y-141899329D03*
D11*
X146246738Y-140383325D03*
X135672856Y-143415333D03*
D12*
X144732461Y-136916412D03*
X139319754Y-136179823D03*
%TD*%
D10*
%TO.C,S6*%
X136067238Y-124836931D03*
D11*
X141354179Y-123320927D03*
X130780297Y-126352935D03*
D12*
X139839902Y-119854014D03*
X134427195Y-119117425D03*
%TD*%
D10*
%TO.C,S7*%
X162433012Y-139566748D03*
D11*
X167812824Y-138423239D03*
X157053200Y-140710257D03*
D12*
X166544077Y-134859137D03*
X161195937Y-133746770D03*
%TD*%
D10*
%TO.C,S8*%
X158742580Y-122204621D03*
D11*
X164122392Y-121061112D03*
X153362768Y-123348130D03*
D12*
X162853645Y-117497010D03*
X157505505Y-116384643D03*
%TD*%
%TO.C,S9*%
X153815072Y-99022528D03*
X159163212Y-100134895D03*
D11*
X149672335Y-105986015D03*
X160431959Y-103698997D03*
D10*
X155052147Y-104842506D03*
%TD*%
%TO.C,S10*%
X182449804Y-131007503D03*
D11*
X187896278Y-130242056D03*
X177003330Y-131772950D03*
D12*
X186879241Y-126598133D03*
X181621724Y-125115408D03*
%TD*%
D10*
%TO.C,S11*%
X179979486Y-113430243D03*
D11*
X185425960Y-112664796D03*
X174533012Y-114195690D03*
D12*
X184408923Y-109020873D03*
X179151406Y-107538148D03*
%TD*%
D10*
%TO.C,S12*%
X177509157Y-95852993D03*
D11*
X182955631Y-95087546D03*
X172062683Y-96618440D03*
D12*
X181938594Y-91443623D03*
X176681077Y-89960898D03*
%TD*%
D10*
%TO.C,S13*%
X203851638Y-134831322D03*
D11*
X209338241Y-134447662D03*
X198365035Y-135214982D03*
D12*
X208577872Y-130741669D03*
X203436587Y-128895816D03*
%TD*%
D10*
%TO.C,S14*%
X202613460Y-117124562D03*
D11*
X208100063Y-116740902D03*
X197126857Y-117508222D03*
D12*
X207339694Y-113034909D03*
X202198409Y-111189056D03*
%TD*%
D10*
%TO.C,S15*%
X201375288Y-99417799D03*
D11*
X206861891Y-99034139D03*
X195888685Y-99801459D03*
D12*
X206101522Y-95328146D03*
X200960237Y-93482293D03*
%TD*%
D10*
%TO.C,S16*%
X224573648Y-135802128D03*
D11*
X230073647Y-135802132D03*
X219073649Y-135802124D03*
D12*
X229573651Y-132052127D03*
X224573647Y-129852128D03*
%TD*%
D10*
%TO.C,S17*%
X224573647Y-118052136D03*
D11*
X230073646Y-118052140D03*
X219073648Y-118052132D03*
D12*
X229573650Y-114302135D03*
X224573646Y-112102136D03*
%TD*%
D10*
%TO.C,S18*%
X224573644Y-100302135D03*
D11*
X230073643Y-100302139D03*
X219073645Y-100302131D03*
D12*
X229573647Y-96552134D03*
X224573643Y-94352135D03*
%TD*%
D10*
%TO.C,S19*%
X171573650Y-159802139D03*
D11*
X176990092Y-158847079D03*
X166157208Y-160757199D03*
D12*
X175846504Y-155240870D03*
X170540443Y-153942533D03*
%TD*%
D10*
%TO.C,S20*%
X190643769Y-156086362D03*
D11*
X196113640Y-155511456D03*
X185173898Y-156661268D03*
D12*
X195224393Y-151834263D03*
X190021825Y-150168957D03*
%TD*%
D10*
%TO.C,S21*%
X210589722Y-155337480D03*
D11*
X216086370Y-155529431D03*
X205093074Y-155145529D03*
D12*
X215717549Y-151764261D03*
X210797373Y-149391105D03*
%TD*%
D10*
%TO.C,S22*%
X231735802Y-159699079D03*
D11*
X236835313Y-161759416D03*
X226636291Y-157638742D03*
D12*
X237776493Y-158095171D03*
X233964712Y-154182336D03*
%TD*%
D10*
%TO.C,S23*%
X250114864Y-171030017D03*
D11*
X254202162Y-174710232D03*
X246027566Y-167349802D03*
D12*
X256339828Y-171588876D03*
X254096191Y-166608306D03*
%TD*%
D13*
%TO.C,D1*%
X131055871Y-170486643D03*
X134228033Y-169577039D03*
D14*
X128979546Y-171082019D03*
D15*
X136304358Y-168981663D03*
%TD*%
D13*
%TO.C,D2*%
X126163308Y-153424255D03*
X129335470Y-152514651D03*
D14*
X124086983Y-154019631D03*
D15*
X131411795Y-151919275D03*
%TD*%
D13*
%TO.C,D3*%
X121270748Y-136361862D03*
X124442910Y-135452258D03*
D14*
X119194423Y-136957238D03*
D15*
X126519235Y-134856882D03*
%TD*%
D13*
%TO.C,D4*%
X148528249Y-163395928D03*
X151700411Y-162486324D03*
D14*
X146451924Y-163991304D03*
D15*
X153776736Y-161890948D03*
%TD*%
D13*
%TO.C,D5*%
X143635697Y-146333526D03*
X146807859Y-145423922D03*
D14*
X141559372Y-146928902D03*
D15*
X148884184Y-144828546D03*
%TD*%
D13*
%TO.C,D6*%
X138743128Y-129271127D03*
X141915290Y-128361523D03*
D14*
X136666803Y-129866503D03*
D15*
X143991615Y-127766147D03*
%TD*%
D16*
%TO.C,D7*%
X164793069Y-144176806D03*
X168020955Y-143490696D03*
D17*
X162680270Y-144625894D03*
D15*
X170133754Y-143041608D03*
%TD*%
D16*
%TO.C,D8*%
X161102643Y-126814694D03*
X164330529Y-126128584D03*
D17*
X158989844Y-127263782D03*
D15*
X166443328Y-125679496D03*
%TD*%
D16*
%TO.C,D9*%
X157412209Y-109452563D03*
X160640095Y-108766453D03*
D17*
X155299410Y-109901651D03*
D15*
X162752894Y-108317365D03*
%TD*%
D18*
%TO.C,D10*%
X184482531Y-135770963D03*
X187750415Y-135311691D03*
D19*
X182343552Y-136071575D03*
D15*
X189889394Y-135011079D03*
%TD*%
D18*
%TO.C,D11*%
X182012208Y-118193699D03*
X185280092Y-117734427D03*
D19*
X179873229Y-118494311D03*
D15*
X187419071Y-117433815D03*
%TD*%
D18*
%TO.C,D12*%
X179541886Y-100616438D03*
X182809770Y-100157166D03*
D19*
X177402907Y-100917050D03*
D15*
X184948749Y-99856554D03*
%TD*%
D20*
%TO.C,D13*%
X205547132Y-139724968D03*
X208839094Y-139494768D03*
D21*
X203392394Y-139875639D03*
D15*
X210993832Y-139344097D03*
%TD*%
D20*
%TO.C,D14*%
X204308960Y-122018208D03*
X207600922Y-121788008D03*
D21*
X202154222Y-122168879D03*
D15*
X209755660Y-121637337D03*
%TD*%
D20*
%TO.C,D15*%
X203070780Y-104311438D03*
X206362742Y-104081238D03*
D21*
X200916042Y-104462109D03*
D15*
X208517480Y-103930567D03*
%TD*%
D22*
%TO.C,D16*%
X225923647Y-140802129D03*
X229223647Y-140802125D03*
D23*
X223763648Y-140802128D03*
D15*
X231383646Y-140802126D03*
%TD*%
D22*
%TO.C,D17*%
X225923651Y-123052136D03*
X229223651Y-123052132D03*
D23*
X223763652Y-123052135D03*
D15*
X231383650Y-123052133D03*
%TD*%
D22*
%TO.C,D18*%
X225923656Y-105302138D03*
X229223656Y-105302134D03*
D23*
X223763657Y-105302137D03*
D15*
X231383655Y-105302135D03*
%TD*%
D24*
%TO.C,D19*%
X173771376Y-164491750D03*
X177021240Y-163918710D03*
D25*
X171644191Y-164866829D03*
D15*
X179148425Y-163543631D03*
%TD*%
D26*
%TO.C,D20*%
X192509020Y-160917860D03*
X195790942Y-160572912D03*
D27*
X190360852Y-161143638D03*
D15*
X197939110Y-160347134D03*
%TD*%
D28*
%TO.C,D21*%
X211764402Y-160381541D03*
X215062392Y-160496705D03*
D29*
X209605717Y-160306155D03*
D15*
X217221077Y-160572091D03*
%TD*%
D30*
%TO.C,D22*%
X231114469Y-164840716D03*
X234174177Y-166076908D03*
D31*
X229111752Y-164031561D03*
D15*
X236176894Y-166886063D03*
%TD*%
D32*
%TO.C,D23*%
X247772463Y-175649060D03*
X250224833Y-177857194D03*
D33*
X246167268Y-174203741D03*
D15*
X251830028Y-179302513D03*
%TD*%
D34*
%TO.C,MCU1*%
X256943657Y-96332138D03*
X256943656Y-98872131D03*
X256943656Y-101412133D03*
X256943655Y-103952134D03*
X256943655Y-106492135D03*
X256943657Y-109032132D03*
X256943655Y-111572132D03*
X256943655Y-114112134D03*
X256943655Y-116652133D03*
X256943656Y-119192132D03*
X256943655Y-121732133D03*
X256943655Y-124272134D03*
X241703655Y-124272128D03*
X241703656Y-121732135D03*
X241703656Y-119192133D03*
X241703657Y-116652132D03*
X241703657Y-114112131D03*
X241703655Y-111572134D03*
X241703657Y-109032134D03*
X241703657Y-106492132D03*
X241703657Y-103952133D03*
X241703656Y-101412134D03*
X241703657Y-98872133D03*
X241703657Y-96332132D03*
X244243658Y-119192134D03*
X246783656Y-119192134D03*
X249323657Y-119192134D03*
%TD*%
D35*
%TO.C,JST1*%
X263073648Y-145302129D03*
D36*
X263073648Y-147302129D03*
%TD*%
D37*
%TO.C,B1*%
X248423652Y-132702143D03*
X248423651Y-138902137D03*
X244723653Y-132702137D03*
X244723652Y-138902131D03*
%TD*%
D38*
%TO.C,T1*%
X263073645Y-137302138D03*
X263073647Y-134302138D03*
D39*
X260998648Y-138052138D03*
X260998648Y-135052136D03*
X260998646Y-133552138D03*
D40*
X264173646Y-139502138D03*
X261973646Y-139502136D03*
X261973646Y-132102138D03*
X264173646Y-132102140D03*
%TD*%
M02*
