%TF.GenerationSoftware,KiCad,Pcbnew,8.0.4*%
%TF.CreationDate,2024-08-02T12:22:31+01:00*%
%TF.ProjectId,left,6c656674-2e6b-4696-9361-645f70636258,v1.0.0*%
%TF.SameCoordinates,Original*%
%TF.FileFunction,Copper,L2,Bot*%
%TF.FilePolarity,Positive*%
%FSLAX46Y46*%
G04 Gerber Fmt 4.6, Leading zero omitted, Abs format (unit mm)*
G04 Created by KiCad (PCBNEW 8.0.4) date 2024-08-02 12:22:31*
%MOMM*%
%LPD*%
G01*
G04 APERTURE LIST*
G04 Aperture macros list*
%AMRotRect*
0 Rectangle, with rotation*
0 The origin of the aperture is its center*
0 $1 length*
0 $2 width*
0 $3 Rotation angle, in degrees counterclockwise*
0 Add horizontal line*
21,1,$1,$2,0,0,$3*%
G04 Aperture macros list end*
%TA.AperFunction,SMDPad,CuDef*%
%ADD10RotRect,2.600000X2.600000X16.000000*%
%TD*%
%TA.AperFunction,SMDPad,CuDef*%
%ADD11RotRect,2.600000X2.600000X12.000000*%
%TD*%
%TA.AperFunction,SMDPad,CuDef*%
%ADD12RotRect,2.600000X2.600000X8.000000*%
%TD*%
%TA.AperFunction,SMDPad,CuDef*%
%ADD13RotRect,2.600000X2.600000X4.000000*%
%TD*%
%TA.AperFunction,SMDPad,CuDef*%
%ADD14R,2.600000X2.600000*%
%TD*%
%TA.AperFunction,SMDPad,CuDef*%
%ADD15RotRect,2.600000X2.600000X10.000000*%
%TD*%
%TA.AperFunction,SMDPad,CuDef*%
%ADD16RotRect,2.600000X2.600000X6.000000*%
%TD*%
%TA.AperFunction,SMDPad,CuDef*%
%ADD17RotRect,2.600000X2.600000X358.000000*%
%TD*%
%TA.AperFunction,SMDPad,CuDef*%
%ADD18RotRect,2.600000X2.600000X338.000000*%
%TD*%
%TA.AperFunction,SMDPad,CuDef*%
%ADD19RotRect,2.600000X2.600000X318.000000*%
%TD*%
%TA.AperFunction,SMDPad,CuDef*%
%ADD20RotRect,0.900000X1.200000X16.000000*%
%TD*%
%TA.AperFunction,ComponentPad*%
%ADD21RotRect,1.778000X1.778000X16.000000*%
%TD*%
%TA.AperFunction,ComponentPad*%
%ADD22C,1.905000*%
%TD*%
%TA.AperFunction,SMDPad,CuDef*%
%ADD23RotRect,0.900000X1.200000X12.000000*%
%TD*%
%TA.AperFunction,ComponentPad*%
%ADD24RotRect,1.778000X1.778000X12.000000*%
%TD*%
%TA.AperFunction,SMDPad,CuDef*%
%ADD25RotRect,0.900000X1.200000X8.000000*%
%TD*%
%TA.AperFunction,ComponentPad*%
%ADD26RotRect,1.778000X1.778000X8.000000*%
%TD*%
%TA.AperFunction,SMDPad,CuDef*%
%ADD27RotRect,0.900000X1.200000X4.000000*%
%TD*%
%TA.AperFunction,ComponentPad*%
%ADD28RotRect,1.778000X1.778000X4.000000*%
%TD*%
%TA.AperFunction,SMDPad,CuDef*%
%ADD29R,0.900000X1.200000*%
%TD*%
%TA.AperFunction,ComponentPad*%
%ADD30R,1.778000X1.778000*%
%TD*%
%TA.AperFunction,SMDPad,CuDef*%
%ADD31RotRect,0.900000X1.200000X10.000000*%
%TD*%
%TA.AperFunction,ComponentPad*%
%ADD32RotRect,1.778000X1.778000X10.000000*%
%TD*%
%TA.AperFunction,SMDPad,CuDef*%
%ADD33RotRect,0.900000X1.200000X6.000000*%
%TD*%
%TA.AperFunction,ComponentPad*%
%ADD34RotRect,1.778000X1.778000X6.000000*%
%TD*%
%TA.AperFunction,SMDPad,CuDef*%
%ADD35RotRect,0.900000X1.200000X358.000000*%
%TD*%
%TA.AperFunction,ComponentPad*%
%ADD36RotRect,1.778000X1.778000X358.000000*%
%TD*%
%TA.AperFunction,SMDPad,CuDef*%
%ADD37RotRect,0.900000X1.200000X338.000000*%
%TD*%
%TA.AperFunction,ComponentPad*%
%ADD38RotRect,1.778000X1.778000X338.000000*%
%TD*%
%TA.AperFunction,SMDPad,CuDef*%
%ADD39RotRect,0.900000X1.200000X318.000000*%
%TD*%
%TA.AperFunction,ComponentPad*%
%ADD40RotRect,1.778000X1.778000X318.000000*%
%TD*%
%TA.AperFunction,ComponentPad*%
%ADD41C,1.752600*%
%TD*%
%TA.AperFunction,ComponentPad*%
%ADD42R,1.700000X1.200000*%
%TD*%
%TA.AperFunction,ComponentPad*%
%ADD43O,1.700000X1.200000*%
%TD*%
%TA.AperFunction,WasherPad*%
%ADD44C,1.000000*%
%TD*%
%TA.AperFunction,Conductor*%
%ADD45C,0.250000*%
%TD*%
G04 APERTURE END LIST*
D10*
%TO.P,S1,1*%
%TO.N,P031*%
X123591803Y-161235655D03*
%TO.P,S1,2*%
%TO.N,first_bottom*%
X135300776Y-160166819D03*
%TD*%
%TO.P,S2,1*%
%TO.N,P031*%
X118699250Y-144173265D03*
%TO.P,S2,2*%
%TO.N,first_home*%
X130408223Y-143104429D03*
%TD*%
%TO.P,S3,1*%
%TO.N,P031*%
X113806687Y-127110862D03*
%TO.P,S3,2*%
%TO.N,first_top*%
X125515660Y-126042026D03*
%TD*%
%TO.P,S4,1*%
%TO.N,P029*%
X141064184Y-154144926D03*
%TO.P,S4,2*%
%TO.N,second_bottom*%
X152773157Y-153076090D03*
%TD*%
%TO.P,S5,1*%
%TO.N,P029*%
X136171623Y-137082534D03*
%TO.P,S5,2*%
%TO.N,second_home*%
X147880596Y-136013698D03*
%TD*%
%TO.P,S6,1*%
%TO.N,P029*%
X131279064Y-120020136D03*
%TO.P,S6,2*%
%TO.N,second_top*%
X142988037Y-118951300D03*
%TD*%
D11*
%TO.P,S7,1*%
%TO.N,P002*%
X157992505Y-134427679D03*
%TO.P,S7,2*%
%TO.N,third_bottom*%
X169747514Y-134178225D03*
%TD*%
%TO.P,S8,1*%
%TO.N,P002*%
X154302073Y-117065552D03*
%TO.P,S8,2*%
%TO.N,third_home*%
X166057082Y-116816098D03*
%TD*%
%TO.P,S9,2*%
%TO.N,third_top*%
X162366649Y-99453983D03*
%TO.P,S9,1*%
%TO.N,P002*%
X150611640Y-99703437D03*
%TD*%
D12*
%TO.P,S10,1*%
%TO.N,P115*%
X178378597Y-125571198D03*
%TO.P,S10,2*%
%TO.N,fourth_bottom*%
X190122373Y-126142340D03*
%TD*%
%TO.P,S11,1*%
%TO.N,P115*%
X175908279Y-107993938D03*
%TO.P,S11,2*%
%TO.N,fourth_home*%
X187652055Y-108565080D03*
%TD*%
%TO.P,S12,1*%
%TO.N,P115*%
X173437950Y-90416688D03*
%TO.P,S12,2*%
%TO.N,fourth_top*%
X185181726Y-90987830D03*
%TD*%
D13*
%TO.P,S13,1*%
%TO.N,P113*%
X200169565Y-129124266D03*
%TO.P,S13,2*%
%TO.N,fifth_bottom*%
X211844895Y-130513223D03*
%TD*%
%TO.P,S14,1*%
%TO.N,P113*%
X198931387Y-111417506D03*
%TO.P,S14,2*%
%TO.N,fifth_home*%
X210606717Y-112806463D03*
%TD*%
%TO.P,S15,1*%
%TO.N,P113*%
X197693215Y-93710743D03*
%TO.P,S15,2*%
%TO.N,fifth_top*%
X209368545Y-95099700D03*
%TD*%
D14*
%TO.P,S16,1*%
%TO.N,P104*%
X221298648Y-129852126D03*
%TO.P,S16,2*%
%TO.N,sixth_bottom*%
X232848650Y-132052129D03*
%TD*%
%TO.P,S17,1*%
%TO.N,P104*%
X221298647Y-112102134D03*
%TO.P,S17,2*%
%TO.N,sixth_home*%
X232848649Y-114302137D03*
%TD*%
%TO.P,S18,1*%
%TO.N,P104*%
X221298644Y-94352133D03*
%TO.P,S18,2*%
%TO.N,sixth_top*%
X232848646Y-96552136D03*
%TD*%
D15*
%TO.P,S19,1*%
%TO.N,P029*%
X167315199Y-154511229D03*
%TO.P,S19,2*%
%TO.N,first_only*%
X179071753Y-154672171D03*
%TD*%
D16*
%TO.P,S20,1*%
%TO.N,P002*%
X186764766Y-150511285D03*
%TO.P,S20,2*%
%TO.N,second_only*%
X198481457Y-151491933D03*
%TD*%
D17*
%TO.P,S21,1*%
%TO.N,P115*%
X207524368Y-149276806D03*
%TO.P,S21,2*%
%TO.N,third_only*%
X218990555Y-151878559D03*
%TD*%
D18*
%TO.P,S22,1*%
%TO.N,P113*%
X230928184Y-152955498D03*
%TO.P,S22,2*%
%TO.N,fourth_only*%
X240813024Y-159322009D03*
%TD*%
D19*
%TO.P,S23,1*%
%TO.N,P104*%
X251662392Y-164416902D03*
%TO.P,S23,2*%
%TO.N,fifth_only*%
X258773626Y-173780280D03*
%TD*%
D20*
%TO.P,D1,2*%
%TO.N,first_bottom*%
X134228033Y-169577039D03*
%TO.P,D1,1*%
%TO.N,P009*%
X131055871Y-170486643D03*
D21*
X128979546Y-171082019D03*
D22*
%TO.P,D1,2*%
%TO.N,first_bottom*%
X136304358Y-168981663D03*
%TD*%
D20*
%TO.P,D2,2*%
%TO.N,first_home*%
X129335470Y-152514651D03*
%TO.P,D2,1*%
%TO.N,P010*%
X126163308Y-153424255D03*
D21*
X124086983Y-154019631D03*
D22*
%TO.P,D2,2*%
%TO.N,first_home*%
X131411795Y-151919275D03*
%TD*%
D20*
%TO.P,D3,2*%
%TO.N,first_top*%
X124442910Y-135452258D03*
%TO.P,D3,1*%
%TO.N,P111*%
X121270748Y-136361862D03*
D21*
X119194423Y-136957238D03*
D22*
%TO.P,D3,2*%
%TO.N,first_top*%
X126519235Y-134856882D03*
%TD*%
D20*
%TO.P,D4,2*%
%TO.N,second_bottom*%
X151700411Y-162486324D03*
%TO.P,D4,1*%
%TO.N,P009*%
X148528249Y-163395928D03*
D21*
X146451924Y-163991304D03*
D22*
%TO.P,D4,2*%
%TO.N,second_bottom*%
X153776736Y-161890948D03*
%TD*%
D20*
%TO.P,D5,2*%
%TO.N,second_home*%
X146807859Y-145423922D03*
%TO.P,D5,1*%
%TO.N,P010*%
X143635697Y-146333526D03*
D21*
X141559372Y-146928902D03*
D22*
%TO.P,D5,2*%
%TO.N,second_home*%
X148884184Y-144828546D03*
%TD*%
D20*
%TO.P,D6,2*%
%TO.N,second_top*%
X141915290Y-128361523D03*
%TO.P,D6,1*%
%TO.N,P111*%
X138743128Y-129271127D03*
D21*
X136666803Y-129866503D03*
D22*
%TO.P,D6,2*%
%TO.N,second_top*%
X143991615Y-127766147D03*
%TD*%
D23*
%TO.P,D7,2*%
%TO.N,third_bottom*%
X168020955Y-143490696D03*
%TO.P,D7,1*%
%TO.N,P009*%
X164793069Y-144176806D03*
D24*
X162680270Y-144625894D03*
D22*
%TO.P,D7,2*%
%TO.N,third_bottom*%
X170133754Y-143041608D03*
%TD*%
D23*
%TO.P,D8,2*%
%TO.N,third_home*%
X164330529Y-126128584D03*
%TO.P,D8,1*%
%TO.N,P010*%
X161102643Y-126814694D03*
D24*
X158989844Y-127263782D03*
D22*
%TO.P,D8,2*%
%TO.N,third_home*%
X166443328Y-125679496D03*
%TD*%
D23*
%TO.P,D9,2*%
%TO.N,third_top*%
X160640095Y-108766453D03*
%TO.P,D9,1*%
%TO.N,P111*%
X157412209Y-109452563D03*
D24*
X155299410Y-109901651D03*
D22*
%TO.P,D9,2*%
%TO.N,third_top*%
X162752894Y-108317365D03*
%TD*%
D25*
%TO.P,D10,2*%
%TO.N,fourth_bottom*%
X187750415Y-135311691D03*
%TO.P,D10,1*%
%TO.N,P009*%
X184482531Y-135770963D03*
D26*
X182343552Y-136071575D03*
D22*
%TO.P,D10,2*%
%TO.N,fourth_bottom*%
X189889394Y-135011079D03*
%TD*%
D25*
%TO.P,D11,2*%
%TO.N,fourth_home*%
X185280092Y-117734427D03*
%TO.P,D11,1*%
%TO.N,P010*%
X182012208Y-118193699D03*
D26*
X179873229Y-118494311D03*
D22*
%TO.P,D11,2*%
%TO.N,fourth_home*%
X187419071Y-117433815D03*
%TD*%
D25*
%TO.P,D12,2*%
%TO.N,fourth_top*%
X182809770Y-100157166D03*
%TO.P,D12,1*%
%TO.N,P111*%
X179541886Y-100616438D03*
D26*
X177402907Y-100917050D03*
D22*
%TO.P,D12,2*%
%TO.N,fourth_top*%
X184948749Y-99856554D03*
%TD*%
D27*
%TO.P,D13,2*%
%TO.N,fifth_bottom*%
X208839094Y-139494768D03*
%TO.P,D13,1*%
%TO.N,P009*%
X205547132Y-139724968D03*
D28*
X203392394Y-139875639D03*
D22*
%TO.P,D13,2*%
%TO.N,fifth_bottom*%
X210993832Y-139344097D03*
%TD*%
D27*
%TO.P,D14,2*%
%TO.N,fifth_home*%
X207600922Y-121788008D03*
%TO.P,D14,1*%
%TO.N,P010*%
X204308960Y-122018208D03*
D28*
X202154222Y-122168879D03*
D22*
%TO.P,D14,2*%
%TO.N,fifth_home*%
X209755660Y-121637337D03*
%TD*%
D27*
%TO.P,D15,2*%
%TO.N,fifth_top*%
X206362742Y-104081238D03*
%TO.P,D15,1*%
%TO.N,P111*%
X203070780Y-104311438D03*
D28*
X200916042Y-104462109D03*
D22*
%TO.P,D15,2*%
%TO.N,fifth_top*%
X208517480Y-103930567D03*
%TD*%
D29*
%TO.P,D16,2*%
%TO.N,sixth_bottom*%
X229223647Y-140802125D03*
%TO.P,D16,1*%
%TO.N,P009*%
X225923647Y-140802129D03*
D30*
X223763648Y-140802128D03*
D22*
%TO.P,D16,2*%
%TO.N,sixth_bottom*%
X231383646Y-140802126D03*
%TD*%
D29*
%TO.P,D17,2*%
%TO.N,sixth_home*%
X229223651Y-123052132D03*
%TO.P,D17,1*%
%TO.N,P010*%
X225923651Y-123052136D03*
D30*
X223763652Y-123052135D03*
D22*
%TO.P,D17,2*%
%TO.N,sixth_home*%
X231383650Y-123052133D03*
%TD*%
D29*
%TO.P,D18,2*%
%TO.N,sixth_top*%
X229223656Y-105302134D03*
%TO.P,D18,1*%
%TO.N,P111*%
X225923656Y-105302138D03*
D30*
X223763657Y-105302137D03*
D22*
%TO.P,D18,2*%
%TO.N,sixth_top*%
X231383655Y-105302135D03*
%TD*%
D31*
%TO.P,D19,2*%
%TO.N,first_only*%
X177021240Y-163918710D03*
%TO.P,D19,1*%
%TO.N,P106*%
X173771376Y-164491750D03*
D32*
X171644191Y-164866829D03*
D22*
%TO.P,D19,2*%
%TO.N,first_only*%
X179148425Y-163543631D03*
%TD*%
D33*
%TO.P,D20,2*%
%TO.N,second_only*%
X195790942Y-160572912D03*
%TO.P,D20,1*%
%TO.N,P106*%
X192509020Y-160917860D03*
D34*
X190360852Y-161143638D03*
D22*
%TO.P,D20,2*%
%TO.N,second_only*%
X197939110Y-160347134D03*
%TD*%
D35*
%TO.P,D21,2*%
%TO.N,third_only*%
X215062392Y-160496705D03*
%TO.P,D21,1*%
%TO.N,P106*%
X211764402Y-160381541D03*
D36*
X209605717Y-160306155D03*
D22*
%TO.P,D21,2*%
%TO.N,third_only*%
X217221077Y-160572091D03*
%TD*%
D37*
%TO.P,D22,2*%
%TO.N,fourth_only*%
X234174177Y-166076908D03*
%TO.P,D22,1*%
%TO.N,P106*%
X231114469Y-164840716D03*
D38*
X229111752Y-164031561D03*
D22*
%TO.P,D22,2*%
%TO.N,fourth_only*%
X236176894Y-166886063D03*
%TD*%
D39*
%TO.P,D23,2*%
%TO.N,fifth_only*%
X250224833Y-177857194D03*
%TO.P,D23,1*%
%TO.N,P106*%
X247772463Y-175649060D03*
D40*
X246167268Y-174203741D03*
D22*
%TO.P,D23,2*%
%TO.N,fifth_only*%
X251830028Y-179302513D03*
%TD*%
D41*
%TO.P,MCU1,1*%
%TO.N,P006*%
X256943657Y-96332138D03*
%TO.P,MCU1,2*%
%TO.N,P008*%
X256943656Y-98872131D03*
%TO.P,MCU1,3*%
%TO.N,GND*%
X256943656Y-101412133D03*
%TO.P,MCU1,4*%
X256943655Y-103952134D03*
%TO.P,MCU1,5*%
%TO.N,P017*%
X256943655Y-106492135D03*
%TO.P,MCU1,6*%
%TO.N,P020*%
X256943657Y-109032132D03*
%TO.P,MCU1,7*%
%TO.N,P022*%
X256943655Y-111572132D03*
%TO.P,MCU1,8*%
%TO.N,P024*%
X256943655Y-114112134D03*
%TO.P,MCU1,9*%
%TO.N,P100*%
X256943655Y-116652133D03*
%TO.P,MCU1,10*%
%TO.N,P011*%
X256943656Y-119192132D03*
%TO.P,MCU1,11*%
%TO.N,P104*%
X256943655Y-121732133D03*
%TO.P,MCU1,12*%
%TO.N,P106*%
X256943655Y-124272134D03*
%TO.P,MCU1,13*%
%TO.N,P009*%
X241703655Y-124272128D03*
%TO.P,MCU1,14*%
%TO.N,P010*%
X241703656Y-121732135D03*
%TO.P,MCU1,15*%
%TO.N,P111*%
X241703656Y-119192133D03*
%TO.P,MCU1,16*%
%TO.N,P113*%
X241703657Y-116652132D03*
%TO.P,MCU1,17*%
%TO.N,P115*%
X241703657Y-114112131D03*
%TO.P,MCU1,18*%
%TO.N,P002*%
X241703655Y-111572134D03*
%TO.P,MCU1,19*%
%TO.N,P029*%
X241703657Y-109032134D03*
%TO.P,MCU1,20*%
%TO.N,P031*%
X241703657Y-106492132D03*
%TO.P,MCU1,21*%
%TO.N,VCC*%
X241703657Y-103952133D03*
%TO.P,MCU1,22*%
%TO.N,RST*%
X241703656Y-101412134D03*
%TO.P,MCU1,23*%
%TO.N,GND*%
X241703657Y-98872133D03*
%TO.P,MCU1,24*%
%TO.N,RAW*%
X241703657Y-96332132D03*
%TO.P,MCU1,31*%
%TO.N,P101*%
X244243658Y-119192134D03*
%TO.P,MCU1,32*%
%TO.N,P102*%
X246783656Y-119192134D03*
%TO.P,MCU1,33*%
%TO.N,P107*%
X249323657Y-119192134D03*
%TD*%
D42*
%TO.P,JST1,1*%
%TO.N,pos*%
X263073648Y-145302129D03*
D43*
%TO.P,JST1,2*%
%TO.N,GND*%
X263073648Y-147302129D03*
%TD*%
D44*
%TO.P,T1,*%
%TO.N,*%
X263073645Y-137302138D03*
X263073647Y-134302138D03*
%TD*%
D45*
%TO.N,P104*%
X253202355Y-117990835D02*
X256943656Y-121732138D01*
X247418633Y-117990833D02*
X253202355Y-117990835D01*
X247407706Y-118001766D02*
X247418633Y-117990833D01*
X247396769Y-117990839D02*
X247407706Y-118001766D01*
X241343463Y-117990838D02*
X247396769Y-117990839D01*
X237357703Y-114005077D02*
X241343463Y-117990838D01*
X237357705Y-96133750D02*
X237357703Y-114005077D01*
X234075721Y-92851765D02*
X237357705Y-96133750D01*
X226607703Y-92851771D02*
X234075721Y-92851765D01*
X226607702Y-95401768D02*
X226607703Y-92851771D01*
X225782336Y-96227135D02*
X226607702Y-95401768D01*
X223173646Y-96227135D02*
X225782336Y-96227135D01*
X221298650Y-94352136D02*
X223173646Y-96227135D01*
%TO.N,P113*%
X234262125Y-92401765D02*
X237807706Y-95947351D01*
X237807706Y-95947351D02*
X237807708Y-112756182D01*
X211682058Y-92401771D02*
X234262125Y-92401765D01*
X209872130Y-90591843D02*
X211682058Y-92401771D01*
X197693211Y-93710740D02*
X199791676Y-91296736D01*
X199791676Y-91296736D02*
X209872130Y-90591843D01*
X237807708Y-112756182D02*
X241703657Y-116652132D01*
%TO.N,P115*%
X238257700Y-95760956D02*
X238257704Y-110666179D01*
X234448520Y-91951764D02*
X238257700Y-95760956D01*
X238257704Y-110666179D02*
X241703656Y-114112131D01*
X210062510Y-90128986D02*
X211885289Y-91951766D01*
X192306366Y-91369064D02*
X201860229Y-90700989D01*
X210040253Y-90128988D02*
X210062510Y-90128986D01*
X189491155Y-88921838D02*
X192306366Y-91369064D01*
X211885289Y-91951766D02*
X234448520Y-91951764D01*
X186133677Y-86003230D02*
X189491155Y-88921838D01*
X201860229Y-90700989D02*
X210040253Y-90128988D01*
X186094312Y-86005982D02*
X186133677Y-86003230D01*
%TO.N,P002*%
X238707704Y-108576192D02*
X241703652Y-111572135D01*
X212140153Y-91501768D02*
X234634913Y-91501770D01*
X238707702Y-95574561D02*
X238707704Y-108576192D01*
X209300665Y-89729606D02*
X210298233Y-89659845D01*
X192844189Y-90880356D02*
X209300665Y-89729606D01*
X186271378Y-85526675D02*
X192460913Y-90907154D01*
X162112232Y-94055832D02*
X166322986Y-88467971D01*
X161745341Y-94107399D02*
X162112232Y-94055832D01*
X166322986Y-88467971D02*
X166439079Y-88313921D01*
X157832755Y-94939044D02*
X161745341Y-94107399D01*
X210298233Y-89659845D02*
X212140153Y-91501768D01*
X166439079Y-88313921D02*
X184092787Y-85832854D01*
X153044758Y-95956760D02*
X157832755Y-94939044D01*
X184092787Y-85832854D02*
X186271378Y-85526675D01*
X192460913Y-90907154D02*
X192844189Y-90880356D01*
X150611633Y-99703442D02*
X153044758Y-95956760D01*
X234634913Y-91501770D02*
X238707702Y-95574561D01*
%TO.N,P029*%
X239157705Y-95388162D02*
X239157705Y-106486183D01*
X239157705Y-106486183D02*
X241703655Y-109032140D01*
X212337963Y-91051771D02*
X234821312Y-91051767D01*
X234821312Y-91051767D02*
X239157705Y-95388162D01*
X210483195Y-89196994D02*
X212337963Y-91051771D01*
X210466356Y-89196997D02*
X210483195Y-89196994D01*
X196699970Y-90159634D02*
X209269278Y-89280701D01*
X192626858Y-90444454D02*
X196699970Y-90159634D01*
X186423598Y-85052042D02*
X192626858Y-90444454D01*
X209269278Y-89280701D02*
X210466356Y-89196997D01*
X186406801Y-85053216D02*
X186423598Y-85052042D01*
X184822373Y-85275896D02*
X186406801Y-85053216D01*
X167393660Y-87725336D02*
X184822373Y-85275896D01*
X166191864Y-87894236D02*
X167393660Y-87725336D01*
X161697857Y-93657435D02*
X161866875Y-93633684D01*
X161651777Y-93667227D02*
X161697857Y-93657435D01*
X157934823Y-94457297D02*
X161651777Y-93667227D01*
X150109640Y-96120590D02*
X157934823Y-94457297D01*
X147944410Y-96580822D02*
X150109640Y-96120590D01*
X143834122Y-102910105D02*
X144810939Y-101405943D01*
X144810939Y-101405943D02*
X147944410Y-96580822D01*
X161866875Y-93633684D02*
X163495426Y-91472531D01*
X145112312Y-108923482D02*
X144128027Y-104292819D01*
X144128027Y-104292819D02*
X143834122Y-102910105D01*
X140849104Y-115022792D02*
X141220532Y-114916290D01*
X132764052Y-117341148D02*
X140849104Y-115022792D01*
X141220532Y-114916290D02*
X145112312Y-108923482D01*
X131279065Y-120020135D02*
X132764052Y-117341148D01*
X163495426Y-91472531D02*
X166191864Y-87894236D01*
%TO.N,P031*%
X116971454Y-121401475D02*
X113806691Y-127110864D01*
X143355207Y-102821344D02*
X144629886Y-108818249D01*
X157841265Y-94017133D02*
X147668527Y-96179412D01*
X161558220Y-93227062D02*
X157841265Y-94017133D01*
X161558226Y-93227069D02*
X161558220Y-93227062D01*
X162540274Y-91992325D02*
X161619671Y-93214004D01*
X165944650Y-87474557D02*
X162540274Y-91992325D01*
X185353911Y-84746772D02*
X173272634Y-86444682D01*
X147668527Y-96179412D02*
X143355207Y-102821344D01*
X186542228Y-84579763D02*
X185353911Y-84746772D01*
X186564434Y-84578206D02*
X186542228Y-84579763D01*
X173272634Y-86444682D02*
X165944650Y-87474557D01*
X192781407Y-89982544D02*
X186564434Y-84578206D01*
X161619671Y-93214004D02*
X161558226Y-93227069D01*
X210634478Y-88734138D02*
X195870529Y-89766533D01*
X210656732Y-88734139D02*
X210634478Y-88734138D01*
X212524366Y-90601765D02*
X210656732Y-88734139D01*
X195870529Y-89766533D02*
X192781407Y-89982544D01*
X144629886Y-108818249D02*
X140917314Y-114535104D01*
X235007702Y-90601768D02*
X212524366Y-90601765D01*
X140917314Y-114535104D02*
X116971454Y-121401475D01*
X239607700Y-104396186D02*
X239607706Y-95201767D01*
X239607706Y-95201767D02*
X235007702Y-90601768D01*
X241703657Y-106492133D02*
X239607700Y-104396186D01*
%TO.N,P115*%
X186094312Y-86005982D02*
X186130923Y-86000835D01*
X182372933Y-86528987D02*
X186094312Y-86005982D01*
X175656217Y-87472957D02*
X182372933Y-86528987D01*
X173437951Y-90416686D02*
X175656217Y-87472957D01*
%TO.N,P104*%
X221298651Y-140765122D02*
X231471690Y-150938167D01*
X231471690Y-150938167D02*
X238183660Y-150938170D01*
X221298642Y-129852128D02*
X221298651Y-140765122D01*
X238183660Y-150938170D02*
X251662394Y-164416897D01*
X221298644Y-129852133D02*
X221298642Y-129852128D01*
X221298653Y-112102135D02*
X221298644Y-129852133D01*
X221298653Y-112102133D02*
X221298653Y-112102135D01*
X221298653Y-94352137D02*
X221298653Y-112102133D01*
%TO.N,P113*%
X221887029Y-145096139D02*
X230928183Y-152955492D01*
X207905657Y-146073815D02*
X221887029Y-145096139D01*
X200930817Y-140010684D02*
X207905657Y-146073815D01*
X200169564Y-129124267D02*
X200930817Y-140010684D01*
X200169563Y-129124265D02*
X200169564Y-129124267D01*
X198931389Y-111417504D02*
X200169563Y-129124265D01*
X198931396Y-111417504D02*
X198931389Y-111417504D01*
X197693212Y-93710734D02*
X198931396Y-111417504D01*
%TO.N,P115*%
X185256535Y-144795094D02*
X199011558Y-142861948D01*
X199011558Y-142861948D02*
X207524365Y-149276802D01*
X180585672Y-141275342D02*
X185256535Y-144795094D01*
X178378599Y-125571201D02*
X180585672Y-141275342D01*
X178378593Y-125571194D02*
X178378599Y-125571201D01*
X175908272Y-107993941D02*
X178378593Y-125571194D01*
X175908275Y-107993933D02*
X175908272Y-107993941D01*
X173437954Y-90416683D02*
X175908275Y-107993933D01*
%TO.N,P002*%
X166170466Y-148939566D02*
X169328649Y-148268281D01*
X169328649Y-148268281D02*
X176230528Y-152750408D01*
X160261445Y-145102203D02*
X166170466Y-148939566D01*
X157992502Y-134427684D02*
X160261445Y-145102203D01*
X176230528Y-152750408D02*
X186764767Y-150511286D01*
X157992496Y-134427678D02*
X157992502Y-134427684D01*
X154302068Y-117065551D02*
X157992496Y-134427678D01*
X154302070Y-117065549D02*
X154302068Y-117065551D01*
X150611630Y-99703444D02*
X154302070Y-117065549D01*
%TO.N,P029*%
X155610569Y-148023253D02*
X167315188Y-154511230D01*
X142349732Y-151825748D02*
X155610569Y-148023253D01*
X141064187Y-154144926D02*
X142349732Y-151825748D01*
X136286009Y-137481437D02*
X136286004Y-137481444D01*
X136171614Y-137082536D02*
X136286009Y-137481437D01*
X136286004Y-137481444D02*
X141064187Y-154144926D01*
X136171628Y-137082528D02*
X136171614Y-137082536D01*
X131279067Y-120020135D02*
X136171628Y-137082528D01*
%TO.N,P031*%
X119185734Y-145869862D02*
X123591803Y-161235654D01*
X119185734Y-145869858D02*
X119185734Y-145869862D01*
X118699245Y-144173263D02*
X119185734Y-145869858D01*
X113806686Y-127110860D02*
X118699246Y-144173255D01*
X118699246Y-144173255D02*
X118699245Y-144173263D01*
%TO.N,fifth_only*%
X258773629Y-173780283D02*
X253899016Y-179194082D01*
X253899016Y-179194082D02*
X251830030Y-179302523D01*
X251830026Y-179302523D02*
X251830030Y-179302523D01*
X250224834Y-177857194D02*
X251830026Y-179302523D01*
%TO.N,P106*%
X247772455Y-175649066D02*
X247772456Y-175649062D01*
X246167271Y-174203738D02*
X247772455Y-175649066D01*
X229111751Y-164031565D02*
X229111757Y-164031563D01*
X231114470Y-164840720D02*
X229111751Y-164031565D01*
%TO.N,fourth_only*%
X234174178Y-166076914D02*
X234174180Y-166076910D01*
X236176902Y-166886058D02*
X234174178Y-166076914D01*
X238084015Y-166076532D02*
X236176902Y-166886058D01*
X240813020Y-159322001D02*
X238084015Y-166076532D01*
%TO.N,P111*%
X223763649Y-105302134D02*
X223763649Y-105302132D01*
X225923647Y-105302136D02*
X223763649Y-105302134D01*
%TO.N,sixth_top*%
X229223639Y-105302135D02*
X229223642Y-105302132D01*
X231383653Y-105302139D02*
X229223639Y-105302135D01*
X232848650Y-96552130D02*
X232848647Y-103837148D01*
X232848647Y-103837148D02*
X231383653Y-105302139D01*
%TO.N,sixth_home*%
X232848650Y-121587132D02*
X231383654Y-123052122D01*
X232848654Y-114302139D02*
X232848650Y-121587132D01*
X231383650Y-123052127D02*
X231383654Y-123052122D01*
X229223654Y-123052126D02*
X231383650Y-123052127D01*
%TO.N,P010*%
X225923649Y-123052136D02*
X225923650Y-123052133D01*
X223763658Y-123052132D02*
X225923649Y-123052136D01*
%TO.N,sixth_bottom*%
X232848648Y-139337126D02*
X231383656Y-140802137D01*
X232848654Y-132052140D02*
X232848648Y-139337126D01*
X231383656Y-140802134D02*
X231383656Y-140802137D01*
X229223647Y-140802129D02*
X231383656Y-140802134D01*
%TO.N,P009*%
X225923647Y-140802128D02*
X225923647Y-140802131D01*
X223763650Y-140802136D02*
X225923647Y-140802128D01*
%TO.N,P106*%
X209605715Y-160306168D02*
X209605720Y-160306168D01*
X211764396Y-160381558D02*
X209605715Y-160306168D01*
%TO.N,third_only*%
X217221077Y-160572096D02*
X215062392Y-160496713D01*
X215062392Y-160496713D02*
X215062394Y-160496710D01*
X218736318Y-159159119D02*
X217221077Y-160572096D01*
X218990562Y-151878558D02*
X218736318Y-159159119D01*
%TO.N,P010*%
X204308952Y-122018205D02*
X202154218Y-122168885D01*
X202154218Y-122168885D02*
X202154220Y-122168887D01*
%TO.N,fifth_home*%
X209755663Y-121637333D02*
X207600925Y-121788011D01*
X207600925Y-121788011D02*
X207600922Y-121788011D01*
X211114887Y-120073718D02*
X209755663Y-121637333D01*
X210606719Y-112806458D02*
X211114887Y-120073718D01*
%TO.N,P111*%
X200916045Y-104462122D02*
X200916041Y-104462115D01*
X203070785Y-104311443D02*
X200916045Y-104462122D01*
%TO.N,fifth_top*%
X206362741Y-104081247D02*
X206362743Y-104081246D01*
X208517482Y-103930573D02*
X206362741Y-104081247D01*
X209368550Y-95099700D02*
X209876729Y-102366952D01*
X209876729Y-102366952D02*
X208517482Y-103930573D01*
%TO.N,fifth_bottom*%
X212353078Y-137780464D02*
X210993829Y-139344098D01*
X211844894Y-130513230D02*
X212353078Y-137780464D01*
X208839089Y-139494772D02*
X208839086Y-139494773D01*
X210993829Y-139344098D02*
X208839089Y-139494772D01*
%TO.N,P009*%
X203392391Y-139875637D02*
X205547131Y-139724964D01*
X205547131Y-139724964D02*
X205547132Y-139724977D01*
%TO.N,P106*%
X190360843Y-161143644D02*
X190360844Y-161143639D01*
X192509021Y-160917848D02*
X190360843Y-161143644D01*
%TO.N,second_only*%
X195790940Y-160572915D02*
X195790945Y-160572910D01*
X197939106Y-160347138D02*
X195790940Y-160572915D01*
X199242948Y-158737029D02*
X197939106Y-160347138D01*
X198481461Y-151491922D02*
X199242948Y-158737029D01*
%TO.N,fourth_top*%
X186195609Y-98201929D02*
X184948754Y-99856560D01*
X185181732Y-90987833D02*
X186195609Y-98201929D01*
X182809767Y-100157176D02*
X184948751Y-99856556D01*
X184948751Y-99856556D02*
X184948754Y-99856560D01*
%TO.N,P111*%
X179541899Y-100616442D02*
X179541899Y-100616441D01*
X177402910Y-100917056D02*
X179541899Y-100616442D01*
%TO.N,P010*%
X179873236Y-118494313D02*
X179873236Y-118494315D01*
X182012204Y-118193699D02*
X179873236Y-118494313D01*
%TO.N,fourth_home*%
X185280099Y-117734428D02*
X185280097Y-117734433D01*
X187419078Y-117433812D02*
X185280099Y-117734428D01*
X187652056Y-108565080D02*
X188665925Y-115779184D01*
X188665925Y-115779184D02*
X187419078Y-117433812D01*
%TO.N,fourth_bottom*%
X191136247Y-133356440D02*
X189889395Y-135011080D01*
X190122378Y-126142334D02*
X191136247Y-133356440D01*
X189889389Y-135011078D02*
X189889395Y-135011080D01*
X187750420Y-135311687D02*
X189889389Y-135011078D01*
%TO.N,P009*%
X184482534Y-135770957D02*
X184482534Y-135770957D01*
X182343558Y-136071578D02*
X184482534Y-135770957D01*
%TO.N,P106*%
X173771379Y-164491749D02*
X171644191Y-164866821D01*
%TO.N,first_only*%
X179148423Y-163543632D02*
X177021235Y-163918706D01*
X180336780Y-161846492D02*
X179148423Y-163543632D01*
X179071751Y-154672172D02*
X180336780Y-161846492D01*
%TO.N,P111*%
X157412198Y-109452562D02*
X155299402Y-109901646D01*
%TO.N,third_top*%
X162752898Y-108317366D02*
X160640096Y-108766460D01*
X163881289Y-106579803D02*
X162752898Y-108317366D01*
X162366645Y-99453986D02*
X163881289Y-106579803D01*
%TO.N,P010*%
X161102635Y-126814693D02*
X158989833Y-127263778D01*
%TO.N,third_home*%
X166443320Y-125679490D02*
X164330519Y-126128577D01*
X167571716Y-123941901D02*
X166443320Y-125679490D01*
X166057078Y-116816099D02*
X167571716Y-123941901D01*
%TO.N,third_bottom*%
X171262147Y-141304032D02*
X170133754Y-143041608D01*
X169747521Y-134178230D02*
X171262147Y-141304032D01*
X168020959Y-143490703D02*
X170133754Y-143041608D01*
%TO.N,P009*%
X162680261Y-144625900D02*
X164793067Y-144176799D01*
X148528259Y-163395920D02*
X146451933Y-163991301D01*
%TO.N,second_bottom*%
X153776753Y-161890949D02*
X151700418Y-162486320D01*
X152773160Y-153076080D02*
X154781182Y-160078882D01*
X154781182Y-160078882D02*
X153776753Y-161890949D01*
%TO.N,P010*%
X143635701Y-146333530D02*
X141559364Y-146928903D01*
%TO.N,second_home*%
X148884179Y-144828554D02*
X146807857Y-145423926D01*
X149888614Y-143016497D02*
X148884179Y-144828554D01*
X147880597Y-136013689D02*
X149888614Y-143016497D01*
%TO.N,P111*%
X138743122Y-129271126D02*
X136666801Y-129866504D01*
%TO.N,second_top*%
X143991622Y-127766158D02*
X141915289Y-128361526D01*
X144996058Y-125954090D02*
X143991622Y-127766158D01*
X142988038Y-118951298D02*
X144996058Y-125954090D01*
%TO.N,P111*%
X121270736Y-136361856D02*
X119194417Y-136957233D01*
%TO.N,first_top*%
X126519243Y-134856874D02*
X124442914Y-135452253D01*
X127523684Y-133044826D02*
X126519243Y-134856874D01*
X125515659Y-126042029D02*
X127523684Y-133044826D01*
%TO.N,P010*%
X126163310Y-153424245D02*
X124086980Y-154019622D01*
%TO.N,first_home*%
X131411798Y-151919268D02*
X129335477Y-152514643D01*
X132416236Y-150107203D02*
X131411798Y-151919268D01*
X130408212Y-143104425D02*
X132416236Y-150107203D01*
%TO.N,P009*%
X131055873Y-170486638D02*
X128979560Y-171082017D01*
%TO.N,first_bottom*%
X136304353Y-168981658D02*
X134228033Y-169577052D01*
X137308800Y-167169604D02*
X136304353Y-168981658D01*
X135300777Y-160166819D02*
X137308800Y-167169604D01*
%TD*%
M02*
