M48
; DRILL file {KiCad 8.0.4} date 2024-08-02T12:22:16+0100
; FORMAT={-:-/ absolute / inch / decimal}
; #@! TF.CreationDate,2024-08-02T12:22:16+01:00
; #@! TF.GenerationSoftware,Kicad,Pcbnew,8.0.4
; #@! TF.FileFunction,Plated,1,2,PTH
FMAT,2
INCH
; #@! TA.AperFunction,Plated,PTH,ComponentDrill
T1C0.0295
; #@! TA.AperFunction,Plated,PTH,ComponentDrill
T2C0.0390
; #@! TA.AperFunction,Plated,PTH,ComponentDrill
T3C0.0430
%
G90
G05
T1
X10.3572Y-5.7206
X10.3572Y-5.7993
T2
X4.6927Y-5.392
X4.8853Y-6.0638
X4.9811Y-5.3093
X5.0779Y-6.7355
X5.1737Y-5.9811
X5.3663Y-6.6528
X5.3806Y-5.1129
X5.5732Y-5.7846
X5.669Y-5.0302
X5.7658Y-6.4564
X5.8616Y-5.7019
X6.0542Y-6.3737
X6.1141Y-4.3268
X6.2594Y-5.0104
X6.4047Y-5.6939
X6.4076Y-4.2645
X6.5529Y-4.948
X6.6982Y-5.6316
X6.7576Y-6.4908
X6.9844Y-3.9731
X7.0531Y-6.4387
X7.0816Y-4.6651
X7.1789Y-5.3571
X7.2814Y-3.9314
X7.3787Y-4.6234
X7.476Y-5.3154
X7.4945Y-6.3442
X7.7929Y-6.3129
X7.9101Y-4.1127
X7.9588Y-4.8098
X8.0076Y-5.5069
X8.2093Y-4.0918
X8.2522Y-6.3113
X8.2581Y-4.7889
X8.3068Y-5.486
X8.552Y-6.3217
X8.8096Y-5.5434
X8.8096Y-4.8446
X8.8096Y-4.1458
X9.0201Y-6.4579
X9.1096Y-5.5434
X9.1096Y-4.8446
X9.1096Y-4.1458
X9.2983Y-6.5703
X9.6916Y-6.8584
X9.9146Y-7.0592
T3
X9.5159Y-4.3926
X9.5159Y-4.8926
X9.5159Y-3.9926
X9.5159Y-4.6926
X9.5159Y-4.7926
X9.5159Y-3.7926
X9.5159Y-3.8926
X9.5159Y-4.0926
X9.5159Y-4.1926
X9.5159Y-4.2926
X9.5159Y-4.4926
X9.5159Y-4.5926
X9.6159Y-4.6926
X9.7159Y-4.6926
X9.8159Y-4.6926
X10.1159Y-4.0926
X10.1159Y-4.1926
X10.1159Y-4.3926
X10.1159Y-4.4926
X10.1159Y-4.5926
X10.1159Y-4.7926
X10.1159Y-4.8926
X10.1159Y-3.8926
X10.1159Y-3.9926
X10.1159Y-4.6926
X10.1159Y-3.7926
X10.1159Y-4.2926
M30
