%TF.GenerationSoftware,KiCad,Pcbnew,8.0.4*%
%TF.CreationDate,2024-08-02T12:22:31+01:00*%
%TF.ProjectId,left,6c656674-2e6b-4696-9361-645f70636258,v1.0.0*%
%TF.SameCoordinates,Original*%
%TF.FileFunction,Legend,Top*%
%TF.FilePolarity,Positive*%
%FSLAX46Y46*%
G04 Gerber Fmt 4.6, Leading zero omitted, Abs format (unit mm)*
G04 Created by KiCad (PCBNEW 8.0.4) date 2024-08-02 12:22:31*
%MOMM*%
%LPD*%
G01*
G04 APERTURE LIST*
%ADD10C,0.400000*%
%ADD11C,0.150000*%
%ADD12C,0.300000*%
%ADD13C,0.100000*%
%ADD14C,0.381000*%
%ADD15C,1.752600*%
G04 APERTURE END LIST*
D10*
X239751090Y-144597765D02*
X240179662Y-144740622D01*
X240179662Y-144740622D02*
X240322519Y-144883479D01*
X240322519Y-144883479D02*
X240465376Y-145169194D01*
X240465376Y-145169194D02*
X240465376Y-145597765D01*
X240465376Y-145597765D02*
X240322519Y-145883479D01*
X240322519Y-145883479D02*
X240179662Y-146026337D01*
X240179662Y-146026337D02*
X239893947Y-146169194D01*
X239893947Y-146169194D02*
X238751090Y-146169194D01*
X238751090Y-146169194D02*
X238751090Y-143169194D01*
X238751090Y-143169194D02*
X239751090Y-143169194D01*
X239751090Y-143169194D02*
X240036805Y-143312051D01*
X240036805Y-143312051D02*
X240179662Y-143454908D01*
X240179662Y-143454908D02*
X240322519Y-143740622D01*
X240322519Y-143740622D02*
X240322519Y-144026337D01*
X240322519Y-144026337D02*
X240179662Y-144312051D01*
X240179662Y-144312051D02*
X240036805Y-144454908D01*
X240036805Y-144454908D02*
X239751090Y-144597765D01*
X239751090Y-144597765D02*
X238751090Y-144597765D01*
X242893947Y-146026337D02*
X242608233Y-146169194D01*
X242608233Y-146169194D02*
X242036805Y-146169194D01*
X242036805Y-146169194D02*
X241751090Y-146026337D01*
X241751090Y-146026337D02*
X241608233Y-145740622D01*
X241608233Y-145740622D02*
X241608233Y-144597765D01*
X241608233Y-144597765D02*
X241751090Y-144312051D01*
X241751090Y-144312051D02*
X242036805Y-144169194D01*
X242036805Y-144169194D02*
X242608233Y-144169194D01*
X242608233Y-144169194D02*
X242893947Y-144312051D01*
X242893947Y-144312051D02*
X243036805Y-144597765D01*
X243036805Y-144597765D02*
X243036805Y-144883479D01*
X243036805Y-144883479D02*
X241608233Y-145169194D01*
X245608234Y-146169194D02*
X245608234Y-144597765D01*
X245608234Y-144597765D02*
X245465376Y-144312051D01*
X245465376Y-144312051D02*
X245179662Y-144169194D01*
X245179662Y-144169194D02*
X244608234Y-144169194D01*
X244608234Y-144169194D02*
X244322519Y-144312051D01*
X245608234Y-146026337D02*
X245322519Y-146169194D01*
X245322519Y-146169194D02*
X244608234Y-146169194D01*
X244608234Y-146169194D02*
X244322519Y-146026337D01*
X244322519Y-146026337D02*
X244179662Y-145740622D01*
X244179662Y-145740622D02*
X244179662Y-145454908D01*
X244179662Y-145454908D02*
X244322519Y-145169194D01*
X244322519Y-145169194D02*
X244608234Y-145026337D01*
X244608234Y-145026337D02*
X245322519Y-145026337D01*
X245322519Y-145026337D02*
X245608234Y-144883479D01*
X247036805Y-144169194D02*
X247036805Y-146169194D01*
X247036805Y-144454908D02*
X247179662Y-144312051D01*
X247179662Y-144312051D02*
X247465377Y-144169194D01*
X247465377Y-144169194D02*
X247893948Y-144169194D01*
X247893948Y-144169194D02*
X248179662Y-144312051D01*
X248179662Y-144312051D02*
X248322520Y-144597765D01*
X248322520Y-144597765D02*
X248322520Y-146169194D01*
X249608234Y-146026337D02*
X249893948Y-146169194D01*
X249893948Y-146169194D02*
X250465377Y-146169194D01*
X250465377Y-146169194D02*
X250751091Y-146026337D01*
X250751091Y-146026337D02*
X250893948Y-145740622D01*
X250893948Y-145740622D02*
X250893948Y-145597765D01*
X250893948Y-145597765D02*
X250751091Y-145312051D01*
X250751091Y-145312051D02*
X250465377Y-145169194D01*
X250465377Y-145169194D02*
X250036806Y-145169194D01*
X250036806Y-145169194D02*
X249751091Y-145026337D01*
X249751091Y-145026337D02*
X249608234Y-144740622D01*
X249608234Y-144740622D02*
X249608234Y-144597765D01*
X249608234Y-144597765D02*
X249751091Y-144312051D01*
X249751091Y-144312051D02*
X250036806Y-144169194D01*
X250036806Y-144169194D02*
X250465377Y-144169194D01*
X250465377Y-144169194D02*
X250751091Y-144312051D01*
X254036805Y-143169194D02*
X255036805Y-146169194D01*
X255036805Y-146169194D02*
X256036805Y-143169194D01*
X258608234Y-146169194D02*
X256893948Y-146169194D01*
X257751091Y-146169194D02*
X257751091Y-143169194D01*
X257751091Y-143169194D02*
X257465377Y-143597765D01*
X257465377Y-143597765D02*
X257179662Y-143883479D01*
X257179662Y-143883479D02*
X256893948Y-144026337D01*
D11*
X243297561Y-96694432D02*
X243030894Y-96313479D01*
X242840418Y-96694432D02*
X242840418Y-95894432D01*
X242840418Y-95894432D02*
X243145180Y-95894432D01*
X243145180Y-95894432D02*
X243221370Y-95932527D01*
X243221370Y-95932527D02*
X243259465Y-95970622D01*
X243259465Y-95970622D02*
X243297561Y-96046813D01*
X243297561Y-96046813D02*
X243297561Y-96161098D01*
X243297561Y-96161098D02*
X243259465Y-96237289D01*
X243259465Y-96237289D02*
X243221370Y-96275384D01*
X243221370Y-96275384D02*
X243145180Y-96313479D01*
X243145180Y-96313479D02*
X242840418Y-96313479D01*
X243602322Y-96465860D02*
X243983275Y-96465860D01*
X243526132Y-96694432D02*
X243792799Y-95894432D01*
X243792799Y-95894432D02*
X244059465Y-96694432D01*
X244249941Y-95894432D02*
X244440417Y-96694432D01*
X244440417Y-96694432D02*
X244592798Y-96123003D01*
X244592798Y-96123003D02*
X244745179Y-96694432D01*
X244745179Y-96694432D02*
X244935656Y-95894432D01*
X243259466Y-98472523D02*
X243183276Y-98434428D01*
X243183276Y-98434428D02*
X243068990Y-98434428D01*
X243068990Y-98434428D02*
X242954704Y-98472523D01*
X242954704Y-98472523D02*
X242878514Y-98548713D01*
X242878514Y-98548713D02*
X242840419Y-98624904D01*
X242840419Y-98624904D02*
X242802323Y-98777285D01*
X242802323Y-98777285D02*
X242802323Y-98891571D01*
X242802323Y-98891571D02*
X242840419Y-99043952D01*
X242840419Y-99043952D02*
X242878514Y-99120142D01*
X242878514Y-99120142D02*
X242954704Y-99196333D01*
X242954704Y-99196333D02*
X243068990Y-99234428D01*
X243068990Y-99234428D02*
X243145181Y-99234428D01*
X243145181Y-99234428D02*
X243259466Y-99196333D01*
X243259466Y-99196333D02*
X243297562Y-99158237D01*
X243297562Y-99158237D02*
X243297562Y-98891571D01*
X243297562Y-98891571D02*
X243145181Y-98891571D01*
X243640419Y-99234428D02*
X243640419Y-98434428D01*
X243640419Y-98434428D02*
X244097562Y-99234428D01*
X244097562Y-99234428D02*
X244097562Y-98434428D01*
X244478514Y-99234428D02*
X244478514Y-98434428D01*
X244478514Y-98434428D02*
X244668990Y-98434428D01*
X244668990Y-98434428D02*
X244783276Y-98472523D01*
X244783276Y-98472523D02*
X244859466Y-98548713D01*
X244859466Y-98548713D02*
X244897561Y-98624904D01*
X244897561Y-98624904D02*
X244935657Y-98777285D01*
X244935657Y-98777285D02*
X244935657Y-98891571D01*
X244935657Y-98891571D02*
X244897561Y-99043952D01*
X244897561Y-99043952D02*
X244859466Y-99120142D01*
X244859466Y-99120142D02*
X244783276Y-99196333D01*
X244783276Y-99196333D02*
X244668990Y-99234428D01*
X244668990Y-99234428D02*
X244478514Y-99234428D01*
X243297559Y-101774429D02*
X243030892Y-101393476D01*
X242840416Y-101774429D02*
X242840416Y-100974429D01*
X242840416Y-100974429D02*
X243145178Y-100974429D01*
X243145178Y-100974429D02*
X243221368Y-101012524D01*
X243221368Y-101012524D02*
X243259463Y-101050619D01*
X243259463Y-101050619D02*
X243297559Y-101126810D01*
X243297559Y-101126810D02*
X243297559Y-101241095D01*
X243297559Y-101241095D02*
X243259463Y-101317286D01*
X243259463Y-101317286D02*
X243221368Y-101355381D01*
X243221368Y-101355381D02*
X243145178Y-101393476D01*
X243145178Y-101393476D02*
X242840416Y-101393476D01*
X243602320Y-101736334D02*
X243716606Y-101774429D01*
X243716606Y-101774429D02*
X243907082Y-101774429D01*
X243907082Y-101774429D02*
X243983273Y-101736334D01*
X243983273Y-101736334D02*
X244021368Y-101698238D01*
X244021368Y-101698238D02*
X244059463Y-101622048D01*
X244059463Y-101622048D02*
X244059463Y-101545857D01*
X244059463Y-101545857D02*
X244021368Y-101469667D01*
X244021368Y-101469667D02*
X243983273Y-101431572D01*
X243983273Y-101431572D02*
X243907082Y-101393476D01*
X243907082Y-101393476D02*
X243754701Y-101355381D01*
X243754701Y-101355381D02*
X243678511Y-101317286D01*
X243678511Y-101317286D02*
X243640416Y-101279191D01*
X243640416Y-101279191D02*
X243602320Y-101203000D01*
X243602320Y-101203000D02*
X243602320Y-101126810D01*
X243602320Y-101126810D02*
X243640416Y-101050619D01*
X243640416Y-101050619D02*
X243678511Y-101012524D01*
X243678511Y-101012524D02*
X243754701Y-100974429D01*
X243754701Y-100974429D02*
X243945178Y-100974429D01*
X243945178Y-100974429D02*
X244059463Y-101012524D01*
X244288035Y-100974429D02*
X244745178Y-100974429D01*
X244516606Y-101774429D02*
X244516606Y-100974429D01*
X242719797Y-103514429D02*
X242986464Y-104314429D01*
X242986464Y-104314429D02*
X243253130Y-103514429D01*
X243976940Y-104238238D02*
X243938844Y-104276334D01*
X243938844Y-104276334D02*
X243824559Y-104314429D01*
X243824559Y-104314429D02*
X243748368Y-104314429D01*
X243748368Y-104314429D02*
X243634082Y-104276334D01*
X243634082Y-104276334D02*
X243557892Y-104200143D01*
X243557892Y-104200143D02*
X243519797Y-104123953D01*
X243519797Y-104123953D02*
X243481701Y-103971572D01*
X243481701Y-103971572D02*
X243481701Y-103857286D01*
X243481701Y-103857286D02*
X243519797Y-103704905D01*
X243519797Y-103704905D02*
X243557892Y-103628714D01*
X243557892Y-103628714D02*
X243634082Y-103552524D01*
X243634082Y-103552524D02*
X243748368Y-103514429D01*
X243748368Y-103514429D02*
X243824559Y-103514429D01*
X243824559Y-103514429D02*
X243938844Y-103552524D01*
X243938844Y-103552524D02*
X243976940Y-103590619D01*
X244776940Y-104238238D02*
X244738844Y-104276334D01*
X244738844Y-104276334D02*
X244624559Y-104314429D01*
X244624559Y-104314429D02*
X244548368Y-104314429D01*
X244548368Y-104314429D02*
X244434082Y-104276334D01*
X244434082Y-104276334D02*
X244357892Y-104200143D01*
X244357892Y-104200143D02*
X244319797Y-104123953D01*
X244319797Y-104123953D02*
X244281701Y-103971572D01*
X244281701Y-103971572D02*
X244281701Y-103857286D01*
X244281701Y-103857286D02*
X244319797Y-103704905D01*
X244319797Y-103704905D02*
X244357892Y-103628714D01*
X244357892Y-103628714D02*
X244434082Y-103552524D01*
X244434082Y-103552524D02*
X244548368Y-103514429D01*
X244548368Y-103514429D02*
X244624559Y-103514429D01*
X244624559Y-103514429D02*
X244738844Y-103552524D01*
X244738844Y-103552524D02*
X244776940Y-103590619D01*
X242986466Y-106054427D02*
X243062656Y-106054427D01*
X243062656Y-106054427D02*
X243138847Y-106092522D01*
X243138847Y-106092522D02*
X243176942Y-106130617D01*
X243176942Y-106130617D02*
X243215037Y-106206808D01*
X243215037Y-106206808D02*
X243253132Y-106359189D01*
X243253132Y-106359189D02*
X243253132Y-106549665D01*
X243253132Y-106549665D02*
X243215037Y-106702046D01*
X243215037Y-106702046D02*
X243176942Y-106778236D01*
X243176942Y-106778236D02*
X243138847Y-106816332D01*
X243138847Y-106816332D02*
X243062656Y-106854427D01*
X243062656Y-106854427D02*
X242986466Y-106854427D01*
X242986466Y-106854427D02*
X242910275Y-106816332D01*
X242910275Y-106816332D02*
X242872180Y-106778236D01*
X242872180Y-106778236D02*
X242834085Y-106702046D01*
X242834085Y-106702046D02*
X242795989Y-106549665D01*
X242795989Y-106549665D02*
X242795989Y-106359189D01*
X242795989Y-106359189D02*
X242834085Y-106206808D01*
X242834085Y-106206808D02*
X242872180Y-106130617D01*
X242872180Y-106130617D02*
X242910275Y-106092522D01*
X242910275Y-106092522D02*
X242986466Y-106054427D01*
X243519799Y-106054427D02*
X244015037Y-106054427D01*
X244015037Y-106054427D02*
X243748371Y-106359189D01*
X243748371Y-106359189D02*
X243862656Y-106359189D01*
X243862656Y-106359189D02*
X243938847Y-106397284D01*
X243938847Y-106397284D02*
X243976942Y-106435379D01*
X243976942Y-106435379D02*
X244015037Y-106511570D01*
X244015037Y-106511570D02*
X244015037Y-106702046D01*
X244015037Y-106702046D02*
X243976942Y-106778236D01*
X243976942Y-106778236D02*
X243938847Y-106816332D01*
X243938847Y-106816332D02*
X243862656Y-106854427D01*
X243862656Y-106854427D02*
X243634085Y-106854427D01*
X243634085Y-106854427D02*
X243557894Y-106816332D01*
X243557894Y-106816332D02*
X243519799Y-106778236D01*
X244776942Y-106854427D02*
X244319799Y-106854427D01*
X244548371Y-106854427D02*
X244548371Y-106054427D01*
X244548371Y-106054427D02*
X244472180Y-106168712D01*
X244472180Y-106168712D02*
X244395990Y-106244903D01*
X244395990Y-106244903D02*
X244319799Y-106282998D01*
X242986466Y-108594434D02*
X243062656Y-108594434D01*
X243062656Y-108594434D02*
X243138847Y-108632529D01*
X243138847Y-108632529D02*
X243176942Y-108670624D01*
X243176942Y-108670624D02*
X243215037Y-108746815D01*
X243215037Y-108746815D02*
X243253132Y-108899196D01*
X243253132Y-108899196D02*
X243253132Y-109089672D01*
X243253132Y-109089672D02*
X243215037Y-109242053D01*
X243215037Y-109242053D02*
X243176942Y-109318243D01*
X243176942Y-109318243D02*
X243138847Y-109356339D01*
X243138847Y-109356339D02*
X243062656Y-109394434D01*
X243062656Y-109394434D02*
X242986466Y-109394434D01*
X242986466Y-109394434D02*
X242910275Y-109356339D01*
X242910275Y-109356339D02*
X242872180Y-109318243D01*
X242872180Y-109318243D02*
X242834085Y-109242053D01*
X242834085Y-109242053D02*
X242795989Y-109089672D01*
X242795989Y-109089672D02*
X242795989Y-108899196D01*
X242795989Y-108899196D02*
X242834085Y-108746815D01*
X242834085Y-108746815D02*
X242872180Y-108670624D01*
X242872180Y-108670624D02*
X242910275Y-108632529D01*
X242910275Y-108632529D02*
X242986466Y-108594434D01*
X243557894Y-108670624D02*
X243595990Y-108632529D01*
X243595990Y-108632529D02*
X243672180Y-108594434D01*
X243672180Y-108594434D02*
X243862656Y-108594434D01*
X243862656Y-108594434D02*
X243938847Y-108632529D01*
X243938847Y-108632529D02*
X243976942Y-108670624D01*
X243976942Y-108670624D02*
X244015037Y-108746815D01*
X244015037Y-108746815D02*
X244015037Y-108823005D01*
X244015037Y-108823005D02*
X243976942Y-108937291D01*
X243976942Y-108937291D02*
X243519799Y-109394434D01*
X243519799Y-109394434D02*
X244015037Y-109394434D01*
X244395990Y-109394434D02*
X244548371Y-109394434D01*
X244548371Y-109394434D02*
X244624561Y-109356339D01*
X244624561Y-109356339D02*
X244662657Y-109318243D01*
X244662657Y-109318243D02*
X244738847Y-109203958D01*
X244738847Y-109203958D02*
X244776942Y-109051577D01*
X244776942Y-109051577D02*
X244776942Y-108746815D01*
X244776942Y-108746815D02*
X244738847Y-108670624D01*
X244738847Y-108670624D02*
X244700752Y-108632529D01*
X244700752Y-108632529D02*
X244624561Y-108594434D01*
X244624561Y-108594434D02*
X244472180Y-108594434D01*
X244472180Y-108594434D02*
X244395990Y-108632529D01*
X244395990Y-108632529D02*
X244357895Y-108670624D01*
X244357895Y-108670624D02*
X244319799Y-108746815D01*
X244319799Y-108746815D02*
X244319799Y-108937291D01*
X244319799Y-108937291D02*
X244357895Y-109013481D01*
X244357895Y-109013481D02*
X244395990Y-109051577D01*
X244395990Y-109051577D02*
X244472180Y-109089672D01*
X244472180Y-109089672D02*
X244624561Y-109089672D01*
X244624561Y-109089672D02*
X244700752Y-109051577D01*
X244700752Y-109051577D02*
X244738847Y-109013481D01*
X244738847Y-109013481D02*
X244776942Y-108937291D01*
X242986463Y-111134430D02*
X243062653Y-111134430D01*
X243062653Y-111134430D02*
X243138844Y-111172525D01*
X243138844Y-111172525D02*
X243176939Y-111210620D01*
X243176939Y-111210620D02*
X243215034Y-111286811D01*
X243215034Y-111286811D02*
X243253129Y-111439192D01*
X243253129Y-111439192D02*
X243253129Y-111629668D01*
X243253129Y-111629668D02*
X243215034Y-111782049D01*
X243215034Y-111782049D02*
X243176939Y-111858239D01*
X243176939Y-111858239D02*
X243138844Y-111896335D01*
X243138844Y-111896335D02*
X243062653Y-111934430D01*
X243062653Y-111934430D02*
X242986463Y-111934430D01*
X242986463Y-111934430D02*
X242910272Y-111896335D01*
X242910272Y-111896335D02*
X242872177Y-111858239D01*
X242872177Y-111858239D02*
X242834082Y-111782049D01*
X242834082Y-111782049D02*
X242795986Y-111629668D01*
X242795986Y-111629668D02*
X242795986Y-111439192D01*
X242795986Y-111439192D02*
X242834082Y-111286811D01*
X242834082Y-111286811D02*
X242872177Y-111210620D01*
X242872177Y-111210620D02*
X242910272Y-111172525D01*
X242910272Y-111172525D02*
X242986463Y-111134430D01*
X243748368Y-111134430D02*
X243824558Y-111134430D01*
X243824558Y-111134430D02*
X243900749Y-111172525D01*
X243900749Y-111172525D02*
X243938844Y-111210620D01*
X243938844Y-111210620D02*
X243976939Y-111286811D01*
X243976939Y-111286811D02*
X244015034Y-111439192D01*
X244015034Y-111439192D02*
X244015034Y-111629668D01*
X244015034Y-111629668D02*
X243976939Y-111782049D01*
X243976939Y-111782049D02*
X243938844Y-111858239D01*
X243938844Y-111858239D02*
X243900749Y-111896335D01*
X243900749Y-111896335D02*
X243824558Y-111934430D01*
X243824558Y-111934430D02*
X243748368Y-111934430D01*
X243748368Y-111934430D02*
X243672177Y-111896335D01*
X243672177Y-111896335D02*
X243634082Y-111858239D01*
X243634082Y-111858239D02*
X243595987Y-111782049D01*
X243595987Y-111782049D02*
X243557891Y-111629668D01*
X243557891Y-111629668D02*
X243557891Y-111439192D01*
X243557891Y-111439192D02*
X243595987Y-111286811D01*
X243595987Y-111286811D02*
X243634082Y-111210620D01*
X243634082Y-111210620D02*
X243672177Y-111172525D01*
X243672177Y-111172525D02*
X243748368Y-111134430D01*
X244319796Y-111210620D02*
X244357892Y-111172525D01*
X244357892Y-111172525D02*
X244434082Y-111134430D01*
X244434082Y-111134430D02*
X244624558Y-111134430D01*
X244624558Y-111134430D02*
X244700749Y-111172525D01*
X244700749Y-111172525D02*
X244738844Y-111210620D01*
X244738844Y-111210620D02*
X244776939Y-111286811D01*
X244776939Y-111286811D02*
X244776939Y-111363001D01*
X244776939Y-111363001D02*
X244738844Y-111477287D01*
X244738844Y-111477287D02*
X244281701Y-111934430D01*
X244281701Y-111934430D02*
X244776939Y-111934430D01*
X243253131Y-114474429D02*
X242795988Y-114474429D01*
X243024560Y-114474429D02*
X243024560Y-113674429D01*
X243024560Y-113674429D02*
X242948369Y-113788714D01*
X242948369Y-113788714D02*
X242872179Y-113864905D01*
X242872179Y-113864905D02*
X242795988Y-113903000D01*
X244015036Y-114474429D02*
X243557893Y-114474429D01*
X243786465Y-114474429D02*
X243786465Y-113674429D01*
X243786465Y-113674429D02*
X243710274Y-113788714D01*
X243710274Y-113788714D02*
X243634084Y-113864905D01*
X243634084Y-113864905D02*
X243557893Y-113903000D01*
X244738846Y-113674429D02*
X244357894Y-113674429D01*
X244357894Y-113674429D02*
X244319798Y-114055381D01*
X244319798Y-114055381D02*
X244357894Y-114017286D01*
X244357894Y-114017286D02*
X244434084Y-113979191D01*
X244434084Y-113979191D02*
X244624560Y-113979191D01*
X244624560Y-113979191D02*
X244700751Y-114017286D01*
X244700751Y-114017286D02*
X244738846Y-114055381D01*
X244738846Y-114055381D02*
X244776941Y-114131572D01*
X244776941Y-114131572D02*
X244776941Y-114322048D01*
X244776941Y-114322048D02*
X244738846Y-114398238D01*
X244738846Y-114398238D02*
X244700751Y-114436334D01*
X244700751Y-114436334D02*
X244624560Y-114474429D01*
X244624560Y-114474429D02*
X244434084Y-114474429D01*
X244434084Y-114474429D02*
X244357894Y-114436334D01*
X244357894Y-114436334D02*
X244319798Y-114398238D01*
X243253131Y-117014428D02*
X242795988Y-117014428D01*
X243024560Y-117014428D02*
X243024560Y-116214428D01*
X243024560Y-116214428D02*
X242948369Y-116328713D01*
X242948369Y-116328713D02*
X242872179Y-116404904D01*
X242872179Y-116404904D02*
X242795988Y-116442999D01*
X244015036Y-117014428D02*
X243557893Y-117014428D01*
X243786465Y-117014428D02*
X243786465Y-116214428D01*
X243786465Y-116214428D02*
X243710274Y-116328713D01*
X243710274Y-116328713D02*
X243634084Y-116404904D01*
X243634084Y-116404904D02*
X243557893Y-116442999D01*
X244281703Y-116214428D02*
X244776941Y-116214428D01*
X244776941Y-116214428D02*
X244510275Y-116519190D01*
X244510275Y-116519190D02*
X244624560Y-116519190D01*
X244624560Y-116519190D02*
X244700751Y-116557285D01*
X244700751Y-116557285D02*
X244738846Y-116595380D01*
X244738846Y-116595380D02*
X244776941Y-116671571D01*
X244776941Y-116671571D02*
X244776941Y-116862047D01*
X244776941Y-116862047D02*
X244738846Y-116938237D01*
X244738846Y-116938237D02*
X244700751Y-116976333D01*
X244700751Y-116976333D02*
X244624560Y-117014428D01*
X244624560Y-117014428D02*
X244395989Y-117014428D01*
X244395989Y-117014428D02*
X244319798Y-116976333D01*
X244319798Y-116976333D02*
X244281703Y-116938237D01*
X243253130Y-119554428D02*
X242795987Y-119554428D01*
X243024559Y-119554428D02*
X243024559Y-118754428D01*
X243024559Y-118754428D02*
X242948368Y-118868713D01*
X242948368Y-118868713D02*
X242872178Y-118944904D01*
X242872178Y-118944904D02*
X242795987Y-118982999D01*
X244015035Y-119554428D02*
X243557892Y-119554428D01*
X243786464Y-119554428D02*
X243786464Y-118754428D01*
X243786464Y-118754428D02*
X243710273Y-118868713D01*
X243710273Y-118868713D02*
X243634083Y-118944904D01*
X243634083Y-118944904D02*
X243557892Y-118982999D01*
X244776940Y-119554428D02*
X244319797Y-119554428D01*
X244548369Y-119554428D02*
X244548369Y-118754428D01*
X244548369Y-118754428D02*
X244472178Y-118868713D01*
X244472178Y-118868713D02*
X244395988Y-118944904D01*
X244395988Y-118944904D02*
X244319797Y-118982999D01*
X242986466Y-121294428D02*
X243062656Y-121294428D01*
X243062656Y-121294428D02*
X243138847Y-121332523D01*
X243138847Y-121332523D02*
X243176942Y-121370618D01*
X243176942Y-121370618D02*
X243215037Y-121446809D01*
X243215037Y-121446809D02*
X243253132Y-121599190D01*
X243253132Y-121599190D02*
X243253132Y-121789666D01*
X243253132Y-121789666D02*
X243215037Y-121942047D01*
X243215037Y-121942047D02*
X243176942Y-122018237D01*
X243176942Y-122018237D02*
X243138847Y-122056333D01*
X243138847Y-122056333D02*
X243062656Y-122094428D01*
X243062656Y-122094428D02*
X242986466Y-122094428D01*
X242986466Y-122094428D02*
X242910275Y-122056333D01*
X242910275Y-122056333D02*
X242872180Y-122018237D01*
X242872180Y-122018237D02*
X242834085Y-121942047D01*
X242834085Y-121942047D02*
X242795989Y-121789666D01*
X242795989Y-121789666D02*
X242795989Y-121599190D01*
X242795989Y-121599190D02*
X242834085Y-121446809D01*
X242834085Y-121446809D02*
X242872180Y-121370618D01*
X242872180Y-121370618D02*
X242910275Y-121332523D01*
X242910275Y-121332523D02*
X242986466Y-121294428D01*
X244015037Y-122094428D02*
X243557894Y-122094428D01*
X243786466Y-122094428D02*
X243786466Y-121294428D01*
X243786466Y-121294428D02*
X243710275Y-121408713D01*
X243710275Y-121408713D02*
X243634085Y-121484904D01*
X243634085Y-121484904D02*
X243557894Y-121522999D01*
X244510276Y-121294428D02*
X244586466Y-121294428D01*
X244586466Y-121294428D02*
X244662657Y-121332523D01*
X244662657Y-121332523D02*
X244700752Y-121370618D01*
X244700752Y-121370618D02*
X244738847Y-121446809D01*
X244738847Y-121446809D02*
X244776942Y-121599190D01*
X244776942Y-121599190D02*
X244776942Y-121789666D01*
X244776942Y-121789666D02*
X244738847Y-121942047D01*
X244738847Y-121942047D02*
X244700752Y-122018237D01*
X244700752Y-122018237D02*
X244662657Y-122056333D01*
X244662657Y-122056333D02*
X244586466Y-122094428D01*
X244586466Y-122094428D02*
X244510276Y-122094428D01*
X244510276Y-122094428D02*
X244434085Y-122056333D01*
X244434085Y-122056333D02*
X244395990Y-122018237D01*
X244395990Y-122018237D02*
X244357895Y-121942047D01*
X244357895Y-121942047D02*
X244319799Y-121789666D01*
X244319799Y-121789666D02*
X244319799Y-121599190D01*
X244319799Y-121599190D02*
X244357895Y-121446809D01*
X244357895Y-121446809D02*
X244395990Y-121370618D01*
X244395990Y-121370618D02*
X244434085Y-121332523D01*
X244434085Y-121332523D02*
X244510276Y-121294428D01*
X254060846Y-95894428D02*
X254137036Y-95894428D01*
X254137036Y-95894428D02*
X254213227Y-95932523D01*
X254213227Y-95932523D02*
X254251322Y-95970618D01*
X254251322Y-95970618D02*
X254289417Y-96046809D01*
X254289417Y-96046809D02*
X254327512Y-96199190D01*
X254327512Y-96199190D02*
X254327512Y-96389666D01*
X254327512Y-96389666D02*
X254289417Y-96542047D01*
X254289417Y-96542047D02*
X254251322Y-96618237D01*
X254251322Y-96618237D02*
X254213227Y-96656333D01*
X254213227Y-96656333D02*
X254137036Y-96694428D01*
X254137036Y-96694428D02*
X254060846Y-96694428D01*
X254060846Y-96694428D02*
X253984655Y-96656333D01*
X253984655Y-96656333D02*
X253946560Y-96618237D01*
X253946560Y-96618237D02*
X253908465Y-96542047D01*
X253908465Y-96542047D02*
X253870369Y-96389666D01*
X253870369Y-96389666D02*
X253870369Y-96199190D01*
X253870369Y-96199190D02*
X253908465Y-96046809D01*
X253908465Y-96046809D02*
X253946560Y-95970618D01*
X253946560Y-95970618D02*
X253984655Y-95932523D01*
X253984655Y-95932523D02*
X254060846Y-95894428D01*
X254822751Y-95894428D02*
X254898941Y-95894428D01*
X254898941Y-95894428D02*
X254975132Y-95932523D01*
X254975132Y-95932523D02*
X255013227Y-95970618D01*
X255013227Y-95970618D02*
X255051322Y-96046809D01*
X255051322Y-96046809D02*
X255089417Y-96199190D01*
X255089417Y-96199190D02*
X255089417Y-96389666D01*
X255089417Y-96389666D02*
X255051322Y-96542047D01*
X255051322Y-96542047D02*
X255013227Y-96618237D01*
X255013227Y-96618237D02*
X254975132Y-96656333D01*
X254975132Y-96656333D02*
X254898941Y-96694428D01*
X254898941Y-96694428D02*
X254822751Y-96694428D01*
X254822751Y-96694428D02*
X254746560Y-96656333D01*
X254746560Y-96656333D02*
X254708465Y-96618237D01*
X254708465Y-96618237D02*
X254670370Y-96542047D01*
X254670370Y-96542047D02*
X254632274Y-96389666D01*
X254632274Y-96389666D02*
X254632274Y-96199190D01*
X254632274Y-96199190D02*
X254670370Y-96046809D01*
X254670370Y-96046809D02*
X254708465Y-95970618D01*
X254708465Y-95970618D02*
X254746560Y-95932523D01*
X254746560Y-95932523D02*
X254822751Y-95894428D01*
X255775132Y-95894428D02*
X255622751Y-95894428D01*
X255622751Y-95894428D02*
X255546560Y-95932523D01*
X255546560Y-95932523D02*
X255508465Y-95970618D01*
X255508465Y-95970618D02*
X255432275Y-96084904D01*
X255432275Y-96084904D02*
X255394179Y-96237285D01*
X255394179Y-96237285D02*
X255394179Y-96542047D01*
X255394179Y-96542047D02*
X255432275Y-96618237D01*
X255432275Y-96618237D02*
X255470370Y-96656333D01*
X255470370Y-96656333D02*
X255546560Y-96694428D01*
X255546560Y-96694428D02*
X255698941Y-96694428D01*
X255698941Y-96694428D02*
X255775132Y-96656333D01*
X255775132Y-96656333D02*
X255813227Y-96618237D01*
X255813227Y-96618237D02*
X255851322Y-96542047D01*
X255851322Y-96542047D02*
X255851322Y-96351571D01*
X255851322Y-96351571D02*
X255813227Y-96275380D01*
X255813227Y-96275380D02*
X255775132Y-96237285D01*
X255775132Y-96237285D02*
X255698941Y-96199190D01*
X255698941Y-96199190D02*
X255546560Y-96199190D01*
X255546560Y-96199190D02*
X255470370Y-96237285D01*
X255470370Y-96237285D02*
X255432275Y-96275380D01*
X255432275Y-96275380D02*
X255394179Y-96351571D01*
X254060848Y-98364429D02*
X254137038Y-98364429D01*
X254137038Y-98364429D02*
X254213229Y-98402524D01*
X254213229Y-98402524D02*
X254251324Y-98440619D01*
X254251324Y-98440619D02*
X254289419Y-98516810D01*
X254289419Y-98516810D02*
X254327514Y-98669191D01*
X254327514Y-98669191D02*
X254327514Y-98859667D01*
X254327514Y-98859667D02*
X254289419Y-99012048D01*
X254289419Y-99012048D02*
X254251324Y-99088238D01*
X254251324Y-99088238D02*
X254213229Y-99126334D01*
X254213229Y-99126334D02*
X254137038Y-99164429D01*
X254137038Y-99164429D02*
X254060848Y-99164429D01*
X254060848Y-99164429D02*
X253984657Y-99126334D01*
X253984657Y-99126334D02*
X253946562Y-99088238D01*
X253946562Y-99088238D02*
X253908467Y-99012048D01*
X253908467Y-99012048D02*
X253870371Y-98859667D01*
X253870371Y-98859667D02*
X253870371Y-98669191D01*
X253870371Y-98669191D02*
X253908467Y-98516810D01*
X253908467Y-98516810D02*
X253946562Y-98440619D01*
X253946562Y-98440619D02*
X253984657Y-98402524D01*
X253984657Y-98402524D02*
X254060848Y-98364429D01*
X254822753Y-98364429D02*
X254898943Y-98364429D01*
X254898943Y-98364429D02*
X254975134Y-98402524D01*
X254975134Y-98402524D02*
X255013229Y-98440619D01*
X255013229Y-98440619D02*
X255051324Y-98516810D01*
X255051324Y-98516810D02*
X255089419Y-98669191D01*
X255089419Y-98669191D02*
X255089419Y-98859667D01*
X255089419Y-98859667D02*
X255051324Y-99012048D01*
X255051324Y-99012048D02*
X255013229Y-99088238D01*
X255013229Y-99088238D02*
X254975134Y-99126334D01*
X254975134Y-99126334D02*
X254898943Y-99164429D01*
X254898943Y-99164429D02*
X254822753Y-99164429D01*
X254822753Y-99164429D02*
X254746562Y-99126334D01*
X254746562Y-99126334D02*
X254708467Y-99088238D01*
X254708467Y-99088238D02*
X254670372Y-99012048D01*
X254670372Y-99012048D02*
X254632276Y-98859667D01*
X254632276Y-98859667D02*
X254632276Y-98669191D01*
X254632276Y-98669191D02*
X254670372Y-98516810D01*
X254670372Y-98516810D02*
X254708467Y-98440619D01*
X254708467Y-98440619D02*
X254746562Y-98402524D01*
X254746562Y-98402524D02*
X254822753Y-98364429D01*
X255546562Y-98707286D02*
X255470372Y-98669191D01*
X255470372Y-98669191D02*
X255432277Y-98631095D01*
X255432277Y-98631095D02*
X255394181Y-98554905D01*
X255394181Y-98554905D02*
X255394181Y-98516810D01*
X255394181Y-98516810D02*
X255432277Y-98440619D01*
X255432277Y-98440619D02*
X255470372Y-98402524D01*
X255470372Y-98402524D02*
X255546562Y-98364429D01*
X255546562Y-98364429D02*
X255698943Y-98364429D01*
X255698943Y-98364429D02*
X255775134Y-98402524D01*
X255775134Y-98402524D02*
X255813229Y-98440619D01*
X255813229Y-98440619D02*
X255851324Y-98516810D01*
X255851324Y-98516810D02*
X255851324Y-98554905D01*
X255851324Y-98554905D02*
X255813229Y-98631095D01*
X255813229Y-98631095D02*
X255775134Y-98669191D01*
X255775134Y-98669191D02*
X255698943Y-98707286D01*
X255698943Y-98707286D02*
X255546562Y-98707286D01*
X255546562Y-98707286D02*
X255470372Y-98745381D01*
X255470372Y-98745381D02*
X255432277Y-98783476D01*
X255432277Y-98783476D02*
X255394181Y-98859667D01*
X255394181Y-98859667D02*
X255394181Y-99012048D01*
X255394181Y-99012048D02*
X255432277Y-99088238D01*
X255432277Y-99088238D02*
X255470372Y-99126334D01*
X255470372Y-99126334D02*
X255546562Y-99164429D01*
X255546562Y-99164429D02*
X255698943Y-99164429D01*
X255698943Y-99164429D02*
X255775134Y-99126334D01*
X255775134Y-99126334D02*
X255813229Y-99088238D01*
X255813229Y-99088238D02*
X255851324Y-99012048D01*
X255851324Y-99012048D02*
X255851324Y-98859667D01*
X255851324Y-98859667D02*
X255813229Y-98783476D01*
X255813229Y-98783476D02*
X255775134Y-98745381D01*
X255775134Y-98745381D02*
X255698943Y-98707286D01*
X254175131Y-101012525D02*
X254098941Y-100974430D01*
X254098941Y-100974430D02*
X253984655Y-100974430D01*
X253984655Y-100974430D02*
X253870369Y-101012525D01*
X253870369Y-101012525D02*
X253794179Y-101088715D01*
X253794179Y-101088715D02*
X253756084Y-101164906D01*
X253756084Y-101164906D02*
X253717988Y-101317287D01*
X253717988Y-101317287D02*
X253717988Y-101431573D01*
X253717988Y-101431573D02*
X253756084Y-101583954D01*
X253756084Y-101583954D02*
X253794179Y-101660144D01*
X253794179Y-101660144D02*
X253870369Y-101736335D01*
X253870369Y-101736335D02*
X253984655Y-101774430D01*
X253984655Y-101774430D02*
X254060846Y-101774430D01*
X254060846Y-101774430D02*
X254175131Y-101736335D01*
X254175131Y-101736335D02*
X254213227Y-101698239D01*
X254213227Y-101698239D02*
X254213227Y-101431573D01*
X254213227Y-101431573D02*
X254060846Y-101431573D01*
X254556084Y-101774430D02*
X254556084Y-100974430D01*
X254556084Y-100974430D02*
X255013227Y-101774430D01*
X255013227Y-101774430D02*
X255013227Y-100974430D01*
X255394179Y-101774430D02*
X255394179Y-100974430D01*
X255394179Y-100974430D02*
X255584655Y-100974430D01*
X255584655Y-100974430D02*
X255698941Y-101012525D01*
X255698941Y-101012525D02*
X255775131Y-101088715D01*
X255775131Y-101088715D02*
X255813226Y-101164906D01*
X255813226Y-101164906D02*
X255851322Y-101317287D01*
X255851322Y-101317287D02*
X255851322Y-101431573D01*
X255851322Y-101431573D02*
X255813226Y-101583954D01*
X255813226Y-101583954D02*
X255775131Y-101660144D01*
X255775131Y-101660144D02*
X255698941Y-101736335D01*
X255698941Y-101736335D02*
X255584655Y-101774430D01*
X255584655Y-101774430D02*
X255394179Y-101774430D01*
X254175131Y-103552523D02*
X254098941Y-103514428D01*
X254098941Y-103514428D02*
X253984655Y-103514428D01*
X253984655Y-103514428D02*
X253870369Y-103552523D01*
X253870369Y-103552523D02*
X253794179Y-103628713D01*
X253794179Y-103628713D02*
X253756084Y-103704904D01*
X253756084Y-103704904D02*
X253717988Y-103857285D01*
X253717988Y-103857285D02*
X253717988Y-103971571D01*
X253717988Y-103971571D02*
X253756084Y-104123952D01*
X253756084Y-104123952D02*
X253794179Y-104200142D01*
X253794179Y-104200142D02*
X253870369Y-104276333D01*
X253870369Y-104276333D02*
X253984655Y-104314428D01*
X253984655Y-104314428D02*
X254060846Y-104314428D01*
X254060846Y-104314428D02*
X254175131Y-104276333D01*
X254175131Y-104276333D02*
X254213227Y-104238237D01*
X254213227Y-104238237D02*
X254213227Y-103971571D01*
X254213227Y-103971571D02*
X254060846Y-103971571D01*
X254556084Y-104314428D02*
X254556084Y-103514428D01*
X254556084Y-103514428D02*
X255013227Y-104314428D01*
X255013227Y-104314428D02*
X255013227Y-103514428D01*
X255394179Y-104314428D02*
X255394179Y-103514428D01*
X255394179Y-103514428D02*
X255584655Y-103514428D01*
X255584655Y-103514428D02*
X255698941Y-103552523D01*
X255698941Y-103552523D02*
X255775131Y-103628713D01*
X255775131Y-103628713D02*
X255813226Y-103704904D01*
X255813226Y-103704904D02*
X255851322Y-103857285D01*
X255851322Y-103857285D02*
X255851322Y-103971571D01*
X255851322Y-103971571D02*
X255813226Y-104123952D01*
X255813226Y-104123952D02*
X255775131Y-104200142D01*
X255775131Y-104200142D02*
X255698941Y-104276333D01*
X255698941Y-104276333D02*
X255584655Y-104314428D01*
X255584655Y-104314428D02*
X255394179Y-104314428D01*
X254060847Y-106064429D02*
X254137037Y-106064429D01*
X254137037Y-106064429D02*
X254213228Y-106102524D01*
X254213228Y-106102524D02*
X254251323Y-106140619D01*
X254251323Y-106140619D02*
X254289418Y-106216810D01*
X254289418Y-106216810D02*
X254327513Y-106369191D01*
X254327513Y-106369191D02*
X254327513Y-106559667D01*
X254327513Y-106559667D02*
X254289418Y-106712048D01*
X254289418Y-106712048D02*
X254251323Y-106788238D01*
X254251323Y-106788238D02*
X254213228Y-106826334D01*
X254213228Y-106826334D02*
X254137037Y-106864429D01*
X254137037Y-106864429D02*
X254060847Y-106864429D01*
X254060847Y-106864429D02*
X253984656Y-106826334D01*
X253984656Y-106826334D02*
X253946561Y-106788238D01*
X253946561Y-106788238D02*
X253908466Y-106712048D01*
X253908466Y-106712048D02*
X253870370Y-106559667D01*
X253870370Y-106559667D02*
X253870370Y-106369191D01*
X253870370Y-106369191D02*
X253908466Y-106216810D01*
X253908466Y-106216810D02*
X253946561Y-106140619D01*
X253946561Y-106140619D02*
X253984656Y-106102524D01*
X253984656Y-106102524D02*
X254060847Y-106064429D01*
X255089418Y-106864429D02*
X254632275Y-106864429D01*
X254860847Y-106864429D02*
X254860847Y-106064429D01*
X254860847Y-106064429D02*
X254784656Y-106178714D01*
X254784656Y-106178714D02*
X254708466Y-106254905D01*
X254708466Y-106254905D02*
X254632275Y-106293000D01*
X255356085Y-106064429D02*
X255889419Y-106064429D01*
X255889419Y-106064429D02*
X255546561Y-106864429D01*
X254060849Y-108664424D02*
X254137039Y-108664424D01*
X254137039Y-108664424D02*
X254213230Y-108702519D01*
X254213230Y-108702519D02*
X254251325Y-108740614D01*
X254251325Y-108740614D02*
X254289420Y-108816805D01*
X254289420Y-108816805D02*
X254327515Y-108969186D01*
X254327515Y-108969186D02*
X254327515Y-109159662D01*
X254327515Y-109159662D02*
X254289420Y-109312043D01*
X254289420Y-109312043D02*
X254251325Y-109388233D01*
X254251325Y-109388233D02*
X254213230Y-109426329D01*
X254213230Y-109426329D02*
X254137039Y-109464424D01*
X254137039Y-109464424D02*
X254060849Y-109464424D01*
X254060849Y-109464424D02*
X253984658Y-109426329D01*
X253984658Y-109426329D02*
X253946563Y-109388233D01*
X253946563Y-109388233D02*
X253908468Y-109312043D01*
X253908468Y-109312043D02*
X253870372Y-109159662D01*
X253870372Y-109159662D02*
X253870372Y-108969186D01*
X253870372Y-108969186D02*
X253908468Y-108816805D01*
X253908468Y-108816805D02*
X253946563Y-108740614D01*
X253946563Y-108740614D02*
X253984658Y-108702519D01*
X253984658Y-108702519D02*
X254060849Y-108664424D01*
X254632277Y-108740614D02*
X254670373Y-108702519D01*
X254670373Y-108702519D02*
X254746563Y-108664424D01*
X254746563Y-108664424D02*
X254937039Y-108664424D01*
X254937039Y-108664424D02*
X255013230Y-108702519D01*
X255013230Y-108702519D02*
X255051325Y-108740614D01*
X255051325Y-108740614D02*
X255089420Y-108816805D01*
X255089420Y-108816805D02*
X255089420Y-108892995D01*
X255089420Y-108892995D02*
X255051325Y-109007281D01*
X255051325Y-109007281D02*
X254594182Y-109464424D01*
X254594182Y-109464424D02*
X255089420Y-109464424D01*
X255584659Y-108664424D02*
X255660849Y-108664424D01*
X255660849Y-108664424D02*
X255737040Y-108702519D01*
X255737040Y-108702519D02*
X255775135Y-108740614D01*
X255775135Y-108740614D02*
X255813230Y-108816805D01*
X255813230Y-108816805D02*
X255851325Y-108969186D01*
X255851325Y-108969186D02*
X255851325Y-109159662D01*
X255851325Y-109159662D02*
X255813230Y-109312043D01*
X255813230Y-109312043D02*
X255775135Y-109388233D01*
X255775135Y-109388233D02*
X255737040Y-109426329D01*
X255737040Y-109426329D02*
X255660849Y-109464424D01*
X255660849Y-109464424D02*
X255584659Y-109464424D01*
X255584659Y-109464424D02*
X255508468Y-109426329D01*
X255508468Y-109426329D02*
X255470373Y-109388233D01*
X255470373Y-109388233D02*
X255432278Y-109312043D01*
X255432278Y-109312043D02*
X255394182Y-109159662D01*
X255394182Y-109159662D02*
X255394182Y-108969186D01*
X255394182Y-108969186D02*
X255432278Y-108816805D01*
X255432278Y-108816805D02*
X255470373Y-108740614D01*
X255470373Y-108740614D02*
X255508468Y-108702519D01*
X255508468Y-108702519D02*
X255584659Y-108664424D01*
X254060845Y-111164428D02*
X254137035Y-111164428D01*
X254137035Y-111164428D02*
X254213226Y-111202523D01*
X254213226Y-111202523D02*
X254251321Y-111240618D01*
X254251321Y-111240618D02*
X254289416Y-111316809D01*
X254289416Y-111316809D02*
X254327511Y-111469190D01*
X254327511Y-111469190D02*
X254327511Y-111659666D01*
X254327511Y-111659666D02*
X254289416Y-111812047D01*
X254289416Y-111812047D02*
X254251321Y-111888237D01*
X254251321Y-111888237D02*
X254213226Y-111926333D01*
X254213226Y-111926333D02*
X254137035Y-111964428D01*
X254137035Y-111964428D02*
X254060845Y-111964428D01*
X254060845Y-111964428D02*
X253984654Y-111926333D01*
X253984654Y-111926333D02*
X253946559Y-111888237D01*
X253946559Y-111888237D02*
X253908464Y-111812047D01*
X253908464Y-111812047D02*
X253870368Y-111659666D01*
X253870368Y-111659666D02*
X253870368Y-111469190D01*
X253870368Y-111469190D02*
X253908464Y-111316809D01*
X253908464Y-111316809D02*
X253946559Y-111240618D01*
X253946559Y-111240618D02*
X253984654Y-111202523D01*
X253984654Y-111202523D02*
X254060845Y-111164428D01*
X254632273Y-111240618D02*
X254670369Y-111202523D01*
X254670369Y-111202523D02*
X254746559Y-111164428D01*
X254746559Y-111164428D02*
X254937035Y-111164428D01*
X254937035Y-111164428D02*
X255013226Y-111202523D01*
X255013226Y-111202523D02*
X255051321Y-111240618D01*
X255051321Y-111240618D02*
X255089416Y-111316809D01*
X255089416Y-111316809D02*
X255089416Y-111392999D01*
X255089416Y-111392999D02*
X255051321Y-111507285D01*
X255051321Y-111507285D02*
X254594178Y-111964428D01*
X254594178Y-111964428D02*
X255089416Y-111964428D01*
X255394178Y-111240618D02*
X255432274Y-111202523D01*
X255432274Y-111202523D02*
X255508464Y-111164428D01*
X255508464Y-111164428D02*
X255698940Y-111164428D01*
X255698940Y-111164428D02*
X255775131Y-111202523D01*
X255775131Y-111202523D02*
X255813226Y-111240618D01*
X255813226Y-111240618D02*
X255851321Y-111316809D01*
X255851321Y-111316809D02*
X255851321Y-111392999D01*
X255851321Y-111392999D02*
X255813226Y-111507285D01*
X255813226Y-111507285D02*
X255356083Y-111964428D01*
X255356083Y-111964428D02*
X255851321Y-111964428D01*
X254060845Y-113674429D02*
X254137035Y-113674429D01*
X254137035Y-113674429D02*
X254213226Y-113712524D01*
X254213226Y-113712524D02*
X254251321Y-113750619D01*
X254251321Y-113750619D02*
X254289416Y-113826810D01*
X254289416Y-113826810D02*
X254327511Y-113979191D01*
X254327511Y-113979191D02*
X254327511Y-114169667D01*
X254327511Y-114169667D02*
X254289416Y-114322048D01*
X254289416Y-114322048D02*
X254251321Y-114398238D01*
X254251321Y-114398238D02*
X254213226Y-114436334D01*
X254213226Y-114436334D02*
X254137035Y-114474429D01*
X254137035Y-114474429D02*
X254060845Y-114474429D01*
X254060845Y-114474429D02*
X253984654Y-114436334D01*
X253984654Y-114436334D02*
X253946559Y-114398238D01*
X253946559Y-114398238D02*
X253908464Y-114322048D01*
X253908464Y-114322048D02*
X253870368Y-114169667D01*
X253870368Y-114169667D02*
X253870368Y-113979191D01*
X253870368Y-113979191D02*
X253908464Y-113826810D01*
X253908464Y-113826810D02*
X253946559Y-113750619D01*
X253946559Y-113750619D02*
X253984654Y-113712524D01*
X253984654Y-113712524D02*
X254060845Y-113674429D01*
X254632273Y-113750619D02*
X254670369Y-113712524D01*
X254670369Y-113712524D02*
X254746559Y-113674429D01*
X254746559Y-113674429D02*
X254937035Y-113674429D01*
X254937035Y-113674429D02*
X255013226Y-113712524D01*
X255013226Y-113712524D02*
X255051321Y-113750619D01*
X255051321Y-113750619D02*
X255089416Y-113826810D01*
X255089416Y-113826810D02*
X255089416Y-113903000D01*
X255089416Y-113903000D02*
X255051321Y-114017286D01*
X255051321Y-114017286D02*
X254594178Y-114474429D01*
X254594178Y-114474429D02*
X255089416Y-114474429D01*
X255775131Y-113941095D02*
X255775131Y-114474429D01*
X255584655Y-113636334D02*
X255394178Y-114207762D01*
X255394178Y-114207762D02*
X255889417Y-114207762D01*
X254327514Y-117014427D02*
X253870371Y-117014427D01*
X254098943Y-117014427D02*
X254098943Y-116214427D01*
X254098943Y-116214427D02*
X254022752Y-116328712D01*
X254022752Y-116328712D02*
X253946562Y-116404903D01*
X253946562Y-116404903D02*
X253870371Y-116442998D01*
X254822753Y-116214427D02*
X254898943Y-116214427D01*
X254898943Y-116214427D02*
X254975134Y-116252522D01*
X254975134Y-116252522D02*
X255013229Y-116290617D01*
X255013229Y-116290617D02*
X255051324Y-116366808D01*
X255051324Y-116366808D02*
X255089419Y-116519189D01*
X255089419Y-116519189D02*
X255089419Y-116709665D01*
X255089419Y-116709665D02*
X255051324Y-116862046D01*
X255051324Y-116862046D02*
X255013229Y-116938236D01*
X255013229Y-116938236D02*
X254975134Y-116976332D01*
X254975134Y-116976332D02*
X254898943Y-117014427D01*
X254898943Y-117014427D02*
X254822753Y-117014427D01*
X254822753Y-117014427D02*
X254746562Y-116976332D01*
X254746562Y-116976332D02*
X254708467Y-116938236D01*
X254708467Y-116938236D02*
X254670372Y-116862046D01*
X254670372Y-116862046D02*
X254632276Y-116709665D01*
X254632276Y-116709665D02*
X254632276Y-116519189D01*
X254632276Y-116519189D02*
X254670372Y-116366808D01*
X254670372Y-116366808D02*
X254708467Y-116290617D01*
X254708467Y-116290617D02*
X254746562Y-116252522D01*
X254746562Y-116252522D02*
X254822753Y-116214427D01*
X255584658Y-116214427D02*
X255660848Y-116214427D01*
X255660848Y-116214427D02*
X255737039Y-116252522D01*
X255737039Y-116252522D02*
X255775134Y-116290617D01*
X255775134Y-116290617D02*
X255813229Y-116366808D01*
X255813229Y-116366808D02*
X255851324Y-116519189D01*
X255851324Y-116519189D02*
X255851324Y-116709665D01*
X255851324Y-116709665D02*
X255813229Y-116862046D01*
X255813229Y-116862046D02*
X255775134Y-116938236D01*
X255775134Y-116938236D02*
X255737039Y-116976332D01*
X255737039Y-116976332D02*
X255660848Y-117014427D01*
X255660848Y-117014427D02*
X255584658Y-117014427D01*
X255584658Y-117014427D02*
X255508467Y-116976332D01*
X255508467Y-116976332D02*
X255470372Y-116938236D01*
X255470372Y-116938236D02*
X255432277Y-116862046D01*
X255432277Y-116862046D02*
X255394181Y-116709665D01*
X255394181Y-116709665D02*
X255394181Y-116519189D01*
X255394181Y-116519189D02*
X255432277Y-116366808D01*
X255432277Y-116366808D02*
X255470372Y-116290617D01*
X255470372Y-116290617D02*
X255508467Y-116252522D01*
X255508467Y-116252522D02*
X255584658Y-116214427D01*
X254327511Y-122094429D02*
X253870368Y-122094429D01*
X254098940Y-122094429D02*
X254098940Y-121294429D01*
X254098940Y-121294429D02*
X254022749Y-121408714D01*
X254022749Y-121408714D02*
X253946559Y-121484905D01*
X253946559Y-121484905D02*
X253870368Y-121523000D01*
X254822750Y-121294429D02*
X254898940Y-121294429D01*
X254898940Y-121294429D02*
X254975131Y-121332524D01*
X254975131Y-121332524D02*
X255013226Y-121370619D01*
X255013226Y-121370619D02*
X255051321Y-121446810D01*
X255051321Y-121446810D02*
X255089416Y-121599191D01*
X255089416Y-121599191D02*
X255089416Y-121789667D01*
X255089416Y-121789667D02*
X255051321Y-121942048D01*
X255051321Y-121942048D02*
X255013226Y-122018238D01*
X255013226Y-122018238D02*
X254975131Y-122056334D01*
X254975131Y-122056334D02*
X254898940Y-122094429D01*
X254898940Y-122094429D02*
X254822750Y-122094429D01*
X254822750Y-122094429D02*
X254746559Y-122056334D01*
X254746559Y-122056334D02*
X254708464Y-122018238D01*
X254708464Y-122018238D02*
X254670369Y-121942048D01*
X254670369Y-121942048D02*
X254632273Y-121789667D01*
X254632273Y-121789667D02*
X254632273Y-121599191D01*
X254632273Y-121599191D02*
X254670369Y-121446810D01*
X254670369Y-121446810D02*
X254708464Y-121370619D01*
X254708464Y-121370619D02*
X254746559Y-121332524D01*
X254746559Y-121332524D02*
X254822750Y-121294429D01*
X255775131Y-121561095D02*
X255775131Y-122094429D01*
X255584655Y-121256334D02*
X255394178Y-121827762D01*
X255394178Y-121827762D02*
X255889417Y-121827762D01*
D12*
X244033942Y-123442462D02*
X244033942Y-124442462D01*
X244033942Y-123585319D02*
X244105371Y-123513891D01*
X244105371Y-123513891D02*
X244248228Y-123442462D01*
X244248228Y-123442462D02*
X244462514Y-123442462D01*
X244462514Y-123442462D02*
X244605371Y-123513891D01*
X244605371Y-123513891D02*
X244676800Y-123656748D01*
X244676800Y-123656748D02*
X244676800Y-124442462D01*
X245391085Y-124442462D02*
X245391085Y-123442462D01*
X245391085Y-122942462D02*
X245319657Y-123013891D01*
X245319657Y-123013891D02*
X245391085Y-123085319D01*
X245391085Y-123085319D02*
X245462514Y-123013891D01*
X245462514Y-123013891D02*
X245391085Y-122942462D01*
X245391085Y-122942462D02*
X245391085Y-123085319D01*
X246748229Y-124371034D02*
X246605371Y-124442462D01*
X246605371Y-124442462D02*
X246319657Y-124442462D01*
X246319657Y-124442462D02*
X246176800Y-124371034D01*
X246176800Y-124371034D02*
X246105371Y-124299605D01*
X246105371Y-124299605D02*
X246033943Y-124156748D01*
X246033943Y-124156748D02*
X246033943Y-123728176D01*
X246033943Y-123728176D02*
X246105371Y-123585319D01*
X246105371Y-123585319D02*
X246176800Y-123513891D01*
X246176800Y-123513891D02*
X246319657Y-123442462D01*
X246319657Y-123442462D02*
X246605371Y-123442462D01*
X246605371Y-123442462D02*
X246748229Y-123513891D01*
X247962514Y-124371034D02*
X247819657Y-124442462D01*
X247819657Y-124442462D02*
X247533943Y-124442462D01*
X247533943Y-124442462D02*
X247391085Y-124371034D01*
X247391085Y-124371034D02*
X247319657Y-124228176D01*
X247319657Y-124228176D02*
X247319657Y-123656748D01*
X247319657Y-123656748D02*
X247391085Y-123513891D01*
X247391085Y-123513891D02*
X247533943Y-123442462D01*
X247533943Y-123442462D02*
X247819657Y-123442462D01*
X247819657Y-123442462D02*
X247962514Y-123513891D01*
X247962514Y-123513891D02*
X248033943Y-123656748D01*
X248033943Y-123656748D02*
X248033943Y-123799605D01*
X248033943Y-123799605D02*
X247319657Y-123942462D01*
X248676799Y-124299605D02*
X248748228Y-124371034D01*
X248748228Y-124371034D02*
X248676799Y-124442462D01*
X248676799Y-124442462D02*
X248605371Y-124371034D01*
X248605371Y-124371034D02*
X248676799Y-124299605D01*
X248676799Y-124299605D02*
X248676799Y-124442462D01*
X248676799Y-123871034D02*
X248605371Y-123013891D01*
X248605371Y-123013891D02*
X248676799Y-122942462D01*
X248676799Y-122942462D02*
X248748228Y-123013891D01*
X248748228Y-123013891D02*
X248676799Y-123871034D01*
X248676799Y-123871034D02*
X248676799Y-122942462D01*
X249391085Y-123442462D02*
X249391085Y-124442462D01*
X249391085Y-123585319D02*
X249462514Y-123513891D01*
X249462514Y-123513891D02*
X249605371Y-123442462D01*
X249605371Y-123442462D02*
X249819657Y-123442462D01*
X249819657Y-123442462D02*
X249962514Y-123513891D01*
X249962514Y-123513891D02*
X250033943Y-123656748D01*
X250033943Y-123656748D02*
X250033943Y-124442462D01*
X251391086Y-124442462D02*
X251391086Y-123656748D01*
X251391086Y-123656748D02*
X251319657Y-123513891D01*
X251319657Y-123513891D02*
X251176800Y-123442462D01*
X251176800Y-123442462D02*
X250891086Y-123442462D01*
X250891086Y-123442462D02*
X250748228Y-123513891D01*
X251391086Y-124371034D02*
X251248228Y-124442462D01*
X251248228Y-124442462D02*
X250891086Y-124442462D01*
X250891086Y-124442462D02*
X250748228Y-124371034D01*
X250748228Y-124371034D02*
X250676800Y-124228176D01*
X250676800Y-124228176D02*
X250676800Y-124085319D01*
X250676800Y-124085319D02*
X250748228Y-123942462D01*
X250748228Y-123942462D02*
X250891086Y-123871034D01*
X250891086Y-123871034D02*
X251248228Y-123871034D01*
X251248228Y-123871034D02*
X251391086Y-123799605D01*
X252105371Y-123442462D02*
X252105371Y-124442462D01*
X252105371Y-123585319D02*
X252176800Y-123513891D01*
X252176800Y-123513891D02*
X252319657Y-123442462D01*
X252319657Y-123442462D02*
X252533943Y-123442462D01*
X252533943Y-123442462D02*
X252676800Y-123513891D01*
X252676800Y-123513891D02*
X252748229Y-123656748D01*
X252748229Y-123656748D02*
X252748229Y-124442462D01*
X253676800Y-124442462D02*
X253533943Y-124371034D01*
X253533943Y-124371034D02*
X253462514Y-124299605D01*
X253462514Y-124299605D02*
X253391086Y-124156748D01*
X253391086Y-124156748D02*
X253391086Y-123728176D01*
X253391086Y-123728176D02*
X253462514Y-123585319D01*
X253462514Y-123585319D02*
X253533943Y-123513891D01*
X253533943Y-123513891D02*
X253676800Y-123442462D01*
X253676800Y-123442462D02*
X253891086Y-123442462D01*
X253891086Y-123442462D02*
X254033943Y-123513891D01*
X254033943Y-123513891D02*
X254105372Y-123585319D01*
X254105372Y-123585319D02*
X254176800Y-123728176D01*
X254176800Y-123728176D02*
X254176800Y-124156748D01*
X254176800Y-124156748D02*
X254105372Y-124299605D01*
X254105372Y-124299605D02*
X254033943Y-124371034D01*
X254033943Y-124371034D02*
X253891086Y-124442462D01*
X253891086Y-124442462D02*
X253676800Y-124442462D01*
D13*
%TO.C,D1*%
X132882267Y-169962930D02*
X133362898Y-169825112D01*
X132992527Y-170347435D02*
X132305510Y-170128314D01*
X132772016Y-169578426D02*
X132992527Y-170347435D01*
X132305510Y-170128314D02*
X132772016Y-169578426D01*
X132305510Y-170128314D02*
X132457110Y-170657008D01*
X132305510Y-170128314D02*
X132153906Y-169599619D01*
X131921006Y-170238570D02*
X132305510Y-170128314D01*
%TO.C,D2*%
X127989704Y-152900542D02*
X128470335Y-152762724D01*
X128099964Y-153285047D02*
X127412947Y-153065926D01*
X127879453Y-152516038D02*
X128099964Y-153285047D01*
X127412947Y-153065926D02*
X127879453Y-152516038D01*
X127412947Y-153065926D02*
X127564547Y-153594620D01*
X127412947Y-153065926D02*
X127261343Y-152537231D01*
X127028443Y-153176182D02*
X127412947Y-153065926D01*
%TO.C,D3*%
X123097144Y-135838149D02*
X123577775Y-135700331D01*
X123207404Y-136222654D02*
X122520387Y-136003533D01*
X122986893Y-135453645D02*
X123207404Y-136222654D01*
X122520387Y-136003533D02*
X122986893Y-135453645D01*
X122520387Y-136003533D02*
X122671987Y-136532227D01*
X122520387Y-136003533D02*
X122368783Y-135474838D01*
X122135883Y-136113789D02*
X122520387Y-136003533D01*
%TO.C,D4*%
X150354645Y-162872215D02*
X150835276Y-162734397D01*
X150464905Y-163256720D02*
X149777888Y-163037599D01*
X150244394Y-162487711D02*
X150464905Y-163256720D01*
X149777888Y-163037599D02*
X150244394Y-162487711D01*
X149777888Y-163037599D02*
X149929488Y-163566293D01*
X149777888Y-163037599D02*
X149626284Y-162508904D01*
X149393384Y-163147855D02*
X149777888Y-163037599D01*
%TO.C,D5*%
X145462093Y-145809813D02*
X145942724Y-145671995D01*
X145572353Y-146194318D02*
X144885336Y-145975197D01*
X145351842Y-145425309D02*
X145572353Y-146194318D01*
X144885336Y-145975197D02*
X145351842Y-145425309D01*
X144885336Y-145975197D02*
X145036936Y-146503891D01*
X144885336Y-145975197D02*
X144733732Y-145446502D01*
X144500832Y-146085453D02*
X144885336Y-145975197D01*
%TO.C,D6*%
X140569524Y-128747414D02*
X141050155Y-128609596D01*
X140679784Y-129131919D02*
X139992767Y-128912798D01*
X140459273Y-128362910D02*
X140679784Y-129131919D01*
X139992767Y-128912798D02*
X140459273Y-128362910D01*
X139992767Y-128912798D02*
X140144367Y-129441492D01*
X139992767Y-128912798D02*
X139841163Y-128384103D01*
X139608263Y-129023054D02*
X139992767Y-128912798D01*
%TO.C,D7*%
X166651549Y-143781772D02*
X167140623Y-143677816D01*
X166734716Y-144173031D02*
X166064661Y-143906521D01*
X166568384Y-143390512D02*
X166734716Y-144173031D01*
X166064661Y-143906521D02*
X166568384Y-143390512D01*
X166064661Y-143906521D02*
X166179012Y-144444501D01*
X166064661Y-143906521D02*
X165950306Y-143368538D01*
X165673401Y-143989686D02*
X166064661Y-143906521D01*
%TO.C,D8*%
X162961123Y-126419660D02*
X163450197Y-126315704D01*
X163044290Y-126810919D02*
X162374235Y-126544409D01*
X162877958Y-126028400D02*
X163044290Y-126810919D01*
X162374235Y-126544409D02*
X162877958Y-126028400D01*
X162374235Y-126544409D02*
X162488586Y-127082389D01*
X162374235Y-126544409D02*
X162259880Y-126006426D01*
X161982975Y-126627574D02*
X162374235Y-126544409D01*
%TO.C,D9*%
X159270689Y-109057529D02*
X159759763Y-108953573D01*
X159353856Y-109448788D02*
X158683801Y-109182278D01*
X159187524Y-108666269D02*
X159353856Y-109448788D01*
X158683801Y-109182278D02*
X159187524Y-108666269D01*
X158683801Y-109182278D02*
X158798152Y-109720258D01*
X158683801Y-109182278D02*
X158569446Y-108644295D01*
X158292541Y-109265443D02*
X158683801Y-109182278D01*
%TO.C,D10*%
X186364040Y-135506534D02*
X186859174Y-135436947D01*
X186419713Y-135902640D02*
X185769879Y-135590038D01*
X186308371Y-135110425D02*
X186419713Y-135902640D01*
X185769879Y-135590038D02*
X186308371Y-135110425D01*
X185769879Y-135590038D02*
X185846425Y-136134685D01*
X185769879Y-135590038D02*
X185693332Y-135045389D01*
X185373772Y-135645707D02*
X185769879Y-135590038D01*
%TO.C,D11*%
X183893717Y-117929270D02*
X184388851Y-117859683D01*
X183949390Y-118325376D02*
X183299556Y-118012774D01*
X183838048Y-117533161D02*
X183949390Y-118325376D01*
X183299556Y-118012774D02*
X183838048Y-117533161D01*
X183299556Y-118012774D02*
X183376102Y-118557421D01*
X183299556Y-118012774D02*
X183223009Y-117468125D01*
X182903449Y-118068443D02*
X183299556Y-118012774D01*
%TO.C,D12*%
X181423395Y-100352009D02*
X181918529Y-100282422D01*
X181479068Y-100748115D02*
X180829234Y-100435513D01*
X181367726Y-99955900D02*
X181479068Y-100748115D01*
X180829234Y-100435513D02*
X181367726Y-99955900D01*
X180829234Y-100435513D02*
X180905780Y-100980160D01*
X180829234Y-100435513D02*
X180752687Y-99890864D01*
X180433127Y-100491182D02*
X180829234Y-100435513D01*
%TO.C,D13*%
X207442504Y-139592429D02*
X207941286Y-139557550D01*
X207470405Y-139991455D02*
X206843965Y-139634283D01*
X207414602Y-139193402D02*
X207470405Y-139991455D01*
X206843965Y-139634283D02*
X207414602Y-139193402D01*
X206843965Y-139634283D02*
X206882332Y-140182942D01*
X206843965Y-139634283D02*
X206805599Y-139085623D01*
X206444940Y-139662186D02*
X206843965Y-139634283D01*
%TO.C,D14*%
X206204332Y-121885669D02*
X206703114Y-121850790D01*
X206232233Y-122284695D02*
X205605793Y-121927523D01*
X206176430Y-121486642D02*
X206232233Y-122284695D01*
X205605793Y-121927523D02*
X206176430Y-121486642D01*
X205605793Y-121927523D02*
X205644160Y-122476182D01*
X205605793Y-121927523D02*
X205567427Y-121378863D01*
X205206768Y-121955426D02*
X205605793Y-121927523D01*
%TO.C,D15*%
X204966152Y-104178899D02*
X205464934Y-104144020D01*
X204994053Y-104577925D02*
X204367613Y-104220753D01*
X204938250Y-103779872D02*
X204994053Y-104577925D01*
X204367613Y-104220753D02*
X204938250Y-103779872D01*
X204367613Y-104220753D02*
X204405980Y-104769412D01*
X204367613Y-104220753D02*
X204329247Y-103672093D01*
X203968588Y-104248656D02*
X204367613Y-104220753D01*
%TO.C,D16*%
X227823647Y-140802126D02*
X228323647Y-140802127D01*
X227823645Y-141202127D02*
X227223647Y-140802127D01*
X227823653Y-140402127D02*
X227823645Y-141202127D01*
X227223647Y-140802127D02*
X227823653Y-140402127D01*
X227223647Y-140802127D02*
X227223647Y-141352126D01*
X227223647Y-140802127D02*
X227223648Y-140252127D01*
X226823647Y-140802127D02*
X227223647Y-140802127D01*
%TO.C,D17*%
X227823651Y-123052133D02*
X228323651Y-123052134D01*
X227823649Y-123452134D02*
X227223651Y-123052134D01*
X227823657Y-122652134D02*
X227823649Y-123452134D01*
X227223651Y-123052134D02*
X227823657Y-122652134D01*
X227223651Y-123052134D02*
X227223651Y-123602133D01*
X227223651Y-123052134D02*
X227223652Y-122502134D01*
X226823651Y-123052134D02*
X227223651Y-123052134D01*
%TO.C,D18*%
X227823656Y-105302135D02*
X228323656Y-105302136D01*
X227823654Y-105702136D02*
X227223656Y-105302136D01*
X227823662Y-104902136D02*
X227823654Y-105702136D01*
X227223656Y-105302136D02*
X227823662Y-104902136D01*
X227223656Y-105302136D02*
X227223656Y-105852135D01*
X227223656Y-105302136D02*
X227223657Y-104752136D01*
X226823656Y-105302136D02*
X227223656Y-105302136D01*
%TO.C,D19*%
X175642510Y-164161817D02*
X176134914Y-164074993D01*
X175711972Y-164555740D02*
X175051625Y-164266007D01*
X175573051Y-163767893D02*
X175711972Y-164555740D01*
X175051625Y-164266007D02*
X175573051Y-163767893D01*
X175051625Y-164266007D02*
X175147132Y-164807651D01*
X175051625Y-164266007D02*
X174956117Y-163724362D01*
X174657702Y-164335467D02*
X175051625Y-164266007D01*
%TO.C,D20*%
X194398611Y-160719254D02*
X194895872Y-160666989D01*
X194440421Y-161117055D02*
X193801898Y-160781971D01*
X194356800Y-160321444D02*
X194440421Y-161117055D01*
X193801898Y-160781971D02*
X194356800Y-160321444D01*
X193801898Y-160781971D02*
X193859389Y-161328957D01*
X193801898Y-160781971D02*
X193744407Y-160234984D01*
X193404090Y-160823783D02*
X193801898Y-160781971D01*
%TO.C,D21*%
X213663245Y-160447847D02*
X214162940Y-160465298D01*
X213649283Y-160847604D02*
X213063610Y-160426908D01*
X213677211Y-160048092D02*
X213649283Y-160847604D01*
X213063610Y-160426908D02*
X213677211Y-160048092D01*
X213063610Y-160426908D02*
X213044416Y-160976572D01*
X213063610Y-160426908D02*
X213082806Y-159877243D01*
X212663854Y-160412948D02*
X213063610Y-160426908D01*
%TO.C,D22*%
X232876121Y-165552463D02*
X233339712Y-165739768D01*
X232726277Y-165923333D02*
X232319809Y-165327699D01*
X233025961Y-165181589D02*
X232726277Y-165923333D01*
X232319809Y-165327699D02*
X233025961Y-165181589D01*
X232319809Y-165327699D02*
X232113776Y-165837651D01*
X232319809Y-165327699D02*
X232525843Y-164817749D01*
X231948934Y-165177856D02*
X232319809Y-165327699D01*
%TO.C,D23*%
X249184438Y-176920408D02*
X249556006Y-177254974D01*
X248916783Y-177217668D02*
X248738542Y-176518932D01*
X249452087Y-176623152D02*
X248916783Y-177217668D01*
X248738542Y-176518932D02*
X249452087Y-176623152D01*
X248738542Y-176518932D02*
X248370526Y-176927661D01*
X248738542Y-176518932D02*
X249106569Y-176110202D01*
X248441290Y-176251280D02*
X248738542Y-176518932D01*
D14*
%TO.C,MCU1*%
X258213656Y-125542132D02*
X258213656Y-92522131D01*
X240433655Y-125542132D02*
X258213656Y-125542132D01*
X240433656Y-92522131D02*
X240433655Y-125542132D01*
X258213656Y-92522131D02*
X240433656Y-92522131D01*
D11*
%TO.C,B1*%
X245323650Y-138552138D02*
X243823653Y-137052136D01*
X247823651Y-138552136D02*
X249323653Y-137052139D01*
X247823651Y-138552136D02*
X245323650Y-138552138D01*
X243823651Y-134552135D02*
X243823653Y-137052136D01*
X249323651Y-134552138D02*
X249323653Y-137052139D01*
X245323653Y-133052138D02*
X243823651Y-134552135D01*
X247823654Y-133052136D02*
X249323651Y-134552138D01*
X247823654Y-133052136D02*
X245323653Y-133052138D01*
%TO.C,T1*%
X264423645Y-137752139D02*
X264423646Y-133852139D01*
X264423645Y-135802138D02*
X264423646Y-132502139D01*
X264423646Y-132502139D02*
X261573648Y-132502138D01*
X261573648Y-132502138D02*
X261573646Y-139102139D01*
X261573646Y-139102139D02*
X264423646Y-139102137D01*
X264423645Y-135802138D02*
X264423646Y-139102137D01*
%TD*%
D15*
%TO.C,MCU1*%
X256943657Y-96332138D03*
X256943656Y-98872131D03*
X256943656Y-101412133D03*
X256943655Y-103952134D03*
X256943655Y-106492135D03*
X256943657Y-109032132D03*
X256943655Y-111572132D03*
X256943655Y-114112134D03*
X256943655Y-116652133D03*
X256943656Y-119192132D03*
X256943655Y-121732133D03*
X256943655Y-124272134D03*
X241703655Y-124272128D03*
X241703656Y-121732135D03*
X241703656Y-119192133D03*
X241703657Y-116652132D03*
X241703657Y-114112131D03*
X241703655Y-111572134D03*
X241703657Y-109032134D03*
X241703657Y-106492132D03*
X241703657Y-103952133D03*
X241703656Y-101412134D03*
X241703657Y-98872133D03*
X241703657Y-96332132D03*
X244243658Y-119192134D03*
X246783656Y-119192134D03*
X249323657Y-119192134D03*
%TD*%
M02*
