M48
; DRILL file {KiCad 8.0.4} date 2024-08-02T12:22:16+0100
; FORMAT={-:-/ absolute / inch / decimal}
; #@! TF.CreationDate,2024-08-02T12:22:16+01:00
; #@! TF.GenerationSoftware,Kicad,Pcbnew,8.0.4
; #@! TF.FileFunction,NonPlated,1,2,NPTH
FMAT,2
INCH
; #@! TA.AperFunction,NonPlated,NPTH,ComponentDrill
T1C0.0354
; #@! TA.AperFunction,NonPlated,NPTH,ComponentDrill
T2C0.0670
; #@! TA.AperFunction,NonPlated,NPTH,ComponentDrill
T3C0.1181
; #@! TA.AperFunction,NonPlated,NPTH,ComponentDrill
T4C0.1350
%
G90
G05
T1
X10.3572Y-5.4056
X10.3572Y-5.2875
T2
X4.4609Y-5.2537
X4.6536Y-5.9254
X4.8462Y-6.5972
X4.8772Y-5.1343
X5.0699Y-5.8061
X5.1488Y-4.9745
X5.2625Y-6.4778
X5.3415Y-5.6463
X5.5341Y-6.318
X5.5651Y-4.8552
X5.7577Y-5.5269
X5.8926Y-4.1727
X5.9504Y-6.1987
X6.0379Y-4.8562
X6.1832Y-5.5398
X6.3162Y-4.0826
X6.4615Y-4.7662
X6.5416Y-6.329
X6.6068Y-5.4497
X6.7741Y-3.8039
X6.8714Y-4.4959
X6.9681Y-6.2538
X6.9686Y-5.1879
X7.203Y-3.7436
X7.2903Y-6.1678
X7.3002Y-4.4356
X7.3975Y-5.1276
X7.7122Y-3.9292
X7.721Y-6.1225
X7.7609Y-4.6263
X7.8096Y-5.3234
X8.0745Y-6.1081
X8.1442Y-3.899
X8.1929Y-4.5961
X8.2417Y-5.2932
X8.5073Y-6.1232
X8.6249Y-3.9489
X8.6249Y-4.6477
X8.6249Y-5.3465
X8.9227Y-6.2062
X9.058Y-3.9489
X9.058Y-4.6477
X9.058Y-5.3465
X9.3242Y-6.3685
X9.6861Y-6.5886
X10.008Y-6.8784
T3
X4.6045Y-4.9688
X4.7971Y-5.6406
X4.8176Y-4.9978
X4.9898Y-6.3123
X5.0102Y-5.6696
X5.2029Y-6.3413
X5.2924Y-4.6897
X5.485Y-5.3614
X5.5055Y-4.7187
X5.6777Y-6.0332
X5.6981Y-5.3904
X5.8907Y-6.0622
X6.0557Y-3.8985
X6.201Y-4.5821
X6.2663Y-3.9423
X6.3463Y-5.2656
X6.4116Y-4.6259
X6.5569Y-5.3094
X6.7142Y-6.0607
X6.9231Y-6.1118
X6.9559Y-3.5418
X7.0532Y-4.2338
X7.1505Y-4.9258
X7.1629Y-3.6001
X7.2602Y-4.2922
X7.3575Y-4.9842
X7.4812Y-5.9122
X7.686Y-5.9777
X7.9118Y-3.6804
X7.9606Y-4.3775
X8.0093Y-5.0746
X8.1142Y-3.7531
X8.163Y-4.4502
X8.2117Y-5.1473
X8.2991Y-5.8815
X8.4928Y-5.975
X8.8415Y-3.7147
X8.8415Y-4.4135
X8.8415Y-5.1123
X9.0383Y-3.8013
X9.0383Y-4.5001
X9.0383Y-5.1989
X9.2112Y-6.0702
X9.3613Y-6.2242
X10.0038Y-6.5594
X10.0921Y-6.7555
T4
X4.6691Y-5.194
X4.8617Y-5.8658
X5.0543Y-6.5375
X5.357Y-4.9148
X5.5496Y-5.5866
X5.7422Y-6.2583
X6.1044Y-4.1277
X6.2497Y-4.8112
X6.395Y-5.4948
X6.7549Y-6.2914
X6.9885Y-3.7737
X7.0858Y-4.4658
X7.1831Y-5.1578
X7.5057Y-6.1451
X7.9282Y-3.9141
X7.9769Y-4.6112
X8.0257Y-5.3083
X8.2909Y-6.1156
X8.8415Y-3.9489
X8.8415Y-4.6477
X8.8415Y-5.3465
X9.1235Y-6.2874
X9.847Y-6.7335
M30
