%TF.GenerationSoftware,KiCad,Pcbnew,8.0.4*%
%TF.CreationDate,2024-08-02T13:19:55+01:00*%
%TF.ProjectId,right,72696768-742e-46b6-9963-61645f706362,v1.0.0*%
%TF.SameCoordinates,Original*%
%TF.FileFunction,Copper,L1,Top*%
%TF.FilePolarity,Positive*%
%FSLAX46Y46*%
G04 Gerber Fmt 4.6, Leading zero omitted, Abs format (unit mm)*
G04 Created by KiCad (PCBNEW 8.0.4) date 2024-08-02 13:19:55*
%MOMM*%
%LPD*%
G01*
G04 APERTURE LIST*
G04 Aperture macros list*
%AMRotRect*
0 Rectangle, with rotation*
0 The origin of the aperture is its center*
0 $1 length*
0 $2 width*
0 $3 Rotation angle, in degrees counterclockwise*
0 Add horizontal line*
21,1,$1,$2,0,0,$3*%
G04 Aperture macros list end*
%TA.AperFunction,ComponentPad*%
%ADD10C,1.905000*%
%TD*%
%TA.AperFunction,ComponentPad*%
%ADD11RotRect,1.778000X1.778000X344.000000*%
%TD*%
%TA.AperFunction,SMDPad,CuDef*%
%ADD12RotRect,0.900000X1.200000X344.000000*%
%TD*%
%TA.AperFunction,ComponentPad*%
%ADD13RotRect,1.778000X1.778000X348.000000*%
%TD*%
%TA.AperFunction,SMDPad,CuDef*%
%ADD14RotRect,0.900000X1.200000X348.000000*%
%TD*%
%TA.AperFunction,ComponentPad*%
%ADD15RotRect,1.778000X1.778000X352.000000*%
%TD*%
%TA.AperFunction,SMDPad,CuDef*%
%ADD16RotRect,0.900000X1.200000X352.000000*%
%TD*%
%TA.AperFunction,ComponentPad*%
%ADD17RotRect,1.778000X1.778000X356.000000*%
%TD*%
%TA.AperFunction,SMDPad,CuDef*%
%ADD18RotRect,0.900000X1.200000X356.000000*%
%TD*%
%TA.AperFunction,ComponentPad*%
%ADD19R,1.778000X1.778000*%
%TD*%
%TA.AperFunction,SMDPad,CuDef*%
%ADD20R,0.900000X1.200000*%
%TD*%
%TA.AperFunction,ComponentPad*%
%ADD21RotRect,1.778000X1.778000X350.000000*%
%TD*%
%TA.AperFunction,SMDPad,CuDef*%
%ADD22RotRect,0.900000X1.200000X350.000000*%
%TD*%
%TA.AperFunction,ComponentPad*%
%ADD23RotRect,1.778000X1.778000X354.000000*%
%TD*%
%TA.AperFunction,SMDPad,CuDef*%
%ADD24RotRect,0.900000X1.200000X354.000000*%
%TD*%
%TA.AperFunction,ComponentPad*%
%ADD25RotRect,1.778000X1.778000X2.000000*%
%TD*%
%TA.AperFunction,SMDPad,CuDef*%
%ADD26RotRect,0.900000X1.200000X2.000000*%
%TD*%
%TA.AperFunction,ComponentPad*%
%ADD27RotRect,1.778000X1.778000X22.000000*%
%TD*%
%TA.AperFunction,SMDPad,CuDef*%
%ADD28RotRect,0.900000X1.200000X22.000000*%
%TD*%
%TA.AperFunction,ComponentPad*%
%ADD29RotRect,1.778000X1.778000X42.000000*%
%TD*%
%TA.AperFunction,SMDPad,CuDef*%
%ADD30RotRect,0.900000X1.200000X42.000000*%
%TD*%
%TA.AperFunction,ComponentPad*%
%ADD31C,1.752600*%
%TD*%
%TA.AperFunction,ComponentPad*%
%ADD32O,1.700000X1.200000*%
%TD*%
%TA.AperFunction,ComponentPad*%
%ADD33R,1.700000X1.200000*%
%TD*%
%TA.AperFunction,SMDPad,CuDef*%
%ADD34R,1.100000X1.800000*%
%TD*%
%TA.AperFunction,SMDPad,CuDef*%
%ADD35R,0.900000X0.900000*%
%TD*%
%TA.AperFunction,SMDPad,CuDef*%
%ADD36R,1.250000X0.900000*%
%TD*%
%TA.AperFunction,WasherPad*%
%ADD37C,1.000000*%
%TD*%
%TA.AperFunction,Conductor*%
%ADD38C,0.250000*%
%TD*%
G04 APERTURE END LIST*
D10*
%TO.P,D1,2*%
%TO.N,mirror_first_bottom*%
X286330647Y-169345110D03*
D11*
%TO.P,D1,1*%
%TO.N,P009*%
X279005835Y-167244754D03*
D12*
%TO.P,D1,2*%
%TO.N,mirror_first_bottom*%
X284254322Y-168749734D03*
%TO.P,D1,1*%
%TO.N,P009*%
X281082160Y-167840130D03*
%TD*%
D10*
%TO.P,D2,2*%
%TO.N,mirror_first_home*%
X291223208Y-152282710D03*
D11*
%TO.P,D2,1*%
%TO.N,P010*%
X283898396Y-150182354D03*
D12*
%TO.P,D2,2*%
%TO.N,mirror_first_home*%
X289146883Y-151687334D03*
%TO.P,D2,1*%
%TO.N,P010*%
X285974721Y-150777730D03*
%TD*%
D10*
%TO.P,D3,2*%
%TO.N,mirror_first_top*%
X296115771Y-135220315D03*
D11*
%TO.P,D3,1*%
%TO.N,P111*%
X288790959Y-133119959D03*
D12*
%TO.P,D3,2*%
%TO.N,mirror_first_top*%
X294039446Y-134624939D03*
%TO.P,D3,1*%
%TO.N,P111*%
X290867284Y-133715335D03*
%TD*%
D10*
%TO.P,D4,2*%
%TO.N,mirror_second_bottom*%
X268858260Y-162254382D03*
D11*
%TO.P,D4,1*%
%TO.N,P009*%
X261533448Y-160154026D03*
D12*
%TO.P,D4,2*%
%TO.N,mirror_second_bottom*%
X266781935Y-161659006D03*
%TO.P,D4,1*%
%TO.N,P009*%
X263609773Y-160749402D03*
%TD*%
D10*
%TO.P,D5,2*%
%TO.N,mirror_second_home*%
X273750824Y-145191986D03*
D11*
%TO.P,D5,1*%
%TO.N,P010*%
X266426012Y-143091630D03*
D12*
%TO.P,D5,2*%
%TO.N,mirror_second_home*%
X271674499Y-144596610D03*
%TO.P,D5,1*%
%TO.N,P010*%
X268502337Y-143687006D03*
%TD*%
D10*
%TO.P,D6,2*%
%TO.N,mirror_second_top*%
X278643387Y-128129589D03*
D11*
%TO.P,D6,1*%
%TO.N,P111*%
X271318575Y-126029233D03*
D12*
%TO.P,D6,2*%
%TO.N,mirror_second_top*%
X276567062Y-127534213D03*
%TO.P,D6,1*%
%TO.N,P111*%
X273394900Y-126624609D03*
%TD*%
D10*
%TO.P,D7,2*%
%TO.N,mirror_third_bottom*%
X252731236Y-142482626D03*
D13*
%TO.P,D7,1*%
%TO.N,P009*%
X245277752Y-140898340D03*
D14*
%TO.P,D7,2*%
%TO.N,mirror_third_bottom*%
X250618437Y-142033538D03*
%TO.P,D7,1*%
%TO.N,P009*%
X247390551Y-141347428D03*
%TD*%
D10*
%TO.P,D8,2*%
%TO.N,mirror_third_home*%
X256421667Y-125120506D03*
D13*
%TO.P,D8,1*%
%TO.N,P010*%
X248968183Y-123536220D03*
D14*
%TO.P,D8,2*%
%TO.N,mirror_third_home*%
X254308868Y-124671418D03*
%TO.P,D8,1*%
%TO.N,P010*%
X251080982Y-123985308D03*
%TD*%
D10*
%TO.P,D9,2*%
%TO.N,mirror_third_top*%
X260112101Y-107758378D03*
D13*
%TO.P,D9,1*%
%TO.N,P111*%
X252658617Y-106174092D03*
D14*
%TO.P,D9,2*%
%TO.N,mirror_third_top*%
X257999302Y-107309290D03*
%TO.P,D9,1*%
%TO.N,P111*%
X254771416Y-106623180D03*
%TD*%
D10*
%TO.P,D10,2*%
%TO.N,mirror_fourth_bottom*%
X233140678Y-133515872D03*
D15*
%TO.P,D10,1*%
%TO.N,P009*%
X225594834Y-132455378D03*
D16*
%TO.P,D10,2*%
%TO.N,mirror_fourth_bottom*%
X231001698Y-133215261D03*
%TO.P,D10,1*%
%TO.N,P009*%
X227733814Y-132755989D03*
%TD*%
D10*
%TO.P,D11,2*%
%TO.N,mirror_fourth_home*%
X235611005Y-115938616D03*
D15*
%TO.P,D11,1*%
%TO.N,P010*%
X228065161Y-114878122D03*
D16*
%TO.P,D11,2*%
%TO.N,mirror_fourth_home*%
X233472025Y-115638005D03*
%TO.P,D11,1*%
%TO.N,P010*%
X230204141Y-115178733D03*
%TD*%
D10*
%TO.P,D12,2*%
%TO.N,mirror_fourth_top*%
X238081324Y-98361354D03*
D15*
%TO.P,D12,1*%
%TO.N,P111*%
X230535480Y-97300860D03*
D16*
%TO.P,D12,2*%
%TO.N,mirror_fourth_top*%
X235942344Y-98060743D03*
%TO.P,D12,1*%
%TO.N,P111*%
X232674460Y-97601471D03*
%TD*%
D10*
%TO.P,D13,2*%
%TO.N,mirror_fifth_bottom*%
X212135606Y-136903440D03*
D17*
%TO.P,D13,1*%
%TO.N,P009*%
X204534168Y-136371898D03*
D18*
%TO.P,D13,2*%
%TO.N,mirror_fifth_bottom*%
X209980868Y-136752769D03*
%TO.P,D13,1*%
%TO.N,P009*%
X206688906Y-136522569D03*
%TD*%
D10*
%TO.P,D14,2*%
%TO.N,mirror_fifth_home*%
X213373788Y-119196678D03*
D17*
%TO.P,D14,1*%
%TO.N,P010*%
X205772350Y-118665136D03*
D18*
%TO.P,D14,2*%
%TO.N,mirror_fifth_home*%
X211219050Y-119046007D03*
%TO.P,D14,1*%
%TO.N,P010*%
X207927088Y-118815807D03*
%TD*%
D10*
%TO.P,D15,2*%
%TO.N,mirror_fifth_top*%
X214611962Y-101489917D03*
D17*
%TO.P,D15,1*%
%TO.N,P111*%
X207010524Y-100958375D03*
D18*
%TO.P,D15,2*%
%TO.N,mirror_fifth_top*%
X212457224Y-101339246D03*
%TO.P,D15,1*%
%TO.N,P111*%
X209165262Y-101109046D03*
%TD*%
D10*
%TO.P,D16,2*%
%TO.N,mirror_sixth_bottom*%
X191778976Y-137411394D03*
D19*
%TO.P,D16,1*%
%TO.N,P009*%
X184158976Y-137411392D03*
D20*
%TO.P,D16,2*%
%TO.N,mirror_sixth_bottom*%
X189618978Y-137411394D03*
%TO.P,D16,1*%
%TO.N,P009*%
X186318974Y-137411392D03*
%TD*%
D10*
%TO.P,D17,2*%
%TO.N,mirror_sixth_home*%
X191778973Y-119661395D03*
D19*
%TO.P,D17,1*%
%TO.N,P010*%
X184158973Y-119661393D03*
D20*
%TO.P,D17,2*%
%TO.N,mirror_sixth_home*%
X189618975Y-119661395D03*
%TO.P,D17,1*%
%TO.N,P010*%
X186318971Y-119661393D03*
%TD*%
D10*
%TO.P,D18,2*%
%TO.N,mirror_sixth_top*%
X191778974Y-101911395D03*
D19*
%TO.P,D18,1*%
%TO.N,P111*%
X184158974Y-101911393D03*
D20*
%TO.P,D18,2*%
%TO.N,mirror_sixth_top*%
X189618976Y-101911395D03*
%TO.P,D18,1*%
%TO.N,P111*%
X186318972Y-101911393D03*
%TD*%
D10*
%TO.P,D19,2*%
%TO.N,mirror_first_only*%
X243807277Y-162517978D03*
D21*
%TO.P,D19,1*%
%TO.N,P106*%
X236303043Y-161194780D03*
D22*
%TO.P,D19,2*%
%TO.N,mirror_first_only*%
X241680092Y-162142899D03*
%TO.P,D19,1*%
%TO.N,P106*%
X238430228Y-161569859D03*
%TD*%
D10*
%TO.P,D20,2*%
%TO.N,mirror_second_only*%
X225148910Y-158380068D03*
D23*
%TO.P,D20,1*%
%TO.N,P106*%
X217570652Y-157583564D03*
D24*
%TO.P,D20,2*%
%TO.N,mirror_second_only*%
X223000742Y-158154290D03*
%TO.P,D20,1*%
%TO.N,P106*%
X219718820Y-157809342D03*
%TD*%
D10*
%TO.P,D21,2*%
%TO.N,mirror_third_only*%
X205933246Y-156706032D03*
D25*
%TO.P,D21,1*%
%TO.N,P106*%
X198317886Y-156971968D03*
D26*
%TO.P,D21,2*%
%TO.N,mirror_third_only*%
X203774563Y-156781417D03*
%TO.P,D21,1*%
%TO.N,P106*%
X200476569Y-156896583D03*
%TD*%
D10*
%TO.P,D22,2*%
%TO.N,mirror_fourth_only*%
X185993972Y-158393183D03*
D27*
%TO.P,D22,1*%
%TO.N,P106*%
X178928830Y-161247685D03*
D28*
%TO.P,D22,2*%
%TO.N,mirror_fourth_only*%
X183991253Y-159202338D03*
%TO.P,D22,1*%
%TO.N,P106*%
X180931549Y-160438530D03*
%TD*%
D10*
%TO.P,D23,2*%
%TO.N,mirror_fifth_only*%
X167834222Y-166798220D03*
D29*
%TO.P,D23,1*%
%TO.N,P106*%
X162171458Y-171896990D03*
D30*
%TO.P,D23,2*%
%TO.N,mirror_fifth_only*%
X166229028Y-168243538D03*
%TO.P,D23,1*%
%TO.N,P106*%
X163776652Y-170451672D03*
%TD*%
D31*
%TO.P,MCU1,33*%
%TO.N,P107*%
X160218973Y-115801399D03*
%TO.P,MCU1,32*%
%TO.N,P102*%
X157678970Y-115801397D03*
%TO.P,MCU1,31*%
%TO.N,P101*%
X155138976Y-115801399D03*
%TO.P,MCU1,24*%
%TO.N,RAW*%
X167838973Y-92941397D03*
%TO.P,MCU1,23*%
%TO.N,GND*%
X167838973Y-95481398D03*
%TO.P,MCU1,22*%
%TO.N,RST*%
X167838974Y-98021399D03*
%TO.P,MCU1,21*%
%TO.N,VCC*%
X167838973Y-100561398D03*
%TO.P,MCU1,20*%
%TO.N,P031*%
X167838973Y-103101397D03*
%TO.P,MCU1,19*%
%TO.N,P029*%
X167838973Y-105641399D03*
%TO.P,MCU1,18*%
%TO.N,P002*%
X167838975Y-108181399D03*
%TO.P,MCU1,17*%
%TO.N,P115*%
X167838973Y-110721396D03*
%TO.P,MCU1,16*%
%TO.N,P113*%
X167838974Y-113261397D03*
%TO.P,MCU1,15*%
%TO.N,P111*%
X167838974Y-115801398D03*
%TO.P,MCU1,14*%
%TO.N,P010*%
X167838974Y-118341400D03*
%TO.P,MCU1,13*%
%TO.N,P009*%
X167838975Y-120881395D03*
%TO.P,MCU1,12*%
%TO.N,P106*%
X152598975Y-120881399D03*
%TO.P,MCU1,11*%
%TO.N,P104*%
X152598975Y-118341398D03*
%TO.P,MCU1,10*%
%TO.N,P011*%
X152598974Y-115801397D03*
%TO.P,MCU1,9*%
%TO.N,P100*%
X152598975Y-113261398D03*
%TO.P,MCU1,8*%
%TO.N,P024*%
X152598975Y-110721399D03*
%TO.P,MCU1,7*%
%TO.N,P022*%
X152598975Y-108181397D03*
%TO.P,MCU1,6*%
%TO.N,P020*%
X152598973Y-105641397D03*
%TO.P,MCU1,5*%
%TO.N,P017*%
X152598975Y-103101400D03*
%TO.P,MCU1,4*%
%TO.N,GND*%
X152598974Y-100561399D03*
%TO.P,MCU1,3*%
X152598974Y-98021398D03*
%TO.P,MCU1,2*%
%TO.N,P008*%
X152598974Y-95481396D03*
%TO.P,MCU1,1*%
%TO.N,P006*%
X152598973Y-92941401D03*
%TD*%
D32*
%TO.P,JST1,2*%
%TO.N,GND*%
X146468978Y-141911395D03*
D33*
%TO.P,JST1,1*%
%TO.N,pos*%
X146468972Y-143911395D03*
%TD*%
D34*
%TO.P,B1,2*%
%TO.N,RST*%
X164818981Y-129311396D03*
X164818982Y-135511392D03*
%TO.P,B1,1*%
%TO.N,GND*%
X161118982Y-129311400D03*
X161118983Y-135511396D03*
%TD*%
D35*
%TO.P,T1,*%
%TO.N,*%
X145368975Y-136111395D03*
X147568975Y-136111393D03*
X147568975Y-128711395D03*
X145368975Y-128711397D03*
D36*
%TO.P,T1,3*%
%TO.N,N/C*%
X148543971Y-134661394D03*
%TO.P,T1,2*%
%TO.N,RAW*%
X148543974Y-133161394D03*
%TO.P,T1,1*%
%TO.N,pos*%
X148543975Y-130161395D03*
D37*
%TO.P,T1,*%
%TO.N,*%
X146468976Y-133911395D03*
X146468974Y-130911395D03*
%TD*%
D38*
%TO.N,GND*%
X150378880Y-138001492D02*
X150378880Y-102781489D01*
X150378880Y-102781489D02*
X152598973Y-100561398D01*
X146468977Y-141911395D02*
X150378880Y-138001492D01*
%TO.N,pos*%
X146793974Y-135336391D02*
X146793975Y-140028248D01*
X145293976Y-142736398D02*
X146468973Y-143911395D01*
X147593972Y-134536396D02*
X146793974Y-135336391D01*
X145293975Y-141528247D02*
X145293976Y-142736398D01*
X147593971Y-131111397D02*
X147593972Y-134536396D01*
X148543974Y-130161395D02*
X147593971Y-131111397D01*
X146793975Y-140028248D02*
X145293975Y-141528247D01*
%TO.N,RAW*%
X149928879Y-91618379D02*
X149928879Y-131776486D01*
X149928879Y-131776486D02*
X148543975Y-133161393D01*
X165315955Y-90418379D02*
X151128879Y-90418380D01*
X151128879Y-90418380D02*
X149928879Y-91618379D01*
X167838972Y-92941395D02*
X165315955Y-90418379D01*
%TO.N,GND*%
X161118981Y-124268377D02*
X161118982Y-129311398D01*
X164368979Y-103218379D02*
X164368979Y-121018378D01*
X161711997Y-100561397D02*
X164368979Y-103218379D01*
X152598973Y-100561398D02*
X161711997Y-100561397D01*
X164368979Y-121018378D02*
X161118981Y-124268377D01*
X152598972Y-98021396D02*
X152598973Y-100561398D01*
X155138972Y-95481397D02*
X152598972Y-98021396D01*
X167838970Y-95481396D02*
X155138972Y-95481397D01*
%TO.N,RST*%
X164818980Y-101041391D02*
X167838971Y-98021398D01*
X164818980Y-129311394D02*
X164818980Y-101041391D01*
%TO.N,GND*%
X161118979Y-135511394D02*
X161118980Y-135511395D01*
X161118982Y-129311398D02*
X161118979Y-135511394D01*
%TO.N,RST*%
X164818981Y-135511391D02*
X164818981Y-135511392D01*
X164818980Y-129311394D02*
X164818981Y-135511391D01*
%TO.N,P106*%
X155328880Y-123611303D02*
X152598974Y-120881397D01*
X150328880Y-158218377D02*
X155328879Y-153218377D01*
X150328879Y-170018378D02*
X150328880Y-158218377D01*
X155528879Y-175218377D02*
X150328879Y-170018378D01*
X158850071Y-175218379D02*
X155528879Y-175218377D01*
X155328879Y-153218377D02*
X155328880Y-123611303D01*
X162171460Y-171896991D02*
X158850071Y-175218379D01*
%TO.N,P009*%
X184158976Y-135048477D02*
X169991893Y-120881394D01*
X169991893Y-120881394D02*
X167838973Y-120881393D01*
X184158976Y-137411394D02*
X184158976Y-135048477D01*
%TO.N,P010*%
X169158967Y-119661394D02*
X167838973Y-118341398D01*
X184158974Y-119661393D02*
X169158967Y-119661394D01*
%TO.N,P111*%
X181728979Y-101911392D02*
X167838972Y-115801397D01*
X184158975Y-101911390D02*
X181728979Y-101911392D01*
%TO.N,P106*%
X162171458Y-171896999D02*
X162171456Y-171896998D01*
X163776651Y-170451677D02*
X162171458Y-171896999D01*
%TO.N,mirror_fifth_only*%
X166229037Y-168243542D02*
X166229036Y-168243543D01*
X167834226Y-166798222D02*
X166229037Y-168243542D01*
%TO.N,P106*%
X164873662Y-172228783D02*
X162171456Y-171896998D01*
X178928831Y-161247682D02*
X164873662Y-172228783D01*
X178928828Y-161247681D02*
X178928830Y-161247686D01*
X180931551Y-160438535D02*
X178928828Y-161247681D01*
%TO.N,mirror_fourth_only*%
X183991252Y-159202324D02*
X183991252Y-159202331D01*
X185993970Y-158393185D02*
X183991252Y-159202324D01*
%TO.N,P106*%
X181931222Y-163051706D02*
X178928830Y-161247685D01*
X196867988Y-159327551D02*
X181931222Y-163051706D01*
X198277285Y-156982093D02*
X196867988Y-159327551D01*
X198317891Y-156971971D02*
X198277285Y-156982093D01*
X198317889Y-156971971D02*
X198317891Y-156971971D01*
X200476571Y-156896583D02*
X198317889Y-156971971D01*
%TO.N,mirror_third_only*%
X203774565Y-156781415D02*
X203774567Y-156781421D01*
X205933252Y-156706032D02*
X203774565Y-156781415D01*
%TO.N,P106*%
X199900137Y-158925878D02*
X198317888Y-156971970D01*
X214115521Y-160419976D02*
X199900137Y-158925878D01*
X214119948Y-160377883D02*
X214115521Y-160419976D01*
X217570647Y-157583560D02*
X214119948Y-160377883D01*
X217570650Y-157583557D02*
X217570647Y-157583560D01*
X219718814Y-157809341D02*
X217570650Y-157583557D01*
%TO.N,mirror_second_only*%
X223000745Y-158154284D02*
X223000742Y-158154287D01*
X225148908Y-158380067D02*
X223000745Y-158154284D01*
%TO.N,P106*%
X217266962Y-159305834D02*
X217570650Y-157583560D01*
X218666207Y-161304157D02*
X217266962Y-159305834D01*
X234029208Y-164013065D02*
X218666207Y-161304157D01*
X236056387Y-162593630D02*
X234029208Y-164013065D01*
X236303045Y-161194779D02*
X236056387Y-162593630D01*
X238430225Y-161569859D02*
X236303045Y-161194779D01*
%TO.N,mirror_first_only*%
X243807277Y-162517977D02*
X241680092Y-162142904D01*
%TO.N,P009*%
X184158980Y-137411395D02*
X184158980Y-137411397D01*
X186318977Y-137411390D02*
X184158980Y-137411395D01*
%TO.N,mirror_sixth_bottom*%
X189618978Y-137411393D02*
X189618977Y-137411393D01*
X191778975Y-137411390D02*
X189618978Y-137411393D01*
%TO.N,P010*%
X184158979Y-119661391D02*
X184158976Y-119661394D01*
X186318976Y-119661391D02*
X184158979Y-119661391D01*
%TO.N,mirror_sixth_home*%
X189618982Y-119661394D02*
X189618982Y-119661395D01*
X191778980Y-119661391D02*
X189618982Y-119661394D01*
%TO.N,P111*%
X184158974Y-101911392D02*
X184158973Y-101911390D01*
X186318971Y-101911397D02*
X184158974Y-101911392D01*
%TO.N,mirror_sixth_top*%
X189618977Y-101911394D02*
X189618977Y-101911393D01*
X191778976Y-101911393D02*
X189618977Y-101911394D01*
%TO.N,P009*%
X185436478Y-136133890D02*
X184158980Y-137411397D01*
X204534172Y-136371899D02*
X204296168Y-136133896D01*
X204296168Y-136133896D02*
X185436478Y-136133890D01*
%TO.N,P010*%
X185436479Y-118383897D02*
X184158976Y-119661394D01*
X205491107Y-118383889D02*
X185436479Y-118383897D01*
X205772347Y-118665137D02*
X205491107Y-118383889D01*
%TO.N,P111*%
X185436477Y-100633895D02*
X184158973Y-101911390D01*
X206686049Y-100633892D02*
X185436477Y-100633895D01*
X207010524Y-100958378D02*
X206686049Y-100633892D01*
%TO.N,P009*%
X204534177Y-136371900D02*
X204534172Y-136371899D01*
X206688912Y-136522575D02*
X204534177Y-136371900D01*
%TO.N,mirror_fifth_bottom*%
X209980878Y-136752767D02*
X209980873Y-136752767D01*
X212135610Y-136903445D02*
X209980878Y-136752767D01*
%TO.N,P010*%
X205772350Y-118665135D02*
X205772347Y-118665137D01*
X207927088Y-118815804D02*
X205772350Y-118665135D01*
%TO.N,mirror_fifth_home*%
X211219053Y-119046003D02*
X211219053Y-119046005D01*
X213373789Y-119196680D02*
X211219053Y-119046003D01*
%TO.N,P111*%
X207010528Y-100958373D02*
X207010524Y-100958378D01*
X209165266Y-101109045D02*
X207010528Y-100958373D01*
%TO.N,mirror_fifth_top*%
X214611964Y-101489917D02*
X212457227Y-101339243D01*
X212457227Y-101339243D02*
X212457229Y-101339245D01*
%TO.N,P111*%
X209887984Y-98457043D02*
X207010524Y-100958378D01*
X227767212Y-99707280D02*
X209887984Y-98457043D01*
X230535479Y-97300860D02*
X227767212Y-99707280D01*
%TO.N,P009*%
X207047258Y-134187313D02*
X204534172Y-136371899D01*
X207050139Y-134146021D02*
X207047258Y-134187313D01*
X222414069Y-135220369D02*
X207050139Y-134146021D01*
X225594838Y-132455379D02*
X222414069Y-135220369D01*
%TO.N,P010*%
X208809903Y-116024638D02*
X205772347Y-118665137D01*
X225410839Y-117185482D02*
X208809903Y-116024638D01*
X228065157Y-114878117D02*
X225410839Y-117185482D01*
%TO.N,P009*%
X225594840Y-132455379D02*
X225594838Y-132455379D01*
X227733813Y-132755986D02*
X225594840Y-132455379D01*
%TO.N,mirror_fourth_bottom*%
X231001702Y-133215256D02*
X231001701Y-133215259D01*
X233140678Y-133515870D02*
X231001702Y-133215256D01*
%TO.N,P010*%
X228065156Y-114878115D02*
X228065157Y-114878117D01*
X230204135Y-115178732D02*
X228065156Y-114878115D01*
%TO.N,mirror_fourth_home*%
X233472020Y-115638002D02*
X233472019Y-115638001D01*
X235611002Y-115938616D02*
X233472020Y-115638002D01*
%TO.N,P111*%
X230535478Y-97300860D02*
X230535479Y-97300860D01*
X232674460Y-97601476D02*
X230535478Y-97300860D01*
%TO.N,mirror_fourth_top*%
X235942342Y-98060739D02*
X235942342Y-98060742D01*
X238081321Y-98361356D02*
X235942342Y-98060739D01*
%TO.N,P009*%
X228803756Y-137396679D02*
X225594838Y-132455379D01*
X245277752Y-140898338D02*
X228803756Y-137396679D01*
%TO.N,P010*%
X231240783Y-119768140D02*
X228065157Y-114878117D01*
X248968185Y-123536215D02*
X231240783Y-119768140D01*
%TO.N,P111*%
X233677788Y-102139598D02*
X230535479Y-97300860D01*
X252658620Y-106174103D02*
X233677788Y-102139598D01*
%TO.N,P009*%
X257181867Y-159229066D02*
X245277752Y-140898338D01*
X261533453Y-160154028D02*
X257181867Y-159229066D01*
%TO.N,P010*%
X260905606Y-141918234D02*
X248968185Y-123536215D01*
X266426012Y-143091629D02*
X260905606Y-141918234D01*
%TO.N,P111*%
X264629343Y-124607396D02*
X252658620Y-106174103D01*
X271318574Y-126029228D02*
X264629343Y-124607396D01*
%TO.N,P009*%
X247390548Y-141347426D02*
X245277752Y-140898338D01*
%TO.N,mirror_third_bottom*%
X252731242Y-142482629D02*
X250618441Y-142033536D01*
%TO.N,mirror_third_home*%
X254308866Y-124671408D02*
X256421671Y-125120506D01*
%TO.N,P010*%
X248968185Y-123536215D02*
X251080986Y-123985305D01*
%TO.N,P111*%
X254771418Y-106623187D02*
X252658620Y-106174103D01*
%TO.N,mirror_third_top*%
X260112099Y-107758390D02*
X257999303Y-107309298D01*
%TO.N,P009*%
X263609779Y-160749403D02*
X261533453Y-160154028D01*
%TO.N,mirror_second_bottom*%
X268858266Y-162254382D02*
X266781940Y-161659004D01*
%TO.N,P010*%
X268502338Y-143687007D02*
X266426012Y-143091629D01*
%TO.N,mirror_second_home*%
X273750828Y-145191984D02*
X271674502Y-144596608D01*
%TO.N,P111*%
X273394902Y-126624615D02*
X271318574Y-126029228D01*
%TO.N,mirror_second_top*%
X278643395Y-128129589D02*
X276567067Y-127534216D01*
%TO.N,P111*%
X272689826Y-128503032D02*
X271318574Y-126029228D01*
X288790960Y-133119960D02*
X272689826Y-128503032D01*
%TO.N,P010*%
X267797261Y-145565429D02*
X266426012Y-143091629D01*
X283898397Y-150182354D02*
X267797261Y-145565429D01*
%TO.N,P009*%
X262904697Y-162627823D02*
X261533453Y-160154028D01*
X279005829Y-167244754D02*
X262904697Y-162627823D01*
%TO.N,mirror_first_bottom*%
X286330649Y-169345106D02*
X284254323Y-168749731D01*
%TO.N,P009*%
X279005829Y-167244754D02*
X281082158Y-167840125D01*
%TO.N,P010*%
X285974723Y-150777730D02*
X283898397Y-150182354D01*
%TO.N,mirror_first_home*%
X291223211Y-152282706D02*
X289146887Y-151687331D01*
%TO.N,P111*%
X290867286Y-133715336D02*
X288790960Y-133119960D01*
%TO.N,mirror_first_top*%
X296115775Y-135220318D02*
X294039452Y-134624942D01*
%TD*%
M02*
