M48
; DRILL file {KiCad 8.0.4} date 2024-08-02T13:19:53+0100
; FORMAT={-:-/ absolute / inch / decimal}
; #@! TF.CreationDate,2024-08-02T13:19:53+01:00
; #@! TF.GenerationSoftware,Kicad,Pcbnew,8.0.4
; #@! TF.FileFunction,NonPlated,1,2,NPTH
FMAT,2
INCH
; #@! TA.AperFunction,NonPlated,NPTH,ComponentDrill
T1C0.0354
; #@! TA.AperFunction,NonPlated,NPTH,ComponentDrill
T2C0.0670
; #@! TA.AperFunction,NonPlated,NPTH,ComponentDrill
T3C0.1181
; #@! TA.AperFunction,NonPlated,NPTH,ComponentDrill
T4C0.1350
%
G90
G05
T1
X5.7665Y-5.154
X5.7665Y-5.2721
T2
X6.1158Y-6.7449
X6.4376Y-6.4551
X6.7995Y-6.235
X7.0657Y-4.5142
X7.0657Y-5.213
X7.0657Y-3.8154
X7.201Y-6.0728
X7.4988Y-4.5142
X7.4988Y-5.213
X7.4988Y-3.8154
X7.6164Y-5.9897
X7.8821Y-5.1597
X7.9308Y-4.4626
X7.9796Y-3.7655
X8.0492Y-5.9746
X8.3141Y-5.1899
X8.3628Y-4.4928
X8.4027Y-5.989
X8.4116Y-3.7957
X8.7262Y-4.9941
X8.8235Y-4.3021
X8.8334Y-6.0343
X8.9207Y-3.6101
X9.1551Y-5.0544
X9.1556Y-6.1203
X9.2523Y-4.3624
X9.3496Y-3.6704
X9.5169Y-5.3162
X9.5821Y-6.1955
X9.6622Y-4.6327
X9.8075Y-3.9491
X9.9405Y-5.4063
X10.0858Y-4.7227
X10.1734Y-6.0652
X10.2311Y-4.0392
X10.366Y-5.3934
X10.5586Y-4.7217
X10.5897Y-6.1845
X10.7823Y-5.5128
X10.8612Y-6.3443
X10.9749Y-4.841
X11.0539Y-5.6726
X11.2465Y-5.0008
X11.2775Y-6.4637
X11.4702Y-5.7919
X11.6628Y-5.1202
T3
X6.1199Y-6.4259
X6.3242Y-6.3585
X6.9125Y-5.9367
X7.1275Y-5.9432
X7.2822Y-4.28
X7.2822Y-4.9788
X7.2822Y-3.5812
X7.4791Y-4.3666
X7.4791Y-5.0654
X7.4791Y-3.6678
X7.8246Y-5.748
X8.0244Y-5.8277
X8.1144Y-4.9411
X8.1632Y-4.244
X8.2119Y-3.5469
X8.3047Y-5.0413
X8.3535Y-4.3442
X8.4022Y-3.647
X8.6426Y-5.7787
X8.8293Y-5.8854
X8.9733Y-4.7923
X9.0705Y-4.1003
X9.1561Y-4.9055
X9.1678Y-3.4083
X9.2534Y-4.2135
X9.3507Y-3.5214
X9.4095Y-5.9272
X9.5884Y-6.0467
X9.7774Y-5.1321
X9.9227Y-4.4486
X9.952Y-5.2578
X10.068Y-3.765
X10.0973Y-4.5742
X10.2426Y-3.8907
X10.4461Y-5.8997
X10.6114Y-6.0372
X10.6387Y-5.2279
X10.804Y-5.3654
X10.8313Y-4.5562
X10.9967Y-4.6937
X11.134Y-6.1788
X11.2993Y-6.3163
X11.3266Y-5.5071
X11.4919Y-5.6446
X11.5192Y-4.8353
X11.6846Y-4.9728
T4
X6.2767Y-6.6
X7.0003Y-6.1539
X7.2822Y-4.5142
X7.2822Y-5.213
X7.2822Y-3.8154
X7.8328Y-5.9822
X8.0981Y-5.1748
X8.1468Y-4.4777
X8.1956Y-3.7806
X8.6181Y-6.0116
X8.9407Y-5.0243
X9.0379Y-4.3323
X9.1352Y-3.6402
X9.3689Y-6.1579
X9.7287Y-5.3613
X9.874Y-4.6777
X10.0193Y-3.9942
X10.3815Y-6.1248
X10.5741Y-5.4531
X10.7667Y-4.7813
X11.0694Y-6.404
X11.262Y-5.7323
X11.4546Y-5.0605
M30
