%TF.GenerationSoftware,KiCad,Pcbnew,8.0.4*%
%TF.CreationDate,2024-08-02T13:19:55+01:00*%
%TF.ProjectId,right,72696768-742e-46b6-9963-61645f706362,v1.0.0*%
%TF.SameCoordinates,Original*%
%TF.FileFunction,Copper,L2,Bot*%
%TF.FilePolarity,Positive*%
%FSLAX46Y46*%
G04 Gerber Fmt 4.6, Leading zero omitted, Abs format (unit mm)*
G04 Created by KiCad (PCBNEW 8.0.4) date 2024-08-02 13:19:55*
%MOMM*%
%LPD*%
G01*
G04 APERTURE LIST*
G04 Aperture macros list*
%AMRotRect*
0 Rectangle, with rotation*
0 The origin of the aperture is its center*
0 $1 length*
0 $2 width*
0 $3 Rotation angle, in degrees counterclockwise*
0 Add horizontal line*
21,1,$1,$2,0,0,$3*%
G04 Aperture macros list end*
%TA.AperFunction,SMDPad,CuDef*%
%ADD10RotRect,2.600000X2.600000X344.000000*%
%TD*%
%TA.AperFunction,SMDPad,CuDef*%
%ADD11RotRect,2.600000X2.600000X348.000000*%
%TD*%
%TA.AperFunction,SMDPad,CuDef*%
%ADD12RotRect,2.600000X2.600000X352.000000*%
%TD*%
%TA.AperFunction,SMDPad,CuDef*%
%ADD13RotRect,2.600000X2.600000X356.000000*%
%TD*%
%TA.AperFunction,SMDPad,CuDef*%
%ADD14R,2.600000X2.600000*%
%TD*%
%TA.AperFunction,SMDPad,CuDef*%
%ADD15RotRect,2.600000X2.600000X350.000000*%
%TD*%
%TA.AperFunction,SMDPad,CuDef*%
%ADD16RotRect,2.600000X2.600000X354.000000*%
%TD*%
%TA.AperFunction,SMDPad,CuDef*%
%ADD17RotRect,2.600000X2.600000X2.000000*%
%TD*%
%TA.AperFunction,SMDPad,CuDef*%
%ADD18RotRect,2.600000X2.600000X22.000000*%
%TD*%
%TA.AperFunction,SMDPad,CuDef*%
%ADD19RotRect,2.600000X2.600000X42.000000*%
%TD*%
%TA.AperFunction,ComponentPad*%
%ADD20C,1.905000*%
%TD*%
%TA.AperFunction,ComponentPad*%
%ADD21RotRect,1.778000X1.778000X344.000000*%
%TD*%
%TA.AperFunction,SMDPad,CuDef*%
%ADD22RotRect,0.900000X1.200000X344.000000*%
%TD*%
%TA.AperFunction,ComponentPad*%
%ADD23RotRect,1.778000X1.778000X348.000000*%
%TD*%
%TA.AperFunction,SMDPad,CuDef*%
%ADD24RotRect,0.900000X1.200000X348.000000*%
%TD*%
%TA.AperFunction,ComponentPad*%
%ADD25RotRect,1.778000X1.778000X352.000000*%
%TD*%
%TA.AperFunction,SMDPad,CuDef*%
%ADD26RotRect,0.900000X1.200000X352.000000*%
%TD*%
%TA.AperFunction,ComponentPad*%
%ADD27RotRect,1.778000X1.778000X356.000000*%
%TD*%
%TA.AperFunction,SMDPad,CuDef*%
%ADD28RotRect,0.900000X1.200000X356.000000*%
%TD*%
%TA.AperFunction,ComponentPad*%
%ADD29R,1.778000X1.778000*%
%TD*%
%TA.AperFunction,SMDPad,CuDef*%
%ADD30R,0.900000X1.200000*%
%TD*%
%TA.AperFunction,ComponentPad*%
%ADD31RotRect,1.778000X1.778000X350.000000*%
%TD*%
%TA.AperFunction,SMDPad,CuDef*%
%ADD32RotRect,0.900000X1.200000X350.000000*%
%TD*%
%TA.AperFunction,ComponentPad*%
%ADD33RotRect,1.778000X1.778000X354.000000*%
%TD*%
%TA.AperFunction,SMDPad,CuDef*%
%ADD34RotRect,0.900000X1.200000X354.000000*%
%TD*%
%TA.AperFunction,ComponentPad*%
%ADD35RotRect,1.778000X1.778000X2.000000*%
%TD*%
%TA.AperFunction,SMDPad,CuDef*%
%ADD36RotRect,0.900000X1.200000X2.000000*%
%TD*%
%TA.AperFunction,ComponentPad*%
%ADD37RotRect,1.778000X1.778000X22.000000*%
%TD*%
%TA.AperFunction,SMDPad,CuDef*%
%ADD38RotRect,0.900000X1.200000X22.000000*%
%TD*%
%TA.AperFunction,ComponentPad*%
%ADD39RotRect,1.778000X1.778000X42.000000*%
%TD*%
%TA.AperFunction,SMDPad,CuDef*%
%ADD40RotRect,0.900000X1.200000X42.000000*%
%TD*%
%TA.AperFunction,ComponentPad*%
%ADD41C,1.752600*%
%TD*%
%TA.AperFunction,ComponentPad*%
%ADD42O,1.700000X1.200000*%
%TD*%
%TA.AperFunction,ComponentPad*%
%ADD43R,1.700000X1.200000*%
%TD*%
%TA.AperFunction,WasherPad*%
%ADD44C,1.000000*%
%TD*%
%TA.AperFunction,Conductor*%
%ADD45C,0.250000*%
%TD*%
G04 APERTURE END LIST*
D10*
%TO.P,S1,2*%
%TO.N,mirror_first_bottom*%
X290150720Y-161337877D03*
%TO.P,S1,1*%
%TO.N,P031*%
X279654551Y-156039490D03*
%TD*%
%TO.P,S2,2*%
%TO.N,mirror_first_home*%
X295043283Y-144275477D03*
%TO.P,S2,1*%
%TO.N,P031*%
X284547114Y-138977090D03*
%TD*%
%TO.P,S3,2*%
%TO.N,mirror_first_top*%
X299935844Y-127213084D03*
%TO.P,S3,1*%
%TO.N,P031*%
X289439675Y-121914697D03*
%TD*%
%TO.P,S4,2*%
%TO.N,mirror_second_bottom*%
X272678334Y-154247151D03*
%TO.P,S4,1*%
%TO.N,P029*%
X262182165Y-148948764D03*
%TD*%
%TO.P,S5,2*%
%TO.N,mirror_second_home*%
X277570904Y-137184756D03*
%TO.P,S5,1*%
%TO.N,P029*%
X267074735Y-131886369D03*
%TD*%
%TO.P,S6,2*%
%TO.N,mirror_second_top*%
X282463466Y-120122361D03*
%TO.P,S6,1*%
%TO.N,P029*%
X271967297Y-114823974D03*
%TD*%
D11*
%TO.P,S7,2*%
%TO.N,mirror_third_bottom*%
X255983444Y-134228420D03*
%TO.P,S7,1*%
%TO.N,P002*%
X245143246Y-129675116D03*
%TD*%
%TO.P,S8,2*%
%TO.N,mirror_third_home*%
X259673884Y-116866302D03*
%TO.P,S8,1*%
%TO.N,P002*%
X248833686Y-112312998D03*
%TD*%
%TO.P,S9,2*%
%TO.N,mirror_third_top*%
X263364318Y-99504182D03*
%TO.P,S9,1*%
%TO.N,P002*%
X252524120Y-94950878D03*
%TD*%
D12*
%TO.P,S10,2*%
%TO.N,mirror_fourth_bottom*%
X235809184Y-125054912D03*
%TO.P,S10,1*%
%TO.N,P115*%
X224677768Y-121268875D03*
%TD*%
%TO.P,S11,2*%
%TO.N,mirror_fourth_home*%
X238279506Y-107477665D03*
%TO.P,S11,1*%
%TO.N,P115*%
X227148090Y-103691628D03*
%TD*%
%TO.P,S12,2*%
%TO.N,mirror_fourth_top*%
X240749829Y-89900402D03*
%TO.P,S12,1*%
%TO.N,P115*%
X229618413Y-86114365D03*
%TD*%
D13*
%TO.P,S13,2*%
%TO.N,mirror_fifth_bottom*%
X214207412Y-128276955D03*
%TO.P,S13,1*%
%TO.N,P113*%
X202839010Y-125276628D03*
%TD*%
%TO.P,S14,2*%
%TO.N,mirror_fifth_home*%
X215445585Y-110570185D03*
%TO.P,S14,1*%
%TO.N,P113*%
X204077183Y-107569858D03*
%TD*%
%TO.P,S15,2*%
%TO.N,mirror_fifth_top*%
X216683768Y-92863426D03*
%TO.P,S15,1*%
%TO.N,P113*%
X205315366Y-89863099D03*
%TD*%
D14*
%TO.P,S16,2*%
%TO.N,mirror_sixth_bottom*%
X193243980Y-128661399D03*
%TO.P,S16,1*%
%TO.N,P104*%
X181693979Y-126461397D03*
%TD*%
%TO.P,S17,2*%
%TO.N,mirror_sixth_home*%
X193243979Y-110911388D03*
%TO.P,S17,1*%
%TO.N,P104*%
X181693978Y-108711386D03*
%TD*%
%TO.P,S18,2*%
%TO.N,mirror_sixth_top*%
X193243981Y-93161395D03*
%TO.P,S18,1*%
%TO.N,P104*%
X181693980Y-90961393D03*
%TD*%
D15*
%TO.P,S19,2*%
%TO.N,mirror_first_only*%
X246769441Y-154155307D03*
%TO.P,S19,1*%
%TO.N,P029*%
X235776937Y-149983095D03*
%TD*%
D16*
%TO.P,S20,2*%
%TO.N,mirror_second_only*%
X227520503Y-149831135D03*
%TO.P,S20,1*%
%TO.N,P002*%
X216263737Y-146435885D03*
%TD*%
D17*
%TO.P,S21,2*%
%TO.N,mirror_third_only*%
X207091985Y-147910240D03*
%TO.P,S21,1*%
%TO.N,P115*%
X195472240Y-146114668D03*
%TD*%
D18*
%TO.P,S22,2*%
%TO.N,mirror_fourth_only*%
X184074488Y-149731525D03*
%TO.P,S22,1*%
%TO.N,P113*%
X172541381Y-152018426D03*
%TD*%
D19*
%TO.P,S23,2*%
%TO.N,mirror_fifth_only*%
X163068042Y-159315425D03*
%TO.P,S23,1*%
%TO.N,P104*%
X153012631Y-165408966D03*
%TD*%
D20*
%TO.P,D1,2*%
%TO.N,mirror_first_bottom*%
X286330647Y-169345110D03*
D21*
%TO.P,D1,1*%
%TO.N,P009*%
X279005835Y-167244754D03*
D22*
X281082160Y-167840130D03*
%TO.P,D1,2*%
%TO.N,mirror_first_bottom*%
X284254322Y-168749734D03*
%TD*%
D20*
%TO.P,D2,2*%
%TO.N,mirror_first_home*%
X291223208Y-152282710D03*
D21*
%TO.P,D2,1*%
%TO.N,P010*%
X283898396Y-150182354D03*
D22*
X285974721Y-150777730D03*
%TO.P,D2,2*%
%TO.N,mirror_first_home*%
X289146883Y-151687334D03*
%TD*%
D20*
%TO.P,D3,2*%
%TO.N,mirror_first_top*%
X296115771Y-135220315D03*
D21*
%TO.P,D3,1*%
%TO.N,P111*%
X288790959Y-133119959D03*
D22*
X290867284Y-133715335D03*
%TO.P,D3,2*%
%TO.N,mirror_first_top*%
X294039446Y-134624939D03*
%TD*%
D20*
%TO.P,D4,2*%
%TO.N,mirror_second_bottom*%
X268858260Y-162254382D03*
D21*
%TO.P,D4,1*%
%TO.N,P009*%
X261533448Y-160154026D03*
D22*
X263609773Y-160749402D03*
%TO.P,D4,2*%
%TO.N,mirror_second_bottom*%
X266781935Y-161659006D03*
%TD*%
D20*
%TO.P,D5,2*%
%TO.N,mirror_second_home*%
X273750824Y-145191986D03*
D21*
%TO.P,D5,1*%
%TO.N,P010*%
X266426012Y-143091630D03*
D22*
X268502337Y-143687006D03*
%TO.P,D5,2*%
%TO.N,mirror_second_home*%
X271674499Y-144596610D03*
%TD*%
D20*
%TO.P,D6,2*%
%TO.N,mirror_second_top*%
X278643387Y-128129589D03*
D21*
%TO.P,D6,1*%
%TO.N,P111*%
X271318575Y-126029233D03*
D22*
X273394900Y-126624609D03*
%TO.P,D6,2*%
%TO.N,mirror_second_top*%
X276567062Y-127534213D03*
%TD*%
D20*
%TO.P,D7,2*%
%TO.N,mirror_third_bottom*%
X252731236Y-142482626D03*
D23*
%TO.P,D7,1*%
%TO.N,P009*%
X245277752Y-140898340D03*
D24*
X247390551Y-141347428D03*
%TO.P,D7,2*%
%TO.N,mirror_third_bottom*%
X250618437Y-142033538D03*
%TD*%
D20*
%TO.P,D8,2*%
%TO.N,mirror_third_home*%
X256421667Y-125120506D03*
D23*
%TO.P,D8,1*%
%TO.N,P010*%
X248968183Y-123536220D03*
D24*
X251080982Y-123985308D03*
%TO.P,D8,2*%
%TO.N,mirror_third_home*%
X254308868Y-124671418D03*
%TD*%
D20*
%TO.P,D9,2*%
%TO.N,mirror_third_top*%
X260112101Y-107758378D03*
D23*
%TO.P,D9,1*%
%TO.N,P111*%
X252658617Y-106174092D03*
D24*
X254771416Y-106623180D03*
%TO.P,D9,2*%
%TO.N,mirror_third_top*%
X257999302Y-107309290D03*
%TD*%
D20*
%TO.P,D10,2*%
%TO.N,mirror_fourth_bottom*%
X233140678Y-133515872D03*
D25*
%TO.P,D10,1*%
%TO.N,P009*%
X225594834Y-132455378D03*
D26*
X227733814Y-132755989D03*
%TO.P,D10,2*%
%TO.N,mirror_fourth_bottom*%
X231001698Y-133215261D03*
%TD*%
D20*
%TO.P,D11,2*%
%TO.N,mirror_fourth_home*%
X235611005Y-115938616D03*
D25*
%TO.P,D11,1*%
%TO.N,P010*%
X228065161Y-114878122D03*
D26*
X230204141Y-115178733D03*
%TO.P,D11,2*%
%TO.N,mirror_fourth_home*%
X233472025Y-115638005D03*
%TD*%
D20*
%TO.P,D12,2*%
%TO.N,mirror_fourth_top*%
X238081324Y-98361354D03*
D25*
%TO.P,D12,1*%
%TO.N,P111*%
X230535480Y-97300860D03*
D26*
X232674460Y-97601471D03*
%TO.P,D12,2*%
%TO.N,mirror_fourth_top*%
X235942344Y-98060743D03*
%TD*%
D20*
%TO.P,D13,2*%
%TO.N,mirror_fifth_bottom*%
X212135606Y-136903440D03*
D27*
%TO.P,D13,1*%
%TO.N,P009*%
X204534168Y-136371898D03*
D28*
X206688906Y-136522569D03*
%TO.P,D13,2*%
%TO.N,mirror_fifth_bottom*%
X209980868Y-136752769D03*
%TD*%
D20*
%TO.P,D14,2*%
%TO.N,mirror_fifth_home*%
X213373788Y-119196678D03*
D27*
%TO.P,D14,1*%
%TO.N,P010*%
X205772350Y-118665136D03*
D28*
X207927088Y-118815807D03*
%TO.P,D14,2*%
%TO.N,mirror_fifth_home*%
X211219050Y-119046007D03*
%TD*%
D20*
%TO.P,D15,2*%
%TO.N,mirror_fifth_top*%
X214611962Y-101489917D03*
D27*
%TO.P,D15,1*%
%TO.N,P111*%
X207010524Y-100958375D03*
D28*
X209165262Y-101109046D03*
%TO.P,D15,2*%
%TO.N,mirror_fifth_top*%
X212457224Y-101339246D03*
%TD*%
D20*
%TO.P,D16,2*%
%TO.N,mirror_sixth_bottom*%
X191778976Y-137411394D03*
D29*
%TO.P,D16,1*%
%TO.N,P009*%
X184158976Y-137411392D03*
D30*
X186318974Y-137411392D03*
%TO.P,D16,2*%
%TO.N,mirror_sixth_bottom*%
X189618978Y-137411394D03*
%TD*%
D20*
%TO.P,D17,2*%
%TO.N,mirror_sixth_home*%
X191778973Y-119661395D03*
D29*
%TO.P,D17,1*%
%TO.N,P010*%
X184158973Y-119661393D03*
D30*
X186318971Y-119661393D03*
%TO.P,D17,2*%
%TO.N,mirror_sixth_home*%
X189618975Y-119661395D03*
%TD*%
D20*
%TO.P,D18,2*%
%TO.N,mirror_sixth_top*%
X191778974Y-101911395D03*
D29*
%TO.P,D18,1*%
%TO.N,P111*%
X184158974Y-101911393D03*
D30*
X186318972Y-101911393D03*
%TO.P,D18,2*%
%TO.N,mirror_sixth_top*%
X189618976Y-101911395D03*
%TD*%
D20*
%TO.P,D19,2*%
%TO.N,mirror_first_only*%
X243807277Y-162517978D03*
D31*
%TO.P,D19,1*%
%TO.N,P106*%
X236303043Y-161194780D03*
D32*
X238430228Y-161569859D03*
%TO.P,D19,2*%
%TO.N,mirror_first_only*%
X241680092Y-162142899D03*
%TD*%
D20*
%TO.P,D20,2*%
%TO.N,mirror_second_only*%
X225148910Y-158380068D03*
D33*
%TO.P,D20,1*%
%TO.N,P106*%
X217570652Y-157583564D03*
D34*
X219718820Y-157809342D03*
%TO.P,D20,2*%
%TO.N,mirror_second_only*%
X223000742Y-158154290D03*
%TD*%
D20*
%TO.P,D21,2*%
%TO.N,mirror_third_only*%
X205933246Y-156706032D03*
D35*
%TO.P,D21,1*%
%TO.N,P106*%
X198317886Y-156971968D03*
D36*
X200476569Y-156896583D03*
%TO.P,D21,2*%
%TO.N,mirror_third_only*%
X203774563Y-156781417D03*
%TD*%
D20*
%TO.P,D22,2*%
%TO.N,mirror_fourth_only*%
X185993972Y-158393183D03*
D37*
%TO.P,D22,1*%
%TO.N,P106*%
X178928830Y-161247685D03*
D38*
X180931549Y-160438530D03*
%TO.P,D22,2*%
%TO.N,mirror_fourth_only*%
X183991253Y-159202338D03*
%TD*%
D20*
%TO.P,D23,2*%
%TO.N,mirror_fifth_only*%
X167834222Y-166798220D03*
D39*
%TO.P,D23,1*%
%TO.N,P106*%
X162171458Y-171896990D03*
D40*
X163776652Y-170451672D03*
%TO.P,D23,2*%
%TO.N,mirror_fifth_only*%
X166229028Y-168243538D03*
%TD*%
D41*
%TO.P,MCU1,33*%
%TO.N,P107*%
X160218973Y-115801399D03*
%TO.P,MCU1,32*%
%TO.N,P102*%
X157678970Y-115801397D03*
%TO.P,MCU1,31*%
%TO.N,P101*%
X155138976Y-115801399D03*
%TO.P,MCU1,24*%
%TO.N,RAW*%
X167838973Y-92941397D03*
%TO.P,MCU1,23*%
%TO.N,GND*%
X167838973Y-95481398D03*
%TO.P,MCU1,22*%
%TO.N,RST*%
X167838974Y-98021399D03*
%TO.P,MCU1,21*%
%TO.N,VCC*%
X167838973Y-100561398D03*
%TO.P,MCU1,20*%
%TO.N,P031*%
X167838973Y-103101397D03*
%TO.P,MCU1,19*%
%TO.N,P029*%
X167838973Y-105641399D03*
%TO.P,MCU1,18*%
%TO.N,P002*%
X167838975Y-108181399D03*
%TO.P,MCU1,17*%
%TO.N,P115*%
X167838973Y-110721396D03*
%TO.P,MCU1,16*%
%TO.N,P113*%
X167838974Y-113261397D03*
%TO.P,MCU1,15*%
%TO.N,P111*%
X167838974Y-115801398D03*
%TO.P,MCU1,14*%
%TO.N,P010*%
X167838974Y-118341400D03*
%TO.P,MCU1,13*%
%TO.N,P009*%
X167838975Y-120881395D03*
%TO.P,MCU1,12*%
%TO.N,P106*%
X152598975Y-120881399D03*
%TO.P,MCU1,11*%
%TO.N,P104*%
X152598975Y-118341398D03*
%TO.P,MCU1,10*%
%TO.N,P011*%
X152598974Y-115801397D03*
%TO.P,MCU1,9*%
%TO.N,P100*%
X152598975Y-113261398D03*
%TO.P,MCU1,8*%
%TO.N,P024*%
X152598975Y-110721399D03*
%TO.P,MCU1,7*%
%TO.N,P022*%
X152598975Y-108181397D03*
%TO.P,MCU1,6*%
%TO.N,P020*%
X152598973Y-105641397D03*
%TO.P,MCU1,5*%
%TO.N,P017*%
X152598975Y-103101400D03*
%TO.P,MCU1,4*%
%TO.N,GND*%
X152598974Y-100561399D03*
%TO.P,MCU1,3*%
X152598974Y-98021398D03*
%TO.P,MCU1,2*%
%TO.N,P008*%
X152598974Y-95481396D03*
%TO.P,MCU1,1*%
%TO.N,P006*%
X152598973Y-92941401D03*
%TD*%
D42*
%TO.P,JST1,2*%
%TO.N,GND*%
X146468978Y-141911395D03*
D43*
%TO.P,JST1,1*%
%TO.N,pos*%
X146468972Y-143911395D03*
%TD*%
D44*
%TO.P,T1,*%
%TO.N,*%
X146468976Y-133911395D03*
X146468974Y-130911395D03*
%TD*%
D45*
%TO.N,P029*%
X249117589Y-91394565D02*
X249248814Y-91422458D01*
X247421043Y-89143170D02*
X249117589Y-91394565D01*
X245943593Y-87033155D02*
X247421043Y-89143170D01*
X245945118Y-87024503D02*
X245943593Y-87033155D01*
%TO.N,P104*%
X160205863Y-118341397D02*
X152598974Y-118341396D01*
X172378880Y-110420385D02*
X168336567Y-114462697D01*
X164084562Y-114462696D02*
X160205863Y-118341397D01*
X172378879Y-91350359D02*
X172378880Y-110420385D01*
X174660861Y-89068379D02*
X172378879Y-91350359D01*
X181350965Y-89068379D02*
X174660861Y-89068379D01*
X168336567Y-114462697D02*
X164084562Y-114462696D01*
X181693980Y-89411395D02*
X181350965Y-89068379D01*
X181693982Y-90961393D02*
X181693980Y-89411395D01*
%TO.N,P113*%
X171928879Y-109171486D02*
X167838971Y-113261397D01*
X171928880Y-91163963D02*
X171928879Y-109171486D01*
X174474463Y-88618378D02*
X171928880Y-91163963D01*
X197711464Y-88618378D02*
X174474463Y-88618378D01*
X199024581Y-87305260D02*
X197711464Y-88618378D01*
X199654137Y-87305261D02*
X199024581Y-87305260D01*
X205436102Y-88136478D02*
X205040982Y-87681943D01*
X205315364Y-89863098D02*
X205436102Y-88136478D01*
X205040982Y-87681943D02*
X199654137Y-87305261D01*
%TO.N,P115*%
X171478879Y-107081487D02*
X167838973Y-110721396D01*
X171478879Y-90977567D02*
X171478879Y-107081487D01*
X174288068Y-88168378D02*
X171478879Y-90977567D01*
X216045577Y-88000363D02*
X201880167Y-87009821D01*
X222203086Y-84143998D02*
X217638692Y-88111765D01*
X201880167Y-87009821D02*
X199286501Y-86828454D01*
X228221116Y-83479169D02*
X224260046Y-82922479D01*
X197525068Y-88168379D02*
X174288068Y-88168378D01*
X224260046Y-82922479D02*
X223656807Y-82880295D01*
X229239299Y-83622268D02*
X228221116Y-83479169D01*
X198892541Y-86800906D02*
X197525068Y-88168379D01*
X229854009Y-84438015D02*
X229239299Y-83622268D01*
X199286501Y-86828454D02*
X198892541Y-86800906D01*
X223656807Y-82880295D02*
X222203086Y-84143998D01*
X217638692Y-88111765D02*
X216045577Y-88000363D01*
X229618413Y-86114362D02*
X229854009Y-84438015D01*
%TO.N,P002*%
X171028879Y-104991492D02*
X167838974Y-108181398D01*
X171028880Y-90791170D02*
X171028879Y-104991492D01*
X174101671Y-87718380D02*
X171028880Y-90791170D01*
X217484139Y-87649860D02*
X208894507Y-87049213D01*
X220733807Y-84824966D02*
X217484139Y-87649860D01*
X223530866Y-82393519D02*
X220733807Y-84824966D01*
X223926566Y-82421190D02*
X223530866Y-82393519D01*
X243213907Y-85614319D02*
X242807276Y-85074702D01*
X198719353Y-86337696D02*
X197338672Y-87718378D01*
X243515203Y-86014152D02*
X243213907Y-85614319D01*
X208894507Y-87049213D02*
X198719353Y-86337696D01*
X244895623Y-86983923D02*
X244169028Y-86881805D01*
X245270135Y-87036556D02*
X244895623Y-86983923D01*
X245629136Y-87512966D02*
X245270135Y-87036556D01*
X244169028Y-86881805D02*
X243515203Y-86014152D01*
X248901344Y-91808656D02*
X248862002Y-91803126D01*
X237057515Y-84266625D02*
X223926566Y-82421190D01*
X249136581Y-91858656D02*
X248901344Y-91808656D01*
X252849278Y-93421132D02*
X252266656Y-92523976D01*
X248862002Y-91803126D02*
X245629136Y-87512966D01*
X197338672Y-87718378D02*
X174101671Y-87718380D01*
X252524119Y-94950878D02*
X252849278Y-93421132D01*
X239176693Y-84564456D02*
X237057515Y-84266625D01*
X252266656Y-92523976D02*
X249136581Y-91858656D01*
X242807276Y-85074702D02*
X239176693Y-84564456D01*
%TO.N,P029*%
X170578879Y-90604775D02*
X170578880Y-102901491D01*
X173915274Y-87268379D02*
X170578879Y-90604775D01*
X196944230Y-87268380D02*
X173915274Y-87268379D01*
X198351719Y-85860889D02*
X196944230Y-87268380D01*
X217329589Y-87187952D02*
X200147333Y-85986450D01*
X219904921Y-84949251D02*
X217329589Y-87187952D01*
X242446852Y-84569624D02*
X223433706Y-81897500D01*
X243054486Y-84655020D02*
X242446852Y-84569624D01*
X170578880Y-102901491D02*
X167838971Y-105641398D01*
X244191885Y-86164401D02*
X243054486Y-84655020D01*
X244996925Y-86543736D02*
X244416236Y-86462125D01*
X200147333Y-85986450D02*
X198351719Y-85860889D01*
X245652236Y-86635836D02*
X244996925Y-86543736D01*
X245945118Y-87024503D02*
X245652236Y-86635836D01*
X223416909Y-81896326D02*
X219904921Y-84949251D01*
X244416236Y-86462125D02*
X244191885Y-86164401D01*
X223433706Y-81897500D02*
X223416909Y-81896326D01*
%TO.N,P031*%
X289985521Y-120011089D02*
X289439674Y-121914697D01*
X265982382Y-106876196D02*
X268653718Y-110989689D01*
X267455839Y-99944132D02*
X266000458Y-106791169D01*
X288071202Y-116557561D02*
X289985521Y-120011089D01*
X263604659Y-94013834D02*
X267455839Y-99944132D01*
X249519334Y-91019910D02*
X263604659Y-94013834D01*
X245899447Y-86216155D02*
X249519334Y-91019910D01*
X244663446Y-86042448D02*
X245899447Y-86216155D01*
X243301693Y-84235340D02*
X244663446Y-86042448D01*
X223298280Y-81424045D02*
X243301693Y-84235340D01*
X223276077Y-81422492D02*
X223298280Y-81424045D01*
X217175036Y-86726046D02*
X223276077Y-81422492D01*
X266000458Y-106791169D02*
X265982382Y-106876196D01*
X198183596Y-85398033D02*
X214144622Y-86514137D01*
X268653718Y-110989689D02*
X288071202Y-116557561D01*
X198149223Y-85398034D02*
X198183596Y-85398033D01*
X214144622Y-86514137D02*
X217175036Y-86726046D01*
X170128880Y-90418379D02*
X173728880Y-86818380D01*
X170128880Y-100811487D02*
X170128880Y-90418379D01*
X173728880Y-86818380D02*
X196728880Y-86818379D01*
X167838971Y-103101397D02*
X170128880Y-100811487D01*
X196728880Y-86818379D02*
X198149223Y-85398034D01*
%TO.N,P029*%
X251186438Y-91834314D02*
X249248814Y-91422461D01*
X249248814Y-91422461D02*
X249243449Y-91421321D01*
X263328775Y-94415248D02*
X251186438Y-91834314D01*
X266976919Y-100032894D02*
X265614988Y-97935707D01*
X265487521Y-107039960D02*
X266475103Y-102393756D01*
X265988176Y-107810897D02*
X265487521Y-107039960D01*
X268301990Y-111373858D02*
X265988176Y-107810897D01*
X265614988Y-97935707D02*
X263328775Y-94415248D01*
X266475103Y-102393756D02*
X266976919Y-100032894D01*
X268529679Y-111422255D02*
X268301990Y-111373858D01*
X270836709Y-112083788D02*
X268529679Y-111422255D01*
X271864959Y-112378632D02*
X270836709Y-112083788D01*
X272394532Y-113334017D02*
X271864959Y-112378632D01*
X271967298Y-114823973D02*
X272394532Y-113334017D01*
%TO.N,P106*%
X162171458Y-171896999D02*
X162171456Y-171896998D01*
X163776651Y-170451677D02*
X162171458Y-171896999D01*
%TO.N,mirror_fifth_only*%
X167834226Y-166798222D02*
X166229037Y-168243542D01*
X166229037Y-168243542D02*
X166229036Y-168243543D01*
X167942659Y-164729235D02*
X167834226Y-166798222D01*
X163068044Y-159315428D02*
X167942659Y-164729235D01*
%TO.N,P106*%
X180931551Y-160438535D02*
X178928828Y-161247681D01*
X178928828Y-161247681D02*
X178928830Y-161247686D01*
%TO.N,mirror_fourth_only*%
X183991252Y-159202324D02*
X183991252Y-159202331D01*
X185993970Y-158393185D02*
X183991252Y-159202324D01*
X186803498Y-156486059D02*
X185993970Y-158393185D01*
X184074487Y-149731527D02*
X186803498Y-156486059D01*
%TO.N,P106*%
X198317889Y-156971971D02*
X198317891Y-156971971D01*
X200476571Y-156896583D02*
X198317889Y-156971971D01*
%TO.N,mirror_third_only*%
X203774565Y-156781415D02*
X203774567Y-156781421D01*
X205933252Y-156706032D02*
X203774565Y-156781415D01*
X207091981Y-147910233D02*
X207346226Y-155190801D01*
X207346226Y-155190801D02*
X205933252Y-156706032D01*
%TO.N,P106*%
X217570650Y-157583557D02*
X217570647Y-157583560D01*
X219718814Y-157809341D02*
X217570650Y-157583557D01*
%TO.N,mirror_second_only*%
X223000745Y-158154284D02*
X223000742Y-158154287D01*
X225148908Y-158380067D02*
X223000745Y-158154284D01*
X226759014Y-157076228D02*
X225148908Y-158380067D01*
X227520501Y-149831131D02*
X226759014Y-157076228D01*
%TO.N,P106*%
X238430225Y-161569859D02*
X236303045Y-161194779D01*
%TO.N,mirror_first_only*%
X243807277Y-162517977D02*
X241680092Y-162142904D01*
X245504415Y-161329629D02*
X243807277Y-162517977D01*
X246769439Y-154155309D02*
X245504415Y-161329629D01*
%TO.N,mirror_sixth_bottom*%
X193243975Y-135946399D02*
X191778975Y-137411390D01*
X193243977Y-128661401D02*
X193243975Y-135946399D01*
%TO.N,P009*%
X184158980Y-137411395D02*
X184158980Y-137411397D01*
X186318977Y-137411390D02*
X184158980Y-137411395D01*
%TO.N,mirror_sixth_bottom*%
X189618978Y-137411393D02*
X189618977Y-137411393D01*
X191778975Y-137411390D02*
X189618978Y-137411393D01*
%TO.N,P111*%
X186318971Y-101911397D02*
X184158974Y-101911392D01*
X184158974Y-101911392D02*
X184158973Y-101911390D01*
%TO.N,mirror_sixth_top*%
X189618977Y-101911394D02*
X189618977Y-101911393D01*
X191778976Y-101911393D02*
X189618977Y-101911394D01*
%TO.N,P010*%
X184158979Y-119661391D02*
X184158976Y-119661394D01*
X186318976Y-119661391D02*
X184158979Y-119661391D01*
%TO.N,mirror_sixth_home*%
X189618982Y-119661394D02*
X189618982Y-119661395D01*
X191778980Y-119661391D02*
X189618982Y-119661394D01*
X193243978Y-118196399D02*
X191778980Y-119661391D01*
X193243976Y-110911391D02*
X193243978Y-118196399D01*
%TO.N,P104*%
X153012635Y-160601428D02*
X153012630Y-165408963D01*
X181693974Y-131920081D02*
X153012635Y-160601428D01*
X181693980Y-126461392D02*
X181693974Y-131920081D01*
X181693976Y-108711392D02*
X181693976Y-126461392D01*
X181693976Y-126461392D02*
X181693980Y-126461392D01*
X181693977Y-108711390D02*
X181693976Y-108711392D01*
X181693973Y-90961401D02*
X181693977Y-108711390D01*
%TO.N,mirror_sixth_top*%
X193243977Y-100446393D02*
X191778976Y-101911393D01*
X193243980Y-93161393D02*
X193243977Y-100446393D01*
%TO.N,P113*%
X175362528Y-145763913D02*
X172824458Y-147970211D01*
X178269764Y-145967199D02*
X175362528Y-145763913D01*
X172824458Y-147970211D02*
X172541377Y-152018431D01*
X181898656Y-142812656D02*
X178269764Y-145967199D01*
X193356342Y-143613853D02*
X181898656Y-142812656D01*
X202108366Y-136005823D02*
X193356342Y-143613853D01*
X202476387Y-130742902D02*
X202108366Y-136005823D01*
X202458224Y-130722013D02*
X202476387Y-130742902D01*
X202839012Y-125276623D02*
X202458224Y-130722013D01*
%TO.N,mirror_fifth_bottom*%
X213699240Y-135544201D02*
X212135610Y-136903445D01*
X214207409Y-128276951D02*
X213699240Y-135544201D01*
%TO.N,P009*%
X204534177Y-136371900D02*
X204534172Y-136371899D01*
X206688912Y-136522575D02*
X204534177Y-136371900D01*
%TO.N,mirror_fifth_bottom*%
X209980878Y-136752767D02*
X209980873Y-136752767D01*
X212135610Y-136903445D02*
X209980878Y-136752767D01*
%TO.N,P010*%
X205772350Y-118665135D02*
X205772347Y-118665137D01*
X207927088Y-118815804D02*
X205772350Y-118665135D01*
%TO.N,mirror_fifth_home*%
X211219053Y-119046003D02*
X211219053Y-119046005D01*
X213373789Y-119196680D02*
X211219053Y-119046003D01*
X215445581Y-110570185D02*
X214937409Y-117837437D01*
X214937409Y-117837437D02*
X213373789Y-119196680D01*
%TO.N,P113*%
X204068560Y-107693170D02*
X202839012Y-125276623D01*
X204068566Y-107693171D02*
X204068560Y-107693170D01*
X204077187Y-107569859D02*
X204068566Y-107693171D01*
X205315361Y-89863099D02*
X204077187Y-107569859D01*
%TO.N,P111*%
X207010528Y-100958373D02*
X207010524Y-100958378D01*
X209165266Y-101109045D02*
X207010528Y-100958373D01*
%TO.N,mirror_fifth_top*%
X214611964Y-101489917D02*
X212457227Y-101339243D01*
X212457227Y-101339243D02*
X212457229Y-101339245D01*
X216175586Y-100130675D02*
X214611964Y-101489917D01*
X216683770Y-92863425D02*
X216175586Y-100130675D01*
%TO.N,P115*%
X195950393Y-142712462D02*
X195472239Y-146114661D01*
X199716772Y-139874283D02*
X195950393Y-142712462D01*
X216353276Y-142212396D02*
X199716772Y-139874283D01*
X222371732Y-137677162D02*
X216353276Y-142212396D01*
X224677773Y-121268876D02*
X222371732Y-137677162D01*
X227148095Y-103691616D02*
X224677773Y-121268876D01*
X229618410Y-86114359D02*
X227148095Y-103691616D01*
%TO.N,P111*%
X232674460Y-97601476D02*
X230535478Y-97300860D01*
X230535478Y-97300860D02*
X230535479Y-97300860D01*
%TO.N,mirror_fourth_top*%
X235942342Y-98060739D02*
X235942342Y-98060742D01*
X238081321Y-98361356D02*
X235942342Y-98060739D01*
X240749834Y-89900399D02*
X239735956Y-97114506D01*
X239735956Y-97114506D02*
X238081321Y-98361356D01*
%TO.N,mirror_fourth_home*%
X237265629Y-114691756D02*
X235611002Y-115938616D01*
X238279512Y-107477655D02*
X237265629Y-114691756D01*
X235611001Y-115938617D02*
X235611002Y-115938616D01*
X233472019Y-115638001D02*
X235611001Y-115938617D01*
%TO.N,P010*%
X230204133Y-115178728D02*
X230204135Y-115178732D01*
X228065157Y-114878117D02*
X230204133Y-115178728D01*
%TO.N,mirror_fourth_bottom*%
X234795308Y-132269018D02*
X233140678Y-133515870D01*
X235809180Y-125054913D02*
X234795308Y-132269018D01*
X233140677Y-133515870D02*
X233140678Y-133515870D01*
X231001701Y-133215259D02*
X233140677Y-133515870D01*
%TO.N,P009*%
X225594838Y-132455379D02*
X227733812Y-132755986D01*
X227733812Y-132755986D02*
X227733813Y-132755986D01*
%TO.N,P002*%
X216562509Y-145030300D02*
X216263741Y-146435887D01*
X221267424Y-141974886D02*
X216562509Y-145030300D01*
X238874079Y-145717308D02*
X221267424Y-141974886D01*
X242191276Y-143563096D02*
X238874079Y-145717308D01*
X245143253Y-129675121D02*
X242191276Y-143563096D01*
X248833683Y-112312999D02*
X245143253Y-129675121D01*
X252524114Y-94950881D02*
X248833683Y-112312999D01*
%TO.N,P111*%
X254771418Y-106623187D02*
X252658620Y-106174103D01*
%TO.N,mirror_third_top*%
X260112099Y-107758390D02*
X257999303Y-107309298D01*
%TO.N,P010*%
X251080986Y-123985305D02*
X248968185Y-123536215D01*
%TO.N,mirror_third_home*%
X256421671Y-125120506D02*
X254308866Y-124671408D01*
%TO.N,P009*%
X247390548Y-141347426D02*
X245277752Y-140898338D01*
%TO.N,mirror_third_bottom*%
X252731242Y-142482629D02*
X250618441Y-142033536D01*
X254468817Y-141354231D02*
X252731242Y-142482629D01*
X255983445Y-134228427D02*
X254468817Y-141354231D01*
%TO.N,mirror_third_home*%
X259673884Y-116866302D02*
X258159242Y-123992106D01*
X258159242Y-123992106D02*
X256421671Y-125120506D01*
%TO.N,mirror_third_top*%
X261849681Y-106629992D02*
X260112099Y-107758390D01*
X263364320Y-99504186D02*
X261849681Y-106629992D01*
%TO.N,P029*%
X246009220Y-144311242D02*
X235776944Y-149983089D01*
X262182167Y-148948766D02*
X246009220Y-144311242D01*
X267074731Y-131886367D02*
X262182167Y-148948766D01*
X271967297Y-114823977D02*
X267074731Y-131886367D01*
%TO.N,P031*%
X284547115Y-138977093D02*
X279654553Y-156039485D01*
X289439675Y-121914699D02*
X284547115Y-138977093D01*
%TO.N,P009*%
X281082158Y-167840125D02*
X279005829Y-167244754D01*
%TO.N,mirror_first_bottom*%
X286330649Y-169345106D02*
X284254323Y-168749731D01*
X288142705Y-168340667D02*
X286330649Y-169345106D01*
X290150724Y-161337874D02*
X288142705Y-168340667D01*
%TO.N,P010*%
X285974723Y-150777730D02*
X283898397Y-150182354D01*
%TO.N,mirror_first_home*%
X291223211Y-152282706D02*
X289146887Y-151687331D01*
X293035271Y-151278266D02*
X291223211Y-152282706D01*
X295043283Y-144275477D02*
X293035271Y-151278266D01*
%TO.N,P111*%
X290867286Y-133715336D02*
X288790960Y-133119960D01*
%TO.N,mirror_first_top*%
X296115775Y-135220318D02*
X294039452Y-134624942D01*
X297927830Y-134215869D02*
X296115775Y-135220318D01*
X299935848Y-127213079D02*
X297927830Y-134215869D01*
%TO.N,P111*%
X273394902Y-126624615D02*
X271318574Y-126029228D01*
%TO.N,mirror_second_top*%
X278643395Y-128129589D02*
X276567067Y-127534216D01*
X280455448Y-127125153D02*
X278643395Y-128129589D01*
X282463464Y-120122360D02*
X280455448Y-127125153D01*
%TO.N,P010*%
X268502338Y-143687007D02*
X266426012Y-143091629D01*
%TO.N,mirror_second_home*%
X273750828Y-145191984D02*
X271674502Y-144596608D01*
X275562886Y-144187552D02*
X273750828Y-145191984D01*
X277570903Y-137184754D02*
X275562886Y-144187552D01*
%TO.N,mirror_second_bottom*%
X270670324Y-161249943D02*
X268858266Y-162254382D01*
X272678342Y-154247152D02*
X270670324Y-161249943D01*
X266781940Y-161659004D02*
X268858266Y-162254382D01*
%TO.N,P009*%
X261533453Y-160154028D02*
X263609779Y-160749403D01*
%TD*%
M02*
