M48
; DRILL file {KiCad 8.0.4} date 2024-08-02T13:19:52+0100
; FORMAT={-:-/ absolute / inch / decimal}
; #@! TF.CreationDate,2024-08-02T13:19:52+01:00
; #@! TF.GenerationSoftware,Kicad,Pcbnew,8.0.4
; #@! TF.FileFunction,Plated,1,2,PTH
FMAT,2
INCH
; #@! TA.AperFunction,Plated,PTH,ComponentDrill
T1C0.0295
; #@! TA.AperFunction,Plated,PTH,ComponentDrill
T2C0.0390
; #@! TA.AperFunction,Plated,PTH,ComponentDrill
T3C0.0430
%
G90
G05
T1
X5.7665Y-5.6658
X5.7665Y-5.5871
T2
X6.3847Y-6.7676
X6.6076Y-6.5669
X7.0444Y-6.3483
X7.2504Y-4.7111
X7.2504Y-4.0123
X7.2504Y-5.4099
X7.3226Y-6.236
X7.5504Y-4.7111
X7.5504Y-4.0123
X7.5504Y-5.4099
X7.8078Y-6.18
X8.0525Y-5.369
X8.1013Y-4.6719
X8.1076Y-6.1695
X8.15Y-3.9747
X8.3518Y-5.3899
X8.4005Y-4.6928
X8.4493Y-3.9957
X8.5658Y-6.2041
X8.8641Y-6.2354
X8.8817Y-5.2148
X8.9789Y-4.5228
X9.0762Y-3.8307
X9.1788Y-5.2565
X9.276Y-4.5645
X9.3033Y-6.3463
X9.3733Y-3.8725
X9.5987Y-6.3983
X9.6566Y-5.5472
X9.8019Y-4.8636
X9.9472Y-4.1801
X9.95Y-5.6096
X10.0953Y-4.926
X10.2406Y-4.2425
X10.2966Y-6.3053
X10.4892Y-5.6335
X10.585Y-6.388
X10.6818Y-4.9618
X10.7776Y-5.7162
X10.9702Y-5.0445
X10.9845Y-6.5844
X11.1771Y-5.9127
X11.2729Y-6.6671
X11.3697Y-5.2409
X11.4655Y-5.9954
X11.6581Y-5.3236
T3
X6.0078Y-3.6591
X6.0078Y-4.1591
X6.0078Y-3.7591
X6.0078Y-3.8591
X6.0078Y-3.9591
X6.0078Y-4.5591
X6.0078Y-4.0591
X6.0078Y-4.2591
X6.0078Y-4.3591
X6.0078Y-4.4591
X6.0078Y-4.6591
X6.0078Y-4.7591
X6.1078Y-4.5591
X6.2078Y-4.5591
X6.3078Y-4.5591
X6.6078Y-3.6591
X6.6078Y-3.7591
X6.6078Y-3.9591
X6.6078Y-4.0591
X6.6078Y-4.1591
X6.6078Y-4.3591
X6.6078Y-3.8591
X6.6078Y-4.4591
X6.6078Y-4.5591
X6.6078Y-4.6591
X6.6078Y-4.2591
X6.6078Y-4.7591
M30
