%TF.GenerationSoftware,KiCad,Pcbnew,8.0.4*%
%TF.CreationDate,2024-08-02T13:19:55+01:00*%
%TF.ProjectId,right,72696768-742e-46b6-9963-61645f706362,v1.0.0*%
%TF.SameCoordinates,Original*%
%TF.FileFunction,Soldermask,Bot*%
%TF.FilePolarity,Negative*%
%FSLAX46Y46*%
G04 Gerber Fmt 4.6, Leading zero omitted, Abs format (unit mm)*
G04 Created by KiCad (PCBNEW 8.0.4) date 2024-08-02 13:19:55*
%MOMM*%
%LPD*%
G01*
G04 APERTURE LIST*
G04 Aperture macros list*
%AMRoundRect*
0 Rectangle with rounded corners*
0 $1 Rounding radius*
0 $2 $3 $4 $5 $6 $7 $8 $9 X,Y pos of 4 corners*
0 Add a 4 corners polygon primitive as box body*
4,1,4,$2,$3,$4,$5,$6,$7,$8,$9,$2,$3,0*
0 Add four circle primitives for the rounded corners*
1,1,$1+$1,$2,$3*
1,1,$1+$1,$4,$5*
1,1,$1+$1,$6,$7*
1,1,$1+$1,$8,$9*
0 Add four rect primitives between the rounded corners*
20,1,$1+$1,$2,$3,$4,$5,0*
20,1,$1+$1,$4,$5,$6,$7,0*
20,1,$1+$1,$6,$7,$8,$9,0*
20,1,$1+$1,$8,$9,$2,$3,0*%
G04 Aperture macros list end*
%ADD10RoundRect,0.050000X-1.607969X-0.891312X0.891312X-1.607969X1.607969X0.891312X-0.891312X1.607969X0*%
%ADD11C,3.100000*%
%ADD12C,1.801800*%
%ADD13C,3.529000*%
%ADD14RoundRect,0.050000X-1.541877X-1.001307X1.001307X-1.541877X1.541877X1.001307X-1.001307X1.541877X0*%
%ADD15RoundRect,0.050000X-1.468274X-1.106423X1.106423X-1.468274X1.468274X1.106423X-1.106423X1.468274X0*%
%ADD16RoundRect,0.050000X-1.387517X-1.206150X1.206150X-1.387517X1.387517X1.206150X-1.206150X1.387517X0*%
%ADD17RoundRect,0.050000X-1.300000X-1.300000X1.300000X-1.300000X1.300000X1.300000X-1.300000X1.300000X0*%
%ADD18RoundRect,0.050000X-1.505993X-1.054507X1.054507X-1.505993X1.505993X1.054507X-1.054507X1.505993X0*%
%ADD19RoundRect,0.050000X-1.428765X-1.156991X1.156991X-1.428765X1.428765X1.156991X-1.156991X1.428765X0*%
%ADD20RoundRect,0.050000X-1.253839X-1.344577X1.344577X-1.253839X1.253839X1.344577X-1.344577X1.253839X0*%
%ADD21RoundRect,0.050000X-0.718350X-1.692328X1.692328X-0.718350X0.718350X1.692328X-1.692328X0.718350X0*%
%ADD22RoundRect,0.050000X-0.096218X-1.835958X1.835958X-0.096218X0.096218X1.835958X-1.835958X0.096218X0*%
%ADD23C,2.005000*%
%ADD24RoundRect,0.050000X-1.099603X-0.609520X0.609520X-1.099603X1.099603X0.609520X-0.609520X1.099603X0*%
%ADD25RoundRect,0.050000X-0.597950X-0.452720X0.267185X-0.700794X0.597950X0.452720X-0.267185X0.700794X0*%
%ADD26RoundRect,0.050000X-1.054407X-0.684740X0.684740X-1.054407X1.054407X0.684740X-0.684740X1.054407X0*%
%ADD27RoundRect,0.050000X-0.564913X-0.493328X0.315419X-0.680449X0.564913X0.493328X-0.315419X0.680449X0*%
%ADD28RoundRect,0.050000X-1.004073X-0.756623X0.756623X-1.004073X1.004073X0.756623X-0.756623X1.004073X0*%
%ADD29RoundRect,0.050000X-0.529124X-0.531533X0.362117X-0.656789X0.529124X0.531533X-0.362117X0.656789X0*%
%ADD30RoundRect,0.050000X-0.948848X-0.824821X0.824821X-0.948848X0.948848X0.824821X-0.824821X0.948848X0*%
%ADD31RoundRect,0.050000X-0.490758X-0.567148X0.407050X-0.629929X0.490758X0.567148X-0.407050X0.629929X0*%
%ADD32RoundRect,0.050000X-0.889000X-0.889000X0.889000X-0.889000X0.889000X0.889000X-0.889000X0.889000X0*%
%ADD33RoundRect,0.050000X-0.450000X-0.600000X0.450000X-0.600000X0.450000X0.600000X-0.450000X0.600000X0*%
%ADD34RoundRect,0.050000X-1.029867X-0.721121X0.721121X-1.029867X1.029867X0.721121X-0.721121X1.029867X0*%
%ADD35RoundRect,0.050000X-0.547352X-0.512743X0.338975X-0.669026X0.547352X0.512743X-0.338975X0.669026X0*%
%ADD36RoundRect,0.050000X-0.977056X-0.791204X0.791204X-0.977056X0.977056X0.791204X-0.791204X0.977056X0*%
%ADD37RoundRect,0.050000X-0.510252X-0.549675X0.384818X-0.643751X0.510252X0.549675X-0.384818X0.643751X0*%
%ADD38RoundRect,0.050000X-0.857433X-0.919484X0.919484X-0.857433X0.857433X0.919484X-0.919484X0.857433X0*%
%ADD39RoundRect,0.050000X-0.428786X-0.615339X0.470666X-0.583930X0.428786X0.615339X-0.470666X0.583930X0*%
%ADD40RoundRect,0.050000X-0.491241X-1.157292X1.157292X-0.491241X0.491241X1.157292X-1.157292X0.491241X0*%
%ADD41RoundRect,0.050000X-0.192469X-0.724883X0.641997X-0.387737X0.192469X0.724883X-0.641997X0.387737X0*%
%ADD42RoundRect,0.050000X-0.065799X-1.255513X1.255513X-0.065799X0.065799X1.255513X-1.255513X0.065799X0*%
%ADD43RoundRect,0.050000X0.067063X-0.746996X0.735894X-0.144778X-0.067063X0.746996X-0.735894X0.144778X0*%
%ADD44C,1.852600*%
%ADD45O,1.800000X1.300000*%
%ADD46RoundRect,0.050000X0.850000X-0.600000X0.850000X0.600000X-0.850000X0.600000X-0.850000X-0.600000X0*%
%ADD47C,1.100000*%
G04 APERTURE END LIST*
D10*
%TO.C,S1*%
X290150720Y-161337877D03*
X279654551Y-156039490D03*
D11*
X282802684Y-156942204D03*
X287002589Y-160435165D03*
D12*
X275875700Y-161145706D03*
X286449582Y-164177714D03*
D13*
X281162641Y-162661710D03*
%TD*%
D10*
%TO.C,S2*%
X295043283Y-144275477D03*
X284547114Y-138977090D03*
D11*
X287695247Y-139879804D03*
X291895152Y-143372765D03*
D12*
X280768263Y-144083306D03*
X291342145Y-147115314D03*
D13*
X286055204Y-145599310D03*
%TD*%
D10*
%TO.C,S3*%
X299935844Y-127213084D03*
X289439675Y-121914697D03*
D11*
X292587808Y-122817411D03*
X296787713Y-126310372D03*
D12*
X285660824Y-127020913D03*
X296234706Y-130052921D03*
D13*
X290947765Y-128536917D03*
%TD*%
D10*
%TO.C,S4*%
X272678334Y-154247151D03*
X262182165Y-148948764D03*
D11*
X265330298Y-149851478D03*
X269530203Y-153344439D03*
D12*
X258403314Y-154054980D03*
X268977196Y-157086988D03*
D13*
X263690255Y-155570984D03*
%TD*%
D10*
%TO.C,S5*%
X277570904Y-137184756D03*
X267074735Y-131886369D03*
D11*
X270222868Y-132789083D03*
X274422773Y-136282044D03*
D12*
X263295884Y-136992585D03*
X273869766Y-140024593D03*
D13*
X268582825Y-138508589D03*
%TD*%
D10*
%TO.C,S6*%
X282463466Y-120122361D03*
X271967297Y-114823974D03*
D11*
X275115430Y-115726688D03*
X279315335Y-119219649D03*
D12*
X268188446Y-119930190D03*
X278762328Y-122962198D03*
D13*
X273475387Y-121446194D03*
%TD*%
D14*
%TO.C,S7*%
X255983444Y-134228420D03*
X245143246Y-129675116D03*
D11*
X248346680Y-130356027D03*
X252780010Y-133547509D03*
D12*
X241729794Y-135032494D03*
X252489416Y-137319516D03*
D13*
X247109605Y-136176005D03*
%TD*%
D14*
%TO.C,S8*%
X259673884Y-116866302D03*
X248833686Y-112312998D03*
D11*
X252037120Y-112993909D03*
X256470450Y-116185391D03*
D12*
X245420234Y-117670376D03*
X256179856Y-119957398D03*
D13*
X250800045Y-118813887D03*
%TD*%
D14*
%TO.C,S9*%
X263364318Y-99504182D03*
X252524120Y-94950878D03*
D11*
X255727554Y-95631789D03*
X260160884Y-98823271D03*
D12*
X249110668Y-100308256D03*
X259870290Y-102595278D03*
D13*
X254490479Y-101451767D03*
%TD*%
D15*
%TO.C,S10*%
X235809184Y-125054912D03*
X224677768Y-121268875D03*
D11*
X227920897Y-121724665D03*
X232566057Y-124599116D03*
D12*
X221646343Y-126851311D03*
X232539291Y-128382209D03*
D13*
X227092817Y-127616760D03*
%TD*%
D15*
%TO.C,S11*%
X238279506Y-107477665D03*
X227148090Y-103691628D03*
D11*
X230391219Y-104147418D03*
X235036379Y-107021869D03*
D12*
X224116665Y-109274064D03*
X235009613Y-110804962D03*
D13*
X229563139Y-110039513D03*
%TD*%
D15*
%TO.C,S12*%
X240749829Y-89900402D03*
X229618413Y-86114365D03*
D11*
X232861542Y-86570155D03*
X237506702Y-89444606D03*
D12*
X226586988Y-91696801D03*
X237479936Y-93227699D03*
D13*
X232033462Y-92462250D03*
%TD*%
D16*
%TO.C,S13*%
X214207412Y-128276955D03*
X202839010Y-125276628D03*
D11*
X206106033Y-125505079D03*
X210940391Y-128048501D03*
D12*
X200204379Y-131056925D03*
X211177585Y-131824245D03*
D13*
X205690982Y-131440585D03*
%TD*%
D16*
%TO.C,S14*%
X215445585Y-110570185D03*
X204077183Y-107569858D03*
D11*
X207344206Y-107798309D03*
X212178564Y-110341731D03*
D12*
X201442552Y-113350155D03*
X212415758Y-114117475D03*
D13*
X206929155Y-113733815D03*
%TD*%
D16*
%TO.C,S15*%
X216683768Y-92863426D03*
X205315366Y-89863099D03*
D11*
X208582389Y-90091550D03*
X213416747Y-92634972D03*
D12*
X202680735Y-95643396D03*
X213653941Y-96410716D03*
D13*
X208167338Y-96027056D03*
%TD*%
D17*
%TO.C,S16*%
X193243980Y-128661399D03*
X181693979Y-126461397D03*
D11*
X184968981Y-126461398D03*
X189968981Y-128661397D03*
D12*
X179468980Y-132411400D03*
X190468978Y-132411396D03*
D13*
X184968979Y-132411398D03*
%TD*%
D17*
%TO.C,S17*%
X193243979Y-110911388D03*
X181693978Y-108711386D03*
D11*
X184968980Y-108711387D03*
X189968980Y-110911386D03*
D12*
X179468979Y-114661389D03*
X190468977Y-114661385D03*
D13*
X184968978Y-114661387D03*
%TD*%
D17*
%TO.C,S18*%
X193243981Y-93161395D03*
X181693980Y-90961393D03*
D11*
X184968982Y-90961394D03*
X189968982Y-93161393D03*
D12*
X179468981Y-96911396D03*
X190468979Y-96911392D03*
D13*
X184968980Y-96911394D03*
%TD*%
D18*
%TO.C,S19*%
X246769441Y-154155307D03*
X235776937Y-149983095D03*
D11*
X239002184Y-150551792D03*
X243544197Y-153586608D03*
D12*
X232552535Y-155456336D03*
X243385419Y-157366460D03*
D13*
X237968977Y-156411398D03*
%TD*%
D19*
%TO.C,S20*%
X227520503Y-149831135D03*
X216263737Y-146435885D03*
D11*
X219520797Y-146778214D03*
X224263446Y-149488803D03*
D12*
X213428981Y-152120714D03*
X224368725Y-153270524D03*
D13*
X218898853Y-152695619D03*
%TD*%
D20*
%TO.C,S21*%
X207091985Y-147910240D03*
X195472240Y-146114668D03*
D11*
X198745247Y-146000374D03*
X203818979Y-148024533D03*
D12*
X193456249Y-152138699D03*
X204449545Y-151754799D03*
D13*
X198952897Y-151946749D03*
%TD*%
D21*
%TO.C,S22*%
X184074488Y-149731525D03*
X172541381Y-152018426D03*
D11*
X175577908Y-150791591D03*
X181037961Y-150958361D03*
D12*
X172707306Y-158368672D03*
X182906330Y-154247996D03*
D13*
X177806818Y-156308334D03*
%TD*%
D22*
%TO.C,S23*%
X163068042Y-159315425D03*
X153012631Y-165408966D03*
D11*
X155446431Y-163217564D03*
X160634243Y-161506829D03*
D12*
X155340458Y-171319493D03*
X163515058Y-163959057D03*
D13*
X159427758Y-167639275D03*
%TD*%
D23*
%TO.C,D1*%
X286330647Y-169345110D03*
D24*
X279005835Y-167244754D03*
D25*
X281082160Y-167840130D03*
X284254322Y-168749734D03*
%TD*%
D23*
%TO.C,D2*%
X291223208Y-152282710D03*
D24*
X283898396Y-150182354D03*
D25*
X285974721Y-150777730D03*
X289146883Y-151687334D03*
%TD*%
D23*
%TO.C,D3*%
X296115771Y-135220315D03*
D24*
X288790959Y-133119959D03*
D25*
X290867284Y-133715335D03*
X294039446Y-134624939D03*
%TD*%
D23*
%TO.C,D4*%
X268858260Y-162254382D03*
D24*
X261533448Y-160154026D03*
D25*
X263609773Y-160749402D03*
X266781935Y-161659006D03*
%TD*%
D23*
%TO.C,D5*%
X273750824Y-145191986D03*
D24*
X266426012Y-143091630D03*
D25*
X268502337Y-143687006D03*
X271674499Y-144596610D03*
%TD*%
D23*
%TO.C,D6*%
X278643387Y-128129589D03*
D24*
X271318575Y-126029233D03*
D25*
X273394900Y-126624609D03*
X276567062Y-127534213D03*
%TD*%
D23*
%TO.C,D7*%
X252731236Y-142482626D03*
D26*
X245277752Y-140898340D03*
D27*
X247390551Y-141347428D03*
X250618437Y-142033538D03*
%TD*%
D23*
%TO.C,D8*%
X256421667Y-125120506D03*
D26*
X248968183Y-123536220D03*
D27*
X251080982Y-123985308D03*
X254308868Y-124671418D03*
%TD*%
D23*
%TO.C,D9*%
X260112101Y-107758378D03*
D26*
X252658617Y-106174092D03*
D27*
X254771416Y-106623180D03*
X257999302Y-107309290D03*
%TD*%
D23*
%TO.C,D10*%
X233140678Y-133515872D03*
D28*
X225594834Y-132455378D03*
D29*
X227733814Y-132755989D03*
X231001698Y-133215261D03*
%TD*%
D23*
%TO.C,D11*%
X235611005Y-115938616D03*
D28*
X228065161Y-114878122D03*
D29*
X230204141Y-115178733D03*
X233472025Y-115638005D03*
%TD*%
D23*
%TO.C,D12*%
X238081324Y-98361354D03*
D28*
X230535480Y-97300860D03*
D29*
X232674460Y-97601471D03*
X235942344Y-98060743D03*
%TD*%
D23*
%TO.C,D13*%
X212135606Y-136903440D03*
D30*
X204534168Y-136371898D03*
D31*
X206688906Y-136522569D03*
X209980868Y-136752769D03*
%TD*%
D23*
%TO.C,D14*%
X213373788Y-119196678D03*
D30*
X205772350Y-118665136D03*
D31*
X207927088Y-118815807D03*
X211219050Y-119046007D03*
%TD*%
D23*
%TO.C,D15*%
X214611962Y-101489917D03*
D30*
X207010524Y-100958375D03*
D31*
X209165262Y-101109046D03*
X212457224Y-101339246D03*
%TD*%
D23*
%TO.C,D16*%
X191778976Y-137411394D03*
D32*
X184158976Y-137411392D03*
D33*
X186318974Y-137411392D03*
X189618978Y-137411394D03*
%TD*%
D23*
%TO.C,D17*%
X191778973Y-119661395D03*
D32*
X184158973Y-119661393D03*
D33*
X186318971Y-119661393D03*
X189618975Y-119661395D03*
%TD*%
D23*
%TO.C,D18*%
X191778974Y-101911395D03*
D32*
X184158974Y-101911393D03*
D33*
X186318972Y-101911393D03*
X189618976Y-101911395D03*
%TD*%
D23*
%TO.C,D19*%
X243807277Y-162517978D03*
D34*
X236303043Y-161194780D03*
D35*
X238430228Y-161569859D03*
X241680092Y-162142899D03*
%TD*%
D23*
%TO.C,D20*%
X225148910Y-158380068D03*
D36*
X217570652Y-157583564D03*
D37*
X219718820Y-157809342D03*
X223000742Y-158154290D03*
%TD*%
D23*
%TO.C,D21*%
X205933246Y-156706032D03*
D38*
X198317886Y-156971968D03*
D39*
X200476569Y-156896583D03*
X203774563Y-156781417D03*
%TD*%
D23*
%TO.C,D22*%
X185993972Y-158393183D03*
D40*
X178928830Y-161247685D03*
D41*
X180931549Y-160438530D03*
X183991253Y-159202338D03*
%TD*%
D23*
%TO.C,D23*%
X167834222Y-166798220D03*
D42*
X162171458Y-171896990D03*
D43*
X163776652Y-170451672D03*
X166229028Y-168243538D03*
%TD*%
D44*
%TO.C,MCU1*%
X160218973Y-115801399D03*
X157678970Y-115801397D03*
X155138976Y-115801399D03*
X167838973Y-92941397D03*
X167838973Y-95481398D03*
X167838974Y-98021399D03*
X167838973Y-100561398D03*
X167838973Y-103101397D03*
X167838973Y-105641399D03*
X167838975Y-108181399D03*
X167838973Y-110721396D03*
X167838974Y-113261397D03*
X167838974Y-115801398D03*
X167838974Y-118341400D03*
X167838975Y-120881395D03*
X152598975Y-120881399D03*
X152598975Y-118341398D03*
X152598974Y-115801397D03*
X152598975Y-113261398D03*
X152598975Y-110721399D03*
X152598975Y-108181397D03*
X152598973Y-105641397D03*
X152598975Y-103101400D03*
X152598974Y-100561399D03*
X152598974Y-98021398D03*
X152598974Y-95481396D03*
X152598973Y-92941401D03*
%TD*%
D45*
%TO.C,JST1*%
X146468978Y-141911395D03*
D46*
X146468972Y-143911395D03*
%TD*%
D47*
%TO.C,T1*%
X146468976Y-133911395D03*
X146468974Y-130911395D03*
%TD*%
M02*
