%TF.GenerationSoftware,KiCad,Pcbnew,8.0.4*%
%TF.CreationDate,2024-08-02T13:19:55+01:00*%
%TF.ProjectId,right,72696768-742e-46b6-9963-61645f706362,v1.0.0*%
%TF.SameCoordinates,Original*%
%TF.FileFunction,Paste,Top*%
%TF.FilePolarity,Positive*%
%FSLAX46Y46*%
G04 Gerber Fmt 4.6, Leading zero omitted, Abs format (unit mm)*
G04 Created by KiCad (PCBNEW 8.0.4) date 2024-08-02 13:19:55*
%MOMM*%
%LPD*%
G01*
G04 APERTURE LIST*
G04 Aperture macros list*
%AMRotRect*
0 Rectangle, with rotation*
0 The origin of the aperture is its center*
0 $1 length*
0 $2 width*
0 $3 Rotation angle, in degrees counterclockwise*
0 Add horizontal line*
21,1,$1,$2,0,0,$3*%
G04 Aperture macros list end*
%ADD10RotRect,0.900000X1.200000X344.000000*%
%ADD11RotRect,0.900000X1.200000X348.000000*%
%ADD12RotRect,0.900000X1.200000X352.000000*%
%ADD13RotRect,0.900000X1.200000X356.000000*%
%ADD14R,0.900000X1.200000*%
%ADD15RotRect,0.900000X1.200000X350.000000*%
%ADD16RotRect,0.900000X1.200000X354.000000*%
%ADD17RotRect,0.900000X1.200000X2.000000*%
%ADD18RotRect,0.900000X1.200000X22.000000*%
%ADD19RotRect,0.900000X1.200000X42.000000*%
%ADD20R,1.100000X1.800000*%
%ADD21R,0.900000X0.900000*%
%ADD22R,1.250000X0.900000*%
G04 APERTURE END LIST*
D10*
%TO.C,D1*%
X284254322Y-168749734D03*
X281082160Y-167840130D03*
%TD*%
%TO.C,D2*%
X289146883Y-151687334D03*
X285974721Y-150777730D03*
%TD*%
%TO.C,D3*%
X294039446Y-134624939D03*
X290867284Y-133715335D03*
%TD*%
%TO.C,D4*%
X266781935Y-161659006D03*
X263609773Y-160749402D03*
%TD*%
%TO.C,D5*%
X271674499Y-144596610D03*
X268502337Y-143687006D03*
%TD*%
%TO.C,D6*%
X276567062Y-127534213D03*
X273394900Y-126624609D03*
%TD*%
D11*
%TO.C,D7*%
X250618437Y-142033538D03*
X247390551Y-141347428D03*
%TD*%
%TO.C,D8*%
X254308868Y-124671418D03*
X251080982Y-123985308D03*
%TD*%
%TO.C,D9*%
X257999302Y-107309290D03*
X254771416Y-106623180D03*
%TD*%
D12*
%TO.C,D10*%
X231001698Y-133215261D03*
X227733814Y-132755989D03*
%TD*%
%TO.C,D11*%
X233472025Y-115638005D03*
X230204141Y-115178733D03*
%TD*%
%TO.C,D12*%
X235942344Y-98060743D03*
X232674460Y-97601471D03*
%TD*%
D13*
%TO.C,D13*%
X209980868Y-136752769D03*
X206688906Y-136522569D03*
%TD*%
%TO.C,D14*%
X211219050Y-119046007D03*
X207927088Y-118815807D03*
%TD*%
%TO.C,D15*%
X212457224Y-101339246D03*
X209165262Y-101109046D03*
%TD*%
D14*
%TO.C,D16*%
X189618978Y-137411394D03*
X186318974Y-137411392D03*
%TD*%
%TO.C,D17*%
X189618975Y-119661395D03*
X186318971Y-119661393D03*
%TD*%
%TO.C,D18*%
X189618976Y-101911395D03*
X186318972Y-101911393D03*
%TD*%
D15*
%TO.C,D19*%
X241680092Y-162142899D03*
X238430228Y-161569859D03*
%TD*%
D16*
%TO.C,D20*%
X223000742Y-158154290D03*
X219718820Y-157809342D03*
%TD*%
D17*
%TO.C,D21*%
X203774563Y-156781417D03*
X200476569Y-156896583D03*
%TD*%
D18*
%TO.C,D22*%
X183991253Y-159202338D03*
X180931549Y-160438530D03*
%TD*%
D19*
%TO.C,D23*%
X166229028Y-168243538D03*
X163776652Y-170451672D03*
%TD*%
D20*
%TO.C,B1*%
X164818981Y-129311396D03*
X164818982Y-135511392D03*
X161118982Y-129311400D03*
X161118983Y-135511396D03*
%TD*%
D21*
%TO.C,T1*%
X145368975Y-136111395D03*
X147568975Y-136111393D03*
X147568975Y-128711395D03*
X145368975Y-128711397D03*
D22*
X148543971Y-134661394D03*
X148543974Y-133161394D03*
X148543975Y-130161395D03*
%TD*%
M02*
