%TF.GenerationSoftware,KiCad,Pcbnew,8.0.4*%
%TF.CreationDate,2024-08-02T13:19:55+01:00*%
%TF.ProjectId,right,72696768-742e-46b6-9963-61645f706362,v1.0.0*%
%TF.SameCoordinates,Original*%
%TF.FileFunction,Paste,Bot*%
%TF.FilePolarity,Positive*%
%FSLAX46Y46*%
G04 Gerber Fmt 4.6, Leading zero omitted, Abs format (unit mm)*
G04 Created by KiCad (PCBNEW 8.0.4) date 2024-08-02 13:19:55*
%MOMM*%
%LPD*%
G01*
G04 APERTURE LIST*
G04 Aperture macros list*
%AMRotRect*
0 Rectangle, with rotation*
0 The origin of the aperture is its center*
0 $1 length*
0 $2 width*
0 $3 Rotation angle, in degrees counterclockwise*
0 Add horizontal line*
21,1,$1,$2,0,0,$3*%
G04 Aperture macros list end*
%ADD10RotRect,2.600000X2.600000X344.000000*%
%ADD11RotRect,2.600000X2.600000X348.000000*%
%ADD12RotRect,2.600000X2.600000X352.000000*%
%ADD13RotRect,2.600000X2.600000X356.000000*%
%ADD14R,2.600000X2.600000*%
%ADD15RotRect,2.600000X2.600000X350.000000*%
%ADD16RotRect,2.600000X2.600000X354.000000*%
%ADD17RotRect,2.600000X2.600000X2.000000*%
%ADD18RotRect,2.600000X2.600000X22.000000*%
%ADD19RotRect,2.600000X2.600000X42.000000*%
%ADD20RotRect,0.900000X1.200000X344.000000*%
%ADD21RotRect,0.900000X1.200000X348.000000*%
%ADD22RotRect,0.900000X1.200000X352.000000*%
%ADD23RotRect,0.900000X1.200000X356.000000*%
%ADD24R,0.900000X1.200000*%
%ADD25RotRect,0.900000X1.200000X350.000000*%
%ADD26RotRect,0.900000X1.200000X354.000000*%
%ADD27RotRect,0.900000X1.200000X2.000000*%
%ADD28RotRect,0.900000X1.200000X22.000000*%
%ADD29RotRect,0.900000X1.200000X42.000000*%
G04 APERTURE END LIST*
D10*
%TO.C,S1*%
X290150720Y-161337877D03*
X279654551Y-156039490D03*
%TD*%
%TO.C,S2*%
X295043283Y-144275477D03*
X284547114Y-138977090D03*
%TD*%
%TO.C,S3*%
X299935844Y-127213084D03*
X289439675Y-121914697D03*
%TD*%
%TO.C,S4*%
X272678334Y-154247151D03*
X262182165Y-148948764D03*
%TD*%
%TO.C,S5*%
X277570904Y-137184756D03*
X267074735Y-131886369D03*
%TD*%
%TO.C,S6*%
X282463466Y-120122361D03*
X271967297Y-114823974D03*
%TD*%
D11*
%TO.C,S7*%
X255983444Y-134228420D03*
X245143246Y-129675116D03*
%TD*%
%TO.C,S8*%
X259673884Y-116866302D03*
X248833686Y-112312998D03*
%TD*%
%TO.C,S9*%
X263364318Y-99504182D03*
X252524120Y-94950878D03*
%TD*%
D12*
%TO.C,S10*%
X235809184Y-125054912D03*
X224677768Y-121268875D03*
%TD*%
%TO.C,S11*%
X238279506Y-107477665D03*
X227148090Y-103691628D03*
%TD*%
%TO.C,S12*%
X240749829Y-89900402D03*
X229618413Y-86114365D03*
%TD*%
D13*
%TO.C,S13*%
X214207412Y-128276955D03*
X202839010Y-125276628D03*
%TD*%
%TO.C,S14*%
X215445585Y-110570185D03*
X204077183Y-107569858D03*
%TD*%
%TO.C,S15*%
X216683768Y-92863426D03*
X205315366Y-89863099D03*
%TD*%
D14*
%TO.C,S16*%
X193243980Y-128661399D03*
X181693979Y-126461397D03*
%TD*%
%TO.C,S17*%
X193243979Y-110911388D03*
X181693978Y-108711386D03*
%TD*%
%TO.C,S18*%
X193243981Y-93161395D03*
X181693980Y-90961393D03*
%TD*%
D15*
%TO.C,S19*%
X246769441Y-154155307D03*
X235776937Y-149983095D03*
%TD*%
D16*
%TO.C,S20*%
X227520503Y-149831135D03*
X216263737Y-146435885D03*
%TD*%
D17*
%TO.C,S21*%
X207091985Y-147910240D03*
X195472240Y-146114668D03*
%TD*%
D18*
%TO.C,S22*%
X184074488Y-149731525D03*
X172541381Y-152018426D03*
%TD*%
D19*
%TO.C,S23*%
X163068042Y-159315425D03*
X153012631Y-165408966D03*
%TD*%
D20*
%TO.C,D1*%
X281082160Y-167840130D03*
X284254322Y-168749734D03*
%TD*%
%TO.C,D2*%
X285974721Y-150777730D03*
X289146883Y-151687334D03*
%TD*%
%TO.C,D3*%
X290867284Y-133715335D03*
X294039446Y-134624939D03*
%TD*%
%TO.C,D4*%
X263609773Y-160749402D03*
X266781935Y-161659006D03*
%TD*%
%TO.C,D5*%
X268502337Y-143687006D03*
X271674499Y-144596610D03*
%TD*%
%TO.C,D6*%
X273394900Y-126624609D03*
X276567062Y-127534213D03*
%TD*%
D21*
%TO.C,D7*%
X247390551Y-141347428D03*
X250618437Y-142033538D03*
%TD*%
%TO.C,D8*%
X251080982Y-123985308D03*
X254308868Y-124671418D03*
%TD*%
%TO.C,D9*%
X254771416Y-106623180D03*
X257999302Y-107309290D03*
%TD*%
D22*
%TO.C,D10*%
X227733814Y-132755989D03*
X231001698Y-133215261D03*
%TD*%
%TO.C,D11*%
X230204141Y-115178733D03*
X233472025Y-115638005D03*
%TD*%
%TO.C,D12*%
X232674460Y-97601471D03*
X235942344Y-98060743D03*
%TD*%
D23*
%TO.C,D13*%
X206688906Y-136522569D03*
X209980868Y-136752769D03*
%TD*%
%TO.C,D14*%
X207927088Y-118815807D03*
X211219050Y-119046007D03*
%TD*%
%TO.C,D15*%
X209165262Y-101109046D03*
X212457224Y-101339246D03*
%TD*%
D24*
%TO.C,D16*%
X186318974Y-137411392D03*
X189618978Y-137411394D03*
%TD*%
%TO.C,D17*%
X186318971Y-119661393D03*
X189618975Y-119661395D03*
%TD*%
%TO.C,D18*%
X186318972Y-101911393D03*
X189618976Y-101911395D03*
%TD*%
D25*
%TO.C,D19*%
X238430228Y-161569859D03*
X241680092Y-162142899D03*
%TD*%
D26*
%TO.C,D20*%
X219718820Y-157809342D03*
X223000742Y-158154290D03*
%TD*%
D27*
%TO.C,D21*%
X200476569Y-156896583D03*
X203774563Y-156781417D03*
%TD*%
D28*
%TO.C,D22*%
X180931549Y-160438530D03*
X183991253Y-159202338D03*
%TD*%
D29*
%TO.C,D23*%
X163776652Y-170451672D03*
X166229028Y-168243538D03*
%TD*%
M02*
