%TF.GenerationSoftware,KiCad,Pcbnew,8.0.4*%
%TF.CreationDate,2024-08-02T13:19:55+01:00*%
%TF.ProjectId,right,72696768-742e-46b6-9963-61645f706362,v1.0.0*%
%TF.SameCoordinates,Original*%
%TF.FileFunction,Legend,Bot*%
%TF.FilePolarity,Positive*%
%FSLAX46Y46*%
G04 Gerber Fmt 4.6, Leading zero omitted, Abs format (unit mm)*
G04 Created by KiCad (PCBNEW 8.0.4) date 2024-08-02 13:19:55*
%MOMM*%
%LPD*%
G01*
G04 APERTURE LIST*
%ADD10C,0.150000*%
%ADD11C,0.100000*%
%ADD12C,0.381000*%
%ADD13C,1.752600*%
G04 APERTURE END LIST*
D10*
X155215118Y-118703694D02*
X155672261Y-118703694D01*
X155443689Y-118703694D02*
X155443689Y-117903694D01*
X155443689Y-117903694D02*
X155519880Y-118017979D01*
X155519880Y-118017979D02*
X155596070Y-118094170D01*
X155596070Y-118094170D02*
X155672261Y-118132265D01*
X154719879Y-117903694D02*
X154643689Y-117903694D01*
X154643689Y-117903694D02*
X154567498Y-117941789D01*
X154567498Y-117941789D02*
X154529403Y-117979884D01*
X154529403Y-117979884D02*
X154491308Y-118056075D01*
X154491308Y-118056075D02*
X154453213Y-118208456D01*
X154453213Y-118208456D02*
X154453213Y-118398932D01*
X154453213Y-118398932D02*
X154491308Y-118551313D01*
X154491308Y-118551313D02*
X154529403Y-118627503D01*
X154529403Y-118627503D02*
X154567498Y-118665599D01*
X154567498Y-118665599D02*
X154643689Y-118703694D01*
X154643689Y-118703694D02*
X154719879Y-118703694D01*
X154719879Y-118703694D02*
X154796070Y-118665599D01*
X154796070Y-118665599D02*
X154834165Y-118627503D01*
X154834165Y-118627503D02*
X154872260Y-118551313D01*
X154872260Y-118551313D02*
X154910356Y-118398932D01*
X154910356Y-118398932D02*
X154910356Y-118208456D01*
X154910356Y-118208456D02*
X154872260Y-118056075D01*
X154872260Y-118056075D02*
X154834165Y-117979884D01*
X154834165Y-117979884D02*
X154796070Y-117941789D01*
X154796070Y-117941789D02*
X154719879Y-117903694D01*
X153767498Y-118170360D02*
X153767498Y-118703694D01*
X153957974Y-117865599D02*
X154148451Y-118437027D01*
X154148451Y-118437027D02*
X153653212Y-118437027D01*
X155215116Y-113623692D02*
X155672259Y-113623692D01*
X155443687Y-113623692D02*
X155443687Y-112823692D01*
X155443687Y-112823692D02*
X155519878Y-112937977D01*
X155519878Y-112937977D02*
X155596068Y-113014168D01*
X155596068Y-113014168D02*
X155672259Y-113052263D01*
X154719877Y-112823692D02*
X154643687Y-112823692D01*
X154643687Y-112823692D02*
X154567496Y-112861787D01*
X154567496Y-112861787D02*
X154529401Y-112899882D01*
X154529401Y-112899882D02*
X154491306Y-112976073D01*
X154491306Y-112976073D02*
X154453211Y-113128454D01*
X154453211Y-113128454D02*
X154453211Y-113318930D01*
X154453211Y-113318930D02*
X154491306Y-113471311D01*
X154491306Y-113471311D02*
X154529401Y-113547501D01*
X154529401Y-113547501D02*
X154567496Y-113585597D01*
X154567496Y-113585597D02*
X154643687Y-113623692D01*
X154643687Y-113623692D02*
X154719877Y-113623692D01*
X154719877Y-113623692D02*
X154796068Y-113585597D01*
X154796068Y-113585597D02*
X154834163Y-113547501D01*
X154834163Y-113547501D02*
X154872258Y-113471311D01*
X154872258Y-113471311D02*
X154910354Y-113318930D01*
X154910354Y-113318930D02*
X154910354Y-113128454D01*
X154910354Y-113128454D02*
X154872258Y-112976073D01*
X154872258Y-112976073D02*
X154834163Y-112899882D01*
X154834163Y-112899882D02*
X154796068Y-112861787D01*
X154796068Y-112861787D02*
X154719877Y-112823692D01*
X153957972Y-112823692D02*
X153881782Y-112823692D01*
X153881782Y-112823692D02*
X153805591Y-112861787D01*
X153805591Y-112861787D02*
X153767496Y-112899882D01*
X153767496Y-112899882D02*
X153729401Y-112976073D01*
X153729401Y-112976073D02*
X153691306Y-113128454D01*
X153691306Y-113128454D02*
X153691306Y-113318930D01*
X153691306Y-113318930D02*
X153729401Y-113471311D01*
X153729401Y-113471311D02*
X153767496Y-113547501D01*
X153767496Y-113547501D02*
X153805591Y-113585597D01*
X153805591Y-113585597D02*
X153881782Y-113623692D01*
X153881782Y-113623692D02*
X153957972Y-113623692D01*
X153957972Y-113623692D02*
X154034163Y-113585597D01*
X154034163Y-113585597D02*
X154072258Y-113547501D01*
X154072258Y-113547501D02*
X154110353Y-113471311D01*
X154110353Y-113471311D02*
X154148449Y-113318930D01*
X154148449Y-113318930D02*
X154148449Y-113128454D01*
X154148449Y-113128454D02*
X154110353Y-112976073D01*
X154110353Y-112976073D02*
X154072258Y-112899882D01*
X154072258Y-112899882D02*
X154034163Y-112861787D01*
X154034163Y-112861787D02*
X153957972Y-112823692D01*
X155481784Y-110283694D02*
X155405594Y-110283694D01*
X155405594Y-110283694D02*
X155329403Y-110321789D01*
X155329403Y-110321789D02*
X155291308Y-110359884D01*
X155291308Y-110359884D02*
X155253213Y-110436075D01*
X155253213Y-110436075D02*
X155215118Y-110588456D01*
X155215118Y-110588456D02*
X155215118Y-110778932D01*
X155215118Y-110778932D02*
X155253213Y-110931313D01*
X155253213Y-110931313D02*
X155291308Y-111007503D01*
X155291308Y-111007503D02*
X155329403Y-111045599D01*
X155329403Y-111045599D02*
X155405594Y-111083694D01*
X155405594Y-111083694D02*
X155481784Y-111083694D01*
X155481784Y-111083694D02*
X155557975Y-111045599D01*
X155557975Y-111045599D02*
X155596070Y-111007503D01*
X155596070Y-111007503D02*
X155634165Y-110931313D01*
X155634165Y-110931313D02*
X155672261Y-110778932D01*
X155672261Y-110778932D02*
X155672261Y-110588456D01*
X155672261Y-110588456D02*
X155634165Y-110436075D01*
X155634165Y-110436075D02*
X155596070Y-110359884D01*
X155596070Y-110359884D02*
X155557975Y-110321789D01*
X155557975Y-110321789D02*
X155481784Y-110283694D01*
X154910356Y-110359884D02*
X154872260Y-110321789D01*
X154872260Y-110321789D02*
X154796070Y-110283694D01*
X154796070Y-110283694D02*
X154605594Y-110283694D01*
X154605594Y-110283694D02*
X154529403Y-110321789D01*
X154529403Y-110321789D02*
X154491308Y-110359884D01*
X154491308Y-110359884D02*
X154453213Y-110436075D01*
X154453213Y-110436075D02*
X154453213Y-110512265D01*
X154453213Y-110512265D02*
X154491308Y-110626551D01*
X154491308Y-110626551D02*
X154948451Y-111083694D01*
X154948451Y-111083694D02*
X154453213Y-111083694D01*
X153767498Y-110550360D02*
X153767498Y-111083694D01*
X153957974Y-110245599D02*
X154148451Y-110817027D01*
X154148451Y-110817027D02*
X153653212Y-110817027D01*
X155481784Y-107773693D02*
X155405594Y-107773693D01*
X155405594Y-107773693D02*
X155329403Y-107811788D01*
X155329403Y-107811788D02*
X155291308Y-107849883D01*
X155291308Y-107849883D02*
X155253213Y-107926074D01*
X155253213Y-107926074D02*
X155215118Y-108078455D01*
X155215118Y-108078455D02*
X155215118Y-108268931D01*
X155215118Y-108268931D02*
X155253213Y-108421312D01*
X155253213Y-108421312D02*
X155291308Y-108497502D01*
X155291308Y-108497502D02*
X155329403Y-108535598D01*
X155329403Y-108535598D02*
X155405594Y-108573693D01*
X155405594Y-108573693D02*
X155481784Y-108573693D01*
X155481784Y-108573693D02*
X155557975Y-108535598D01*
X155557975Y-108535598D02*
X155596070Y-108497502D01*
X155596070Y-108497502D02*
X155634165Y-108421312D01*
X155634165Y-108421312D02*
X155672261Y-108268931D01*
X155672261Y-108268931D02*
X155672261Y-108078455D01*
X155672261Y-108078455D02*
X155634165Y-107926074D01*
X155634165Y-107926074D02*
X155596070Y-107849883D01*
X155596070Y-107849883D02*
X155557975Y-107811788D01*
X155557975Y-107811788D02*
X155481784Y-107773693D01*
X154910356Y-107849883D02*
X154872260Y-107811788D01*
X154872260Y-107811788D02*
X154796070Y-107773693D01*
X154796070Y-107773693D02*
X154605594Y-107773693D01*
X154605594Y-107773693D02*
X154529403Y-107811788D01*
X154529403Y-107811788D02*
X154491308Y-107849883D01*
X154491308Y-107849883D02*
X154453213Y-107926074D01*
X154453213Y-107926074D02*
X154453213Y-108002264D01*
X154453213Y-108002264D02*
X154491308Y-108116550D01*
X154491308Y-108116550D02*
X154948451Y-108573693D01*
X154948451Y-108573693D02*
X154453213Y-108573693D01*
X154148451Y-107849883D02*
X154110355Y-107811788D01*
X154110355Y-107811788D02*
X154034165Y-107773693D01*
X154034165Y-107773693D02*
X153843689Y-107773693D01*
X153843689Y-107773693D02*
X153767498Y-107811788D01*
X153767498Y-107811788D02*
X153729403Y-107849883D01*
X153729403Y-107849883D02*
X153691308Y-107926074D01*
X153691308Y-107926074D02*
X153691308Y-108002264D01*
X153691308Y-108002264D02*
X153729403Y-108116550D01*
X153729403Y-108116550D02*
X154186546Y-108573693D01*
X154186546Y-108573693D02*
X153691308Y-108573693D01*
X155481780Y-105273689D02*
X155405590Y-105273689D01*
X155405590Y-105273689D02*
X155329399Y-105311784D01*
X155329399Y-105311784D02*
X155291304Y-105349879D01*
X155291304Y-105349879D02*
X155253209Y-105426070D01*
X155253209Y-105426070D02*
X155215114Y-105578451D01*
X155215114Y-105578451D02*
X155215114Y-105768927D01*
X155215114Y-105768927D02*
X155253209Y-105921308D01*
X155253209Y-105921308D02*
X155291304Y-105997498D01*
X155291304Y-105997498D02*
X155329399Y-106035594D01*
X155329399Y-106035594D02*
X155405590Y-106073689D01*
X155405590Y-106073689D02*
X155481780Y-106073689D01*
X155481780Y-106073689D02*
X155557971Y-106035594D01*
X155557971Y-106035594D02*
X155596066Y-105997498D01*
X155596066Y-105997498D02*
X155634161Y-105921308D01*
X155634161Y-105921308D02*
X155672257Y-105768927D01*
X155672257Y-105768927D02*
X155672257Y-105578451D01*
X155672257Y-105578451D02*
X155634161Y-105426070D01*
X155634161Y-105426070D02*
X155596066Y-105349879D01*
X155596066Y-105349879D02*
X155557971Y-105311784D01*
X155557971Y-105311784D02*
X155481780Y-105273689D01*
X154910352Y-105349879D02*
X154872256Y-105311784D01*
X154872256Y-105311784D02*
X154796066Y-105273689D01*
X154796066Y-105273689D02*
X154605590Y-105273689D01*
X154605590Y-105273689D02*
X154529399Y-105311784D01*
X154529399Y-105311784D02*
X154491304Y-105349879D01*
X154491304Y-105349879D02*
X154453209Y-105426070D01*
X154453209Y-105426070D02*
X154453209Y-105502260D01*
X154453209Y-105502260D02*
X154491304Y-105616546D01*
X154491304Y-105616546D02*
X154948447Y-106073689D01*
X154948447Y-106073689D02*
X154453209Y-106073689D01*
X153957970Y-105273689D02*
X153881780Y-105273689D01*
X153881780Y-105273689D02*
X153805589Y-105311784D01*
X153805589Y-105311784D02*
X153767494Y-105349879D01*
X153767494Y-105349879D02*
X153729399Y-105426070D01*
X153729399Y-105426070D02*
X153691304Y-105578451D01*
X153691304Y-105578451D02*
X153691304Y-105768927D01*
X153691304Y-105768927D02*
X153729399Y-105921308D01*
X153729399Y-105921308D02*
X153767494Y-105997498D01*
X153767494Y-105997498D02*
X153805589Y-106035594D01*
X153805589Y-106035594D02*
X153881780Y-106073689D01*
X153881780Y-106073689D02*
X153957970Y-106073689D01*
X153957970Y-106073689D02*
X154034161Y-106035594D01*
X154034161Y-106035594D02*
X154072256Y-105997498D01*
X154072256Y-105997498D02*
X154110351Y-105921308D01*
X154110351Y-105921308D02*
X154148447Y-105768927D01*
X154148447Y-105768927D02*
X154148447Y-105578451D01*
X154148447Y-105578451D02*
X154110351Y-105426070D01*
X154110351Y-105426070D02*
X154072256Y-105349879D01*
X154072256Y-105349879D02*
X154034161Y-105311784D01*
X154034161Y-105311784D02*
X153957970Y-105273689D01*
X155481782Y-102673694D02*
X155405592Y-102673694D01*
X155405592Y-102673694D02*
X155329401Y-102711789D01*
X155329401Y-102711789D02*
X155291306Y-102749884D01*
X155291306Y-102749884D02*
X155253211Y-102826075D01*
X155253211Y-102826075D02*
X155215116Y-102978456D01*
X155215116Y-102978456D02*
X155215116Y-103168932D01*
X155215116Y-103168932D02*
X155253211Y-103321313D01*
X155253211Y-103321313D02*
X155291306Y-103397503D01*
X155291306Y-103397503D02*
X155329401Y-103435599D01*
X155329401Y-103435599D02*
X155405592Y-103473694D01*
X155405592Y-103473694D02*
X155481782Y-103473694D01*
X155481782Y-103473694D02*
X155557973Y-103435599D01*
X155557973Y-103435599D02*
X155596068Y-103397503D01*
X155596068Y-103397503D02*
X155634163Y-103321313D01*
X155634163Y-103321313D02*
X155672259Y-103168932D01*
X155672259Y-103168932D02*
X155672259Y-102978456D01*
X155672259Y-102978456D02*
X155634163Y-102826075D01*
X155634163Y-102826075D02*
X155596068Y-102749884D01*
X155596068Y-102749884D02*
X155557973Y-102711789D01*
X155557973Y-102711789D02*
X155481782Y-102673694D01*
X154453211Y-103473694D02*
X154910354Y-103473694D01*
X154681782Y-103473694D02*
X154681782Y-102673694D01*
X154681782Y-102673694D02*
X154757973Y-102787979D01*
X154757973Y-102787979D02*
X154834163Y-102864170D01*
X154834163Y-102864170D02*
X154910354Y-102902265D01*
X154186544Y-102673694D02*
X153653210Y-102673694D01*
X153653210Y-102673694D02*
X153996068Y-103473694D01*
X155367498Y-100161789D02*
X155443688Y-100123694D01*
X155443688Y-100123694D02*
X155557974Y-100123694D01*
X155557974Y-100123694D02*
X155672260Y-100161789D01*
X155672260Y-100161789D02*
X155748450Y-100237979D01*
X155748450Y-100237979D02*
X155786545Y-100314170D01*
X155786545Y-100314170D02*
X155824641Y-100466551D01*
X155824641Y-100466551D02*
X155824641Y-100580837D01*
X155824641Y-100580837D02*
X155786545Y-100733218D01*
X155786545Y-100733218D02*
X155748450Y-100809408D01*
X155748450Y-100809408D02*
X155672260Y-100885599D01*
X155672260Y-100885599D02*
X155557974Y-100923694D01*
X155557974Y-100923694D02*
X155481783Y-100923694D01*
X155481783Y-100923694D02*
X155367498Y-100885599D01*
X155367498Y-100885599D02*
X155329402Y-100847503D01*
X155329402Y-100847503D02*
X155329402Y-100580837D01*
X155329402Y-100580837D02*
X155481783Y-100580837D01*
X154986545Y-100923694D02*
X154986545Y-100123694D01*
X154986545Y-100123694D02*
X154529402Y-100923694D01*
X154529402Y-100923694D02*
X154529402Y-100123694D01*
X154148450Y-100923694D02*
X154148450Y-100123694D01*
X154148450Y-100123694D02*
X153957974Y-100123694D01*
X153957974Y-100123694D02*
X153843688Y-100161789D01*
X153843688Y-100161789D02*
X153767498Y-100237979D01*
X153767498Y-100237979D02*
X153729403Y-100314170D01*
X153729403Y-100314170D02*
X153691307Y-100466551D01*
X153691307Y-100466551D02*
X153691307Y-100580837D01*
X153691307Y-100580837D02*
X153729403Y-100733218D01*
X153729403Y-100733218D02*
X153767498Y-100809408D01*
X153767498Y-100809408D02*
X153843688Y-100885599D01*
X153843688Y-100885599D02*
X153957974Y-100923694D01*
X153957974Y-100923694D02*
X154148450Y-100923694D01*
X155367500Y-97621787D02*
X155443690Y-97583692D01*
X155443690Y-97583692D02*
X155557976Y-97583692D01*
X155557976Y-97583692D02*
X155672262Y-97621787D01*
X155672262Y-97621787D02*
X155748452Y-97697977D01*
X155748452Y-97697977D02*
X155786547Y-97774168D01*
X155786547Y-97774168D02*
X155824643Y-97926549D01*
X155824643Y-97926549D02*
X155824643Y-98040835D01*
X155824643Y-98040835D02*
X155786547Y-98193216D01*
X155786547Y-98193216D02*
X155748452Y-98269406D01*
X155748452Y-98269406D02*
X155672262Y-98345597D01*
X155672262Y-98345597D02*
X155557976Y-98383692D01*
X155557976Y-98383692D02*
X155481785Y-98383692D01*
X155481785Y-98383692D02*
X155367500Y-98345597D01*
X155367500Y-98345597D02*
X155329404Y-98307501D01*
X155329404Y-98307501D02*
X155329404Y-98040835D01*
X155329404Y-98040835D02*
X155481785Y-98040835D01*
X154986547Y-98383692D02*
X154986547Y-97583692D01*
X154986547Y-97583692D02*
X154529404Y-98383692D01*
X154529404Y-98383692D02*
X154529404Y-97583692D01*
X154148452Y-98383692D02*
X154148452Y-97583692D01*
X154148452Y-97583692D02*
X153957976Y-97583692D01*
X153957976Y-97583692D02*
X153843690Y-97621787D01*
X153843690Y-97621787D02*
X153767500Y-97697977D01*
X153767500Y-97697977D02*
X153729405Y-97774168D01*
X153729405Y-97774168D02*
X153691309Y-97926549D01*
X153691309Y-97926549D02*
X153691309Y-98040835D01*
X153691309Y-98040835D02*
X153729405Y-98193216D01*
X153729405Y-98193216D02*
X153767500Y-98269406D01*
X153767500Y-98269406D02*
X153843690Y-98345597D01*
X153843690Y-98345597D02*
X153957976Y-98383692D01*
X153957976Y-98383692D02*
X154148452Y-98383692D01*
X155481782Y-94973692D02*
X155405592Y-94973692D01*
X155405592Y-94973692D02*
X155329401Y-95011787D01*
X155329401Y-95011787D02*
X155291306Y-95049882D01*
X155291306Y-95049882D02*
X155253211Y-95126073D01*
X155253211Y-95126073D02*
X155215116Y-95278454D01*
X155215116Y-95278454D02*
X155215116Y-95468930D01*
X155215116Y-95468930D02*
X155253211Y-95621311D01*
X155253211Y-95621311D02*
X155291306Y-95697501D01*
X155291306Y-95697501D02*
X155329401Y-95735597D01*
X155329401Y-95735597D02*
X155405592Y-95773692D01*
X155405592Y-95773692D02*
X155481782Y-95773692D01*
X155481782Y-95773692D02*
X155557973Y-95735597D01*
X155557973Y-95735597D02*
X155596068Y-95697501D01*
X155596068Y-95697501D02*
X155634163Y-95621311D01*
X155634163Y-95621311D02*
X155672259Y-95468930D01*
X155672259Y-95468930D02*
X155672259Y-95278454D01*
X155672259Y-95278454D02*
X155634163Y-95126073D01*
X155634163Y-95126073D02*
X155596068Y-95049882D01*
X155596068Y-95049882D02*
X155557973Y-95011787D01*
X155557973Y-95011787D02*
X155481782Y-94973692D01*
X154719877Y-94973692D02*
X154643687Y-94973692D01*
X154643687Y-94973692D02*
X154567496Y-95011787D01*
X154567496Y-95011787D02*
X154529401Y-95049882D01*
X154529401Y-95049882D02*
X154491306Y-95126073D01*
X154491306Y-95126073D02*
X154453211Y-95278454D01*
X154453211Y-95278454D02*
X154453211Y-95468930D01*
X154453211Y-95468930D02*
X154491306Y-95621311D01*
X154491306Y-95621311D02*
X154529401Y-95697501D01*
X154529401Y-95697501D02*
X154567496Y-95735597D01*
X154567496Y-95735597D02*
X154643687Y-95773692D01*
X154643687Y-95773692D02*
X154719877Y-95773692D01*
X154719877Y-95773692D02*
X154796068Y-95735597D01*
X154796068Y-95735597D02*
X154834163Y-95697501D01*
X154834163Y-95697501D02*
X154872258Y-95621311D01*
X154872258Y-95621311D02*
X154910354Y-95468930D01*
X154910354Y-95468930D02*
X154910354Y-95278454D01*
X154910354Y-95278454D02*
X154872258Y-95126073D01*
X154872258Y-95126073D02*
X154834163Y-95049882D01*
X154834163Y-95049882D02*
X154796068Y-95011787D01*
X154796068Y-95011787D02*
X154719877Y-94973692D01*
X153996068Y-95316549D02*
X154072258Y-95278454D01*
X154072258Y-95278454D02*
X154110353Y-95240358D01*
X154110353Y-95240358D02*
X154148449Y-95164168D01*
X154148449Y-95164168D02*
X154148449Y-95126073D01*
X154148449Y-95126073D02*
X154110353Y-95049882D01*
X154110353Y-95049882D02*
X154072258Y-95011787D01*
X154072258Y-95011787D02*
X153996068Y-94973692D01*
X153996068Y-94973692D02*
X153843687Y-94973692D01*
X153843687Y-94973692D02*
X153767496Y-95011787D01*
X153767496Y-95011787D02*
X153729401Y-95049882D01*
X153729401Y-95049882D02*
X153691306Y-95126073D01*
X153691306Y-95126073D02*
X153691306Y-95164168D01*
X153691306Y-95164168D02*
X153729401Y-95240358D01*
X153729401Y-95240358D02*
X153767496Y-95278454D01*
X153767496Y-95278454D02*
X153843687Y-95316549D01*
X153843687Y-95316549D02*
X153996068Y-95316549D01*
X153996068Y-95316549D02*
X154072258Y-95354644D01*
X154072258Y-95354644D02*
X154110353Y-95392739D01*
X154110353Y-95392739D02*
X154148449Y-95468930D01*
X154148449Y-95468930D02*
X154148449Y-95621311D01*
X154148449Y-95621311D02*
X154110353Y-95697501D01*
X154110353Y-95697501D02*
X154072258Y-95735597D01*
X154072258Y-95735597D02*
X153996068Y-95773692D01*
X153996068Y-95773692D02*
X153843687Y-95773692D01*
X153843687Y-95773692D02*
X153767496Y-95735597D01*
X153767496Y-95735597D02*
X153729401Y-95697501D01*
X153729401Y-95697501D02*
X153691306Y-95621311D01*
X153691306Y-95621311D02*
X153691306Y-95468930D01*
X153691306Y-95468930D02*
X153729401Y-95392739D01*
X153729401Y-95392739D02*
X153767496Y-95354644D01*
X153767496Y-95354644D02*
X153843687Y-95316549D01*
X155481783Y-92503693D02*
X155405593Y-92503693D01*
X155405593Y-92503693D02*
X155329402Y-92541788D01*
X155329402Y-92541788D02*
X155291307Y-92579883D01*
X155291307Y-92579883D02*
X155253212Y-92656074D01*
X155253212Y-92656074D02*
X155215117Y-92808455D01*
X155215117Y-92808455D02*
X155215117Y-92998931D01*
X155215117Y-92998931D02*
X155253212Y-93151312D01*
X155253212Y-93151312D02*
X155291307Y-93227502D01*
X155291307Y-93227502D02*
X155329402Y-93265598D01*
X155329402Y-93265598D02*
X155405593Y-93303693D01*
X155405593Y-93303693D02*
X155481783Y-93303693D01*
X155481783Y-93303693D02*
X155557974Y-93265598D01*
X155557974Y-93265598D02*
X155596069Y-93227502D01*
X155596069Y-93227502D02*
X155634164Y-93151312D01*
X155634164Y-93151312D02*
X155672260Y-92998931D01*
X155672260Y-92998931D02*
X155672260Y-92808455D01*
X155672260Y-92808455D02*
X155634164Y-92656074D01*
X155634164Y-92656074D02*
X155596069Y-92579883D01*
X155596069Y-92579883D02*
X155557974Y-92541788D01*
X155557974Y-92541788D02*
X155481783Y-92503693D01*
X154719878Y-92503693D02*
X154643688Y-92503693D01*
X154643688Y-92503693D02*
X154567497Y-92541788D01*
X154567497Y-92541788D02*
X154529402Y-92579883D01*
X154529402Y-92579883D02*
X154491307Y-92656074D01*
X154491307Y-92656074D02*
X154453212Y-92808455D01*
X154453212Y-92808455D02*
X154453212Y-92998931D01*
X154453212Y-92998931D02*
X154491307Y-93151312D01*
X154491307Y-93151312D02*
X154529402Y-93227502D01*
X154529402Y-93227502D02*
X154567497Y-93265598D01*
X154567497Y-93265598D02*
X154643688Y-93303693D01*
X154643688Y-93303693D02*
X154719878Y-93303693D01*
X154719878Y-93303693D02*
X154796069Y-93265598D01*
X154796069Y-93265598D02*
X154834164Y-93227502D01*
X154834164Y-93227502D02*
X154872259Y-93151312D01*
X154872259Y-93151312D02*
X154910355Y-92998931D01*
X154910355Y-92998931D02*
X154910355Y-92808455D01*
X154910355Y-92808455D02*
X154872259Y-92656074D01*
X154872259Y-92656074D02*
X154834164Y-92579883D01*
X154834164Y-92579883D02*
X154796069Y-92541788D01*
X154796069Y-92541788D02*
X154719878Y-92503693D01*
X153767497Y-92503693D02*
X153919878Y-92503693D01*
X153919878Y-92503693D02*
X153996069Y-92541788D01*
X153996069Y-92541788D02*
X154034164Y-92579883D01*
X154034164Y-92579883D02*
X154110354Y-92694169D01*
X154110354Y-92694169D02*
X154148450Y-92846550D01*
X154148450Y-92846550D02*
X154148450Y-93151312D01*
X154148450Y-93151312D02*
X154110354Y-93227502D01*
X154110354Y-93227502D02*
X154072259Y-93265598D01*
X154072259Y-93265598D02*
X153996069Y-93303693D01*
X153996069Y-93303693D02*
X153843688Y-93303693D01*
X153843688Y-93303693D02*
X153767497Y-93265598D01*
X153767497Y-93265598D02*
X153729402Y-93227502D01*
X153729402Y-93227502D02*
X153691307Y-93151312D01*
X153691307Y-93151312D02*
X153691307Y-92960836D01*
X153691307Y-92960836D02*
X153729402Y-92884645D01*
X153729402Y-92884645D02*
X153767497Y-92846550D01*
X153767497Y-92846550D02*
X153843688Y-92808455D01*
X153843688Y-92808455D02*
X153996069Y-92808455D01*
X153996069Y-92808455D02*
X154072259Y-92846550D01*
X154072259Y-92846550D02*
X154110354Y-92884645D01*
X154110354Y-92884645D02*
X154148450Y-92960836D01*
X166556164Y-117903693D02*
X166479974Y-117903693D01*
X166479974Y-117903693D02*
X166403783Y-117941788D01*
X166403783Y-117941788D02*
X166365688Y-117979883D01*
X166365688Y-117979883D02*
X166327593Y-118056074D01*
X166327593Y-118056074D02*
X166289498Y-118208455D01*
X166289498Y-118208455D02*
X166289498Y-118398931D01*
X166289498Y-118398931D02*
X166327593Y-118551312D01*
X166327593Y-118551312D02*
X166365688Y-118627502D01*
X166365688Y-118627502D02*
X166403783Y-118665598D01*
X166403783Y-118665598D02*
X166479974Y-118703693D01*
X166479974Y-118703693D02*
X166556164Y-118703693D01*
X166556164Y-118703693D02*
X166632355Y-118665598D01*
X166632355Y-118665598D02*
X166670450Y-118627502D01*
X166670450Y-118627502D02*
X166708545Y-118551312D01*
X166708545Y-118551312D02*
X166746641Y-118398931D01*
X166746641Y-118398931D02*
X166746641Y-118208455D01*
X166746641Y-118208455D02*
X166708545Y-118056074D01*
X166708545Y-118056074D02*
X166670450Y-117979883D01*
X166670450Y-117979883D02*
X166632355Y-117941788D01*
X166632355Y-117941788D02*
X166556164Y-117903693D01*
X165527593Y-118703693D02*
X165984736Y-118703693D01*
X165756164Y-118703693D02*
X165756164Y-117903693D01*
X165756164Y-117903693D02*
X165832355Y-118017978D01*
X165832355Y-118017978D02*
X165908545Y-118094169D01*
X165908545Y-118094169D02*
X165984736Y-118132264D01*
X165032354Y-117903693D02*
X164956164Y-117903693D01*
X164956164Y-117903693D02*
X164879973Y-117941788D01*
X164879973Y-117941788D02*
X164841878Y-117979883D01*
X164841878Y-117979883D02*
X164803783Y-118056074D01*
X164803783Y-118056074D02*
X164765688Y-118208455D01*
X164765688Y-118208455D02*
X164765688Y-118398931D01*
X164765688Y-118398931D02*
X164803783Y-118551312D01*
X164803783Y-118551312D02*
X164841878Y-118627502D01*
X164841878Y-118627502D02*
X164879973Y-118665598D01*
X164879973Y-118665598D02*
X164956164Y-118703693D01*
X164956164Y-118703693D02*
X165032354Y-118703693D01*
X165032354Y-118703693D02*
X165108545Y-118665598D01*
X165108545Y-118665598D02*
X165146640Y-118627502D01*
X165146640Y-118627502D02*
X165184735Y-118551312D01*
X165184735Y-118551312D02*
X165222831Y-118398931D01*
X165222831Y-118398931D02*
X165222831Y-118208455D01*
X165222831Y-118208455D02*
X165184735Y-118056074D01*
X165184735Y-118056074D02*
X165146640Y-117979883D01*
X165146640Y-117979883D02*
X165108545Y-117941788D01*
X165108545Y-117941788D02*
X165032354Y-117903693D01*
X166289499Y-116163693D02*
X166746642Y-116163693D01*
X166518070Y-116163693D02*
X166518070Y-115363693D01*
X166518070Y-115363693D02*
X166594261Y-115477978D01*
X166594261Y-115477978D02*
X166670451Y-115554169D01*
X166670451Y-115554169D02*
X166746642Y-115592264D01*
X165527594Y-116163693D02*
X165984737Y-116163693D01*
X165756165Y-116163693D02*
X165756165Y-115363693D01*
X165756165Y-115363693D02*
X165832356Y-115477978D01*
X165832356Y-115477978D02*
X165908546Y-115554169D01*
X165908546Y-115554169D02*
X165984737Y-115592264D01*
X164765689Y-116163693D02*
X165222832Y-116163693D01*
X164994260Y-116163693D02*
X164994260Y-115363693D01*
X164994260Y-115363693D02*
X165070451Y-115477978D01*
X165070451Y-115477978D02*
X165146641Y-115554169D01*
X165146641Y-115554169D02*
X165222832Y-115592264D01*
X166289498Y-113623693D02*
X166746641Y-113623693D01*
X166518069Y-113623693D02*
X166518069Y-112823693D01*
X166518069Y-112823693D02*
X166594260Y-112937978D01*
X166594260Y-112937978D02*
X166670450Y-113014169D01*
X166670450Y-113014169D02*
X166746641Y-113052264D01*
X165527593Y-113623693D02*
X165984736Y-113623693D01*
X165756164Y-113623693D02*
X165756164Y-112823693D01*
X165756164Y-112823693D02*
X165832355Y-112937978D01*
X165832355Y-112937978D02*
X165908545Y-113014169D01*
X165908545Y-113014169D02*
X165984736Y-113052264D01*
X165260926Y-112823693D02*
X164765688Y-112823693D01*
X164765688Y-112823693D02*
X165032354Y-113128455D01*
X165032354Y-113128455D02*
X164918069Y-113128455D01*
X164918069Y-113128455D02*
X164841878Y-113166550D01*
X164841878Y-113166550D02*
X164803783Y-113204645D01*
X164803783Y-113204645D02*
X164765688Y-113280836D01*
X164765688Y-113280836D02*
X164765688Y-113471312D01*
X164765688Y-113471312D02*
X164803783Y-113547502D01*
X164803783Y-113547502D02*
X164841878Y-113585598D01*
X164841878Y-113585598D02*
X164918069Y-113623693D01*
X164918069Y-113623693D02*
X165146640Y-113623693D01*
X165146640Y-113623693D02*
X165222831Y-113585598D01*
X165222831Y-113585598D02*
X165260926Y-113547502D01*
X166289498Y-111083694D02*
X166746641Y-111083694D01*
X166518069Y-111083694D02*
X166518069Y-110283694D01*
X166518069Y-110283694D02*
X166594260Y-110397979D01*
X166594260Y-110397979D02*
X166670450Y-110474170D01*
X166670450Y-110474170D02*
X166746641Y-110512265D01*
X165527593Y-111083694D02*
X165984736Y-111083694D01*
X165756164Y-111083694D02*
X165756164Y-110283694D01*
X165756164Y-110283694D02*
X165832355Y-110397979D01*
X165832355Y-110397979D02*
X165908545Y-110474170D01*
X165908545Y-110474170D02*
X165984736Y-110512265D01*
X164803783Y-110283694D02*
X165184735Y-110283694D01*
X165184735Y-110283694D02*
X165222831Y-110664646D01*
X165222831Y-110664646D02*
X165184735Y-110626551D01*
X165184735Y-110626551D02*
X165108545Y-110588456D01*
X165108545Y-110588456D02*
X164918069Y-110588456D01*
X164918069Y-110588456D02*
X164841878Y-110626551D01*
X164841878Y-110626551D02*
X164803783Y-110664646D01*
X164803783Y-110664646D02*
X164765688Y-110740837D01*
X164765688Y-110740837D02*
X164765688Y-110931313D01*
X164765688Y-110931313D02*
X164803783Y-111007503D01*
X164803783Y-111007503D02*
X164841878Y-111045599D01*
X164841878Y-111045599D02*
X164918069Y-111083694D01*
X164918069Y-111083694D02*
X165108545Y-111083694D01*
X165108545Y-111083694D02*
X165184735Y-111045599D01*
X165184735Y-111045599D02*
X165222831Y-111007503D01*
X166556165Y-107743695D02*
X166479975Y-107743695D01*
X166479975Y-107743695D02*
X166403784Y-107781790D01*
X166403784Y-107781790D02*
X166365689Y-107819885D01*
X166365689Y-107819885D02*
X166327594Y-107896076D01*
X166327594Y-107896076D02*
X166289499Y-108048457D01*
X166289499Y-108048457D02*
X166289499Y-108238933D01*
X166289499Y-108238933D02*
X166327594Y-108391314D01*
X166327594Y-108391314D02*
X166365689Y-108467504D01*
X166365689Y-108467504D02*
X166403784Y-108505600D01*
X166403784Y-108505600D02*
X166479975Y-108543695D01*
X166479975Y-108543695D02*
X166556165Y-108543695D01*
X166556165Y-108543695D02*
X166632356Y-108505600D01*
X166632356Y-108505600D02*
X166670451Y-108467504D01*
X166670451Y-108467504D02*
X166708546Y-108391314D01*
X166708546Y-108391314D02*
X166746642Y-108238933D01*
X166746642Y-108238933D02*
X166746642Y-108048457D01*
X166746642Y-108048457D02*
X166708546Y-107896076D01*
X166708546Y-107896076D02*
X166670451Y-107819885D01*
X166670451Y-107819885D02*
X166632356Y-107781790D01*
X166632356Y-107781790D02*
X166556165Y-107743695D01*
X165794260Y-107743695D02*
X165718070Y-107743695D01*
X165718070Y-107743695D02*
X165641879Y-107781790D01*
X165641879Y-107781790D02*
X165603784Y-107819885D01*
X165603784Y-107819885D02*
X165565689Y-107896076D01*
X165565689Y-107896076D02*
X165527594Y-108048457D01*
X165527594Y-108048457D02*
X165527594Y-108238933D01*
X165527594Y-108238933D02*
X165565689Y-108391314D01*
X165565689Y-108391314D02*
X165603784Y-108467504D01*
X165603784Y-108467504D02*
X165641879Y-108505600D01*
X165641879Y-108505600D02*
X165718070Y-108543695D01*
X165718070Y-108543695D02*
X165794260Y-108543695D01*
X165794260Y-108543695D02*
X165870451Y-108505600D01*
X165870451Y-108505600D02*
X165908546Y-108467504D01*
X165908546Y-108467504D02*
X165946641Y-108391314D01*
X165946641Y-108391314D02*
X165984737Y-108238933D01*
X165984737Y-108238933D02*
X165984737Y-108048457D01*
X165984737Y-108048457D02*
X165946641Y-107896076D01*
X165946641Y-107896076D02*
X165908546Y-107819885D01*
X165908546Y-107819885D02*
X165870451Y-107781790D01*
X165870451Y-107781790D02*
X165794260Y-107743695D01*
X165222832Y-107819885D02*
X165184736Y-107781790D01*
X165184736Y-107781790D02*
X165108546Y-107743695D01*
X165108546Y-107743695D02*
X164918070Y-107743695D01*
X164918070Y-107743695D02*
X164841879Y-107781790D01*
X164841879Y-107781790D02*
X164803784Y-107819885D01*
X164803784Y-107819885D02*
X164765689Y-107896076D01*
X164765689Y-107896076D02*
X164765689Y-107972266D01*
X164765689Y-107972266D02*
X164803784Y-108086552D01*
X164803784Y-108086552D02*
X165260927Y-108543695D01*
X165260927Y-108543695D02*
X164765689Y-108543695D01*
X166556163Y-105203699D02*
X166479973Y-105203699D01*
X166479973Y-105203699D02*
X166403782Y-105241794D01*
X166403782Y-105241794D02*
X166365687Y-105279889D01*
X166365687Y-105279889D02*
X166327592Y-105356080D01*
X166327592Y-105356080D02*
X166289497Y-105508461D01*
X166289497Y-105508461D02*
X166289497Y-105698937D01*
X166289497Y-105698937D02*
X166327592Y-105851318D01*
X166327592Y-105851318D02*
X166365687Y-105927508D01*
X166365687Y-105927508D02*
X166403782Y-105965604D01*
X166403782Y-105965604D02*
X166479973Y-106003699D01*
X166479973Y-106003699D02*
X166556163Y-106003699D01*
X166556163Y-106003699D02*
X166632354Y-105965604D01*
X166632354Y-105965604D02*
X166670449Y-105927508D01*
X166670449Y-105927508D02*
X166708544Y-105851318D01*
X166708544Y-105851318D02*
X166746640Y-105698937D01*
X166746640Y-105698937D02*
X166746640Y-105508461D01*
X166746640Y-105508461D02*
X166708544Y-105356080D01*
X166708544Y-105356080D02*
X166670449Y-105279889D01*
X166670449Y-105279889D02*
X166632354Y-105241794D01*
X166632354Y-105241794D02*
X166556163Y-105203699D01*
X165984735Y-105279889D02*
X165946639Y-105241794D01*
X165946639Y-105241794D02*
X165870449Y-105203699D01*
X165870449Y-105203699D02*
X165679973Y-105203699D01*
X165679973Y-105203699D02*
X165603782Y-105241794D01*
X165603782Y-105241794D02*
X165565687Y-105279889D01*
X165565687Y-105279889D02*
X165527592Y-105356080D01*
X165527592Y-105356080D02*
X165527592Y-105432270D01*
X165527592Y-105432270D02*
X165565687Y-105546556D01*
X165565687Y-105546556D02*
X166022830Y-106003699D01*
X166022830Y-106003699D02*
X165527592Y-106003699D01*
X165146639Y-106003699D02*
X164994258Y-106003699D01*
X164994258Y-106003699D02*
X164918068Y-105965604D01*
X164918068Y-105965604D02*
X164879972Y-105927508D01*
X164879972Y-105927508D02*
X164803782Y-105813223D01*
X164803782Y-105813223D02*
X164765687Y-105660842D01*
X164765687Y-105660842D02*
X164765687Y-105356080D01*
X164765687Y-105356080D02*
X164803782Y-105279889D01*
X164803782Y-105279889D02*
X164841877Y-105241794D01*
X164841877Y-105241794D02*
X164918068Y-105203699D01*
X164918068Y-105203699D02*
X165070449Y-105203699D01*
X165070449Y-105203699D02*
X165146639Y-105241794D01*
X165146639Y-105241794D02*
X165184734Y-105279889D01*
X165184734Y-105279889D02*
X165222830Y-105356080D01*
X165222830Y-105356080D02*
X165222830Y-105546556D01*
X165222830Y-105546556D02*
X165184734Y-105622746D01*
X165184734Y-105622746D02*
X165146639Y-105660842D01*
X165146639Y-105660842D02*
X165070449Y-105698937D01*
X165070449Y-105698937D02*
X164918068Y-105698937D01*
X164918068Y-105698937D02*
X164841877Y-105660842D01*
X164841877Y-105660842D02*
X164803782Y-105622746D01*
X164803782Y-105622746D02*
X164765687Y-105546556D01*
X166556163Y-102663692D02*
X166479973Y-102663692D01*
X166479973Y-102663692D02*
X166403782Y-102701787D01*
X166403782Y-102701787D02*
X166365687Y-102739882D01*
X166365687Y-102739882D02*
X166327592Y-102816073D01*
X166327592Y-102816073D02*
X166289497Y-102968454D01*
X166289497Y-102968454D02*
X166289497Y-103158930D01*
X166289497Y-103158930D02*
X166327592Y-103311311D01*
X166327592Y-103311311D02*
X166365687Y-103387501D01*
X166365687Y-103387501D02*
X166403782Y-103425597D01*
X166403782Y-103425597D02*
X166479973Y-103463692D01*
X166479973Y-103463692D02*
X166556163Y-103463692D01*
X166556163Y-103463692D02*
X166632354Y-103425597D01*
X166632354Y-103425597D02*
X166670449Y-103387501D01*
X166670449Y-103387501D02*
X166708544Y-103311311D01*
X166708544Y-103311311D02*
X166746640Y-103158930D01*
X166746640Y-103158930D02*
X166746640Y-102968454D01*
X166746640Y-102968454D02*
X166708544Y-102816073D01*
X166708544Y-102816073D02*
X166670449Y-102739882D01*
X166670449Y-102739882D02*
X166632354Y-102701787D01*
X166632354Y-102701787D02*
X166556163Y-102663692D01*
X166022830Y-102663692D02*
X165527592Y-102663692D01*
X165527592Y-102663692D02*
X165794258Y-102968454D01*
X165794258Y-102968454D02*
X165679973Y-102968454D01*
X165679973Y-102968454D02*
X165603782Y-103006549D01*
X165603782Y-103006549D02*
X165565687Y-103044644D01*
X165565687Y-103044644D02*
X165527592Y-103120835D01*
X165527592Y-103120835D02*
X165527592Y-103311311D01*
X165527592Y-103311311D02*
X165565687Y-103387501D01*
X165565687Y-103387501D02*
X165603782Y-103425597D01*
X165603782Y-103425597D02*
X165679973Y-103463692D01*
X165679973Y-103463692D02*
X165908544Y-103463692D01*
X165908544Y-103463692D02*
X165984735Y-103425597D01*
X165984735Y-103425597D02*
X166022830Y-103387501D01*
X164765687Y-103463692D02*
X165222830Y-103463692D01*
X164994258Y-103463692D02*
X164994258Y-102663692D01*
X164994258Y-102663692D02*
X165070449Y-102777977D01*
X165070449Y-102777977D02*
X165146639Y-102854168D01*
X165146639Y-102854168D02*
X165222830Y-102892263D01*
X166822832Y-100123694D02*
X166556165Y-100923694D01*
X166556165Y-100923694D02*
X166289499Y-100123694D01*
X165565689Y-100847503D02*
X165603785Y-100885599D01*
X165603785Y-100885599D02*
X165718070Y-100923694D01*
X165718070Y-100923694D02*
X165794261Y-100923694D01*
X165794261Y-100923694D02*
X165908547Y-100885599D01*
X165908547Y-100885599D02*
X165984737Y-100809408D01*
X165984737Y-100809408D02*
X166022832Y-100733218D01*
X166022832Y-100733218D02*
X166060928Y-100580837D01*
X166060928Y-100580837D02*
X166060928Y-100466551D01*
X166060928Y-100466551D02*
X166022832Y-100314170D01*
X166022832Y-100314170D02*
X165984737Y-100237979D01*
X165984737Y-100237979D02*
X165908547Y-100161789D01*
X165908547Y-100161789D02*
X165794261Y-100123694D01*
X165794261Y-100123694D02*
X165718070Y-100123694D01*
X165718070Y-100123694D02*
X165603785Y-100161789D01*
X165603785Y-100161789D02*
X165565689Y-100199884D01*
X164765689Y-100847503D02*
X164803785Y-100885599D01*
X164803785Y-100885599D02*
X164918070Y-100923694D01*
X164918070Y-100923694D02*
X164994261Y-100923694D01*
X164994261Y-100923694D02*
X165108547Y-100885599D01*
X165108547Y-100885599D02*
X165184737Y-100809408D01*
X165184737Y-100809408D02*
X165222832Y-100733218D01*
X165222832Y-100733218D02*
X165260928Y-100580837D01*
X165260928Y-100580837D02*
X165260928Y-100466551D01*
X165260928Y-100466551D02*
X165222832Y-100314170D01*
X165222832Y-100314170D02*
X165184737Y-100237979D01*
X165184737Y-100237979D02*
X165108547Y-100161789D01*
X165108547Y-100161789D02*
X164994261Y-100123694D01*
X164994261Y-100123694D02*
X164918070Y-100123694D01*
X164918070Y-100123694D02*
X164803785Y-100161789D01*
X164803785Y-100161789D02*
X164765689Y-100199884D01*
X166245070Y-98383694D02*
X166511737Y-98002741D01*
X166702213Y-98383694D02*
X166702213Y-97583694D01*
X166702213Y-97583694D02*
X166397451Y-97583694D01*
X166397451Y-97583694D02*
X166321261Y-97621789D01*
X166321261Y-97621789D02*
X166283166Y-97659884D01*
X166283166Y-97659884D02*
X166245070Y-97736075D01*
X166245070Y-97736075D02*
X166245070Y-97850360D01*
X166245070Y-97850360D02*
X166283166Y-97926551D01*
X166283166Y-97926551D02*
X166321261Y-97964646D01*
X166321261Y-97964646D02*
X166397451Y-98002741D01*
X166397451Y-98002741D02*
X166702213Y-98002741D01*
X165940309Y-98345599D02*
X165826023Y-98383694D01*
X165826023Y-98383694D02*
X165635547Y-98383694D01*
X165635547Y-98383694D02*
X165559356Y-98345599D01*
X165559356Y-98345599D02*
X165521261Y-98307503D01*
X165521261Y-98307503D02*
X165483166Y-98231313D01*
X165483166Y-98231313D02*
X165483166Y-98155122D01*
X165483166Y-98155122D02*
X165521261Y-98078932D01*
X165521261Y-98078932D02*
X165559356Y-98040837D01*
X165559356Y-98040837D02*
X165635547Y-98002741D01*
X165635547Y-98002741D02*
X165787928Y-97964646D01*
X165787928Y-97964646D02*
X165864118Y-97926551D01*
X165864118Y-97926551D02*
X165902213Y-97888456D01*
X165902213Y-97888456D02*
X165940309Y-97812265D01*
X165940309Y-97812265D02*
X165940309Y-97736075D01*
X165940309Y-97736075D02*
X165902213Y-97659884D01*
X165902213Y-97659884D02*
X165864118Y-97621789D01*
X165864118Y-97621789D02*
X165787928Y-97583694D01*
X165787928Y-97583694D02*
X165597451Y-97583694D01*
X165597451Y-97583694D02*
X165483166Y-97621789D01*
X165254594Y-97583694D02*
X164797451Y-97583694D01*
X165026023Y-98383694D02*
X165026023Y-97583694D01*
X166283163Y-95081788D02*
X166359353Y-95043693D01*
X166359353Y-95043693D02*
X166473639Y-95043693D01*
X166473639Y-95043693D02*
X166587925Y-95081788D01*
X166587925Y-95081788D02*
X166664115Y-95157978D01*
X166664115Y-95157978D02*
X166702210Y-95234169D01*
X166702210Y-95234169D02*
X166740306Y-95386550D01*
X166740306Y-95386550D02*
X166740306Y-95500836D01*
X166740306Y-95500836D02*
X166702210Y-95653217D01*
X166702210Y-95653217D02*
X166664115Y-95729407D01*
X166664115Y-95729407D02*
X166587925Y-95805598D01*
X166587925Y-95805598D02*
X166473639Y-95843693D01*
X166473639Y-95843693D02*
X166397448Y-95843693D01*
X166397448Y-95843693D02*
X166283163Y-95805598D01*
X166283163Y-95805598D02*
X166245067Y-95767502D01*
X166245067Y-95767502D02*
X166245067Y-95500836D01*
X166245067Y-95500836D02*
X166397448Y-95500836D01*
X165902210Y-95843693D02*
X165902210Y-95043693D01*
X165902210Y-95043693D02*
X165445067Y-95843693D01*
X165445067Y-95843693D02*
X165445067Y-95043693D01*
X165064115Y-95843693D02*
X165064115Y-95043693D01*
X165064115Y-95043693D02*
X164873639Y-95043693D01*
X164873639Y-95043693D02*
X164759353Y-95081788D01*
X164759353Y-95081788D02*
X164683163Y-95157978D01*
X164683163Y-95157978D02*
X164645068Y-95234169D01*
X164645068Y-95234169D02*
X164606972Y-95386550D01*
X164606972Y-95386550D02*
X164606972Y-95500836D01*
X164606972Y-95500836D02*
X164645068Y-95653217D01*
X164645068Y-95653217D02*
X164683163Y-95729407D01*
X164683163Y-95729407D02*
X164759353Y-95805598D01*
X164759353Y-95805598D02*
X164873639Y-95843693D01*
X164873639Y-95843693D02*
X165064115Y-95843693D01*
X166245069Y-93303695D02*
X166511736Y-92922742D01*
X166702212Y-93303695D02*
X166702212Y-92503695D01*
X166702212Y-92503695D02*
X166397450Y-92503695D01*
X166397450Y-92503695D02*
X166321260Y-92541790D01*
X166321260Y-92541790D02*
X166283165Y-92579885D01*
X166283165Y-92579885D02*
X166245069Y-92656076D01*
X166245069Y-92656076D02*
X166245069Y-92770361D01*
X166245069Y-92770361D02*
X166283165Y-92846552D01*
X166283165Y-92846552D02*
X166321260Y-92884647D01*
X166321260Y-92884647D02*
X166397450Y-92922742D01*
X166397450Y-92922742D02*
X166702212Y-92922742D01*
X165940308Y-93075123D02*
X165559355Y-93075123D01*
X166016498Y-93303695D02*
X165749831Y-92503695D01*
X165749831Y-92503695D02*
X165483165Y-93303695D01*
X165292689Y-92503695D02*
X165102213Y-93303695D01*
X165102213Y-93303695D02*
X164949832Y-92732266D01*
X164949832Y-92732266D02*
X164797451Y-93303695D01*
X164797451Y-93303695D02*
X164606975Y-92503695D01*
D11*
%TO.C,D1*%
X281947295Y-168088203D02*
X282331799Y-168198459D01*
X282331799Y-168198459D02*
X282483399Y-167669765D01*
X282331799Y-168198459D02*
X282180197Y-168727154D01*
X282331799Y-168198459D02*
X283018812Y-167979337D01*
X283018812Y-167979337D02*
X282798305Y-168748347D01*
X282798305Y-168748347D02*
X282331799Y-168198459D01*
X282908556Y-168363843D02*
X283389187Y-168501661D01*
%TO.C,D2*%
X286839856Y-151025803D02*
X287224360Y-151136059D01*
X287224360Y-151136059D02*
X287375960Y-150607365D01*
X287224360Y-151136059D02*
X287072758Y-151664754D01*
X287224360Y-151136059D02*
X287911373Y-150916937D01*
X287911373Y-150916937D02*
X287690866Y-151685947D01*
X287690866Y-151685947D02*
X287224360Y-151136059D01*
X287801117Y-151301443D02*
X288281748Y-151439261D01*
%TO.C,D3*%
X291732419Y-133963408D02*
X292116923Y-134073664D01*
X292116923Y-134073664D02*
X292268523Y-133544970D01*
X292116923Y-134073664D02*
X291965321Y-134602359D01*
X292116923Y-134073664D02*
X292803936Y-133854542D01*
X292803936Y-133854542D02*
X292583429Y-134623552D01*
X292583429Y-134623552D02*
X292116923Y-134073664D01*
X292693680Y-134239048D02*
X293174311Y-134376866D01*
%TO.C,D4*%
X264474908Y-160997475D02*
X264859412Y-161107731D01*
X264859412Y-161107731D02*
X265011012Y-160579037D01*
X264859412Y-161107731D02*
X264707810Y-161636426D01*
X264859412Y-161107731D02*
X265546425Y-160888609D01*
X265546425Y-160888609D02*
X265325918Y-161657619D01*
X265325918Y-161657619D02*
X264859412Y-161107731D01*
X265436169Y-161273115D02*
X265916800Y-161410933D01*
%TO.C,D5*%
X269367472Y-143935079D02*
X269751976Y-144045335D01*
X269751976Y-144045335D02*
X269903576Y-143516641D01*
X269751976Y-144045335D02*
X269600374Y-144574030D01*
X269751976Y-144045335D02*
X270438989Y-143826213D01*
X270438989Y-143826213D02*
X270218482Y-144595223D01*
X270218482Y-144595223D02*
X269751976Y-144045335D01*
X270328733Y-144210719D02*
X270809364Y-144348537D01*
%TO.C,D6*%
X274260035Y-126872682D02*
X274644539Y-126982938D01*
X274644539Y-126982938D02*
X274796139Y-126454244D01*
X274644539Y-126982938D02*
X274492937Y-127511633D01*
X274644539Y-126982938D02*
X275331552Y-126763816D01*
X275331552Y-126763816D02*
X275111045Y-127532826D01*
X275111045Y-127532826D02*
X274644539Y-126982938D01*
X275221296Y-127148322D02*
X275701927Y-127286140D01*
%TO.C,D7*%
X248270883Y-141534548D02*
X248662143Y-141617713D01*
X248662143Y-141617713D02*
X248776494Y-141079733D01*
X248662143Y-141617713D02*
X248547789Y-142155696D01*
X248662143Y-141617713D02*
X249332197Y-141351203D01*
X249332197Y-141351203D02*
X249165866Y-142133722D01*
X249165866Y-142133722D02*
X248662143Y-141617713D01*
X249249031Y-141742462D02*
X249738105Y-141846418D01*
%TO.C,D8*%
X251961314Y-124172428D02*
X252352574Y-124255593D01*
X252352574Y-124255593D02*
X252466925Y-123717613D01*
X252352574Y-124255593D02*
X252238220Y-124793576D01*
X252352574Y-124255593D02*
X253022628Y-123989083D01*
X253022628Y-123989083D02*
X252856297Y-124771602D01*
X252856297Y-124771602D02*
X252352574Y-124255593D01*
X252939462Y-124380342D02*
X253428536Y-124484298D01*
%TO.C,D9*%
X255651748Y-106810300D02*
X256043008Y-106893465D01*
X256043008Y-106893465D02*
X256157359Y-106355485D01*
X256043008Y-106893465D02*
X255928654Y-107431448D01*
X256043008Y-106893465D02*
X256713062Y-106626955D01*
X256713062Y-106626955D02*
X256546731Y-107409474D01*
X256546731Y-107409474D02*
X256043008Y-106893465D01*
X256629896Y-107018214D02*
X257118970Y-107122170D01*
%TO.C,D10*%
X228625055Y-132881245D02*
X229021162Y-132936914D01*
X229021162Y-132936914D02*
X229097708Y-132392267D01*
X229021162Y-132936914D02*
X228944615Y-133481563D01*
X229021162Y-132936914D02*
X229670994Y-132624312D01*
X229670994Y-132624312D02*
X229559654Y-133416527D01*
X229559654Y-133416527D02*
X229021162Y-132936914D01*
X229615323Y-133020419D02*
X230110457Y-133090005D01*
%TO.C,D11*%
X231095382Y-115303989D02*
X231491489Y-115359658D01*
X231491489Y-115359658D02*
X231568035Y-114815011D01*
X231491489Y-115359658D02*
X231414942Y-115904307D01*
X231491489Y-115359658D02*
X232141321Y-115047056D01*
X232141321Y-115047056D02*
X232029981Y-115839271D01*
X232029981Y-115839271D02*
X231491489Y-115359658D01*
X232085650Y-115443163D02*
X232580784Y-115512749D01*
%TO.C,D12*%
X233565701Y-97726727D02*
X233961808Y-97782396D01*
X233961808Y-97782396D02*
X234038354Y-97237749D01*
X233961808Y-97782396D02*
X233885261Y-98327045D01*
X233961808Y-97782396D02*
X234611640Y-97469794D01*
X234611640Y-97469794D02*
X234500300Y-98262009D01*
X234500300Y-98262009D02*
X233961808Y-97782396D01*
X234555969Y-97865901D02*
X235051103Y-97935487D01*
%TO.C,D13*%
X207586714Y-136585351D02*
X207985739Y-136613254D01*
X207985739Y-136613254D02*
X208024106Y-136064595D01*
X207985739Y-136613254D02*
X207947373Y-137161914D01*
X207985739Y-136613254D02*
X208612179Y-136256082D01*
X208612179Y-136256082D02*
X208556376Y-137054135D01*
X208556376Y-137054135D02*
X207985739Y-136613254D01*
X208584278Y-136655108D02*
X209083060Y-136689987D01*
%TO.C,D14*%
X208824896Y-118878589D02*
X209223921Y-118906492D01*
X209223921Y-118906492D02*
X209262288Y-118357833D01*
X209223921Y-118906492D02*
X209185555Y-119455152D01*
X209223921Y-118906492D02*
X209850361Y-118549320D01*
X209850361Y-118549320D02*
X209794558Y-119347373D01*
X209794558Y-119347373D02*
X209223921Y-118906492D01*
X209822460Y-118948346D02*
X210321242Y-118983225D01*
%TO.C,D15*%
X210063070Y-101171828D02*
X210462095Y-101199731D01*
X210462095Y-101199731D02*
X210500462Y-100651072D01*
X210462095Y-101199731D02*
X210423729Y-101748391D01*
X210462095Y-101199731D02*
X211088535Y-100842559D01*
X211088535Y-100842559D02*
X211032732Y-101640612D01*
X211032732Y-101640612D02*
X210462095Y-101199731D01*
X211060634Y-101241585D02*
X211559416Y-101276464D01*
%TO.C,D16*%
X187218976Y-137411393D02*
X187618976Y-137411393D01*
X187618976Y-137411393D02*
X187618976Y-136861394D01*
X187618976Y-137411393D02*
X187618976Y-137961393D01*
X187618976Y-137411393D02*
X188218974Y-137011393D01*
X188218974Y-137011393D02*
X188218980Y-137811393D01*
X188218980Y-137811393D02*
X187618976Y-137411393D01*
X188218976Y-137411394D02*
X188718976Y-137411393D01*
%TO.C,D17*%
X187218973Y-119661394D02*
X187618973Y-119661394D01*
X187618973Y-119661394D02*
X187618973Y-119111395D01*
X187618973Y-119661394D02*
X187618973Y-120211394D01*
X187618973Y-119661394D02*
X188218971Y-119261394D01*
X188218971Y-119261394D02*
X188218977Y-120061394D01*
X188218977Y-120061394D02*
X187618973Y-119661394D01*
X188218973Y-119661395D02*
X188718973Y-119661394D01*
%TO.C,D18*%
X187218974Y-101911394D02*
X187618974Y-101911394D01*
X187618974Y-101911394D02*
X187618974Y-101361395D01*
X187618974Y-101911394D02*
X187618974Y-102461394D01*
X187618974Y-101911394D02*
X188218972Y-101511394D01*
X188218972Y-101511394D02*
X188218978Y-102311394D01*
X188218978Y-102311394D02*
X187618974Y-101911394D01*
X188218974Y-101911395D02*
X188718974Y-101911394D01*
%TO.C,D19*%
X239316554Y-161726142D02*
X239710477Y-161795602D01*
X239710477Y-161795602D02*
X239805984Y-161253958D01*
X239710477Y-161795602D02*
X239614969Y-162337247D01*
X239710477Y-161795602D02*
X240370824Y-161505869D01*
X240370824Y-161505869D02*
X240231903Y-162293716D01*
X240231903Y-162293716D02*
X239710477Y-161795602D01*
X240301362Y-161899792D02*
X240793766Y-161986616D01*
%TO.C,D20*%
X220613890Y-157903419D02*
X221011698Y-157945231D01*
X221011698Y-157945231D02*
X221069189Y-157398245D01*
X221011698Y-157945231D02*
X220954207Y-158492218D01*
X221011698Y-157945231D02*
X221650221Y-157610144D01*
X221650221Y-157610144D02*
X221566600Y-158405758D01*
X221566600Y-158405758D02*
X221011698Y-157945231D01*
X221608411Y-158007948D02*
X222105672Y-158060213D01*
%TO.C,D21*%
X201376023Y-156865175D02*
X201775779Y-156851215D01*
X201775779Y-156851215D02*
X201756585Y-156301551D01*
X201775779Y-156851215D02*
X201794975Y-157400880D01*
X201775779Y-156851215D02*
X202361452Y-156430519D01*
X202361452Y-156430519D02*
X202389375Y-157230031D01*
X202389375Y-157230031D02*
X201775779Y-156851215D01*
X202375414Y-156830276D02*
X202875109Y-156812825D01*
%TO.C,D22*%
X181766012Y-160101390D02*
X182136887Y-159951547D01*
X182136887Y-159951547D02*
X181930854Y-159441595D01*
X182136887Y-159951547D02*
X182342921Y-160461497D01*
X182136887Y-159951547D02*
X182543355Y-159355911D01*
X182543355Y-159355911D02*
X182843039Y-160097657D01*
X182843039Y-160097657D02*
X182136887Y-159951547D01*
X182693199Y-159726783D02*
X183156790Y-159539478D01*
%TO.C,D23*%
X164445482Y-169849452D02*
X164742736Y-169581801D01*
X164742736Y-169581801D02*
X164374718Y-169173071D01*
X164742736Y-169581801D02*
X165110761Y-169990530D01*
X164742736Y-169581801D02*
X164920975Y-168883064D01*
X164920975Y-168883064D02*
X165456279Y-169477580D01*
X165456279Y-169477580D02*
X164742736Y-169581801D01*
X165188630Y-169180324D02*
X165560198Y-168845758D01*
D12*
%TO.C,MCU1*%
X169108974Y-89131396D02*
X151328974Y-89131396D01*
X151328974Y-89131396D02*
X151328974Y-122151397D01*
X151328974Y-122151397D02*
X169108975Y-122151397D01*
X169108975Y-122151397D02*
X169108974Y-89131396D01*
D10*
%TO.C,JST1*%
X148218976Y-144161396D02*
X148218975Y-143661396D01*
X147968975Y-143911394D02*
X148468977Y-143911396D01*
X146718975Y-140661396D02*
X146718975Y-145161397D01*
X145118975Y-140661397D02*
X146718975Y-140661396D01*
X145118975Y-139961395D02*
X145118975Y-140661397D01*
X152718971Y-139961396D02*
X145118975Y-139961395D01*
X152718976Y-145861394D02*
X152718971Y-139961396D01*
X145118974Y-145861396D02*
X152718976Y-145861394D01*
X145118976Y-145161395D02*
X145118974Y-145861396D01*
X146718975Y-145161397D02*
X145118976Y-145161395D01*
%TD*%
D13*
%TO.C,MCU1*%
X160218973Y-115801399D03*
X157678970Y-115801397D03*
X155138976Y-115801399D03*
X167838973Y-92941397D03*
X167838973Y-95481398D03*
X167838974Y-98021399D03*
X167838973Y-100561398D03*
X167838973Y-103101397D03*
X167838973Y-105641399D03*
X167838975Y-108181399D03*
X167838973Y-110721396D03*
X167838974Y-113261397D03*
X167838974Y-115801398D03*
X167838974Y-118341400D03*
X167838975Y-120881395D03*
X152598975Y-120881399D03*
X152598975Y-118341398D03*
X152598974Y-115801397D03*
X152598975Y-113261398D03*
X152598975Y-110721399D03*
X152598975Y-108181397D03*
X152598973Y-105641397D03*
X152598975Y-103101400D03*
X152598974Y-100561399D03*
X152598974Y-98021398D03*
X152598974Y-95481396D03*
X152598973Y-92941401D03*
%TD*%
M02*
