%TF.GenerationSoftware,KiCad,Pcbnew,8.0.4*%
%TF.CreationDate,2024-08-02T13:19:55+01:00*%
%TF.ProjectId,right,72696768-742e-46b6-9963-61645f706362,v1.0.0*%
%TF.SameCoordinates,Original*%
%TF.FileFunction,Profile,NP*%
%FSLAX46Y46*%
G04 Gerber Fmt 4.6, Leading zero omitted, Abs format (unit mm)*
G04 Created by KiCad (PCBNEW 8.0.4) date 2024-08-02 13:19:55*
%MOMM*%
%LPD*%
G01*
G04 APERTURE LIST*
%TA.AperFunction,Profile*%
%ADD10C,0.150000*%
%TD*%
G04 APERTURE END LIST*
D10*
X289392088Y-173869724D02*
X303893746Y-123296421D01*
X302626157Y-120855424D02*
X270798938Y-109824886D01*
X269472745Y-108209271D02*
X267625544Y-94858607D01*
X266060243Y-93176422D02*
X250470121Y-89862642D01*
X249389853Y-89233634D02*
X244876355Y-84146113D01*
X243658615Y-83492863D02*
X223469994Y-80655540D01*
X221923801Y-81089283D02*
X216497334Y-85537158D01*
X215089972Y-85985497D02*
X198265212Y-84808990D01*
X197599085Y-84874693D02*
X192227450Y-86340817D01*
X191700844Y-86411398D02*
X146267942Y-86411392D01*
X144267947Y-88410362D02*
X144227689Y-166428371D01*
X144741397Y-167767665D02*
X156902381Y-181273810D01*
X159768420Y-181383402D02*
X171285867Y-170407724D01*
X171864272Y-170023137D02*
X187985791Y-162973033D01*
X188697032Y-162807506D02*
X206663640Y-161997217D01*
X207057397Y-162018364D02*
X228604480Y-165328043D01*
X228657985Y-165337005D02*
X246407246Y-168558324D01*
X247516568Y-168443631D02*
X253235997Y-166122183D01*
X254534161Y-166051319D02*
X286923579Y-175242483D01*
X302626157Y-120855424D02*
G75*
G02*
X303893740Y-123296419I-654933J-1889719D01*
G01*
X270798938Y-109824886D02*
G75*
G02*
X269472749Y-108209270I654935J1889721D01*
G01*
X266060240Y-93176419D02*
G75*
G02*
X267625550Y-94858606I-415819J-1956299D01*
G01*
X250470120Y-89862643D02*
G75*
G02*
X249389849Y-89233637I415826J1956296D01*
G01*
X243658615Y-83492861D02*
G75*
G02*
X244876362Y-84146107I-278352J-1980541D01*
G01*
X221923801Y-81089282D02*
G75*
G02*
X223469994Y-80655540I1267844J-1546794D01*
G01*
X216497335Y-85537158D02*
G75*
G02*
X215089972Y-85985495I-1267849J1546796D01*
G01*
X197599086Y-84874695D02*
G75*
G02*
X198265212Y-84808990I526616J-1929424D01*
G01*
X192227452Y-86340818D02*
G75*
G02*
X191700844Y-86411392I-526607J1929425D01*
G01*
X144267949Y-88410364D02*
G75*
G02*
X146267942Y-86411401I1999996J-1033D01*
G01*
X144741397Y-167767665D02*
G75*
G02*
X144227689Y-166428371I1486294J1338260D01*
G01*
X159768421Y-181383398D02*
G75*
G02*
X156902387Y-181273804I-1379748J1447852D01*
G01*
X171285867Y-170407722D02*
G75*
G02*
X171864272Y-170023137I1379751J-1447864D01*
G01*
X187985795Y-162973030D02*
G75*
G02*
X188697032Y-162807504I801345J-1832446D01*
G01*
X206663640Y-161997217D02*
G75*
G02*
X207057396Y-162018370I90112J-1997964D01*
G01*
X228604480Y-165328043D02*
G75*
G02*
X228657985Y-165337006I-303644J-1976818D01*
G01*
X247516568Y-168443631D02*
G75*
G02*
X246407247Y-168558317I-752177J1853166D01*
G01*
X253235997Y-166122183D02*
G75*
G02*
X254534162Y-166051314I752184J-1853170D01*
G01*
X289392088Y-173869724D02*
G75*
G02*
X286923580Y-175242479I-1922524J551279D01*
G01*
M02*
