%TF.GenerationSoftware,KiCad,Pcbnew,8.0.4*%
%TF.CreationDate,2024-08-22T13:25:46+01:00*%
%TF.ProjectId,left (v2 backup),6c656674-2028-4763-9220-6261636b7570,v1.0.0*%
%TF.SameCoordinates,Original*%
%TF.FileFunction,Soldermask,Bot*%
%TF.FilePolarity,Negative*%
%FSLAX46Y46*%
G04 Gerber Fmt 4.6, Leading zero omitted, Abs format (unit mm)*
G04 Created by KiCad (PCBNEW 8.0.4) date 2024-08-22 13:25:46*
%MOMM*%
%LPD*%
G01*
G04 APERTURE LIST*
G04 Aperture macros list*
%AMRoundRect*
0 Rectangle with rounded corners*
0 $1 Rounding radius*
0 $2 $3 $4 $5 $6 $7 $8 $9 X,Y pos of 4 corners*
0 Add a 4 corners polygon primitive as box body*
4,1,4,$2,$3,$4,$5,$6,$7,$8,$9,$2,$3,0*
0 Add four circle primitives for the rounded corners*
1,1,$1+$1,$2,$3*
1,1,$1+$1,$4,$5*
1,1,$1+$1,$6,$7*
1,1,$1+$1,$8,$9*
0 Add four rect primitives between the rounded corners*
20,1,$1+$1,$2,$3,$4,$5,0*
20,1,$1+$1,$4,$5,$6,$7,0*
20,1,$1+$1,$6,$7,$8,$9,0*
20,1,$1+$1,$8,$9,$2,$3,0*%
G04 Aperture macros list end*
%ADD10C,1.100000*%
%ADD11RoundRect,0.050000X-0.889000X-0.889000X0.889000X-0.889000X0.889000X0.889000X-0.889000X0.889000X0*%
%ADD12RoundRect,0.050000X-0.450000X-0.600000X0.450000X-0.600000X0.450000X0.600000X-0.450000X0.600000X0*%
%ADD13C,2.005000*%
%ADD14C,1.801800*%
%ADD15C,3.100000*%
%ADD16C,3.529000*%
%ADD17RoundRect,0.050000X-1.300000X-1.300000X1.300000X-1.300000X1.300000X1.300000X-1.300000X1.300000X0*%
%ADD18RoundRect,0.050000X-1.029867X-0.721121X0.721121X-1.029867X1.029867X0.721121X-0.721121X1.029867X0*%
%ADD19RoundRect,0.050000X-0.547352X-0.512743X0.338975X-0.669026X0.547352X0.512743X-0.338975X0.669026X0*%
%ADD20RoundRect,0.050000X-1.139443X-0.531331X0.531331X-1.139443X1.139443X0.531331X-0.531331X1.139443X0*%
%ADD21RoundRect,0.050000X-0.628074X-0.409907X0.217650X-0.717725X0.628074X0.409907X-0.217650X0.717725X0*%
%ADD22RoundRect,0.050000X0.600000X0.850000X-0.600000X0.850000X-0.600000X-0.850000X0.600000X-0.850000X0*%
%ADD23O,1.300000X1.800000*%
%ADD24RoundRect,0.050000X-1.666227X-0.776974X0.776974X-1.666227X1.666227X0.776974X-0.776974X1.666227X0*%
%ADD25RoundRect,0.050000X-1.505993X-1.054507X1.054507X-1.505993X1.505993X1.054507X-1.054507X1.505993X0*%
%ADD26C,1.852600*%
G04 APERTURE END LIST*
D10*
%TO.C,T1*%
X221655760Y-64905703D03*
X221655760Y-67905703D03*
%TD*%
D11*
%TO.C,D18*%
X189345761Y-42405706D03*
D12*
X191505761Y-42405704D03*
X194805761Y-42405708D03*
D13*
X196965761Y-42405706D03*
%TD*%
D11*
%TO.C,D12*%
X152345757Y-34405704D03*
D12*
X154505757Y-34405702D03*
X157805757Y-34405706D03*
D13*
X159965757Y-34405704D03*
%TD*%
D14*
%TO.C,S12*%
X147655758Y-29405703D03*
D15*
X153155758Y-23455701D03*
D16*
X153155758Y-29405703D03*
D15*
X158155758Y-25655703D03*
D14*
X158655758Y-29405703D03*
D17*
X149880758Y-23455703D03*
X161430758Y-25655703D03*
%TD*%
D11*
%TO.C,D17*%
X189345761Y-59905704D03*
D12*
X191505761Y-59905702D03*
X194805761Y-59905706D03*
D13*
X196965761Y-59905704D03*
%TD*%
D14*
%TO.C,S7*%
X129155760Y-69405706D03*
D15*
X134655760Y-63455704D03*
D16*
X134655760Y-69405706D03*
D15*
X139655760Y-65655706D03*
D14*
X140155760Y-69405706D03*
D17*
X131380760Y-63455706D03*
X142930760Y-65655706D03*
%TD*%
D11*
%TO.C,D6*%
X115345758Y-50405704D03*
D12*
X117505758Y-50405702D03*
X120805758Y-50405706D03*
D13*
X122965758Y-50405704D03*
%TD*%
D11*
%TO.C,D13*%
X170845758Y-75405704D03*
D12*
X173005758Y-75405702D03*
X176305758Y-75405706D03*
D13*
X178465758Y-75405704D03*
%TD*%
D11*
%TO.C,D8*%
X133845758Y-56905703D03*
D12*
X136005758Y-56905701D03*
X139305758Y-56905705D03*
D13*
X141465758Y-56905703D03*
%TD*%
D14*
%TO.C,S14*%
X166155756Y-52905706D03*
D15*
X171655756Y-46955704D03*
D16*
X171655756Y-52905706D03*
D15*
X176655756Y-49155706D03*
D14*
X177155756Y-52905706D03*
D17*
X168380756Y-46955706D03*
X179930756Y-49155706D03*
%TD*%
D14*
%TO.C,S1*%
X92155762Y-82405704D03*
D15*
X97655762Y-76455702D03*
D16*
X97655762Y-82405704D03*
D15*
X102655762Y-78655704D03*
D14*
X103155762Y-82405704D03*
D17*
X94380762Y-76455704D03*
X105930762Y-78655704D03*
%TD*%
D14*
%TO.C,S15*%
X166155763Y-35405707D03*
D15*
X171655763Y-29455705D03*
D16*
X171655763Y-35405707D03*
D15*
X176655763Y-31655707D03*
D14*
X177155763Y-35405707D03*
D17*
X168380763Y-29455707D03*
X179930763Y-31655707D03*
%TD*%
D14*
%TO.C,S16*%
X184655759Y-72405703D03*
D15*
X190155759Y-66455701D03*
D16*
X190155759Y-72405703D03*
D15*
X195155759Y-68655703D03*
D14*
X195655759Y-72405703D03*
D17*
X186880759Y-66455703D03*
X198430759Y-68655703D03*
%TD*%
D14*
%TO.C,S10*%
X147655757Y-64405704D03*
D15*
X153155757Y-58455702D03*
D16*
X153155757Y-64405704D03*
D15*
X158155757Y-60655704D03*
D14*
X158655757Y-64405704D03*
D17*
X149880757Y-58455704D03*
X161430757Y-60655704D03*
%TD*%
D11*
%TO.C,D2*%
X96845757Y-69905703D03*
D12*
X99005757Y-69905701D03*
X102305757Y-69905705D03*
D13*
X104465757Y-69905703D03*
%TD*%
D11*
%TO.C,D7*%
X133845761Y-74405705D03*
D12*
X136005761Y-74405703D03*
X139305761Y-74405707D03*
D13*
X141465761Y-74405705D03*
%TD*%
D11*
%TO.C,D11*%
X152345763Y-51905704D03*
D12*
X154505763Y-51905702D03*
X157805763Y-51905706D03*
D13*
X159965763Y-51905704D03*
%TD*%
D18*
%TO.C,D21*%
X182915930Y-96888650D03*
D19*
X185043116Y-97263732D03*
X188292982Y-97836768D03*
D13*
X190420168Y-98211850D03*
%TD*%
D20*
%TO.C,D22*%
X201091570Y-103630187D03*
D21*
X203121306Y-104368952D03*
X206222292Y-105497616D03*
D13*
X208252028Y-106236381D03*
%TD*%
D14*
%TO.C,S3*%
X92155760Y-47405705D03*
D15*
X97655760Y-41455703D03*
D16*
X97655760Y-47405705D03*
D15*
X102655760Y-43655705D03*
D14*
X103155760Y-47405705D03*
D17*
X94380760Y-41455705D03*
X105930760Y-43655705D03*
%TD*%
D11*
%TO.C,D10*%
X152345755Y-69405707D03*
D12*
X154505755Y-69405705D03*
X157805755Y-69405709D03*
D13*
X159965755Y-69405707D03*
%TD*%
D14*
%TO.C,S19*%
X140655762Y-90405704D03*
D15*
X146155762Y-84455702D03*
D16*
X146155762Y-90405704D03*
D15*
X151155762Y-86655704D03*
D14*
X151655762Y-90405704D03*
D17*
X142880762Y-84455704D03*
X154430762Y-86655704D03*
%TD*%
D14*
%TO.C,S13*%
X166155760Y-70405705D03*
D15*
X171655760Y-64455703D03*
D16*
X171655760Y-70405705D03*
D15*
X176655760Y-66655705D03*
D14*
X177155760Y-70405705D03*
D17*
X168380760Y-64455705D03*
X179930760Y-66655705D03*
%TD*%
D11*
%TO.C,D3*%
X96845760Y-52405703D03*
D12*
X99005760Y-52405701D03*
X102305760Y-52405705D03*
D13*
X104465760Y-52405703D03*
%TD*%
D11*
%TO.C,D19*%
X145345762Y-95405704D03*
D12*
X147505762Y-95405702D03*
X150805762Y-95405706D03*
D13*
X152965762Y-95405704D03*
%TD*%
D11*
%TO.C,D9*%
X133845763Y-39405704D03*
D12*
X136005763Y-39405702D03*
X139305763Y-39405706D03*
D13*
X141465763Y-39405704D03*
%TD*%
D14*
%TO.C,S8*%
X129155759Y-51905706D03*
D15*
X134655759Y-45955704D03*
D16*
X134655759Y-51905706D03*
D15*
X139655759Y-48155706D03*
D14*
X140155759Y-51905706D03*
D17*
X131380759Y-45955706D03*
X142930759Y-48155706D03*
%TD*%
D14*
%TO.C,S2*%
X92155758Y-64905704D03*
D15*
X97655758Y-58955702D03*
D16*
X97655758Y-64905704D03*
D15*
X102655758Y-61155704D03*
D14*
X103155758Y-64905704D03*
D17*
X94380758Y-58955704D03*
X105930758Y-61155704D03*
%TD*%
D14*
%TO.C,S20*%
X159155761Y-89405704D03*
D15*
X164655761Y-83455702D03*
D16*
X164655761Y-89405704D03*
D15*
X169655761Y-85655704D03*
D14*
X170155761Y-89405704D03*
D17*
X161380761Y-83455704D03*
X172930761Y-85655704D03*
%TD*%
D22*
%TO.C,JST1*%
X214155761Y-82405704D03*
D23*
X212155761Y-82405704D03*
%TD*%
D11*
%TO.C,D1*%
X96845760Y-87405704D03*
D12*
X99005760Y-87405702D03*
X102305760Y-87405706D03*
D13*
X104465760Y-87405704D03*
%TD*%
D14*
%TO.C,S6*%
X110655761Y-45405706D03*
D15*
X116155761Y-39455704D03*
D16*
X116155761Y-45405706D03*
D15*
X121155761Y-41655706D03*
D14*
X121655761Y-45405706D03*
D17*
X112880761Y-39455706D03*
X124430761Y-41655706D03*
%TD*%
D11*
%TO.C,D14*%
X170845763Y-57905702D03*
D12*
X173005763Y-57905700D03*
X176305763Y-57905704D03*
D13*
X178465763Y-57905702D03*
%TD*%
D14*
%TO.C,S22*%
X198394511Y-97327650D03*
D15*
X205597840Y-93617590D03*
D16*
X203562820Y-99208761D03*
D15*
X209543859Y-97395014D03*
D14*
X208731129Y-101089872D03*
D24*
X202520347Y-92497474D03*
X212621352Y-98515130D03*
%TD*%
D14*
%TO.C,S17*%
X184655761Y-54905704D03*
D15*
X190155761Y-48955702D03*
D16*
X190155761Y-54905704D03*
D15*
X195155761Y-51155704D03*
D14*
X195655761Y-54905704D03*
D17*
X186880761Y-48955704D03*
X198430761Y-51155704D03*
%TD*%
D14*
%TO.C,S9*%
X129155756Y-34405705D03*
D15*
X134655756Y-28455703D03*
D16*
X134655756Y-34405705D03*
D15*
X139655756Y-30655705D03*
D14*
X140155756Y-34405705D03*
D17*
X131380756Y-28455705D03*
X142930756Y-30655705D03*
%TD*%
D11*
%TO.C,D16*%
X189345762Y-77405706D03*
D12*
X191505762Y-77405704D03*
X194805762Y-77405708D03*
D13*
X196965762Y-77405706D03*
%TD*%
D11*
%TO.C,D15*%
X170845760Y-40405702D03*
D12*
X173005760Y-40405700D03*
X176305760Y-40405704D03*
D13*
X178465760Y-40405702D03*
%TD*%
D14*
%TO.C,S21*%
X179165421Y-91150205D03*
D15*
X185615071Y-86245664D03*
D16*
X184581864Y-92105270D03*
D15*
X190157087Y-89280483D03*
D14*
X189998307Y-93060335D03*
D25*
X182389825Y-85676966D03*
X193382329Y-89849180D03*
%TD*%
D14*
%TO.C,S11*%
X147655762Y-46905702D03*
D15*
X153155762Y-40955700D03*
D16*
X153155762Y-46905702D03*
D15*
X158155762Y-43155702D03*
D14*
X158655762Y-46905702D03*
D17*
X149880762Y-40955702D03*
X161430762Y-43155702D03*
%TD*%
D14*
%TO.C,S18*%
X184655759Y-37405705D03*
D15*
X190155759Y-31455703D03*
D16*
X190155759Y-37405705D03*
D15*
X195155759Y-33655705D03*
D14*
X195655759Y-37405705D03*
D17*
X186880759Y-31455705D03*
X198430759Y-33655705D03*
%TD*%
D26*
%TO.C,MCU1*%
X218775756Y-29435709D03*
X218775756Y-31975706D03*
X218775756Y-34515706D03*
X218775756Y-37055706D03*
X218775756Y-39595706D03*
X218775756Y-42135706D03*
X218775756Y-44675706D03*
X218775756Y-47215706D03*
X218775752Y-49755706D03*
X218775756Y-52295706D03*
X218775756Y-54835706D03*
X218775756Y-57375706D03*
X203535756Y-57375703D03*
X203535756Y-54835706D03*
X203535756Y-52295706D03*
X203535756Y-49755706D03*
X203535756Y-47215706D03*
X203535756Y-44675706D03*
X203535756Y-42135706D03*
X203535756Y-39595706D03*
X203535760Y-37055706D03*
X203535756Y-34515706D03*
X203535756Y-31975706D03*
X203535756Y-29435706D03*
X206075758Y-52295705D03*
X208615756Y-52295706D03*
X211155756Y-52295706D03*
%TD*%
D11*
%TO.C,D4*%
X115345754Y-85405705D03*
D12*
X117505754Y-85405703D03*
X120805754Y-85405707D03*
D13*
X122965754Y-85405705D03*
%TD*%
D11*
%TO.C,D20*%
X163845760Y-94405706D03*
D12*
X166005760Y-94405704D03*
X169305760Y-94405708D03*
D13*
X171465760Y-94405706D03*
%TD*%
D14*
%TO.C,S4*%
X110655761Y-80405707D03*
D15*
X116155761Y-74455705D03*
D16*
X116155761Y-80405707D03*
D15*
X121155761Y-76655707D03*
D14*
X121655761Y-80405707D03*
D17*
X112880761Y-74455707D03*
X124430761Y-76655707D03*
%TD*%
D11*
%TO.C,D5*%
X115345764Y-67905707D03*
D12*
X117505764Y-67905705D03*
X120805764Y-67905709D03*
D13*
X122965764Y-67905707D03*
%TD*%
D14*
%TO.C,S5*%
X110655760Y-62905705D03*
D15*
X116155760Y-56955703D03*
D16*
X116155760Y-62905705D03*
D15*
X121155760Y-59155705D03*
D14*
X121655760Y-62905705D03*
D17*
X112880760Y-56955705D03*
X124430760Y-59155705D03*
%TD*%
M02*
