M48
; DRILL file {KiCad 8.0.4} date 2024-08-22T13:25:42+0100
; FORMAT={-:-/ absolute / inch / decimal}
; #@! TF.CreationDate,2024-08-22T13:25:42+01:00
; #@! TF.GenerationSoftware,Kicad,Pcbnew,8.0.4
; #@! TF.FileFunction,NonPlated,1,2,NPTH
FMAT,2
INCH
; #@! TA.AperFunction,NonPlated,NPTH,ComponentDrill
T1C0.0354
; #@! TA.AperFunction,NonPlated,NPTH,ComponentDrill
T2C0.0670
; #@! TA.AperFunction,NonPlated,NPTH,ComponentDrill
T3C0.1181
; #@! TA.AperFunction,NonPlated,NPTH,ComponentDrill
T4C0.1350
%
G90
G05
T1
X8.7266Y-2.5553
X8.7266Y-2.6735
T2
X3.6282Y-2.5553
X3.6282Y-1.8664
X3.6282Y-3.2443
X4.0613Y-2.5553
X4.0613Y-1.8664
X4.0613Y-3.2443
X4.3565Y-2.4766
X4.3565Y-1.7876
X4.3565Y-3.1656
X4.7896Y-2.4766
X4.7896Y-1.7876
X4.7896Y-3.1656
X5.0849Y-1.3546
X5.0849Y-2.0435
X5.0849Y-2.7325
X5.5179Y-1.3546
X5.5179Y-2.0435
X5.5179Y-2.7325
X5.5376Y-3.5593
X5.8132Y-2.5357
X5.8132Y-1.1577
X5.8132Y-1.8467
X5.9707Y-3.5593
X6.2463Y-2.5357
X6.2463Y-1.1577
X6.2463Y-1.8467
X6.266Y-3.5199
X6.5416Y-2.0829
X6.5416Y-2.7719
X6.5416Y-1.3939
X6.699Y-3.5199
X6.9746Y-2.0829
X6.9746Y-2.7719
X6.9746Y-1.3939
X7.0538Y-3.5886
X7.2699Y-1.4727
X7.2699Y-2.8506
X7.2699Y-2.1616
X7.4802Y-3.6638
X7.703Y-1.4727
X7.703Y-2.8506
X7.703Y-2.1616
X7.8108Y-3.8318
X8.2178Y-3.9799
T3
X3.8447Y-2.3211
X3.8447Y-1.6321
X3.8447Y-3.0101
X4.0416Y-2.4077
X4.0416Y-1.7187
X4.0416Y-3.0967
X4.5731Y-2.2424
X4.5731Y-1.5534
X4.5731Y-2.9313
X4.7699Y-2.329
X4.7699Y-1.64
X4.7699Y-3.0179
X5.3014Y-1.1203
X5.3014Y-1.8093
X5.3014Y-2.4983
X5.4983Y-1.2069
X5.4983Y-1.8959
X5.4983Y-2.5849
X5.7542Y-3.325
X5.951Y-3.4116
X6.0298Y-2.3014
X6.0298Y-0.9235
X6.0298Y-1.6124
X6.2266Y-2.388
X6.2266Y-1.0101
X6.2266Y-1.699
X6.4825Y-3.2857
X6.6794Y-3.3723
X6.7581Y-1.8486
X6.7581Y-2.5376
X6.7581Y-1.1597
X6.955Y-1.9353
X6.955Y-2.6242
X6.955Y-1.2463
X7.3077Y-3.3955
X7.4864Y-1.2384
X7.4864Y-2.6164
X7.4864Y-1.9274
X7.4865Y-3.515
X7.6833Y-1.325
X7.6833Y-2.703
X7.6833Y-2.014
X8.0944Y-3.6857
X8.2498Y-3.8344
T4
X3.8447Y-2.5553
X3.8447Y-1.8664
X3.8447Y-3.2443
X4.5731Y-2.4766
X4.5731Y-1.7876
X4.5731Y-3.1656
X5.3014Y-1.3546
X5.3014Y-2.0435
X5.3014Y-2.7325
X5.7542Y-3.5593
X6.0298Y-2.5357
X6.0298Y-1.1577
X6.0298Y-1.8467
X6.4825Y-3.5199
X6.7581Y-2.0829
X6.7581Y-2.7719
X6.7581Y-1.3939
X7.267Y-3.6262
X7.4864Y-1.4727
X7.4864Y-2.8506
X7.4864Y-2.1616
X8.0143Y-3.9059
M30
