%TF.GenerationSoftware,KiCad,Pcbnew,8.0.4*%
%TF.CreationDate,2024-08-22T13:25:46+01:00*%
%TF.ProjectId,left (v2 backup),6c656674-2028-4763-9220-6261636b7570,v1.0.0*%
%TF.SameCoordinates,Original*%
%TF.FileFunction,Copper,L2,Bot*%
%TF.FilePolarity,Positive*%
%FSLAX46Y46*%
G04 Gerber Fmt 4.6, Leading zero omitted, Abs format (unit mm)*
G04 Created by KiCad (PCBNEW 8.0.4) date 2024-08-22 13:25:46*
%MOMM*%
%LPD*%
G01*
G04 APERTURE LIST*
G04 Aperture macros list*
%AMRotRect*
0 Rectangle, with rotation*
0 The origin of the aperture is its center*
0 $1 length*
0 $2 width*
0 $3 Rotation angle, in degrees counterclockwise*
0 Add horizontal line*
21,1,$1,$2,0,0,$3*%
G04 Aperture macros list end*
%TA.AperFunction,WasherPad*%
%ADD10C,1.000000*%
%TD*%
%TA.AperFunction,ComponentPad*%
%ADD11R,1.778000X1.778000*%
%TD*%
%TA.AperFunction,SMDPad,CuDef*%
%ADD12R,0.900000X1.200000*%
%TD*%
%TA.AperFunction,ComponentPad*%
%ADD13C,1.905000*%
%TD*%
%TA.AperFunction,SMDPad,CuDef*%
%ADD14R,2.600000X2.600000*%
%TD*%
%TA.AperFunction,ComponentPad*%
%ADD15RotRect,1.778000X1.778000X350.000000*%
%TD*%
%TA.AperFunction,SMDPad,CuDef*%
%ADD16RotRect,0.900000X1.200000X350.000000*%
%TD*%
%TA.AperFunction,ComponentPad*%
%ADD17RotRect,1.778000X1.778000X340.000000*%
%TD*%
%TA.AperFunction,SMDPad,CuDef*%
%ADD18RotRect,0.900000X1.200000X340.000000*%
%TD*%
%TA.AperFunction,ComponentPad*%
%ADD19R,1.200000X1.700000*%
%TD*%
%TA.AperFunction,ComponentPad*%
%ADD20O,1.200000X1.700000*%
%TD*%
%TA.AperFunction,SMDPad,CuDef*%
%ADD21RotRect,2.600000X2.600000X340.000000*%
%TD*%
%TA.AperFunction,SMDPad,CuDef*%
%ADD22RotRect,2.600000X2.600000X350.000000*%
%TD*%
%TA.AperFunction,ComponentPad*%
%ADD23C,1.752600*%
%TD*%
%TA.AperFunction,Conductor*%
%ADD24C,0.250000*%
%TD*%
G04 APERTURE END LIST*
D10*
%TO.P,T1,*%
%TO.N,*%
X221655760Y-64905703D03*
X221655760Y-67905703D03*
%TD*%
D11*
%TO.P,D18,1*%
%TO.N,P111*%
X189345761Y-42405706D03*
D12*
X191505761Y-42405704D03*
%TO.P,D18,2*%
%TO.N,sixth_top*%
X194805761Y-42405708D03*
D13*
X196965761Y-42405706D03*
%TD*%
D11*
%TO.P,D12,1*%
%TO.N,P111*%
X152345757Y-34405704D03*
D12*
X154505757Y-34405702D03*
%TO.P,D12,2*%
%TO.N,fourth_top*%
X157805757Y-34405706D03*
D13*
X159965757Y-34405704D03*
%TD*%
D14*
%TO.P,S12,1*%
%TO.N,P002*%
X149880758Y-23455703D03*
%TO.P,S12,2*%
%TO.N,fourth_top*%
X161430758Y-25655703D03*
%TD*%
D11*
%TO.P,D17,1*%
%TO.N,P010*%
X189345761Y-59905704D03*
D12*
X191505761Y-59905702D03*
%TO.P,D17,2*%
%TO.N,sixth_home*%
X194805761Y-59905706D03*
D13*
X196965761Y-59905704D03*
%TD*%
D14*
%TO.P,S7,1*%
%TO.N,P115*%
X131380760Y-63455706D03*
%TO.P,S7,2*%
%TO.N,third_bottom*%
X142930760Y-65655706D03*
%TD*%
D11*
%TO.P,D6,1*%
%TO.N,P111*%
X115345758Y-50405704D03*
D12*
X117505758Y-50405702D03*
%TO.P,D6,2*%
%TO.N,second_top*%
X120805758Y-50405706D03*
D13*
X122965758Y-50405704D03*
%TD*%
D11*
%TO.P,D13,1*%
%TO.N,P009*%
X170845758Y-75405704D03*
D12*
X173005758Y-75405702D03*
%TO.P,D13,2*%
%TO.N,fifth_bottom*%
X176305758Y-75405706D03*
D13*
X178465758Y-75405704D03*
%TD*%
D11*
%TO.P,D8,1*%
%TO.N,P010*%
X133845758Y-56905703D03*
D12*
X136005758Y-56905701D03*
%TO.P,D8,2*%
%TO.N,third_home*%
X139305758Y-56905705D03*
D13*
X141465758Y-56905703D03*
%TD*%
D14*
%TO.P,S14,1*%
%TO.N,P029*%
X168380756Y-46955706D03*
%TO.P,S14,2*%
%TO.N,fifth_home*%
X179930756Y-49155706D03*
%TD*%
%TO.P,S1,1*%
%TO.N,P104*%
X94380762Y-76455704D03*
%TO.P,S1,2*%
%TO.N,first_bottom*%
X105930762Y-78655704D03*
%TD*%
%TO.P,S15,1*%
%TO.N,P029*%
X168380763Y-29455707D03*
%TO.P,S15,2*%
%TO.N,fifth_top*%
X179930763Y-31655707D03*
%TD*%
%TO.P,S16,1*%
%TO.N,P031*%
X186880759Y-66455703D03*
%TO.P,S16,2*%
%TO.N,sixth_bottom*%
X198430759Y-68655703D03*
%TD*%
%TO.P,S10,1*%
%TO.N,P002*%
X149880757Y-58455704D03*
%TO.P,S10,2*%
%TO.N,fourth_bottom*%
X161430757Y-60655704D03*
%TD*%
D11*
%TO.P,D2,1*%
%TO.N,P010*%
X96845757Y-69905703D03*
D12*
X99005757Y-69905701D03*
%TO.P,D2,2*%
%TO.N,first_home*%
X102305757Y-69905705D03*
D13*
X104465757Y-69905703D03*
%TD*%
D11*
%TO.P,D7,1*%
%TO.N,P009*%
X133845761Y-74405705D03*
D12*
X136005761Y-74405703D03*
%TO.P,D7,2*%
%TO.N,third_bottom*%
X139305761Y-74405707D03*
D13*
X141465761Y-74405705D03*
%TD*%
D11*
%TO.P,D11,1*%
%TO.N,P010*%
X152345763Y-51905704D03*
D12*
X154505763Y-51905702D03*
%TO.P,D11,2*%
%TO.N,fourth_home*%
X157805763Y-51905706D03*
D13*
X159965763Y-51905704D03*
%TD*%
D15*
%TO.P,D21,1*%
%TO.N,P106*%
X182915930Y-96888650D03*
D16*
X185043116Y-97263732D03*
%TO.P,D21,2*%
%TO.N,third_only*%
X188292982Y-97836768D03*
D13*
X190420168Y-98211850D03*
%TD*%
D17*
%TO.P,D22,1*%
%TO.N,P106*%
X201091570Y-103630187D03*
D18*
X203121306Y-104368952D03*
%TO.P,D22,2*%
%TO.N,fourth_only*%
X206222292Y-105497616D03*
D13*
X208252028Y-106236381D03*
%TD*%
D14*
%TO.P,S3,1*%
%TO.N,P104*%
X94380760Y-41455705D03*
%TO.P,S3,2*%
%TO.N,first_top*%
X105930760Y-43655705D03*
%TD*%
D11*
%TO.P,D10,1*%
%TO.N,P009*%
X152345755Y-69405707D03*
D12*
X154505755Y-69405705D03*
%TO.P,D10,2*%
%TO.N,fourth_bottom*%
X157805755Y-69405709D03*
D13*
X159965755Y-69405707D03*
%TD*%
D14*
%TO.P,S19,1*%
%TO.N,P115*%
X142880762Y-84455704D03*
%TO.P,S19,2*%
%TO.N,first_only*%
X154430762Y-86655704D03*
%TD*%
%TO.P,S13,1*%
%TO.N,P029*%
X168380760Y-64455705D03*
%TO.P,S13,2*%
%TO.N,fifth_bottom*%
X179930760Y-66655705D03*
%TD*%
D11*
%TO.P,D3,1*%
%TO.N,P111*%
X96845760Y-52405703D03*
D12*
X99005760Y-52405701D03*
%TO.P,D3,2*%
%TO.N,first_top*%
X102305760Y-52405705D03*
D13*
X104465760Y-52405703D03*
%TD*%
D11*
%TO.P,D19,1*%
%TO.N,P106*%
X145345762Y-95405704D03*
D12*
X147505762Y-95405702D03*
%TO.P,D19,2*%
%TO.N,first_only*%
X150805762Y-95405706D03*
D13*
X152965762Y-95405704D03*
%TD*%
D11*
%TO.P,D9,1*%
%TO.N,P111*%
X133845763Y-39405704D03*
D12*
X136005763Y-39405702D03*
%TO.P,D9,2*%
%TO.N,third_top*%
X139305763Y-39405706D03*
D13*
X141465763Y-39405704D03*
%TD*%
D14*
%TO.P,S8,1*%
%TO.N,P115*%
X131380759Y-45955706D03*
%TO.P,S8,2*%
%TO.N,third_home*%
X142930759Y-48155706D03*
%TD*%
%TO.P,S2,1*%
%TO.N,P104*%
X94380758Y-58955704D03*
%TO.P,S2,2*%
%TO.N,first_home*%
X105930758Y-61155704D03*
%TD*%
%TO.P,S20,1*%
%TO.N,P002*%
X161380761Y-83455704D03*
%TO.P,S20,2*%
%TO.N,second_only*%
X172930761Y-85655704D03*
%TD*%
D19*
%TO.P,JST1,1*%
%TO.N,pos*%
X214155761Y-82405704D03*
D20*
%TO.P,JST1,2*%
%TO.N,GND*%
X212155761Y-82405704D03*
%TD*%
D11*
%TO.P,D1,1*%
%TO.N,P009*%
X96845760Y-87405704D03*
D12*
X99005760Y-87405702D03*
%TO.P,D1,2*%
%TO.N,first_bottom*%
X102305760Y-87405706D03*
D13*
X104465760Y-87405704D03*
%TD*%
D14*
%TO.P,S6,1*%
%TO.N,P113*%
X112880761Y-39455706D03*
%TO.P,S6,2*%
%TO.N,second_top*%
X124430761Y-41655706D03*
%TD*%
D11*
%TO.P,D14,1*%
%TO.N,P010*%
X170845763Y-57905702D03*
D12*
X173005763Y-57905700D03*
%TO.P,D14,2*%
%TO.N,fifth_home*%
X176305763Y-57905704D03*
D13*
X178465763Y-57905702D03*
%TD*%
D21*
%TO.P,S22,1*%
%TO.N,P031*%
X202520347Y-92497474D03*
%TO.P,S22,2*%
%TO.N,fourth_only*%
X212621352Y-98515130D03*
%TD*%
D14*
%TO.P,S17,1*%
%TO.N,P031*%
X186880761Y-48955704D03*
%TO.P,S17,2*%
%TO.N,sixth_home*%
X198430761Y-51155704D03*
%TD*%
%TO.P,S9,1*%
%TO.N,P115*%
X131380756Y-28455705D03*
%TO.P,S9,2*%
%TO.N,third_top*%
X142930756Y-30655705D03*
%TD*%
D11*
%TO.P,D16,1*%
%TO.N,P009*%
X189345762Y-77405706D03*
D12*
X191505762Y-77405704D03*
%TO.P,D16,2*%
%TO.N,sixth_bottom*%
X194805762Y-77405708D03*
D13*
X196965762Y-77405706D03*
%TD*%
D11*
%TO.P,D15,1*%
%TO.N,P111*%
X170845760Y-40405702D03*
D12*
X173005760Y-40405700D03*
%TO.P,D15,2*%
%TO.N,fifth_top*%
X176305760Y-40405704D03*
D13*
X178465760Y-40405702D03*
%TD*%
D22*
%TO.P,S21,1*%
%TO.N,P029*%
X182389825Y-85676966D03*
%TO.P,S21,2*%
%TO.N,third_only*%
X193382329Y-89849180D03*
%TD*%
D14*
%TO.P,S11,1*%
%TO.N,P002*%
X149880762Y-40955702D03*
%TO.P,S11,2*%
%TO.N,fourth_home*%
X161430762Y-43155702D03*
%TD*%
%TO.P,S18,1*%
%TO.N,P031*%
X186880759Y-31455705D03*
%TO.P,S18,2*%
%TO.N,sixth_top*%
X198430759Y-33655705D03*
%TD*%
D23*
%TO.P,MCU1,1*%
%TO.N,P006*%
X218775756Y-29435709D03*
%TO.P,MCU1,2*%
%TO.N,P008*%
X218775756Y-31975706D03*
%TO.P,MCU1,3*%
%TO.N,GND*%
X218775756Y-34515706D03*
%TO.P,MCU1,4*%
X218775756Y-37055706D03*
%TO.P,MCU1,5*%
%TO.N,P017*%
X218775756Y-39595706D03*
%TO.P,MCU1,6*%
%TO.N,P020*%
X218775756Y-42135706D03*
%TO.P,MCU1,7*%
%TO.N,P022*%
X218775756Y-44675706D03*
%TO.P,MCU1,8*%
%TO.N,P024*%
X218775756Y-47215706D03*
%TO.P,MCU1,9*%
%TO.N,P100*%
X218775752Y-49755706D03*
%TO.P,MCU1,10*%
%TO.N,P011*%
X218775756Y-52295706D03*
%TO.P,MCU1,11*%
%TO.N,P104*%
X218775756Y-54835706D03*
%TO.P,MCU1,12*%
%TO.N,P106*%
X218775756Y-57375706D03*
%TO.P,MCU1,13*%
%TO.N,P009*%
X203535756Y-57375703D03*
%TO.P,MCU1,14*%
%TO.N,P010*%
X203535756Y-54835706D03*
%TO.P,MCU1,15*%
%TO.N,P111*%
X203535756Y-52295706D03*
%TO.P,MCU1,16*%
%TO.N,P113*%
X203535756Y-49755706D03*
%TO.P,MCU1,17*%
%TO.N,P115*%
X203535756Y-47215706D03*
%TO.P,MCU1,18*%
%TO.N,P002*%
X203535756Y-44675706D03*
%TO.P,MCU1,19*%
%TO.N,P029*%
X203535756Y-42135706D03*
%TO.P,MCU1,20*%
%TO.N,P031*%
X203535756Y-39595706D03*
%TO.P,MCU1,21*%
%TO.N,VCC*%
X203535760Y-37055706D03*
%TO.P,MCU1,22*%
%TO.N,RST*%
X203535756Y-34515706D03*
%TO.P,MCU1,23*%
%TO.N,GND*%
X203535756Y-31975706D03*
%TO.P,MCU1,24*%
%TO.N,RAW*%
X203535756Y-29435706D03*
%TO.P,MCU1,31*%
%TO.N,P101*%
X206075758Y-52295705D03*
%TO.P,MCU1,32*%
%TO.N,P102*%
X208615756Y-52295706D03*
%TO.P,MCU1,33*%
%TO.N,P107*%
X211155756Y-52295706D03*
%TD*%
D11*
%TO.P,D4,1*%
%TO.N,P009*%
X115345754Y-85405705D03*
D12*
X117505754Y-85405703D03*
%TO.P,D4,2*%
%TO.N,second_bottom*%
X120805754Y-85405707D03*
D13*
X122965754Y-85405705D03*
%TD*%
D11*
%TO.P,D20,1*%
%TO.N,P106*%
X163845760Y-94405706D03*
D12*
X166005760Y-94405704D03*
%TO.P,D20,2*%
%TO.N,second_only*%
X169305760Y-94405708D03*
D13*
X171465760Y-94405706D03*
%TD*%
D14*
%TO.P,S4,1*%
%TO.N,P113*%
X112880761Y-74455707D03*
%TO.P,S4,2*%
%TO.N,second_bottom*%
X124430761Y-76655707D03*
%TD*%
D11*
%TO.P,D5,1*%
%TO.N,P010*%
X115345764Y-67905707D03*
D12*
X117505764Y-67905705D03*
%TO.P,D5,2*%
%TO.N,second_home*%
X120805764Y-67905709D03*
D13*
X122965764Y-67905707D03*
%TD*%
D14*
%TO.P,S5,1*%
%TO.N,P113*%
X112880760Y-56955705D03*
%TO.P,S5,2*%
%TO.N,second_home*%
X124430760Y-59155705D03*
%TD*%
D24*
%TO.N,P104*%
X94380760Y-41219240D02*
X100400000Y-35200000D01*
X165400000Y-22600000D02*
X166600000Y-23800000D01*
X126600000Y-22800000D02*
X139400000Y-22800000D01*
X94380758Y-58955703D02*
X94380762Y-59724186D01*
X94380761Y-59724188D02*
X94380762Y-76455705D01*
X94380759Y-41455707D02*
X94380758Y-58955703D01*
X119600000Y-35200000D02*
X123000000Y-31800000D01*
X144200000Y-18000000D02*
X162331077Y-18000000D01*
X123000000Y-26400000D02*
X126600000Y-22800000D01*
X139400000Y-22800000D02*
X144200000Y-18000000D01*
X123000000Y-31800000D02*
X123000000Y-26400000D01*
X165400000Y-21068923D02*
X165400000Y-22600000D01*
X162331077Y-18000000D02*
X165400000Y-21068923D01*
X202780925Y-23800000D02*
X207000000Y-28019075D01*
X94380762Y-59724186D02*
X94380761Y-59724188D01*
X207000000Y-28019075D02*
X207000000Y-43059950D01*
X166600000Y-23800000D02*
X202780925Y-23800000D01*
X94380760Y-41455705D02*
X94380760Y-41219240D01*
X100400000Y-35200000D02*
X119600000Y-35200000D01*
X207000000Y-43059950D02*
X218775756Y-54835706D01*
%TO.N,first_bottom*%
X105930759Y-85940701D02*
X104465758Y-87405704D01*
X102305761Y-87405704D02*
X104465759Y-87405706D01*
X104465759Y-87405706D02*
X104465758Y-87405704D01*
X105930761Y-78655705D02*
X105930759Y-85940701D01*
%TO.N,first_home*%
X102305757Y-69905705D02*
X104465761Y-69905703D01*
X104465761Y-69905703D02*
X104465759Y-69905701D01*
X105930761Y-68440701D02*
X104465759Y-69905701D01*
X105930761Y-61155705D02*
X105930761Y-68440701D01*
%TO.N,first_top*%
X105930763Y-50940705D02*
X104465759Y-52405702D01*
X104465760Y-52405704D02*
X104465759Y-52405702D01*
X105930758Y-43655704D02*
X105930763Y-50940705D01*
X102305760Y-52405705D02*
X104465760Y-52405704D01*
%TO.N,P113*%
X112880760Y-56955704D02*
X112880760Y-56955704D01*
X206537060Y-28192531D02*
X206537060Y-46754402D01*
X162144681Y-18450000D02*
X164947341Y-21252660D01*
X206537060Y-46754402D02*
X203535756Y-49755706D01*
X144386396Y-18450000D02*
X162144681Y-18450000D01*
X164947341Y-21252660D02*
X164947341Y-22783737D01*
X166413604Y-24250000D02*
X202594529Y-24250000D01*
X112880757Y-39455705D02*
X112880760Y-56955704D01*
X202594529Y-24250000D02*
X206537060Y-28192531D01*
X164947341Y-22783737D02*
X166413604Y-24250000D01*
X123450000Y-26586396D02*
X126786396Y-23250000D01*
X126786396Y-23250000D02*
X139586396Y-23250000D01*
X119786396Y-35650000D02*
X123450000Y-31986396D01*
X112880761Y-39455706D02*
X116686467Y-35650000D01*
X116686467Y-35650000D02*
X119786396Y-35650000D01*
X139586396Y-23250000D02*
X144386396Y-18450000D01*
X112880757Y-74455706D02*
X112880760Y-56955704D01*
X123450000Y-31986396D02*
X123450000Y-26586396D01*
%TO.N,second_bottom*%
X124430761Y-83940700D02*
X122965758Y-85405703D01*
X122965757Y-85405704D02*
X122965758Y-85405703D01*
X124430760Y-76655705D02*
X124430761Y-83940700D01*
X120805758Y-85405704D02*
X122965757Y-85405704D01*
%TO.N,second_home*%
X120805762Y-67905704D02*
X120805761Y-67905704D01*
X124430760Y-66440702D02*
X122965758Y-67905704D01*
X124430764Y-59155705D02*
X124430760Y-66440702D01*
X122965758Y-67905704D02*
X120805762Y-67905704D01*
%TO.N,second_top*%
X124430762Y-41655706D02*
X124430760Y-48940703D01*
X124430760Y-48940703D02*
X122965763Y-50405703D01*
X122965762Y-50405703D02*
X122965763Y-50405703D01*
X120805763Y-50405706D02*
X122965762Y-50405703D01*
%TO.N,P115*%
X131380761Y-63455706D02*
X131380761Y-74368706D01*
X131380760Y-46379638D02*
X131380761Y-63455706D01*
X131380758Y-45955706D02*
X131380758Y-46379635D01*
X206087060Y-44664402D02*
X203535756Y-47215706D01*
X139772792Y-23700000D02*
X144572792Y-18900000D01*
X206087060Y-28378927D02*
X206087060Y-44664402D01*
X131380757Y-28455705D02*
X131380756Y-45955703D01*
X131380758Y-46379635D02*
X131380760Y-46379638D01*
X144572792Y-18900000D02*
X161958285Y-18900000D01*
X141467758Y-84455704D02*
X142880762Y-84455704D01*
X164497341Y-21439056D02*
X164497341Y-22970133D01*
X131380756Y-28455705D02*
X136136461Y-23700000D01*
X164497341Y-22970133D02*
X166227208Y-24700000D01*
X131380761Y-74368706D02*
X141467758Y-84455704D01*
X131380756Y-45955703D02*
X131380758Y-45955706D01*
X161958285Y-18900000D02*
X164497341Y-21439056D01*
X136136461Y-23700000D02*
X139772792Y-23700000D01*
X166227208Y-24700000D02*
X202408133Y-24700000D01*
X202408133Y-24700000D02*
X206087060Y-28378927D01*
%TO.N,third_bottom*%
X139305759Y-74405705D02*
X141465760Y-74405707D01*
X142930762Y-72940706D02*
X141465763Y-74405708D01*
X141465760Y-74405707D02*
X141465763Y-74405708D01*
X142930758Y-65655704D02*
X142930762Y-72940706D01*
%TO.N,third_home*%
X141465759Y-56905705D02*
X141465759Y-56905704D01*
X142930759Y-48155706D02*
X142930759Y-55440703D01*
X142930759Y-55440703D02*
X141465759Y-56905704D01*
X139305762Y-56905705D02*
X141465759Y-56905705D01*
%TO.N,third_top*%
X142930758Y-30655704D02*
X142930759Y-37940702D01*
X141465760Y-39405704D02*
X141465760Y-39405702D01*
X139305757Y-39405705D02*
X141465760Y-39405704D01*
X142930759Y-37940702D02*
X141465760Y-39405702D01*
%TO.N,P002*%
X149880758Y-40955699D02*
X149880759Y-40955702D01*
X205637060Y-28565323D02*
X205637060Y-42574402D01*
X149880759Y-58455704D02*
X149880757Y-71955702D01*
X161771889Y-19350000D02*
X164047341Y-21625452D01*
X149880757Y-41502482D02*
X149880759Y-58455704D01*
X205637060Y-42574402D02*
X203535756Y-44675706D01*
X164047341Y-21625452D02*
X164047341Y-23156529D01*
X149880758Y-23455703D02*
X153986461Y-19350000D01*
X149880759Y-40955702D02*
X149880759Y-41502479D01*
X164047341Y-23156529D02*
X166040812Y-25150000D01*
X166040812Y-25150000D02*
X202221737Y-25150000D01*
X149880758Y-23455703D02*
X149880758Y-40955699D01*
X149880757Y-71955702D02*
X161380761Y-83455704D01*
X202221737Y-25150000D02*
X205637060Y-28565323D01*
X149880759Y-41502479D02*
X149880757Y-41502482D01*
X153986461Y-19350000D02*
X161771889Y-19350000D01*
%TO.N,fourth_bottom*%
X157805759Y-69405707D02*
X159965754Y-69405707D01*
X159965754Y-69405707D02*
X159965758Y-69405706D01*
X161430757Y-60655705D02*
X161430757Y-67940706D01*
X161430757Y-67940706D02*
X159965758Y-69405706D01*
%TO.N,fourth_home*%
X157805762Y-51905705D02*
X159965757Y-51905703D01*
X159965757Y-51905703D02*
X159965759Y-51905703D01*
X161430760Y-50440705D02*
X159965759Y-51905703D01*
X161430764Y-43155704D02*
X161430760Y-50440705D01*
%TO.N,fourth_top*%
X157805763Y-34405708D02*
X159965756Y-34405706D01*
X161430755Y-25655702D02*
X161430758Y-32940706D01*
X161430758Y-32940706D02*
X159965758Y-34405707D01*
X159965756Y-34405706D02*
X159965758Y-34405707D01*
%TO.N,P029*%
X168380756Y-46955706D02*
X168380755Y-64455701D01*
X205187060Y-28751719D02*
X205187060Y-40484402D01*
X178689022Y-85676964D02*
X182389823Y-85676965D01*
X172236470Y-25600000D02*
X202035341Y-25600000D01*
X168380758Y-64455704D02*
X168380759Y-75368703D01*
X168380763Y-29455706D02*
X168380762Y-46955699D01*
X168380759Y-75368703D02*
X178689022Y-85676964D01*
X168380763Y-29455707D02*
X172236470Y-25600000D01*
X205187060Y-40484402D02*
X203535756Y-42135706D01*
X168380755Y-64455701D02*
X168380758Y-64455704D01*
X168380762Y-46955699D02*
X168380756Y-46955706D01*
X202035341Y-25600000D02*
X205187060Y-28751719D01*
%TO.N,fifth_bottom*%
X178465759Y-75405704D02*
X178465757Y-75405703D01*
X176305760Y-75405705D02*
X178465759Y-75405704D01*
X179930758Y-73940705D02*
X178465757Y-75405703D01*
X179930758Y-66655703D02*
X179930758Y-73940705D01*
%TO.N,fifth_home*%
X179930754Y-56440707D02*
X178465760Y-57905705D01*
X176305756Y-57905705D02*
X178465761Y-57905705D01*
X178465761Y-57905705D02*
X178465760Y-57905705D01*
X179930755Y-49155704D02*
X179930754Y-56440707D01*
%TO.N,fifth_top*%
X176305761Y-40405705D02*
X178465757Y-40405705D01*
X178465757Y-40405705D02*
X178465759Y-40405704D01*
X179930762Y-31655707D02*
X179930762Y-38940700D01*
X179930762Y-38940700D02*
X178465759Y-40405704D01*
%TO.N,P031*%
X186880759Y-48955704D02*
X186880760Y-48955705D01*
X204737060Y-28938115D02*
X204737060Y-38394402D01*
X186880757Y-77368702D02*
X202009529Y-92497473D01*
X202009529Y-92497473D02*
X202520347Y-92497472D01*
X201848945Y-26050000D02*
X204737060Y-28938115D01*
X192286464Y-26050000D02*
X201848945Y-26050000D01*
X204737060Y-38394402D02*
X203535756Y-39595706D01*
X186880760Y-48955705D02*
X186880760Y-66455701D01*
X186880759Y-31455705D02*
X192286464Y-26050000D01*
X186880760Y-66455701D02*
X186880759Y-66455702D01*
X186880759Y-66455702D02*
X186880757Y-77368702D01*
X186880759Y-31455705D02*
X186880759Y-48955704D01*
%TO.N,sixth_bottom*%
X198430758Y-75940706D02*
X196965762Y-77405703D01*
X196965762Y-77405704D02*
X196965762Y-77405703D01*
X198430756Y-68655705D02*
X198430758Y-75940706D01*
X194805759Y-77405707D02*
X196965762Y-77405704D01*
%TO.N,sixth_home*%
X194805761Y-59905707D02*
X196965758Y-59905705D01*
X198430759Y-58440707D02*
X196965758Y-59905704D01*
X196965758Y-59905705D02*
X196965758Y-59905704D01*
X198430760Y-51155704D02*
X198430759Y-58440707D01*
%TO.N,sixth_top*%
X196965759Y-42405707D02*
X194805757Y-42405707D01*
X198430761Y-40940706D02*
X196965759Y-42405707D01*
X198430760Y-33655704D02*
X198430761Y-40940706D01*
X194805757Y-42405707D02*
X194805757Y-42405708D01*
%TO.N,first_only*%
X154430760Y-86655705D02*
X154430762Y-93940705D01*
X152965757Y-95405705D02*
X152965758Y-95405703D01*
X154430762Y-93940705D02*
X152965758Y-95405703D01*
X150805761Y-95405705D02*
X152965757Y-95405705D01*
%TO.N,second_only*%
X172930760Y-85655705D02*
X172930763Y-92940705D01*
X171465760Y-94405707D02*
X171465761Y-94405707D01*
X169305760Y-94405705D02*
X171465760Y-94405707D01*
X172930763Y-92940705D02*
X171465761Y-94405707D01*
%TO.N,third_only*%
X193382327Y-89849180D02*
X192117300Y-97023504D01*
X188292982Y-97836771D02*
X188292981Y-97836769D01*
X192117300Y-97023504D02*
X190420166Y-98211851D01*
X190420166Y-98211854D02*
X188292982Y-97836771D01*
%TO.N,fourth_only*%
X208252026Y-106236382D02*
X206222290Y-105497618D01*
X212621352Y-98515130D02*
X210129734Y-105360792D01*
X206222290Y-105497618D02*
X206222293Y-105497614D01*
X210129734Y-105360792D02*
X208252026Y-106236382D01*
%TO.N,P009*%
X152345760Y-69405706D02*
X154505759Y-69405705D01*
X173005758Y-75405705D02*
X173005761Y-75405703D01*
X99005758Y-87405704D02*
X99005759Y-87405704D01*
X154505759Y-69405705D02*
X154505762Y-69405705D01*
X115345755Y-85405705D02*
X117505759Y-85405702D01*
X117505759Y-85405702D02*
X117505759Y-85405701D01*
X170845763Y-75405705D02*
X173005758Y-75405705D01*
X96845764Y-87405704D02*
X99005758Y-87405704D01*
X191505762Y-77405705D02*
X191505763Y-77405704D01*
X189345759Y-77405704D02*
X191505762Y-77405705D01*
X133845758Y-74405705D02*
X136005758Y-74405706D01*
X136005758Y-74405706D02*
X136005760Y-74405703D01*
%TO.N,P010*%
X189345762Y-59905706D02*
X191505760Y-59905704D01*
X191505760Y-59905704D02*
X191505761Y-59905703D01*
X154505757Y-51905704D02*
X154505757Y-51905703D01*
X115345763Y-67905700D02*
X115345762Y-67905701D01*
X133845761Y-56905701D02*
X136005759Y-56905702D01*
X96845758Y-69905703D02*
X99005758Y-69905704D01*
X136005759Y-56905702D02*
X136005760Y-56905702D01*
X99005758Y-69905704D02*
X99005759Y-69905703D01*
X152345760Y-51905705D02*
X154505757Y-51905704D01*
X170845758Y-57905706D02*
X173005761Y-57905702D01*
X117505758Y-67905702D02*
X115345763Y-67905700D01*
X173005761Y-57905702D02*
X173005760Y-57905701D01*
%TO.N,P111*%
X117505759Y-50405704D02*
X117505760Y-50405703D01*
X152345757Y-34405705D02*
X154505760Y-34405704D01*
X173005758Y-40405702D02*
X173005757Y-40405702D01*
X115345757Y-50405703D02*
X117505759Y-50405704D01*
X191505761Y-42405705D02*
X189345759Y-42405704D01*
X99005759Y-52405704D02*
X99005760Y-52405702D01*
X133845761Y-39405701D02*
X136005760Y-39405704D01*
X96845760Y-52405703D02*
X99005759Y-52405704D01*
X136005760Y-39405704D02*
X136005761Y-39405705D01*
X170845759Y-40405703D02*
X173005758Y-40405702D01*
X189345759Y-42405704D02*
X189345758Y-42405706D01*
X154505760Y-34405704D02*
X154505759Y-34405703D01*
%TO.N,P106*%
X185043112Y-97263732D02*
X182915932Y-96888651D01*
X147505759Y-95405705D02*
X147505758Y-95405703D01*
X182915932Y-96888651D02*
X182915930Y-96888649D01*
X166005760Y-94405706D02*
X166005762Y-94405706D01*
X201091569Y-103630186D02*
X201091571Y-103630183D01*
X145345760Y-95405701D02*
X147505759Y-95405705D01*
X163845763Y-94405705D02*
X166005760Y-94405706D01*
X203121305Y-104368952D02*
X201091569Y-103630186D01*
%TD*%
M02*
