%TF.GenerationSoftware,KiCad,Pcbnew,8.0.4*%
%TF.CreationDate,2024-08-22T13:25:46+01:00*%
%TF.ProjectId,left (v2 backup),6c656674-2028-4763-9220-6261636b7570,v1.0.0*%
%TF.SameCoordinates,Original*%
%TF.FileFunction,Legend,Bot*%
%TF.FilePolarity,Positive*%
%FSLAX46Y46*%
G04 Gerber Fmt 4.6, Leading zero omitted, Abs format (unit mm)*
G04 Created by KiCad (PCBNEW 8.0.4) date 2024-08-22 13:25:46*
%MOMM*%
%LPD*%
G01*
G04 APERTURE LIST*
%ADD10C,0.150000*%
%ADD11C,0.100000*%
%ADD12C,0.381000*%
%ADD13C,1.752600*%
G04 APERTURE END LIST*
D10*
X217492945Y-44268001D02*
X217416755Y-44268001D01*
X217416755Y-44268001D02*
X217340564Y-44306096D01*
X217340564Y-44306096D02*
X217302469Y-44344191D01*
X217302469Y-44344191D02*
X217264374Y-44420382D01*
X217264374Y-44420382D02*
X217226279Y-44572763D01*
X217226279Y-44572763D02*
X217226279Y-44763239D01*
X217226279Y-44763239D02*
X217264374Y-44915620D01*
X217264374Y-44915620D02*
X217302469Y-44991810D01*
X217302469Y-44991810D02*
X217340564Y-45029906D01*
X217340564Y-45029906D02*
X217416755Y-45068001D01*
X217416755Y-45068001D02*
X217492945Y-45068001D01*
X217492945Y-45068001D02*
X217569136Y-45029906D01*
X217569136Y-45029906D02*
X217607231Y-44991810D01*
X217607231Y-44991810D02*
X217645326Y-44915620D01*
X217645326Y-44915620D02*
X217683422Y-44763239D01*
X217683422Y-44763239D02*
X217683422Y-44572763D01*
X217683422Y-44572763D02*
X217645326Y-44420382D01*
X217645326Y-44420382D02*
X217607231Y-44344191D01*
X217607231Y-44344191D02*
X217569136Y-44306096D01*
X217569136Y-44306096D02*
X217492945Y-44268001D01*
X216921517Y-44344191D02*
X216883421Y-44306096D01*
X216883421Y-44306096D02*
X216807231Y-44268001D01*
X216807231Y-44268001D02*
X216616755Y-44268001D01*
X216616755Y-44268001D02*
X216540564Y-44306096D01*
X216540564Y-44306096D02*
X216502469Y-44344191D01*
X216502469Y-44344191D02*
X216464374Y-44420382D01*
X216464374Y-44420382D02*
X216464374Y-44496572D01*
X216464374Y-44496572D02*
X216502469Y-44610858D01*
X216502469Y-44610858D02*
X216959612Y-45068001D01*
X216959612Y-45068001D02*
X216464374Y-45068001D01*
X216159612Y-44344191D02*
X216121516Y-44306096D01*
X216121516Y-44306096D02*
X216045326Y-44268001D01*
X216045326Y-44268001D02*
X215854850Y-44268001D01*
X215854850Y-44268001D02*
X215778659Y-44306096D01*
X215778659Y-44306096D02*
X215740564Y-44344191D01*
X215740564Y-44344191D02*
X215702469Y-44420382D01*
X215702469Y-44420382D02*
X215702469Y-44496572D01*
X215702469Y-44496572D02*
X215740564Y-44610858D01*
X215740564Y-44610858D02*
X216197707Y-45068001D01*
X216197707Y-45068001D02*
X215702469Y-45068001D01*
X217492945Y-41768001D02*
X217416755Y-41768001D01*
X217416755Y-41768001D02*
X217340564Y-41806096D01*
X217340564Y-41806096D02*
X217302469Y-41844191D01*
X217302469Y-41844191D02*
X217264374Y-41920382D01*
X217264374Y-41920382D02*
X217226279Y-42072763D01*
X217226279Y-42072763D02*
X217226279Y-42263239D01*
X217226279Y-42263239D02*
X217264374Y-42415620D01*
X217264374Y-42415620D02*
X217302469Y-42491810D01*
X217302469Y-42491810D02*
X217340564Y-42529906D01*
X217340564Y-42529906D02*
X217416755Y-42568001D01*
X217416755Y-42568001D02*
X217492945Y-42568001D01*
X217492945Y-42568001D02*
X217569136Y-42529906D01*
X217569136Y-42529906D02*
X217607231Y-42491810D01*
X217607231Y-42491810D02*
X217645326Y-42415620D01*
X217645326Y-42415620D02*
X217683422Y-42263239D01*
X217683422Y-42263239D02*
X217683422Y-42072763D01*
X217683422Y-42072763D02*
X217645326Y-41920382D01*
X217645326Y-41920382D02*
X217607231Y-41844191D01*
X217607231Y-41844191D02*
X217569136Y-41806096D01*
X217569136Y-41806096D02*
X217492945Y-41768001D01*
X216921517Y-41844191D02*
X216883421Y-41806096D01*
X216883421Y-41806096D02*
X216807231Y-41768001D01*
X216807231Y-41768001D02*
X216616755Y-41768001D01*
X216616755Y-41768001D02*
X216540564Y-41806096D01*
X216540564Y-41806096D02*
X216502469Y-41844191D01*
X216502469Y-41844191D02*
X216464374Y-41920382D01*
X216464374Y-41920382D02*
X216464374Y-41996572D01*
X216464374Y-41996572D02*
X216502469Y-42110858D01*
X216502469Y-42110858D02*
X216959612Y-42568001D01*
X216959612Y-42568001D02*
X216464374Y-42568001D01*
X215969135Y-41768001D02*
X215892945Y-41768001D01*
X215892945Y-41768001D02*
X215816754Y-41806096D01*
X215816754Y-41806096D02*
X215778659Y-41844191D01*
X215778659Y-41844191D02*
X215740564Y-41920382D01*
X215740564Y-41920382D02*
X215702469Y-42072763D01*
X215702469Y-42072763D02*
X215702469Y-42263239D01*
X215702469Y-42263239D02*
X215740564Y-42415620D01*
X215740564Y-42415620D02*
X215778659Y-42491810D01*
X215778659Y-42491810D02*
X215816754Y-42529906D01*
X215816754Y-42529906D02*
X215892945Y-42568001D01*
X215892945Y-42568001D02*
X215969135Y-42568001D01*
X215969135Y-42568001D02*
X216045326Y-42529906D01*
X216045326Y-42529906D02*
X216083421Y-42491810D01*
X216083421Y-42491810D02*
X216121516Y-42415620D01*
X216121516Y-42415620D02*
X216159612Y-42263239D01*
X216159612Y-42263239D02*
X216159612Y-42072763D01*
X216159612Y-42072763D02*
X216121516Y-41920382D01*
X216121516Y-41920382D02*
X216083421Y-41844191D01*
X216083421Y-41844191D02*
X216045326Y-41806096D01*
X216045326Y-41806096D02*
X215969135Y-41768001D01*
X206234421Y-29798001D02*
X206501088Y-29417048D01*
X206691564Y-29798001D02*
X206691564Y-28998001D01*
X206691564Y-28998001D02*
X206386802Y-28998001D01*
X206386802Y-28998001D02*
X206310612Y-29036096D01*
X206310612Y-29036096D02*
X206272517Y-29074191D01*
X206272517Y-29074191D02*
X206234421Y-29150382D01*
X206234421Y-29150382D02*
X206234421Y-29264667D01*
X206234421Y-29264667D02*
X206272517Y-29340858D01*
X206272517Y-29340858D02*
X206310612Y-29378953D01*
X206310612Y-29378953D02*
X206386802Y-29417048D01*
X206386802Y-29417048D02*
X206691564Y-29417048D01*
X205929660Y-29569429D02*
X205548707Y-29569429D01*
X206005850Y-29798001D02*
X205739183Y-28998001D01*
X205739183Y-28998001D02*
X205472517Y-29798001D01*
X205282041Y-28998001D02*
X205091565Y-29798001D01*
X205091565Y-29798001D02*
X204939184Y-29226572D01*
X204939184Y-29226572D02*
X204786803Y-29798001D01*
X204786803Y-29798001D02*
X204596327Y-28998001D01*
X217226278Y-36656096D02*
X217302468Y-36618001D01*
X217302468Y-36618001D02*
X217416754Y-36618001D01*
X217416754Y-36618001D02*
X217531040Y-36656096D01*
X217531040Y-36656096D02*
X217607230Y-36732286D01*
X217607230Y-36732286D02*
X217645325Y-36808477D01*
X217645325Y-36808477D02*
X217683421Y-36960858D01*
X217683421Y-36960858D02*
X217683421Y-37075144D01*
X217683421Y-37075144D02*
X217645325Y-37227525D01*
X217645325Y-37227525D02*
X217607230Y-37303715D01*
X217607230Y-37303715D02*
X217531040Y-37379906D01*
X217531040Y-37379906D02*
X217416754Y-37418001D01*
X217416754Y-37418001D02*
X217340563Y-37418001D01*
X217340563Y-37418001D02*
X217226278Y-37379906D01*
X217226278Y-37379906D02*
X217188182Y-37341810D01*
X217188182Y-37341810D02*
X217188182Y-37075144D01*
X217188182Y-37075144D02*
X217340563Y-37075144D01*
X216845325Y-37418001D02*
X216845325Y-36618001D01*
X216845325Y-36618001D02*
X216388182Y-37418001D01*
X216388182Y-37418001D02*
X216388182Y-36618001D01*
X216007230Y-37418001D02*
X216007230Y-36618001D01*
X216007230Y-36618001D02*
X215816754Y-36618001D01*
X215816754Y-36618001D02*
X215702468Y-36656096D01*
X215702468Y-36656096D02*
X215626278Y-36732286D01*
X215626278Y-36732286D02*
X215588183Y-36808477D01*
X215588183Y-36808477D02*
X215550087Y-36960858D01*
X215550087Y-36960858D02*
X215550087Y-37075144D01*
X215550087Y-37075144D02*
X215588183Y-37227525D01*
X215588183Y-37227525D02*
X215626278Y-37303715D01*
X215626278Y-37303715D02*
X215702468Y-37379906D01*
X215702468Y-37379906D02*
X215816754Y-37418001D01*
X215816754Y-37418001D02*
X216007230Y-37418001D01*
X206310612Y-31576096D02*
X206386802Y-31538001D01*
X206386802Y-31538001D02*
X206501088Y-31538001D01*
X206501088Y-31538001D02*
X206615374Y-31576096D01*
X206615374Y-31576096D02*
X206691564Y-31652286D01*
X206691564Y-31652286D02*
X206729659Y-31728477D01*
X206729659Y-31728477D02*
X206767755Y-31880858D01*
X206767755Y-31880858D02*
X206767755Y-31995144D01*
X206767755Y-31995144D02*
X206729659Y-32147525D01*
X206729659Y-32147525D02*
X206691564Y-32223715D01*
X206691564Y-32223715D02*
X206615374Y-32299906D01*
X206615374Y-32299906D02*
X206501088Y-32338001D01*
X206501088Y-32338001D02*
X206424897Y-32338001D01*
X206424897Y-32338001D02*
X206310612Y-32299906D01*
X206310612Y-32299906D02*
X206272516Y-32261810D01*
X206272516Y-32261810D02*
X206272516Y-31995144D01*
X206272516Y-31995144D02*
X206424897Y-31995144D01*
X205929659Y-32338001D02*
X205929659Y-31538001D01*
X205929659Y-31538001D02*
X205472516Y-32338001D01*
X205472516Y-32338001D02*
X205472516Y-31538001D01*
X205091564Y-32338001D02*
X205091564Y-31538001D01*
X205091564Y-31538001D02*
X204901088Y-31538001D01*
X204901088Y-31538001D02*
X204786802Y-31576096D01*
X204786802Y-31576096D02*
X204710612Y-31652286D01*
X204710612Y-31652286D02*
X204672517Y-31728477D01*
X204672517Y-31728477D02*
X204634421Y-31880858D01*
X204634421Y-31880858D02*
X204634421Y-31995144D01*
X204634421Y-31995144D02*
X204672517Y-32147525D01*
X204672517Y-32147525D02*
X204710612Y-32223715D01*
X204710612Y-32223715D02*
X204786802Y-32299906D01*
X204786802Y-32299906D02*
X204901088Y-32338001D01*
X204901088Y-32338001D02*
X205091564Y-32338001D01*
X206418564Y-54398001D02*
X206342374Y-54398001D01*
X206342374Y-54398001D02*
X206266183Y-54436096D01*
X206266183Y-54436096D02*
X206228088Y-54474191D01*
X206228088Y-54474191D02*
X206189993Y-54550382D01*
X206189993Y-54550382D02*
X206151898Y-54702763D01*
X206151898Y-54702763D02*
X206151898Y-54893239D01*
X206151898Y-54893239D02*
X206189993Y-55045620D01*
X206189993Y-55045620D02*
X206228088Y-55121810D01*
X206228088Y-55121810D02*
X206266183Y-55159906D01*
X206266183Y-55159906D02*
X206342374Y-55198001D01*
X206342374Y-55198001D02*
X206418564Y-55198001D01*
X206418564Y-55198001D02*
X206494755Y-55159906D01*
X206494755Y-55159906D02*
X206532850Y-55121810D01*
X206532850Y-55121810D02*
X206570945Y-55045620D01*
X206570945Y-55045620D02*
X206609041Y-54893239D01*
X206609041Y-54893239D02*
X206609041Y-54702763D01*
X206609041Y-54702763D02*
X206570945Y-54550382D01*
X206570945Y-54550382D02*
X206532850Y-54474191D01*
X206532850Y-54474191D02*
X206494755Y-54436096D01*
X206494755Y-54436096D02*
X206418564Y-54398001D01*
X205389993Y-55198001D02*
X205847136Y-55198001D01*
X205618564Y-55198001D02*
X205618564Y-54398001D01*
X205618564Y-54398001D02*
X205694755Y-54512286D01*
X205694755Y-54512286D02*
X205770945Y-54588477D01*
X205770945Y-54588477D02*
X205847136Y-54626572D01*
X204894754Y-54398001D02*
X204818564Y-54398001D01*
X204818564Y-54398001D02*
X204742373Y-54436096D01*
X204742373Y-54436096D02*
X204704278Y-54474191D01*
X204704278Y-54474191D02*
X204666183Y-54550382D01*
X204666183Y-54550382D02*
X204628088Y-54702763D01*
X204628088Y-54702763D02*
X204628088Y-54893239D01*
X204628088Y-54893239D02*
X204666183Y-55045620D01*
X204666183Y-55045620D02*
X204704278Y-55121810D01*
X204704278Y-55121810D02*
X204742373Y-55159906D01*
X204742373Y-55159906D02*
X204818564Y-55198001D01*
X204818564Y-55198001D02*
X204894754Y-55198001D01*
X204894754Y-55198001D02*
X204970945Y-55159906D01*
X204970945Y-55159906D02*
X205009040Y-55121810D01*
X205009040Y-55121810D02*
X205047135Y-55045620D01*
X205047135Y-55045620D02*
X205085231Y-54893239D01*
X205085231Y-54893239D02*
X205085231Y-54702763D01*
X205085231Y-54702763D02*
X205047135Y-54550382D01*
X205047135Y-54550382D02*
X205009040Y-54474191D01*
X205009040Y-54474191D02*
X204970945Y-54436096D01*
X204970945Y-54436096D02*
X204894754Y-54398001D01*
X206151898Y-52658001D02*
X206609041Y-52658001D01*
X206380469Y-52658001D02*
X206380469Y-51858001D01*
X206380469Y-51858001D02*
X206456660Y-51972286D01*
X206456660Y-51972286D02*
X206532850Y-52048477D01*
X206532850Y-52048477D02*
X206609041Y-52086572D01*
X205389993Y-52658001D02*
X205847136Y-52658001D01*
X205618564Y-52658001D02*
X205618564Y-51858001D01*
X205618564Y-51858001D02*
X205694755Y-51972286D01*
X205694755Y-51972286D02*
X205770945Y-52048477D01*
X205770945Y-52048477D02*
X205847136Y-52086572D01*
X204628088Y-52658001D02*
X205085231Y-52658001D01*
X204856659Y-52658001D02*
X204856659Y-51858001D01*
X204856659Y-51858001D02*
X204932850Y-51972286D01*
X204932850Y-51972286D02*
X205009040Y-52048477D01*
X205009040Y-52048477D02*
X205085231Y-52086572D01*
X206005850Y-34878001D02*
X206272517Y-34497048D01*
X206462993Y-34878001D02*
X206462993Y-34078001D01*
X206462993Y-34078001D02*
X206158231Y-34078001D01*
X206158231Y-34078001D02*
X206082041Y-34116096D01*
X206082041Y-34116096D02*
X206043946Y-34154191D01*
X206043946Y-34154191D02*
X206005850Y-34230382D01*
X206005850Y-34230382D02*
X206005850Y-34344667D01*
X206005850Y-34344667D02*
X206043946Y-34420858D01*
X206043946Y-34420858D02*
X206082041Y-34458953D01*
X206082041Y-34458953D02*
X206158231Y-34497048D01*
X206158231Y-34497048D02*
X206462993Y-34497048D01*
X205701089Y-34839906D02*
X205586803Y-34878001D01*
X205586803Y-34878001D02*
X205396327Y-34878001D01*
X205396327Y-34878001D02*
X205320136Y-34839906D01*
X205320136Y-34839906D02*
X205282041Y-34801810D01*
X205282041Y-34801810D02*
X205243946Y-34725620D01*
X205243946Y-34725620D02*
X205243946Y-34649429D01*
X205243946Y-34649429D02*
X205282041Y-34573239D01*
X205282041Y-34573239D02*
X205320136Y-34535144D01*
X205320136Y-34535144D02*
X205396327Y-34497048D01*
X205396327Y-34497048D02*
X205548708Y-34458953D01*
X205548708Y-34458953D02*
X205624898Y-34420858D01*
X205624898Y-34420858D02*
X205662993Y-34382763D01*
X205662993Y-34382763D02*
X205701089Y-34306572D01*
X205701089Y-34306572D02*
X205701089Y-34230382D01*
X205701089Y-34230382D02*
X205662993Y-34154191D01*
X205662993Y-34154191D02*
X205624898Y-34116096D01*
X205624898Y-34116096D02*
X205548708Y-34078001D01*
X205548708Y-34078001D02*
X205358231Y-34078001D01*
X205358231Y-34078001D02*
X205243946Y-34116096D01*
X205015374Y-34078001D02*
X204558231Y-34078001D01*
X204786803Y-34878001D02*
X204786803Y-34078001D01*
X206151898Y-50118001D02*
X206609041Y-50118001D01*
X206380469Y-50118001D02*
X206380469Y-49318001D01*
X206380469Y-49318001D02*
X206456660Y-49432286D01*
X206456660Y-49432286D02*
X206532850Y-49508477D01*
X206532850Y-49508477D02*
X206609041Y-49546572D01*
X205389993Y-50118001D02*
X205847136Y-50118001D01*
X205618564Y-50118001D02*
X205618564Y-49318001D01*
X205618564Y-49318001D02*
X205694755Y-49432286D01*
X205694755Y-49432286D02*
X205770945Y-49508477D01*
X205770945Y-49508477D02*
X205847136Y-49546572D01*
X205123326Y-49318001D02*
X204628088Y-49318001D01*
X204628088Y-49318001D02*
X204894754Y-49622763D01*
X204894754Y-49622763D02*
X204780469Y-49622763D01*
X204780469Y-49622763D02*
X204704278Y-49660858D01*
X204704278Y-49660858D02*
X204666183Y-49698953D01*
X204666183Y-49698953D02*
X204628088Y-49775144D01*
X204628088Y-49775144D02*
X204628088Y-49965620D01*
X204628088Y-49965620D02*
X204666183Y-50041810D01*
X204666183Y-50041810D02*
X204704278Y-50079906D01*
X204704278Y-50079906D02*
X204780469Y-50118001D01*
X204780469Y-50118001D02*
X205009040Y-50118001D01*
X205009040Y-50118001D02*
X205085231Y-50079906D01*
X205085231Y-50079906D02*
X205123326Y-50041810D01*
X217492945Y-46778001D02*
X217416755Y-46778001D01*
X217416755Y-46778001D02*
X217340564Y-46816096D01*
X217340564Y-46816096D02*
X217302469Y-46854191D01*
X217302469Y-46854191D02*
X217264374Y-46930382D01*
X217264374Y-46930382D02*
X217226279Y-47082763D01*
X217226279Y-47082763D02*
X217226279Y-47273239D01*
X217226279Y-47273239D02*
X217264374Y-47425620D01*
X217264374Y-47425620D02*
X217302469Y-47501810D01*
X217302469Y-47501810D02*
X217340564Y-47539906D01*
X217340564Y-47539906D02*
X217416755Y-47578001D01*
X217416755Y-47578001D02*
X217492945Y-47578001D01*
X217492945Y-47578001D02*
X217569136Y-47539906D01*
X217569136Y-47539906D02*
X217607231Y-47501810D01*
X217607231Y-47501810D02*
X217645326Y-47425620D01*
X217645326Y-47425620D02*
X217683422Y-47273239D01*
X217683422Y-47273239D02*
X217683422Y-47082763D01*
X217683422Y-47082763D02*
X217645326Y-46930382D01*
X217645326Y-46930382D02*
X217607231Y-46854191D01*
X217607231Y-46854191D02*
X217569136Y-46816096D01*
X217569136Y-46816096D02*
X217492945Y-46778001D01*
X216921517Y-46854191D02*
X216883421Y-46816096D01*
X216883421Y-46816096D02*
X216807231Y-46778001D01*
X216807231Y-46778001D02*
X216616755Y-46778001D01*
X216616755Y-46778001D02*
X216540564Y-46816096D01*
X216540564Y-46816096D02*
X216502469Y-46854191D01*
X216502469Y-46854191D02*
X216464374Y-46930382D01*
X216464374Y-46930382D02*
X216464374Y-47006572D01*
X216464374Y-47006572D02*
X216502469Y-47120858D01*
X216502469Y-47120858D02*
X216959612Y-47578001D01*
X216959612Y-47578001D02*
X216464374Y-47578001D01*
X215778659Y-47044667D02*
X215778659Y-47578001D01*
X215969135Y-46739906D02*
X216159612Y-47311334D01*
X216159612Y-47311334D02*
X215664373Y-47311334D01*
X217492945Y-31468001D02*
X217416755Y-31468001D01*
X217416755Y-31468001D02*
X217340564Y-31506096D01*
X217340564Y-31506096D02*
X217302469Y-31544191D01*
X217302469Y-31544191D02*
X217264374Y-31620382D01*
X217264374Y-31620382D02*
X217226279Y-31772763D01*
X217226279Y-31772763D02*
X217226279Y-31963239D01*
X217226279Y-31963239D02*
X217264374Y-32115620D01*
X217264374Y-32115620D02*
X217302469Y-32191810D01*
X217302469Y-32191810D02*
X217340564Y-32229906D01*
X217340564Y-32229906D02*
X217416755Y-32268001D01*
X217416755Y-32268001D02*
X217492945Y-32268001D01*
X217492945Y-32268001D02*
X217569136Y-32229906D01*
X217569136Y-32229906D02*
X217607231Y-32191810D01*
X217607231Y-32191810D02*
X217645326Y-32115620D01*
X217645326Y-32115620D02*
X217683422Y-31963239D01*
X217683422Y-31963239D02*
X217683422Y-31772763D01*
X217683422Y-31772763D02*
X217645326Y-31620382D01*
X217645326Y-31620382D02*
X217607231Y-31544191D01*
X217607231Y-31544191D02*
X217569136Y-31506096D01*
X217569136Y-31506096D02*
X217492945Y-31468001D01*
X216731040Y-31468001D02*
X216654850Y-31468001D01*
X216654850Y-31468001D02*
X216578659Y-31506096D01*
X216578659Y-31506096D02*
X216540564Y-31544191D01*
X216540564Y-31544191D02*
X216502469Y-31620382D01*
X216502469Y-31620382D02*
X216464374Y-31772763D01*
X216464374Y-31772763D02*
X216464374Y-31963239D01*
X216464374Y-31963239D02*
X216502469Y-32115620D01*
X216502469Y-32115620D02*
X216540564Y-32191810D01*
X216540564Y-32191810D02*
X216578659Y-32229906D01*
X216578659Y-32229906D02*
X216654850Y-32268001D01*
X216654850Y-32268001D02*
X216731040Y-32268001D01*
X216731040Y-32268001D02*
X216807231Y-32229906D01*
X216807231Y-32229906D02*
X216845326Y-32191810D01*
X216845326Y-32191810D02*
X216883421Y-32115620D01*
X216883421Y-32115620D02*
X216921517Y-31963239D01*
X216921517Y-31963239D02*
X216921517Y-31772763D01*
X216921517Y-31772763D02*
X216883421Y-31620382D01*
X216883421Y-31620382D02*
X216845326Y-31544191D01*
X216845326Y-31544191D02*
X216807231Y-31506096D01*
X216807231Y-31506096D02*
X216731040Y-31468001D01*
X216007231Y-31810858D02*
X216083421Y-31772763D01*
X216083421Y-31772763D02*
X216121516Y-31734667D01*
X216121516Y-31734667D02*
X216159612Y-31658477D01*
X216159612Y-31658477D02*
X216159612Y-31620382D01*
X216159612Y-31620382D02*
X216121516Y-31544191D01*
X216121516Y-31544191D02*
X216083421Y-31506096D01*
X216083421Y-31506096D02*
X216007231Y-31468001D01*
X216007231Y-31468001D02*
X215854850Y-31468001D01*
X215854850Y-31468001D02*
X215778659Y-31506096D01*
X215778659Y-31506096D02*
X215740564Y-31544191D01*
X215740564Y-31544191D02*
X215702469Y-31620382D01*
X215702469Y-31620382D02*
X215702469Y-31658477D01*
X215702469Y-31658477D02*
X215740564Y-31734667D01*
X215740564Y-31734667D02*
X215778659Y-31772763D01*
X215778659Y-31772763D02*
X215854850Y-31810858D01*
X215854850Y-31810858D02*
X216007231Y-31810858D01*
X216007231Y-31810858D02*
X216083421Y-31848953D01*
X216083421Y-31848953D02*
X216121516Y-31887048D01*
X216121516Y-31887048D02*
X216159612Y-31963239D01*
X216159612Y-31963239D02*
X216159612Y-32115620D01*
X216159612Y-32115620D02*
X216121516Y-32191810D01*
X216121516Y-32191810D02*
X216083421Y-32229906D01*
X216083421Y-32229906D02*
X216007231Y-32268001D01*
X216007231Y-32268001D02*
X215854850Y-32268001D01*
X215854850Y-32268001D02*
X215778659Y-32229906D01*
X215778659Y-32229906D02*
X215740564Y-32191810D01*
X215740564Y-32191810D02*
X215702469Y-32115620D01*
X215702469Y-32115620D02*
X215702469Y-31963239D01*
X215702469Y-31963239D02*
X215740564Y-31887048D01*
X215740564Y-31887048D02*
X215778659Y-31848953D01*
X215778659Y-31848953D02*
X215854850Y-31810858D01*
X206151898Y-47578001D02*
X206609041Y-47578001D01*
X206380469Y-47578001D02*
X206380469Y-46778001D01*
X206380469Y-46778001D02*
X206456660Y-46892286D01*
X206456660Y-46892286D02*
X206532850Y-46968477D01*
X206532850Y-46968477D02*
X206609041Y-47006572D01*
X205389993Y-47578001D02*
X205847136Y-47578001D01*
X205618564Y-47578001D02*
X205618564Y-46778001D01*
X205618564Y-46778001D02*
X205694755Y-46892286D01*
X205694755Y-46892286D02*
X205770945Y-46968477D01*
X205770945Y-46968477D02*
X205847136Y-47006572D01*
X204666183Y-46778001D02*
X205047135Y-46778001D01*
X205047135Y-46778001D02*
X205085231Y-47158953D01*
X205085231Y-47158953D02*
X205047135Y-47120858D01*
X205047135Y-47120858D02*
X204970945Y-47082763D01*
X204970945Y-47082763D02*
X204780469Y-47082763D01*
X204780469Y-47082763D02*
X204704278Y-47120858D01*
X204704278Y-47120858D02*
X204666183Y-47158953D01*
X204666183Y-47158953D02*
X204628088Y-47235144D01*
X204628088Y-47235144D02*
X204628088Y-47425620D01*
X204628088Y-47425620D02*
X204666183Y-47501810D01*
X204666183Y-47501810D02*
X204704278Y-47539906D01*
X204704278Y-47539906D02*
X204780469Y-47578001D01*
X204780469Y-47578001D02*
X204970945Y-47578001D01*
X204970945Y-47578001D02*
X205047135Y-47539906D01*
X205047135Y-47539906D02*
X205085231Y-47501810D01*
X217226279Y-55197998D02*
X217683422Y-55197998D01*
X217454850Y-55197998D02*
X217454850Y-54397998D01*
X217454850Y-54397998D02*
X217531041Y-54512283D01*
X217531041Y-54512283D02*
X217607231Y-54588474D01*
X217607231Y-54588474D02*
X217683422Y-54626569D01*
X216731040Y-54397998D02*
X216654850Y-54397998D01*
X216654850Y-54397998D02*
X216578659Y-54436093D01*
X216578659Y-54436093D02*
X216540564Y-54474188D01*
X216540564Y-54474188D02*
X216502469Y-54550379D01*
X216502469Y-54550379D02*
X216464374Y-54702760D01*
X216464374Y-54702760D02*
X216464374Y-54893236D01*
X216464374Y-54893236D02*
X216502469Y-55045617D01*
X216502469Y-55045617D02*
X216540564Y-55121807D01*
X216540564Y-55121807D02*
X216578659Y-55159903D01*
X216578659Y-55159903D02*
X216654850Y-55197998D01*
X216654850Y-55197998D02*
X216731040Y-55197998D01*
X216731040Y-55197998D02*
X216807231Y-55159903D01*
X216807231Y-55159903D02*
X216845326Y-55121807D01*
X216845326Y-55121807D02*
X216883421Y-55045617D01*
X216883421Y-55045617D02*
X216921517Y-54893236D01*
X216921517Y-54893236D02*
X216921517Y-54702760D01*
X216921517Y-54702760D02*
X216883421Y-54550379D01*
X216883421Y-54550379D02*
X216845326Y-54474188D01*
X216845326Y-54474188D02*
X216807231Y-54436093D01*
X216807231Y-54436093D02*
X216731040Y-54397998D01*
X215778659Y-54664664D02*
X215778659Y-55197998D01*
X215969135Y-54359903D02*
X216159612Y-54931331D01*
X216159612Y-54931331D02*
X215664373Y-54931331D01*
X206418564Y-44238001D02*
X206342374Y-44238001D01*
X206342374Y-44238001D02*
X206266183Y-44276096D01*
X206266183Y-44276096D02*
X206228088Y-44314191D01*
X206228088Y-44314191D02*
X206189993Y-44390382D01*
X206189993Y-44390382D02*
X206151898Y-44542763D01*
X206151898Y-44542763D02*
X206151898Y-44733239D01*
X206151898Y-44733239D02*
X206189993Y-44885620D01*
X206189993Y-44885620D02*
X206228088Y-44961810D01*
X206228088Y-44961810D02*
X206266183Y-44999906D01*
X206266183Y-44999906D02*
X206342374Y-45038001D01*
X206342374Y-45038001D02*
X206418564Y-45038001D01*
X206418564Y-45038001D02*
X206494755Y-44999906D01*
X206494755Y-44999906D02*
X206532850Y-44961810D01*
X206532850Y-44961810D02*
X206570945Y-44885620D01*
X206570945Y-44885620D02*
X206609041Y-44733239D01*
X206609041Y-44733239D02*
X206609041Y-44542763D01*
X206609041Y-44542763D02*
X206570945Y-44390382D01*
X206570945Y-44390382D02*
X206532850Y-44314191D01*
X206532850Y-44314191D02*
X206494755Y-44276096D01*
X206494755Y-44276096D02*
X206418564Y-44238001D01*
X205656659Y-44238001D02*
X205580469Y-44238001D01*
X205580469Y-44238001D02*
X205504278Y-44276096D01*
X205504278Y-44276096D02*
X205466183Y-44314191D01*
X205466183Y-44314191D02*
X205428088Y-44390382D01*
X205428088Y-44390382D02*
X205389993Y-44542763D01*
X205389993Y-44542763D02*
X205389993Y-44733239D01*
X205389993Y-44733239D02*
X205428088Y-44885620D01*
X205428088Y-44885620D02*
X205466183Y-44961810D01*
X205466183Y-44961810D02*
X205504278Y-44999906D01*
X205504278Y-44999906D02*
X205580469Y-45038001D01*
X205580469Y-45038001D02*
X205656659Y-45038001D01*
X205656659Y-45038001D02*
X205732850Y-44999906D01*
X205732850Y-44999906D02*
X205770945Y-44961810D01*
X205770945Y-44961810D02*
X205809040Y-44885620D01*
X205809040Y-44885620D02*
X205847136Y-44733239D01*
X205847136Y-44733239D02*
X205847136Y-44542763D01*
X205847136Y-44542763D02*
X205809040Y-44390382D01*
X205809040Y-44390382D02*
X205770945Y-44314191D01*
X205770945Y-44314191D02*
X205732850Y-44276096D01*
X205732850Y-44276096D02*
X205656659Y-44238001D01*
X205085231Y-44314191D02*
X205047135Y-44276096D01*
X205047135Y-44276096D02*
X204970945Y-44238001D01*
X204970945Y-44238001D02*
X204780469Y-44238001D01*
X204780469Y-44238001D02*
X204704278Y-44276096D01*
X204704278Y-44276096D02*
X204666183Y-44314191D01*
X204666183Y-44314191D02*
X204628088Y-44390382D01*
X204628088Y-44390382D02*
X204628088Y-44466572D01*
X204628088Y-44466572D02*
X204666183Y-44580858D01*
X204666183Y-44580858D02*
X205123326Y-45038001D01*
X205123326Y-45038001D02*
X204628088Y-45038001D01*
X217226279Y-34116096D02*
X217302469Y-34078001D01*
X217302469Y-34078001D02*
X217416755Y-34078001D01*
X217416755Y-34078001D02*
X217531041Y-34116096D01*
X217531041Y-34116096D02*
X217607231Y-34192286D01*
X217607231Y-34192286D02*
X217645326Y-34268477D01*
X217645326Y-34268477D02*
X217683422Y-34420858D01*
X217683422Y-34420858D02*
X217683422Y-34535144D01*
X217683422Y-34535144D02*
X217645326Y-34687525D01*
X217645326Y-34687525D02*
X217607231Y-34763715D01*
X217607231Y-34763715D02*
X217531041Y-34839906D01*
X217531041Y-34839906D02*
X217416755Y-34878001D01*
X217416755Y-34878001D02*
X217340564Y-34878001D01*
X217340564Y-34878001D02*
X217226279Y-34839906D01*
X217226279Y-34839906D02*
X217188183Y-34801810D01*
X217188183Y-34801810D02*
X217188183Y-34535144D01*
X217188183Y-34535144D02*
X217340564Y-34535144D01*
X216845326Y-34878001D02*
X216845326Y-34078001D01*
X216845326Y-34078001D02*
X216388183Y-34878001D01*
X216388183Y-34878001D02*
X216388183Y-34078001D01*
X216007231Y-34878001D02*
X216007231Y-34078001D01*
X216007231Y-34078001D02*
X215816755Y-34078001D01*
X215816755Y-34078001D02*
X215702469Y-34116096D01*
X215702469Y-34116096D02*
X215626279Y-34192286D01*
X215626279Y-34192286D02*
X215588184Y-34268477D01*
X215588184Y-34268477D02*
X215550088Y-34420858D01*
X215550088Y-34420858D02*
X215550088Y-34535144D01*
X215550088Y-34535144D02*
X215588184Y-34687525D01*
X215588184Y-34687525D02*
X215626279Y-34763715D01*
X215626279Y-34763715D02*
X215702469Y-34839906D01*
X215702469Y-34839906D02*
X215816755Y-34878001D01*
X215816755Y-34878001D02*
X216007231Y-34878001D01*
X217226279Y-50118001D02*
X217683422Y-50118001D01*
X217454850Y-50118001D02*
X217454850Y-49318001D01*
X217454850Y-49318001D02*
X217531041Y-49432286D01*
X217531041Y-49432286D02*
X217607231Y-49508477D01*
X217607231Y-49508477D02*
X217683422Y-49546572D01*
X216731040Y-49318001D02*
X216654850Y-49318001D01*
X216654850Y-49318001D02*
X216578659Y-49356096D01*
X216578659Y-49356096D02*
X216540564Y-49394191D01*
X216540564Y-49394191D02*
X216502469Y-49470382D01*
X216502469Y-49470382D02*
X216464374Y-49622763D01*
X216464374Y-49622763D02*
X216464374Y-49813239D01*
X216464374Y-49813239D02*
X216502469Y-49965620D01*
X216502469Y-49965620D02*
X216540564Y-50041810D01*
X216540564Y-50041810D02*
X216578659Y-50079906D01*
X216578659Y-50079906D02*
X216654850Y-50118001D01*
X216654850Y-50118001D02*
X216731040Y-50118001D01*
X216731040Y-50118001D02*
X216807231Y-50079906D01*
X216807231Y-50079906D02*
X216845326Y-50041810D01*
X216845326Y-50041810D02*
X216883421Y-49965620D01*
X216883421Y-49965620D02*
X216921517Y-49813239D01*
X216921517Y-49813239D02*
X216921517Y-49622763D01*
X216921517Y-49622763D02*
X216883421Y-49470382D01*
X216883421Y-49470382D02*
X216845326Y-49394191D01*
X216845326Y-49394191D02*
X216807231Y-49356096D01*
X216807231Y-49356096D02*
X216731040Y-49318001D01*
X215969135Y-49318001D02*
X215892945Y-49318001D01*
X215892945Y-49318001D02*
X215816754Y-49356096D01*
X215816754Y-49356096D02*
X215778659Y-49394191D01*
X215778659Y-49394191D02*
X215740564Y-49470382D01*
X215740564Y-49470382D02*
X215702469Y-49622763D01*
X215702469Y-49622763D02*
X215702469Y-49813239D01*
X215702469Y-49813239D02*
X215740564Y-49965620D01*
X215740564Y-49965620D02*
X215778659Y-50041810D01*
X215778659Y-50041810D02*
X215816754Y-50079906D01*
X215816754Y-50079906D02*
X215892945Y-50118001D01*
X215892945Y-50118001D02*
X215969135Y-50118001D01*
X215969135Y-50118001D02*
X216045326Y-50079906D01*
X216045326Y-50079906D02*
X216083421Y-50041810D01*
X216083421Y-50041810D02*
X216121516Y-49965620D01*
X216121516Y-49965620D02*
X216159612Y-49813239D01*
X216159612Y-49813239D02*
X216159612Y-49622763D01*
X216159612Y-49622763D02*
X216121516Y-49470382D01*
X216121516Y-49470382D02*
X216083421Y-49394191D01*
X216083421Y-49394191D02*
X216045326Y-49356096D01*
X216045326Y-49356096D02*
X215969135Y-49318001D01*
X217492945Y-39168001D02*
X217416755Y-39168001D01*
X217416755Y-39168001D02*
X217340564Y-39206096D01*
X217340564Y-39206096D02*
X217302469Y-39244191D01*
X217302469Y-39244191D02*
X217264374Y-39320382D01*
X217264374Y-39320382D02*
X217226279Y-39472763D01*
X217226279Y-39472763D02*
X217226279Y-39663239D01*
X217226279Y-39663239D02*
X217264374Y-39815620D01*
X217264374Y-39815620D02*
X217302469Y-39891810D01*
X217302469Y-39891810D02*
X217340564Y-39929906D01*
X217340564Y-39929906D02*
X217416755Y-39968001D01*
X217416755Y-39968001D02*
X217492945Y-39968001D01*
X217492945Y-39968001D02*
X217569136Y-39929906D01*
X217569136Y-39929906D02*
X217607231Y-39891810D01*
X217607231Y-39891810D02*
X217645326Y-39815620D01*
X217645326Y-39815620D02*
X217683422Y-39663239D01*
X217683422Y-39663239D02*
X217683422Y-39472763D01*
X217683422Y-39472763D02*
X217645326Y-39320382D01*
X217645326Y-39320382D02*
X217607231Y-39244191D01*
X217607231Y-39244191D02*
X217569136Y-39206096D01*
X217569136Y-39206096D02*
X217492945Y-39168001D01*
X216464374Y-39968001D02*
X216921517Y-39968001D01*
X216692945Y-39968001D02*
X216692945Y-39168001D01*
X216692945Y-39168001D02*
X216769136Y-39282286D01*
X216769136Y-39282286D02*
X216845326Y-39358477D01*
X216845326Y-39358477D02*
X216921517Y-39396572D01*
X216197707Y-39168001D02*
X215664373Y-39168001D01*
X215664373Y-39168001D02*
X216007231Y-39968001D01*
X206685231Y-36618001D02*
X206418564Y-37418001D01*
X206418564Y-37418001D02*
X206151898Y-36618001D01*
X205428088Y-37341810D02*
X205466184Y-37379906D01*
X205466184Y-37379906D02*
X205580469Y-37418001D01*
X205580469Y-37418001D02*
X205656660Y-37418001D01*
X205656660Y-37418001D02*
X205770946Y-37379906D01*
X205770946Y-37379906D02*
X205847136Y-37303715D01*
X205847136Y-37303715D02*
X205885231Y-37227525D01*
X205885231Y-37227525D02*
X205923327Y-37075144D01*
X205923327Y-37075144D02*
X205923327Y-36960858D01*
X205923327Y-36960858D02*
X205885231Y-36808477D01*
X205885231Y-36808477D02*
X205847136Y-36732286D01*
X205847136Y-36732286D02*
X205770946Y-36656096D01*
X205770946Y-36656096D02*
X205656660Y-36618001D01*
X205656660Y-36618001D02*
X205580469Y-36618001D01*
X205580469Y-36618001D02*
X205466184Y-36656096D01*
X205466184Y-36656096D02*
X205428088Y-36694191D01*
X204628088Y-37341810D02*
X204666184Y-37379906D01*
X204666184Y-37379906D02*
X204780469Y-37418001D01*
X204780469Y-37418001D02*
X204856660Y-37418001D01*
X204856660Y-37418001D02*
X204970946Y-37379906D01*
X204970946Y-37379906D02*
X205047136Y-37303715D01*
X205047136Y-37303715D02*
X205085231Y-37227525D01*
X205085231Y-37227525D02*
X205123327Y-37075144D01*
X205123327Y-37075144D02*
X205123327Y-36960858D01*
X205123327Y-36960858D02*
X205085231Y-36808477D01*
X205085231Y-36808477D02*
X205047136Y-36732286D01*
X205047136Y-36732286D02*
X204970946Y-36656096D01*
X204970946Y-36656096D02*
X204856660Y-36618001D01*
X204856660Y-36618001D02*
X204780469Y-36618001D01*
X204780469Y-36618001D02*
X204666184Y-36656096D01*
X204666184Y-36656096D02*
X204628088Y-36694191D01*
X217492945Y-28998001D02*
X217416755Y-28998001D01*
X217416755Y-28998001D02*
X217340564Y-29036096D01*
X217340564Y-29036096D02*
X217302469Y-29074191D01*
X217302469Y-29074191D02*
X217264374Y-29150382D01*
X217264374Y-29150382D02*
X217226279Y-29302763D01*
X217226279Y-29302763D02*
X217226279Y-29493239D01*
X217226279Y-29493239D02*
X217264374Y-29645620D01*
X217264374Y-29645620D02*
X217302469Y-29721810D01*
X217302469Y-29721810D02*
X217340564Y-29759906D01*
X217340564Y-29759906D02*
X217416755Y-29798001D01*
X217416755Y-29798001D02*
X217492945Y-29798001D01*
X217492945Y-29798001D02*
X217569136Y-29759906D01*
X217569136Y-29759906D02*
X217607231Y-29721810D01*
X217607231Y-29721810D02*
X217645326Y-29645620D01*
X217645326Y-29645620D02*
X217683422Y-29493239D01*
X217683422Y-29493239D02*
X217683422Y-29302763D01*
X217683422Y-29302763D02*
X217645326Y-29150382D01*
X217645326Y-29150382D02*
X217607231Y-29074191D01*
X217607231Y-29074191D02*
X217569136Y-29036096D01*
X217569136Y-29036096D02*
X217492945Y-28998001D01*
X216731040Y-28998001D02*
X216654850Y-28998001D01*
X216654850Y-28998001D02*
X216578659Y-29036096D01*
X216578659Y-29036096D02*
X216540564Y-29074191D01*
X216540564Y-29074191D02*
X216502469Y-29150382D01*
X216502469Y-29150382D02*
X216464374Y-29302763D01*
X216464374Y-29302763D02*
X216464374Y-29493239D01*
X216464374Y-29493239D02*
X216502469Y-29645620D01*
X216502469Y-29645620D02*
X216540564Y-29721810D01*
X216540564Y-29721810D02*
X216578659Y-29759906D01*
X216578659Y-29759906D02*
X216654850Y-29798001D01*
X216654850Y-29798001D02*
X216731040Y-29798001D01*
X216731040Y-29798001D02*
X216807231Y-29759906D01*
X216807231Y-29759906D02*
X216845326Y-29721810D01*
X216845326Y-29721810D02*
X216883421Y-29645620D01*
X216883421Y-29645620D02*
X216921517Y-29493239D01*
X216921517Y-29493239D02*
X216921517Y-29302763D01*
X216921517Y-29302763D02*
X216883421Y-29150382D01*
X216883421Y-29150382D02*
X216845326Y-29074191D01*
X216845326Y-29074191D02*
X216807231Y-29036096D01*
X216807231Y-29036096D02*
X216731040Y-28998001D01*
X215778659Y-28998001D02*
X215931040Y-28998001D01*
X215931040Y-28998001D02*
X216007231Y-29036096D01*
X216007231Y-29036096D02*
X216045326Y-29074191D01*
X216045326Y-29074191D02*
X216121516Y-29188477D01*
X216121516Y-29188477D02*
X216159612Y-29340858D01*
X216159612Y-29340858D02*
X216159612Y-29645620D01*
X216159612Y-29645620D02*
X216121516Y-29721810D01*
X216121516Y-29721810D02*
X216083421Y-29759906D01*
X216083421Y-29759906D02*
X216007231Y-29798001D01*
X216007231Y-29798001D02*
X215854850Y-29798001D01*
X215854850Y-29798001D02*
X215778659Y-29759906D01*
X215778659Y-29759906D02*
X215740564Y-29721810D01*
X215740564Y-29721810D02*
X215702469Y-29645620D01*
X215702469Y-29645620D02*
X215702469Y-29455144D01*
X215702469Y-29455144D02*
X215740564Y-29378953D01*
X215740564Y-29378953D02*
X215778659Y-29340858D01*
X215778659Y-29340858D02*
X215854850Y-29302763D01*
X215854850Y-29302763D02*
X216007231Y-29302763D01*
X216007231Y-29302763D02*
X216083421Y-29340858D01*
X216083421Y-29340858D02*
X216121516Y-29378953D01*
X216121516Y-29378953D02*
X216159612Y-29455144D01*
X206418564Y-41698001D02*
X206342374Y-41698001D01*
X206342374Y-41698001D02*
X206266183Y-41736096D01*
X206266183Y-41736096D02*
X206228088Y-41774191D01*
X206228088Y-41774191D02*
X206189993Y-41850382D01*
X206189993Y-41850382D02*
X206151898Y-42002763D01*
X206151898Y-42002763D02*
X206151898Y-42193239D01*
X206151898Y-42193239D02*
X206189993Y-42345620D01*
X206189993Y-42345620D02*
X206228088Y-42421810D01*
X206228088Y-42421810D02*
X206266183Y-42459906D01*
X206266183Y-42459906D02*
X206342374Y-42498001D01*
X206342374Y-42498001D02*
X206418564Y-42498001D01*
X206418564Y-42498001D02*
X206494755Y-42459906D01*
X206494755Y-42459906D02*
X206532850Y-42421810D01*
X206532850Y-42421810D02*
X206570945Y-42345620D01*
X206570945Y-42345620D02*
X206609041Y-42193239D01*
X206609041Y-42193239D02*
X206609041Y-42002763D01*
X206609041Y-42002763D02*
X206570945Y-41850382D01*
X206570945Y-41850382D02*
X206532850Y-41774191D01*
X206532850Y-41774191D02*
X206494755Y-41736096D01*
X206494755Y-41736096D02*
X206418564Y-41698001D01*
X205847136Y-41774191D02*
X205809040Y-41736096D01*
X205809040Y-41736096D02*
X205732850Y-41698001D01*
X205732850Y-41698001D02*
X205542374Y-41698001D01*
X205542374Y-41698001D02*
X205466183Y-41736096D01*
X205466183Y-41736096D02*
X205428088Y-41774191D01*
X205428088Y-41774191D02*
X205389993Y-41850382D01*
X205389993Y-41850382D02*
X205389993Y-41926572D01*
X205389993Y-41926572D02*
X205428088Y-42040858D01*
X205428088Y-42040858D02*
X205885231Y-42498001D01*
X205885231Y-42498001D02*
X205389993Y-42498001D01*
X205009040Y-42498001D02*
X204856659Y-42498001D01*
X204856659Y-42498001D02*
X204780469Y-42459906D01*
X204780469Y-42459906D02*
X204742373Y-42421810D01*
X204742373Y-42421810D02*
X204666183Y-42307525D01*
X204666183Y-42307525D02*
X204628088Y-42155144D01*
X204628088Y-42155144D02*
X204628088Y-41850382D01*
X204628088Y-41850382D02*
X204666183Y-41774191D01*
X204666183Y-41774191D02*
X204704278Y-41736096D01*
X204704278Y-41736096D02*
X204780469Y-41698001D01*
X204780469Y-41698001D02*
X204932850Y-41698001D01*
X204932850Y-41698001D02*
X205009040Y-41736096D01*
X205009040Y-41736096D02*
X205047135Y-41774191D01*
X205047135Y-41774191D02*
X205085231Y-41850382D01*
X205085231Y-41850382D02*
X205085231Y-42040858D01*
X205085231Y-42040858D02*
X205047135Y-42117048D01*
X205047135Y-42117048D02*
X205009040Y-42155144D01*
X205009040Y-42155144D02*
X204932850Y-42193239D01*
X204932850Y-42193239D02*
X204780469Y-42193239D01*
X204780469Y-42193239D02*
X204704278Y-42155144D01*
X204704278Y-42155144D02*
X204666183Y-42117048D01*
X204666183Y-42117048D02*
X204628088Y-42040858D01*
X206418564Y-39158001D02*
X206342374Y-39158001D01*
X206342374Y-39158001D02*
X206266183Y-39196096D01*
X206266183Y-39196096D02*
X206228088Y-39234191D01*
X206228088Y-39234191D02*
X206189993Y-39310382D01*
X206189993Y-39310382D02*
X206151898Y-39462763D01*
X206151898Y-39462763D02*
X206151898Y-39653239D01*
X206151898Y-39653239D02*
X206189993Y-39805620D01*
X206189993Y-39805620D02*
X206228088Y-39881810D01*
X206228088Y-39881810D02*
X206266183Y-39919906D01*
X206266183Y-39919906D02*
X206342374Y-39958001D01*
X206342374Y-39958001D02*
X206418564Y-39958001D01*
X206418564Y-39958001D02*
X206494755Y-39919906D01*
X206494755Y-39919906D02*
X206532850Y-39881810D01*
X206532850Y-39881810D02*
X206570945Y-39805620D01*
X206570945Y-39805620D02*
X206609041Y-39653239D01*
X206609041Y-39653239D02*
X206609041Y-39462763D01*
X206609041Y-39462763D02*
X206570945Y-39310382D01*
X206570945Y-39310382D02*
X206532850Y-39234191D01*
X206532850Y-39234191D02*
X206494755Y-39196096D01*
X206494755Y-39196096D02*
X206418564Y-39158001D01*
X205885231Y-39158001D02*
X205389993Y-39158001D01*
X205389993Y-39158001D02*
X205656659Y-39462763D01*
X205656659Y-39462763D02*
X205542374Y-39462763D01*
X205542374Y-39462763D02*
X205466183Y-39500858D01*
X205466183Y-39500858D02*
X205428088Y-39538953D01*
X205428088Y-39538953D02*
X205389993Y-39615144D01*
X205389993Y-39615144D02*
X205389993Y-39805620D01*
X205389993Y-39805620D02*
X205428088Y-39881810D01*
X205428088Y-39881810D02*
X205466183Y-39919906D01*
X205466183Y-39919906D02*
X205542374Y-39958001D01*
X205542374Y-39958001D02*
X205770945Y-39958001D01*
X205770945Y-39958001D02*
X205847136Y-39919906D01*
X205847136Y-39919906D02*
X205885231Y-39881810D01*
X204628088Y-39958001D02*
X205085231Y-39958001D01*
X204856659Y-39958001D02*
X204856659Y-39158001D01*
X204856659Y-39158001D02*
X204932850Y-39272286D01*
X204932850Y-39272286D02*
X205009040Y-39348477D01*
X205009040Y-39348477D02*
X205085231Y-39386572D01*
D11*
%TO.C,D18*%
X192405761Y-42405706D02*
X192805761Y-42405707D01*
X192805761Y-42405707D02*
X192805761Y-41855706D01*
X192805761Y-42405707D02*
X192805762Y-42955702D01*
X192805761Y-42405707D02*
X193405761Y-42005706D01*
X193405761Y-42005706D02*
X193405761Y-42805706D01*
X193405761Y-42805706D02*
X192805761Y-42405707D01*
X193405762Y-42405706D02*
X193905761Y-42405706D01*
%TO.C,D12*%
X155405757Y-34405704D02*
X155805757Y-34405705D01*
X155805757Y-34405705D02*
X155805757Y-33855704D01*
X155805757Y-34405705D02*
X155805758Y-34955700D01*
X155805757Y-34405705D02*
X156405757Y-34005704D01*
X156405757Y-34005704D02*
X156405757Y-34805704D01*
X156405757Y-34805704D02*
X155805757Y-34405705D01*
X156405758Y-34405704D02*
X156905757Y-34405704D01*
%TO.C,D17*%
X192405761Y-59905704D02*
X192805761Y-59905705D01*
X192805761Y-59905705D02*
X192805761Y-59355704D01*
X192805761Y-59905705D02*
X192805762Y-60455700D01*
X192805761Y-59905705D02*
X193405761Y-59505704D01*
X193405761Y-59505704D02*
X193405761Y-60305704D01*
X193405761Y-60305704D02*
X192805761Y-59905705D01*
X193405762Y-59905704D02*
X193905761Y-59905704D01*
%TO.C,D6*%
X118405758Y-50405704D02*
X118805758Y-50405705D01*
X118805758Y-50405705D02*
X118805758Y-49855704D01*
X118805758Y-50405705D02*
X118805759Y-50955700D01*
X118805758Y-50405705D02*
X119405758Y-50005704D01*
X119405758Y-50005704D02*
X119405758Y-50805704D01*
X119405758Y-50805704D02*
X118805758Y-50405705D01*
X119405759Y-50405704D02*
X119905758Y-50405704D01*
%TO.C,D13*%
X173905758Y-75405704D02*
X174305758Y-75405705D01*
X174305758Y-75405705D02*
X174305758Y-74855704D01*
X174305758Y-75405705D02*
X174305759Y-75955700D01*
X174305758Y-75405705D02*
X174905758Y-75005704D01*
X174905758Y-75005704D02*
X174905758Y-75805704D01*
X174905758Y-75805704D02*
X174305758Y-75405705D01*
X174905759Y-75405704D02*
X175405758Y-75405704D01*
%TO.C,D8*%
X136905758Y-56905703D02*
X137305758Y-56905704D01*
X137305758Y-56905704D02*
X137305758Y-56355703D01*
X137305758Y-56905704D02*
X137305759Y-57455699D01*
X137305758Y-56905704D02*
X137905758Y-56505703D01*
X137905758Y-56505703D02*
X137905758Y-57305703D01*
X137905758Y-57305703D02*
X137305758Y-56905704D01*
X137905759Y-56905703D02*
X138405758Y-56905703D01*
%TO.C,D2*%
X99905757Y-69905703D02*
X100305757Y-69905704D01*
X100305757Y-69905704D02*
X100305757Y-69355703D01*
X100305757Y-69905704D02*
X100305758Y-70455699D01*
X100305757Y-69905704D02*
X100905757Y-69505703D01*
X100905757Y-69505703D02*
X100905757Y-70305703D01*
X100905757Y-70305703D02*
X100305757Y-69905704D01*
X100905758Y-69905703D02*
X101405757Y-69905703D01*
%TO.C,D7*%
X136905761Y-74405705D02*
X137305761Y-74405706D01*
X137305761Y-74405706D02*
X137305761Y-73855705D01*
X137305761Y-74405706D02*
X137305762Y-74955701D01*
X137305761Y-74405706D02*
X137905761Y-74005705D01*
X137905761Y-74005705D02*
X137905761Y-74805705D01*
X137905761Y-74805705D02*
X137305761Y-74405706D01*
X137905762Y-74405705D02*
X138405761Y-74405705D01*
%TO.C,D11*%
X155405763Y-51905704D02*
X155805763Y-51905705D01*
X155805763Y-51905705D02*
X155805763Y-51355704D01*
X155805763Y-51905705D02*
X155805764Y-52455700D01*
X155805763Y-51905705D02*
X156405763Y-51505704D01*
X156405763Y-51505704D02*
X156405763Y-52305704D01*
X156405763Y-52305704D02*
X155805763Y-51905705D01*
X156405764Y-51905704D02*
X156905763Y-51905704D01*
%TO.C,D21*%
X185929443Y-97420014D02*
X186323366Y-97489473D01*
X186323366Y-97489473D02*
X186227860Y-98031117D01*
X186323366Y-97489473D02*
X186418873Y-96947832D01*
X186323366Y-97489473D02*
X186983710Y-97199739D01*
X186844792Y-97987585D02*
X186323366Y-97489473D01*
X186914251Y-97593662D02*
X187406655Y-97680486D01*
X186983710Y-97199739D02*
X186844792Y-97987585D01*
%TO.C,D22*%
X203967030Y-104676769D02*
X204342908Y-104813576D01*
X204342908Y-104813576D02*
X204154796Y-105330408D01*
X204342908Y-104813576D02*
X204531017Y-104296749D01*
X204342908Y-104813576D02*
X205043530Y-104642912D01*
X204769914Y-105394666D02*
X204342908Y-104813576D01*
X204906724Y-105018789D02*
X205376568Y-105189799D01*
X205043530Y-104642912D02*
X204769914Y-105394666D01*
%TO.C,D10*%
X155405755Y-69405707D02*
X155805755Y-69405708D01*
X155805755Y-69405708D02*
X155805755Y-68855707D01*
X155805755Y-69405708D02*
X155805756Y-69955703D01*
X155805755Y-69405708D02*
X156405755Y-69005707D01*
X156405755Y-69005707D02*
X156405755Y-69805707D01*
X156405755Y-69805707D02*
X155805755Y-69405708D01*
X156405756Y-69405707D02*
X156905755Y-69405707D01*
%TO.C,D3*%
X99905760Y-52405703D02*
X100305760Y-52405704D01*
X100305760Y-52405704D02*
X100305760Y-51855703D01*
X100305760Y-52405704D02*
X100305761Y-52955699D01*
X100305760Y-52405704D02*
X100905760Y-52005703D01*
X100905760Y-52005703D02*
X100905760Y-52805703D01*
X100905760Y-52805703D02*
X100305760Y-52405704D01*
X100905761Y-52405703D02*
X101405760Y-52405703D01*
%TO.C,D19*%
X148405762Y-95405704D02*
X148805762Y-95405705D01*
X148805762Y-95405705D02*
X148805762Y-94855704D01*
X148805762Y-95405705D02*
X148805763Y-95955700D01*
X148805762Y-95405705D02*
X149405762Y-95005704D01*
X149405762Y-95005704D02*
X149405762Y-95805704D01*
X149405762Y-95805704D02*
X148805762Y-95405705D01*
X149405763Y-95405704D02*
X149905762Y-95405704D01*
%TO.C,D9*%
X136905763Y-39405704D02*
X137305763Y-39405705D01*
X137305763Y-39405705D02*
X137305763Y-38855704D01*
X137305763Y-39405705D02*
X137305764Y-39955700D01*
X137305763Y-39405705D02*
X137905763Y-39005704D01*
X137905763Y-39005704D02*
X137905763Y-39805704D01*
X137905763Y-39805704D02*
X137305763Y-39405705D01*
X137905764Y-39405704D02*
X138405763Y-39405704D01*
%TO.C,D1*%
X99905760Y-87405704D02*
X100305760Y-87405705D01*
X100305760Y-87405705D02*
X100305760Y-86855704D01*
X100305760Y-87405705D02*
X100305761Y-87955700D01*
X100305760Y-87405705D02*
X100905760Y-87005704D01*
X100905760Y-87005704D02*
X100905760Y-87805704D01*
X100905760Y-87805704D02*
X100305760Y-87405705D01*
X100905761Y-87405704D02*
X101405760Y-87405704D01*
%TO.C,D14*%
X173905763Y-57905702D02*
X174305763Y-57905703D01*
X174305763Y-57905703D02*
X174305763Y-57355702D01*
X174305763Y-57905703D02*
X174305764Y-58455698D01*
X174305763Y-57905703D02*
X174905763Y-57505702D01*
X174905763Y-57505702D02*
X174905763Y-58305702D01*
X174905763Y-58305702D02*
X174305763Y-57905703D01*
X174905764Y-57905702D02*
X175405763Y-57905702D01*
%TO.C,D16*%
X192405762Y-77405706D02*
X192805762Y-77405707D01*
X192805762Y-77405707D02*
X192805762Y-76855706D01*
X192805762Y-77405707D02*
X192805763Y-77955702D01*
X192805762Y-77405707D02*
X193405762Y-77005706D01*
X193405762Y-77005706D02*
X193405762Y-77805706D01*
X193405762Y-77805706D02*
X192805762Y-77405707D01*
X193405763Y-77405706D02*
X193905762Y-77405706D01*
%TO.C,D15*%
X173905760Y-40405702D02*
X174305760Y-40405703D01*
X174305760Y-40405703D02*
X174305760Y-39855702D01*
X174305760Y-40405703D02*
X174305761Y-40955698D01*
X174305760Y-40405703D02*
X174905760Y-40005702D01*
X174905760Y-40005702D02*
X174905760Y-40805702D01*
X174905760Y-40805702D02*
X174305760Y-40405703D01*
X174905761Y-40405702D02*
X175405760Y-40405702D01*
D12*
%TO.C,MCU1*%
X202265756Y-25625706D02*
X202265756Y-58645706D01*
X202265756Y-58645706D02*
X220045756Y-58645706D01*
X220045756Y-25625706D02*
X202265756Y-25625706D01*
X220045756Y-58645706D02*
X220045756Y-25625706D01*
D11*
%TO.C,D4*%
X118405754Y-85405705D02*
X118805754Y-85405706D01*
X118805754Y-85405706D02*
X118805754Y-84855705D01*
X118805754Y-85405706D02*
X118805755Y-85955701D01*
X118805754Y-85405706D02*
X119405754Y-85005705D01*
X119405754Y-85005705D02*
X119405754Y-85805705D01*
X119405754Y-85805705D02*
X118805754Y-85405706D01*
X119405755Y-85405705D02*
X119905754Y-85405705D01*
%TO.C,D20*%
X166905760Y-94405706D02*
X167305760Y-94405707D01*
X167305760Y-94405707D02*
X167305760Y-93855706D01*
X167305760Y-94405707D02*
X167305761Y-94955702D01*
X167305760Y-94405707D02*
X167905760Y-94005706D01*
X167905760Y-94005706D02*
X167905760Y-94805706D01*
X167905760Y-94805706D02*
X167305760Y-94405707D01*
X167905761Y-94405706D02*
X168405760Y-94405706D01*
%TO.C,D5*%
X118405764Y-67905707D02*
X118805764Y-67905708D01*
X118805764Y-67905708D02*
X118805764Y-67355707D01*
X118805764Y-67905708D02*
X118805765Y-68455703D01*
X118805764Y-67905708D02*
X119405764Y-67505707D01*
X119405764Y-67505707D02*
X119405764Y-68305707D01*
X119405764Y-68305707D02*
X118805764Y-67905708D01*
X119405765Y-67905707D02*
X119905764Y-67905707D01*
%TD*%
D13*
%TO.C,MCU1*%
X218775756Y-29435709D03*
X218775756Y-31975706D03*
X218775756Y-34515706D03*
X218775756Y-37055706D03*
X218775756Y-39595706D03*
X218775756Y-42135706D03*
X218775756Y-44675706D03*
X218775756Y-47215706D03*
X218775752Y-49755706D03*
X218775756Y-52295706D03*
X218775756Y-54835706D03*
X218775756Y-57375706D03*
X203535756Y-57375703D03*
X203535756Y-54835706D03*
X203535756Y-52295706D03*
X203535756Y-49755706D03*
X203535756Y-47215706D03*
X203535756Y-44675706D03*
X203535756Y-42135706D03*
X203535756Y-39595706D03*
X203535760Y-37055706D03*
X203535756Y-34515706D03*
X203535756Y-31975706D03*
X203535756Y-29435706D03*
X206075758Y-52295705D03*
X208615756Y-52295706D03*
X211155756Y-52295706D03*
%TD*%
M02*
