%TF.GenerationSoftware,KiCad,Pcbnew,8.0.4*%
%TF.CreationDate,2024-08-22T13:25:46+01:00*%
%TF.ProjectId,left (v2 backup),6c656674-2028-4763-9220-6261636b7570,v1.0.0*%
%TF.SameCoordinates,Original*%
%TF.FileFunction,Profile,NP*%
%FSLAX46Y46*%
G04 Gerber Fmt 4.6, Leading zero omitted, Abs format (unit mm)*
G04 Created by KiCad (PCBNEW 8.0.4) date 2024-08-22 13:25:46*
%MOMM*%
%LPD*%
G01*
G04 APERTURE LIST*
%TA.AperFunction,Profile*%
%ADD10C,0.150000*%
%TD*%
%TA.AperFunction,Profile*%
%ADD11C,0.050000*%
%TD*%
G04 APERTURE END LIST*
D10*
X86546927Y-34802641D02*
X119515580Y-33005990D01*
X84655758Y-36799680D02*
G75*
G02*
X86546926Y-34802624I2000042J-20D01*
G01*
X142039358Y-16905702D02*
X164253262Y-16905704D01*
X186851778Y-106480286D02*
G75*
G02*
X187279811Y-106584455I-256078J-1983714D01*
G01*
D11*
X211600000Y-111200000D02*
G75*
G02*
X208400000Y-111200000I-1600000J0D01*
G01*
X208400000Y-111200000D02*
G75*
G02*
X211600000Y-111200000I1600000J0D01*
G01*
D10*
X159027231Y-102905706D02*
X133885700Y-102905705D01*
X123601956Y-21905701D02*
X137972162Y-21905702D01*
X166250769Y-18805831D02*
X166360751Y-21005579D01*
X223469909Y-93694371D02*
X212330171Y-113901735D01*
X164253262Y-16905705D02*
G75*
G02*
X166250800Y-18805829I38J-1999995D01*
G01*
X159027232Y-102905706D02*
G75*
G02*
X159283239Y-102922159I-32J-2000494D01*
G01*
X186851778Y-106480286D02*
X159283239Y-102922158D01*
X212330172Y-113901737D02*
G75*
G02*
X209894649Y-114815559I-1751472J965537D01*
G01*
X139968573Y-20025491D02*
X140042947Y-18785920D01*
X133885698Y-102905706D02*
G75*
G02*
X132597421Y-102435524I2J2000006D01*
G01*
X168358259Y-22905705D02*
X221657554Y-22905706D01*
D11*
X89400000Y-91600000D02*
G75*
G02*
X86200000Y-91600000I-1600000J0D01*
G01*
X86200000Y-91600000D02*
G75*
G02*
X89400000Y-91600000I1600000J0D01*
G01*
D10*
X223657551Y-24903909D02*
X223718414Y-92727030D01*
X139968573Y-20025491D02*
G75*
G02*
X137972162Y-21905664I-1996373J119791D01*
G01*
X168358259Y-22905705D02*
G75*
G02*
X166360790Y-21005577I41J2000005D01*
G01*
X84655756Y-92905705D02*
X84655758Y-36799680D01*
X209894643Y-114815574D02*
X187279813Y-106584448D01*
D11*
X222000000Y-26200000D02*
G75*
G02*
X218800000Y-26200000I-1600000J0D01*
G01*
X218800000Y-26200000D02*
G75*
G02*
X222000000Y-26200000I1600000J0D01*
G01*
D10*
X221657554Y-22905706D02*
G75*
G02*
X223657493Y-24903909I-54J-1999994D01*
G01*
X140042947Y-18785920D02*
G75*
G02*
X142039358Y-16905657I1996453J-119780D01*
G01*
X86655760Y-94905704D02*
G75*
G02*
X84655796Y-92905705I40J2000004D01*
G01*
X122925824Y-94905703D02*
X86655760Y-94905704D01*
X121406005Y-31063472D02*
X121602703Y-23851178D01*
X132597420Y-102435526D02*
X124214097Y-95375883D01*
X223718414Y-92727030D02*
G75*
G02*
X223469898Y-93694365I-2000014J-1770D01*
G01*
X122925826Y-94905705D02*
G75*
G02*
X124214086Y-95375896I-26J-1999995D01*
G01*
X121406004Y-31063473D02*
G75*
G02*
X119515580Y-33005983I-1999304J54573D01*
G01*
D11*
X89400000Y-38000000D02*
G75*
G02*
X86200000Y-38000000I-1600000J0D01*
G01*
X86200000Y-38000000D02*
G75*
G02*
X89400000Y-38000000I1600000J0D01*
G01*
D10*
X121602702Y-23851181D02*
G75*
G02*
X123601956Y-21905659I1999298J-54519D01*
G01*
M02*
