%TF.GenerationSoftware,KiCad,Pcbnew,8.0.4*%
%TF.CreationDate,2024-08-22T13:25:46+01:00*%
%TF.ProjectId,left (v2 backup),6c656674-2028-4763-9220-6261636b7570,v1.0.0*%
%TF.SameCoordinates,Original*%
%TF.FileFunction,Paste,Bot*%
%TF.FilePolarity,Positive*%
%FSLAX46Y46*%
G04 Gerber Fmt 4.6, Leading zero omitted, Abs format (unit mm)*
G04 Created by KiCad (PCBNEW 8.0.4) date 2024-08-22 13:25:46*
%MOMM*%
%LPD*%
G01*
G04 APERTURE LIST*
G04 Aperture macros list*
%AMRotRect*
0 Rectangle, with rotation*
0 The origin of the aperture is its center*
0 $1 length*
0 $2 width*
0 $3 Rotation angle, in degrees counterclockwise*
0 Add horizontal line*
21,1,$1,$2,0,0,$3*%
G04 Aperture macros list end*
%ADD10R,0.900000X1.200000*%
%ADD11R,2.600000X2.600000*%
%ADD12RotRect,0.900000X1.200000X350.000000*%
%ADD13RotRect,0.900000X1.200000X340.000000*%
%ADD14RotRect,2.600000X2.600000X340.000000*%
%ADD15RotRect,2.600000X2.600000X350.000000*%
G04 APERTURE END LIST*
D10*
%TO.C,D18*%
X191505761Y-42405704D03*
X194805761Y-42405708D03*
%TD*%
%TO.C,D12*%
X154505757Y-34405702D03*
X157805757Y-34405706D03*
%TD*%
D11*
%TO.C,S12*%
X149880758Y-23455703D03*
X161430758Y-25655703D03*
%TD*%
D10*
%TO.C,D17*%
X191505761Y-59905702D03*
X194805761Y-59905706D03*
%TD*%
D11*
%TO.C,S7*%
X131380760Y-63455706D03*
X142930760Y-65655706D03*
%TD*%
D10*
%TO.C,D6*%
X117505758Y-50405702D03*
X120805758Y-50405706D03*
%TD*%
%TO.C,D13*%
X173005758Y-75405702D03*
X176305758Y-75405706D03*
%TD*%
%TO.C,D8*%
X136005758Y-56905701D03*
X139305758Y-56905705D03*
%TD*%
D11*
%TO.C,S14*%
X168380756Y-46955706D03*
X179930756Y-49155706D03*
%TD*%
%TO.C,S1*%
X94380762Y-76455704D03*
X105930762Y-78655704D03*
%TD*%
%TO.C,S15*%
X168380763Y-29455707D03*
X179930763Y-31655707D03*
%TD*%
%TO.C,S16*%
X186880759Y-66455703D03*
X198430759Y-68655703D03*
%TD*%
%TO.C,S10*%
X149880757Y-58455704D03*
X161430757Y-60655704D03*
%TD*%
D10*
%TO.C,D2*%
X99005757Y-69905701D03*
X102305757Y-69905705D03*
%TD*%
%TO.C,D7*%
X136005761Y-74405703D03*
X139305761Y-74405707D03*
%TD*%
%TO.C,D11*%
X154505763Y-51905702D03*
X157805763Y-51905706D03*
%TD*%
D12*
%TO.C,D21*%
X185043116Y-97263732D03*
X188292982Y-97836768D03*
%TD*%
D13*
%TO.C,D22*%
X203121306Y-104368952D03*
X206222292Y-105497616D03*
%TD*%
D11*
%TO.C,S3*%
X94380760Y-41455705D03*
X105930760Y-43655705D03*
%TD*%
D10*
%TO.C,D10*%
X154505755Y-69405705D03*
X157805755Y-69405709D03*
%TD*%
D11*
%TO.C,S19*%
X142880762Y-84455704D03*
X154430762Y-86655704D03*
%TD*%
%TO.C,S13*%
X168380760Y-64455705D03*
X179930760Y-66655705D03*
%TD*%
D10*
%TO.C,D3*%
X99005760Y-52405701D03*
X102305760Y-52405705D03*
%TD*%
%TO.C,D19*%
X147505762Y-95405702D03*
X150805762Y-95405706D03*
%TD*%
%TO.C,D9*%
X136005763Y-39405702D03*
X139305763Y-39405706D03*
%TD*%
D11*
%TO.C,S8*%
X131380759Y-45955706D03*
X142930759Y-48155706D03*
%TD*%
%TO.C,S2*%
X94380758Y-58955704D03*
X105930758Y-61155704D03*
%TD*%
%TO.C,S20*%
X161380761Y-83455704D03*
X172930761Y-85655704D03*
%TD*%
D10*
%TO.C,D1*%
X99005760Y-87405702D03*
X102305760Y-87405706D03*
%TD*%
D11*
%TO.C,S6*%
X112880761Y-39455706D03*
X124430761Y-41655706D03*
%TD*%
D10*
%TO.C,D14*%
X173005763Y-57905700D03*
X176305763Y-57905704D03*
%TD*%
D14*
%TO.C,S22*%
X202520347Y-92497474D03*
X212621352Y-98515130D03*
%TD*%
D11*
%TO.C,S17*%
X186880761Y-48955704D03*
X198430761Y-51155704D03*
%TD*%
%TO.C,S9*%
X131380756Y-28455705D03*
X142930756Y-30655705D03*
%TD*%
D10*
%TO.C,D16*%
X191505762Y-77405704D03*
X194805762Y-77405708D03*
%TD*%
%TO.C,D15*%
X173005760Y-40405700D03*
X176305760Y-40405704D03*
%TD*%
D15*
%TO.C,S21*%
X182389825Y-85676966D03*
X193382329Y-89849180D03*
%TD*%
D11*
%TO.C,S11*%
X149880762Y-40955702D03*
X161430762Y-43155702D03*
%TD*%
%TO.C,S18*%
X186880759Y-31455705D03*
X198430759Y-33655705D03*
%TD*%
D10*
%TO.C,D4*%
X117505754Y-85405703D03*
X120805754Y-85405707D03*
%TD*%
%TO.C,D20*%
X166005760Y-94405704D03*
X169305760Y-94405708D03*
%TD*%
D11*
%TO.C,S4*%
X112880761Y-74455707D03*
X124430761Y-76655707D03*
%TD*%
D10*
%TO.C,D5*%
X117505764Y-67905705D03*
X120805764Y-67905709D03*
%TD*%
D11*
%TO.C,S5*%
X112880760Y-56955705D03*
X124430760Y-59155705D03*
%TD*%
M02*
