M48
; DRILL file {KiCad 8.0.4} date 2024-08-22T13:25:42+0100
; FORMAT={-:-/ absolute / inch / decimal}
; #@! TF.CreationDate,2024-08-22T13:25:42+01:00
; #@! TF.GenerationSoftware,Kicad,Pcbnew,8.0.4
; #@! TF.FileFunction,Plated,1,2,PTH
FMAT,2
INCH
; #@! TA.AperFunction,Plated,PTH,ComponentDrill
T1C0.0295
; #@! TA.AperFunction,Plated,PTH,ComponentDrill
T2C0.0390
; #@! TA.AperFunction,Plated,PTH,ComponentDrill
T3C0.0430
%
G90
G05
T1
X8.3526Y-3.2443
X8.4313Y-3.2443
T2
X3.8128Y-2.7522
X3.8128Y-2.0632
X3.8128Y-3.4412
X4.1128Y-2.7522
X4.1128Y-2.0632
X4.1128Y-3.4412
X4.5412Y-3.3624
X4.5412Y-1.9845
X4.5412Y-2.6735
X4.8412Y-3.3624
X4.8412Y-1.9845
X4.8412Y-2.6735
X5.2695Y-2.2404
X5.2695Y-2.9294
X5.2695Y-1.5514
X5.5695Y-2.2404
X5.5695Y-2.9294
X5.5695Y-1.5514
X5.7223Y-3.7561
X5.9979Y-2.7325
X5.9979Y-1.3546
X5.9979Y-2.0435
X6.0223Y-3.7561
X6.2979Y-2.7325
X6.2979Y-1.3546
X6.2979Y-2.0435
X6.4506Y-3.7168
X6.7262Y-2.9687
X6.7262Y-1.5908
X6.7262Y-2.2798
X6.7506Y-3.7168
X7.0262Y-2.9687
X7.0262Y-1.5908
X7.0262Y-2.2798
X7.2014Y-3.8145
X7.4546Y-1.6695
X7.4546Y-2.3585
X7.4546Y-3.0475
X7.4969Y-3.8666
X7.7546Y-1.6695
X7.7546Y-2.3585
X7.7546Y-3.0475
X7.917Y-4.0799
X8.1989Y-4.1825
T3
X8.0132Y-1.1589
X8.0132Y-1.2589
X8.0132Y-1.3589
X8.0132Y-1.5589
X8.0132Y-1.6589
X8.0132Y-1.7589
X8.0132Y-1.8589
X8.0132Y-1.9589
X8.0132Y-2.0589
X8.0132Y-2.1589
X8.0132Y-2.2589
X8.0132Y-1.4589
X8.1132Y-2.0589
X8.2132Y-2.0589
X8.3132Y-2.0589
X8.6132Y-1.9589
X8.6132Y-1.1589
X8.6132Y-1.2589
X8.6132Y-1.3589
X8.6132Y-1.4589
X8.6132Y-1.5589
X8.6132Y-1.6589
X8.6132Y-1.7589
X8.6132Y-1.8589
X8.6132Y-2.0589
X8.6132Y-2.1589
X8.6132Y-2.2589
M30
