%TF.GenerationSoftware,KiCad,Pcbnew,8.0.4*%
%TF.CreationDate,2024-08-22T13:25:10+01:00*%
%TF.ProjectId,right (v2 backup),72696768-7420-4287-9632-206261636b75,v1.0.0*%
%TF.SameCoordinates,Original*%
%TF.FileFunction,Soldermask,Top*%
%TF.FilePolarity,Negative*%
%FSLAX46Y46*%
G04 Gerber Fmt 4.6, Leading zero omitted, Abs format (unit mm)*
G04 Created by KiCad (PCBNEW 8.0.4) date 2024-08-22 13:25:10*
%MOMM*%
%LPD*%
G01*
G04 APERTURE LIST*
G04 Aperture macros list*
%AMRoundRect*
0 Rectangle with rounded corners*
0 $1 Rounding radius*
0 $2 $3 $4 $5 $6 $7 $8 $9 X,Y pos of 4 corners*
0 Add a 4 corners polygon primitive as box body*
4,1,4,$2,$3,$4,$5,$6,$7,$8,$9,$2,$3,0*
0 Add four circle primitives for the rounded corners*
1,1,$1+$1,$2,$3*
1,1,$1+$1,$4,$5*
1,1,$1+$1,$6,$7*
1,1,$1+$1,$8,$9*
0 Add four rect primitives between the rounded corners*
20,1,$1+$1,$2,$3,$4,$5,0*
20,1,$1+$1,$4,$5,$6,$7,0*
20,1,$1+$1,$6,$7,$8,$9,0*
20,1,$1+$1,$8,$9,$2,$3,0*%
G04 Aperture macros list end*
%ADD10C,3.529000*%
%ADD11C,1.801800*%
%ADD12C,3.100000*%
%ADD13RoundRect,0.050000X-0.450000X-0.600000X0.450000X-0.600000X0.450000X0.600000X-0.450000X0.600000X0*%
%ADD14RoundRect,0.050000X-0.889000X-0.889000X0.889000X-0.889000X0.889000X0.889000X-0.889000X0.889000X0*%
%ADD15C,2.005000*%
%ADD16RoundRect,0.050000X-0.338975X-0.669026X0.547352X-0.512743X0.338975X0.669026X-0.547352X0.512743X0*%
%ADD17RoundRect,0.050000X-0.721121X-1.029867X1.029867X-0.721121X0.721121X1.029867X-1.029867X0.721121X0*%
%ADD18RoundRect,0.050000X-0.217650X-0.717725X0.628074X-0.409907X0.217650X0.717725X-0.628074X0.409907X0*%
%ADD19RoundRect,0.050000X-0.531331X-1.139443X1.139443X-0.531331X0.531331X1.139443X-1.139443X0.531331X0*%
%ADD20C,1.852600*%
%ADD21RoundRect,0.050000X0.550000X-0.900000X0.550000X0.900000X-0.550000X0.900000X-0.550000X-0.900000X0*%
%ADD22C,1.100000*%
%ADD23RoundRect,0.050000X0.625000X-0.450000X0.625000X0.450000X-0.625000X0.450000X-0.625000X-0.450000X0*%
%ADD24RoundRect,0.050000X0.450000X-0.450000X0.450000X0.450000X-0.450000X0.450000X-0.450000X-0.450000X0*%
%ADD25RoundRect,0.050000X-0.600000X-0.850000X0.600000X-0.850000X0.600000X0.850000X-0.600000X0.850000X0*%
%ADD26O,1.300000X1.800000*%
G04 APERTURE END LIST*
D10*
%TO.C,S1*%
X385565179Y-82480608D03*
D11*
X391065179Y-82480608D03*
X380065179Y-82480608D03*
D12*
X390565180Y-78730608D03*
X385565179Y-76530607D03*
%TD*%
D10*
%TO.C,S2*%
X385565178Y-64980609D03*
D11*
X391065178Y-64980609D03*
X380065178Y-64980609D03*
D12*
X390565179Y-61230609D03*
X385565178Y-59030608D03*
%TD*%
D10*
%TO.C,S3*%
X385565177Y-47480608D03*
D11*
X391065177Y-47480608D03*
X380065177Y-47480608D03*
D12*
X390565178Y-43730608D03*
X385565177Y-41530607D03*
%TD*%
D10*
%TO.C,S4*%
X367065176Y-80480610D03*
D11*
X372565176Y-80480610D03*
X361565176Y-80480610D03*
D12*
X372065177Y-76730610D03*
X367065176Y-74530609D03*
%TD*%
D10*
%TO.C,S5*%
X367065178Y-62980608D03*
D11*
X372565178Y-62980608D03*
X361565178Y-62980608D03*
D12*
X372065179Y-59230608D03*
X367065178Y-57030607D03*
%TD*%
D10*
%TO.C,S6*%
X367065178Y-45480608D03*
D11*
X372565178Y-45480608D03*
X361565178Y-45480608D03*
D12*
X372065179Y-41730608D03*
X367065178Y-39530607D03*
%TD*%
D10*
%TO.C,S7*%
X348565179Y-69480608D03*
D11*
X354065179Y-69480608D03*
X343065179Y-69480608D03*
D12*
X353565180Y-65730608D03*
X348565179Y-63530607D03*
%TD*%
D10*
%TO.C,S8*%
X348565178Y-51980608D03*
D11*
X354065178Y-51980608D03*
X343065178Y-51980608D03*
D12*
X353565179Y-48230608D03*
X348565178Y-46030607D03*
%TD*%
D10*
%TO.C,S9*%
X348565179Y-34480608D03*
D11*
X354065179Y-34480608D03*
X343065179Y-34480608D03*
D12*
X353565180Y-30730608D03*
X348565179Y-28530607D03*
%TD*%
D10*
%TO.C,S10*%
X330065179Y-64480609D03*
D11*
X335565179Y-64480609D03*
X324565179Y-64480609D03*
D12*
X335065180Y-60730609D03*
X330065179Y-58530608D03*
%TD*%
D10*
%TO.C,S11*%
X330065178Y-46980608D03*
D11*
X335565178Y-46980608D03*
X324565178Y-46980608D03*
D12*
X335065179Y-43230608D03*
X330065178Y-41030607D03*
%TD*%
D10*
%TO.C,S12*%
X330065179Y-29480609D03*
D11*
X335565179Y-29480609D03*
X324565179Y-29480609D03*
D12*
X335065180Y-25730609D03*
X330065179Y-23530608D03*
%TD*%
D10*
%TO.C,S13*%
X311565178Y-70480608D03*
D11*
X317065178Y-70480608D03*
X306065178Y-70480608D03*
D12*
X316565179Y-66730608D03*
X311565178Y-64530607D03*
%TD*%
D10*
%TO.C,S14*%
X311565178Y-52980609D03*
D11*
X317065178Y-52980609D03*
X306065178Y-52980609D03*
D12*
X316565179Y-49230609D03*
X311565178Y-47030608D03*
%TD*%
D10*
%TO.C,S15*%
X311565177Y-35480608D03*
D11*
X317065177Y-35480608D03*
X306065177Y-35480608D03*
D12*
X316565178Y-31730608D03*
X311565177Y-29530607D03*
%TD*%
D10*
%TO.C,S16*%
X293065178Y-72480609D03*
D11*
X298565178Y-72480609D03*
X287565178Y-72480609D03*
D12*
X298065179Y-68730609D03*
X293065178Y-66530608D03*
%TD*%
D10*
%TO.C,S17*%
X293065178Y-54980609D03*
D11*
X298565178Y-54980609D03*
X287565178Y-54980609D03*
D12*
X298065179Y-51230609D03*
X293065178Y-49030608D03*
%TD*%
D10*
%TO.C,S18*%
X293065178Y-37480608D03*
D11*
X298565178Y-37480608D03*
X287565178Y-37480608D03*
D12*
X298065179Y-33730608D03*
X293065178Y-31530607D03*
%TD*%
D10*
%TO.C,S19*%
X337065178Y-90480607D03*
D11*
X342565178Y-90480607D03*
X331565178Y-90480607D03*
D12*
X342065179Y-86730607D03*
X337065178Y-84530606D03*
%TD*%
D10*
%TO.C,S20*%
X318565178Y-89480608D03*
D11*
X324065178Y-89480608D03*
X313065178Y-89480608D03*
D12*
X323565179Y-85730608D03*
X318565178Y-83530607D03*
%TD*%
D10*
%TO.C,S21*%
X298639075Y-92180172D03*
D11*
X304055518Y-91225107D03*
X293222632Y-93135237D03*
D12*
X302911934Y-87618902D03*
X297605868Y-86320566D03*
%TD*%
D10*
%TO.C,S22*%
X279658116Y-99283663D03*
D11*
X284826425Y-97402552D03*
X274489807Y-101164774D03*
D12*
X283074004Y-94049715D03*
X277623096Y-93692492D03*
%TD*%
D13*
%TO.C,D1*%
X386915178Y-87480611D03*
X390215178Y-87480609D03*
D14*
X384755178Y-87480610D03*
D15*
X392375178Y-87480610D03*
%TD*%
D13*
%TO.C,D2*%
X386915179Y-69980609D03*
X390215179Y-69980607D03*
D14*
X384755179Y-69980608D03*
D15*
X392375179Y-69980608D03*
%TD*%
D13*
%TO.C,D3*%
X386915177Y-52480610D03*
X390215177Y-52480608D03*
D14*
X384755177Y-52480609D03*
D15*
X392375177Y-52480609D03*
%TD*%
D13*
%TO.C,D4*%
X368415178Y-85480610D03*
X371715178Y-85480608D03*
D14*
X366255178Y-85480609D03*
D15*
X373875178Y-85480609D03*
%TD*%
D13*
%TO.C,D5*%
X368415176Y-67980610D03*
X371715176Y-67980608D03*
D14*
X366255176Y-67980609D03*
D15*
X373875176Y-67980609D03*
%TD*%
D13*
%TO.C,D6*%
X368415179Y-50480610D03*
X371715179Y-50480608D03*
D14*
X366255179Y-50480609D03*
D15*
X373875179Y-50480609D03*
%TD*%
D13*
%TO.C,D7*%
X349915177Y-74480610D03*
X353215177Y-74480608D03*
D14*
X347755177Y-74480609D03*
D15*
X355375177Y-74480609D03*
%TD*%
D13*
%TO.C,D8*%
X349915179Y-56980609D03*
X353215179Y-56980607D03*
D14*
X347755179Y-56980608D03*
D15*
X355375179Y-56980608D03*
%TD*%
D13*
%TO.C,D9*%
X349915178Y-39480610D03*
X353215178Y-39480608D03*
D14*
X347755178Y-39480609D03*
D15*
X355375178Y-39480609D03*
%TD*%
D13*
%TO.C,D10*%
X331415177Y-69480610D03*
X334715177Y-69480608D03*
D14*
X329255177Y-69480609D03*
D15*
X336875177Y-69480609D03*
%TD*%
D13*
%TO.C,D11*%
X331415178Y-51980609D03*
X334715178Y-51980607D03*
D14*
X329255178Y-51980608D03*
D15*
X336875178Y-51980608D03*
%TD*%
D13*
%TO.C,D12*%
X331415179Y-34480610D03*
X334715179Y-34480608D03*
D14*
X329255179Y-34480609D03*
D15*
X336875179Y-34480609D03*
%TD*%
D13*
%TO.C,D13*%
X312915179Y-75480611D03*
X316215179Y-75480609D03*
D14*
X310755179Y-75480610D03*
D15*
X318375179Y-75480610D03*
%TD*%
D13*
%TO.C,D14*%
X312915177Y-57980609D03*
X316215177Y-57980607D03*
D14*
X310755177Y-57980608D03*
D15*
X318375177Y-57980608D03*
%TD*%
D13*
%TO.C,D15*%
X312915178Y-40480610D03*
X316215178Y-40480608D03*
D14*
X310755178Y-40480609D03*
D15*
X318375178Y-40480609D03*
%TD*%
D13*
%TO.C,D16*%
X294415178Y-77480611D03*
X297715178Y-77480609D03*
D14*
X292255178Y-77480610D03*
D15*
X299875178Y-77480610D03*
%TD*%
D13*
%TO.C,D17*%
X294415179Y-59980608D03*
X297715179Y-59980606D03*
D14*
X292255179Y-59980607D03*
D15*
X299875179Y-59980607D03*
%TD*%
D13*
%TO.C,D18*%
X294415178Y-42480610D03*
X297715178Y-42480608D03*
D14*
X292255178Y-42480609D03*
D15*
X299875178Y-42480609D03*
%TD*%
D13*
%TO.C,D19*%
X338415176Y-95480610D03*
X341715176Y-95480608D03*
D14*
X336255176Y-95480609D03*
D15*
X343875176Y-95480609D03*
%TD*%
D13*
%TO.C,D20*%
X319915178Y-94480609D03*
X323215178Y-94480607D03*
D14*
X317755178Y-94480608D03*
D15*
X325375178Y-94480608D03*
%TD*%
D16*
%TO.C,D21*%
X300836806Y-96869785D03*
X304086672Y-96296749D03*
D17*
X298709621Y-97244867D03*
D15*
X306213857Y-95921667D03*
%TD*%
D18*
%TO.C,D22*%
X282636801Y-103520398D03*
X285737787Y-102391734D03*
D19*
X280607065Y-104259163D03*
D15*
X287767523Y-101652969D03*
%TD*%
D20*
%TO.C,MCU1*%
X264445178Y-29510610D03*
X264445178Y-32050609D03*
X264445178Y-34590609D03*
X264445178Y-37130609D03*
X264445178Y-39670609D03*
X264445178Y-42210609D03*
X264445178Y-44750609D03*
X264445178Y-47290609D03*
X264445179Y-49830609D03*
X264445178Y-52370609D03*
X264445178Y-54910609D03*
X264445178Y-57450609D03*
X279685178Y-57450608D03*
X279685178Y-54910609D03*
X279685178Y-52370609D03*
X279685178Y-49830609D03*
X279685178Y-47290609D03*
X279685178Y-44750609D03*
X279685178Y-42210609D03*
X279685178Y-39670609D03*
X279685177Y-37130609D03*
X279685178Y-34590609D03*
X279685178Y-32050609D03*
X279685178Y-29510609D03*
X266985178Y-52370609D03*
X269525178Y-52370609D03*
X272065178Y-52370609D03*
%TD*%
D21*
%TO.C,B1*%
X276215179Y-69580607D03*
X276215179Y-63380607D03*
X279915179Y-69580607D03*
X279915179Y-63380607D03*
%TD*%
D22*
%TO.C,T1*%
X261565178Y-64980607D03*
X261565178Y-67980607D03*
D23*
X263640179Y-64230607D03*
X263640178Y-67230607D03*
X263640178Y-68730607D03*
D24*
X260465178Y-62780607D03*
X262665178Y-62780607D03*
X262665178Y-70180607D03*
X260465178Y-70180607D03*
%TD*%
D25*
%TO.C,JST1*%
X269065178Y-82480608D03*
D26*
X271065178Y-82480608D03*
%TD*%
M02*
