M48
; DRILL file {KiCad 8.0.4} date 2024-08-22T13:25:06+0100
; FORMAT={-:-/ absolute / inch / decimal}
; #@! TF.CreationDate,2024-08-22T13:25:06+01:00
; #@! TF.GenerationSoftware,Kicad,Pcbnew,8.0.4
; #@! TF.FileFunction,NonPlated,1,2,NPTH
FMAT,2
INCH
; #@! TA.AperFunction,NonPlated,NPTH,ComponentDrill
T1C0.0354
; #@! TA.AperFunction,NonPlated,NPTH,ComponentDrill
T2C0.0670
; #@! TA.AperFunction,NonPlated,NPTH,ComponentDrill
T3C0.1181
; #@! TA.AperFunction,NonPlated,NPTH,ComponentDrill
T4C0.1350
%
G90
G05
T1
X10.2978Y-2.5583
X10.2978Y-2.6764
T2
X10.8067Y-3.9829
X11.2136Y-3.8347
X11.3215Y-1.4756
X11.3215Y-2.1646
X11.3215Y-2.8536
X11.5442Y-3.6667
X11.7545Y-1.4756
X11.7545Y-2.1646
X11.7545Y-2.8536
X11.9707Y-3.5915
X12.0498Y-1.3969
X12.0498Y-2.0859
X12.0498Y-2.7748
X12.3254Y-3.5229
X12.4829Y-1.3969
X12.4829Y-2.0859
X12.4829Y-2.7748
X12.7585Y-3.5229
X12.7782Y-1.8496
X12.7782Y-1.1607
X12.7782Y-2.5386
X13.0537Y-3.5622
X13.2112Y-1.8496
X13.2112Y-1.1607
X13.2112Y-2.5386
X13.4868Y-3.5622
X13.5065Y-2.0465
X13.5065Y-1.3575
X13.5065Y-2.7355
X13.9396Y-2.0465
X13.9396Y-1.3575
X13.9396Y-2.7355
X14.2348Y-3.1685
X14.2348Y-1.7906
X14.2348Y-2.4796
X14.6679Y-3.1685
X14.6679Y-1.7906
X14.6679Y-2.4796
X14.9632Y-1.8693
X14.9632Y-2.5583
X14.9632Y-3.2473
X15.3963Y-1.8693
X15.3963Y-2.5583
X15.3963Y-3.2473
T3
X10.93Y-3.6887
X11.1446Y-3.7027
X11.538Y-1.2414
X11.538Y-1.9303
X11.538Y-2.6193
X11.7168Y-3.3984
X11.7348Y-1.328
X11.7348Y-2.017
X11.7348Y-2.7059
X11.9257Y-3.4496
X12.2663Y-1.1626
X12.2663Y-1.8516
X12.2663Y-2.5406
X12.4632Y-1.2492
X12.4632Y-1.9382
X12.4632Y-2.6272
X12.5419Y-3.2886
X12.7388Y-3.3752
X12.9947Y-1.6154
X12.9947Y-0.9264
X12.9947Y-2.3044
X13.1915Y-1.702
X13.1915Y-1.013
X13.1915Y-2.391
X13.2703Y-3.328
X13.4671Y-3.4146
X13.723Y-1.8122
X13.723Y-1.1233
X13.723Y-2.5012
X13.9199Y-1.8988
X13.9199Y-1.2099
X13.9199Y-2.5878
X14.4514Y-2.9343
X14.4514Y-1.5563
X14.4514Y-2.2453
X14.6482Y-3.0209
X14.6482Y-1.6429
X14.6482Y-2.3319
X15.1797Y-1.6351
X15.1797Y-2.324
X15.1797Y-3.013
X15.3766Y-1.7217
X15.3766Y-2.4107
X15.3766Y-3.0996
T4
X11.0102Y-3.9088
X11.538Y-1.4756
X11.538Y-2.1646
X11.538Y-2.8536
X11.7574Y-3.6291
X12.2663Y-1.3969
X12.2663Y-2.0859
X12.2663Y-2.7748
X12.5419Y-3.5229
X12.9947Y-1.8496
X12.9947Y-1.1607
X12.9947Y-2.5386
X13.2703Y-3.5622
X13.723Y-2.0465
X13.723Y-1.3575
X13.723Y-2.7355
X14.4514Y-3.1685
X14.4514Y-1.7906
X14.4514Y-2.4796
X15.1797Y-1.8693
X15.1797Y-2.5583
X15.1797Y-3.2473
M30
