%TF.GenerationSoftware,KiCad,Pcbnew,8.0.4*%
%TF.CreationDate,2024-08-22T13:25:09+01:00*%
%TF.ProjectId,right (v2 backup),72696768-7420-4287-9632-206261636b75,v1.0.0*%
%TF.SameCoordinates,Original*%
%TF.FileFunction,Legend,Top*%
%TF.FilePolarity,Positive*%
%FSLAX46Y46*%
G04 Gerber Fmt 4.6, Leading zero omitted, Abs format (unit mm)*
G04 Created by KiCad (PCBNEW 8.0.4) date 2024-08-22 13:25:09*
%MOMM*%
%LPD*%
G01*
G04 APERTURE LIST*
%ADD10C,0.150000*%
%ADD11C,0.300000*%
%ADD12C,0.100000*%
%ADD13C,0.381000*%
%ADD14C,1.752600*%
G04 APERTURE END LIST*
D10*
X276986512Y-29872904D02*
X276719845Y-29491951D01*
X276529369Y-29872904D02*
X276529369Y-29072904D01*
X276529369Y-29072904D02*
X276834131Y-29072904D01*
X276834131Y-29072904D02*
X276910321Y-29110999D01*
X276910321Y-29110999D02*
X276948416Y-29149094D01*
X276948416Y-29149094D02*
X276986512Y-29225285D01*
X276986512Y-29225285D02*
X276986512Y-29339570D01*
X276986512Y-29339570D02*
X276948416Y-29415761D01*
X276948416Y-29415761D02*
X276910321Y-29453856D01*
X276910321Y-29453856D02*
X276834131Y-29491951D01*
X276834131Y-29491951D02*
X276529369Y-29491951D01*
X277291273Y-29644332D02*
X277672226Y-29644332D01*
X277215083Y-29872904D02*
X277481750Y-29072904D01*
X277481750Y-29072904D02*
X277748416Y-29872904D01*
X277938892Y-29072904D02*
X278129368Y-29872904D01*
X278129368Y-29872904D02*
X278281749Y-29301475D01*
X278281749Y-29301475D02*
X278434130Y-29872904D01*
X278434130Y-29872904D02*
X278624607Y-29072904D01*
X276910321Y-31650999D02*
X276834131Y-31612904D01*
X276834131Y-31612904D02*
X276719845Y-31612904D01*
X276719845Y-31612904D02*
X276605559Y-31650999D01*
X276605559Y-31650999D02*
X276529369Y-31727189D01*
X276529369Y-31727189D02*
X276491274Y-31803380D01*
X276491274Y-31803380D02*
X276453178Y-31955761D01*
X276453178Y-31955761D02*
X276453178Y-32070047D01*
X276453178Y-32070047D02*
X276491274Y-32222428D01*
X276491274Y-32222428D02*
X276529369Y-32298618D01*
X276529369Y-32298618D02*
X276605559Y-32374809D01*
X276605559Y-32374809D02*
X276719845Y-32412904D01*
X276719845Y-32412904D02*
X276796036Y-32412904D01*
X276796036Y-32412904D02*
X276910321Y-32374809D01*
X276910321Y-32374809D02*
X276948417Y-32336713D01*
X276948417Y-32336713D02*
X276948417Y-32070047D01*
X276948417Y-32070047D02*
X276796036Y-32070047D01*
X277291274Y-32412904D02*
X277291274Y-31612904D01*
X277291274Y-31612904D02*
X277748417Y-32412904D01*
X277748417Y-32412904D02*
X277748417Y-31612904D01*
X278129369Y-32412904D02*
X278129369Y-31612904D01*
X278129369Y-31612904D02*
X278319845Y-31612904D01*
X278319845Y-31612904D02*
X278434131Y-31650999D01*
X278434131Y-31650999D02*
X278510321Y-31727189D01*
X278510321Y-31727189D02*
X278548416Y-31803380D01*
X278548416Y-31803380D02*
X278586512Y-31955761D01*
X278586512Y-31955761D02*
X278586512Y-32070047D01*
X278586512Y-32070047D02*
X278548416Y-32222428D01*
X278548416Y-32222428D02*
X278510321Y-32298618D01*
X278510321Y-32298618D02*
X278434131Y-32374809D01*
X278434131Y-32374809D02*
X278319845Y-32412904D01*
X278319845Y-32412904D02*
X278129369Y-32412904D01*
X277215083Y-34952904D02*
X276948416Y-34571951D01*
X276757940Y-34952904D02*
X276757940Y-34152904D01*
X276757940Y-34152904D02*
X277062702Y-34152904D01*
X277062702Y-34152904D02*
X277138892Y-34190999D01*
X277138892Y-34190999D02*
X277176987Y-34229094D01*
X277176987Y-34229094D02*
X277215083Y-34305285D01*
X277215083Y-34305285D02*
X277215083Y-34419570D01*
X277215083Y-34419570D02*
X277176987Y-34495761D01*
X277176987Y-34495761D02*
X277138892Y-34533856D01*
X277138892Y-34533856D02*
X277062702Y-34571951D01*
X277062702Y-34571951D02*
X276757940Y-34571951D01*
X277519844Y-34914809D02*
X277634130Y-34952904D01*
X277634130Y-34952904D02*
X277824606Y-34952904D01*
X277824606Y-34952904D02*
X277900797Y-34914809D01*
X277900797Y-34914809D02*
X277938892Y-34876713D01*
X277938892Y-34876713D02*
X277976987Y-34800523D01*
X277976987Y-34800523D02*
X277976987Y-34724332D01*
X277976987Y-34724332D02*
X277938892Y-34648142D01*
X277938892Y-34648142D02*
X277900797Y-34610047D01*
X277900797Y-34610047D02*
X277824606Y-34571951D01*
X277824606Y-34571951D02*
X277672225Y-34533856D01*
X277672225Y-34533856D02*
X277596035Y-34495761D01*
X277596035Y-34495761D02*
X277557940Y-34457666D01*
X277557940Y-34457666D02*
X277519844Y-34381475D01*
X277519844Y-34381475D02*
X277519844Y-34305285D01*
X277519844Y-34305285D02*
X277557940Y-34229094D01*
X277557940Y-34229094D02*
X277596035Y-34190999D01*
X277596035Y-34190999D02*
X277672225Y-34152904D01*
X277672225Y-34152904D02*
X277862702Y-34152904D01*
X277862702Y-34152904D02*
X277976987Y-34190999D01*
X278205559Y-34152904D02*
X278662702Y-34152904D01*
X278434130Y-34952904D02*
X278434130Y-34152904D01*
X276535702Y-36692904D02*
X276802369Y-37492904D01*
X276802369Y-37492904D02*
X277069035Y-36692904D01*
X277792845Y-37416713D02*
X277754749Y-37454809D01*
X277754749Y-37454809D02*
X277640464Y-37492904D01*
X277640464Y-37492904D02*
X277564273Y-37492904D01*
X277564273Y-37492904D02*
X277449987Y-37454809D01*
X277449987Y-37454809D02*
X277373797Y-37378618D01*
X277373797Y-37378618D02*
X277335702Y-37302428D01*
X277335702Y-37302428D02*
X277297606Y-37150047D01*
X277297606Y-37150047D02*
X277297606Y-37035761D01*
X277297606Y-37035761D02*
X277335702Y-36883380D01*
X277335702Y-36883380D02*
X277373797Y-36807189D01*
X277373797Y-36807189D02*
X277449987Y-36730999D01*
X277449987Y-36730999D02*
X277564273Y-36692904D01*
X277564273Y-36692904D02*
X277640464Y-36692904D01*
X277640464Y-36692904D02*
X277754749Y-36730999D01*
X277754749Y-36730999D02*
X277792845Y-36769094D01*
X278592845Y-37416713D02*
X278554749Y-37454809D01*
X278554749Y-37454809D02*
X278440464Y-37492904D01*
X278440464Y-37492904D02*
X278364273Y-37492904D01*
X278364273Y-37492904D02*
X278249987Y-37454809D01*
X278249987Y-37454809D02*
X278173797Y-37378618D01*
X278173797Y-37378618D02*
X278135702Y-37302428D01*
X278135702Y-37302428D02*
X278097606Y-37150047D01*
X278097606Y-37150047D02*
X278097606Y-37035761D01*
X278097606Y-37035761D02*
X278135702Y-36883380D01*
X278135702Y-36883380D02*
X278173797Y-36807189D01*
X278173797Y-36807189D02*
X278249987Y-36730999D01*
X278249987Y-36730999D02*
X278364273Y-36692904D01*
X278364273Y-36692904D02*
X278440464Y-36692904D01*
X278440464Y-36692904D02*
X278554749Y-36730999D01*
X278554749Y-36730999D02*
X278592845Y-36769094D01*
X276802369Y-39232904D02*
X276878559Y-39232904D01*
X276878559Y-39232904D02*
X276954750Y-39270999D01*
X276954750Y-39270999D02*
X276992845Y-39309094D01*
X276992845Y-39309094D02*
X277030940Y-39385285D01*
X277030940Y-39385285D02*
X277069035Y-39537666D01*
X277069035Y-39537666D02*
X277069035Y-39728142D01*
X277069035Y-39728142D02*
X277030940Y-39880523D01*
X277030940Y-39880523D02*
X276992845Y-39956713D01*
X276992845Y-39956713D02*
X276954750Y-39994809D01*
X276954750Y-39994809D02*
X276878559Y-40032904D01*
X276878559Y-40032904D02*
X276802369Y-40032904D01*
X276802369Y-40032904D02*
X276726178Y-39994809D01*
X276726178Y-39994809D02*
X276688083Y-39956713D01*
X276688083Y-39956713D02*
X276649988Y-39880523D01*
X276649988Y-39880523D02*
X276611892Y-39728142D01*
X276611892Y-39728142D02*
X276611892Y-39537666D01*
X276611892Y-39537666D02*
X276649988Y-39385285D01*
X276649988Y-39385285D02*
X276688083Y-39309094D01*
X276688083Y-39309094D02*
X276726178Y-39270999D01*
X276726178Y-39270999D02*
X276802369Y-39232904D01*
X277335702Y-39232904D02*
X277830940Y-39232904D01*
X277830940Y-39232904D02*
X277564274Y-39537666D01*
X277564274Y-39537666D02*
X277678559Y-39537666D01*
X277678559Y-39537666D02*
X277754750Y-39575761D01*
X277754750Y-39575761D02*
X277792845Y-39613856D01*
X277792845Y-39613856D02*
X277830940Y-39690047D01*
X277830940Y-39690047D02*
X277830940Y-39880523D01*
X277830940Y-39880523D02*
X277792845Y-39956713D01*
X277792845Y-39956713D02*
X277754750Y-39994809D01*
X277754750Y-39994809D02*
X277678559Y-40032904D01*
X277678559Y-40032904D02*
X277449988Y-40032904D01*
X277449988Y-40032904D02*
X277373797Y-39994809D01*
X277373797Y-39994809D02*
X277335702Y-39956713D01*
X278592845Y-40032904D02*
X278135702Y-40032904D01*
X278364274Y-40032904D02*
X278364274Y-39232904D01*
X278364274Y-39232904D02*
X278288083Y-39347189D01*
X278288083Y-39347189D02*
X278211893Y-39423380D01*
X278211893Y-39423380D02*
X278135702Y-39461475D01*
X276802369Y-41772904D02*
X276878559Y-41772904D01*
X276878559Y-41772904D02*
X276954750Y-41810999D01*
X276954750Y-41810999D02*
X276992845Y-41849094D01*
X276992845Y-41849094D02*
X277030940Y-41925285D01*
X277030940Y-41925285D02*
X277069035Y-42077666D01*
X277069035Y-42077666D02*
X277069035Y-42268142D01*
X277069035Y-42268142D02*
X277030940Y-42420523D01*
X277030940Y-42420523D02*
X276992845Y-42496713D01*
X276992845Y-42496713D02*
X276954750Y-42534809D01*
X276954750Y-42534809D02*
X276878559Y-42572904D01*
X276878559Y-42572904D02*
X276802369Y-42572904D01*
X276802369Y-42572904D02*
X276726178Y-42534809D01*
X276726178Y-42534809D02*
X276688083Y-42496713D01*
X276688083Y-42496713D02*
X276649988Y-42420523D01*
X276649988Y-42420523D02*
X276611892Y-42268142D01*
X276611892Y-42268142D02*
X276611892Y-42077666D01*
X276611892Y-42077666D02*
X276649988Y-41925285D01*
X276649988Y-41925285D02*
X276688083Y-41849094D01*
X276688083Y-41849094D02*
X276726178Y-41810999D01*
X276726178Y-41810999D02*
X276802369Y-41772904D01*
X277373797Y-41849094D02*
X277411893Y-41810999D01*
X277411893Y-41810999D02*
X277488083Y-41772904D01*
X277488083Y-41772904D02*
X277678559Y-41772904D01*
X277678559Y-41772904D02*
X277754750Y-41810999D01*
X277754750Y-41810999D02*
X277792845Y-41849094D01*
X277792845Y-41849094D02*
X277830940Y-41925285D01*
X277830940Y-41925285D02*
X277830940Y-42001475D01*
X277830940Y-42001475D02*
X277792845Y-42115761D01*
X277792845Y-42115761D02*
X277335702Y-42572904D01*
X277335702Y-42572904D02*
X277830940Y-42572904D01*
X278211893Y-42572904D02*
X278364274Y-42572904D01*
X278364274Y-42572904D02*
X278440464Y-42534809D01*
X278440464Y-42534809D02*
X278478560Y-42496713D01*
X278478560Y-42496713D02*
X278554750Y-42382428D01*
X278554750Y-42382428D02*
X278592845Y-42230047D01*
X278592845Y-42230047D02*
X278592845Y-41925285D01*
X278592845Y-41925285D02*
X278554750Y-41849094D01*
X278554750Y-41849094D02*
X278516655Y-41810999D01*
X278516655Y-41810999D02*
X278440464Y-41772904D01*
X278440464Y-41772904D02*
X278288083Y-41772904D01*
X278288083Y-41772904D02*
X278211893Y-41810999D01*
X278211893Y-41810999D02*
X278173798Y-41849094D01*
X278173798Y-41849094D02*
X278135702Y-41925285D01*
X278135702Y-41925285D02*
X278135702Y-42115761D01*
X278135702Y-42115761D02*
X278173798Y-42191951D01*
X278173798Y-42191951D02*
X278211893Y-42230047D01*
X278211893Y-42230047D02*
X278288083Y-42268142D01*
X278288083Y-42268142D02*
X278440464Y-42268142D01*
X278440464Y-42268142D02*
X278516655Y-42230047D01*
X278516655Y-42230047D02*
X278554750Y-42191951D01*
X278554750Y-42191951D02*
X278592845Y-42115761D01*
X276802369Y-44312904D02*
X276878559Y-44312904D01*
X276878559Y-44312904D02*
X276954750Y-44350999D01*
X276954750Y-44350999D02*
X276992845Y-44389094D01*
X276992845Y-44389094D02*
X277030940Y-44465285D01*
X277030940Y-44465285D02*
X277069035Y-44617666D01*
X277069035Y-44617666D02*
X277069035Y-44808142D01*
X277069035Y-44808142D02*
X277030940Y-44960523D01*
X277030940Y-44960523D02*
X276992845Y-45036713D01*
X276992845Y-45036713D02*
X276954750Y-45074809D01*
X276954750Y-45074809D02*
X276878559Y-45112904D01*
X276878559Y-45112904D02*
X276802369Y-45112904D01*
X276802369Y-45112904D02*
X276726178Y-45074809D01*
X276726178Y-45074809D02*
X276688083Y-45036713D01*
X276688083Y-45036713D02*
X276649988Y-44960523D01*
X276649988Y-44960523D02*
X276611892Y-44808142D01*
X276611892Y-44808142D02*
X276611892Y-44617666D01*
X276611892Y-44617666D02*
X276649988Y-44465285D01*
X276649988Y-44465285D02*
X276688083Y-44389094D01*
X276688083Y-44389094D02*
X276726178Y-44350999D01*
X276726178Y-44350999D02*
X276802369Y-44312904D01*
X277564274Y-44312904D02*
X277640464Y-44312904D01*
X277640464Y-44312904D02*
X277716655Y-44350999D01*
X277716655Y-44350999D02*
X277754750Y-44389094D01*
X277754750Y-44389094D02*
X277792845Y-44465285D01*
X277792845Y-44465285D02*
X277830940Y-44617666D01*
X277830940Y-44617666D02*
X277830940Y-44808142D01*
X277830940Y-44808142D02*
X277792845Y-44960523D01*
X277792845Y-44960523D02*
X277754750Y-45036713D01*
X277754750Y-45036713D02*
X277716655Y-45074809D01*
X277716655Y-45074809D02*
X277640464Y-45112904D01*
X277640464Y-45112904D02*
X277564274Y-45112904D01*
X277564274Y-45112904D02*
X277488083Y-45074809D01*
X277488083Y-45074809D02*
X277449988Y-45036713D01*
X277449988Y-45036713D02*
X277411893Y-44960523D01*
X277411893Y-44960523D02*
X277373797Y-44808142D01*
X277373797Y-44808142D02*
X277373797Y-44617666D01*
X277373797Y-44617666D02*
X277411893Y-44465285D01*
X277411893Y-44465285D02*
X277449988Y-44389094D01*
X277449988Y-44389094D02*
X277488083Y-44350999D01*
X277488083Y-44350999D02*
X277564274Y-44312904D01*
X278135702Y-44389094D02*
X278173798Y-44350999D01*
X278173798Y-44350999D02*
X278249988Y-44312904D01*
X278249988Y-44312904D02*
X278440464Y-44312904D01*
X278440464Y-44312904D02*
X278516655Y-44350999D01*
X278516655Y-44350999D02*
X278554750Y-44389094D01*
X278554750Y-44389094D02*
X278592845Y-44465285D01*
X278592845Y-44465285D02*
X278592845Y-44541475D01*
X278592845Y-44541475D02*
X278554750Y-44655761D01*
X278554750Y-44655761D02*
X278097607Y-45112904D01*
X278097607Y-45112904D02*
X278592845Y-45112904D01*
X277069035Y-47652904D02*
X276611892Y-47652904D01*
X276840464Y-47652904D02*
X276840464Y-46852904D01*
X276840464Y-46852904D02*
X276764273Y-46967189D01*
X276764273Y-46967189D02*
X276688083Y-47043380D01*
X276688083Y-47043380D02*
X276611892Y-47081475D01*
X277830940Y-47652904D02*
X277373797Y-47652904D01*
X277602369Y-47652904D02*
X277602369Y-46852904D01*
X277602369Y-46852904D02*
X277526178Y-46967189D01*
X277526178Y-46967189D02*
X277449988Y-47043380D01*
X277449988Y-47043380D02*
X277373797Y-47081475D01*
X278554750Y-46852904D02*
X278173798Y-46852904D01*
X278173798Y-46852904D02*
X278135702Y-47233856D01*
X278135702Y-47233856D02*
X278173798Y-47195761D01*
X278173798Y-47195761D02*
X278249988Y-47157666D01*
X278249988Y-47157666D02*
X278440464Y-47157666D01*
X278440464Y-47157666D02*
X278516655Y-47195761D01*
X278516655Y-47195761D02*
X278554750Y-47233856D01*
X278554750Y-47233856D02*
X278592845Y-47310047D01*
X278592845Y-47310047D02*
X278592845Y-47500523D01*
X278592845Y-47500523D02*
X278554750Y-47576713D01*
X278554750Y-47576713D02*
X278516655Y-47614809D01*
X278516655Y-47614809D02*
X278440464Y-47652904D01*
X278440464Y-47652904D02*
X278249988Y-47652904D01*
X278249988Y-47652904D02*
X278173798Y-47614809D01*
X278173798Y-47614809D02*
X278135702Y-47576713D01*
X277069035Y-50192904D02*
X276611892Y-50192904D01*
X276840464Y-50192904D02*
X276840464Y-49392904D01*
X276840464Y-49392904D02*
X276764273Y-49507189D01*
X276764273Y-49507189D02*
X276688083Y-49583380D01*
X276688083Y-49583380D02*
X276611892Y-49621475D01*
X277830940Y-50192904D02*
X277373797Y-50192904D01*
X277602369Y-50192904D02*
X277602369Y-49392904D01*
X277602369Y-49392904D02*
X277526178Y-49507189D01*
X277526178Y-49507189D02*
X277449988Y-49583380D01*
X277449988Y-49583380D02*
X277373797Y-49621475D01*
X278097607Y-49392904D02*
X278592845Y-49392904D01*
X278592845Y-49392904D02*
X278326179Y-49697666D01*
X278326179Y-49697666D02*
X278440464Y-49697666D01*
X278440464Y-49697666D02*
X278516655Y-49735761D01*
X278516655Y-49735761D02*
X278554750Y-49773856D01*
X278554750Y-49773856D02*
X278592845Y-49850047D01*
X278592845Y-49850047D02*
X278592845Y-50040523D01*
X278592845Y-50040523D02*
X278554750Y-50116713D01*
X278554750Y-50116713D02*
X278516655Y-50154809D01*
X278516655Y-50154809D02*
X278440464Y-50192904D01*
X278440464Y-50192904D02*
X278211893Y-50192904D01*
X278211893Y-50192904D02*
X278135702Y-50154809D01*
X278135702Y-50154809D02*
X278097607Y-50116713D01*
X277069035Y-52732904D02*
X276611892Y-52732904D01*
X276840464Y-52732904D02*
X276840464Y-51932904D01*
X276840464Y-51932904D02*
X276764273Y-52047189D01*
X276764273Y-52047189D02*
X276688083Y-52123380D01*
X276688083Y-52123380D02*
X276611892Y-52161475D01*
X277830940Y-52732904D02*
X277373797Y-52732904D01*
X277602369Y-52732904D02*
X277602369Y-51932904D01*
X277602369Y-51932904D02*
X277526178Y-52047189D01*
X277526178Y-52047189D02*
X277449988Y-52123380D01*
X277449988Y-52123380D02*
X277373797Y-52161475D01*
X278592845Y-52732904D02*
X278135702Y-52732904D01*
X278364274Y-52732904D02*
X278364274Y-51932904D01*
X278364274Y-51932904D02*
X278288083Y-52047189D01*
X278288083Y-52047189D02*
X278211893Y-52123380D01*
X278211893Y-52123380D02*
X278135702Y-52161475D01*
X276802369Y-54472904D02*
X276878559Y-54472904D01*
X276878559Y-54472904D02*
X276954750Y-54510999D01*
X276954750Y-54510999D02*
X276992845Y-54549094D01*
X276992845Y-54549094D02*
X277030940Y-54625285D01*
X277030940Y-54625285D02*
X277069035Y-54777666D01*
X277069035Y-54777666D02*
X277069035Y-54968142D01*
X277069035Y-54968142D02*
X277030940Y-55120523D01*
X277030940Y-55120523D02*
X276992845Y-55196713D01*
X276992845Y-55196713D02*
X276954750Y-55234809D01*
X276954750Y-55234809D02*
X276878559Y-55272904D01*
X276878559Y-55272904D02*
X276802369Y-55272904D01*
X276802369Y-55272904D02*
X276726178Y-55234809D01*
X276726178Y-55234809D02*
X276688083Y-55196713D01*
X276688083Y-55196713D02*
X276649988Y-55120523D01*
X276649988Y-55120523D02*
X276611892Y-54968142D01*
X276611892Y-54968142D02*
X276611892Y-54777666D01*
X276611892Y-54777666D02*
X276649988Y-54625285D01*
X276649988Y-54625285D02*
X276688083Y-54549094D01*
X276688083Y-54549094D02*
X276726178Y-54510999D01*
X276726178Y-54510999D02*
X276802369Y-54472904D01*
X277830940Y-55272904D02*
X277373797Y-55272904D01*
X277602369Y-55272904D02*
X277602369Y-54472904D01*
X277602369Y-54472904D02*
X277526178Y-54587189D01*
X277526178Y-54587189D02*
X277449988Y-54663380D01*
X277449988Y-54663380D02*
X277373797Y-54701475D01*
X278326179Y-54472904D02*
X278402369Y-54472904D01*
X278402369Y-54472904D02*
X278478560Y-54510999D01*
X278478560Y-54510999D02*
X278516655Y-54549094D01*
X278516655Y-54549094D02*
X278554750Y-54625285D01*
X278554750Y-54625285D02*
X278592845Y-54777666D01*
X278592845Y-54777666D02*
X278592845Y-54968142D01*
X278592845Y-54968142D02*
X278554750Y-55120523D01*
X278554750Y-55120523D02*
X278516655Y-55196713D01*
X278516655Y-55196713D02*
X278478560Y-55234809D01*
X278478560Y-55234809D02*
X278402369Y-55272904D01*
X278402369Y-55272904D02*
X278326179Y-55272904D01*
X278326179Y-55272904D02*
X278249988Y-55234809D01*
X278249988Y-55234809D02*
X278211893Y-55196713D01*
X278211893Y-55196713D02*
X278173798Y-55120523D01*
X278173798Y-55120523D02*
X278135702Y-54968142D01*
X278135702Y-54968142D02*
X278135702Y-54777666D01*
X278135702Y-54777666D02*
X278173798Y-54625285D01*
X278173798Y-54625285D02*
X278211893Y-54549094D01*
X278211893Y-54549094D02*
X278249988Y-54510999D01*
X278249988Y-54510999D02*
X278326179Y-54472904D01*
X265727988Y-29072904D02*
X265804178Y-29072904D01*
X265804178Y-29072904D02*
X265880369Y-29110999D01*
X265880369Y-29110999D02*
X265918464Y-29149094D01*
X265918464Y-29149094D02*
X265956559Y-29225285D01*
X265956559Y-29225285D02*
X265994654Y-29377666D01*
X265994654Y-29377666D02*
X265994654Y-29568142D01*
X265994654Y-29568142D02*
X265956559Y-29720523D01*
X265956559Y-29720523D02*
X265918464Y-29796713D01*
X265918464Y-29796713D02*
X265880369Y-29834809D01*
X265880369Y-29834809D02*
X265804178Y-29872904D01*
X265804178Y-29872904D02*
X265727988Y-29872904D01*
X265727988Y-29872904D02*
X265651797Y-29834809D01*
X265651797Y-29834809D02*
X265613702Y-29796713D01*
X265613702Y-29796713D02*
X265575607Y-29720523D01*
X265575607Y-29720523D02*
X265537511Y-29568142D01*
X265537511Y-29568142D02*
X265537511Y-29377666D01*
X265537511Y-29377666D02*
X265575607Y-29225285D01*
X265575607Y-29225285D02*
X265613702Y-29149094D01*
X265613702Y-29149094D02*
X265651797Y-29110999D01*
X265651797Y-29110999D02*
X265727988Y-29072904D01*
X266489893Y-29072904D02*
X266566083Y-29072904D01*
X266566083Y-29072904D02*
X266642274Y-29110999D01*
X266642274Y-29110999D02*
X266680369Y-29149094D01*
X266680369Y-29149094D02*
X266718464Y-29225285D01*
X266718464Y-29225285D02*
X266756559Y-29377666D01*
X266756559Y-29377666D02*
X266756559Y-29568142D01*
X266756559Y-29568142D02*
X266718464Y-29720523D01*
X266718464Y-29720523D02*
X266680369Y-29796713D01*
X266680369Y-29796713D02*
X266642274Y-29834809D01*
X266642274Y-29834809D02*
X266566083Y-29872904D01*
X266566083Y-29872904D02*
X266489893Y-29872904D01*
X266489893Y-29872904D02*
X266413702Y-29834809D01*
X266413702Y-29834809D02*
X266375607Y-29796713D01*
X266375607Y-29796713D02*
X266337512Y-29720523D01*
X266337512Y-29720523D02*
X266299416Y-29568142D01*
X266299416Y-29568142D02*
X266299416Y-29377666D01*
X266299416Y-29377666D02*
X266337512Y-29225285D01*
X266337512Y-29225285D02*
X266375607Y-29149094D01*
X266375607Y-29149094D02*
X266413702Y-29110999D01*
X266413702Y-29110999D02*
X266489893Y-29072904D01*
X267442274Y-29072904D02*
X267289893Y-29072904D01*
X267289893Y-29072904D02*
X267213702Y-29110999D01*
X267213702Y-29110999D02*
X267175607Y-29149094D01*
X267175607Y-29149094D02*
X267099417Y-29263380D01*
X267099417Y-29263380D02*
X267061321Y-29415761D01*
X267061321Y-29415761D02*
X267061321Y-29720523D01*
X267061321Y-29720523D02*
X267099417Y-29796713D01*
X267099417Y-29796713D02*
X267137512Y-29834809D01*
X267137512Y-29834809D02*
X267213702Y-29872904D01*
X267213702Y-29872904D02*
X267366083Y-29872904D01*
X267366083Y-29872904D02*
X267442274Y-29834809D01*
X267442274Y-29834809D02*
X267480369Y-29796713D01*
X267480369Y-29796713D02*
X267518464Y-29720523D01*
X267518464Y-29720523D02*
X267518464Y-29530047D01*
X267518464Y-29530047D02*
X267480369Y-29453856D01*
X267480369Y-29453856D02*
X267442274Y-29415761D01*
X267442274Y-29415761D02*
X267366083Y-29377666D01*
X267366083Y-29377666D02*
X267213702Y-29377666D01*
X267213702Y-29377666D02*
X267137512Y-29415761D01*
X267137512Y-29415761D02*
X267099417Y-29453856D01*
X267099417Y-29453856D02*
X267061321Y-29530047D01*
X265727988Y-31542904D02*
X265804178Y-31542904D01*
X265804178Y-31542904D02*
X265880369Y-31580999D01*
X265880369Y-31580999D02*
X265918464Y-31619094D01*
X265918464Y-31619094D02*
X265956559Y-31695285D01*
X265956559Y-31695285D02*
X265994654Y-31847666D01*
X265994654Y-31847666D02*
X265994654Y-32038142D01*
X265994654Y-32038142D02*
X265956559Y-32190523D01*
X265956559Y-32190523D02*
X265918464Y-32266713D01*
X265918464Y-32266713D02*
X265880369Y-32304809D01*
X265880369Y-32304809D02*
X265804178Y-32342904D01*
X265804178Y-32342904D02*
X265727988Y-32342904D01*
X265727988Y-32342904D02*
X265651797Y-32304809D01*
X265651797Y-32304809D02*
X265613702Y-32266713D01*
X265613702Y-32266713D02*
X265575607Y-32190523D01*
X265575607Y-32190523D02*
X265537511Y-32038142D01*
X265537511Y-32038142D02*
X265537511Y-31847666D01*
X265537511Y-31847666D02*
X265575607Y-31695285D01*
X265575607Y-31695285D02*
X265613702Y-31619094D01*
X265613702Y-31619094D02*
X265651797Y-31580999D01*
X265651797Y-31580999D02*
X265727988Y-31542904D01*
X266489893Y-31542904D02*
X266566083Y-31542904D01*
X266566083Y-31542904D02*
X266642274Y-31580999D01*
X266642274Y-31580999D02*
X266680369Y-31619094D01*
X266680369Y-31619094D02*
X266718464Y-31695285D01*
X266718464Y-31695285D02*
X266756559Y-31847666D01*
X266756559Y-31847666D02*
X266756559Y-32038142D01*
X266756559Y-32038142D02*
X266718464Y-32190523D01*
X266718464Y-32190523D02*
X266680369Y-32266713D01*
X266680369Y-32266713D02*
X266642274Y-32304809D01*
X266642274Y-32304809D02*
X266566083Y-32342904D01*
X266566083Y-32342904D02*
X266489893Y-32342904D01*
X266489893Y-32342904D02*
X266413702Y-32304809D01*
X266413702Y-32304809D02*
X266375607Y-32266713D01*
X266375607Y-32266713D02*
X266337512Y-32190523D01*
X266337512Y-32190523D02*
X266299416Y-32038142D01*
X266299416Y-32038142D02*
X266299416Y-31847666D01*
X266299416Y-31847666D02*
X266337512Y-31695285D01*
X266337512Y-31695285D02*
X266375607Y-31619094D01*
X266375607Y-31619094D02*
X266413702Y-31580999D01*
X266413702Y-31580999D02*
X266489893Y-31542904D01*
X267213702Y-31885761D02*
X267137512Y-31847666D01*
X267137512Y-31847666D02*
X267099417Y-31809570D01*
X267099417Y-31809570D02*
X267061321Y-31733380D01*
X267061321Y-31733380D02*
X267061321Y-31695285D01*
X267061321Y-31695285D02*
X267099417Y-31619094D01*
X267099417Y-31619094D02*
X267137512Y-31580999D01*
X267137512Y-31580999D02*
X267213702Y-31542904D01*
X267213702Y-31542904D02*
X267366083Y-31542904D01*
X267366083Y-31542904D02*
X267442274Y-31580999D01*
X267442274Y-31580999D02*
X267480369Y-31619094D01*
X267480369Y-31619094D02*
X267518464Y-31695285D01*
X267518464Y-31695285D02*
X267518464Y-31733380D01*
X267518464Y-31733380D02*
X267480369Y-31809570D01*
X267480369Y-31809570D02*
X267442274Y-31847666D01*
X267442274Y-31847666D02*
X267366083Y-31885761D01*
X267366083Y-31885761D02*
X267213702Y-31885761D01*
X267213702Y-31885761D02*
X267137512Y-31923856D01*
X267137512Y-31923856D02*
X267099417Y-31961951D01*
X267099417Y-31961951D02*
X267061321Y-32038142D01*
X267061321Y-32038142D02*
X267061321Y-32190523D01*
X267061321Y-32190523D02*
X267099417Y-32266713D01*
X267099417Y-32266713D02*
X267137512Y-32304809D01*
X267137512Y-32304809D02*
X267213702Y-32342904D01*
X267213702Y-32342904D02*
X267366083Y-32342904D01*
X267366083Y-32342904D02*
X267442274Y-32304809D01*
X267442274Y-32304809D02*
X267480369Y-32266713D01*
X267480369Y-32266713D02*
X267518464Y-32190523D01*
X267518464Y-32190523D02*
X267518464Y-32038142D01*
X267518464Y-32038142D02*
X267480369Y-31961951D01*
X267480369Y-31961951D02*
X267442274Y-31923856D01*
X267442274Y-31923856D02*
X267366083Y-31885761D01*
X265994654Y-34190999D02*
X265918464Y-34152904D01*
X265918464Y-34152904D02*
X265804178Y-34152904D01*
X265804178Y-34152904D02*
X265689892Y-34190999D01*
X265689892Y-34190999D02*
X265613702Y-34267189D01*
X265613702Y-34267189D02*
X265575607Y-34343380D01*
X265575607Y-34343380D02*
X265537511Y-34495761D01*
X265537511Y-34495761D02*
X265537511Y-34610047D01*
X265537511Y-34610047D02*
X265575607Y-34762428D01*
X265575607Y-34762428D02*
X265613702Y-34838618D01*
X265613702Y-34838618D02*
X265689892Y-34914809D01*
X265689892Y-34914809D02*
X265804178Y-34952904D01*
X265804178Y-34952904D02*
X265880369Y-34952904D01*
X265880369Y-34952904D02*
X265994654Y-34914809D01*
X265994654Y-34914809D02*
X266032750Y-34876713D01*
X266032750Y-34876713D02*
X266032750Y-34610047D01*
X266032750Y-34610047D02*
X265880369Y-34610047D01*
X266375607Y-34952904D02*
X266375607Y-34152904D01*
X266375607Y-34152904D02*
X266832750Y-34952904D01*
X266832750Y-34952904D02*
X266832750Y-34152904D01*
X267213702Y-34952904D02*
X267213702Y-34152904D01*
X267213702Y-34152904D02*
X267404178Y-34152904D01*
X267404178Y-34152904D02*
X267518464Y-34190999D01*
X267518464Y-34190999D02*
X267594654Y-34267189D01*
X267594654Y-34267189D02*
X267632749Y-34343380D01*
X267632749Y-34343380D02*
X267670845Y-34495761D01*
X267670845Y-34495761D02*
X267670845Y-34610047D01*
X267670845Y-34610047D02*
X267632749Y-34762428D01*
X267632749Y-34762428D02*
X267594654Y-34838618D01*
X267594654Y-34838618D02*
X267518464Y-34914809D01*
X267518464Y-34914809D02*
X267404178Y-34952904D01*
X267404178Y-34952904D02*
X267213702Y-34952904D01*
X265994655Y-36730999D02*
X265918465Y-36692904D01*
X265918465Y-36692904D02*
X265804179Y-36692904D01*
X265804179Y-36692904D02*
X265689893Y-36730999D01*
X265689893Y-36730999D02*
X265613703Y-36807189D01*
X265613703Y-36807189D02*
X265575608Y-36883380D01*
X265575608Y-36883380D02*
X265537512Y-37035761D01*
X265537512Y-37035761D02*
X265537512Y-37150047D01*
X265537512Y-37150047D02*
X265575608Y-37302428D01*
X265575608Y-37302428D02*
X265613703Y-37378618D01*
X265613703Y-37378618D02*
X265689893Y-37454809D01*
X265689893Y-37454809D02*
X265804179Y-37492904D01*
X265804179Y-37492904D02*
X265880370Y-37492904D01*
X265880370Y-37492904D02*
X265994655Y-37454809D01*
X265994655Y-37454809D02*
X266032751Y-37416713D01*
X266032751Y-37416713D02*
X266032751Y-37150047D01*
X266032751Y-37150047D02*
X265880370Y-37150047D01*
X266375608Y-37492904D02*
X266375608Y-36692904D01*
X266375608Y-36692904D02*
X266832751Y-37492904D01*
X266832751Y-37492904D02*
X266832751Y-36692904D01*
X267213703Y-37492904D02*
X267213703Y-36692904D01*
X267213703Y-36692904D02*
X267404179Y-36692904D01*
X267404179Y-36692904D02*
X267518465Y-36730999D01*
X267518465Y-36730999D02*
X267594655Y-36807189D01*
X267594655Y-36807189D02*
X267632750Y-36883380D01*
X267632750Y-36883380D02*
X267670846Y-37035761D01*
X267670846Y-37035761D02*
X267670846Y-37150047D01*
X267670846Y-37150047D02*
X267632750Y-37302428D01*
X267632750Y-37302428D02*
X267594655Y-37378618D01*
X267594655Y-37378618D02*
X267518465Y-37454809D01*
X267518465Y-37454809D02*
X267404179Y-37492904D01*
X267404179Y-37492904D02*
X267213703Y-37492904D01*
X265727988Y-39242904D02*
X265804178Y-39242904D01*
X265804178Y-39242904D02*
X265880369Y-39280999D01*
X265880369Y-39280999D02*
X265918464Y-39319094D01*
X265918464Y-39319094D02*
X265956559Y-39395285D01*
X265956559Y-39395285D02*
X265994654Y-39547666D01*
X265994654Y-39547666D02*
X265994654Y-39738142D01*
X265994654Y-39738142D02*
X265956559Y-39890523D01*
X265956559Y-39890523D02*
X265918464Y-39966713D01*
X265918464Y-39966713D02*
X265880369Y-40004809D01*
X265880369Y-40004809D02*
X265804178Y-40042904D01*
X265804178Y-40042904D02*
X265727988Y-40042904D01*
X265727988Y-40042904D02*
X265651797Y-40004809D01*
X265651797Y-40004809D02*
X265613702Y-39966713D01*
X265613702Y-39966713D02*
X265575607Y-39890523D01*
X265575607Y-39890523D02*
X265537511Y-39738142D01*
X265537511Y-39738142D02*
X265537511Y-39547666D01*
X265537511Y-39547666D02*
X265575607Y-39395285D01*
X265575607Y-39395285D02*
X265613702Y-39319094D01*
X265613702Y-39319094D02*
X265651797Y-39280999D01*
X265651797Y-39280999D02*
X265727988Y-39242904D01*
X266756559Y-40042904D02*
X266299416Y-40042904D01*
X266527988Y-40042904D02*
X266527988Y-39242904D01*
X266527988Y-39242904D02*
X266451797Y-39357189D01*
X266451797Y-39357189D02*
X266375607Y-39433380D01*
X266375607Y-39433380D02*
X266299416Y-39471475D01*
X267023226Y-39242904D02*
X267556560Y-39242904D01*
X267556560Y-39242904D02*
X267213702Y-40042904D01*
X265727988Y-41842904D02*
X265804178Y-41842904D01*
X265804178Y-41842904D02*
X265880369Y-41880999D01*
X265880369Y-41880999D02*
X265918464Y-41919094D01*
X265918464Y-41919094D02*
X265956559Y-41995285D01*
X265956559Y-41995285D02*
X265994654Y-42147666D01*
X265994654Y-42147666D02*
X265994654Y-42338142D01*
X265994654Y-42338142D02*
X265956559Y-42490523D01*
X265956559Y-42490523D02*
X265918464Y-42566713D01*
X265918464Y-42566713D02*
X265880369Y-42604809D01*
X265880369Y-42604809D02*
X265804178Y-42642904D01*
X265804178Y-42642904D02*
X265727988Y-42642904D01*
X265727988Y-42642904D02*
X265651797Y-42604809D01*
X265651797Y-42604809D02*
X265613702Y-42566713D01*
X265613702Y-42566713D02*
X265575607Y-42490523D01*
X265575607Y-42490523D02*
X265537511Y-42338142D01*
X265537511Y-42338142D02*
X265537511Y-42147666D01*
X265537511Y-42147666D02*
X265575607Y-41995285D01*
X265575607Y-41995285D02*
X265613702Y-41919094D01*
X265613702Y-41919094D02*
X265651797Y-41880999D01*
X265651797Y-41880999D02*
X265727988Y-41842904D01*
X266299416Y-41919094D02*
X266337512Y-41880999D01*
X266337512Y-41880999D02*
X266413702Y-41842904D01*
X266413702Y-41842904D02*
X266604178Y-41842904D01*
X266604178Y-41842904D02*
X266680369Y-41880999D01*
X266680369Y-41880999D02*
X266718464Y-41919094D01*
X266718464Y-41919094D02*
X266756559Y-41995285D01*
X266756559Y-41995285D02*
X266756559Y-42071475D01*
X266756559Y-42071475D02*
X266718464Y-42185761D01*
X266718464Y-42185761D02*
X266261321Y-42642904D01*
X266261321Y-42642904D02*
X266756559Y-42642904D01*
X267251798Y-41842904D02*
X267327988Y-41842904D01*
X267327988Y-41842904D02*
X267404179Y-41880999D01*
X267404179Y-41880999D02*
X267442274Y-41919094D01*
X267442274Y-41919094D02*
X267480369Y-41995285D01*
X267480369Y-41995285D02*
X267518464Y-42147666D01*
X267518464Y-42147666D02*
X267518464Y-42338142D01*
X267518464Y-42338142D02*
X267480369Y-42490523D01*
X267480369Y-42490523D02*
X267442274Y-42566713D01*
X267442274Y-42566713D02*
X267404179Y-42604809D01*
X267404179Y-42604809D02*
X267327988Y-42642904D01*
X267327988Y-42642904D02*
X267251798Y-42642904D01*
X267251798Y-42642904D02*
X267175607Y-42604809D01*
X267175607Y-42604809D02*
X267137512Y-42566713D01*
X267137512Y-42566713D02*
X267099417Y-42490523D01*
X267099417Y-42490523D02*
X267061321Y-42338142D01*
X267061321Y-42338142D02*
X267061321Y-42147666D01*
X267061321Y-42147666D02*
X267099417Y-41995285D01*
X267099417Y-41995285D02*
X267137512Y-41919094D01*
X267137512Y-41919094D02*
X267175607Y-41880999D01*
X267175607Y-41880999D02*
X267251798Y-41842904D01*
X265727988Y-44342904D02*
X265804178Y-44342904D01*
X265804178Y-44342904D02*
X265880369Y-44380999D01*
X265880369Y-44380999D02*
X265918464Y-44419094D01*
X265918464Y-44419094D02*
X265956559Y-44495285D01*
X265956559Y-44495285D02*
X265994654Y-44647666D01*
X265994654Y-44647666D02*
X265994654Y-44838142D01*
X265994654Y-44838142D02*
X265956559Y-44990523D01*
X265956559Y-44990523D02*
X265918464Y-45066713D01*
X265918464Y-45066713D02*
X265880369Y-45104809D01*
X265880369Y-45104809D02*
X265804178Y-45142904D01*
X265804178Y-45142904D02*
X265727988Y-45142904D01*
X265727988Y-45142904D02*
X265651797Y-45104809D01*
X265651797Y-45104809D02*
X265613702Y-45066713D01*
X265613702Y-45066713D02*
X265575607Y-44990523D01*
X265575607Y-44990523D02*
X265537511Y-44838142D01*
X265537511Y-44838142D02*
X265537511Y-44647666D01*
X265537511Y-44647666D02*
X265575607Y-44495285D01*
X265575607Y-44495285D02*
X265613702Y-44419094D01*
X265613702Y-44419094D02*
X265651797Y-44380999D01*
X265651797Y-44380999D02*
X265727988Y-44342904D01*
X266299416Y-44419094D02*
X266337512Y-44380999D01*
X266337512Y-44380999D02*
X266413702Y-44342904D01*
X266413702Y-44342904D02*
X266604178Y-44342904D01*
X266604178Y-44342904D02*
X266680369Y-44380999D01*
X266680369Y-44380999D02*
X266718464Y-44419094D01*
X266718464Y-44419094D02*
X266756559Y-44495285D01*
X266756559Y-44495285D02*
X266756559Y-44571475D01*
X266756559Y-44571475D02*
X266718464Y-44685761D01*
X266718464Y-44685761D02*
X266261321Y-45142904D01*
X266261321Y-45142904D02*
X266756559Y-45142904D01*
X267061321Y-44419094D02*
X267099417Y-44380999D01*
X267099417Y-44380999D02*
X267175607Y-44342904D01*
X267175607Y-44342904D02*
X267366083Y-44342904D01*
X267366083Y-44342904D02*
X267442274Y-44380999D01*
X267442274Y-44380999D02*
X267480369Y-44419094D01*
X267480369Y-44419094D02*
X267518464Y-44495285D01*
X267518464Y-44495285D02*
X267518464Y-44571475D01*
X267518464Y-44571475D02*
X267480369Y-44685761D01*
X267480369Y-44685761D02*
X267023226Y-45142904D01*
X267023226Y-45142904D02*
X267518464Y-45142904D01*
X265727988Y-46852904D02*
X265804178Y-46852904D01*
X265804178Y-46852904D02*
X265880369Y-46890999D01*
X265880369Y-46890999D02*
X265918464Y-46929094D01*
X265918464Y-46929094D02*
X265956559Y-47005285D01*
X265956559Y-47005285D02*
X265994654Y-47157666D01*
X265994654Y-47157666D02*
X265994654Y-47348142D01*
X265994654Y-47348142D02*
X265956559Y-47500523D01*
X265956559Y-47500523D02*
X265918464Y-47576713D01*
X265918464Y-47576713D02*
X265880369Y-47614809D01*
X265880369Y-47614809D02*
X265804178Y-47652904D01*
X265804178Y-47652904D02*
X265727988Y-47652904D01*
X265727988Y-47652904D02*
X265651797Y-47614809D01*
X265651797Y-47614809D02*
X265613702Y-47576713D01*
X265613702Y-47576713D02*
X265575607Y-47500523D01*
X265575607Y-47500523D02*
X265537511Y-47348142D01*
X265537511Y-47348142D02*
X265537511Y-47157666D01*
X265537511Y-47157666D02*
X265575607Y-47005285D01*
X265575607Y-47005285D02*
X265613702Y-46929094D01*
X265613702Y-46929094D02*
X265651797Y-46890999D01*
X265651797Y-46890999D02*
X265727988Y-46852904D01*
X266299416Y-46929094D02*
X266337512Y-46890999D01*
X266337512Y-46890999D02*
X266413702Y-46852904D01*
X266413702Y-46852904D02*
X266604178Y-46852904D01*
X266604178Y-46852904D02*
X266680369Y-46890999D01*
X266680369Y-46890999D02*
X266718464Y-46929094D01*
X266718464Y-46929094D02*
X266756559Y-47005285D01*
X266756559Y-47005285D02*
X266756559Y-47081475D01*
X266756559Y-47081475D02*
X266718464Y-47195761D01*
X266718464Y-47195761D02*
X266261321Y-47652904D01*
X266261321Y-47652904D02*
X266756559Y-47652904D01*
X267442274Y-47119570D02*
X267442274Y-47652904D01*
X267251798Y-46814809D02*
X267061321Y-47386237D01*
X267061321Y-47386237D02*
X267556560Y-47386237D01*
X265994654Y-50192904D02*
X265537511Y-50192904D01*
X265766083Y-50192904D02*
X265766083Y-49392904D01*
X265766083Y-49392904D02*
X265689892Y-49507189D01*
X265689892Y-49507189D02*
X265613702Y-49583380D01*
X265613702Y-49583380D02*
X265537511Y-49621475D01*
X266489893Y-49392904D02*
X266566083Y-49392904D01*
X266566083Y-49392904D02*
X266642274Y-49430999D01*
X266642274Y-49430999D02*
X266680369Y-49469094D01*
X266680369Y-49469094D02*
X266718464Y-49545285D01*
X266718464Y-49545285D02*
X266756559Y-49697666D01*
X266756559Y-49697666D02*
X266756559Y-49888142D01*
X266756559Y-49888142D02*
X266718464Y-50040523D01*
X266718464Y-50040523D02*
X266680369Y-50116713D01*
X266680369Y-50116713D02*
X266642274Y-50154809D01*
X266642274Y-50154809D02*
X266566083Y-50192904D01*
X266566083Y-50192904D02*
X266489893Y-50192904D01*
X266489893Y-50192904D02*
X266413702Y-50154809D01*
X266413702Y-50154809D02*
X266375607Y-50116713D01*
X266375607Y-50116713D02*
X266337512Y-50040523D01*
X266337512Y-50040523D02*
X266299416Y-49888142D01*
X266299416Y-49888142D02*
X266299416Y-49697666D01*
X266299416Y-49697666D02*
X266337512Y-49545285D01*
X266337512Y-49545285D02*
X266375607Y-49469094D01*
X266375607Y-49469094D02*
X266413702Y-49430999D01*
X266413702Y-49430999D02*
X266489893Y-49392904D01*
X267251798Y-49392904D02*
X267327988Y-49392904D01*
X267327988Y-49392904D02*
X267404179Y-49430999D01*
X267404179Y-49430999D02*
X267442274Y-49469094D01*
X267442274Y-49469094D02*
X267480369Y-49545285D01*
X267480369Y-49545285D02*
X267518464Y-49697666D01*
X267518464Y-49697666D02*
X267518464Y-49888142D01*
X267518464Y-49888142D02*
X267480369Y-50040523D01*
X267480369Y-50040523D02*
X267442274Y-50116713D01*
X267442274Y-50116713D02*
X267404179Y-50154809D01*
X267404179Y-50154809D02*
X267327988Y-50192904D01*
X267327988Y-50192904D02*
X267251798Y-50192904D01*
X267251798Y-50192904D02*
X267175607Y-50154809D01*
X267175607Y-50154809D02*
X267137512Y-50116713D01*
X267137512Y-50116713D02*
X267099417Y-50040523D01*
X267099417Y-50040523D02*
X267061321Y-49888142D01*
X267061321Y-49888142D02*
X267061321Y-49697666D01*
X267061321Y-49697666D02*
X267099417Y-49545285D01*
X267099417Y-49545285D02*
X267137512Y-49469094D01*
X267137512Y-49469094D02*
X267175607Y-49430999D01*
X267175607Y-49430999D02*
X267251798Y-49392904D01*
X265994654Y-55272903D02*
X265537511Y-55272903D01*
X265766083Y-55272903D02*
X265766083Y-54472903D01*
X265766083Y-54472903D02*
X265689892Y-54587188D01*
X265689892Y-54587188D02*
X265613702Y-54663379D01*
X265613702Y-54663379D02*
X265537511Y-54701474D01*
X266489893Y-54472903D02*
X266566083Y-54472903D01*
X266566083Y-54472903D02*
X266642274Y-54510998D01*
X266642274Y-54510998D02*
X266680369Y-54549093D01*
X266680369Y-54549093D02*
X266718464Y-54625284D01*
X266718464Y-54625284D02*
X266756559Y-54777665D01*
X266756559Y-54777665D02*
X266756559Y-54968141D01*
X266756559Y-54968141D02*
X266718464Y-55120522D01*
X266718464Y-55120522D02*
X266680369Y-55196712D01*
X266680369Y-55196712D02*
X266642274Y-55234808D01*
X266642274Y-55234808D02*
X266566083Y-55272903D01*
X266566083Y-55272903D02*
X266489893Y-55272903D01*
X266489893Y-55272903D02*
X266413702Y-55234808D01*
X266413702Y-55234808D02*
X266375607Y-55196712D01*
X266375607Y-55196712D02*
X266337512Y-55120522D01*
X266337512Y-55120522D02*
X266299416Y-54968141D01*
X266299416Y-54968141D02*
X266299416Y-54777665D01*
X266299416Y-54777665D02*
X266337512Y-54625284D01*
X266337512Y-54625284D02*
X266375607Y-54549093D01*
X266375607Y-54549093D02*
X266413702Y-54510998D01*
X266413702Y-54510998D02*
X266489893Y-54472903D01*
X267442274Y-54739569D02*
X267442274Y-55272903D01*
X267251798Y-54434808D02*
X267061321Y-55006236D01*
X267061321Y-55006236D02*
X267556560Y-55006236D01*
D11*
X267283463Y-56620937D02*
X267283463Y-57620937D01*
X267283463Y-56763794D02*
X267354892Y-56692366D01*
X267354892Y-56692366D02*
X267497749Y-56620937D01*
X267497749Y-56620937D02*
X267712035Y-56620937D01*
X267712035Y-56620937D02*
X267854892Y-56692366D01*
X267854892Y-56692366D02*
X267926321Y-56835223D01*
X267926321Y-56835223D02*
X267926321Y-57620937D01*
X268640606Y-57620937D02*
X268640606Y-56620937D01*
X268640606Y-56120937D02*
X268569178Y-56192366D01*
X268569178Y-56192366D02*
X268640606Y-56263794D01*
X268640606Y-56263794D02*
X268712035Y-56192366D01*
X268712035Y-56192366D02*
X268640606Y-56120937D01*
X268640606Y-56120937D02*
X268640606Y-56263794D01*
X269997750Y-57549509D02*
X269854892Y-57620937D01*
X269854892Y-57620937D02*
X269569178Y-57620937D01*
X269569178Y-57620937D02*
X269426321Y-57549509D01*
X269426321Y-57549509D02*
X269354892Y-57478080D01*
X269354892Y-57478080D02*
X269283464Y-57335223D01*
X269283464Y-57335223D02*
X269283464Y-56906651D01*
X269283464Y-56906651D02*
X269354892Y-56763794D01*
X269354892Y-56763794D02*
X269426321Y-56692366D01*
X269426321Y-56692366D02*
X269569178Y-56620937D01*
X269569178Y-56620937D02*
X269854892Y-56620937D01*
X269854892Y-56620937D02*
X269997750Y-56692366D01*
X271212035Y-57549509D02*
X271069178Y-57620937D01*
X271069178Y-57620937D02*
X270783464Y-57620937D01*
X270783464Y-57620937D02*
X270640606Y-57549509D01*
X270640606Y-57549509D02*
X270569178Y-57406651D01*
X270569178Y-57406651D02*
X270569178Y-56835223D01*
X270569178Y-56835223D02*
X270640606Y-56692366D01*
X270640606Y-56692366D02*
X270783464Y-56620937D01*
X270783464Y-56620937D02*
X271069178Y-56620937D01*
X271069178Y-56620937D02*
X271212035Y-56692366D01*
X271212035Y-56692366D02*
X271283464Y-56835223D01*
X271283464Y-56835223D02*
X271283464Y-56978080D01*
X271283464Y-56978080D02*
X270569178Y-57120937D01*
X271926320Y-57478080D02*
X271997749Y-57549509D01*
X271997749Y-57549509D02*
X271926320Y-57620937D01*
X271926320Y-57620937D02*
X271854892Y-57549509D01*
X271854892Y-57549509D02*
X271926320Y-57478080D01*
X271926320Y-57478080D02*
X271926320Y-57620937D01*
X271926320Y-57049509D02*
X271854892Y-56192366D01*
X271854892Y-56192366D02*
X271926320Y-56120937D01*
X271926320Y-56120937D02*
X271997749Y-56192366D01*
X271997749Y-56192366D02*
X271926320Y-57049509D01*
X271926320Y-57049509D02*
X271926320Y-56120937D01*
X272640606Y-56620937D02*
X272640606Y-57620937D01*
X272640606Y-56763794D02*
X272712035Y-56692366D01*
X272712035Y-56692366D02*
X272854892Y-56620937D01*
X272854892Y-56620937D02*
X273069178Y-56620937D01*
X273069178Y-56620937D02*
X273212035Y-56692366D01*
X273212035Y-56692366D02*
X273283464Y-56835223D01*
X273283464Y-56835223D02*
X273283464Y-57620937D01*
X274640607Y-57620937D02*
X274640607Y-56835223D01*
X274640607Y-56835223D02*
X274569178Y-56692366D01*
X274569178Y-56692366D02*
X274426321Y-56620937D01*
X274426321Y-56620937D02*
X274140607Y-56620937D01*
X274140607Y-56620937D02*
X273997749Y-56692366D01*
X274640607Y-57549509D02*
X274497749Y-57620937D01*
X274497749Y-57620937D02*
X274140607Y-57620937D01*
X274140607Y-57620937D02*
X273997749Y-57549509D01*
X273997749Y-57549509D02*
X273926321Y-57406651D01*
X273926321Y-57406651D02*
X273926321Y-57263794D01*
X273926321Y-57263794D02*
X273997749Y-57120937D01*
X273997749Y-57120937D02*
X274140607Y-57049509D01*
X274140607Y-57049509D02*
X274497749Y-57049509D01*
X274497749Y-57049509D02*
X274640607Y-56978080D01*
X275354892Y-56620937D02*
X275354892Y-57620937D01*
X275354892Y-56763794D02*
X275426321Y-56692366D01*
X275426321Y-56692366D02*
X275569178Y-56620937D01*
X275569178Y-56620937D02*
X275783464Y-56620937D01*
X275783464Y-56620937D02*
X275926321Y-56692366D01*
X275926321Y-56692366D02*
X275997750Y-56835223D01*
X275997750Y-56835223D02*
X275997750Y-57620937D01*
X276926321Y-57620937D02*
X276783464Y-57549509D01*
X276783464Y-57549509D02*
X276712035Y-57478080D01*
X276712035Y-57478080D02*
X276640607Y-57335223D01*
X276640607Y-57335223D02*
X276640607Y-56906651D01*
X276640607Y-56906651D02*
X276712035Y-56763794D01*
X276712035Y-56763794D02*
X276783464Y-56692366D01*
X276783464Y-56692366D02*
X276926321Y-56620937D01*
X276926321Y-56620937D02*
X277140607Y-56620937D01*
X277140607Y-56620937D02*
X277283464Y-56692366D01*
X277283464Y-56692366D02*
X277354893Y-56763794D01*
X277354893Y-56763794D02*
X277426321Y-56906651D01*
X277426321Y-56906651D02*
X277426321Y-57335223D01*
X277426321Y-57335223D02*
X277354893Y-57478080D01*
X277354893Y-57478080D02*
X277283464Y-57549509D01*
X277283464Y-57549509D02*
X277140607Y-57620937D01*
X277140607Y-57620937D02*
X276926321Y-57620937D01*
D12*
%TO.C,D1*%
X388815179Y-87480610D02*
X389315178Y-87480610D01*
X388815178Y-87880610D02*
X388215178Y-87480609D01*
X388815178Y-87080610D02*
X388815178Y-87880610D01*
X388215178Y-87480609D02*
X388815178Y-87080610D01*
X388215178Y-87480609D02*
X388215178Y-88030610D01*
X388215178Y-87480609D02*
X388215179Y-86930611D01*
X387815178Y-87480610D02*
X388215178Y-87480609D01*
%TO.C,D2*%
X388815180Y-69980608D02*
X389315179Y-69980608D01*
X388815179Y-70380608D02*
X388215179Y-69980607D01*
X388815179Y-69580608D02*
X388815179Y-70380608D01*
X388215179Y-69980607D02*
X388815179Y-69580608D01*
X388215179Y-69980607D02*
X388215179Y-70530608D01*
X388215179Y-69980607D02*
X388215180Y-69430609D01*
X387815179Y-69980608D02*
X388215179Y-69980607D01*
%TO.C,D3*%
X388815178Y-52480609D02*
X389315177Y-52480609D01*
X388815177Y-52880609D02*
X388215177Y-52480608D01*
X388815177Y-52080609D02*
X388815177Y-52880609D01*
X388215177Y-52480608D02*
X388815177Y-52080609D01*
X388215177Y-52480608D02*
X388215177Y-53030609D01*
X388215177Y-52480608D02*
X388215178Y-51930610D01*
X387815177Y-52480609D02*
X388215177Y-52480608D01*
%TO.C,D4*%
X370315179Y-85480609D02*
X370815178Y-85480609D01*
X370315178Y-85880609D02*
X369715178Y-85480608D01*
X370315178Y-85080609D02*
X370315178Y-85880609D01*
X369715178Y-85480608D02*
X370315178Y-85080609D01*
X369715178Y-85480608D02*
X369715178Y-86030609D01*
X369715178Y-85480608D02*
X369715179Y-84930610D01*
X369315178Y-85480609D02*
X369715178Y-85480608D01*
%TO.C,D5*%
X370315177Y-67980609D02*
X370815176Y-67980609D01*
X370315176Y-68380609D02*
X369715176Y-67980608D01*
X370315176Y-67580609D02*
X370315176Y-68380609D01*
X369715176Y-67980608D02*
X370315176Y-67580609D01*
X369715176Y-67980608D02*
X369715176Y-68530609D01*
X369715176Y-67980608D02*
X369715177Y-67430610D01*
X369315176Y-67980609D02*
X369715176Y-67980608D01*
%TO.C,D6*%
X370315180Y-50480609D02*
X370815179Y-50480609D01*
X370315179Y-50880609D02*
X369715179Y-50480608D01*
X370315179Y-50080609D02*
X370315179Y-50880609D01*
X369715179Y-50480608D02*
X370315179Y-50080609D01*
X369715179Y-50480608D02*
X369715179Y-51030609D01*
X369715179Y-50480608D02*
X369715180Y-49930610D01*
X369315179Y-50480609D02*
X369715179Y-50480608D01*
%TO.C,D7*%
X351815178Y-74480609D02*
X352315177Y-74480609D01*
X351815177Y-74880609D02*
X351215177Y-74480608D01*
X351815177Y-74080609D02*
X351815177Y-74880609D01*
X351215177Y-74480608D02*
X351815177Y-74080609D01*
X351215177Y-74480608D02*
X351215177Y-75030609D01*
X351215177Y-74480608D02*
X351215178Y-73930610D01*
X350815177Y-74480609D02*
X351215177Y-74480608D01*
%TO.C,D8*%
X351815180Y-56980608D02*
X352315179Y-56980608D01*
X351815179Y-57380608D02*
X351215179Y-56980607D01*
X351815179Y-56580608D02*
X351815179Y-57380608D01*
X351215179Y-56980607D02*
X351815179Y-56580608D01*
X351215179Y-56980607D02*
X351215179Y-57530608D01*
X351215179Y-56980607D02*
X351215180Y-56430609D01*
X350815179Y-56980608D02*
X351215179Y-56980607D01*
%TO.C,D9*%
X351815179Y-39480609D02*
X352315178Y-39480609D01*
X351815178Y-39880609D02*
X351215178Y-39480608D01*
X351815178Y-39080609D02*
X351815178Y-39880609D01*
X351215178Y-39480608D02*
X351815178Y-39080609D01*
X351215178Y-39480608D02*
X351215178Y-40030609D01*
X351215178Y-39480608D02*
X351215179Y-38930610D01*
X350815178Y-39480609D02*
X351215178Y-39480608D01*
%TO.C,D10*%
X333315178Y-69480609D02*
X333815177Y-69480609D01*
X333315177Y-69880609D02*
X332715177Y-69480608D01*
X333315177Y-69080609D02*
X333315177Y-69880609D01*
X332715177Y-69480608D02*
X333315177Y-69080609D01*
X332715177Y-69480608D02*
X332715177Y-70030609D01*
X332715177Y-69480608D02*
X332715178Y-68930610D01*
X332315177Y-69480609D02*
X332715177Y-69480608D01*
%TO.C,D11*%
X333315179Y-51980608D02*
X333815178Y-51980608D01*
X333315178Y-52380608D02*
X332715178Y-51980607D01*
X333315178Y-51580608D02*
X333315178Y-52380608D01*
X332715178Y-51980607D02*
X333315178Y-51580608D01*
X332715178Y-51980607D02*
X332715178Y-52530608D01*
X332715178Y-51980607D02*
X332715179Y-51430609D01*
X332315178Y-51980608D02*
X332715178Y-51980607D01*
%TO.C,D12*%
X333315180Y-34480609D02*
X333815179Y-34480609D01*
X333315179Y-34880609D02*
X332715179Y-34480608D01*
X333315179Y-34080609D02*
X333315179Y-34880609D01*
X332715179Y-34480608D02*
X333315179Y-34080609D01*
X332715179Y-34480608D02*
X332715179Y-35030609D01*
X332715179Y-34480608D02*
X332715180Y-33930610D01*
X332315179Y-34480609D02*
X332715179Y-34480608D01*
%TO.C,D13*%
X314815180Y-75480610D02*
X315315179Y-75480610D01*
X314815179Y-75880610D02*
X314215179Y-75480609D01*
X314815179Y-75080610D02*
X314815179Y-75880610D01*
X314215179Y-75480609D02*
X314815179Y-75080610D01*
X314215179Y-75480609D02*
X314215179Y-76030610D01*
X314215179Y-75480609D02*
X314215180Y-74930611D01*
X313815179Y-75480610D02*
X314215179Y-75480609D01*
%TO.C,D14*%
X314815178Y-57980608D02*
X315315177Y-57980608D01*
X314815177Y-58380608D02*
X314215177Y-57980607D01*
X314815177Y-57580608D02*
X314815177Y-58380608D01*
X314215177Y-57980607D02*
X314815177Y-57580608D01*
X314215177Y-57980607D02*
X314215177Y-58530608D01*
X314215177Y-57980607D02*
X314215178Y-57430609D01*
X313815177Y-57980608D02*
X314215177Y-57980607D01*
%TO.C,D15*%
X314815179Y-40480609D02*
X315315178Y-40480609D01*
X314815178Y-40880609D02*
X314215178Y-40480608D01*
X314815178Y-40080609D02*
X314815178Y-40880609D01*
X314215178Y-40480608D02*
X314815178Y-40080609D01*
X314215178Y-40480608D02*
X314215178Y-41030609D01*
X314215178Y-40480608D02*
X314215179Y-39930610D01*
X313815178Y-40480609D02*
X314215178Y-40480608D01*
%TO.C,D16*%
X296315179Y-77480610D02*
X296815178Y-77480610D01*
X296315178Y-77880610D02*
X295715178Y-77480609D01*
X296315178Y-77080610D02*
X296315178Y-77880610D01*
X295715178Y-77480609D02*
X296315178Y-77080610D01*
X295715178Y-77480609D02*
X295715178Y-78030610D01*
X295715178Y-77480609D02*
X295715179Y-76930611D01*
X295315178Y-77480610D02*
X295715178Y-77480609D01*
%TO.C,D17*%
X296315180Y-59980607D02*
X296815179Y-59980607D01*
X296315179Y-60380607D02*
X295715179Y-59980606D01*
X296315179Y-59580607D02*
X296315179Y-60380607D01*
X295715179Y-59980606D02*
X296315179Y-59580607D01*
X295715179Y-59980606D02*
X295715179Y-60530607D01*
X295715179Y-59980606D02*
X295715180Y-59430608D01*
X295315179Y-59980607D02*
X295715179Y-59980606D01*
%TO.C,D18*%
X296315179Y-42480609D02*
X296815178Y-42480609D01*
X296315178Y-42880609D02*
X295715178Y-42480608D01*
X296315178Y-42080609D02*
X296315178Y-42880609D01*
X295715178Y-42480608D02*
X296315178Y-42080609D01*
X295715178Y-42480608D02*
X295715178Y-43030609D01*
X295715178Y-42480608D02*
X295715179Y-41930610D01*
X295315178Y-42480609D02*
X295715178Y-42480608D01*
%TO.C,D19*%
X340315177Y-95480609D02*
X340815176Y-95480609D01*
X340315176Y-95880609D02*
X339715176Y-95480608D01*
X340315176Y-95080609D02*
X340315176Y-95880609D01*
X339715176Y-95480608D02*
X340315176Y-95080609D01*
X339715176Y-95480608D02*
X339715176Y-96030609D01*
X339715176Y-95480608D02*
X339715177Y-94930610D01*
X339315176Y-95480609D02*
X339715176Y-95480608D01*
%TO.C,D20*%
X321815179Y-94480608D02*
X322315178Y-94480608D01*
X321815178Y-94880608D02*
X321215178Y-94480607D01*
X321815178Y-94080608D02*
X321815178Y-94880608D01*
X321215178Y-94480607D02*
X321815178Y-94080608D01*
X321215178Y-94480607D02*
X321215178Y-95030608D01*
X321215178Y-94480607D02*
X321215179Y-93930609D01*
X320815178Y-94480608D02*
X321215178Y-94480607D01*
%TO.C,D21*%
X302707941Y-96539855D02*
X303200345Y-96453031D01*
X302777400Y-96933778D02*
X302117056Y-96644044D01*
X302638482Y-96145932D02*
X302777400Y-96933778D01*
X302117056Y-96644044D02*
X302638482Y-96145932D01*
X302117056Y-96644044D02*
X302212563Y-97185687D01*
X302117056Y-96644044D02*
X302021550Y-96102400D01*
X301723133Y-96713503D02*
X302117056Y-96644044D01*
%TO.C,D22*%
X284422218Y-102870561D02*
X284892063Y-102699551D01*
X284559025Y-103246438D02*
X283858403Y-103075774D01*
X284285409Y-102494684D02*
X284559025Y-103246438D01*
X283858403Y-103075774D02*
X284285409Y-102494684D01*
X283858403Y-103075774D02*
X284046513Y-103592603D01*
X283858403Y-103075774D02*
X283670291Y-102558942D01*
X283482525Y-103212581D02*
X283858403Y-103075774D01*
D13*
%TO.C,MCU1*%
X280955178Y-58720609D02*
X280955178Y-25700609D01*
X263175178Y-58720609D02*
X280955178Y-58720609D01*
X263175178Y-25700609D02*
X263175178Y-58720609D01*
X280955178Y-25700609D02*
X263175178Y-25700609D01*
D10*
%TO.C,B1*%
X279315179Y-63730607D02*
X280815179Y-65230607D01*
X276815179Y-63730607D02*
X275315179Y-65230607D01*
X276815179Y-63730607D02*
X279315179Y-63730607D01*
X280815179Y-67730607D02*
X280815179Y-65230607D01*
X275315179Y-67730607D02*
X275315179Y-65230607D01*
X279315179Y-69230607D02*
X280815179Y-67730607D01*
X276815179Y-69230607D02*
X275315179Y-67730607D01*
X276815179Y-69230607D02*
X279315179Y-69230607D01*
%TO.C,T1*%
X260215178Y-64530607D02*
X260215178Y-68430608D01*
X260215178Y-66480607D02*
X260215178Y-69780607D01*
X260215178Y-69780607D02*
X263065178Y-69780607D01*
X263065178Y-69780607D02*
X263065178Y-63180607D01*
X263065178Y-63180607D02*
X260215178Y-63180607D01*
X260215178Y-66480607D02*
X260215178Y-63180607D01*
%TO.C,JST1*%
X267815178Y-83830608D02*
X267815177Y-82230608D01*
X267115178Y-83830608D02*
X267815178Y-83830608D01*
X267115178Y-76230608D02*
X267115178Y-83830608D01*
X273015178Y-76230608D02*
X267115178Y-76230608D01*
X273015178Y-83830608D02*
X273015178Y-76230608D01*
X272315178Y-83830608D02*
X273015178Y-83830608D01*
X272315178Y-82230608D02*
X272315178Y-83830608D01*
X267815177Y-82230608D02*
X272315178Y-82230608D01*
X269065178Y-80480608D02*
X269065178Y-80980608D01*
X269315177Y-80730608D02*
X268815177Y-80730609D01*
%TD*%
D14*
%TO.C,MCU1*%
X264445178Y-29510610D03*
X264445178Y-32050609D03*
X264445178Y-34590609D03*
X264445178Y-37130609D03*
X264445178Y-39670609D03*
X264445178Y-42210609D03*
X264445178Y-44750609D03*
X264445178Y-47290609D03*
X264445179Y-49830609D03*
X264445178Y-52370609D03*
X264445178Y-54910609D03*
X264445178Y-57450609D03*
X279685178Y-57450608D03*
X279685178Y-54910609D03*
X279685178Y-52370609D03*
X279685178Y-49830609D03*
X279685178Y-47290609D03*
X279685178Y-44750609D03*
X279685178Y-42210609D03*
X279685178Y-39670609D03*
X279685177Y-37130609D03*
X279685178Y-34590609D03*
X279685178Y-32050609D03*
X279685178Y-29510609D03*
X266985178Y-52370609D03*
X269525178Y-52370609D03*
X272065178Y-52370609D03*
%TD*%
M02*
