%TF.GenerationSoftware,KiCad,Pcbnew,8.0.4*%
%TF.CreationDate,2024-08-22T13:25:09+01:00*%
%TF.ProjectId,right (v2 backup),72696768-7420-4287-9632-206261636b75,v1.0.0*%
%TF.SameCoordinates,Original*%
%TF.FileFunction,Copper,L1,Top*%
%TF.FilePolarity,Positive*%
%FSLAX46Y46*%
G04 Gerber Fmt 4.6, Leading zero omitted, Abs format (unit mm)*
G04 Created by KiCad (PCBNEW 8.0.4) date 2024-08-22 13:25:09*
%MOMM*%
%LPD*%
G01*
G04 APERTURE LIST*
G04 Aperture macros list*
%AMRotRect*
0 Rectangle, with rotation*
0 The origin of the aperture is its center*
0 $1 length*
0 $2 width*
0 $3 Rotation angle, in degrees counterclockwise*
0 Add horizontal line*
21,1,$1,$2,0,0,$3*%
G04 Aperture macros list end*
%TA.AperFunction,SMDPad,CuDef*%
%ADD10R,0.900000X1.200000*%
%TD*%
%TA.AperFunction,ComponentPad*%
%ADD11R,1.778000X1.778000*%
%TD*%
%TA.AperFunction,ComponentPad*%
%ADD12C,1.905000*%
%TD*%
%TA.AperFunction,SMDPad,CuDef*%
%ADD13RotRect,0.900000X1.200000X10.000000*%
%TD*%
%TA.AperFunction,ComponentPad*%
%ADD14RotRect,1.778000X1.778000X10.000000*%
%TD*%
%TA.AperFunction,SMDPad,CuDef*%
%ADD15RotRect,0.900000X1.200000X20.000000*%
%TD*%
%TA.AperFunction,ComponentPad*%
%ADD16RotRect,1.778000X1.778000X20.000000*%
%TD*%
%TA.AperFunction,ComponentPad*%
%ADD17C,1.752600*%
%TD*%
%TA.AperFunction,SMDPad,CuDef*%
%ADD18R,1.100000X1.800000*%
%TD*%
%TA.AperFunction,WasherPad*%
%ADD19C,1.000000*%
%TD*%
%TA.AperFunction,SMDPad,CuDef*%
%ADD20R,1.250000X0.900000*%
%TD*%
%TA.AperFunction,SMDPad,CuDef*%
%ADD21R,0.900000X0.900000*%
%TD*%
%TA.AperFunction,ComponentPad*%
%ADD22R,1.200000X1.700000*%
%TD*%
%TA.AperFunction,ComponentPad*%
%ADD23O,1.200000X1.700000*%
%TD*%
%TA.AperFunction,Conductor*%
%ADD24C,0.250000*%
%TD*%
G04 APERTURE END LIST*
D10*
%TO.P,D1,1*%
%TO.N,P009*%
X386915178Y-87480611D03*
%TO.P,D1,2*%
%TO.N,mirror_first_bottom*%
X390215178Y-87480609D03*
D11*
%TO.P,D1,1*%
%TO.N,P009*%
X384755178Y-87480610D03*
D12*
%TO.P,D1,2*%
%TO.N,mirror_first_bottom*%
X392375178Y-87480610D03*
%TD*%
D10*
%TO.P,D2,1*%
%TO.N,P010*%
X386915179Y-69980609D03*
%TO.P,D2,2*%
%TO.N,mirror_first_home*%
X390215179Y-69980607D03*
D11*
%TO.P,D2,1*%
%TO.N,P010*%
X384755179Y-69980608D03*
D12*
%TO.P,D2,2*%
%TO.N,mirror_first_home*%
X392375179Y-69980608D03*
%TD*%
D10*
%TO.P,D3,1*%
%TO.N,P111*%
X386915177Y-52480610D03*
%TO.P,D3,2*%
%TO.N,mirror_first_top*%
X390215177Y-52480608D03*
D11*
%TO.P,D3,1*%
%TO.N,P111*%
X384755177Y-52480609D03*
D12*
%TO.P,D3,2*%
%TO.N,mirror_first_top*%
X392375177Y-52480609D03*
%TD*%
D10*
%TO.P,D4,1*%
%TO.N,P009*%
X368415178Y-85480610D03*
%TO.P,D4,2*%
%TO.N,mirror_second_bottom*%
X371715178Y-85480608D03*
D11*
%TO.P,D4,1*%
%TO.N,P009*%
X366255178Y-85480609D03*
D12*
%TO.P,D4,2*%
%TO.N,mirror_second_bottom*%
X373875178Y-85480609D03*
%TD*%
D10*
%TO.P,D5,1*%
%TO.N,P010*%
X368415176Y-67980610D03*
%TO.P,D5,2*%
%TO.N,mirror_second_home*%
X371715176Y-67980608D03*
D11*
%TO.P,D5,1*%
%TO.N,P010*%
X366255176Y-67980609D03*
D12*
%TO.P,D5,2*%
%TO.N,mirror_second_home*%
X373875176Y-67980609D03*
%TD*%
D10*
%TO.P,D6,1*%
%TO.N,P111*%
X368415179Y-50480610D03*
%TO.P,D6,2*%
%TO.N,mirror_second_top*%
X371715179Y-50480608D03*
D11*
%TO.P,D6,1*%
%TO.N,P111*%
X366255179Y-50480609D03*
D12*
%TO.P,D6,2*%
%TO.N,mirror_second_top*%
X373875179Y-50480609D03*
%TD*%
D10*
%TO.P,D7,1*%
%TO.N,P009*%
X349915177Y-74480610D03*
%TO.P,D7,2*%
%TO.N,mirror_third_bottom*%
X353215177Y-74480608D03*
D11*
%TO.P,D7,1*%
%TO.N,P009*%
X347755177Y-74480609D03*
D12*
%TO.P,D7,2*%
%TO.N,mirror_third_bottom*%
X355375177Y-74480609D03*
%TD*%
D10*
%TO.P,D8,1*%
%TO.N,P010*%
X349915179Y-56980609D03*
%TO.P,D8,2*%
%TO.N,mirror_third_home*%
X353215179Y-56980607D03*
D11*
%TO.P,D8,1*%
%TO.N,P010*%
X347755179Y-56980608D03*
D12*
%TO.P,D8,2*%
%TO.N,mirror_third_home*%
X355375179Y-56980608D03*
%TD*%
D10*
%TO.P,D9,1*%
%TO.N,P111*%
X349915178Y-39480610D03*
%TO.P,D9,2*%
%TO.N,mirror_third_top*%
X353215178Y-39480608D03*
D11*
%TO.P,D9,1*%
%TO.N,P111*%
X347755178Y-39480609D03*
D12*
%TO.P,D9,2*%
%TO.N,mirror_third_top*%
X355375178Y-39480609D03*
%TD*%
D10*
%TO.P,D10,1*%
%TO.N,P009*%
X331415177Y-69480610D03*
%TO.P,D10,2*%
%TO.N,mirror_fourth_bottom*%
X334715177Y-69480608D03*
D11*
%TO.P,D10,1*%
%TO.N,P009*%
X329255177Y-69480609D03*
D12*
%TO.P,D10,2*%
%TO.N,mirror_fourth_bottom*%
X336875177Y-69480609D03*
%TD*%
D10*
%TO.P,D11,1*%
%TO.N,P010*%
X331415178Y-51980609D03*
%TO.P,D11,2*%
%TO.N,mirror_fourth_home*%
X334715178Y-51980607D03*
D11*
%TO.P,D11,1*%
%TO.N,P010*%
X329255178Y-51980608D03*
D12*
%TO.P,D11,2*%
%TO.N,mirror_fourth_home*%
X336875178Y-51980608D03*
%TD*%
D10*
%TO.P,D12,1*%
%TO.N,P111*%
X331415179Y-34480610D03*
%TO.P,D12,2*%
%TO.N,mirror_fourth_top*%
X334715179Y-34480608D03*
D11*
%TO.P,D12,1*%
%TO.N,P111*%
X329255179Y-34480609D03*
D12*
%TO.P,D12,2*%
%TO.N,mirror_fourth_top*%
X336875179Y-34480609D03*
%TD*%
D10*
%TO.P,D13,1*%
%TO.N,P009*%
X312915179Y-75480611D03*
%TO.P,D13,2*%
%TO.N,mirror_fifth_bottom*%
X316215179Y-75480609D03*
D11*
%TO.P,D13,1*%
%TO.N,P009*%
X310755179Y-75480610D03*
D12*
%TO.P,D13,2*%
%TO.N,mirror_fifth_bottom*%
X318375179Y-75480610D03*
%TD*%
D10*
%TO.P,D14,1*%
%TO.N,P010*%
X312915177Y-57980609D03*
%TO.P,D14,2*%
%TO.N,mirror_fifth_home*%
X316215177Y-57980607D03*
D11*
%TO.P,D14,1*%
%TO.N,P010*%
X310755177Y-57980608D03*
D12*
%TO.P,D14,2*%
%TO.N,mirror_fifth_home*%
X318375177Y-57980608D03*
%TD*%
D10*
%TO.P,D15,1*%
%TO.N,P111*%
X312915178Y-40480610D03*
%TO.P,D15,2*%
%TO.N,mirror_fifth_top*%
X316215178Y-40480608D03*
D11*
%TO.P,D15,1*%
%TO.N,P111*%
X310755178Y-40480609D03*
D12*
%TO.P,D15,2*%
%TO.N,mirror_fifth_top*%
X318375178Y-40480609D03*
%TD*%
D10*
%TO.P,D16,1*%
%TO.N,P009*%
X294415178Y-77480611D03*
%TO.P,D16,2*%
%TO.N,mirror_sixth_bottom*%
X297715178Y-77480609D03*
D11*
%TO.P,D16,1*%
%TO.N,P009*%
X292255178Y-77480610D03*
D12*
%TO.P,D16,2*%
%TO.N,mirror_sixth_bottom*%
X299875178Y-77480610D03*
%TD*%
D10*
%TO.P,D17,1*%
%TO.N,P010*%
X294415179Y-59980608D03*
%TO.P,D17,2*%
%TO.N,mirror_sixth_home*%
X297715179Y-59980606D03*
D11*
%TO.P,D17,1*%
%TO.N,P010*%
X292255179Y-59980607D03*
D12*
%TO.P,D17,2*%
%TO.N,mirror_sixth_home*%
X299875179Y-59980607D03*
%TD*%
D10*
%TO.P,D18,1*%
%TO.N,P111*%
X294415178Y-42480610D03*
%TO.P,D18,2*%
%TO.N,mirror_sixth_top*%
X297715178Y-42480608D03*
D11*
%TO.P,D18,1*%
%TO.N,P111*%
X292255178Y-42480609D03*
D12*
%TO.P,D18,2*%
%TO.N,mirror_sixth_top*%
X299875178Y-42480609D03*
%TD*%
D10*
%TO.P,D19,1*%
%TO.N,P106*%
X338415176Y-95480610D03*
%TO.P,D19,2*%
%TO.N,mirror_first_only*%
X341715176Y-95480608D03*
D11*
%TO.P,D19,1*%
%TO.N,P106*%
X336255176Y-95480609D03*
D12*
%TO.P,D19,2*%
%TO.N,mirror_first_only*%
X343875176Y-95480609D03*
%TD*%
D10*
%TO.P,D20,1*%
%TO.N,P106*%
X319915178Y-94480609D03*
%TO.P,D20,2*%
%TO.N,mirror_second_only*%
X323215178Y-94480607D03*
D11*
%TO.P,D20,1*%
%TO.N,P106*%
X317755178Y-94480608D03*
D12*
%TO.P,D20,2*%
%TO.N,mirror_second_only*%
X325375178Y-94480608D03*
%TD*%
D13*
%TO.P,D21,1*%
%TO.N,P106*%
X300836806Y-96869785D03*
%TO.P,D21,2*%
%TO.N,mirror_third_only*%
X304086672Y-96296749D03*
D14*
%TO.P,D21,1*%
%TO.N,P106*%
X298709621Y-97244867D03*
D12*
%TO.P,D21,2*%
%TO.N,mirror_third_only*%
X306213857Y-95921667D03*
%TD*%
D15*
%TO.P,D22,1*%
%TO.N,P106*%
X282636801Y-103520398D03*
%TO.P,D22,2*%
%TO.N,mirror_fourth_only*%
X285737787Y-102391734D03*
D16*
%TO.P,D22,1*%
%TO.N,P106*%
X280607065Y-104259163D03*
D12*
%TO.P,D22,2*%
%TO.N,mirror_fourth_only*%
X287767523Y-101652969D03*
%TD*%
D17*
%TO.P,MCU1,1*%
%TO.N,P006*%
X264445178Y-29510610D03*
%TO.P,MCU1,2*%
%TO.N,P008*%
X264445178Y-32050609D03*
%TO.P,MCU1,3*%
%TO.N,GND*%
X264445178Y-34590609D03*
%TO.P,MCU1,4*%
X264445178Y-37130609D03*
%TO.P,MCU1,5*%
%TO.N,P017*%
X264445178Y-39670609D03*
%TO.P,MCU1,6*%
%TO.N,P020*%
X264445178Y-42210609D03*
%TO.P,MCU1,7*%
%TO.N,P022*%
X264445178Y-44750609D03*
%TO.P,MCU1,8*%
%TO.N,P024*%
X264445178Y-47290609D03*
%TO.P,MCU1,9*%
%TO.N,P100*%
X264445179Y-49830609D03*
%TO.P,MCU1,10*%
%TO.N,P011*%
X264445178Y-52370609D03*
%TO.P,MCU1,11*%
%TO.N,P104*%
X264445178Y-54910609D03*
%TO.P,MCU1,12*%
%TO.N,P106*%
X264445178Y-57450609D03*
%TO.P,MCU1,13*%
%TO.N,P009*%
X279685178Y-57450608D03*
%TO.P,MCU1,14*%
%TO.N,P010*%
X279685178Y-54910609D03*
%TO.P,MCU1,15*%
%TO.N,P111*%
X279685178Y-52370609D03*
%TO.P,MCU1,16*%
%TO.N,P113*%
X279685178Y-49830609D03*
%TO.P,MCU1,17*%
%TO.N,P115*%
X279685178Y-47290609D03*
%TO.P,MCU1,18*%
%TO.N,P002*%
X279685178Y-44750609D03*
%TO.P,MCU1,19*%
%TO.N,P029*%
X279685178Y-42210609D03*
%TO.P,MCU1,20*%
%TO.N,P031*%
X279685178Y-39670609D03*
%TO.P,MCU1,21*%
%TO.N,VCC*%
X279685177Y-37130609D03*
%TO.P,MCU1,22*%
%TO.N,RST*%
X279685178Y-34590609D03*
%TO.P,MCU1,23*%
%TO.N,GND*%
X279685178Y-32050609D03*
%TO.P,MCU1,24*%
%TO.N,RAW*%
X279685178Y-29510609D03*
%TO.P,MCU1,31*%
%TO.N,P101*%
X266985178Y-52370609D03*
%TO.P,MCU1,32*%
%TO.N,P102*%
X269525178Y-52370609D03*
%TO.P,MCU1,33*%
%TO.N,P107*%
X272065178Y-52370609D03*
%TD*%
D18*
%TO.P,B1,1*%
%TO.N,GND*%
X276215179Y-69580607D03*
X276215179Y-63380607D03*
%TO.P,B1,2*%
%TO.N,RST*%
X279915179Y-69580607D03*
X279915179Y-63380607D03*
%TD*%
D19*
%TO.P,T1,*%
%TO.N,*%
X261565178Y-64980607D03*
X261565178Y-67980607D03*
D20*
%TO.P,T1,1*%
%TO.N,pos*%
X263640179Y-64230607D03*
%TO.P,T1,2*%
%TO.N,RAW*%
X263640178Y-67230607D03*
%TO.P,T1,3*%
%TO.N,N/C*%
X263640178Y-68730607D03*
D21*
%TO.P,T1,*%
%TO.N,*%
X260465178Y-62780607D03*
X262665178Y-62780607D03*
X262665178Y-70180607D03*
X260465178Y-70180607D03*
%TD*%
D22*
%TO.P,JST1,1*%
%TO.N,pos*%
X269065178Y-82480608D03*
D23*
%TO.P,JST1,2*%
%TO.N,GND*%
X271065178Y-82480608D03*
%TD*%
D24*
%TO.N,P106*%
X269990178Y-93642276D02*
X280607065Y-104259163D01*
X264445178Y-57450609D02*
X269990178Y-62995609D01*
X269990178Y-62995609D02*
X269990178Y-93642276D01*
%TO.N,GND*%
X271065178Y-74730608D02*
X276215179Y-69580607D01*
X271065178Y-82480608D02*
X271065178Y-74730608D01*
%TO.N,pos*%
X269065178Y-69655606D02*
X269065178Y-82480608D01*
X263640179Y-64230607D02*
X269065178Y-69655606D01*
%TO.N,RAW*%
X263640178Y-65888880D02*
X263640178Y-67230607D01*
X261890178Y-64138880D02*
X263640178Y-65888880D01*
X261890178Y-30309822D02*
X261890178Y-64138880D01*
X278483879Y-28309310D02*
X263890690Y-28309310D01*
X263890690Y-28309310D02*
X261890178Y-30309822D01*
X279685178Y-29510609D02*
X278483879Y-28309310D01*
%TO.N,GND*%
X276215179Y-35520608D02*
X279685178Y-32050609D01*
X276215179Y-63380607D02*
X276215179Y-35520608D01*
%TO.N,RST*%
X278483878Y-35791909D02*
X279685178Y-34590609D01*
X278483878Y-61949306D02*
X278483878Y-35791909D01*
X279915179Y-63380607D02*
X278483878Y-61949306D01*
%TO.N,GND*%
X276215179Y-69580607D02*
X276215179Y-63380607D01*
%TO.N,RST*%
X279915179Y-69580607D02*
X279915179Y-63380607D01*
%TO.N,GND*%
X264445178Y-34590609D02*
X264445178Y-37130609D01*
X266985178Y-32050609D02*
X264445178Y-34590609D01*
X279685178Y-32050609D02*
X266985178Y-32050609D01*
%TO.N,P111*%
X282365178Y-52370609D02*
X292255178Y-42480609D01*
X279685178Y-52370609D02*
X282365178Y-52370609D01*
%TO.N,P010*%
X284755176Y-59980607D02*
X292255179Y-59980607D01*
X279685178Y-54910609D02*
X284755176Y-59980607D01*
%TO.N,P009*%
X286339278Y-72988393D02*
X290831495Y-77480610D01*
X286339278Y-64104708D02*
X286339278Y-72988393D01*
X279685178Y-57450608D02*
X286339278Y-64104708D01*
X290831495Y-77480610D02*
X292255178Y-77480610D01*
X368255179Y-87480610D02*
X384755178Y-87480610D01*
X366255178Y-85480609D02*
X368255179Y-87480610D01*
%TO.N,mirror_first_bottom*%
X390215178Y-87480609D02*
X392375177Y-87480609D01*
X392375177Y-87480609D02*
X392375178Y-87480610D01*
%TO.N,P009*%
X386915177Y-87480610D02*
X386915178Y-87480611D01*
X384755178Y-87480610D02*
X386915177Y-87480610D01*
%TO.N,mirror_second_bottom*%
X373875177Y-85480608D02*
X373875178Y-85480609D01*
X371715178Y-85480608D02*
X373875177Y-85480608D01*
%TO.N,P009*%
X368415177Y-85480609D02*
X368415178Y-85480610D01*
X366255178Y-85480609D02*
X368415177Y-85480609D01*
X358755177Y-85480609D02*
X366255178Y-85480609D01*
X347755177Y-74480609D02*
X358755177Y-85480609D01*
%TO.N,mirror_third_bottom*%
X355375176Y-74480608D02*
X355375177Y-74480609D01*
X353215177Y-74480608D02*
X355375176Y-74480608D01*
%TO.N,P009*%
X349915176Y-74480609D02*
X349915177Y-74480610D01*
X347755177Y-74480609D02*
X349915176Y-74480609D01*
X334255177Y-74480609D02*
X347755177Y-74480609D01*
X329255177Y-69480609D02*
X334255177Y-74480609D01*
%TO.N,mirror_fourth_bottom*%
X334715178Y-69480609D02*
X334715177Y-69480608D01*
X336875177Y-69480609D02*
X334715178Y-69480609D01*
%TO.N,P009*%
X331415176Y-69480609D02*
X331415177Y-69480610D01*
X329255177Y-69480609D02*
X331415176Y-69480609D01*
X312400000Y-73835789D02*
X312400000Y-73800000D01*
X312400000Y-73800000D02*
X324935786Y-73800000D01*
X324935786Y-73800000D02*
X329255177Y-69480609D01*
X310755179Y-75480610D02*
X312400000Y-73835789D01*
%TO.N,mirror_fifth_bottom*%
X316215179Y-75480609D02*
X318375178Y-75480609D01*
X318375178Y-75480609D02*
X318375179Y-75480610D01*
%TO.N,P009*%
X312915178Y-75480610D02*
X312915179Y-75480611D01*
X310755179Y-75480610D02*
X312915178Y-75480610D01*
X292255178Y-77480610D02*
X294255178Y-75480610D01*
X294255178Y-75480610D02*
X310755179Y-75480610D01*
%TO.N,mirror_sixth_bottom*%
X299875177Y-77480609D02*
X299875178Y-77480610D01*
X297715178Y-77480609D02*
X299875177Y-77480609D01*
%TO.N,P009*%
X292255178Y-77480610D02*
X294415177Y-77480610D01*
X294415177Y-77480610D02*
X294415178Y-77480611D01*
%TO.N,P010*%
X294255178Y-57980608D02*
X292255179Y-59980607D01*
X310755177Y-57980608D02*
X294255178Y-57980608D01*
X313535785Y-55200000D02*
X310755177Y-57980608D01*
X326035786Y-55200000D02*
X313535785Y-55200000D01*
X329255178Y-51980608D02*
X326035786Y-55200000D01*
X292255180Y-59980608D02*
X292255179Y-59980607D01*
X294415179Y-59980608D02*
X292255180Y-59980608D01*
%TO.N,mirror_sixth_home*%
X297715180Y-59980607D02*
X297715179Y-59980606D01*
X299875179Y-59980607D02*
X297715180Y-59980607D01*
%TO.N,P010*%
X310755178Y-57980609D02*
X310755177Y-57980608D01*
X312915177Y-57980609D02*
X310755178Y-57980609D01*
%TO.N,mirror_fifth_home*%
X316215178Y-57980608D02*
X316215177Y-57980607D01*
X318375177Y-57980608D02*
X316215178Y-57980608D01*
%TO.N,P010*%
X329255179Y-51980609D02*
X329255178Y-51980608D01*
X331415178Y-51980609D02*
X329255179Y-51980609D01*
%TO.N,mirror_fourth_home*%
X334715179Y-51980608D02*
X334715178Y-51980607D01*
X336875178Y-51980608D02*
X334715179Y-51980608D01*
%TO.N,P010*%
X334255178Y-56980608D02*
X329255178Y-51980608D01*
X347755179Y-56980608D02*
X334255178Y-56980608D01*
X349915179Y-56980609D02*
X347755180Y-56980609D01*
X347755180Y-56980609D02*
X347755179Y-56980608D01*
%TO.N,mirror_third_home*%
X353215180Y-56980608D02*
X353215179Y-56980607D01*
X355375179Y-56980608D02*
X353215180Y-56980608D01*
%TO.N,P010*%
X366255176Y-67980609D02*
X358755180Y-67980609D01*
X358755180Y-67980609D02*
X347755179Y-56980608D01*
X368415176Y-67980610D02*
X366255177Y-67980610D01*
X366255177Y-67980610D02*
X366255176Y-67980609D01*
%TO.N,mirror_second_home*%
X373875176Y-67980609D02*
X371715177Y-67980609D01*
X371715177Y-67980609D02*
X371715176Y-67980608D01*
%TO.N,P010*%
X368255175Y-69980608D02*
X366255176Y-67980609D01*
X384755179Y-69980608D02*
X368255175Y-69980608D01*
X384755180Y-69980609D02*
X384755179Y-69980608D01*
X386915179Y-69980609D02*
X384755180Y-69980609D01*
%TO.N,mirror_first_home*%
X390215180Y-69980608D02*
X390215179Y-69980607D01*
X392375179Y-69980608D02*
X390215180Y-69980608D01*
%TO.N,mirror_first_top*%
X392375176Y-52480608D02*
X392375177Y-52480609D01*
X390215177Y-52480608D02*
X392375176Y-52480608D01*
%TO.N,P111*%
X384755177Y-52480609D02*
X386915176Y-52480609D01*
X386915176Y-52480609D02*
X386915177Y-52480610D01*
X368255179Y-52480609D02*
X384755177Y-52480609D01*
X366255179Y-50480609D02*
X368255179Y-52480609D01*
%TO.N,mirror_second_top*%
X373875178Y-50480608D02*
X373875179Y-50480609D01*
X371715179Y-50480608D02*
X373875178Y-50480608D01*
%TO.N,P111*%
X368415178Y-50480609D02*
X368415179Y-50480610D01*
X366255179Y-50480609D02*
X368415178Y-50480609D01*
X347755178Y-39480609D02*
X358755178Y-50480609D01*
X358755178Y-50480609D02*
X366255179Y-50480609D01*
%TO.N,mirror_third_top*%
X353215178Y-39480608D02*
X355375177Y-39480608D01*
X355375177Y-39480608D02*
X355375178Y-39480609D01*
%TO.N,P111*%
X349915177Y-39480609D02*
X349915178Y-39480610D01*
X347755178Y-39480609D02*
X349915177Y-39480609D01*
X334255179Y-39480609D02*
X347755178Y-39480609D01*
X329255179Y-34480609D02*
X334255179Y-39480609D01*
%TO.N,mirror_fourth_top*%
X336875178Y-34480608D02*
X336875179Y-34480609D01*
X334715179Y-34480608D02*
X336875178Y-34480608D01*
%TO.N,P111*%
X331415178Y-34480609D02*
X331415179Y-34480610D01*
X329255179Y-34480609D02*
X331415178Y-34480609D01*
X312435787Y-38800000D02*
X324935788Y-38800000D01*
X324935788Y-38800000D02*
X329255179Y-34480609D01*
X310755178Y-40480609D02*
X312435787Y-38800000D01*
%TO.N,mirror_fifth_top*%
X318375177Y-40480608D02*
X318375178Y-40480609D01*
X316215178Y-40480608D02*
X318375177Y-40480608D01*
%TO.N,P111*%
X312915177Y-40480609D02*
X312915178Y-40480610D01*
X310755178Y-40480609D02*
X312915177Y-40480609D01*
X294255178Y-40480609D02*
X310755178Y-40480609D01*
X292255178Y-42480609D02*
X294255178Y-40480609D01*
%TO.N,mirror_sixth_top*%
X297715178Y-42480608D02*
X299875177Y-42480608D01*
X299875177Y-42480608D02*
X299875178Y-42480609D01*
%TO.N,P111*%
X294415177Y-42480609D02*
X294415178Y-42480610D01*
X292255178Y-42480609D02*
X294415177Y-42480609D01*
%TO.N,mirror_first_only*%
X341715176Y-95480608D02*
X343875175Y-95480608D01*
X343875175Y-95480608D02*
X343875176Y-95480609D01*
%TO.N,P106*%
X338415175Y-95480609D02*
X338415176Y-95480610D01*
X336255176Y-95480609D02*
X338415175Y-95480609D01*
%TO.N,mirror_second_only*%
X325375177Y-94480607D02*
X325375178Y-94480608D01*
X323215178Y-94480607D02*
X325375177Y-94480607D01*
%TO.N,P106*%
X319915177Y-94480608D02*
X319915178Y-94480609D01*
X317755178Y-94480608D02*
X319915177Y-94480608D01*
X335977677Y-95758108D02*
X336255176Y-95480609D01*
X319032678Y-95758108D02*
X335977677Y-95758108D01*
X317755178Y-94480608D02*
X319032678Y-95758108D01*
X317193421Y-95282880D02*
X317755178Y-94480608D01*
X300189546Y-98281121D02*
X317193421Y-95282880D01*
X298709621Y-97244867D02*
X300189546Y-98281121D01*
%TO.N,mirror_third_only*%
X306213854Y-95921668D02*
X306213856Y-95921665D01*
X304086671Y-96296748D02*
X306213854Y-95921668D01*
%TO.N,P106*%
X300836804Y-96869787D02*
X300836806Y-96869785D01*
X298709621Y-97244867D02*
X300836804Y-96869787D01*
X281370595Y-102621772D02*
X297584714Y-96720315D01*
X280607066Y-104259162D02*
X281370595Y-102621772D01*
X297584714Y-96720315D02*
X298709621Y-97244867D01*
%TO.N,mirror_fourth_only*%
X287767521Y-101652970D02*
X287767523Y-101652967D01*
X285737788Y-102391732D02*
X287767521Y-101652970D01*
%TO.N,P106*%
X282636800Y-103520401D02*
X282636801Y-103520397D01*
X280607066Y-104259162D02*
X282636800Y-103520401D01*
%TD*%
M02*
