M48
; DRILL file {KiCad 8.0.4} date 2024-08-22T13:25:06+0100
; FORMAT={-:-/ absolute / inch / decimal}
; #@! TF.CreationDate,2024-08-22T13:25:06+01:00
; #@! TF.GenerationSoftware,Kicad,Pcbnew,8.0.4
; #@! TF.FileFunction,Plated,1,2,PTH
FMAT,2
INCH
; #@! TA.AperFunction,Plated,PTH,ComponentDrill
T1C0.0295
; #@! TA.AperFunction,Plated,PTH,ComponentDrill
T2C0.0390
; #@! TA.AperFunction,Plated,PTH,ComponentDrill
T3C0.0430
%
G90
G05
T1
X10.5931Y-3.2473
X10.6719Y-3.2473
T2
X11.0475Y-4.1047
X11.3294Y-4.0021
X11.5061Y-1.6725
X11.5061Y-3.0504
X11.5061Y-2.3614
X11.7602Y-3.8285
X11.8061Y-1.6725
X11.8061Y-3.0504
X11.8061Y-2.3614
X12.0557Y-3.7764
X12.2345Y-2.2827
X12.2345Y-1.5937
X12.2345Y-2.9717
X12.51Y-3.7197
X12.5345Y-2.2827
X12.5345Y-1.5937
X12.5345Y-2.9717
X12.81Y-3.7197
X12.9628Y-2.7355
X12.9628Y-2.0465
X12.9628Y-1.3575
X13.2384Y-3.7591
X13.2628Y-2.7355
X13.2628Y-2.0465
X13.2628Y-1.3575
X13.5384Y-3.7591
X13.6911Y-2.9323
X13.6911Y-1.5544
X13.6911Y-2.2433
X13.9911Y-2.9323
X13.9911Y-1.5544
X13.9911Y-2.2433
X14.4195Y-2.6764
X14.4195Y-3.3654
X14.4195Y-1.9874
X14.7195Y-2.6764
X14.7195Y-3.3654
X14.7195Y-1.9874
X15.1478Y-2.0662
X15.1478Y-3.4441
X15.1478Y-2.7551
X15.4478Y-2.0662
X15.4478Y-3.4441
X15.4478Y-2.7551
T3
X10.4112Y-1.1618
X10.4112Y-1.2618
X10.4112Y-1.3618
X10.4112Y-1.4618
X10.4112Y-1.5618
X10.4112Y-1.6618
X10.4112Y-1.7618
X10.4112Y-1.8618
X10.4112Y-2.0618
X10.4112Y-2.1618
X10.4112Y-2.2618
X10.4112Y-1.9618
X10.5112Y-2.0618
X10.6112Y-2.0618
X10.7112Y-2.0618
X11.0112Y-1.4618
X11.0112Y-1.1618
X11.0112Y-1.2618
X11.0112Y-1.3618
X11.0112Y-1.5618
X11.0112Y-1.6618
X11.0112Y-1.7618
X11.0112Y-1.8618
X11.0112Y-1.9618
X11.0112Y-2.0618
X11.0112Y-2.1618
X11.0112Y-2.2618
M30
