%TF.GenerationSoftware,KiCad,Pcbnew,8.0.4*%
%TF.CreationDate,2024-08-22T13:25:09+01:00*%
%TF.ProjectId,right (v2 backup),72696768-7420-4287-9632-206261636b75,v1.0.0*%
%TF.SameCoordinates,Original*%
%TF.FileFunction,Paste,Bot*%
%TF.FilePolarity,Positive*%
%FSLAX46Y46*%
G04 Gerber Fmt 4.6, Leading zero omitted, Abs format (unit mm)*
G04 Created by KiCad (PCBNEW 8.0.4) date 2024-08-22 13:25:09*
%MOMM*%
%LPD*%
G01*
G04 APERTURE LIST*
G04 Aperture macros list*
%AMRotRect*
0 Rectangle, with rotation*
0 The origin of the aperture is its center*
0 $1 length*
0 $2 width*
0 $3 Rotation angle, in degrees counterclockwise*
0 Add horizontal line*
21,1,$1,$2,0,0,$3*%
G04 Aperture macros list end*
%ADD10R,2.600000X2.600000*%
%ADD11RotRect,2.600000X2.600000X10.000000*%
%ADD12RotRect,2.600000X2.600000X20.000000*%
%ADD13R,0.900000X1.200000*%
%ADD14RotRect,0.900000X1.200000X10.000000*%
%ADD15RotRect,0.900000X1.200000X20.000000*%
G04 APERTURE END LIST*
D10*
%TO.C,S1*%
X382290179Y-76530608D03*
X393840179Y-78730608D03*
%TD*%
%TO.C,S2*%
X382290178Y-59030609D03*
X393840178Y-61230609D03*
%TD*%
%TO.C,S3*%
X382290177Y-41530608D03*
X393840177Y-43730608D03*
%TD*%
%TO.C,S4*%
X363790176Y-74530610D03*
X375340176Y-76730610D03*
%TD*%
%TO.C,S5*%
X363790178Y-57030608D03*
X375340178Y-59230608D03*
%TD*%
%TO.C,S6*%
X363790178Y-39530608D03*
X375340178Y-41730608D03*
%TD*%
%TO.C,S7*%
X345290179Y-63530608D03*
X356840179Y-65730608D03*
%TD*%
%TO.C,S8*%
X345290178Y-46030608D03*
X356840178Y-48230608D03*
%TD*%
%TO.C,S9*%
X345290179Y-28530608D03*
X356840179Y-30730608D03*
%TD*%
%TO.C,S10*%
X326790179Y-58530609D03*
X338340179Y-60730609D03*
%TD*%
%TO.C,S11*%
X326790178Y-41030608D03*
X338340178Y-43230608D03*
%TD*%
%TO.C,S12*%
X326790179Y-23530609D03*
X338340179Y-25730609D03*
%TD*%
%TO.C,S13*%
X308290178Y-64530608D03*
X319840178Y-66730608D03*
%TD*%
%TO.C,S14*%
X308290178Y-47030609D03*
X319840178Y-49230609D03*
%TD*%
%TO.C,S15*%
X308290177Y-29530608D03*
X319840177Y-31730608D03*
%TD*%
%TO.C,S16*%
X289790178Y-66530609D03*
X301340178Y-68730609D03*
%TD*%
%TO.C,S17*%
X289790178Y-49030609D03*
X301340178Y-51230609D03*
%TD*%
%TO.C,S18*%
X289790178Y-31530608D03*
X301340178Y-33730608D03*
%TD*%
%TO.C,S19*%
X333790178Y-84530607D03*
X345340178Y-86730607D03*
%TD*%
%TO.C,S20*%
X315290178Y-83530608D03*
X326840178Y-85730608D03*
%TD*%
D11*
%TO.C,S21*%
X294380623Y-86889264D03*
X306137178Y-87050204D03*
%TD*%
D12*
%TO.C,S22*%
X274545603Y-94812608D03*
X286151497Y-92929599D03*
%TD*%
D13*
%TO.C,D1*%
X390215178Y-87480609D03*
X386915178Y-87480611D03*
%TD*%
%TO.C,D2*%
X390215179Y-69980607D03*
X386915179Y-69980609D03*
%TD*%
%TO.C,D3*%
X390215177Y-52480608D03*
X386915177Y-52480610D03*
%TD*%
%TO.C,D4*%
X371715178Y-85480608D03*
X368415178Y-85480610D03*
%TD*%
%TO.C,D5*%
X371715176Y-67980608D03*
X368415176Y-67980610D03*
%TD*%
%TO.C,D6*%
X371715179Y-50480608D03*
X368415179Y-50480610D03*
%TD*%
%TO.C,D7*%
X353215177Y-74480608D03*
X349915177Y-74480610D03*
%TD*%
%TO.C,D8*%
X353215179Y-56980607D03*
X349915179Y-56980609D03*
%TD*%
%TO.C,D9*%
X353215178Y-39480608D03*
X349915178Y-39480610D03*
%TD*%
%TO.C,D10*%
X334715177Y-69480608D03*
X331415177Y-69480610D03*
%TD*%
%TO.C,D11*%
X334715178Y-51980607D03*
X331415178Y-51980609D03*
%TD*%
%TO.C,D12*%
X334715179Y-34480608D03*
X331415179Y-34480610D03*
%TD*%
%TO.C,D13*%
X316215179Y-75480609D03*
X312915179Y-75480611D03*
%TD*%
%TO.C,D14*%
X316215177Y-57980607D03*
X312915177Y-57980609D03*
%TD*%
%TO.C,D15*%
X316215178Y-40480608D03*
X312915178Y-40480610D03*
%TD*%
%TO.C,D16*%
X297715178Y-77480609D03*
X294415178Y-77480611D03*
%TD*%
%TO.C,D17*%
X297715179Y-59980606D03*
X294415179Y-59980608D03*
%TD*%
%TO.C,D18*%
X297715178Y-42480608D03*
X294415178Y-42480610D03*
%TD*%
%TO.C,D19*%
X341715176Y-95480608D03*
X338415176Y-95480610D03*
%TD*%
%TO.C,D20*%
X323215178Y-94480607D03*
X319915178Y-94480609D03*
%TD*%
D14*
%TO.C,D21*%
X304086672Y-96296749D03*
X300836806Y-96869785D03*
%TD*%
D15*
%TO.C,D22*%
X285737787Y-102391734D03*
X282636801Y-103520398D03*
%TD*%
M02*
