0
SECTION
2
HEADER
9
$INSUNITS
70
4
0
ENDSEC
0
SECTION
2
TABLES
0
TABLE
2
LTYPE
0
LTYPE
72
65
70
64
2
CONTINUOUS
3
______
73
0
40
0
0
ENDTAB
0
TABLE
2
LAYER
0
ENDTAB
0
ENDSEC
0
SECTION
2
ENTITIES
0
LINE
8
0
10
89
20
-91
11
89
21
-38.8934111
0
LINE
8
0
10
90.8905752
20
-36.8964068
11
123.6715412
21
-35.1001895
0
LINE
8
0
10
125.5610062
20
-33.1698148
11
125.9355543
21
-21.9333704
0
LINE
8
0
10
127.9344441
20
-20
11
142.1900249
21
-20
0
LINE
8
0
10
144.1800993
20
-18.1990074
11
144.3199007
21
-16.8009926
0
LINE
8
0
10
146.3099751
20
-15
11
164.6597343
21
-15
0
LINE
8
0
10
166.6528258
20
-16.833909
11
166.8471742
21
-19.166091
0
LINE
8
0
10
168.8402658
20
-21
11
219.2873772
21
-21
0
LINE
8
0
10
221.2873376
20
-23.012583
11
220.8710729
21
-89.1744047
0
LINE
8
0
10
220.7121431
20
-89.9432347
11
213.3940224
21
-107.184929
0
LINE
8
0
10
210.8689516
20
-108.2829012
11
192.1812724
21
-101.4811422
0
LINE
8
0
10
191.7661778
20
-101.3786928
11
159.6338592
21
-97.0181654
0
LINE
8
0
10
159.3649136
20
-97
11
138.2603986
21
-97
0
LINE
8
0
10
136.931671
20
-96.4948186
11
133.568329
21
-93.5051814
0
LINE
8
0
10
132.2396014
20
-93
11
91
21
-93
0
ARC
8
0
10
91
20
-38.8934111
40
2
50
93.1363555
51
180
0
ARC
8
0
10
123.5621164
20
-33.1031852
40
2
50
273.1363555
51
358.0908493
0
ARC
8
0
10
127.9344441
20
-22
40
2
50
90
51
178.0908493
0
ARC
8
0
10
142.1900249
20
-18
40
2
50
270
51
354.289408
0
ARC
8
0
10
146.3099751
20
-17
40
2
50
90
51
174.289408
0
ARC
8
0
10
164.6597343
20
-17
40
2
50
4.7636426
51
90
0
ARC
8
0
10
168.8402658
20
-19
40
2
50
184.7636426
51
270
0
ARC
8
0
10
219.2873772
20
-23
40
2
50
359.6395212
51
90
0
ARC
8
0
10
218.8711125
20
-89.1618217
40
2
50
337.0015328
51
359.6395212
0
ARC
8
0
10
211.5529918
20
-106.403516
40
2
50
250.0000019
51
337.0015328
0
ARC
8
0
10
191.4972322
20
-103.3605274
40
2
50
70.0000019
51
82.2718645
0
ARC
8
0
10
159.3649136
20
-99
40
2
50
82.2718645
51
90
0
ARC
8
0
10
138.2603986
20
-95
40
2
50
228.3664616
51
270
0
ARC
8
0
10
132.2396014
20
-95
40
2
50
48.3664616
51
90
0
ARC
8
0
10
91
20
-91
40
2
50
180
51
270
0
LINE
8
0
10
93
20
-89.5
11
107
21
-89.5
0
LINE
8
0
10
107
20
-89.5
11
107
21
-75.5
0
LINE
8
0
10
107
20
-75.5
11
93
21
-75.5
0
LINE
8
0
10
93
20
-75.5
11
93
21
-89.5
0
LINE
8
0
10
93
20
-72
11
107
21
-72
0
LINE
8
0
10
107
20
-72
11
107
21
-58
0
LINE
8
0
10
107
20
-58
11
93
21
-58
0
LINE
8
0
10
93
20
-58
11
93
21
-72
0
LINE
8
0
10
93
20
-54.5
11
107
21
-54.5
0
LINE
8
0
10
107
20
-54.5
11
107
21
-40.5
0
LINE
8
0
10
107
20
-40.5
11
93
21
-40.5
0
LINE
8
0
10
93
20
-40.5
11
93
21
-54.5
0
LINE
8
0
10
111.5
20
-87.5
11
125.5
21
-87.5
0
LINE
8
0
10
125.5
20
-87.5
11
125.5
21
-73.5
0
LINE
8
0
10
125.5
20
-73.5
11
111.5
21
-73.5
0
LINE
8
0
10
111.5
20
-73.5
11
111.5
21
-87.5
0
LINE
8
0
10
111.5
20
-70
11
125.5
21
-70
0
LINE
8
0
10
125.5
20
-70
11
125.5
21
-56
0
LINE
8
0
10
125.5
20
-56
11
111.5
21
-56
0
LINE
8
0
10
111.5
20
-56
11
111.5
21
-70
0
LINE
8
0
10
111.5
20
-52.5
11
125.5
21
-52.5
0
LINE
8
0
10
125.5
20
-52.5
11
125.5
21
-38.5
0
LINE
8
0
10
125.5
20
-38.5
11
111.5
21
-38.5
0
LINE
8
0
10
111.5
20
-38.5
11
111.5
21
-52.5
0
LINE
8
0
10
130
20
-72.5
11
144
21
-72.5
0
LINE
8
0
10
144
20
-72.5
11
144
21
-58.5
0
LINE
8
0
10
144
20
-58.5
11
130
21
-58.5
0
LINE
8
0
10
130
20
-58.5
11
130
21
-72.5
0
LINE
8
0
10
130
20
-55
11
144
21
-55
0
LINE
8
0
10
144
20
-55
11
144
21
-41
0
LINE
8
0
10
144
20
-41
11
130
21
-41
0
LINE
8
0
10
130
20
-41
11
130
21
-55
0
LINE
8
0
10
130
20
-37.5
11
144
21
-37.5
0
LINE
8
0
10
144
20
-37.5
11
144
21
-23.5
0
LINE
8
0
10
144
20
-23.5
11
130
21
-23.5
0
LINE
8
0
10
130
20
-23.5
11
130
21
-37.5
0
LINE
8
0
10
148.5
20
-67.5
11
162.5
21
-67.5
0
LINE
8
0
10
162.5
20
-67.5
11
162.5
21
-53.5
0
LINE
8
0
10
162.5
20
-53.5
11
148.5
21
-53.5
0
LINE
8
0
10
148.5
20
-53.5
11
148.5
21
-67.5
0
LINE
8
0
10
148.5
20
-50
11
162.5
21
-50
0
LINE
8
0
10
162.5
20
-50
11
162.5
21
-36
0
LINE
8
0
10
162.5
20
-36
11
148.5
21
-36
0
LINE
8
0
10
148.5
20
-36
11
148.5
21
-50
0
LINE
8
0
10
148.5
20
-32.5
11
162.5
21
-32.5
0
LINE
8
0
10
162.5
20
-32.5
11
162.5
21
-18.5
0
LINE
8
0
10
162.5
20
-18.5
11
148.5
21
-18.5
0
LINE
8
0
10
148.5
20
-18.5
11
148.5
21
-32.5
0
LINE
8
0
10
167
20
-73.5
11
181
21
-73.5
0
LINE
8
0
10
181
20
-73.5
11
181
21
-59.5
0
LINE
8
0
10
181
20
-59.5
11
167
21
-59.5
0
LINE
8
0
10
167
20
-59.5
11
167
21
-73.5
0
LINE
8
0
10
167
20
-56
11
181
21
-56
0
LINE
8
0
10
181
20
-56
11
181
21
-42
0
LINE
8
0
10
181
20
-42
11
167
21
-42
0
LINE
8
0
10
167
20
-42
11
167
21
-56
0
LINE
8
0
10
167
20
-38.5
11
181
21
-38.5
0
LINE
8
0
10
181
20
-38.5
11
181
21
-24.5
0
LINE
8
0
10
181
20
-24.5
11
167
21
-24.5
0
LINE
8
0
10
167
20
-24.5
11
167
21
-38.5
0
LINE
8
0
10
185.5
20
-75.5
11
199.5
21
-75.5
0
LINE
8
0
10
199.5
20
-75.5
11
199.5
21
-61.5
0
LINE
8
0
10
199.5
20
-61.5
11
185.5
21
-61.5
0
LINE
8
0
10
185.5
20
-61.5
11
185.5
21
-75.5
0
LINE
8
0
10
185.5
20
-58
11
199.5
21
-58
0
LINE
8
0
10
199.5
20
-58
11
199.5
21
-44
0
LINE
8
0
10
199.5
20
-44
11
185.5
21
-44
0
LINE
8
0
10
185.5
20
-44
11
185.5
21
-58
0
LINE
8
0
10
185.5
20
-40.5
11
199.5
21
-40.5
0
LINE
8
0
10
199.5
20
-40.5
11
199.5
21
-26.5
0
LINE
8
0
10
199.5
20
-26.5
11
185.5
21
-26.5
0
LINE
8
0
10
185.5
20
-26.5
11
185.5
21
-40.5
0
LINE
8
0
10
141.5
20
-93.5
11
155.5
21
-93.5
0
LINE
8
0
10
155.5
20
-93.5
11
155.5
21
-79.5
0
LINE
8
0
10
155.5
20
-79.5
11
141.5
21
-79.5
0
LINE
8
0
10
141.5
20
-79.5
11
141.5
21
-93.5
0
LINE
8
0
10
160
20
-92.5
11
174
21
-92.5
0
LINE
8
0
10
174
20
-92.5
11
174
21
-78.5
0
LINE
8
0
10
174
20
-78.5
11
160
21
-78.5
0
LINE
8
0
10
160
20
-78.5
11
160
21
-92.5
0
LINE
8
0
10
178.8169119
20
-93.8776808
11
192.6042204
21
-96.3087553
0
LINE
8
0
10
192.6042204
20
-96.3087553
11
195.0352949
21
-82.5214468
0
LINE
8
0
10
195.0352949
20
-82.5214468
11
181.2479864
21
-80.0903723
0
LINE
8
0
10
181.2479864
20
-80.0903723
11
178.8169119
21
-93.8776808
0
LINE
8
0
10
196.9350727
20
-99.4867618
11
210.0907693
21
-104.2750438
0
LINE
8
0
10
210.0907693
20
-104.2750438
11
214.8790513
21
-91.1193472
0
LINE
8
0
10
214.8790513
20
-91.1193472
11
201.7233547
21
-86.3310652
0
LINE
8
0
10
201.7233547
20
-86.3310652
11
196.9350727
21
-99.4867618
0
ENDSEC
0
EOF