0
SECTION
2
HEADER
9
$INSUNITS
70
4
0
ENDSEC
0
SECTION
2
TABLES
0
TABLE
2
LTYPE
0
LTYPE
72
65
70
64
2
CONTINUOUS
3
______
73
0
40
0
0
ENDTAB
0
TABLE
2
LAYER
0
ENDTAB
0
ENDSEC
0
SECTION
2
ENTITIES
0
LINE
8
0
10
87
20
-93
11
87
21
-36.8939758
0
LINE
8
0
10
88.8911696
20
-34.896939
11
121.8598164
21
-33.1002825
0
LINE
8
0
10
123.7502426
20
-31.1577709
11
123.9469416
21
-23.9454748
0
LINE
8
0
10
125.9461982
20
-22
11
140.3164032
21
-22
0
LINE
8
0
10
142.3128129
20
-20.1197846
11
142.3871871
21
-18.8802154
0
LINE
8
0
10
144.3835968
20
-17
11
166.5975015
21
-17
0
LINE
8
0
10
168.5950062
20
-18.9001248
11
168.7049938
21
-21.0998752
0
LINE
8
0
10
170.7024985
20
-23
11
224.001794
21
-23
0
LINE
8
0
10
226.0017932
20
-24.9982052
11
226.0626563
21
-92.8213272
0
LINE
8
0
10
225.814148
20
-93.7886681
11
214.6744135
21
-113.9960317
0
LINE
8
0
10
212.2388824
20
-114.9098708
11
189.6240522
21
-106.6787458
0
LINE
8
0
10
189.1960184
20
-106.5745835
11
161.6274747
21
-103.0164525
0
LINE
8
0
10
161.3714683
20
-103
11
136.2299356
21
-103
0
LINE
8
0
10
134.9416642
20
-102.5298224
11
126.5583358
21
-95.4701776
0
LINE
8
0
10
125.2700644
20
-95
11
89
21
-95
0
ARC
8
0
10
89
20
-36.8939758
40
2
50
93.119302
51
180
0
ARC
8
0
10
121.750986
20
-31.1032457
40
2
50
273.119302
51
358.4377745
0
ARC
8
0
10
125.9461982
20
-24
40
2
50
90
51
178.4377745
0
ARC
8
0
10
140.3164032
20
-20
40
2
50
270
51
356.566369
0
ARC
8
0
10
144.3835968
20
-19
40
2
50
90
51
176.566369
0
ARC
8
0
10
166.5975015
20
-19
40
2
50
2.8624044
51
90
0
ARC
8
0
10
170.7024985
20
-21
40
2
50
182.8624044
51
270
0
ARC
8
0
10
224.001794
20
-25
40
2
50
0.0514172
51
90
0
ARC
8
0
10
224.0626571
20
-92.823122
40
2
50
331.133326
51
0.0514172
0
ARC
8
0
10
212.9229226
20
-113.0304855
40
2
50
250.0000019
51
331.133326
0
ARC
8
0
10
188.940012
20
-108.558131
40
2
50
70.0000019
51
82.6457803
0
ARC
8
0
10
161.3714683
20
-105
40
2
50
82.6457803
51
90
0
ARC
8
0
10
136.2299356
20
-101
40
2
50
229.8990945
51
270
0
ARC
8
0
10
125.2700644
20
-97
40
2
50
49.8990945
51
90
0
ARC
8
0
10
89
20
-93
40
2
50
180
51
270
0
LINE
8
0
10
93
20
-89.5
11
107
21
-89.5
0
LINE
8
0
10
107
20
-89.5
11
107
21
-75.5
0
LINE
8
0
10
107
20
-75.5
11
93
21
-75.5
0
LINE
8
0
10
93
20
-75.5
11
93
21
-89.5
0
LINE
8
0
10
93
20
-72
11
107
21
-72
0
LINE
8
0
10
107
20
-72
11
107
21
-58
0
LINE
8
0
10
107
20
-58
11
93
21
-58
0
LINE
8
0
10
93
20
-58
11
93
21
-72
0
LINE
8
0
10
93
20
-54.5
11
107
21
-54.5
0
LINE
8
0
10
107
20
-54.5
11
107
21
-40.5
0
LINE
8
0
10
107
20
-40.5
11
93
21
-40.5
0
LINE
8
0
10
93
20
-40.5
11
93
21
-54.5
0
LINE
8
0
10
111.5
20
-87.5
11
125.5
21
-87.5
0
LINE
8
0
10
125.5
20
-87.5
11
125.5
21
-73.5
0
LINE
8
0
10
125.5
20
-73.5
11
111.5
21
-73.5
0
LINE
8
0
10
111.5
20
-73.5
11
111.5
21
-87.5
0
LINE
8
0
10
111.5
20
-70
11
125.5
21
-70
0
LINE
8
0
10
125.5
20
-70
11
125.5
21
-56
0
LINE
8
0
10
125.5
20
-56
11
111.5
21
-56
0
LINE
8
0
10
111.5
20
-56
11
111.5
21
-70
0
LINE
8
0
10
111.5
20
-52.5
11
125.5
21
-52.5
0
LINE
8
0
10
125.5
20
-52.5
11
125.5
21
-38.5
0
LINE
8
0
10
125.5
20
-38.5
11
111.5
21
-38.5
0
LINE
8
0
10
111.5
20
-38.5
11
111.5
21
-52.5
0
LINE
8
0
10
130
20
-76.5
11
144
21
-76.5
0
LINE
8
0
10
144
20
-76.5
11
144
21
-62.5
0
LINE
8
0
10
144
20
-62.5
11
130
21
-62.5
0
LINE
8
0
10
130
20
-62.5
11
130
21
-76.5
0
LINE
8
0
10
130
20
-59
11
144
21
-59
0
LINE
8
0
10
144
20
-59
11
144
21
-45
0
LINE
8
0
10
144
20
-45
11
130
21
-45
0
LINE
8
0
10
130
20
-45
11
130
21
-59
0
LINE
8
0
10
130
20
-41.5
11
144
21
-41.5
0
LINE
8
0
10
144
20
-41.5
11
144
21
-27.5
0
LINE
8
0
10
144
20
-27.5
11
130
21
-27.5
0
LINE
8
0
10
130
20
-27.5
11
130
21
-41.5
0
LINE
8
0
10
148.5
20
-71.5
11
162.5
21
-71.5
0
LINE
8
0
10
162.5
20
-71.5
11
162.5
21
-57.5
0
LINE
8
0
10
162.5
20
-57.5
11
148.5
21
-57.5
0
LINE
8
0
10
148.5
20
-57.5
11
148.5
21
-71.5
0
LINE
8
0
10
148.5
20
-54
11
162.5
21
-54
0
LINE
8
0
10
162.5
20
-54
11
162.5
21
-40
0
LINE
8
0
10
162.5
20
-40
11
148.5
21
-40
0
LINE
8
0
10
148.5
20
-40
11
148.5
21
-54
0
LINE
8
0
10
148.5
20
-36.5
11
162.5
21
-36.5
0
LINE
8
0
10
162.5
20
-36.5
11
162.5
21
-22.5
0
LINE
8
0
10
162.5
20
-22.5
11
148.5
21
-22.5
0
LINE
8
0
10
148.5
20
-22.5
11
148.5
21
-36.5
0
LINE
8
0
10
167
20
-77.5
11
181
21
-77.5
0
LINE
8
0
10
181
20
-77.5
11
181
21
-63.5
0
LINE
8
0
10
181
20
-63.5
11
167
21
-63.5
0
LINE
8
0
10
167
20
-63.5
11
167
21
-77.5
0
LINE
8
0
10
167
20
-60
11
181
21
-60
0
LINE
8
0
10
181
20
-60
11
181
21
-46
0
LINE
8
0
10
181
20
-46
11
167
21
-46
0
LINE
8
0
10
167
20
-46
11
167
21
-60
0
LINE
8
0
10
167
20
-42.5
11
181
21
-42.5
0
LINE
8
0
10
181
20
-42.5
11
181
21
-28.5
0
LINE
8
0
10
181
20
-28.5
11
167
21
-28.5
0
LINE
8
0
10
167
20
-28.5
11
167
21
-42.5
0
LINE
8
0
10
185.5
20
-79.5
11
199.5
21
-79.5
0
LINE
8
0
10
199.5
20
-79.5
11
199.5
21
-65.5
0
LINE
8
0
10
199.5
20
-65.5
11
185.5
21
-65.5
0
LINE
8
0
10
185.5
20
-65.5
11
185.5
21
-79.5
0
LINE
8
0
10
185.5
20
-62
11
199.5
21
-62
0
LINE
8
0
10
199.5
20
-62
11
199.5
21
-48
0
LINE
8
0
10
199.5
20
-48
11
185.5
21
-48
0
LINE
8
0
10
185.5
20
-48
11
185.5
21
-62
0
LINE
8
0
10
185.5
20
-44.5
11
199.5
21
-44.5
0
LINE
8
0
10
199.5
20
-44.5
11
199.5
21
-30.5
0
LINE
8
0
10
199.5
20
-30.5
11
185.5
21
-30.5
0
LINE
8
0
10
185.5
20
-30.5
11
185.5
21
-44.5
0
LINE
8
0
10
141.5
20
-97.5
11
155.5
21
-97.5
0
LINE
8
0
10
155.5
20
-97.5
11
155.5
21
-83.5
0
LINE
8
0
10
155.5
20
-83.5
11
141.5
21
-83.5
0
LINE
8
0
10
141.5
20
-83.5
11
141.5
21
-97.5
0
LINE
8
0
10
160
20
-96.5
11
174
21
-96.5
0
LINE
8
0
10
174
20
-96.5
11
174
21
-82.5
0
LINE
8
0
10
174
20
-82.5
11
160
21
-82.5
0
LINE
8
0
10
160
20
-82.5
11
160
21
-96.5
0
LINE
8
0
10
178.8169119
20
-97.8776808
11
192.6042204
21
-100.3087553
0
LINE
8
0
10
192.6042204
20
-100.3087553
11
195.0352949
21
-86.5214468
0
LINE
8
0
10
195.0352949
20
-86.5214468
11
181.2479864
21
-84.0903723
0
LINE
8
0
10
181.2479864
20
-84.0903723
11
178.8169119
21
-97.8776808
0
LINE
8
0
10
196.9350727
20
-103.4867618
11
210.0907693
21
-108.2750438
0
LINE
8
0
10
210.0907693
20
-108.2750438
11
214.8790513
21
-95.1193472
0
LINE
8
0
10
214.8790513
20
-95.1193472
11
201.7233547
21
-90.3310652
0
LINE
8
0
10
201.7233547
20
-90.3310652
11
196.9350727
21
-103.4867618
0
ENDSEC
0
EOF