%TF.GenerationSoftware,KiCad,Pcbnew,8.0.4*%
%TF.CreationDate,2024-08-22T13:40:17+01:00*%
%TF.ProjectId,TEST combine v2 left and right,54455354-2063-46f6-9d62-696e65207632,rev?*%
%TF.SameCoordinates,Original*%
%TF.FileFunction,Paste,Bot*%
%TF.FilePolarity,Positive*%
%FSLAX46Y46*%
G04 Gerber Fmt 4.6, Leading zero omitted, Abs format (unit mm)*
G04 Created by KiCad (PCBNEW 8.0.4) date 2024-08-22 13:40:17*
%MOMM*%
%LPD*%
G01*
G04 APERTURE LIST*
G04 Aperture macros list*
%AMRotRect*
0 Rectangle, with rotation*
0 The origin of the aperture is its center*
0 $1 length*
0 $2 width*
0 $3 Rotation angle, in degrees counterclockwise*
0 Add horizontal line*
21,1,$1,$2,0,0,$3*%
G04 Aperture macros list end*
%ADD10R,0.900000X1.200000*%
%ADD11R,2.600000X2.600000*%
%ADD12RotRect,0.900000X1.200000X350.000000*%
%ADD13RotRect,0.900000X1.200000X340.000000*%
%ADD14RotRect,2.600000X2.600000X340.000000*%
%ADD15RotRect,2.600000X2.600000X350.000000*%
%ADD16RotRect,2.600000X2.600000X10.000000*%
%ADD17RotRect,0.900000X1.200000X10.000000*%
%ADD18RotRect,0.900000X1.200000X20.000000*%
%ADD19RotRect,2.600000X2.600000X20.000000*%
G04 APERTURE END LIST*
D10*
%TO.C,D18*%
X264250005Y-64699999D03*
X267550005Y-64700003D03*
%TD*%
%TO.C,D12*%
X227250001Y-56699997D03*
X230550001Y-56700001D03*
%TD*%
D11*
%TO.C,S12*%
X222625002Y-45749998D03*
X234175002Y-47949998D03*
%TD*%
D10*
%TO.C,D17*%
X264250005Y-82199997D03*
X267550005Y-82200001D03*
%TD*%
D11*
%TO.C,S7*%
X204125004Y-85750001D03*
X215675004Y-87950001D03*
%TD*%
D10*
%TO.C,D6*%
X190250002Y-72699997D03*
X193550002Y-72700001D03*
%TD*%
%TO.C,D13*%
X245750002Y-97699997D03*
X249050002Y-97700001D03*
%TD*%
%TO.C,D8*%
X208750002Y-79199996D03*
X212050002Y-79200000D03*
%TD*%
D11*
%TO.C,S14*%
X241125000Y-69250001D03*
X252675000Y-71450001D03*
%TD*%
%TO.C,S1*%
X167125006Y-98749999D03*
X178675006Y-100949999D03*
%TD*%
%TO.C,S15*%
X241125007Y-51750002D03*
X252675007Y-53950002D03*
%TD*%
%TO.C,S16*%
X259625003Y-88749998D03*
X271175003Y-90949998D03*
%TD*%
%TO.C,S10*%
X222625001Y-80749999D03*
X234175001Y-82949999D03*
%TD*%
D10*
%TO.C,D2*%
X171750001Y-92199996D03*
X175050001Y-92200000D03*
%TD*%
%TO.C,D7*%
X208750005Y-96699998D03*
X212050005Y-96700002D03*
%TD*%
%TO.C,D11*%
X227250007Y-74199997D03*
X230550007Y-74200001D03*
%TD*%
D12*
%TO.C,D21*%
X257787360Y-119558027D03*
X261037226Y-120131063D03*
%TD*%
D13*
%TO.C,D22*%
X275865550Y-126663247D03*
X278966536Y-127791911D03*
%TD*%
D11*
%TO.C,S3*%
X167125004Y-63750000D03*
X178675004Y-65950000D03*
%TD*%
D10*
%TO.C,D10*%
X227249999Y-91700000D03*
X230549999Y-91700004D03*
%TD*%
D11*
%TO.C,S19*%
X215625006Y-106749999D03*
X227175006Y-108949999D03*
%TD*%
%TO.C,S13*%
X241125004Y-86750000D03*
X252675004Y-88950000D03*
%TD*%
D10*
%TO.C,D3*%
X171750004Y-74699996D03*
X175050004Y-74700000D03*
%TD*%
%TO.C,D19*%
X220250006Y-117699997D03*
X223550006Y-117700001D03*
%TD*%
%TO.C,D9*%
X208750007Y-61699997D03*
X212050007Y-61700001D03*
%TD*%
D11*
%TO.C,S8*%
X204125003Y-68250001D03*
X215675003Y-70450001D03*
%TD*%
%TO.C,S2*%
X167125002Y-81249999D03*
X178675002Y-83449999D03*
%TD*%
%TO.C,S20*%
X234125005Y-105749999D03*
X245675005Y-107949999D03*
%TD*%
D10*
%TO.C,D1*%
X171750004Y-109699997D03*
X175050004Y-109700001D03*
%TD*%
D11*
%TO.C,S6*%
X185625005Y-61750001D03*
X197175005Y-63950001D03*
%TD*%
D10*
%TO.C,D14*%
X245750007Y-80199995D03*
X249050007Y-80199999D03*
%TD*%
D14*
%TO.C,S22*%
X275264591Y-114791769D03*
X285365596Y-120809425D03*
%TD*%
D11*
%TO.C,S17*%
X259625005Y-71249999D03*
X271175005Y-73449999D03*
%TD*%
%TO.C,S9*%
X204125000Y-50750000D03*
X215675000Y-52950000D03*
%TD*%
D10*
%TO.C,D16*%
X264250006Y-99699999D03*
X267550006Y-99700003D03*
%TD*%
%TO.C,D15*%
X245750004Y-62699995D03*
X249050004Y-62699999D03*
%TD*%
D15*
%TO.C,S21*%
X255134069Y-107971261D03*
X266126573Y-112143475D03*
%TD*%
D11*
%TO.C,S11*%
X222625006Y-63249997D03*
X234175006Y-65449997D03*
%TD*%
%TO.C,S18*%
X259625003Y-53750000D03*
X271175003Y-55950000D03*
%TD*%
D10*
%TO.C,D4*%
X190249998Y-107699998D03*
X193549998Y-107700002D03*
%TD*%
%TO.C,D20*%
X238750004Y-116699999D03*
X242050004Y-116700003D03*
%TD*%
D11*
%TO.C,S4*%
X185625005Y-96750002D03*
X197175005Y-98950002D03*
%TD*%
D10*
%TO.C,D5*%
X190250008Y-90200000D03*
X193550008Y-90200004D03*
%TD*%
D11*
%TO.C,S5*%
X185625004Y-79250000D03*
X197175004Y-81450000D03*
%TD*%
%TO.C,S19*%
X91626796Y-106751793D03*
X103176796Y-108951793D03*
%TD*%
D10*
%TO.C,D7*%
X107751795Y-96701796D03*
X111051795Y-96701794D03*
%TD*%
D11*
%TO.C,S15*%
X66126795Y-51751794D03*
X77676795Y-53951794D03*
%TD*%
D10*
%TO.C,D3*%
X144751795Y-74701796D03*
X148051795Y-74701794D03*
%TD*%
%TO.C,D12*%
X89251797Y-56701796D03*
X92551797Y-56701794D03*
%TD*%
D16*
%TO.C,S21*%
X52217241Y-109110450D03*
X63973796Y-109271390D03*
%TD*%
D10*
%TO.C,D18*%
X52251796Y-64701796D03*
X55551796Y-64701794D03*
%TD*%
D11*
%TO.C,S2*%
X140126796Y-81251795D03*
X151676796Y-83451795D03*
%TD*%
%TO.C,S6*%
X121626796Y-61751794D03*
X133176796Y-63951794D03*
%TD*%
D10*
%TO.C,D2*%
X144751797Y-92201795D03*
X148051797Y-92201793D03*
%TD*%
%TO.C,D17*%
X52251797Y-82201794D03*
X55551797Y-82201792D03*
%TD*%
D11*
%TO.C,S8*%
X103126796Y-68251794D03*
X114676796Y-70451794D03*
%TD*%
D10*
%TO.C,D15*%
X70751796Y-62701796D03*
X74051796Y-62701794D03*
%TD*%
%TO.C,D9*%
X107751796Y-61701796D03*
X111051796Y-61701794D03*
%TD*%
%TO.C,D16*%
X52251796Y-99701797D03*
X55551796Y-99701795D03*
%TD*%
D11*
%TO.C,S1*%
X140126797Y-98751794D03*
X151676797Y-100951794D03*
%TD*%
%TO.C,S16*%
X47626796Y-88751795D03*
X59176796Y-90951795D03*
%TD*%
%TO.C,S14*%
X66126796Y-69251795D03*
X77676796Y-71451795D03*
%TD*%
%TO.C,S11*%
X84626796Y-63251794D03*
X96176796Y-65451794D03*
%TD*%
%TO.C,S10*%
X84626797Y-80751795D03*
X96176797Y-82951795D03*
%TD*%
D10*
%TO.C,D1*%
X144751796Y-109701797D03*
X148051796Y-109701795D03*
%TD*%
D11*
%TO.C,S7*%
X103126797Y-85751794D03*
X114676797Y-87951794D03*
%TD*%
%TO.C,S13*%
X66126796Y-86751794D03*
X77676796Y-88951794D03*
%TD*%
%TO.C,S9*%
X103126797Y-50751794D03*
X114676797Y-52951794D03*
%TD*%
%TO.C,S17*%
X47626796Y-71251795D03*
X59176796Y-73451795D03*
%TD*%
%TO.C,S18*%
X47626796Y-53751794D03*
X59176796Y-55951794D03*
%TD*%
D10*
%TO.C,D4*%
X126251796Y-107701796D03*
X129551796Y-107701794D03*
%TD*%
D11*
%TO.C,S3*%
X140126795Y-63751794D03*
X151676795Y-65951794D03*
%TD*%
D17*
%TO.C,D21*%
X58673424Y-119090971D03*
X61923290Y-118517935D03*
%TD*%
D10*
%TO.C,D5*%
X126251794Y-90201796D03*
X129551794Y-90201794D03*
%TD*%
%TO.C,D13*%
X70751797Y-97701797D03*
X74051797Y-97701795D03*
%TD*%
D18*
%TO.C,D22*%
X40473419Y-125741584D03*
X43574405Y-124612920D03*
%TD*%
D11*
%TO.C,S5*%
X121626796Y-79251794D03*
X133176796Y-81451794D03*
%TD*%
D19*
%TO.C,S22*%
X32382221Y-117033794D03*
X43988115Y-115150785D03*
%TD*%
D10*
%TO.C,D6*%
X126251797Y-72701796D03*
X129551797Y-72701794D03*
%TD*%
%TO.C,D20*%
X77751796Y-116701795D03*
X81051796Y-116701793D03*
%TD*%
D11*
%TO.C,S12*%
X84626797Y-45751795D03*
X96176797Y-47951795D03*
%TD*%
D10*
%TO.C,D14*%
X70751795Y-80201795D03*
X74051795Y-80201793D03*
%TD*%
%TO.C,D10*%
X89251795Y-91701796D03*
X92551795Y-91701794D03*
%TD*%
D11*
%TO.C,S4*%
X121626794Y-96751796D03*
X133176794Y-98951796D03*
%TD*%
D10*
%TO.C,D19*%
X96251794Y-117701796D03*
X99551794Y-117701794D03*
%TD*%
%TO.C,D8*%
X107751797Y-79201795D03*
X111051797Y-79201793D03*
%TD*%
D11*
%TO.C,S20*%
X73126796Y-105751794D03*
X84676796Y-107951794D03*
%TD*%
D10*
%TO.C,D11*%
X89251796Y-74201795D03*
X92551796Y-74201793D03*
%TD*%
M02*
