%TF.GenerationSoftware,KiCad,Pcbnew,8.0.4*%
%TF.CreationDate,2024-08-22T13:40:17+01:00*%
%TF.ProjectId,TEST combine v2 left and right,54455354-2063-46f6-9d62-696e65207632,rev?*%
%TF.SameCoordinates,Original*%
%TF.FileFunction,Profile,NP*%
%FSLAX46Y46*%
G04 Gerber Fmt 4.6, Leading zero omitted, Abs format (unit mm)*
G04 Created by KiCad (PCBNEW 8.0.4) date 2024-08-22 13:40:17*
%MOMM*%
%LPD*%
G01*
G04 APERTURE LIST*
%TA.AperFunction,Profile*%
%ADD10C,0.150000*%
%TD*%
%TA.AperFunction,Profile*%
%ADD11C,0.050000*%
%TD*%
G04 APERTURE END LIST*
D10*
X156400000Y-114000000D02*
X156401797Y-115201795D01*
X157400000Y-114000000D02*
X157400000Y-115200000D01*
X157399998Y-90699999D02*
X157399998Y-111899999D01*
X156399998Y-90699999D02*
X156400002Y-111900001D01*
X156400000Y-88600000D02*
X156399998Y-62299999D01*
X157399998Y-62299999D02*
X157399996Y-88599998D01*
X157400002Y-59093975D02*
X157399996Y-60199998D01*
X156401796Y-59095771D02*
X156400000Y-60200000D01*
X156399998Y-90699999D02*
G75*
G02*
X157399998Y-90699999I500000J0D01*
G01*
X157399996Y-88599998D02*
G75*
G02*
X156400000Y-88600000I-499998J-1D01*
G01*
X156399998Y-62299999D02*
G75*
G02*
X157399998Y-62299999I500000J0D01*
G01*
X157399996Y-60199998D02*
G75*
G02*
X156400000Y-60200000I-499998J-1D01*
G01*
X157399998Y-111899999D02*
G75*
G02*
X156400002Y-111900001I-499998J-1D01*
G01*
X156400000Y-114000000D02*
G75*
G02*
X157400000Y-114000000I500000J0D01*
G01*
X159291171Y-57096936D02*
X192259824Y-55300285D01*
X157400002Y-59093975D02*
G75*
G02*
X159291170Y-57096919I2000042J-20D01*
G01*
X214783602Y-39199997D02*
X236997506Y-39199999D01*
X259596022Y-128774581D02*
G75*
G02*
X260024055Y-128878750I-256078J-1983714D01*
G01*
D11*
X284344244Y-133494295D02*
G75*
G02*
X281144244Y-133494295I-1600000J0D01*
G01*
X281144244Y-133494295D02*
G75*
G02*
X284344244Y-133494295I1600000J0D01*
G01*
D10*
X231771475Y-125200001D02*
X206629944Y-125200000D01*
X196346200Y-44199996D02*
X210716406Y-44199997D01*
X238995013Y-41100126D02*
X239104995Y-43299874D01*
X296214153Y-115988666D02*
X285074415Y-136196030D01*
X236997506Y-39200000D02*
G75*
G02*
X238995044Y-41100124I38J-1999995D01*
G01*
X231771476Y-125200001D02*
G75*
G02*
X232027483Y-125216454I-32J-2000494D01*
G01*
X259596022Y-128774581D02*
X232027483Y-125216453D01*
X285074416Y-136196032D02*
G75*
G02*
X282638893Y-137109854I-1751472J965537D01*
G01*
X212712817Y-42319786D02*
X212787191Y-41080215D01*
X206629942Y-125200001D02*
G75*
G02*
X205341665Y-124729819I2J2000006D01*
G01*
X241102503Y-45200000D02*
X294401798Y-45200001D01*
D11*
X162144244Y-113894295D02*
G75*
G02*
X158944244Y-113894295I-1600000J0D01*
G01*
X158944244Y-113894295D02*
G75*
G02*
X162144244Y-113894295I1600000J0D01*
G01*
D10*
X296401795Y-47198204D02*
X296462658Y-115021325D01*
X212712817Y-42319786D02*
G75*
G02*
X210716406Y-44199959I-1996373J119791D01*
G01*
X241102503Y-45200000D02*
G75*
G02*
X239105034Y-43299872I41J2000005D01*
G01*
X282638887Y-137109869D02*
X260024057Y-128878743D01*
D11*
X294744244Y-48494295D02*
G75*
G02*
X291544244Y-48494295I-1600000J0D01*
G01*
X291544244Y-48494295D02*
G75*
G02*
X294744244Y-48494295I1600000J0D01*
G01*
D10*
X294401798Y-45200001D02*
G75*
G02*
X296401737Y-47198204I-54J-1999994D01*
G01*
X212787191Y-41080215D02*
G75*
G02*
X214783602Y-39199952I1996453J-119780D01*
G01*
X159400004Y-117199999D02*
G75*
G02*
X157400040Y-115200000I40J2000004D01*
G01*
X195670068Y-117199998D02*
X159400004Y-117199999D01*
X194150249Y-53357767D02*
X194346947Y-46145473D01*
X205341664Y-124729821D02*
X196958341Y-117670178D01*
X296462658Y-115021325D02*
G75*
G02*
X296214142Y-115988660I-2000014J-1770D01*
G01*
X195670070Y-117200000D02*
G75*
G02*
X196958330Y-117670191I-26J-1999995D01*
G01*
X194150248Y-53357768D02*
G75*
G02*
X192259824Y-55300278I-1999304J54573D01*
G01*
D11*
X162144244Y-60294295D02*
G75*
G02*
X158944244Y-60294295I-1600000J0D01*
G01*
X158944244Y-60294295D02*
G75*
G02*
X162144244Y-60294295I1600000J0D01*
G01*
D10*
X194346946Y-46145476D02*
G75*
G02*
X196346200Y-44199954I1999298J-54519D01*
G01*
X117455598Y-44201795D02*
G75*
G02*
X119454866Y-46147269I20J-1999991D01*
G01*
D11*
X22236618Y-48421186D02*
G75*
G02*
X19036618Y-48421186I-1600000J0D01*
G01*
X19036618Y-48421186D02*
G75*
G02*
X22236618Y-48421186I1600000J0D01*
G01*
D10*
X103085393Y-44201794D02*
G75*
G02*
X101089001Y-42321579I25J2000008D01*
G01*
X108460132Y-124731617D02*
X116843460Y-117671972D01*
X74806790Y-41101920D02*
X74696803Y-43301668D01*
D11*
X154836618Y-114021186D02*
G75*
G02*
X151636618Y-114021186I-1600000J0D01*
G01*
X151636618Y-114021186D02*
G75*
G02*
X154836618Y-114021186I1600000J0D01*
G01*
D10*
X54205776Y-128776378D02*
X81774319Y-125218248D01*
X156401797Y-115201795D02*
G75*
G02*
X154401797Y-117201765I-1999979J9D01*
G01*
X17400000Y-47200000D02*
X17339139Y-115023121D01*
X17400000Y-47200000D02*
G75*
G02*
X19400001Y-45201767I2000018J-1786D01*
G01*
X31162913Y-137111665D02*
G75*
G02*
X28727433Y-136197799I-683995J1879379D01*
G01*
X31162914Y-137111665D02*
X53777745Y-128880541D01*
X53777745Y-128880541D02*
G75*
G02*
X54205776Y-128776375I684073J-1879445D01*
G01*
X74696804Y-43301669D02*
G75*
G02*
X72699297Y-45201768I-1997486J99883D01*
G01*
X101088983Y-42321580D02*
X101014610Y-41082010D01*
X99018199Y-39201795D02*
G75*
G02*
X101014619Y-41082009I19J-1999991D01*
G01*
X121541978Y-55302077D02*
G75*
G02*
X119651605Y-53359564I108840J1996991D01*
G01*
X17587648Y-115990464D02*
X28727383Y-136197826D01*
X119651554Y-53359565D02*
X119454853Y-46147269D01*
X17587648Y-115990464D02*
G75*
G02*
X17339122Y-115023121I1751470J965578D01*
G01*
D11*
X32636618Y-133621186D02*
G75*
G02*
X29436618Y-133621186I-1600000J0D01*
G01*
X29436618Y-133621186D02*
G75*
G02*
X32636618Y-133621186I1600000J0D01*
G01*
D10*
X74806789Y-41101921D02*
G75*
G02*
X76804295Y-39201762I1997529J-99865D01*
G01*
X116843460Y-117671971D02*
G75*
G02*
X118131732Y-117201800I1288258J-1529815D01*
G01*
X118131732Y-117201795D02*
X154401797Y-117201794D01*
D11*
X154836618Y-60221186D02*
G75*
G02*
X151636618Y-60221186I-1600000J0D01*
G01*
X151636618Y-60221186D02*
G75*
G02*
X154836618Y-60221186I1600000J0D01*
G01*
D10*
X72699297Y-45201794D02*
X19400001Y-45201793D01*
X154510627Y-57098733D02*
X121541979Y-55302075D01*
X117455597Y-44201794D02*
X103085393Y-44201794D01*
X81774320Y-125218247D02*
G75*
G02*
X82030328Y-125201796I255998J-1983539D01*
G01*
X108460131Y-124731617D02*
G75*
G02*
X107171859Y-125201819I-1288313J1529831D01*
G01*
X99018199Y-39201795D02*
X76804295Y-39201795D01*
X154510627Y-57098733D02*
G75*
G02*
X156401833Y-59095771I-108809J-1997053D01*
G01*
X82030328Y-125201795D02*
X107171859Y-125201794D01*
M02*
