M48
; DRILL file {KiCad 8.0.4} date 2024-08-22T13:40:14+0100
; FORMAT={-:-/ absolute / inch / decimal}
; #@! TF.CreationDate,2024-08-22T13:40:14+01:00
; #@! TF.GenerationSoftware,Kicad,Pcbnew,8.0.4
; #@! TF.FileFunction,NonPlated,1,2,NPTH
FMAT,2
INCH
; #@! TA.AperFunction,NonPlated,NPTH,ComponentDrill
T1C0.0354
; #@! TA.AperFunction,NonPlated,NPTH,ComponentDrill
T2C0.0670
; #@! TA.AperFunction,NonPlated,NPTH,ComponentDrill
T3C0.1181
; #@! TA.AperFunction,NonPlated,NPTH,ComponentDrill
T4C0.1350
%
G90
G05
T1
X0.7639Y-3.4331
X0.7639Y-3.5513
X11.5906Y-3.4331
X11.5906Y-3.5512
T2
X1.2727Y-4.8577
X1.6796Y-4.7096
X1.7875Y-2.3505
X1.7875Y-3.0394
X1.7875Y-3.7284
X2.0102Y-4.5416
X2.2205Y-2.3505
X2.2205Y-3.0394
X2.2205Y-3.7284
X2.4367Y-4.4664
X2.5158Y-2.2717
X2.5158Y-2.9607
X2.5158Y-3.6497
X2.7914Y-4.3977
X2.9489Y-2.2717
X2.9489Y-2.9607
X2.9489Y-3.6497
X3.2245Y-4.3977
X3.2442Y-2.7245
X3.2442Y-2.0355
X3.2442Y-3.4135
X3.5198Y-4.4371
X3.6772Y-2.7245
X3.6772Y-2.0355
X3.6772Y-3.4135
X3.9528Y-4.4371
X3.9725Y-2.9213
X3.9725Y-2.2324
X3.9725Y-3.6103
X4.4056Y-2.9213
X4.4056Y-2.2324
X4.4056Y-3.6103
X4.7009Y-4.0434
X4.7009Y-2.6654
X4.7009Y-3.3544
X5.1339Y-4.0434
X5.1339Y-2.6654
X5.1339Y-3.3544
X5.4292Y-2.7442
X5.4292Y-3.4331
X5.4292Y-4.1221
X5.8623Y-2.7442
X5.8623Y-3.4331
X5.8623Y-4.1221
X6.4921Y-3.4331
X6.4921Y-2.7441
X6.4921Y-4.122
X6.9252Y-3.4331
X6.9252Y-2.7441
X6.9252Y-4.122
X7.2205Y-3.3543
X7.2205Y-2.6654
X7.2205Y-4.0433
X7.6535Y-3.3543
X7.6535Y-2.6654
X7.6535Y-4.0433
X7.9488Y-2.2323
X7.9488Y-2.9213
X7.9488Y-3.6102
X8.3819Y-2.2323
X8.3819Y-2.9213
X8.3819Y-3.6102
X8.4016Y-4.437
X8.6772Y-3.4134
X8.6772Y-2.0354
X8.6772Y-2.7244
X8.8346Y-4.437
X9.1102Y-3.4134
X9.1102Y-2.0354
X9.1102Y-2.7244
X9.1299Y-4.3976
X9.4055Y-2.9606
X9.4055Y-3.6496
X9.4055Y-2.2717
X9.563Y-4.3976
X9.8386Y-2.9606
X9.8386Y-3.6496
X9.8386Y-2.2717
X9.9177Y-4.4663
X10.1339Y-2.3504
X10.1339Y-3.7283
X10.1339Y-3.0394
X10.3442Y-4.5415
X10.5669Y-2.3504
X10.5669Y-3.7283
X10.5669Y-3.0394
X10.6748Y-4.7095
X11.0817Y-4.8576
T3
X1.3961Y-4.5635
X1.6107Y-4.5776
X2.004Y-2.1162
X2.004Y-2.8052
X2.004Y-3.4942
X2.1828Y-4.2733
X2.2009Y-2.2028
X2.2009Y-2.8918
X2.2009Y-3.5808
X2.3917Y-4.3244
X2.7324Y-2.0375
X2.7324Y-2.7264
X2.7324Y-3.4154
X2.9292Y-2.1241
X2.9292Y-2.8131
X2.9292Y-3.502
X3.0079Y-4.1635
X3.2048Y-4.2501
X3.4607Y-2.4902
X3.4607Y-1.8013
X3.4607Y-3.1792
X3.6576Y-2.5768
X3.6576Y-1.8879
X3.6576Y-3.2658
X3.7363Y-4.2028
X3.9331Y-4.2894
X4.189Y-2.6871
X4.189Y-1.9981
X4.189Y-3.3761
X4.3859Y-2.7737
X4.3859Y-2.0847
X4.3859Y-3.4627
X4.9174Y-3.8091
X4.9174Y-2.4312
X4.9174Y-3.1201
X5.1142Y-3.8957
X5.1142Y-2.5178
X5.1142Y-3.2068
X5.6457Y-2.5099
X5.6457Y-3.1989
X5.6457Y-3.8879
X5.8426Y-2.5965
X5.8426Y-3.2855
X5.8426Y-3.9745
X6.7087Y-3.1988
X6.7087Y-2.5098
X6.7087Y-3.8878
X6.9055Y-3.2854
X6.9055Y-2.5965
X6.9055Y-3.9744
X7.437Y-3.1201
X7.437Y-2.4311
X7.437Y-3.8091
X7.6339Y-3.2067
X7.6339Y-2.5177
X7.6339Y-3.8957
X8.1654Y-1.998
X8.1654Y-2.687
X8.1654Y-3.376
X8.3622Y-2.0846
X8.3622Y-2.7736
X8.3622Y-3.4626
X8.6181Y-4.2028
X8.815Y-4.2894
X8.8937Y-3.1791
X8.8937Y-1.8012
X8.8937Y-2.4902
X9.0906Y-3.2657
X9.0906Y-1.8878
X9.0906Y-2.5768
X9.3465Y-4.1634
X9.5433Y-4.25
X9.622Y-2.7264
X9.622Y-3.4154
X9.622Y-2.0374
X9.8189Y-2.813
X9.8189Y-3.502
X9.8189Y-2.124
X10.1716Y-4.2732
X10.3504Y-2.1161
X10.3504Y-3.4941
X10.3504Y-2.8051
X10.3504Y-4.3927
X10.5472Y-2.2028
X10.5472Y-3.5807
X10.5472Y-2.8917
X10.9583Y-4.5635
X11.1137Y-4.7122
T4
X1.4762Y-4.7837
X2.004Y-2.3505
X2.004Y-3.0394
X2.004Y-3.7284
X2.2235Y-4.504
X2.7324Y-2.2717
X2.7324Y-2.9607
X2.7324Y-3.6497
X3.0079Y-4.3977
X3.4607Y-2.7245
X3.4607Y-2.0355
X3.4607Y-3.4135
X3.7363Y-4.4371
X4.189Y-2.9213
X4.189Y-2.2324
X4.189Y-3.6103
X4.9174Y-4.0434
X4.9174Y-2.6654
X4.9174Y-3.3544
X5.6457Y-2.7442
X5.6457Y-3.4331
X5.6457Y-4.1221
X6.7087Y-3.4331
X6.7087Y-2.7441
X6.7087Y-4.122
X7.437Y-3.3543
X7.437Y-2.6654
X7.437Y-4.0433
X8.1654Y-2.2323
X8.1654Y-2.9213
X8.1654Y-3.6102
X8.6181Y-4.437
X8.8937Y-3.4134
X8.8937Y-2.0354
X8.8937Y-2.7244
X9.3465Y-4.3976
X9.622Y-2.9606
X9.622Y-3.6496
X9.622Y-2.2717
X10.1309Y-4.5039
X10.3504Y-2.3504
X10.3504Y-3.7283
X10.3504Y-3.0394
X10.8782Y-4.7836
M30
