%TF.GenerationSoftware,KiCad,Pcbnew,8.0.4*%
%TF.CreationDate,2024-08-22T13:40:17+01:00*%
%TF.ProjectId,TEST combine v2 left and right,54455354-2063-46f6-9d62-696e65207632,rev?*%
%TF.SameCoordinates,Original*%
%TF.FileFunction,Soldermask,Top*%
%TF.FilePolarity,Negative*%
%FSLAX46Y46*%
G04 Gerber Fmt 4.6, Leading zero omitted, Abs format (unit mm)*
G04 Created by KiCad (PCBNEW 8.0.4) date 2024-08-22 13:40:17*
%MOMM*%
%LPD*%
G01*
G04 APERTURE LIST*
G04 Aperture macros list*
%AMRoundRect*
0 Rectangle with rounded corners*
0 $1 Rounding radius*
0 $2 $3 $4 $5 $6 $7 $8 $9 X,Y pos of 4 corners*
0 Add a 4 corners polygon primitive as box body*
4,1,4,$2,$3,$4,$5,$6,$7,$8,$9,$2,$3,0*
0 Add four circle primitives for the rounded corners*
1,1,$1+$1,$2,$3*
1,1,$1+$1,$4,$5*
1,1,$1+$1,$6,$7*
1,1,$1+$1,$8,$9*
0 Add four rect primitives between the rounded corners*
20,1,$1+$1,$2,$3,$4,$5,0*
20,1,$1+$1,$4,$5,$6,$7,0*
20,1,$1+$1,$6,$7,$8,$9,0*
20,1,$1+$1,$8,$9,$2,$3,0*%
G04 Aperture macros list end*
%ADD10RoundRect,0.050000X-0.450000X0.450000X-0.450000X-0.450000X0.450000X-0.450000X0.450000X0.450000X0*%
%ADD11C,1.100000*%
%ADD12RoundRect,0.050000X-0.625000X0.450000X-0.625000X-0.450000X0.625000X-0.450000X0.625000X0.450000X0*%
%ADD13RoundRect,0.050000X-0.550000X0.900000X-0.550000X-0.900000X0.550000X-0.900000X0.550000X0.900000X0*%
%ADD14RoundRect,0.050000X-0.889000X-0.889000X0.889000X-0.889000X0.889000X0.889000X-0.889000X0.889000X0*%
%ADD15RoundRect,0.050000X-0.450000X-0.600000X0.450000X-0.600000X0.450000X0.600000X-0.450000X0.600000X0*%
%ADD16C,2.005000*%
%ADD17C,1.801800*%
%ADD18C,3.100000*%
%ADD19C,3.529000*%
%ADD20RoundRect,0.050000X-1.029867X-0.721121X0.721121X-1.029867X1.029867X0.721121X-0.721121X1.029867X0*%
%ADD21RoundRect,0.050000X-0.547352X-0.512743X0.338975X-0.669026X0.547352X0.512743X-0.338975X0.669026X0*%
%ADD22RoundRect,0.050000X-1.139443X-0.531331X0.531331X-1.139443X1.139443X0.531331X-0.531331X1.139443X0*%
%ADD23RoundRect,0.050000X-0.628074X-0.409907X0.217650X-0.717725X0.628074X0.409907X-0.217650X0.717725X0*%
%ADD24RoundRect,0.050000X0.600000X0.850000X-0.600000X0.850000X-0.600000X-0.850000X0.600000X-0.850000X0*%
%ADD25O,1.300000X1.800000*%
%ADD26C,1.852600*%
%ADD27RoundRect,0.050000X0.450000X-0.450000X0.450000X0.450000X-0.450000X0.450000X-0.450000X-0.450000X0*%
%ADD28RoundRect,0.050000X0.625000X-0.450000X0.625000X0.450000X-0.625000X0.450000X-0.625000X-0.450000X0*%
%ADD29RoundRect,0.050000X0.550000X-0.900000X0.550000X0.900000X-0.550000X0.900000X-0.550000X-0.900000X0*%
%ADD30RoundRect,0.050000X-0.721121X-1.029867X1.029867X-0.721121X0.721121X1.029867X-1.029867X0.721121X0*%
%ADD31RoundRect,0.050000X-0.338975X-0.669026X0.547352X-0.512743X0.338975X0.669026X-0.547352X0.512743X0*%
%ADD32RoundRect,0.050000X-0.531331X-1.139443X1.139443X-0.531331X0.531331X1.139443X-1.139443X0.531331X0*%
%ADD33RoundRect,0.050000X-0.217650X-0.717725X0.628074X-0.409907X0.217650X0.717725X-0.628074X0.409907X0*%
%ADD34RoundRect,0.050000X-0.600000X-0.850000X0.600000X-0.850000X0.600000X0.850000X-0.600000X0.850000X0*%
G04 APERTURE END LIST*
D10*
%TO.C,T1*%
X295500004Y-84999998D03*
X293300004Y-84999998D03*
D11*
X294400004Y-87199998D03*
X294400004Y-90199998D03*
D10*
X295500004Y-92399998D03*
X293300004Y-92399998D03*
D12*
X292325004Y-90949998D03*
X292325004Y-87949998D03*
X292325003Y-86449998D03*
%TD*%
D13*
%TO.C,B1*%
X279750001Y-85599998D03*
X279750001Y-91799998D03*
X276050001Y-85599998D03*
X276050001Y-91799998D03*
%TD*%
D14*
%TO.C,D18*%
X262090005Y-64700001D03*
D15*
X264250005Y-64699999D03*
X267550005Y-64700003D03*
D16*
X269710005Y-64700001D03*
%TD*%
D14*
%TO.C,D12*%
X225090001Y-56699999D03*
D15*
X227250001Y-56699997D03*
X230550001Y-56700001D03*
D16*
X232710001Y-56699999D03*
%TD*%
D17*
%TO.C,S12*%
X220400002Y-51699998D03*
D18*
X225900002Y-45749996D03*
D19*
X225900002Y-51699998D03*
D18*
X230900002Y-47949998D03*
D17*
X231400002Y-51699998D03*
%TD*%
D14*
%TO.C,D17*%
X262090005Y-82199999D03*
D15*
X264250005Y-82199997D03*
X267550005Y-82200001D03*
D16*
X269710005Y-82199999D03*
%TD*%
D17*
%TO.C,S7*%
X201900004Y-91700001D03*
D18*
X207400004Y-85749999D03*
D19*
X207400004Y-91700001D03*
D18*
X212400004Y-87950001D03*
D17*
X212900004Y-91700001D03*
%TD*%
D14*
%TO.C,D6*%
X188090002Y-72699999D03*
D15*
X190250002Y-72699997D03*
X193550002Y-72700001D03*
D16*
X195710002Y-72699999D03*
%TD*%
D14*
%TO.C,D13*%
X243590002Y-97699999D03*
D15*
X245750002Y-97699997D03*
X249050002Y-97700001D03*
D16*
X251210002Y-97699999D03*
%TD*%
D14*
%TO.C,D8*%
X206590002Y-79199998D03*
D15*
X208750002Y-79199996D03*
X212050002Y-79200000D03*
D16*
X214210002Y-79199998D03*
%TD*%
D17*
%TO.C,S14*%
X238900000Y-75200001D03*
D18*
X244400000Y-69249999D03*
D19*
X244400000Y-75200001D03*
D18*
X249400000Y-71450001D03*
D17*
X249900000Y-75200001D03*
%TD*%
%TO.C,S1*%
X164900006Y-104699999D03*
D18*
X170400006Y-98749997D03*
D19*
X170400006Y-104699999D03*
D18*
X175400006Y-100949999D03*
D17*
X175900006Y-104699999D03*
%TD*%
%TO.C,S15*%
X238900007Y-57700002D03*
D18*
X244400007Y-51750000D03*
D19*
X244400007Y-57700002D03*
D18*
X249400007Y-53950002D03*
D17*
X249900007Y-57700002D03*
%TD*%
%TO.C,S16*%
X257400003Y-94699998D03*
D18*
X262900003Y-88749996D03*
D19*
X262900003Y-94699998D03*
D18*
X267900003Y-90949998D03*
D17*
X268400003Y-94699998D03*
%TD*%
%TO.C,S10*%
X220400001Y-86699999D03*
D18*
X225900001Y-80749997D03*
D19*
X225900001Y-86699999D03*
D18*
X230900001Y-82949999D03*
D17*
X231400001Y-86699999D03*
%TD*%
D14*
%TO.C,D2*%
X169590001Y-92199998D03*
D15*
X171750001Y-92199996D03*
X175050001Y-92200000D03*
D16*
X177210001Y-92199998D03*
%TD*%
D14*
%TO.C,D7*%
X206590005Y-96700000D03*
D15*
X208750005Y-96699998D03*
X212050005Y-96700002D03*
D16*
X214210005Y-96700000D03*
%TD*%
D14*
%TO.C,D11*%
X225090007Y-74199999D03*
D15*
X227250007Y-74199997D03*
X230550007Y-74200001D03*
D16*
X232710007Y-74199999D03*
%TD*%
D20*
%TO.C,D21*%
X255660173Y-119182945D03*
D21*
X257787360Y-119558027D03*
X261037226Y-120131063D03*
D16*
X263164413Y-120506145D03*
%TD*%
D22*
%TO.C,D22*%
X273835814Y-125924482D03*
D23*
X275865550Y-126663247D03*
X278966536Y-127791911D03*
D16*
X280996272Y-128530676D03*
%TD*%
D17*
%TO.C,S3*%
X164900004Y-69700000D03*
D18*
X170400004Y-63749998D03*
D19*
X170400004Y-69700000D03*
D18*
X175400004Y-65950000D03*
D17*
X175900004Y-69700000D03*
%TD*%
D14*
%TO.C,D10*%
X225089999Y-91700002D03*
D15*
X227249999Y-91700000D03*
X230549999Y-91700004D03*
D16*
X232709999Y-91700002D03*
%TD*%
D17*
%TO.C,S19*%
X213400006Y-112699999D03*
D18*
X218900006Y-106749997D03*
D19*
X218900006Y-112699999D03*
D18*
X223900006Y-108949999D03*
D17*
X224400006Y-112699999D03*
%TD*%
%TO.C,S13*%
X238900004Y-92700000D03*
D18*
X244400004Y-86749998D03*
D19*
X244400004Y-92700000D03*
D18*
X249400004Y-88950000D03*
D17*
X249900004Y-92700000D03*
%TD*%
D14*
%TO.C,D3*%
X169590004Y-74699998D03*
D15*
X171750004Y-74699996D03*
X175050004Y-74700000D03*
D16*
X177210004Y-74699998D03*
%TD*%
D14*
%TO.C,D19*%
X218090006Y-117699999D03*
D15*
X220250006Y-117699997D03*
X223550006Y-117700001D03*
D16*
X225710006Y-117699999D03*
%TD*%
D14*
%TO.C,D9*%
X206590007Y-61699999D03*
D15*
X208750007Y-61699997D03*
X212050007Y-61700001D03*
D16*
X214210007Y-61699999D03*
%TD*%
D17*
%TO.C,S8*%
X201900003Y-74200001D03*
D18*
X207400003Y-68249999D03*
D19*
X207400003Y-74200001D03*
D18*
X212400003Y-70450001D03*
D17*
X212900003Y-74200001D03*
%TD*%
%TO.C,S2*%
X164900002Y-87199999D03*
D18*
X170400002Y-81249997D03*
D19*
X170400002Y-87199999D03*
D18*
X175400002Y-83449999D03*
D17*
X175900002Y-87199999D03*
%TD*%
%TO.C,S20*%
X231900005Y-111699999D03*
D18*
X237400005Y-105749997D03*
D19*
X237400005Y-111699999D03*
D18*
X242400005Y-107949999D03*
D17*
X242900005Y-111699999D03*
%TD*%
D24*
%TO.C,JST1*%
X286900005Y-104699999D03*
D25*
X284900005Y-104699999D03*
%TD*%
D14*
%TO.C,D1*%
X169590004Y-109699999D03*
D15*
X171750004Y-109699997D03*
X175050004Y-109700001D03*
D16*
X177210004Y-109699999D03*
%TD*%
D17*
%TO.C,S6*%
X183400005Y-67700001D03*
D18*
X188900005Y-61749999D03*
D19*
X188900005Y-67700001D03*
D18*
X193900005Y-63950001D03*
D17*
X194400005Y-67700001D03*
%TD*%
D14*
%TO.C,D14*%
X243590007Y-80199997D03*
D15*
X245750007Y-80199995D03*
X249050007Y-80199999D03*
D16*
X251210007Y-80199997D03*
%TD*%
D17*
%TO.C,S22*%
X271138755Y-119621945D03*
D18*
X278342084Y-115911885D03*
D19*
X276307064Y-121503056D03*
D18*
X282288103Y-119689309D03*
D17*
X281475373Y-123384167D03*
%TD*%
%TO.C,S17*%
X257400005Y-77199999D03*
D18*
X262900005Y-71249997D03*
D19*
X262900005Y-77199999D03*
D18*
X267900005Y-73449999D03*
D17*
X268400005Y-77199999D03*
%TD*%
%TO.C,S9*%
X201900000Y-56700000D03*
D18*
X207400000Y-50749998D03*
D19*
X207400000Y-56700000D03*
D18*
X212400000Y-52950000D03*
D17*
X212900000Y-56700000D03*
%TD*%
D14*
%TO.C,D16*%
X262090006Y-99700001D03*
D15*
X264250006Y-99699999D03*
X267550006Y-99700003D03*
D16*
X269710006Y-99700001D03*
%TD*%
D14*
%TO.C,D15*%
X243590004Y-62699997D03*
D15*
X245750004Y-62699995D03*
X249050004Y-62699999D03*
D16*
X251210004Y-62699997D03*
%TD*%
D17*
%TO.C,S21*%
X251909665Y-113444500D03*
D18*
X258359315Y-108539959D03*
D19*
X257326108Y-114399565D03*
D18*
X262901331Y-111574778D03*
D17*
X262742551Y-115354630D03*
%TD*%
%TO.C,S11*%
X220400006Y-69199997D03*
D18*
X225900006Y-63249995D03*
D19*
X225900006Y-69199997D03*
D18*
X230900006Y-65449997D03*
D17*
X231400006Y-69199997D03*
%TD*%
%TO.C,S18*%
X257400003Y-59700000D03*
D18*
X262900003Y-53749998D03*
D19*
X262900003Y-59700000D03*
D18*
X267900003Y-55950000D03*
D17*
X268400003Y-59700000D03*
%TD*%
D26*
%TO.C,MCU1*%
X291520000Y-51730004D03*
X291520000Y-54270001D03*
X291520000Y-56810001D03*
X291520000Y-59350001D03*
X291520000Y-61890001D03*
X291520000Y-64430001D03*
X291520000Y-66970001D03*
X291520000Y-69510001D03*
X291519996Y-72050001D03*
X291520000Y-74590001D03*
X291520000Y-77130001D03*
X291520000Y-79670001D03*
X276280000Y-79669998D03*
X276280000Y-77130001D03*
X276280000Y-74590001D03*
X276280000Y-72050001D03*
X276280000Y-69510001D03*
X276280000Y-66970001D03*
X276280000Y-64430001D03*
X276280000Y-61890001D03*
X276280004Y-59350001D03*
X276280000Y-56810001D03*
X276280000Y-54270001D03*
X276280000Y-51730001D03*
X278820002Y-74590000D03*
X281360000Y-74590001D03*
X283900000Y-74590001D03*
%TD*%
D14*
%TO.C,D4*%
X188089998Y-107700000D03*
D15*
X190249998Y-107699998D03*
X193549998Y-107700002D03*
D16*
X195709998Y-107700000D03*
%TD*%
D14*
%TO.C,D20*%
X236590004Y-116700001D03*
D15*
X238750004Y-116699999D03*
X242050004Y-116700003D03*
D16*
X244210004Y-116700001D03*
%TD*%
D17*
%TO.C,S4*%
X183400005Y-102700002D03*
D18*
X188900005Y-96750000D03*
D19*
X188900005Y-102700002D03*
D18*
X193900005Y-98950002D03*
D17*
X194400005Y-102700002D03*
%TD*%
D14*
%TO.C,D5*%
X188090008Y-90200002D03*
D15*
X190250008Y-90200000D03*
X193550008Y-90200004D03*
D16*
X195710008Y-90200002D03*
%TD*%
D17*
%TO.C,S5*%
X183400004Y-85200000D03*
D18*
X188900004Y-79249998D03*
D19*
X188900004Y-85200000D03*
D18*
X193900004Y-81450000D03*
D17*
X194400004Y-85200000D03*
%TD*%
D27*
%TO.C,T1*%
X18301796Y-92401793D03*
X20501796Y-92401793D03*
D11*
X19401796Y-90201793D03*
X19401796Y-87201793D03*
D27*
X18301796Y-85001793D03*
X20501796Y-85001793D03*
D28*
X21476797Y-86451793D03*
X21476796Y-89451793D03*
X21476796Y-90951793D03*
%TD*%
D29*
%TO.C,B1*%
X34051797Y-91801793D03*
X34051797Y-85601793D03*
X37751797Y-91801793D03*
X37751797Y-85601793D03*
%TD*%
D17*
%TO.C,S19*%
X89401796Y-112701793D03*
D18*
X94901796Y-106751792D03*
D19*
X94901796Y-112701793D03*
D18*
X99901797Y-108951793D03*
D17*
X100401796Y-112701793D03*
%TD*%
D14*
%TO.C,D7*%
X105591795Y-96701795D03*
D15*
X107751795Y-96701796D03*
X111051795Y-96701794D03*
D16*
X113211795Y-96701795D03*
%TD*%
D17*
%TO.C,S15*%
X63901795Y-57701794D03*
D18*
X69401795Y-51751793D03*
D19*
X69401795Y-57701794D03*
D18*
X74401796Y-53951794D03*
D17*
X74901795Y-57701794D03*
%TD*%
D14*
%TO.C,D3*%
X142591795Y-74701795D03*
D15*
X144751795Y-74701796D03*
X148051795Y-74701794D03*
D16*
X150211795Y-74701795D03*
%TD*%
D14*
%TO.C,D12*%
X87091797Y-56701795D03*
D15*
X89251797Y-56701796D03*
X92551797Y-56701794D03*
D16*
X94711797Y-56701795D03*
%TD*%
D17*
%TO.C,S21*%
X51059250Y-115356423D03*
D18*
X55442486Y-108541752D03*
D19*
X56475693Y-114401358D03*
D18*
X60748552Y-109840088D03*
D17*
X61892136Y-113446293D03*
%TD*%
D14*
%TO.C,D18*%
X50091796Y-64701795D03*
D15*
X52251796Y-64701796D03*
X55551796Y-64701794D03*
D16*
X57711796Y-64701795D03*
%TD*%
D17*
%TO.C,S2*%
X137901796Y-87201795D03*
D18*
X143401796Y-81251794D03*
D19*
X143401796Y-87201795D03*
D18*
X148401797Y-83451795D03*
D17*
X148901796Y-87201795D03*
%TD*%
%TO.C,S6*%
X119401796Y-67701794D03*
D18*
X124901796Y-61751793D03*
D19*
X124901796Y-67701794D03*
D18*
X129901797Y-63951794D03*
D17*
X130401796Y-67701794D03*
%TD*%
D14*
%TO.C,D2*%
X142591797Y-92201794D03*
D15*
X144751797Y-92201795D03*
X148051797Y-92201793D03*
D16*
X150211797Y-92201794D03*
%TD*%
D14*
%TO.C,D17*%
X50091797Y-82201793D03*
D15*
X52251797Y-82201794D03*
X55551797Y-82201792D03*
D16*
X57711797Y-82201793D03*
%TD*%
D17*
%TO.C,S8*%
X100901796Y-74201794D03*
D18*
X106401796Y-68251793D03*
D19*
X106401796Y-74201794D03*
D18*
X111401797Y-70451794D03*
D17*
X111901796Y-74201794D03*
%TD*%
D14*
%TO.C,D15*%
X68591796Y-62701795D03*
D15*
X70751796Y-62701796D03*
X74051796Y-62701794D03*
D16*
X76211796Y-62701795D03*
%TD*%
D14*
%TO.C,D9*%
X105591796Y-61701795D03*
D15*
X107751796Y-61701796D03*
X111051796Y-61701794D03*
D16*
X113211796Y-61701795D03*
%TD*%
D14*
%TO.C,D16*%
X50091796Y-99701796D03*
D15*
X52251796Y-99701797D03*
X55551796Y-99701795D03*
D16*
X57711796Y-99701796D03*
%TD*%
D17*
%TO.C,S1*%
X137901797Y-104701794D03*
D18*
X143401797Y-98751793D03*
D19*
X143401797Y-104701794D03*
D18*
X148401798Y-100951794D03*
D17*
X148901797Y-104701794D03*
%TD*%
%TO.C,S16*%
X45401796Y-94701795D03*
D18*
X50901796Y-88751794D03*
D19*
X50901796Y-94701795D03*
D18*
X55901797Y-90951795D03*
D17*
X56401796Y-94701795D03*
%TD*%
%TO.C,S14*%
X63901796Y-75201795D03*
D18*
X69401796Y-69251794D03*
D19*
X69401796Y-75201795D03*
D18*
X74401797Y-71451795D03*
D17*
X74901796Y-75201795D03*
%TD*%
%TO.C,S11*%
X82401796Y-69201794D03*
D18*
X87901796Y-63251793D03*
D19*
X87901796Y-69201794D03*
D18*
X92901797Y-65451794D03*
D17*
X93401796Y-69201794D03*
%TD*%
%TO.C,S10*%
X82401797Y-86701795D03*
D18*
X87901797Y-80751794D03*
D19*
X87901797Y-86701795D03*
D18*
X92901798Y-82951795D03*
D17*
X93401797Y-86701795D03*
%TD*%
D14*
%TO.C,D1*%
X142591796Y-109701796D03*
D15*
X144751796Y-109701797D03*
X148051796Y-109701795D03*
D16*
X150211796Y-109701796D03*
%TD*%
D17*
%TO.C,S7*%
X100901797Y-91701794D03*
D18*
X106401797Y-85751793D03*
D19*
X106401797Y-91701794D03*
D18*
X111401798Y-87951794D03*
D17*
X111901797Y-91701794D03*
%TD*%
%TO.C,S13*%
X63901796Y-92701794D03*
D18*
X69401796Y-86751793D03*
D19*
X69401796Y-92701794D03*
D18*
X74401797Y-88951794D03*
D17*
X74901796Y-92701794D03*
%TD*%
%TO.C,S9*%
X100901797Y-56701794D03*
D18*
X106401797Y-50751793D03*
D19*
X106401797Y-56701794D03*
D18*
X111401798Y-52951794D03*
D17*
X111901797Y-56701794D03*
%TD*%
%TO.C,S17*%
X45401796Y-77201795D03*
D18*
X50901796Y-71251794D03*
D19*
X50901796Y-77201795D03*
D18*
X55901797Y-73451795D03*
D17*
X56401796Y-77201795D03*
%TD*%
%TO.C,S18*%
X45401796Y-59701794D03*
D18*
X50901796Y-53751793D03*
D19*
X50901796Y-59701794D03*
D18*
X55901797Y-55951794D03*
D17*
X56401796Y-59701794D03*
%TD*%
D14*
%TO.C,D4*%
X124091796Y-107701795D03*
D15*
X126251796Y-107701796D03*
X129551796Y-107701794D03*
D16*
X131711796Y-107701795D03*
%TD*%
D17*
%TO.C,S3*%
X137901795Y-69701794D03*
D18*
X143401795Y-63751793D03*
D19*
X143401795Y-69701794D03*
D18*
X148401796Y-65951794D03*
D17*
X148901795Y-69701794D03*
%TD*%
D30*
%TO.C,D21*%
X56546238Y-119466053D03*
D31*
X58673424Y-119090971D03*
X61923290Y-118517935D03*
D16*
X64050476Y-118142853D03*
%TD*%
D14*
%TO.C,D5*%
X124091794Y-90201795D03*
D15*
X126251794Y-90201796D03*
X129551794Y-90201794D03*
D16*
X131711794Y-90201795D03*
%TD*%
D14*
%TO.C,D13*%
X68591797Y-97701796D03*
D15*
X70751797Y-97701797D03*
X74051797Y-97701795D03*
D16*
X76211797Y-97701796D03*
%TD*%
D32*
%TO.C,D22*%
X38443683Y-126480349D03*
D33*
X40473419Y-125741584D03*
X43574405Y-124612920D03*
D16*
X45604141Y-123874155D03*
%TD*%
D17*
%TO.C,S5*%
X119401796Y-85201794D03*
D18*
X124901796Y-79251793D03*
D19*
X124901796Y-85201794D03*
D18*
X129901797Y-81451794D03*
D17*
X130401796Y-85201794D03*
%TD*%
%TO.C,S22*%
X32326425Y-123385960D03*
D18*
X35459714Y-115913678D03*
D19*
X37494734Y-121504849D03*
D18*
X40910622Y-116270901D03*
D17*
X42663043Y-119623738D03*
%TD*%
D14*
%TO.C,D6*%
X124091797Y-72701795D03*
D15*
X126251797Y-72701796D03*
X129551797Y-72701794D03*
D16*
X131711797Y-72701795D03*
%TD*%
D26*
%TO.C,MCU1*%
X22281796Y-51731796D03*
X22281796Y-54271795D03*
X22281796Y-56811795D03*
X22281796Y-59351795D03*
X22281796Y-61891795D03*
X22281796Y-64431795D03*
X22281796Y-66971795D03*
X22281796Y-69511795D03*
X22281797Y-72051795D03*
X22281796Y-74591795D03*
X22281796Y-77131795D03*
X22281796Y-79671795D03*
X37521796Y-79671794D03*
X37521796Y-77131795D03*
X37521796Y-74591795D03*
X37521796Y-72051795D03*
X37521796Y-69511795D03*
X37521796Y-66971795D03*
X37521796Y-64431795D03*
X37521796Y-61891795D03*
X37521795Y-59351795D03*
X37521796Y-56811795D03*
X37521796Y-54271795D03*
X37521796Y-51731795D03*
X24821796Y-74591795D03*
X27361796Y-74591795D03*
X29901796Y-74591795D03*
%TD*%
D14*
%TO.C,D20*%
X75591796Y-116701794D03*
D15*
X77751796Y-116701795D03*
X81051796Y-116701793D03*
D16*
X83211796Y-116701794D03*
%TD*%
D17*
%TO.C,S12*%
X82401797Y-51701795D03*
D18*
X87901797Y-45751794D03*
D19*
X87901797Y-51701795D03*
D18*
X92901798Y-47951795D03*
D17*
X93401797Y-51701795D03*
%TD*%
D14*
%TO.C,D14*%
X68591795Y-80201794D03*
D15*
X70751795Y-80201795D03*
X74051795Y-80201793D03*
D16*
X76211795Y-80201794D03*
%TD*%
D14*
%TO.C,D10*%
X87091795Y-91701795D03*
D15*
X89251795Y-91701796D03*
X92551795Y-91701794D03*
D16*
X94711795Y-91701795D03*
%TD*%
D17*
%TO.C,S4*%
X119401794Y-102701796D03*
D18*
X124901794Y-96751795D03*
D19*
X124901794Y-102701796D03*
D18*
X129901795Y-98951796D03*
D17*
X130401794Y-102701796D03*
%TD*%
D14*
%TO.C,D19*%
X94091794Y-117701795D03*
D15*
X96251794Y-117701796D03*
X99551794Y-117701794D03*
D16*
X101711794Y-117701795D03*
%TD*%
D14*
%TO.C,D8*%
X105591797Y-79201794D03*
D15*
X107751797Y-79201795D03*
X111051797Y-79201793D03*
D16*
X113211797Y-79201794D03*
%TD*%
D17*
%TO.C,S20*%
X70901796Y-111701794D03*
D18*
X76401796Y-105751793D03*
D19*
X76401796Y-111701794D03*
D18*
X81401797Y-107951794D03*
D17*
X81901796Y-111701794D03*
%TD*%
D14*
%TO.C,D11*%
X87091796Y-74201794D03*
D15*
X89251796Y-74201795D03*
X92551796Y-74201793D03*
D16*
X94711796Y-74201794D03*
%TD*%
D34*
%TO.C,JST1*%
X26901796Y-104701794D03*
D25*
X28901796Y-104701794D03*
%TD*%
M02*
