M48
; DRILL file {KiCad 8.0.4} date 2024-08-22T13:40:14+0100
; FORMAT={-:-/ absolute / inch / decimal}
; #@! TF.CreationDate,2024-08-22T13:40:14+01:00
; #@! TF.GenerationSoftware,Kicad,Pcbnew,8.0.4
; #@! TF.FileFunction,Plated,1,2,PTH
FMAT,2
INCH
; #@! TA.AperFunction,Plated,PTH,ComponentDrill
T1C0.0295
; #@! TA.AperFunction,Plated,PTH,ComponentDrill
T2C0.0390
; #@! TA.AperFunction,Plated,PTH,ComponentDrill
T3C0.0430
%
G90
G05
T1
X1.0591Y-4.1221
X1.1379Y-4.1221
X11.2165Y-4.122
X11.2953Y-4.122
T2
X1.5135Y-4.9795
X1.7954Y-4.8769
X1.9721Y-2.5473
X1.9721Y-3.9253
X1.9721Y-3.2363
X2.2262Y-4.7034
X2.2721Y-2.5473
X2.2721Y-3.9253
X2.2721Y-3.2363
X2.5217Y-4.6513
X2.7005Y-3.1576
X2.7005Y-2.4686
X2.7005Y-3.8465
X2.9761Y-4.5946
X3.0005Y-3.1576
X3.0005Y-2.4686
X3.0005Y-3.8465
X3.2761Y-4.5946
X3.4288Y-3.6103
X3.4288Y-2.9213
X3.4288Y-2.2324
X3.7044Y-4.6339
X3.7288Y-3.6103
X3.7288Y-2.9213
X3.7288Y-2.2324
X4.0044Y-4.6339
X4.1572Y-3.8072
X4.1572Y-2.4292
X4.1572Y-3.1182
X4.4572Y-3.8072
X4.4572Y-2.4292
X4.4572Y-3.1182
X4.8855Y-3.5513
X4.8855Y-4.2402
X4.8855Y-2.8623
X5.1855Y-3.5513
X5.1855Y-4.2402
X5.1855Y-2.8623
X5.6139Y-2.941
X5.6139Y-4.319
X5.6139Y-3.63
X5.9139Y-2.941
X5.9139Y-4.319
X5.9139Y-3.63
X6.6768Y-3.6299
X6.6768Y-2.9409
X6.6768Y-4.3189
X6.9768Y-3.6299
X6.9768Y-2.9409
X6.9768Y-4.3189
X7.4051Y-4.2402
X7.4051Y-2.8622
X7.4051Y-3.5512
X7.7051Y-4.2402
X7.7051Y-2.8622
X7.7051Y-3.5512
X8.1335Y-3.1181
X8.1335Y-3.8071
X8.1335Y-2.4291
X8.4335Y-3.1181
X8.4335Y-3.8071
X8.4335Y-2.4291
X8.5862Y-4.6339
X8.8618Y-3.6102
X8.8618Y-2.2323
X8.8618Y-2.9213
X8.8862Y-4.6339
X9.1618Y-3.6102
X9.1618Y-2.2323
X9.1618Y-2.9213
X9.3146Y-4.5945
X9.5902Y-3.8465
X9.5902Y-2.4685
X9.5902Y-3.1575
X9.6146Y-4.5945
X9.8902Y-3.8465
X9.8902Y-2.4685
X9.8902Y-3.1575
X10.0654Y-4.6922
X10.3185Y-2.5472
X10.3185Y-3.2362
X10.3185Y-3.9252
X10.3608Y-4.7443
X10.6185Y-2.5472
X10.6185Y-3.2362
X10.6185Y-3.9252
X10.7809Y-4.9577
X11.0628Y-5.0603
T3
X0.8772Y-2.0367
X0.8772Y-2.1367
X0.8772Y-2.2367
X0.8772Y-2.3367
X0.8772Y-2.4367
X0.8772Y-2.5367
X0.8772Y-2.6367
X0.8772Y-2.7367
X0.8772Y-2.9367
X0.8772Y-3.0367
X0.8772Y-3.1367
X0.8772Y-2.8367
X0.9772Y-2.9367
X1.0772Y-2.9367
X1.1772Y-2.9367
X1.4772Y-2.3367
X1.4772Y-2.0367
X1.4772Y-2.1367
X1.4772Y-2.2367
X1.4772Y-2.4367
X1.4772Y-2.5367
X1.4772Y-2.6367
X1.4772Y-2.7367
X1.4772Y-2.8367
X1.4772Y-2.9367
X1.4772Y-3.0367
X1.4772Y-3.1367
X10.8772Y-2.0366
X10.8772Y-2.1366
X10.8772Y-2.2366
X10.8772Y-2.4366
X10.8772Y-2.5366
X10.8772Y-2.6366
X10.8772Y-2.7366
X10.8772Y-2.8366
X10.8772Y-2.9366
X10.8772Y-3.0366
X10.8772Y-3.1366
X10.8772Y-2.3366
X10.9772Y-2.9366
X11.0772Y-2.9366
X11.1772Y-2.9366
X11.4772Y-2.8366
X11.4772Y-2.0366
X11.4772Y-2.1366
X11.4772Y-2.2366
X11.4772Y-2.3366
X11.4772Y-2.4366
X11.4772Y-2.5366
X11.4772Y-2.6366
X11.4772Y-2.7366
X11.4772Y-2.9366
X11.4772Y-3.0366
X11.4772Y-3.1366
M30
