%TF.GenerationSoftware,KiCad,Pcbnew,8.0.4*%
%TF.CreationDate,2024-08-22T13:40:17+01:00*%
%TF.ProjectId,TEST combine v2 left and right,54455354-2063-46f6-9d62-696e65207632,rev?*%
%TF.SameCoordinates,Original*%
%TF.FileFunction,Copper,L2,Bot*%
%TF.FilePolarity,Positive*%
%FSLAX46Y46*%
G04 Gerber Fmt 4.6, Leading zero omitted, Abs format (unit mm)*
G04 Created by KiCad (PCBNEW 8.0.4) date 2024-08-22 13:40:17*
%MOMM*%
%LPD*%
G01*
G04 APERTURE LIST*
G04 Aperture macros list*
%AMRotRect*
0 Rectangle, with rotation*
0 The origin of the aperture is its center*
0 $1 length*
0 $2 width*
0 $3 Rotation angle, in degrees counterclockwise*
0 Add horizontal line*
21,1,$1,$2,0,0,$3*%
G04 Aperture macros list end*
%TA.AperFunction,WasherPad*%
%ADD10C,1.000000*%
%TD*%
%TA.AperFunction,ComponentPad*%
%ADD11R,1.778000X1.778000*%
%TD*%
%TA.AperFunction,SMDPad,CuDef*%
%ADD12R,0.900000X1.200000*%
%TD*%
%TA.AperFunction,ComponentPad*%
%ADD13C,1.905000*%
%TD*%
%TA.AperFunction,SMDPad,CuDef*%
%ADD14R,2.600000X2.600000*%
%TD*%
%TA.AperFunction,ComponentPad*%
%ADD15RotRect,1.778000X1.778000X350.000000*%
%TD*%
%TA.AperFunction,SMDPad,CuDef*%
%ADD16RotRect,0.900000X1.200000X350.000000*%
%TD*%
%TA.AperFunction,ComponentPad*%
%ADD17RotRect,1.778000X1.778000X340.000000*%
%TD*%
%TA.AperFunction,SMDPad,CuDef*%
%ADD18RotRect,0.900000X1.200000X340.000000*%
%TD*%
%TA.AperFunction,ComponentPad*%
%ADD19R,1.200000X1.700000*%
%TD*%
%TA.AperFunction,ComponentPad*%
%ADD20O,1.200000X1.700000*%
%TD*%
%TA.AperFunction,SMDPad,CuDef*%
%ADD21RotRect,2.600000X2.600000X340.000000*%
%TD*%
%TA.AperFunction,SMDPad,CuDef*%
%ADD22RotRect,2.600000X2.600000X350.000000*%
%TD*%
%TA.AperFunction,ComponentPad*%
%ADD23C,1.752600*%
%TD*%
%TA.AperFunction,SMDPad,CuDef*%
%ADD24RotRect,2.600000X2.600000X10.000000*%
%TD*%
%TA.AperFunction,ComponentPad*%
%ADD25RotRect,1.778000X1.778000X10.000000*%
%TD*%
%TA.AperFunction,SMDPad,CuDef*%
%ADD26RotRect,0.900000X1.200000X10.000000*%
%TD*%
%TA.AperFunction,ComponentPad*%
%ADD27RotRect,1.778000X1.778000X20.000000*%
%TD*%
%TA.AperFunction,SMDPad,CuDef*%
%ADD28RotRect,0.900000X1.200000X20.000000*%
%TD*%
%TA.AperFunction,SMDPad,CuDef*%
%ADD29RotRect,2.600000X2.600000X20.000000*%
%TD*%
%TA.AperFunction,Conductor*%
%ADD30C,0.250000*%
%TD*%
G04 APERTURE END LIST*
D10*
%TO.P,T1,*%
%TO.N,*%
X294400004Y-87199998D03*
X294400004Y-90199998D03*
%TD*%
D11*
%TO.P,D18,1*%
%TO.N,P111*%
X262090005Y-64700001D03*
D12*
X264250005Y-64699999D03*
%TO.P,D18,2*%
%TO.N,sixth_top*%
X267550005Y-64700003D03*
D13*
X269710005Y-64700001D03*
%TD*%
D11*
%TO.P,D12,1*%
%TO.N,P111*%
X225090001Y-56699999D03*
D12*
X227250001Y-56699997D03*
%TO.P,D12,2*%
%TO.N,fourth_top*%
X230550001Y-56700001D03*
D13*
X232710001Y-56699999D03*
%TD*%
D14*
%TO.P,S12,1*%
%TO.N,P002*%
X222625002Y-45749998D03*
%TO.P,S12,2*%
%TO.N,fourth_top*%
X234175002Y-47949998D03*
%TD*%
D11*
%TO.P,D17,1*%
%TO.N,P010*%
X262090005Y-82199999D03*
D12*
X264250005Y-82199997D03*
%TO.P,D17,2*%
%TO.N,sixth_home*%
X267550005Y-82200001D03*
D13*
X269710005Y-82199999D03*
%TD*%
D14*
%TO.P,S7,1*%
%TO.N,P115*%
X204125004Y-85750001D03*
%TO.P,S7,2*%
%TO.N,third_bottom*%
X215675004Y-87950001D03*
%TD*%
D11*
%TO.P,D6,1*%
%TO.N,P111*%
X188090002Y-72699999D03*
D12*
X190250002Y-72699997D03*
%TO.P,D6,2*%
%TO.N,second_top*%
X193550002Y-72700001D03*
D13*
X195710002Y-72699999D03*
%TD*%
D11*
%TO.P,D13,1*%
%TO.N,P009*%
X243590002Y-97699999D03*
D12*
X245750002Y-97699997D03*
%TO.P,D13,2*%
%TO.N,fifth_bottom*%
X249050002Y-97700001D03*
D13*
X251210002Y-97699999D03*
%TD*%
D11*
%TO.P,D8,1*%
%TO.N,P010*%
X206590002Y-79199998D03*
D12*
X208750002Y-79199996D03*
%TO.P,D8,2*%
%TO.N,third_home*%
X212050002Y-79200000D03*
D13*
X214210002Y-79199998D03*
%TD*%
D14*
%TO.P,S14,1*%
%TO.N,P029*%
X241125000Y-69250001D03*
%TO.P,S14,2*%
%TO.N,fifth_home*%
X252675000Y-71450001D03*
%TD*%
%TO.P,S1,1*%
%TO.N,P104*%
X167125006Y-98749999D03*
%TO.P,S1,2*%
%TO.N,first_bottom*%
X178675006Y-100949999D03*
%TD*%
%TO.P,S15,1*%
%TO.N,P029*%
X241125007Y-51750002D03*
%TO.P,S15,2*%
%TO.N,fifth_top*%
X252675007Y-53950002D03*
%TD*%
%TO.P,S16,1*%
%TO.N,P031*%
X259625003Y-88749998D03*
%TO.P,S16,2*%
%TO.N,sixth_bottom*%
X271175003Y-90949998D03*
%TD*%
%TO.P,S10,1*%
%TO.N,P002*%
X222625001Y-80749999D03*
%TO.P,S10,2*%
%TO.N,fourth_bottom*%
X234175001Y-82949999D03*
%TD*%
D11*
%TO.P,D2,1*%
%TO.N,P010*%
X169590001Y-92199998D03*
D12*
X171750001Y-92199996D03*
%TO.P,D2,2*%
%TO.N,first_home*%
X175050001Y-92200000D03*
D13*
X177210001Y-92199998D03*
%TD*%
D11*
%TO.P,D7,1*%
%TO.N,P009*%
X206590005Y-96700000D03*
D12*
X208750005Y-96699998D03*
%TO.P,D7,2*%
%TO.N,third_bottom*%
X212050005Y-96700002D03*
D13*
X214210005Y-96700000D03*
%TD*%
D11*
%TO.P,D11,1*%
%TO.N,P010*%
X225090007Y-74199999D03*
D12*
X227250007Y-74199997D03*
%TO.P,D11,2*%
%TO.N,fourth_home*%
X230550007Y-74200001D03*
D13*
X232710007Y-74199999D03*
%TD*%
D15*
%TO.P,D21,1*%
%TO.N,P106*%
X255660173Y-119182945D03*
D16*
X257787360Y-119558027D03*
%TO.P,D21,2*%
%TO.N,third_only*%
X261037226Y-120131063D03*
D13*
X263164413Y-120506145D03*
%TD*%
D17*
%TO.P,D22,1*%
%TO.N,P106*%
X273835814Y-125924482D03*
D18*
X275865550Y-126663247D03*
%TO.P,D22,2*%
%TO.N,fourth_only*%
X278966536Y-127791911D03*
D13*
X280996272Y-128530676D03*
%TD*%
D14*
%TO.P,S3,1*%
%TO.N,P104*%
X167125004Y-63750000D03*
%TO.P,S3,2*%
%TO.N,first_top*%
X178675004Y-65950000D03*
%TD*%
D11*
%TO.P,D10,1*%
%TO.N,P009*%
X225089999Y-91700002D03*
D12*
X227249999Y-91700000D03*
%TO.P,D10,2*%
%TO.N,fourth_bottom*%
X230549999Y-91700004D03*
D13*
X232709999Y-91700002D03*
%TD*%
D14*
%TO.P,S19,1*%
%TO.N,P115*%
X215625006Y-106749999D03*
%TO.P,S19,2*%
%TO.N,first_only*%
X227175006Y-108949999D03*
%TD*%
%TO.P,S13,1*%
%TO.N,P029*%
X241125004Y-86750000D03*
%TO.P,S13,2*%
%TO.N,fifth_bottom*%
X252675004Y-88950000D03*
%TD*%
D11*
%TO.P,D3,1*%
%TO.N,P111*%
X169590004Y-74699998D03*
D12*
X171750004Y-74699996D03*
%TO.P,D3,2*%
%TO.N,first_top*%
X175050004Y-74700000D03*
D13*
X177210004Y-74699998D03*
%TD*%
D11*
%TO.P,D19,1*%
%TO.N,P106*%
X218090006Y-117699999D03*
D12*
X220250006Y-117699997D03*
%TO.P,D19,2*%
%TO.N,first_only*%
X223550006Y-117700001D03*
D13*
X225710006Y-117699999D03*
%TD*%
D11*
%TO.P,D9,1*%
%TO.N,P111*%
X206590007Y-61699999D03*
D12*
X208750007Y-61699997D03*
%TO.P,D9,2*%
%TO.N,third_top*%
X212050007Y-61700001D03*
D13*
X214210007Y-61699999D03*
%TD*%
D14*
%TO.P,S8,1*%
%TO.N,P115*%
X204125003Y-68250001D03*
%TO.P,S8,2*%
%TO.N,third_home*%
X215675003Y-70450001D03*
%TD*%
%TO.P,S2,1*%
%TO.N,P104*%
X167125002Y-81249999D03*
%TO.P,S2,2*%
%TO.N,first_home*%
X178675002Y-83449999D03*
%TD*%
%TO.P,S20,1*%
%TO.N,P002*%
X234125005Y-105749999D03*
%TO.P,S20,2*%
%TO.N,second_only*%
X245675005Y-107949999D03*
%TD*%
D19*
%TO.P,JST1,1*%
%TO.N,pos*%
X286900005Y-104699999D03*
D20*
%TO.P,JST1,2*%
%TO.N,GND*%
X284900005Y-104699999D03*
%TD*%
D11*
%TO.P,D1,1*%
%TO.N,P009*%
X169590004Y-109699999D03*
D12*
X171750004Y-109699997D03*
%TO.P,D1,2*%
%TO.N,first_bottom*%
X175050004Y-109700001D03*
D13*
X177210004Y-109699999D03*
%TD*%
D14*
%TO.P,S6,1*%
%TO.N,P113*%
X185625005Y-61750001D03*
%TO.P,S6,2*%
%TO.N,second_top*%
X197175005Y-63950001D03*
%TD*%
D11*
%TO.P,D14,1*%
%TO.N,P010*%
X243590007Y-80199997D03*
D12*
X245750007Y-80199995D03*
%TO.P,D14,2*%
%TO.N,fifth_home*%
X249050007Y-80199999D03*
D13*
X251210007Y-80199997D03*
%TD*%
D21*
%TO.P,S22,1*%
%TO.N,P031*%
X275264591Y-114791769D03*
%TO.P,S22,2*%
%TO.N,fourth_only*%
X285365596Y-120809425D03*
%TD*%
D14*
%TO.P,S17,1*%
%TO.N,P031*%
X259625005Y-71249999D03*
%TO.P,S17,2*%
%TO.N,sixth_home*%
X271175005Y-73449999D03*
%TD*%
%TO.P,S9,1*%
%TO.N,P115*%
X204125000Y-50750000D03*
%TO.P,S9,2*%
%TO.N,third_top*%
X215675000Y-52950000D03*
%TD*%
D11*
%TO.P,D16,1*%
%TO.N,P009*%
X262090006Y-99700001D03*
D12*
X264250006Y-99699999D03*
%TO.P,D16,2*%
%TO.N,sixth_bottom*%
X267550006Y-99700003D03*
D13*
X269710006Y-99700001D03*
%TD*%
D11*
%TO.P,D15,1*%
%TO.N,P111*%
X243590004Y-62699997D03*
D12*
X245750004Y-62699995D03*
%TO.P,D15,2*%
%TO.N,fifth_top*%
X249050004Y-62699999D03*
D13*
X251210004Y-62699997D03*
%TD*%
D22*
%TO.P,S21,1*%
%TO.N,P029*%
X255134069Y-107971261D03*
%TO.P,S21,2*%
%TO.N,third_only*%
X266126573Y-112143475D03*
%TD*%
D14*
%TO.P,S11,1*%
%TO.N,P002*%
X222625006Y-63249997D03*
%TO.P,S11,2*%
%TO.N,fourth_home*%
X234175006Y-65449997D03*
%TD*%
%TO.P,S18,1*%
%TO.N,P031*%
X259625003Y-53750000D03*
%TO.P,S18,2*%
%TO.N,sixth_top*%
X271175003Y-55950000D03*
%TD*%
D23*
%TO.P,MCU1,1*%
%TO.N,P006*%
X291520000Y-51730004D03*
%TO.P,MCU1,2*%
%TO.N,P008*%
X291520000Y-54270001D03*
%TO.P,MCU1,3*%
%TO.N,GND*%
X291520000Y-56810001D03*
%TO.P,MCU1,4*%
X291520000Y-59350001D03*
%TO.P,MCU1,5*%
%TO.N,P017*%
X291520000Y-61890001D03*
%TO.P,MCU1,6*%
%TO.N,P020*%
X291520000Y-64430001D03*
%TO.P,MCU1,7*%
%TO.N,P022*%
X291520000Y-66970001D03*
%TO.P,MCU1,8*%
%TO.N,P024*%
X291520000Y-69510001D03*
%TO.P,MCU1,9*%
%TO.N,P100*%
X291519996Y-72050001D03*
%TO.P,MCU1,10*%
%TO.N,P011*%
X291520000Y-74590001D03*
%TO.P,MCU1,11*%
%TO.N,P104*%
X291520000Y-77130001D03*
%TO.P,MCU1,12*%
%TO.N,P106*%
X291520000Y-79670001D03*
%TO.P,MCU1,13*%
%TO.N,P009*%
X276280000Y-79669998D03*
%TO.P,MCU1,14*%
%TO.N,P010*%
X276280000Y-77130001D03*
%TO.P,MCU1,15*%
%TO.N,P111*%
X276280000Y-74590001D03*
%TO.P,MCU1,16*%
%TO.N,P113*%
X276280000Y-72050001D03*
%TO.P,MCU1,17*%
%TO.N,P115*%
X276280000Y-69510001D03*
%TO.P,MCU1,18*%
%TO.N,P002*%
X276280000Y-66970001D03*
%TO.P,MCU1,19*%
%TO.N,P029*%
X276280000Y-64430001D03*
%TO.P,MCU1,20*%
%TO.N,P031*%
X276280000Y-61890001D03*
%TO.P,MCU1,21*%
%TO.N,VCC*%
X276280004Y-59350001D03*
%TO.P,MCU1,22*%
%TO.N,RST*%
X276280000Y-56810001D03*
%TO.P,MCU1,23*%
%TO.N,GND*%
X276280000Y-54270001D03*
%TO.P,MCU1,24*%
%TO.N,RAW*%
X276280000Y-51730001D03*
%TO.P,MCU1,31*%
%TO.N,P101*%
X278820002Y-74590000D03*
%TO.P,MCU1,32*%
%TO.N,P102*%
X281360000Y-74590001D03*
%TO.P,MCU1,33*%
%TO.N,P107*%
X283900000Y-74590001D03*
%TD*%
D11*
%TO.P,D4,1*%
%TO.N,P009*%
X188089998Y-107700000D03*
D12*
X190249998Y-107699998D03*
%TO.P,D4,2*%
%TO.N,second_bottom*%
X193549998Y-107700002D03*
D13*
X195709998Y-107700000D03*
%TD*%
D11*
%TO.P,D20,1*%
%TO.N,P106*%
X236590004Y-116700001D03*
D12*
X238750004Y-116699999D03*
%TO.P,D20,2*%
%TO.N,second_only*%
X242050004Y-116700003D03*
D13*
X244210004Y-116700001D03*
%TD*%
D14*
%TO.P,S4,1*%
%TO.N,P113*%
X185625005Y-96750002D03*
%TO.P,S4,2*%
%TO.N,second_bottom*%
X197175005Y-98950002D03*
%TD*%
D11*
%TO.P,D5,1*%
%TO.N,P010*%
X188090008Y-90200002D03*
D12*
X190250008Y-90200000D03*
%TO.P,D5,2*%
%TO.N,second_home*%
X193550008Y-90200004D03*
D13*
X195710008Y-90200002D03*
%TD*%
D14*
%TO.P,S5,1*%
%TO.N,P113*%
X185625004Y-79250000D03*
%TO.P,S5,2*%
%TO.N,second_home*%
X197175004Y-81450000D03*
%TD*%
D10*
%TO.P,T1,*%
%TO.N,*%
X19401796Y-90201793D03*
X19401796Y-87201793D03*
%TD*%
D14*
%TO.P,S19,1*%
%TO.N,P115*%
X91626796Y-106751793D03*
%TO.P,S19,2*%
%TO.N,mirror_first_only*%
X103176796Y-108951793D03*
%TD*%
D11*
%TO.P,D7,1*%
%TO.N,P009*%
X105591795Y-96701795D03*
D12*
X107751795Y-96701796D03*
%TO.P,D7,2*%
%TO.N,mirror_third_bottom*%
X111051795Y-96701794D03*
D13*
X113211795Y-96701795D03*
%TD*%
D14*
%TO.P,S15,1*%
%TO.N,P029*%
X66126795Y-51751794D03*
%TO.P,S15,2*%
%TO.N,mirror_fifth_top*%
X77676795Y-53951794D03*
%TD*%
D11*
%TO.P,D3,1*%
%TO.N,P111*%
X142591795Y-74701795D03*
D12*
X144751795Y-74701796D03*
%TO.P,D3,2*%
%TO.N,mirror_first_top*%
X148051795Y-74701794D03*
D13*
X150211795Y-74701795D03*
%TD*%
D11*
%TO.P,D12,1*%
%TO.N,P111*%
X87091797Y-56701795D03*
D12*
X89251797Y-56701796D03*
%TO.P,D12,2*%
%TO.N,mirror_fourth_top*%
X92551797Y-56701794D03*
D13*
X94711797Y-56701795D03*
%TD*%
D24*
%TO.P,S21,1*%
%TO.N,P029*%
X52217241Y-109110450D03*
%TO.P,S21,2*%
%TO.N,mirror_third_only*%
X63973796Y-109271390D03*
%TD*%
D11*
%TO.P,D18,1*%
%TO.N,P111*%
X50091796Y-64701795D03*
D12*
X52251796Y-64701796D03*
%TO.P,D18,2*%
%TO.N,mirror_sixth_top*%
X55551796Y-64701794D03*
D13*
X57711796Y-64701795D03*
%TD*%
D14*
%TO.P,S2,1*%
%TO.N,P104*%
X140126796Y-81251795D03*
%TO.P,S2,2*%
%TO.N,mirror_first_home*%
X151676796Y-83451795D03*
%TD*%
%TO.P,S6,1*%
%TO.N,P113*%
X121626796Y-61751794D03*
%TO.P,S6,2*%
%TO.N,mirror_second_top*%
X133176796Y-63951794D03*
%TD*%
D11*
%TO.P,D2,1*%
%TO.N,P010*%
X142591797Y-92201794D03*
D12*
X144751797Y-92201795D03*
%TO.P,D2,2*%
%TO.N,mirror_first_home*%
X148051797Y-92201793D03*
D13*
X150211797Y-92201794D03*
%TD*%
D11*
%TO.P,D17,1*%
%TO.N,P010*%
X50091797Y-82201793D03*
D12*
X52251797Y-82201794D03*
%TO.P,D17,2*%
%TO.N,mirror_sixth_home*%
X55551797Y-82201792D03*
D13*
X57711797Y-82201793D03*
%TD*%
D14*
%TO.P,S8,1*%
%TO.N,P115*%
X103126796Y-68251794D03*
%TO.P,S8,2*%
%TO.N,mirror_third_home*%
X114676796Y-70451794D03*
%TD*%
D11*
%TO.P,D15,1*%
%TO.N,P111*%
X68591796Y-62701795D03*
D12*
X70751796Y-62701796D03*
%TO.P,D15,2*%
%TO.N,mirror_fifth_top*%
X74051796Y-62701794D03*
D13*
X76211796Y-62701795D03*
%TD*%
D11*
%TO.P,D9,1*%
%TO.N,P111*%
X105591796Y-61701795D03*
D12*
X107751796Y-61701796D03*
%TO.P,D9,2*%
%TO.N,mirror_third_top*%
X111051796Y-61701794D03*
D13*
X113211796Y-61701795D03*
%TD*%
D11*
%TO.P,D16,1*%
%TO.N,P009*%
X50091796Y-99701796D03*
D12*
X52251796Y-99701797D03*
%TO.P,D16,2*%
%TO.N,mirror_sixth_bottom*%
X55551796Y-99701795D03*
D13*
X57711796Y-99701796D03*
%TD*%
D14*
%TO.P,S1,1*%
%TO.N,P104*%
X140126797Y-98751794D03*
%TO.P,S1,2*%
%TO.N,mirror_first_bottom*%
X151676797Y-100951794D03*
%TD*%
%TO.P,S16,1*%
%TO.N,P031*%
X47626796Y-88751795D03*
%TO.P,S16,2*%
%TO.N,mirror_sixth_bottom*%
X59176796Y-90951795D03*
%TD*%
%TO.P,S14,1*%
%TO.N,P029*%
X66126796Y-69251795D03*
%TO.P,S14,2*%
%TO.N,mirror_fifth_home*%
X77676796Y-71451795D03*
%TD*%
%TO.P,S11,1*%
%TO.N,P002*%
X84626796Y-63251794D03*
%TO.P,S11,2*%
%TO.N,mirror_fourth_home*%
X96176796Y-65451794D03*
%TD*%
%TO.P,S10,1*%
%TO.N,P002*%
X84626797Y-80751795D03*
%TO.P,S10,2*%
%TO.N,mirror_fourth_bottom*%
X96176797Y-82951795D03*
%TD*%
D11*
%TO.P,D1,1*%
%TO.N,P009*%
X142591796Y-109701796D03*
D12*
X144751796Y-109701797D03*
%TO.P,D1,2*%
%TO.N,mirror_first_bottom*%
X148051796Y-109701795D03*
D13*
X150211796Y-109701796D03*
%TD*%
D14*
%TO.P,S7,1*%
%TO.N,P115*%
X103126797Y-85751794D03*
%TO.P,S7,2*%
%TO.N,mirror_third_bottom*%
X114676797Y-87951794D03*
%TD*%
%TO.P,S13,1*%
%TO.N,P029*%
X66126796Y-86751794D03*
%TO.P,S13,2*%
%TO.N,mirror_fifth_bottom*%
X77676796Y-88951794D03*
%TD*%
%TO.P,S9,1*%
%TO.N,P115*%
X103126797Y-50751794D03*
%TO.P,S9,2*%
%TO.N,mirror_third_top*%
X114676797Y-52951794D03*
%TD*%
%TO.P,S17,1*%
%TO.N,P031*%
X47626796Y-71251795D03*
%TO.P,S17,2*%
%TO.N,mirror_sixth_home*%
X59176796Y-73451795D03*
%TD*%
%TO.P,S18,1*%
%TO.N,P031*%
X47626796Y-53751794D03*
%TO.P,S18,2*%
%TO.N,mirror_sixth_top*%
X59176796Y-55951794D03*
%TD*%
D11*
%TO.P,D4,1*%
%TO.N,P009*%
X124091796Y-107701795D03*
D12*
X126251796Y-107701796D03*
%TO.P,D4,2*%
%TO.N,mirror_second_bottom*%
X129551796Y-107701794D03*
D13*
X131711796Y-107701795D03*
%TD*%
D14*
%TO.P,S3,1*%
%TO.N,P104*%
X140126795Y-63751794D03*
%TO.P,S3,2*%
%TO.N,mirror_first_top*%
X151676795Y-65951794D03*
%TD*%
D25*
%TO.P,D21,1*%
%TO.N,P106*%
X56546238Y-119466053D03*
D26*
X58673424Y-119090971D03*
%TO.P,D21,2*%
%TO.N,mirror_third_only*%
X61923290Y-118517935D03*
D13*
X64050476Y-118142853D03*
%TD*%
D11*
%TO.P,D5,1*%
%TO.N,P010*%
X124091794Y-90201795D03*
D12*
X126251794Y-90201796D03*
%TO.P,D5,2*%
%TO.N,mirror_second_home*%
X129551794Y-90201794D03*
D13*
X131711794Y-90201795D03*
%TD*%
D11*
%TO.P,D13,1*%
%TO.N,P009*%
X68591797Y-97701796D03*
D12*
X70751797Y-97701797D03*
%TO.P,D13,2*%
%TO.N,mirror_fifth_bottom*%
X74051797Y-97701795D03*
D13*
X76211797Y-97701796D03*
%TD*%
D27*
%TO.P,D22,1*%
%TO.N,P106*%
X38443683Y-126480349D03*
D28*
X40473419Y-125741584D03*
%TO.P,D22,2*%
%TO.N,mirror_fourth_only*%
X43574405Y-124612920D03*
D13*
X45604141Y-123874155D03*
%TD*%
D14*
%TO.P,S5,1*%
%TO.N,P113*%
X121626796Y-79251794D03*
%TO.P,S5,2*%
%TO.N,mirror_second_home*%
X133176796Y-81451794D03*
%TD*%
D29*
%TO.P,S22,1*%
%TO.N,P031*%
X32382221Y-117033794D03*
%TO.P,S22,2*%
%TO.N,mirror_fourth_only*%
X43988115Y-115150785D03*
%TD*%
D11*
%TO.P,D6,1*%
%TO.N,P111*%
X124091797Y-72701795D03*
D12*
X126251797Y-72701796D03*
%TO.P,D6,2*%
%TO.N,mirror_second_top*%
X129551797Y-72701794D03*
D13*
X131711797Y-72701795D03*
%TD*%
D23*
%TO.P,MCU1,1*%
%TO.N,P006*%
X22281796Y-51731796D03*
%TO.P,MCU1,2*%
%TO.N,P008*%
X22281796Y-54271795D03*
%TO.P,MCU1,3*%
%TO.N,GND*%
X22281796Y-56811795D03*
%TO.P,MCU1,4*%
X22281796Y-59351795D03*
%TO.P,MCU1,5*%
%TO.N,P017*%
X22281796Y-61891795D03*
%TO.P,MCU1,6*%
%TO.N,P020*%
X22281796Y-64431795D03*
%TO.P,MCU1,7*%
%TO.N,P022*%
X22281796Y-66971795D03*
%TO.P,MCU1,8*%
%TO.N,P024*%
X22281796Y-69511795D03*
%TO.P,MCU1,9*%
%TO.N,P100*%
X22281797Y-72051795D03*
%TO.P,MCU1,10*%
%TO.N,P011*%
X22281796Y-74591795D03*
%TO.P,MCU1,11*%
%TO.N,P104*%
X22281796Y-77131795D03*
%TO.P,MCU1,12*%
%TO.N,P106*%
X22281796Y-79671795D03*
%TO.P,MCU1,13*%
%TO.N,P009*%
X37521796Y-79671794D03*
%TO.P,MCU1,14*%
%TO.N,P010*%
X37521796Y-77131795D03*
%TO.P,MCU1,15*%
%TO.N,P111*%
X37521796Y-74591795D03*
%TO.P,MCU1,16*%
%TO.N,P113*%
X37521796Y-72051795D03*
%TO.P,MCU1,17*%
%TO.N,P115*%
X37521796Y-69511795D03*
%TO.P,MCU1,18*%
%TO.N,P002*%
X37521796Y-66971795D03*
%TO.P,MCU1,19*%
%TO.N,P029*%
X37521796Y-64431795D03*
%TO.P,MCU1,20*%
%TO.N,P031*%
X37521796Y-61891795D03*
%TO.P,MCU1,21*%
%TO.N,VCC*%
X37521795Y-59351795D03*
%TO.P,MCU1,22*%
%TO.N,RST*%
X37521796Y-56811795D03*
%TO.P,MCU1,23*%
%TO.N,GND*%
X37521796Y-54271795D03*
%TO.P,MCU1,24*%
%TO.N,RAW*%
X37521796Y-51731795D03*
%TO.P,MCU1,31*%
%TO.N,P101*%
X24821796Y-74591795D03*
%TO.P,MCU1,32*%
%TO.N,P102*%
X27361796Y-74591795D03*
%TO.P,MCU1,33*%
%TO.N,P107*%
X29901796Y-74591795D03*
%TD*%
D11*
%TO.P,D20,1*%
%TO.N,P106*%
X75591796Y-116701794D03*
D12*
X77751796Y-116701795D03*
%TO.P,D20,2*%
%TO.N,mirror_second_only*%
X81051796Y-116701793D03*
D13*
X83211796Y-116701794D03*
%TD*%
D14*
%TO.P,S12,1*%
%TO.N,P002*%
X84626797Y-45751795D03*
%TO.P,S12,2*%
%TO.N,mirror_fourth_top*%
X96176797Y-47951795D03*
%TD*%
D11*
%TO.P,D14,1*%
%TO.N,P010*%
X68591795Y-80201794D03*
D12*
X70751795Y-80201795D03*
%TO.P,D14,2*%
%TO.N,mirror_fifth_home*%
X74051795Y-80201793D03*
D13*
X76211795Y-80201794D03*
%TD*%
D11*
%TO.P,D10,1*%
%TO.N,P009*%
X87091795Y-91701795D03*
D12*
X89251795Y-91701796D03*
%TO.P,D10,2*%
%TO.N,mirror_fourth_bottom*%
X92551795Y-91701794D03*
D13*
X94711795Y-91701795D03*
%TD*%
D14*
%TO.P,S4,1*%
%TO.N,P113*%
X121626794Y-96751796D03*
%TO.P,S4,2*%
%TO.N,mirror_second_bottom*%
X133176794Y-98951796D03*
%TD*%
D11*
%TO.P,D19,1*%
%TO.N,P106*%
X94091794Y-117701795D03*
D12*
X96251794Y-117701796D03*
%TO.P,D19,2*%
%TO.N,mirror_first_only*%
X99551794Y-117701794D03*
D13*
X101711794Y-117701795D03*
%TD*%
D11*
%TO.P,D8,1*%
%TO.N,P010*%
X105591797Y-79201794D03*
D12*
X107751797Y-79201795D03*
%TO.P,D8,2*%
%TO.N,mirror_third_home*%
X111051797Y-79201793D03*
D13*
X113211797Y-79201794D03*
%TD*%
D14*
%TO.P,S20,1*%
%TO.N,P002*%
X73126796Y-105751794D03*
%TO.P,S20,2*%
%TO.N,mirror_second_only*%
X84676796Y-107951794D03*
%TD*%
D11*
%TO.P,D11,1*%
%TO.N,P010*%
X87091796Y-74201794D03*
D12*
X89251796Y-74201795D03*
%TO.P,D11,2*%
%TO.N,mirror_fourth_home*%
X92551796Y-74201793D03*
D13*
X94711796Y-74201794D03*
%TD*%
D19*
%TO.P,JST1,1*%
%TO.N,pos*%
X26901796Y-104701794D03*
D20*
%TO.P,JST1,2*%
%TO.N,GND*%
X28901796Y-104701794D03*
%TD*%
D30*
%TO.N,P104*%
X167125004Y-63513535D02*
X173144244Y-57494295D01*
X238144244Y-44894295D02*
X239344244Y-46094295D01*
X199344244Y-45094295D02*
X212144244Y-45094295D01*
X167125002Y-81249998D02*
X167125006Y-82018481D01*
X167125005Y-82018483D02*
X167125006Y-98750000D01*
X167125003Y-63750002D02*
X167125002Y-81249998D01*
X192344244Y-57494295D02*
X195744244Y-54094295D01*
X216944244Y-40294295D02*
X235075321Y-40294295D01*
X195744244Y-48694295D02*
X199344244Y-45094295D01*
X212144244Y-45094295D02*
X216944244Y-40294295D01*
X195744244Y-54094295D02*
X195744244Y-48694295D01*
X238144244Y-43363218D02*
X238144244Y-44894295D01*
X235075321Y-40294295D02*
X238144244Y-43363218D01*
X275525169Y-46094295D02*
X279744244Y-50313370D01*
X167125006Y-82018481D02*
X167125005Y-82018483D01*
X279744244Y-50313370D02*
X279744244Y-65354245D01*
X239344244Y-46094295D02*
X275525169Y-46094295D01*
X167125004Y-63750000D02*
X167125004Y-63513535D01*
X173144244Y-57494295D02*
X192344244Y-57494295D01*
X279744244Y-65354245D02*
X291520000Y-77130001D01*
%TO.N,first_bottom*%
X178675003Y-108234996D02*
X177210002Y-109699999D01*
X175050005Y-109699999D02*
X177210003Y-109700001D01*
X177210003Y-109700001D02*
X177210002Y-109699999D01*
X178675005Y-100950000D02*
X178675003Y-108234996D01*
%TO.N,first_home*%
X175050001Y-92200000D02*
X177210005Y-92199998D01*
X177210005Y-92199998D02*
X177210003Y-92199996D01*
X178675005Y-90734996D02*
X177210003Y-92199996D01*
X178675005Y-83450000D02*
X178675005Y-90734996D01*
%TO.N,first_top*%
X178675007Y-73235000D02*
X177210003Y-74699997D01*
X177210004Y-74699999D02*
X177210003Y-74699997D01*
X178675002Y-65949999D02*
X178675007Y-73235000D01*
X175050004Y-74700000D02*
X177210004Y-74699999D01*
%TO.N,P113*%
X185625004Y-79249999D02*
X185625004Y-79249999D01*
X279281304Y-50486826D02*
X279281304Y-69048697D01*
X234888925Y-40744295D02*
X237691585Y-43546955D01*
X279281304Y-69048697D02*
X276280000Y-72050001D01*
X217130640Y-40744295D02*
X234888925Y-40744295D01*
X237691585Y-43546955D02*
X237691585Y-45078032D01*
X239157848Y-46544295D02*
X275338773Y-46544295D01*
X185625001Y-61750000D02*
X185625004Y-79249999D01*
X275338773Y-46544295D02*
X279281304Y-50486826D01*
X237691585Y-45078032D02*
X239157848Y-46544295D01*
X196194244Y-48880691D02*
X199530640Y-45544295D01*
X199530640Y-45544295D02*
X212330640Y-45544295D01*
X192530640Y-57944295D02*
X196194244Y-54280691D01*
X185625005Y-61750001D02*
X189430711Y-57944295D01*
X189430711Y-57944295D02*
X192530640Y-57944295D01*
X212330640Y-45544295D02*
X217130640Y-40744295D01*
X185625001Y-96750001D02*
X185625004Y-79249999D01*
X196194244Y-54280691D02*
X196194244Y-48880691D01*
%TO.N,second_bottom*%
X197175005Y-106234995D02*
X195710002Y-107699998D01*
X195710001Y-107699999D02*
X195710002Y-107699998D01*
X197175004Y-98950000D02*
X197175005Y-106234995D01*
X193550002Y-107699999D02*
X195710001Y-107699999D01*
%TO.N,second_home*%
X193550006Y-90199999D02*
X193550005Y-90199999D01*
X197175004Y-88734997D02*
X195710002Y-90199999D01*
X197175008Y-81450000D02*
X197175004Y-88734997D01*
X195710002Y-90199999D02*
X193550006Y-90199999D01*
%TO.N,second_top*%
X197175006Y-63950001D02*
X197175004Y-71234998D01*
X197175004Y-71234998D02*
X195710007Y-72699998D01*
X195710006Y-72699998D02*
X195710007Y-72699998D01*
X193550007Y-72700001D02*
X195710006Y-72699998D01*
%TO.N,P115*%
X204125005Y-85750001D02*
X204125005Y-96663001D01*
X204125004Y-68673933D02*
X204125005Y-85750001D01*
X204125002Y-68250001D02*
X204125002Y-68673930D01*
X278831304Y-66958697D02*
X276280000Y-69510001D01*
X212517036Y-45994295D02*
X217317036Y-41194295D01*
X278831304Y-50673222D02*
X278831304Y-66958697D01*
X204125001Y-50750000D02*
X204125000Y-68249998D01*
X204125002Y-68673930D02*
X204125004Y-68673933D01*
X217317036Y-41194295D02*
X234702529Y-41194295D01*
X214212002Y-106749999D02*
X215625006Y-106749999D01*
X237241585Y-43733351D02*
X237241585Y-45264428D01*
X204125000Y-50750000D02*
X208880705Y-45994295D01*
X237241585Y-45264428D02*
X238971452Y-46994295D01*
X204125005Y-96663001D02*
X214212002Y-106749999D01*
X204125000Y-68249998D02*
X204125002Y-68250001D01*
X234702529Y-41194295D02*
X237241585Y-43733351D01*
X208880705Y-45994295D02*
X212517036Y-45994295D01*
X238971452Y-46994295D02*
X275152377Y-46994295D01*
X275152377Y-46994295D02*
X278831304Y-50673222D01*
%TO.N,third_bottom*%
X212050003Y-96700000D02*
X214210004Y-96700002D01*
X215675006Y-95235001D02*
X214210007Y-96700003D01*
X214210004Y-96700002D02*
X214210007Y-96700003D01*
X215675002Y-87949999D02*
X215675006Y-95235001D01*
%TO.N,third_home*%
X214210003Y-79200000D02*
X214210003Y-79199999D01*
X215675003Y-70450001D02*
X215675003Y-77734998D01*
X215675003Y-77734998D02*
X214210003Y-79199999D01*
X212050006Y-79200000D02*
X214210003Y-79200000D01*
%TO.N,third_top*%
X215675002Y-52949999D02*
X215675003Y-60234997D01*
X214210004Y-61699999D02*
X214210004Y-61699997D01*
X212050001Y-61700000D02*
X214210004Y-61699999D01*
X215675003Y-60234997D02*
X214210004Y-61699997D01*
%TO.N,P002*%
X222625002Y-63249994D02*
X222625003Y-63249997D01*
X278381304Y-50859618D02*
X278381304Y-64868697D01*
X222625003Y-80749999D02*
X222625001Y-94249997D01*
X234516133Y-41644295D02*
X236791585Y-43919747D01*
X222625001Y-63796777D02*
X222625003Y-80749999D01*
X278381304Y-64868697D02*
X276280000Y-66970001D01*
X236791585Y-43919747D02*
X236791585Y-45450824D01*
X222625002Y-45749998D02*
X226730705Y-41644295D01*
X222625003Y-63249997D02*
X222625003Y-63796774D01*
X236791585Y-45450824D02*
X238785056Y-47444295D01*
X238785056Y-47444295D02*
X274965981Y-47444295D01*
X222625002Y-45749998D02*
X222625002Y-63249994D01*
X222625001Y-94249997D02*
X234125005Y-105749999D01*
X274965981Y-47444295D02*
X278381304Y-50859618D01*
X222625003Y-63796774D02*
X222625001Y-63796777D01*
X226730705Y-41644295D02*
X234516133Y-41644295D01*
%TO.N,fourth_bottom*%
X230550003Y-91700002D02*
X232709998Y-91700002D01*
X232709998Y-91700002D02*
X232710002Y-91700001D01*
X234175001Y-82950000D02*
X234175001Y-90235001D01*
X234175001Y-90235001D02*
X232710002Y-91700001D01*
%TO.N,fourth_home*%
X230550006Y-74200000D02*
X232710001Y-74199998D01*
X232710001Y-74199998D02*
X232710003Y-74199998D01*
X234175004Y-72735000D02*
X232710003Y-74199998D01*
X234175008Y-65449999D02*
X234175004Y-72735000D01*
%TO.N,fourth_top*%
X230550007Y-56700003D02*
X232710000Y-56700001D01*
X234174999Y-47949997D02*
X234175002Y-55235001D01*
X234175002Y-55235001D02*
X232710002Y-56700002D01*
X232710000Y-56700001D02*
X232710002Y-56700002D01*
%TO.N,P029*%
X241125000Y-69250001D02*
X241124999Y-86749996D01*
X277931304Y-51046014D02*
X277931304Y-62778697D01*
X251433266Y-107971259D02*
X255134067Y-107971260D01*
X244980714Y-47894295D02*
X274779585Y-47894295D01*
X241125002Y-86749999D02*
X241125003Y-97662998D01*
X241125007Y-51750001D02*
X241125006Y-69249994D01*
X241125003Y-97662998D02*
X251433266Y-107971259D01*
X241125007Y-51750002D02*
X244980714Y-47894295D01*
X277931304Y-62778697D02*
X276280000Y-64430001D01*
X241124999Y-86749996D02*
X241125002Y-86749999D01*
X241125006Y-69249994D02*
X241125000Y-69250001D01*
X274779585Y-47894295D02*
X277931304Y-51046014D01*
%TO.N,fifth_bottom*%
X251210003Y-97699999D02*
X251210001Y-97699998D01*
X249050004Y-97700000D02*
X251210003Y-97699999D01*
X252675002Y-96235000D02*
X251210001Y-97699998D01*
X252675002Y-88949998D02*
X252675002Y-96235000D01*
%TO.N,fifth_home*%
X252674998Y-78735002D02*
X251210004Y-80200000D01*
X249050000Y-80200000D02*
X251210005Y-80200000D01*
X251210005Y-80200000D02*
X251210004Y-80200000D01*
X252674999Y-71449999D02*
X252674998Y-78735002D01*
%TO.N,fifth_top*%
X249050005Y-62700000D02*
X251210001Y-62700000D01*
X251210001Y-62700000D02*
X251210003Y-62699999D01*
X252675006Y-53950002D02*
X252675006Y-61234995D01*
X252675006Y-61234995D02*
X251210003Y-62699999D01*
%TO.N,P031*%
X259625003Y-71249999D02*
X259625004Y-71250000D01*
X277481304Y-51232410D02*
X277481304Y-60688697D01*
X259625001Y-99662997D02*
X274753773Y-114791768D01*
X274753773Y-114791768D02*
X275264591Y-114791767D01*
X274593189Y-48344295D02*
X277481304Y-51232410D01*
X265030708Y-48344295D02*
X274593189Y-48344295D01*
X277481304Y-60688697D02*
X276280000Y-61890001D01*
X259625004Y-71250000D02*
X259625004Y-88749996D01*
X259625003Y-53750000D02*
X265030708Y-48344295D01*
X259625004Y-88749996D02*
X259625003Y-88749997D01*
X259625003Y-88749997D02*
X259625001Y-99662997D01*
X259625003Y-53750000D02*
X259625003Y-71249999D01*
%TO.N,sixth_bottom*%
X271175002Y-98235001D02*
X269710006Y-99699998D01*
X269710006Y-99699999D02*
X269710006Y-99699998D01*
X271175000Y-90950000D02*
X271175002Y-98235001D01*
X267550003Y-99700002D02*
X269710006Y-99699999D01*
%TO.N,sixth_home*%
X267550005Y-82200002D02*
X269710002Y-82200000D01*
X271175003Y-80735002D02*
X269710002Y-82199999D01*
X269710002Y-82200000D02*
X269710002Y-82199999D01*
X271175004Y-73449999D02*
X271175003Y-80735002D01*
%TO.N,sixth_top*%
X269710003Y-64700002D02*
X267550001Y-64700002D01*
X271175005Y-63235001D02*
X269710003Y-64700002D01*
X271175004Y-55949999D02*
X271175005Y-63235001D01*
X267550001Y-64700002D02*
X267550001Y-64700003D01*
%TO.N,first_only*%
X227175004Y-108950000D02*
X227175006Y-116235000D01*
X225710001Y-117700000D02*
X225710002Y-117699998D01*
X227175006Y-116235000D02*
X225710002Y-117699998D01*
X223550005Y-117700000D02*
X225710001Y-117700000D01*
%TO.N,second_only*%
X245675004Y-107950000D02*
X245675007Y-115235000D01*
X244210004Y-116700002D02*
X244210005Y-116700002D01*
X242050004Y-116700000D02*
X244210004Y-116700002D01*
X245675007Y-115235000D02*
X244210005Y-116700002D01*
%TO.N,third_only*%
X266126571Y-112143475D02*
X264861544Y-119317799D01*
X261037226Y-120131066D02*
X261037225Y-120131064D01*
X264861544Y-119317799D02*
X263164410Y-120506146D01*
X263164410Y-120506149D02*
X261037226Y-120131066D01*
%TO.N,fourth_only*%
X280996270Y-128530677D02*
X278966534Y-127791913D01*
X285365596Y-120809425D02*
X282873978Y-127655087D01*
X278966534Y-127791913D02*
X278966537Y-127791909D01*
X282873978Y-127655087D02*
X280996270Y-128530677D01*
%TO.N,P009*%
X225090004Y-91700001D02*
X227250003Y-91700000D01*
X245750002Y-97700000D02*
X245750005Y-97699998D01*
X171750002Y-109699999D02*
X171750003Y-109699999D01*
X227250003Y-91700000D02*
X227250006Y-91700000D01*
X188089999Y-107700000D02*
X190250003Y-107699997D01*
X190250003Y-107699997D02*
X190250003Y-107699996D01*
X243590007Y-97700000D02*
X245750002Y-97700000D01*
X169590008Y-109699999D02*
X171750002Y-109699999D01*
X264250006Y-99700000D02*
X264250007Y-99699999D01*
X262090003Y-99699999D02*
X264250006Y-99700000D01*
X206590002Y-96700000D02*
X208750002Y-96700001D01*
X208750002Y-96700001D02*
X208750004Y-96699998D01*
%TO.N,P010*%
X262090006Y-82200001D02*
X264250004Y-82199999D01*
X264250004Y-82199999D02*
X264250005Y-82199998D01*
X227250001Y-74199999D02*
X227250001Y-74199998D01*
X188090007Y-90199995D02*
X188090006Y-90199996D01*
X206590005Y-79199996D02*
X208750003Y-79199997D01*
X169590002Y-92199998D02*
X171750002Y-92199999D01*
X208750003Y-79199997D02*
X208750004Y-79199997D01*
X171750002Y-92199999D02*
X171750003Y-92199998D01*
X225090004Y-74200000D02*
X227250001Y-74199999D01*
X243590002Y-80200001D02*
X245750005Y-80199997D01*
X190250002Y-90199997D02*
X188090007Y-90199995D01*
X245750005Y-80199997D02*
X245750004Y-80199996D01*
%TO.N,P111*%
X190250003Y-72699999D02*
X190250004Y-72699998D01*
X225090001Y-56700000D02*
X227250004Y-56699999D01*
X245750002Y-62699997D02*
X245750001Y-62699997D01*
X188090001Y-72699998D02*
X190250003Y-72699999D01*
X264250005Y-64700000D02*
X262090003Y-64699999D01*
X171750003Y-74699999D02*
X171750004Y-74699997D01*
X206590005Y-61699996D02*
X208750004Y-61699999D01*
X169590004Y-74699998D02*
X171750003Y-74699999D01*
X208750004Y-61699999D02*
X208750005Y-61700000D01*
X243590003Y-62699998D02*
X245750002Y-62699997D01*
X262090003Y-64699999D02*
X262090002Y-64700001D01*
X227250004Y-56699999D02*
X227250003Y-56699998D01*
%TO.N,P106*%
X257787356Y-119558027D02*
X255660176Y-119182946D01*
X220250003Y-117700000D02*
X220250002Y-117699998D01*
X255660176Y-119182946D02*
X255660174Y-119182944D01*
X238750004Y-116700001D02*
X238750006Y-116700001D01*
X273835813Y-125924481D02*
X273835815Y-125924478D01*
X218090004Y-117699996D02*
X220250003Y-117700000D01*
X236590007Y-116700000D02*
X238750004Y-116700001D01*
X275865549Y-126663247D02*
X273835813Y-125924481D01*
%TO.N,P104*%
X121636618Y-57221186D02*
X118236618Y-53821186D01*
X29726009Y-77131795D02*
X22281796Y-77131795D01*
X96836618Y-40021186D02*
X79436618Y-40021186D01*
X79436618Y-40021186D02*
X73036618Y-46421186D01*
X133596187Y-57221186D02*
X121636618Y-57221186D01*
X140126795Y-81251794D02*
X140126796Y-81251795D01*
X140126796Y-98751793D02*
X140126797Y-98751794D01*
X118236618Y-53821186D02*
X118236618Y-48821186D01*
X140126795Y-63751794D02*
X133596187Y-57221186D01*
X140126795Y-63751794D02*
X140126795Y-81251794D01*
X34070496Y-72787308D02*
X29726009Y-77131795D01*
X118236618Y-48821186D02*
X114636618Y-45221186D01*
X114636618Y-45221186D02*
X102036618Y-45221186D01*
X73036618Y-46421186D02*
X37727430Y-46421186D01*
X37727430Y-46421186D02*
X34070496Y-50078120D01*
X102036618Y-45221186D02*
X96836618Y-40021186D01*
X140126796Y-81251795D02*
X140126796Y-98751793D01*
X34070496Y-50078120D02*
X34070496Y-72787308D01*
%TO.N,mirror_first_bottom*%
X151676796Y-100951795D02*
X151676796Y-108236795D01*
X148051797Y-109701794D02*
X150211797Y-109701796D01*
X151676796Y-108236795D02*
X150211797Y-109701796D01*
%TO.N,mirror_first_home*%
X150211797Y-92201794D02*
X148051796Y-92201794D01*
X151676796Y-90736796D02*
X150211797Y-92201794D01*
X151676796Y-83451796D02*
X151676796Y-90736796D01*
%TO.N,mirror_first_top*%
X151676795Y-73236795D02*
X150211796Y-74701795D01*
X151676795Y-65951795D02*
X151676795Y-73236795D01*
%TO.N,P113*%
X79623014Y-40471186D02*
X73223014Y-46871186D01*
X117786618Y-49007582D02*
X114450222Y-45671186D01*
X121626796Y-61751794D02*
X121626796Y-79251794D01*
X121626796Y-79611364D02*
X121626794Y-79611366D01*
X114450222Y-45671186D02*
X101850222Y-45671186D01*
X34520496Y-50264516D02*
X34520496Y-69050495D01*
X96650222Y-40471186D02*
X79623014Y-40471186D01*
X121626794Y-79611366D02*
X121626794Y-96751796D01*
X121626796Y-79251794D02*
X121626796Y-79611364D01*
X37913826Y-46871186D02*
X34520496Y-50264516D01*
X73223014Y-46871186D02*
X37913826Y-46871186D01*
X34520496Y-69050495D02*
X37521796Y-72051795D01*
X121626796Y-61751794D02*
X117786618Y-57911616D01*
X117786618Y-57911616D02*
X117786618Y-49007582D01*
X101850222Y-45671186D02*
X96650222Y-40471186D01*
%TO.N,mirror_second_bottom*%
X129551794Y-107701794D02*
X131711797Y-107701795D01*
X133176797Y-98951796D02*
X133176796Y-106236796D01*
X133176796Y-106236796D02*
X131711797Y-107701795D01*
%TO.N,mirror_second_home*%
X131711794Y-90201795D02*
X129551796Y-90201795D01*
X133176795Y-81451794D02*
X133176797Y-88736796D01*
X133176797Y-88736796D02*
X131711794Y-90201795D01*
%TO.N,mirror_second_top*%
X133176796Y-71236794D02*
X131711796Y-72701795D01*
X129551795Y-72701795D02*
X131711796Y-72701795D01*
X133176797Y-63951795D02*
X133176796Y-71236794D01*
%TO.N,P115*%
X103126797Y-68531009D02*
X103126797Y-85751794D01*
X103126797Y-47584157D02*
X96463826Y-40921186D01*
X103126797Y-85751794D02*
X103126797Y-95251792D01*
X34970496Y-50450912D02*
X34970496Y-66960495D01*
X103126797Y-50751794D02*
X103126797Y-47584157D01*
X73409410Y-47321186D02*
X38100222Y-47321186D01*
X103126796Y-68531008D02*
X103126797Y-68531009D01*
X103126797Y-50751794D02*
X103126797Y-68251793D01*
X103126797Y-68251793D02*
X103126796Y-68251794D01*
X79809410Y-40921186D02*
X73409410Y-47321186D01*
X96463826Y-40921186D02*
X79809410Y-40921186D01*
X103126797Y-95251792D02*
X91626796Y-106751793D01*
X103126796Y-68251794D02*
X103126796Y-68531008D01*
X34970496Y-66960495D02*
X37521796Y-69511795D01*
X38100222Y-47321186D02*
X34970496Y-50450912D01*
%TO.N,mirror_third_bottom*%
X114676796Y-87951795D02*
X114676796Y-95236794D01*
X111051795Y-96701793D02*
X113211796Y-96701796D01*
X114676796Y-95236794D02*
X113211796Y-96701796D01*
%TO.N,mirror_third_home*%
X114676796Y-77736796D02*
X113211795Y-79201795D01*
X113211795Y-79201795D02*
X111051796Y-79201794D01*
X114676795Y-70451795D02*
X114676796Y-77736796D01*
%TO.N,mirror_third_top*%
X114676797Y-52951794D02*
X114676796Y-60236794D01*
X111051795Y-61701794D02*
X113211797Y-61701795D01*
X114676796Y-60236794D02*
X113211797Y-61701795D01*
%TO.N,P002*%
X84626796Y-80751794D02*
X84626797Y-80751795D01*
X84626797Y-45751795D02*
X84626797Y-63251793D01*
X84626796Y-63251794D02*
X84626796Y-80751794D01*
X83236618Y-41371186D02*
X79995806Y-41371186D01*
X35420496Y-64870495D02*
X37521796Y-66971795D01*
X84626797Y-80751795D02*
X84626797Y-94251793D01*
X84626797Y-42761365D02*
X83236618Y-41371186D01*
X84626797Y-63251793D02*
X84626796Y-63251794D01*
X73595806Y-47771186D02*
X38286618Y-47771186D01*
X84626797Y-45751795D02*
X84626797Y-42761365D01*
X35420496Y-50637308D02*
X35420496Y-64870495D01*
X79995806Y-41371186D02*
X73595806Y-47771186D01*
X84626797Y-94251793D02*
X73126796Y-105751794D01*
X38286618Y-47771186D02*
X35420496Y-50637308D01*
%TO.N,mirror_fourth_bottom*%
X92551795Y-91701795D02*
X94711796Y-91701794D01*
X96176796Y-82951795D02*
X96176796Y-90236795D01*
X96176796Y-90236795D02*
X94711796Y-91701794D01*
%TO.N,mirror_fourth_home*%
X96176796Y-65451794D02*
X96176797Y-72736795D01*
X96176797Y-72736795D02*
X94711795Y-74201793D01*
X94711795Y-74201793D02*
X92551796Y-74201795D01*
%TO.N,mirror_fourth_top*%
X96176795Y-55236795D02*
X94711797Y-56701796D01*
X96176796Y-47951795D02*
X96176795Y-55236795D01*
X92551796Y-56701794D02*
X94711797Y-56701796D01*
%TO.N,P029*%
X38647114Y-48271186D02*
X35870496Y-51047804D01*
X66126795Y-51751794D02*
X66126795Y-69251794D01*
X35870496Y-51047804D02*
X35870496Y-62780495D01*
X35870496Y-62780495D02*
X37521796Y-64431795D01*
X66126795Y-51751794D02*
X62646187Y-48271186D01*
X66126796Y-93093454D02*
X52217241Y-107003009D01*
X66126796Y-86751794D02*
X66126796Y-93093454D01*
X66126795Y-69251794D02*
X66126796Y-69251795D01*
X66126796Y-69251795D02*
X66126796Y-86751794D01*
X62646187Y-48271186D02*
X38647114Y-48271186D01*
X52217241Y-107003009D02*
X52217241Y-109110450D01*
%TO.N,mirror_fifth_bottom*%
X74051796Y-97701794D02*
X76211796Y-97701796D01*
X77676796Y-88951793D02*
X77676797Y-96236794D01*
X77676797Y-96236794D02*
X76211796Y-97701796D01*
%TO.N,mirror_fifth_home*%
X77676797Y-71451795D02*
X77676796Y-78736796D01*
X76211797Y-80201795D02*
X74051796Y-80201795D01*
X77676796Y-78736796D02*
X76211797Y-80201795D01*
%TO.N,mirror_fifth_top*%
X74051797Y-62701794D02*
X76211796Y-62701794D01*
X77676795Y-53951794D02*
X77676795Y-61236793D01*
X77676795Y-61236793D02*
X76211796Y-62701794D01*
%TO.N,P031*%
X45336618Y-48721186D02*
X38833510Y-48721186D01*
X32382221Y-114675583D02*
X32382221Y-117033794D01*
X47626796Y-51011364D02*
X45336618Y-48721186D01*
X47626796Y-53751794D02*
X47626796Y-51011364D01*
X47626796Y-53751794D02*
X47626796Y-71251795D01*
X36320496Y-60690495D02*
X37521796Y-61891795D01*
X36320496Y-51234200D02*
X36320496Y-60690495D01*
X47626796Y-99431008D02*
X32382221Y-114675583D01*
X47626796Y-88751795D02*
X47626796Y-99431008D01*
X38833510Y-48721186D02*
X36320496Y-51234200D01*
X47626796Y-71251795D02*
X47626796Y-88751795D01*
%TO.N,mirror_sixth_bottom*%
X59176796Y-98236793D02*
X57711797Y-99701796D01*
X59176796Y-90951793D02*
X59176796Y-98236793D01*
X55551795Y-99701795D02*
X57711797Y-99701796D01*
%TO.N,mirror_sixth_home*%
X59176796Y-73451795D02*
X59176797Y-80736795D01*
X57711796Y-82201795D02*
X55551797Y-82201794D01*
X59176797Y-80736795D02*
X57711796Y-82201795D01*
%TO.N,mirror_sixth_top*%
X59176795Y-63236794D02*
X57711796Y-64701794D01*
X55551796Y-64701794D02*
X57711796Y-64701794D01*
X59176794Y-55951793D02*
X59176795Y-63236794D01*
%TO.N,mirror_first_only*%
X103176795Y-108951794D02*
X103176797Y-116236795D01*
X101711795Y-117701795D02*
X99551796Y-117701794D01*
X103176797Y-116236795D02*
X101711795Y-117701795D01*
%TO.N,mirror_second_only*%
X84676795Y-107951794D02*
X84676796Y-115236794D01*
X83211795Y-116701795D02*
X81051797Y-116701793D01*
X84676796Y-115236794D02*
X83211795Y-116701795D01*
%TO.N,mirror_third_only*%
X64050474Y-118142852D02*
X61923291Y-118517931D01*
X63973795Y-109271389D02*
X65238824Y-116445714D01*
X65238824Y-116445714D02*
X64050474Y-118142852D01*
X61923291Y-118517931D02*
X61923289Y-118517933D01*
%TO.N,mirror_fourth_only*%
X45604141Y-123874153D02*
X43574408Y-124612915D01*
X43988116Y-115150785D02*
X46479732Y-121996443D01*
X43574408Y-124612915D02*
X43574406Y-124612918D01*
X46479732Y-121996443D02*
X45604141Y-123874153D01*
%TO.N,P009*%
X142591795Y-109701795D02*
X144751796Y-109701796D01*
X87091796Y-91701794D02*
X89251796Y-91701794D01*
X124091795Y-107701793D02*
X126251796Y-107701796D01*
X50091796Y-99701796D02*
X52251797Y-99701795D01*
X105591796Y-96701795D02*
X107751796Y-96701795D01*
X68591797Y-97701796D02*
X70751796Y-97701795D01*
%TO.N,P010*%
X70751796Y-80201795D02*
X68591795Y-80201795D01*
X52251794Y-82201795D02*
X50091797Y-82201794D01*
X89251795Y-74201795D02*
X87091797Y-74201795D01*
X107751796Y-79201795D02*
X105591796Y-79201793D01*
X126251796Y-90201795D02*
X124091797Y-90201795D01*
X144751796Y-92201795D02*
X142591795Y-92201794D01*
%TO.N,P111*%
X142591795Y-74701794D02*
X144751795Y-74701795D01*
X105591795Y-61701796D02*
X107751797Y-61701794D01*
X50091795Y-64701795D02*
X52251795Y-64701793D01*
X87091795Y-56701795D02*
X89251797Y-56701795D01*
X124091796Y-72701793D02*
X126251796Y-72701795D01*
X68591796Y-62701795D02*
X70751794Y-62701794D01*
%TO.N,P106*%
X56546242Y-119466051D02*
X56546240Y-119466053D01*
X96251795Y-117701794D02*
X94091796Y-117701794D01*
X58673423Y-119090970D02*
X56546242Y-119466051D01*
X77751795Y-116701794D02*
X75591796Y-116701794D01*
X38443685Y-126480346D02*
X38443684Y-126480348D01*
X40473419Y-125741583D02*
X38443685Y-126480346D01*
%TD*%
M02*
