%TF.GenerationSoftware,KiCad,Pcbnew,8.0.4*%
%TF.CreationDate,2024-08-22T13:40:17+01:00*%
%TF.ProjectId,TEST combine v2 left and right,54455354-2063-46f6-9d62-696e65207632,rev?*%
%TF.SameCoordinates,Original*%
%TF.FileFunction,Copper,L1,Top*%
%TF.FilePolarity,Positive*%
%FSLAX46Y46*%
G04 Gerber Fmt 4.6, Leading zero omitted, Abs format (unit mm)*
G04 Created by KiCad (PCBNEW 8.0.4) date 2024-08-22 13:40:17*
%MOMM*%
%LPD*%
G01*
G04 APERTURE LIST*
G04 Aperture macros list*
%AMRotRect*
0 Rectangle, with rotation*
0 The origin of the aperture is its center*
0 $1 length*
0 $2 width*
0 $3 Rotation angle, in degrees counterclockwise*
0 Add horizontal line*
21,1,$1,$2,0,0,$3*%
G04 Aperture macros list end*
%TA.AperFunction,SMDPad,CuDef*%
%ADD10R,0.900000X0.900000*%
%TD*%
%TA.AperFunction,WasherPad*%
%ADD11C,1.000000*%
%TD*%
%TA.AperFunction,SMDPad,CuDef*%
%ADD12R,1.250000X0.900000*%
%TD*%
%TA.AperFunction,SMDPad,CuDef*%
%ADD13R,1.100000X1.800000*%
%TD*%
%TA.AperFunction,ComponentPad*%
%ADD14R,1.778000X1.778000*%
%TD*%
%TA.AperFunction,SMDPad,CuDef*%
%ADD15R,0.900000X1.200000*%
%TD*%
%TA.AperFunction,ComponentPad*%
%ADD16C,1.905000*%
%TD*%
%TA.AperFunction,ComponentPad*%
%ADD17RotRect,1.778000X1.778000X350.000000*%
%TD*%
%TA.AperFunction,SMDPad,CuDef*%
%ADD18RotRect,0.900000X1.200000X350.000000*%
%TD*%
%TA.AperFunction,ComponentPad*%
%ADD19RotRect,1.778000X1.778000X340.000000*%
%TD*%
%TA.AperFunction,SMDPad,CuDef*%
%ADD20RotRect,0.900000X1.200000X340.000000*%
%TD*%
%TA.AperFunction,ComponentPad*%
%ADD21R,1.200000X1.700000*%
%TD*%
%TA.AperFunction,ComponentPad*%
%ADD22O,1.200000X1.700000*%
%TD*%
%TA.AperFunction,ComponentPad*%
%ADD23C,1.752600*%
%TD*%
%TA.AperFunction,ComponentPad*%
%ADD24RotRect,1.778000X1.778000X10.000000*%
%TD*%
%TA.AperFunction,SMDPad,CuDef*%
%ADD25RotRect,0.900000X1.200000X10.000000*%
%TD*%
%TA.AperFunction,ComponentPad*%
%ADD26RotRect,1.778000X1.778000X20.000000*%
%TD*%
%TA.AperFunction,SMDPad,CuDef*%
%ADD27RotRect,0.900000X1.200000X20.000000*%
%TD*%
%TA.AperFunction,Conductor*%
%ADD28C,0.250000*%
%TD*%
G04 APERTURE END LIST*
D10*
%TO.P,T1,*%
%TO.N,*%
X295500004Y-84999998D03*
X293300004Y-84999998D03*
D11*
X294400004Y-87199998D03*
X294400004Y-90199998D03*
D10*
X295500004Y-92399998D03*
X293300004Y-92399998D03*
D12*
%TO.P,T1,1*%
%TO.N,pos*%
X292325004Y-90949998D03*
%TO.P,T1,2*%
%TO.N,RAW*%
X292325004Y-87949998D03*
%TO.P,T1,3*%
%TO.N,N/C*%
X292325003Y-86449998D03*
%TD*%
D13*
%TO.P,B1,1*%
%TO.N,GND*%
X279750001Y-85599998D03*
X279750001Y-91799998D03*
%TO.P,B1,2*%
%TO.N,RST*%
X276050001Y-85599998D03*
X276050001Y-91799998D03*
%TD*%
D14*
%TO.P,D18,1*%
%TO.N,P111*%
X262090005Y-64700001D03*
D15*
X264250005Y-64699999D03*
%TO.P,D18,2*%
%TO.N,sixth_top*%
X267550005Y-64700003D03*
D16*
X269710005Y-64700001D03*
%TD*%
D14*
%TO.P,D12,1*%
%TO.N,P111*%
X225090001Y-56699999D03*
D15*
X227250001Y-56699997D03*
%TO.P,D12,2*%
%TO.N,fourth_top*%
X230550001Y-56700001D03*
D16*
X232710001Y-56699999D03*
%TD*%
D14*
%TO.P,D17,1*%
%TO.N,P010*%
X262090005Y-82199999D03*
D15*
X264250005Y-82199997D03*
%TO.P,D17,2*%
%TO.N,sixth_home*%
X267550005Y-82200001D03*
D16*
X269710005Y-82199999D03*
%TD*%
D14*
%TO.P,D6,1*%
%TO.N,P111*%
X188090002Y-72699999D03*
D15*
X190250002Y-72699997D03*
%TO.P,D6,2*%
%TO.N,second_top*%
X193550002Y-72700001D03*
D16*
X195710002Y-72699999D03*
%TD*%
D14*
%TO.P,D13,1*%
%TO.N,P009*%
X243590002Y-97699999D03*
D15*
X245750002Y-97699997D03*
%TO.P,D13,2*%
%TO.N,fifth_bottom*%
X249050002Y-97700001D03*
D16*
X251210002Y-97699999D03*
%TD*%
D14*
%TO.P,D8,1*%
%TO.N,P010*%
X206590002Y-79199998D03*
D15*
X208750002Y-79199996D03*
%TO.P,D8,2*%
%TO.N,third_home*%
X212050002Y-79200000D03*
D16*
X214210002Y-79199998D03*
%TD*%
D14*
%TO.P,D2,1*%
%TO.N,P010*%
X169590001Y-92199998D03*
D15*
X171750001Y-92199996D03*
%TO.P,D2,2*%
%TO.N,first_home*%
X175050001Y-92200000D03*
D16*
X177210001Y-92199998D03*
%TD*%
D14*
%TO.P,D7,1*%
%TO.N,P009*%
X206590005Y-96700000D03*
D15*
X208750005Y-96699998D03*
%TO.P,D7,2*%
%TO.N,third_bottom*%
X212050005Y-96700002D03*
D16*
X214210005Y-96700000D03*
%TD*%
D14*
%TO.P,D11,1*%
%TO.N,P010*%
X225090007Y-74199999D03*
D15*
X227250007Y-74199997D03*
%TO.P,D11,2*%
%TO.N,fourth_home*%
X230550007Y-74200001D03*
D16*
X232710007Y-74199999D03*
%TD*%
D17*
%TO.P,D21,1*%
%TO.N,P106*%
X255660173Y-119182945D03*
D18*
X257787360Y-119558027D03*
%TO.P,D21,2*%
%TO.N,third_only*%
X261037226Y-120131063D03*
D16*
X263164413Y-120506145D03*
%TD*%
D19*
%TO.P,D22,1*%
%TO.N,P106*%
X273835814Y-125924482D03*
D20*
X275865550Y-126663247D03*
%TO.P,D22,2*%
%TO.N,fourth_only*%
X278966536Y-127791911D03*
D16*
X280996272Y-128530676D03*
%TD*%
D14*
%TO.P,D10,1*%
%TO.N,P009*%
X225089999Y-91700002D03*
D15*
X227249999Y-91700000D03*
%TO.P,D10,2*%
%TO.N,fourth_bottom*%
X230549999Y-91700004D03*
D16*
X232709999Y-91700002D03*
%TD*%
D14*
%TO.P,D3,1*%
%TO.N,P111*%
X169590004Y-74699998D03*
D15*
X171750004Y-74699996D03*
%TO.P,D3,2*%
%TO.N,first_top*%
X175050004Y-74700000D03*
D16*
X177210004Y-74699998D03*
%TD*%
D14*
%TO.P,D19,1*%
%TO.N,P106*%
X218090006Y-117699999D03*
D15*
X220250006Y-117699997D03*
%TO.P,D19,2*%
%TO.N,first_only*%
X223550006Y-117700001D03*
D16*
X225710006Y-117699999D03*
%TD*%
D14*
%TO.P,D9,1*%
%TO.N,P111*%
X206590007Y-61699999D03*
D15*
X208750007Y-61699997D03*
%TO.P,D9,2*%
%TO.N,third_top*%
X212050007Y-61700001D03*
D16*
X214210007Y-61699999D03*
%TD*%
D21*
%TO.P,JST1,1*%
%TO.N,pos*%
X286900005Y-104699999D03*
D22*
%TO.P,JST1,2*%
%TO.N,GND*%
X284900005Y-104699999D03*
%TD*%
D14*
%TO.P,D1,1*%
%TO.N,P009*%
X169590004Y-109699999D03*
D15*
X171750004Y-109699997D03*
%TO.P,D1,2*%
%TO.N,first_bottom*%
X175050004Y-109700001D03*
D16*
X177210004Y-109699999D03*
%TD*%
D14*
%TO.P,D14,1*%
%TO.N,P010*%
X243590007Y-80199997D03*
D15*
X245750007Y-80199995D03*
%TO.P,D14,2*%
%TO.N,fifth_home*%
X249050007Y-80199999D03*
D16*
X251210007Y-80199997D03*
%TD*%
D14*
%TO.P,D16,1*%
%TO.N,P009*%
X262090006Y-99700001D03*
D15*
X264250006Y-99699999D03*
%TO.P,D16,2*%
%TO.N,sixth_bottom*%
X267550006Y-99700003D03*
D16*
X269710006Y-99700001D03*
%TD*%
D14*
%TO.P,D15,1*%
%TO.N,P111*%
X243590004Y-62699997D03*
D15*
X245750004Y-62699995D03*
%TO.P,D15,2*%
%TO.N,fifth_top*%
X249050004Y-62699999D03*
D16*
X251210004Y-62699997D03*
%TD*%
D23*
%TO.P,MCU1,1*%
%TO.N,P006*%
X291520000Y-51730004D03*
%TO.P,MCU1,2*%
%TO.N,P008*%
X291520000Y-54270001D03*
%TO.P,MCU1,3*%
%TO.N,GND*%
X291520000Y-56810001D03*
%TO.P,MCU1,4*%
X291520000Y-59350001D03*
%TO.P,MCU1,5*%
%TO.N,P017*%
X291520000Y-61890001D03*
%TO.P,MCU1,6*%
%TO.N,P020*%
X291520000Y-64430001D03*
%TO.P,MCU1,7*%
%TO.N,P022*%
X291520000Y-66970001D03*
%TO.P,MCU1,8*%
%TO.N,P024*%
X291520000Y-69510001D03*
%TO.P,MCU1,9*%
%TO.N,P100*%
X291519996Y-72050001D03*
%TO.P,MCU1,10*%
%TO.N,P011*%
X291520000Y-74590001D03*
%TO.P,MCU1,11*%
%TO.N,P104*%
X291520000Y-77130001D03*
%TO.P,MCU1,12*%
%TO.N,P106*%
X291520000Y-79670001D03*
%TO.P,MCU1,13*%
%TO.N,P009*%
X276280000Y-79669998D03*
%TO.P,MCU1,14*%
%TO.N,P010*%
X276280000Y-77130001D03*
%TO.P,MCU1,15*%
%TO.N,P111*%
X276280000Y-74590001D03*
%TO.P,MCU1,16*%
%TO.N,P113*%
X276280000Y-72050001D03*
%TO.P,MCU1,17*%
%TO.N,P115*%
X276280000Y-69510001D03*
%TO.P,MCU1,18*%
%TO.N,P002*%
X276280000Y-66970001D03*
%TO.P,MCU1,19*%
%TO.N,P029*%
X276280000Y-64430001D03*
%TO.P,MCU1,20*%
%TO.N,P031*%
X276280000Y-61890001D03*
%TO.P,MCU1,21*%
%TO.N,VCC*%
X276280004Y-59350001D03*
%TO.P,MCU1,22*%
%TO.N,RST*%
X276280000Y-56810001D03*
%TO.P,MCU1,23*%
%TO.N,GND*%
X276280000Y-54270001D03*
%TO.P,MCU1,24*%
%TO.N,RAW*%
X276280000Y-51730001D03*
%TO.P,MCU1,31*%
%TO.N,P101*%
X278820002Y-74590000D03*
%TO.P,MCU1,32*%
%TO.N,P102*%
X281360000Y-74590001D03*
%TO.P,MCU1,33*%
%TO.N,P107*%
X283900000Y-74590001D03*
%TD*%
D14*
%TO.P,D4,1*%
%TO.N,P009*%
X188089998Y-107700000D03*
D15*
X190249998Y-107699998D03*
%TO.P,D4,2*%
%TO.N,second_bottom*%
X193549998Y-107700002D03*
D16*
X195709998Y-107700000D03*
%TD*%
D14*
%TO.P,D20,1*%
%TO.N,P106*%
X236590004Y-116700001D03*
D15*
X238750004Y-116699999D03*
%TO.P,D20,2*%
%TO.N,second_only*%
X242050004Y-116700003D03*
D16*
X244210004Y-116700001D03*
%TD*%
D14*
%TO.P,D5,1*%
%TO.N,P010*%
X188090008Y-90200002D03*
D15*
X190250008Y-90200000D03*
%TO.P,D5,2*%
%TO.N,second_home*%
X193550008Y-90200004D03*
D16*
X195710008Y-90200002D03*
%TD*%
D10*
%TO.P,T1,*%
%TO.N,*%
X18301796Y-92401793D03*
X20501796Y-92401793D03*
D11*
X19401796Y-90201793D03*
X19401796Y-87201793D03*
D10*
X18301796Y-85001793D03*
X20501796Y-85001793D03*
D12*
%TO.P,T1,1*%
%TO.N,pos*%
X21476797Y-86451793D03*
%TO.P,T1,2*%
%TO.N,RAW*%
X21476796Y-89451793D03*
%TO.P,T1,3*%
%TO.N,N/C*%
X21476796Y-90951793D03*
%TD*%
D13*
%TO.P,B1,1*%
%TO.N,GND*%
X34051797Y-91801793D03*
X34051797Y-85601793D03*
%TO.P,B1,2*%
%TO.N,RST*%
X37751797Y-91801793D03*
X37751797Y-85601793D03*
%TD*%
D14*
%TO.P,D7,1*%
%TO.N,P009*%
X105591795Y-96701795D03*
D15*
X107751795Y-96701796D03*
%TO.P,D7,2*%
%TO.N,mirror_third_bottom*%
X111051795Y-96701794D03*
D16*
X113211795Y-96701795D03*
%TD*%
D14*
%TO.P,D3,1*%
%TO.N,P111*%
X142591795Y-74701795D03*
D15*
X144751795Y-74701796D03*
%TO.P,D3,2*%
%TO.N,mirror_first_top*%
X148051795Y-74701794D03*
D16*
X150211795Y-74701795D03*
%TD*%
D14*
%TO.P,D12,1*%
%TO.N,P111*%
X87091797Y-56701795D03*
D15*
X89251797Y-56701796D03*
%TO.P,D12,2*%
%TO.N,mirror_fourth_top*%
X92551797Y-56701794D03*
D16*
X94711797Y-56701795D03*
%TD*%
D14*
%TO.P,D18,1*%
%TO.N,P111*%
X50091796Y-64701795D03*
D15*
X52251796Y-64701796D03*
%TO.P,D18,2*%
%TO.N,mirror_sixth_top*%
X55551796Y-64701794D03*
D16*
X57711796Y-64701795D03*
%TD*%
D14*
%TO.P,D2,1*%
%TO.N,P010*%
X142591797Y-92201794D03*
D15*
X144751797Y-92201795D03*
%TO.P,D2,2*%
%TO.N,mirror_first_home*%
X148051797Y-92201793D03*
D16*
X150211797Y-92201794D03*
%TD*%
D14*
%TO.P,D17,1*%
%TO.N,P010*%
X50091797Y-82201793D03*
D15*
X52251797Y-82201794D03*
%TO.P,D17,2*%
%TO.N,mirror_sixth_home*%
X55551797Y-82201792D03*
D16*
X57711797Y-82201793D03*
%TD*%
D14*
%TO.P,D15,1*%
%TO.N,P111*%
X68591796Y-62701795D03*
D15*
X70751796Y-62701796D03*
%TO.P,D15,2*%
%TO.N,mirror_fifth_top*%
X74051796Y-62701794D03*
D16*
X76211796Y-62701795D03*
%TD*%
D14*
%TO.P,D9,1*%
%TO.N,P111*%
X105591796Y-61701795D03*
D15*
X107751796Y-61701796D03*
%TO.P,D9,2*%
%TO.N,mirror_third_top*%
X111051796Y-61701794D03*
D16*
X113211796Y-61701795D03*
%TD*%
D14*
%TO.P,D16,1*%
%TO.N,P009*%
X50091796Y-99701796D03*
D15*
X52251796Y-99701797D03*
%TO.P,D16,2*%
%TO.N,mirror_sixth_bottom*%
X55551796Y-99701795D03*
D16*
X57711796Y-99701796D03*
%TD*%
D14*
%TO.P,D1,1*%
%TO.N,P009*%
X142591796Y-109701796D03*
D15*
X144751796Y-109701797D03*
%TO.P,D1,2*%
%TO.N,mirror_first_bottom*%
X148051796Y-109701795D03*
D16*
X150211796Y-109701796D03*
%TD*%
D14*
%TO.P,D4,1*%
%TO.N,P009*%
X124091796Y-107701795D03*
D15*
X126251796Y-107701796D03*
%TO.P,D4,2*%
%TO.N,mirror_second_bottom*%
X129551796Y-107701794D03*
D16*
X131711796Y-107701795D03*
%TD*%
D24*
%TO.P,D21,1*%
%TO.N,P106*%
X56546238Y-119466053D03*
D25*
X58673424Y-119090971D03*
%TO.P,D21,2*%
%TO.N,mirror_third_only*%
X61923290Y-118517935D03*
D16*
X64050476Y-118142853D03*
%TD*%
D14*
%TO.P,D5,1*%
%TO.N,P010*%
X124091794Y-90201795D03*
D15*
X126251794Y-90201796D03*
%TO.P,D5,2*%
%TO.N,mirror_second_home*%
X129551794Y-90201794D03*
D16*
X131711794Y-90201795D03*
%TD*%
D14*
%TO.P,D13,1*%
%TO.N,P009*%
X68591797Y-97701796D03*
D15*
X70751797Y-97701797D03*
%TO.P,D13,2*%
%TO.N,mirror_fifth_bottom*%
X74051797Y-97701795D03*
D16*
X76211797Y-97701796D03*
%TD*%
D26*
%TO.P,D22,1*%
%TO.N,P106*%
X38443683Y-126480349D03*
D27*
X40473419Y-125741584D03*
%TO.P,D22,2*%
%TO.N,mirror_fourth_only*%
X43574405Y-124612920D03*
D16*
X45604141Y-123874155D03*
%TD*%
D14*
%TO.P,D6,1*%
%TO.N,P111*%
X124091797Y-72701795D03*
D15*
X126251797Y-72701796D03*
%TO.P,D6,2*%
%TO.N,mirror_second_top*%
X129551797Y-72701794D03*
D16*
X131711797Y-72701795D03*
%TD*%
D23*
%TO.P,MCU1,1*%
%TO.N,P006*%
X22281796Y-51731796D03*
%TO.P,MCU1,2*%
%TO.N,P008*%
X22281796Y-54271795D03*
%TO.P,MCU1,3*%
%TO.N,GND*%
X22281796Y-56811795D03*
%TO.P,MCU1,4*%
X22281796Y-59351795D03*
%TO.P,MCU1,5*%
%TO.N,P017*%
X22281796Y-61891795D03*
%TO.P,MCU1,6*%
%TO.N,P020*%
X22281796Y-64431795D03*
%TO.P,MCU1,7*%
%TO.N,P022*%
X22281796Y-66971795D03*
%TO.P,MCU1,8*%
%TO.N,P024*%
X22281796Y-69511795D03*
%TO.P,MCU1,9*%
%TO.N,P100*%
X22281797Y-72051795D03*
%TO.P,MCU1,10*%
%TO.N,P011*%
X22281796Y-74591795D03*
%TO.P,MCU1,11*%
%TO.N,P104*%
X22281796Y-77131795D03*
%TO.P,MCU1,12*%
%TO.N,P106*%
X22281796Y-79671795D03*
%TO.P,MCU1,13*%
%TO.N,P009*%
X37521796Y-79671794D03*
%TO.P,MCU1,14*%
%TO.N,P010*%
X37521796Y-77131795D03*
%TO.P,MCU1,15*%
%TO.N,P111*%
X37521796Y-74591795D03*
%TO.P,MCU1,16*%
%TO.N,P113*%
X37521796Y-72051795D03*
%TO.P,MCU1,17*%
%TO.N,P115*%
X37521796Y-69511795D03*
%TO.P,MCU1,18*%
%TO.N,P002*%
X37521796Y-66971795D03*
%TO.P,MCU1,19*%
%TO.N,P029*%
X37521796Y-64431795D03*
%TO.P,MCU1,20*%
%TO.N,P031*%
X37521796Y-61891795D03*
%TO.P,MCU1,21*%
%TO.N,VCC*%
X37521795Y-59351795D03*
%TO.P,MCU1,22*%
%TO.N,RST*%
X37521796Y-56811795D03*
%TO.P,MCU1,23*%
%TO.N,GND*%
X37521796Y-54271795D03*
%TO.P,MCU1,24*%
%TO.N,RAW*%
X37521796Y-51731795D03*
%TO.P,MCU1,31*%
%TO.N,P101*%
X24821796Y-74591795D03*
%TO.P,MCU1,32*%
%TO.N,P102*%
X27361796Y-74591795D03*
%TO.P,MCU1,33*%
%TO.N,P107*%
X29901796Y-74591795D03*
%TD*%
D14*
%TO.P,D20,1*%
%TO.N,P106*%
X75591796Y-116701794D03*
D15*
X77751796Y-116701795D03*
%TO.P,D20,2*%
%TO.N,mirror_second_only*%
X81051796Y-116701793D03*
D16*
X83211796Y-116701794D03*
%TD*%
D14*
%TO.P,D14,1*%
%TO.N,P010*%
X68591795Y-80201794D03*
D15*
X70751795Y-80201795D03*
%TO.P,D14,2*%
%TO.N,mirror_fifth_home*%
X74051795Y-80201793D03*
D16*
X76211795Y-80201794D03*
%TD*%
D14*
%TO.P,D10,1*%
%TO.N,P009*%
X87091795Y-91701795D03*
D15*
X89251795Y-91701796D03*
%TO.P,D10,2*%
%TO.N,mirror_fourth_bottom*%
X92551795Y-91701794D03*
D16*
X94711795Y-91701795D03*
%TD*%
D14*
%TO.P,D19,1*%
%TO.N,P106*%
X94091794Y-117701795D03*
D15*
X96251794Y-117701796D03*
%TO.P,D19,2*%
%TO.N,mirror_first_only*%
X99551794Y-117701794D03*
D16*
X101711794Y-117701795D03*
%TD*%
D14*
%TO.P,D8,1*%
%TO.N,P010*%
X105591797Y-79201794D03*
D15*
X107751797Y-79201795D03*
%TO.P,D8,2*%
%TO.N,mirror_third_home*%
X111051797Y-79201793D03*
D16*
X113211797Y-79201794D03*
%TD*%
D14*
%TO.P,D11,1*%
%TO.N,P010*%
X87091796Y-74201794D03*
D15*
X89251796Y-74201795D03*
%TO.P,D11,2*%
%TO.N,mirror_fourth_home*%
X92551796Y-74201793D03*
D16*
X94711796Y-74201794D03*
%TD*%
D21*
%TO.P,JST1,1*%
%TO.N,pos*%
X26901796Y-104701794D03*
D22*
%TO.P,JST1,2*%
%TO.N,GND*%
X28901796Y-104701794D03*
%TD*%
D28*
%TO.N,first_bottom*%
X175050005Y-109699997D02*
X177210003Y-109700002D01*
%TO.N,first_home*%
X175050001Y-92200000D02*
X177210007Y-92199999D01*
%TO.N,first_top*%
X175050006Y-74699995D02*
X177210003Y-74699997D01*
%TO.N,second_bottom*%
X193550003Y-107699997D02*
X195710003Y-107699998D01*
%TO.N,second_home*%
X193550005Y-90199998D02*
X195710003Y-90200000D01*
%TO.N,second_top*%
X193550008Y-72700001D02*
X195710008Y-72699998D01*
%TO.N,third_bottom*%
X212050003Y-96699998D02*
X214210007Y-96700001D01*
%TO.N,third_home*%
X212050008Y-79200000D02*
X214210003Y-79199999D01*
%TO.N,third_top*%
X212049999Y-61699999D02*
X214210004Y-61699998D01*
%TO.N,fourth_bottom*%
X230550004Y-91699999D02*
X232710002Y-91700001D01*
%TO.N,fourth_home*%
X232710002Y-74199998D02*
X230550007Y-74200000D01*
%TO.N,fourth_top*%
X230550000Y-56699996D02*
X232710008Y-56700001D01*
%TO.N,fifth_bottom*%
X249050004Y-97699999D02*
X251210000Y-97699998D01*
%TO.N,fifth_home*%
X249049998Y-80200000D02*
X251210002Y-80199995D01*
%TO.N,fifth_top*%
X249050005Y-62700000D02*
X251210002Y-62699999D01*
%TO.N,sixth_bottom*%
X267550000Y-99700001D02*
X269710004Y-99699998D01*
%TO.N,sixth_home*%
X267550006Y-82200000D02*
X269710000Y-82200001D01*
%TO.N,sixth_top*%
X267550001Y-64700000D02*
X269710003Y-64699997D01*
%TO.N,first_only*%
X223550008Y-117700000D02*
X225710001Y-117700000D01*
%TO.N,second_only*%
X242050007Y-116699999D02*
X244210005Y-116700002D01*
%TO.N,third_only*%
X261037226Y-120131064D02*
X263164406Y-120506142D01*
X263164406Y-120506142D02*
X263164410Y-120506149D01*
%TO.N,fourth_only*%
X278966537Y-127791909D02*
X280996273Y-128530675D01*
X280996273Y-128530675D02*
X280996270Y-128530677D01*
%TO.N,P009*%
X188090002Y-107700001D02*
X190250007Y-107699999D01*
X269944244Y-97094295D02*
X264695712Y-97094295D01*
X274144244Y-92894295D02*
X269944244Y-97094295D01*
X262090002Y-99699998D02*
X264250007Y-99699999D01*
X209336426Y-94085354D02*
X222704649Y-94085355D01*
X198204649Y-105085355D02*
X206590002Y-96700001D01*
X206590002Y-96700001D02*
X206721780Y-96700000D01*
X169590005Y-109699998D02*
X171590004Y-107700000D01*
X225089998Y-91699997D02*
X227250006Y-91699997D01*
X243590005Y-97699999D02*
X245750004Y-97700001D01*
X264695712Y-97094295D02*
X262090006Y-99700001D01*
X274144244Y-81805754D02*
X274144244Y-92894295D01*
X245590006Y-99700001D02*
X262090005Y-99700001D01*
X188089998Y-107699999D02*
X190704645Y-105085354D01*
X190704645Y-105085354D02*
X198204649Y-105085355D01*
X171590004Y-107700000D02*
X188089998Y-107699999D01*
X222704649Y-94085355D02*
X225090001Y-91700001D01*
X206590003Y-96699998D02*
X208750002Y-96700001D01*
X231089997Y-97699997D02*
X243590004Y-97699999D01*
X206721780Y-96700000D02*
X209336426Y-94085354D01*
X243590004Y-97699999D02*
X245590006Y-99700001D01*
X225090001Y-91700001D02*
X231089997Y-97699997D01*
X276280000Y-79669998D02*
X274144244Y-81805754D01*
X169590008Y-109700001D02*
X171750004Y-109700001D01*
%TO.N,P010*%
X245590008Y-82199999D02*
X262090005Y-82199999D01*
X169590001Y-92199997D02*
X171589998Y-90200002D01*
X225090007Y-74200000D02*
X231090005Y-80199997D01*
X206590003Y-79199999D02*
X208904648Y-76885354D01*
X188090007Y-90200001D02*
X189367506Y-88922502D01*
X231090005Y-80199997D02*
X243590006Y-80199998D01*
X171589998Y-90200002D02*
X188090007Y-90200001D01*
X272487502Y-80922499D02*
X276280000Y-77130001D01*
X243590000Y-80200002D02*
X245750007Y-80200000D01*
X169590005Y-92199999D02*
X171750002Y-92200002D01*
X262090005Y-82199999D02*
X263367505Y-80922499D01*
X189367506Y-88922502D02*
X196867501Y-88922502D01*
X243590006Y-80199998D02*
X245590008Y-82199999D01*
X222404652Y-76885354D02*
X225090007Y-74200000D01*
X262090005Y-82200001D02*
X264250004Y-82199999D01*
X208904648Y-76885354D02*
X222404652Y-76885354D01*
X225090005Y-74200000D02*
X227250002Y-74200000D01*
X263367505Y-80922499D02*
X272487502Y-80922499D01*
X206590004Y-79200000D02*
X208750001Y-79199998D01*
X188090005Y-90199995D02*
X190250003Y-90199998D01*
X196867501Y-88922502D02*
X206590003Y-79199999D01*
%TO.N,P111*%
X171590002Y-72699999D02*
X188090002Y-72699998D01*
X262090005Y-64700001D02*
X271980005Y-74590001D01*
X169590002Y-74699999D02*
X171750006Y-74699998D01*
X225090000Y-56700000D02*
X231090001Y-62699998D01*
X206590007Y-61699999D02*
X208604651Y-59685354D01*
X245590006Y-64700000D02*
X262090005Y-64700001D01*
X243590002Y-62699998D02*
X245750001Y-62699998D01*
X262090006Y-64699999D02*
X264250005Y-64700000D01*
X189367502Y-71422499D02*
X196867506Y-71422499D01*
X188090002Y-72699999D02*
X190250004Y-72699998D01*
X243590003Y-62699998D02*
X245590006Y-64700000D01*
X196867506Y-71422499D02*
X206590007Y-61699999D01*
X206590004Y-61699997D02*
X208750006Y-61700001D01*
X225090002Y-56699999D02*
X227250004Y-56699998D01*
X222104646Y-59685355D02*
X225090000Y-56700000D01*
X271980005Y-74590001D02*
X276280000Y-74590001D01*
X169590002Y-74699999D02*
X171590002Y-72699999D01*
X188090002Y-72699998D02*
X189367502Y-71422499D01*
X231090001Y-62699998D02*
X243590003Y-62699998D01*
X208604651Y-59685354D02*
X222104646Y-59685355D01*
%TO.N,P106*%
X275865548Y-126663245D02*
X275865549Y-126663247D01*
X255660175Y-119182944D02*
X258485405Y-123217790D01*
X218090005Y-117699998D02*
X219367504Y-116422498D01*
X257787355Y-119558024D02*
X257787355Y-119558028D01*
X236590005Y-116700000D02*
X239072947Y-119182944D01*
X273835814Y-121002725D02*
X273835814Y-125924482D01*
X278224983Y-119413556D02*
X275424983Y-119413556D01*
X255660172Y-119182946D02*
X257787355Y-119558024D01*
X285975005Y-111663534D02*
X278224983Y-119413556D01*
X273835815Y-125924478D02*
X275865548Y-126663245D01*
X236312502Y-116422499D02*
X236590005Y-116700000D01*
X219367504Y-116422498D02*
X236312502Y-116422499D01*
X285975005Y-85214996D02*
X285975005Y-111663534D01*
X218090003Y-117699998D02*
X220250004Y-117700001D01*
X291520000Y-79670001D02*
X285975005Y-85214996D01*
X258485405Y-123217790D02*
X273835814Y-125924481D01*
X275424983Y-119413556D02*
X273835814Y-121002725D01*
X236590007Y-116699996D02*
X238750006Y-116700002D01*
X239072947Y-119182944D02*
X255660174Y-119182944D01*
%TO.N,RAW*%
X276280000Y-51730001D02*
X277915706Y-50094295D01*
X291583186Y-50094295D02*
X293544244Y-52055353D01*
X290344244Y-86494295D02*
X291799947Y-87949998D01*
X291799947Y-87949998D02*
X292325004Y-87949998D01*
X293544244Y-81694295D02*
X290344244Y-84894295D01*
X277915706Y-50094295D02*
X291583186Y-50094295D01*
X293544244Y-52055353D02*
X293544244Y-81694295D01*
X290344244Y-84894295D02*
X290344244Y-86494295D01*
%TO.N,GND*%
X276280000Y-54270001D02*
X280021302Y-58011303D01*
X276280000Y-54270001D02*
X288980000Y-54270001D01*
X280021302Y-85328697D02*
X279750001Y-85599998D01*
X284900005Y-104699999D02*
X284900005Y-96950002D01*
X284900005Y-96950002D02*
X279750001Y-91799998D01*
X288980000Y-54270001D02*
X291520000Y-56810001D01*
X279750001Y-85599998D02*
X279750001Y-91799998D01*
X291520000Y-56810001D02*
X291520000Y-59350001D01*
X280021302Y-58011303D02*
X280021302Y-85328697D01*
%TO.N,RST*%
X276050001Y-85599998D02*
X277481304Y-84168695D01*
X276050001Y-91799998D02*
X276050001Y-85599998D01*
X277481304Y-84168695D02*
X277481304Y-58011305D01*
X277481304Y-58011305D02*
X276280000Y-56810001D01*
%TO.N,pos*%
X286900005Y-96938534D02*
X292325004Y-91513535D01*
X286900005Y-104699999D02*
X286900005Y-96938534D01*
X292325004Y-91513535D02*
X292325004Y-90949998D01*
%TO.N,mirror_first_bottom*%
X148051796Y-109701795D02*
X150211795Y-109701795D01*
X150211795Y-109701795D02*
X150211796Y-109701796D01*
%TO.N,mirror_first_home*%
X150211797Y-92201794D02*
X148051798Y-92201794D01*
X148051798Y-92201794D02*
X148051797Y-92201793D01*
%TO.N,mirror_first_top*%
X150211794Y-74701794D02*
X150211795Y-74701795D01*
X148051795Y-74701794D02*
X150211794Y-74701794D01*
%TO.N,mirror_second_bottom*%
X129551796Y-107701794D02*
X131711795Y-107701794D01*
X131711795Y-107701794D02*
X131711796Y-107701795D01*
%TO.N,mirror_second_home*%
X131711794Y-90201795D02*
X129551795Y-90201795D01*
X129551795Y-90201795D02*
X129551794Y-90201794D01*
%TO.N,mirror_second_top*%
X129551797Y-72701794D02*
X131711796Y-72701794D01*
X131711796Y-72701794D02*
X131711797Y-72701795D01*
%TO.N,mirror_third_bottom*%
X113211794Y-96701794D02*
X113211795Y-96701795D01*
X111051795Y-96701794D02*
X113211794Y-96701794D01*
%TO.N,mirror_third_home*%
X113211797Y-79201794D02*
X111051798Y-79201794D01*
X111051798Y-79201794D02*
X111051797Y-79201793D01*
%TO.N,mirror_third_top*%
X111051796Y-61701794D02*
X113211795Y-61701794D01*
X113211795Y-61701794D02*
X113211796Y-61701795D01*
%TO.N,mirror_fourth_bottom*%
X94711795Y-91701795D02*
X92551796Y-91701795D01*
X92551796Y-91701795D02*
X92551795Y-91701794D01*
%TO.N,mirror_fourth_home*%
X92551797Y-74201794D02*
X92551796Y-74201793D01*
X94711796Y-74201794D02*
X92551797Y-74201794D01*
%TO.N,mirror_fourth_top*%
X92551797Y-56701794D02*
X94711796Y-56701794D01*
X94711796Y-56701794D02*
X94711797Y-56701795D01*
%TO.N,mirror_fifth_bottom*%
X76211796Y-97701795D02*
X76211797Y-97701796D01*
X74051797Y-97701795D02*
X76211796Y-97701795D01*
%TO.N,mirror_fifth_home*%
X76211795Y-80201794D02*
X74051796Y-80201794D01*
X74051796Y-80201794D02*
X74051795Y-80201793D01*
%TO.N,mirror_fifth_top*%
X76211795Y-62701794D02*
X76211796Y-62701795D01*
X74051796Y-62701794D02*
X76211795Y-62701794D01*
%TO.N,mirror_sixth_bottom*%
X57711795Y-99701795D02*
X57711796Y-99701796D01*
X55551796Y-99701795D02*
X57711795Y-99701795D01*
%TO.N,mirror_sixth_home*%
X55551798Y-82201793D02*
X55551797Y-82201792D01*
X57711797Y-82201793D02*
X55551798Y-82201793D01*
%TO.N,mirror_sixth_top*%
X55551796Y-64701794D02*
X57711795Y-64701794D01*
X57711795Y-64701794D02*
X57711796Y-64701795D01*
%TO.N,mirror_first_only*%
X99551794Y-117701794D02*
X101711793Y-117701794D01*
X101711793Y-117701794D02*
X101711794Y-117701795D01*
%TO.N,mirror_second_only*%
X81051796Y-116701793D02*
X83211795Y-116701793D01*
X83211795Y-116701793D02*
X83211796Y-116701794D01*
%TO.N,mirror_third_only*%
X64050472Y-118142854D02*
X64050474Y-118142851D01*
X61923289Y-118517934D02*
X64050472Y-118142854D01*
%TO.N,mirror_fourth_only*%
X43574406Y-124612918D02*
X45604139Y-123874156D01*
X45604139Y-123874156D02*
X45604141Y-123874153D01*
%TO.N,P009*%
X126091797Y-109701796D02*
X142591796Y-109701796D01*
X87091795Y-91701795D02*
X92091795Y-96701795D01*
X68591797Y-97701796D02*
X70236618Y-96056975D01*
X70236618Y-96056975D02*
X70236618Y-96021186D01*
X48668113Y-99701796D02*
X50091796Y-99701796D01*
X50091796Y-99701796D02*
X52251795Y-99701796D01*
X105591795Y-96701795D02*
X116591795Y-107701795D01*
X87091795Y-91701795D02*
X89251794Y-91701795D01*
X37521796Y-79671794D02*
X44175896Y-86325894D01*
X92091795Y-96701795D02*
X105591795Y-96701795D01*
X124091796Y-107701795D02*
X126251795Y-107701795D01*
X52091796Y-97701796D02*
X68591797Y-97701796D01*
X142591796Y-109701796D02*
X144751795Y-109701796D01*
X105591795Y-96701795D02*
X107751794Y-96701795D01*
X70751796Y-97701796D02*
X70751797Y-97701797D01*
X44175896Y-95209579D02*
X48668113Y-99701796D01*
X68591797Y-97701796D02*
X70751796Y-97701796D01*
X52251795Y-99701796D02*
X52251796Y-99701797D01*
X89251794Y-91701795D02*
X89251795Y-91701796D01*
X107751794Y-96701795D02*
X107751795Y-96701796D01*
X124091796Y-107701795D02*
X126091797Y-109701796D01*
X50091796Y-99701796D02*
X52091796Y-97701796D01*
X82772404Y-96021186D02*
X87091795Y-91701795D01*
X144751795Y-109701796D02*
X144751796Y-109701797D01*
X44175896Y-86325894D02*
X44175896Y-95209579D01*
X126251795Y-107701795D02*
X126251796Y-107701796D01*
X70236618Y-96021186D02*
X82772404Y-96021186D01*
X116591795Y-107701795D02*
X124091796Y-107701795D01*
%TO.N,P010*%
X68591796Y-80201795D02*
X68591795Y-80201794D01*
X105591797Y-79201794D02*
X92091796Y-79201794D01*
X83872404Y-77421186D02*
X71372403Y-77421186D01*
X105591798Y-79201795D02*
X105591797Y-79201794D01*
X87091797Y-74201795D02*
X87091796Y-74201794D01*
X42591794Y-82201793D02*
X50091797Y-82201793D01*
X144751797Y-92201795D02*
X142591798Y-92201795D01*
X142591798Y-92201795D02*
X142591797Y-92201794D01*
X52251797Y-82201794D02*
X50091798Y-82201794D01*
X142591797Y-92201794D02*
X126091793Y-92201794D01*
X70751795Y-80201795D02*
X68591796Y-80201795D01*
X50091798Y-82201794D02*
X50091797Y-82201793D01*
X126091793Y-92201794D02*
X124091794Y-90201795D01*
X124091795Y-90201796D02*
X124091794Y-90201795D01*
X68591795Y-80201794D02*
X52091796Y-80201794D01*
X126251794Y-90201796D02*
X124091795Y-90201796D01*
X37521796Y-77131795D02*
X42591794Y-82201793D01*
X107751797Y-79201795D02*
X105591798Y-79201795D01*
X116591798Y-90201795D02*
X105591797Y-79201794D01*
X92091796Y-79201794D02*
X87091796Y-74201794D01*
X71372403Y-77421186D02*
X68591795Y-80201794D01*
X52091796Y-80201794D02*
X50091797Y-82201793D01*
X87091796Y-74201794D02*
X83872404Y-77421186D01*
X89251796Y-74201795D02*
X87091797Y-74201795D01*
X124091794Y-90201795D02*
X116591798Y-90201795D01*
%TO.N,P111*%
X87091797Y-56701795D02*
X92091797Y-61701795D01*
X92091797Y-61701795D02*
X105591796Y-61701795D01*
X37521796Y-74591795D02*
X40201796Y-74591795D01*
X107751795Y-61701795D02*
X107751796Y-61701796D01*
X126251796Y-72701795D02*
X126251797Y-72701796D01*
X89251796Y-56701795D02*
X89251797Y-56701796D01*
X68591796Y-62701795D02*
X70272405Y-61021186D01*
X52251795Y-64701795D02*
X52251796Y-64701796D01*
X70751795Y-62701795D02*
X70751796Y-62701796D01*
X50091796Y-64701795D02*
X52091796Y-62701795D01*
X82772406Y-61021186D02*
X87091797Y-56701795D01*
X116591796Y-72701795D02*
X124091797Y-72701795D01*
X105591796Y-61701795D02*
X116591796Y-72701795D01*
X124091797Y-72701795D02*
X126091797Y-74701795D01*
X40201796Y-74591795D02*
X50091796Y-64701795D01*
X68591796Y-62701795D02*
X70751795Y-62701795D01*
X105591796Y-61701795D02*
X107751795Y-61701795D01*
X126091797Y-74701795D02*
X142591795Y-74701795D01*
X124091797Y-72701795D02*
X126251796Y-72701795D01*
X70272405Y-61021186D02*
X82772406Y-61021186D01*
X52091796Y-62701795D02*
X68591796Y-62701795D01*
X50091796Y-64701795D02*
X52251795Y-64701795D01*
X144751794Y-74701795D02*
X144751795Y-74701796D01*
X87091797Y-56701795D02*
X89251796Y-56701795D01*
X142591795Y-74701795D02*
X144751794Y-74701795D01*
%TO.N,P106*%
X40473418Y-125741587D02*
X40473419Y-125741583D01*
X75030039Y-117504066D02*
X75591796Y-116701794D01*
X58673422Y-119090973D02*
X58673424Y-119090971D01*
X93814295Y-117979294D02*
X94091794Y-117701795D01*
X39207213Y-124842958D02*
X55421332Y-118941501D01*
X22281796Y-79671795D02*
X27826796Y-85216795D01*
X75591796Y-116701794D02*
X76869296Y-117979294D01*
X27826796Y-115863462D02*
X38443683Y-126480349D01*
X58026164Y-120502307D02*
X75030039Y-117504066D01*
X56546239Y-119466053D02*
X58026164Y-120502307D01*
X96251793Y-117701795D02*
X96251794Y-117701796D01*
X75591796Y-116701794D02*
X77751795Y-116701794D01*
X55421332Y-118941501D02*
X56546239Y-119466053D01*
X38443684Y-126480348D02*
X40473418Y-125741587D01*
X77751795Y-116701794D02*
X77751796Y-116701795D01*
X56546239Y-119466053D02*
X58673422Y-119090973D01*
X76869296Y-117979294D02*
X93814295Y-117979294D01*
X94091794Y-117701795D02*
X96251793Y-117701795D01*
X38443684Y-126480348D02*
X39207213Y-124842958D01*
X27826796Y-85216795D02*
X27826796Y-115863462D01*
%TO.N,RAW*%
X19726796Y-52531008D02*
X19726796Y-86360066D01*
X36320497Y-50530496D02*
X21727308Y-50530496D01*
X21476796Y-88110066D02*
X21476796Y-89451793D01*
X21727308Y-50530496D02*
X19726796Y-52531008D01*
X37521796Y-51731795D02*
X36320497Y-50530496D01*
X19726796Y-86360066D02*
X21476796Y-88110066D01*
%TO.N,GND*%
X34051797Y-91801793D02*
X34051797Y-85601793D01*
X28901796Y-96951794D02*
X34051797Y-91801793D01*
X34051797Y-57741794D02*
X37521796Y-54271795D01*
X28901796Y-104701794D02*
X28901796Y-96951794D01*
X34051797Y-85601793D02*
X34051797Y-57741794D01*
X22281796Y-56811795D02*
X22281796Y-59351795D01*
X37521796Y-54271795D02*
X24821796Y-54271795D01*
X24821796Y-54271795D02*
X22281796Y-56811795D01*
%TO.N,RST*%
X36320496Y-58013095D02*
X37521796Y-56811795D01*
X37751797Y-91801793D02*
X37751797Y-85601793D01*
X37751797Y-85601793D02*
X36320496Y-84170492D01*
X36320496Y-84170492D02*
X36320496Y-58013095D01*
%TO.N,pos*%
X21476797Y-86451793D02*
X26901796Y-91876792D01*
X26901796Y-91876792D02*
X26901796Y-104701794D01*
%TD*%
M02*
