%TF.GenerationSoftware,KiCad,Pcbnew,8.0.4*%
%TF.CreationDate,2024-08-22T13:40:17+01:00*%
%TF.ProjectId,TEST combine v2 left and right,54455354-2063-46f6-9d62-696e65207632,rev?*%
%TF.SameCoordinates,Original*%
%TF.FileFunction,Legend,Top*%
%TF.FilePolarity,Positive*%
%FSLAX46Y46*%
G04 Gerber Fmt 4.6, Leading zero omitted, Abs format (unit mm)*
G04 Created by KiCad (PCBNEW 8.0.4) date 2024-08-22 13:40:17*
%MOMM*%
%LPD*%
G01*
G04 APERTURE LIST*
%ADD10C,0.300000*%
%ADD11C,0.150000*%
%ADD12C,0.100000*%
%ADD13C,0.381000*%
%ADD14C,1.752600*%
G04 APERTURE END LIST*
D10*
X219240229Y-99562017D02*
X219525943Y-99657255D01*
X219525943Y-99657255D02*
X219621181Y-99752493D01*
X219621181Y-99752493D02*
X219716419Y-99942969D01*
X219716419Y-99942969D02*
X219716419Y-100228683D01*
X219716419Y-100228683D02*
X219621181Y-100419159D01*
X219621181Y-100419159D02*
X219525943Y-100514398D01*
X219525943Y-100514398D02*
X219335467Y-100609636D01*
X219335467Y-100609636D02*
X218573562Y-100609636D01*
X218573562Y-100609636D02*
X218573562Y-98609636D01*
X218573562Y-98609636D02*
X219240229Y-98609636D01*
X219240229Y-98609636D02*
X219430705Y-98704874D01*
X219430705Y-98704874D02*
X219525943Y-98800112D01*
X219525943Y-98800112D02*
X219621181Y-98990588D01*
X219621181Y-98990588D02*
X219621181Y-99181064D01*
X219621181Y-99181064D02*
X219525943Y-99371540D01*
X219525943Y-99371540D02*
X219430705Y-99466778D01*
X219430705Y-99466778D02*
X219240229Y-99562017D01*
X219240229Y-99562017D02*
X218573562Y-99562017D01*
X221335467Y-100514398D02*
X221144991Y-100609636D01*
X221144991Y-100609636D02*
X220764038Y-100609636D01*
X220764038Y-100609636D02*
X220573562Y-100514398D01*
X220573562Y-100514398D02*
X220478324Y-100323921D01*
X220478324Y-100323921D02*
X220478324Y-99562017D01*
X220478324Y-99562017D02*
X220573562Y-99371540D01*
X220573562Y-99371540D02*
X220764038Y-99276302D01*
X220764038Y-99276302D02*
X221144991Y-99276302D01*
X221144991Y-99276302D02*
X221335467Y-99371540D01*
X221335467Y-99371540D02*
X221430705Y-99562017D01*
X221430705Y-99562017D02*
X221430705Y-99752493D01*
X221430705Y-99752493D02*
X220478324Y-99942969D01*
X223144991Y-100609636D02*
X223144991Y-99562017D01*
X223144991Y-99562017D02*
X223049753Y-99371540D01*
X223049753Y-99371540D02*
X222859277Y-99276302D01*
X222859277Y-99276302D02*
X222478324Y-99276302D01*
X222478324Y-99276302D02*
X222287848Y-99371540D01*
X223144991Y-100514398D02*
X222954515Y-100609636D01*
X222954515Y-100609636D02*
X222478324Y-100609636D01*
X222478324Y-100609636D02*
X222287848Y-100514398D01*
X222287848Y-100514398D02*
X222192610Y-100323921D01*
X222192610Y-100323921D02*
X222192610Y-100133445D01*
X222192610Y-100133445D02*
X222287848Y-99942969D01*
X222287848Y-99942969D02*
X222478324Y-99847731D01*
X222478324Y-99847731D02*
X222954515Y-99847731D01*
X222954515Y-99847731D02*
X223144991Y-99752493D01*
X224097372Y-99276302D02*
X224097372Y-100609636D01*
X224097372Y-99466778D02*
X224192610Y-99371540D01*
X224192610Y-99371540D02*
X224383086Y-99276302D01*
X224383086Y-99276302D02*
X224668801Y-99276302D01*
X224668801Y-99276302D02*
X224859277Y-99371540D01*
X224859277Y-99371540D02*
X224954515Y-99562017D01*
X224954515Y-99562017D02*
X224954515Y-100609636D01*
X225811658Y-100514398D02*
X226002134Y-100609636D01*
X226002134Y-100609636D02*
X226383086Y-100609636D01*
X226383086Y-100609636D02*
X226573563Y-100514398D01*
X226573563Y-100514398D02*
X226668801Y-100323921D01*
X226668801Y-100323921D02*
X226668801Y-100228683D01*
X226668801Y-100228683D02*
X226573563Y-100038207D01*
X226573563Y-100038207D02*
X226383086Y-99942969D01*
X226383086Y-99942969D02*
X226097372Y-99942969D01*
X226097372Y-99942969D02*
X225906896Y-99847731D01*
X225906896Y-99847731D02*
X225811658Y-99657255D01*
X225811658Y-99657255D02*
X225811658Y-99562017D01*
X225811658Y-99562017D02*
X225906896Y-99371540D01*
X225906896Y-99371540D02*
X226097372Y-99276302D01*
X226097372Y-99276302D02*
X226383086Y-99276302D01*
X226383086Y-99276302D02*
X226573563Y-99371540D01*
X228764040Y-98609636D02*
X229430706Y-100609636D01*
X229430706Y-100609636D02*
X230097373Y-98609636D01*
X230668802Y-98800112D02*
X230764040Y-98704874D01*
X230764040Y-98704874D02*
X230954516Y-98609636D01*
X230954516Y-98609636D02*
X231430707Y-98609636D01*
X231430707Y-98609636D02*
X231621183Y-98704874D01*
X231621183Y-98704874D02*
X231716421Y-98800112D01*
X231716421Y-98800112D02*
X231811659Y-98990588D01*
X231811659Y-98990588D02*
X231811659Y-99181064D01*
X231811659Y-99181064D02*
X231716421Y-99466778D01*
X231716421Y-99466778D02*
X230573564Y-100609636D01*
X230573564Y-100609636D02*
X231811659Y-100609636D01*
D11*
X277562809Y-66532296D02*
X277638999Y-66532296D01*
X277638999Y-66532296D02*
X277715190Y-66570391D01*
X277715190Y-66570391D02*
X277753285Y-66608486D01*
X277753285Y-66608486D02*
X277791380Y-66684677D01*
X277791380Y-66684677D02*
X277829475Y-66837058D01*
X277829475Y-66837058D02*
X277829475Y-67027534D01*
X277829475Y-67027534D02*
X277791380Y-67179915D01*
X277791380Y-67179915D02*
X277753285Y-67256105D01*
X277753285Y-67256105D02*
X277715190Y-67294201D01*
X277715190Y-67294201D02*
X277638999Y-67332296D01*
X277638999Y-67332296D02*
X277562809Y-67332296D01*
X277562809Y-67332296D02*
X277486618Y-67294201D01*
X277486618Y-67294201D02*
X277448523Y-67256105D01*
X277448523Y-67256105D02*
X277410428Y-67179915D01*
X277410428Y-67179915D02*
X277372332Y-67027534D01*
X277372332Y-67027534D02*
X277372332Y-66837058D01*
X277372332Y-66837058D02*
X277410428Y-66684677D01*
X277410428Y-66684677D02*
X277448523Y-66608486D01*
X277448523Y-66608486D02*
X277486618Y-66570391D01*
X277486618Y-66570391D02*
X277562809Y-66532296D01*
X278324714Y-66532296D02*
X278400904Y-66532296D01*
X278400904Y-66532296D02*
X278477095Y-66570391D01*
X278477095Y-66570391D02*
X278515190Y-66608486D01*
X278515190Y-66608486D02*
X278553285Y-66684677D01*
X278553285Y-66684677D02*
X278591380Y-66837058D01*
X278591380Y-66837058D02*
X278591380Y-67027534D01*
X278591380Y-67027534D02*
X278553285Y-67179915D01*
X278553285Y-67179915D02*
X278515190Y-67256105D01*
X278515190Y-67256105D02*
X278477095Y-67294201D01*
X278477095Y-67294201D02*
X278400904Y-67332296D01*
X278400904Y-67332296D02*
X278324714Y-67332296D01*
X278324714Y-67332296D02*
X278248523Y-67294201D01*
X278248523Y-67294201D02*
X278210428Y-67256105D01*
X278210428Y-67256105D02*
X278172333Y-67179915D01*
X278172333Y-67179915D02*
X278134237Y-67027534D01*
X278134237Y-67027534D02*
X278134237Y-66837058D01*
X278134237Y-66837058D02*
X278172333Y-66684677D01*
X278172333Y-66684677D02*
X278210428Y-66608486D01*
X278210428Y-66608486D02*
X278248523Y-66570391D01*
X278248523Y-66570391D02*
X278324714Y-66532296D01*
X278896142Y-66608486D02*
X278934238Y-66570391D01*
X278934238Y-66570391D02*
X279010428Y-66532296D01*
X279010428Y-66532296D02*
X279200904Y-66532296D01*
X279200904Y-66532296D02*
X279277095Y-66570391D01*
X279277095Y-66570391D02*
X279315190Y-66608486D01*
X279315190Y-66608486D02*
X279353285Y-66684677D01*
X279353285Y-66684677D02*
X279353285Y-66760867D01*
X279353285Y-66760867D02*
X279315190Y-66875153D01*
X279315190Y-66875153D02*
X278858047Y-67332296D01*
X278858047Y-67332296D02*
X279353285Y-67332296D01*
X277562809Y-61452296D02*
X277638999Y-61452296D01*
X277638999Y-61452296D02*
X277715190Y-61490391D01*
X277715190Y-61490391D02*
X277753285Y-61528486D01*
X277753285Y-61528486D02*
X277791380Y-61604677D01*
X277791380Y-61604677D02*
X277829475Y-61757058D01*
X277829475Y-61757058D02*
X277829475Y-61947534D01*
X277829475Y-61947534D02*
X277791380Y-62099915D01*
X277791380Y-62099915D02*
X277753285Y-62176105D01*
X277753285Y-62176105D02*
X277715190Y-62214201D01*
X277715190Y-62214201D02*
X277638999Y-62252296D01*
X277638999Y-62252296D02*
X277562809Y-62252296D01*
X277562809Y-62252296D02*
X277486618Y-62214201D01*
X277486618Y-62214201D02*
X277448523Y-62176105D01*
X277448523Y-62176105D02*
X277410428Y-62099915D01*
X277410428Y-62099915D02*
X277372332Y-61947534D01*
X277372332Y-61947534D02*
X277372332Y-61757058D01*
X277372332Y-61757058D02*
X277410428Y-61604677D01*
X277410428Y-61604677D02*
X277448523Y-61528486D01*
X277448523Y-61528486D02*
X277486618Y-61490391D01*
X277486618Y-61490391D02*
X277562809Y-61452296D01*
X278096142Y-61452296D02*
X278591380Y-61452296D01*
X278591380Y-61452296D02*
X278324714Y-61757058D01*
X278324714Y-61757058D02*
X278438999Y-61757058D01*
X278438999Y-61757058D02*
X278515190Y-61795153D01*
X278515190Y-61795153D02*
X278553285Y-61833248D01*
X278553285Y-61833248D02*
X278591380Y-61909439D01*
X278591380Y-61909439D02*
X278591380Y-62099915D01*
X278591380Y-62099915D02*
X278553285Y-62176105D01*
X278553285Y-62176105D02*
X278515190Y-62214201D01*
X278515190Y-62214201D02*
X278438999Y-62252296D01*
X278438999Y-62252296D02*
X278210428Y-62252296D01*
X278210428Y-62252296D02*
X278134237Y-62214201D01*
X278134237Y-62214201D02*
X278096142Y-62176105D01*
X279353285Y-62252296D02*
X278896142Y-62252296D01*
X279124714Y-62252296D02*
X279124714Y-61452296D01*
X279124714Y-61452296D02*
X279048523Y-61566581D01*
X279048523Y-61566581D02*
X278972333Y-61642772D01*
X278972333Y-61642772D02*
X278896142Y-61680867D01*
X288637190Y-61462296D02*
X288713380Y-61462296D01*
X288713380Y-61462296D02*
X288789571Y-61500391D01*
X288789571Y-61500391D02*
X288827666Y-61538486D01*
X288827666Y-61538486D02*
X288865761Y-61614677D01*
X288865761Y-61614677D02*
X288903856Y-61767058D01*
X288903856Y-61767058D02*
X288903856Y-61957534D01*
X288903856Y-61957534D02*
X288865761Y-62109915D01*
X288865761Y-62109915D02*
X288827666Y-62186105D01*
X288827666Y-62186105D02*
X288789571Y-62224201D01*
X288789571Y-62224201D02*
X288713380Y-62262296D01*
X288713380Y-62262296D02*
X288637190Y-62262296D01*
X288637190Y-62262296D02*
X288560999Y-62224201D01*
X288560999Y-62224201D02*
X288522904Y-62186105D01*
X288522904Y-62186105D02*
X288484809Y-62109915D01*
X288484809Y-62109915D02*
X288446713Y-61957534D01*
X288446713Y-61957534D02*
X288446713Y-61767058D01*
X288446713Y-61767058D02*
X288484809Y-61614677D01*
X288484809Y-61614677D02*
X288522904Y-61538486D01*
X288522904Y-61538486D02*
X288560999Y-61500391D01*
X288560999Y-61500391D02*
X288637190Y-61462296D01*
X289665761Y-62262296D02*
X289208618Y-62262296D01*
X289437190Y-62262296D02*
X289437190Y-61462296D01*
X289437190Y-61462296D02*
X289360999Y-61576581D01*
X289360999Y-61576581D02*
X289284809Y-61652772D01*
X289284809Y-61652772D02*
X289208618Y-61690867D01*
X289932428Y-61462296D02*
X290465762Y-61462296D01*
X290465762Y-61462296D02*
X290122904Y-62262296D01*
X277829475Y-72412296D02*
X277372332Y-72412296D01*
X277600904Y-72412296D02*
X277600904Y-71612296D01*
X277600904Y-71612296D02*
X277524713Y-71726581D01*
X277524713Y-71726581D02*
X277448523Y-71802772D01*
X277448523Y-71802772D02*
X277372332Y-71840867D01*
X278591380Y-72412296D02*
X278134237Y-72412296D01*
X278362809Y-72412296D02*
X278362809Y-71612296D01*
X278362809Y-71612296D02*
X278286618Y-71726581D01*
X278286618Y-71726581D02*
X278210428Y-71802772D01*
X278210428Y-71802772D02*
X278134237Y-71840867D01*
X278858047Y-71612296D02*
X279353285Y-71612296D01*
X279353285Y-71612296D02*
X279086619Y-71917058D01*
X279086619Y-71917058D02*
X279200904Y-71917058D01*
X279200904Y-71917058D02*
X279277095Y-71955153D01*
X279277095Y-71955153D02*
X279315190Y-71993248D01*
X279315190Y-71993248D02*
X279353285Y-72069439D01*
X279353285Y-72069439D02*
X279353285Y-72259915D01*
X279353285Y-72259915D02*
X279315190Y-72336105D01*
X279315190Y-72336105D02*
X279277095Y-72374201D01*
X279277095Y-72374201D02*
X279200904Y-72412296D01*
X279200904Y-72412296D02*
X278972333Y-72412296D01*
X278972333Y-72412296D02*
X278896142Y-72374201D01*
X278896142Y-72374201D02*
X278858047Y-72336105D01*
X288637190Y-53762296D02*
X288713380Y-53762296D01*
X288713380Y-53762296D02*
X288789571Y-53800391D01*
X288789571Y-53800391D02*
X288827666Y-53838486D01*
X288827666Y-53838486D02*
X288865761Y-53914677D01*
X288865761Y-53914677D02*
X288903856Y-54067058D01*
X288903856Y-54067058D02*
X288903856Y-54257534D01*
X288903856Y-54257534D02*
X288865761Y-54409915D01*
X288865761Y-54409915D02*
X288827666Y-54486105D01*
X288827666Y-54486105D02*
X288789571Y-54524201D01*
X288789571Y-54524201D02*
X288713380Y-54562296D01*
X288713380Y-54562296D02*
X288637190Y-54562296D01*
X288637190Y-54562296D02*
X288560999Y-54524201D01*
X288560999Y-54524201D02*
X288522904Y-54486105D01*
X288522904Y-54486105D02*
X288484809Y-54409915D01*
X288484809Y-54409915D02*
X288446713Y-54257534D01*
X288446713Y-54257534D02*
X288446713Y-54067058D01*
X288446713Y-54067058D02*
X288484809Y-53914677D01*
X288484809Y-53914677D02*
X288522904Y-53838486D01*
X288522904Y-53838486D02*
X288560999Y-53800391D01*
X288560999Y-53800391D02*
X288637190Y-53762296D01*
X289399095Y-53762296D02*
X289475285Y-53762296D01*
X289475285Y-53762296D02*
X289551476Y-53800391D01*
X289551476Y-53800391D02*
X289589571Y-53838486D01*
X289589571Y-53838486D02*
X289627666Y-53914677D01*
X289627666Y-53914677D02*
X289665761Y-54067058D01*
X289665761Y-54067058D02*
X289665761Y-54257534D01*
X289665761Y-54257534D02*
X289627666Y-54409915D01*
X289627666Y-54409915D02*
X289589571Y-54486105D01*
X289589571Y-54486105D02*
X289551476Y-54524201D01*
X289551476Y-54524201D02*
X289475285Y-54562296D01*
X289475285Y-54562296D02*
X289399095Y-54562296D01*
X289399095Y-54562296D02*
X289322904Y-54524201D01*
X289322904Y-54524201D02*
X289284809Y-54486105D01*
X289284809Y-54486105D02*
X289246714Y-54409915D01*
X289246714Y-54409915D02*
X289208618Y-54257534D01*
X289208618Y-54257534D02*
X289208618Y-54067058D01*
X289208618Y-54067058D02*
X289246714Y-53914677D01*
X289246714Y-53914677D02*
X289284809Y-53838486D01*
X289284809Y-53838486D02*
X289322904Y-53800391D01*
X289322904Y-53800391D02*
X289399095Y-53762296D01*
X290122904Y-54105153D02*
X290046714Y-54067058D01*
X290046714Y-54067058D02*
X290008619Y-54028962D01*
X290008619Y-54028962D02*
X289970523Y-53952772D01*
X289970523Y-53952772D02*
X289970523Y-53914677D01*
X289970523Y-53914677D02*
X290008619Y-53838486D01*
X290008619Y-53838486D02*
X290046714Y-53800391D01*
X290046714Y-53800391D02*
X290122904Y-53762296D01*
X290122904Y-53762296D02*
X290275285Y-53762296D01*
X290275285Y-53762296D02*
X290351476Y-53800391D01*
X290351476Y-53800391D02*
X290389571Y-53838486D01*
X290389571Y-53838486D02*
X290427666Y-53914677D01*
X290427666Y-53914677D02*
X290427666Y-53952772D01*
X290427666Y-53952772D02*
X290389571Y-54028962D01*
X290389571Y-54028962D02*
X290351476Y-54067058D01*
X290351476Y-54067058D02*
X290275285Y-54105153D01*
X290275285Y-54105153D02*
X290122904Y-54105153D01*
X290122904Y-54105153D02*
X290046714Y-54143248D01*
X290046714Y-54143248D02*
X290008619Y-54181343D01*
X290008619Y-54181343D02*
X289970523Y-54257534D01*
X289970523Y-54257534D02*
X289970523Y-54409915D01*
X289970523Y-54409915D02*
X290008619Y-54486105D01*
X290008619Y-54486105D02*
X290046714Y-54524201D01*
X290046714Y-54524201D02*
X290122904Y-54562296D01*
X290122904Y-54562296D02*
X290275285Y-54562296D01*
X290275285Y-54562296D02*
X290351476Y-54524201D01*
X290351476Y-54524201D02*
X290389571Y-54486105D01*
X290389571Y-54486105D02*
X290427666Y-54409915D01*
X290427666Y-54409915D02*
X290427666Y-54257534D01*
X290427666Y-54257534D02*
X290389571Y-54181343D01*
X290389571Y-54181343D02*
X290351476Y-54143248D01*
X290351476Y-54143248D02*
X290275285Y-54105153D01*
D10*
X278610285Y-78840329D02*
X278610285Y-79840329D01*
X278610285Y-78983186D02*
X278681714Y-78911758D01*
X278681714Y-78911758D02*
X278824571Y-78840329D01*
X278824571Y-78840329D02*
X279038857Y-78840329D01*
X279038857Y-78840329D02*
X279181714Y-78911758D01*
X279181714Y-78911758D02*
X279253143Y-79054615D01*
X279253143Y-79054615D02*
X279253143Y-79840329D01*
X279967428Y-79840329D02*
X279967428Y-78840329D01*
X279967428Y-78340329D02*
X279896000Y-78411758D01*
X279896000Y-78411758D02*
X279967428Y-78483186D01*
X279967428Y-78483186D02*
X280038857Y-78411758D01*
X280038857Y-78411758D02*
X279967428Y-78340329D01*
X279967428Y-78340329D02*
X279967428Y-78483186D01*
X281324572Y-79768901D02*
X281181714Y-79840329D01*
X281181714Y-79840329D02*
X280896000Y-79840329D01*
X280896000Y-79840329D02*
X280753143Y-79768901D01*
X280753143Y-79768901D02*
X280681714Y-79697472D01*
X280681714Y-79697472D02*
X280610286Y-79554615D01*
X280610286Y-79554615D02*
X280610286Y-79126043D01*
X280610286Y-79126043D02*
X280681714Y-78983186D01*
X280681714Y-78983186D02*
X280753143Y-78911758D01*
X280753143Y-78911758D02*
X280896000Y-78840329D01*
X280896000Y-78840329D02*
X281181714Y-78840329D01*
X281181714Y-78840329D02*
X281324572Y-78911758D01*
X282538857Y-79768901D02*
X282396000Y-79840329D01*
X282396000Y-79840329D02*
X282110286Y-79840329D01*
X282110286Y-79840329D02*
X281967428Y-79768901D01*
X281967428Y-79768901D02*
X281896000Y-79626043D01*
X281896000Y-79626043D02*
X281896000Y-79054615D01*
X281896000Y-79054615D02*
X281967428Y-78911758D01*
X281967428Y-78911758D02*
X282110286Y-78840329D01*
X282110286Y-78840329D02*
X282396000Y-78840329D01*
X282396000Y-78840329D02*
X282538857Y-78911758D01*
X282538857Y-78911758D02*
X282610286Y-79054615D01*
X282610286Y-79054615D02*
X282610286Y-79197472D01*
X282610286Y-79197472D02*
X281896000Y-79340329D01*
X283253142Y-79697472D02*
X283324571Y-79768901D01*
X283324571Y-79768901D02*
X283253142Y-79840329D01*
X283253142Y-79840329D02*
X283181714Y-79768901D01*
X283181714Y-79768901D02*
X283253142Y-79697472D01*
X283253142Y-79697472D02*
X283253142Y-79840329D01*
X283253142Y-79268901D02*
X283181714Y-78411758D01*
X283181714Y-78411758D02*
X283253142Y-78340329D01*
X283253142Y-78340329D02*
X283324571Y-78411758D01*
X283324571Y-78411758D02*
X283253142Y-79268901D01*
X283253142Y-79268901D02*
X283253142Y-78340329D01*
X283967428Y-78840329D02*
X283967428Y-79840329D01*
X283967428Y-78983186D02*
X284038857Y-78911758D01*
X284038857Y-78911758D02*
X284181714Y-78840329D01*
X284181714Y-78840329D02*
X284396000Y-78840329D01*
X284396000Y-78840329D02*
X284538857Y-78911758D01*
X284538857Y-78911758D02*
X284610286Y-79054615D01*
X284610286Y-79054615D02*
X284610286Y-79840329D01*
X285967429Y-79840329D02*
X285967429Y-79054615D01*
X285967429Y-79054615D02*
X285896000Y-78911758D01*
X285896000Y-78911758D02*
X285753143Y-78840329D01*
X285753143Y-78840329D02*
X285467429Y-78840329D01*
X285467429Y-78840329D02*
X285324571Y-78911758D01*
X285967429Y-79768901D02*
X285824571Y-79840329D01*
X285824571Y-79840329D02*
X285467429Y-79840329D01*
X285467429Y-79840329D02*
X285324571Y-79768901D01*
X285324571Y-79768901D02*
X285253143Y-79626043D01*
X285253143Y-79626043D02*
X285253143Y-79483186D01*
X285253143Y-79483186D02*
X285324571Y-79340329D01*
X285324571Y-79340329D02*
X285467429Y-79268901D01*
X285467429Y-79268901D02*
X285824571Y-79268901D01*
X285824571Y-79268901D02*
X285967429Y-79197472D01*
X286681714Y-78840329D02*
X286681714Y-79840329D01*
X286681714Y-78983186D02*
X286753143Y-78911758D01*
X286753143Y-78911758D02*
X286896000Y-78840329D01*
X286896000Y-78840329D02*
X287110286Y-78840329D01*
X287110286Y-78840329D02*
X287253143Y-78911758D01*
X287253143Y-78911758D02*
X287324572Y-79054615D01*
X287324572Y-79054615D02*
X287324572Y-79840329D01*
X288253143Y-79840329D02*
X288110286Y-79768901D01*
X288110286Y-79768901D02*
X288038857Y-79697472D01*
X288038857Y-79697472D02*
X287967429Y-79554615D01*
X287967429Y-79554615D02*
X287967429Y-79126043D01*
X287967429Y-79126043D02*
X288038857Y-78983186D01*
X288038857Y-78983186D02*
X288110286Y-78911758D01*
X288110286Y-78911758D02*
X288253143Y-78840329D01*
X288253143Y-78840329D02*
X288467429Y-78840329D01*
X288467429Y-78840329D02*
X288610286Y-78911758D01*
X288610286Y-78911758D02*
X288681715Y-78983186D01*
X288681715Y-78983186D02*
X288753143Y-79126043D01*
X288753143Y-79126043D02*
X288753143Y-79554615D01*
X288753143Y-79554615D02*
X288681715Y-79697472D01*
X288681715Y-79697472D02*
X288610286Y-79768901D01*
X288610286Y-79768901D02*
X288467429Y-79840329D01*
X288467429Y-79840329D02*
X288253143Y-79840329D01*
D11*
X277829475Y-74952296D02*
X277372332Y-74952296D01*
X277600904Y-74952296D02*
X277600904Y-74152296D01*
X277600904Y-74152296D02*
X277524713Y-74266581D01*
X277524713Y-74266581D02*
X277448523Y-74342772D01*
X277448523Y-74342772D02*
X277372332Y-74380867D01*
X278591380Y-74952296D02*
X278134237Y-74952296D01*
X278362809Y-74952296D02*
X278362809Y-74152296D01*
X278362809Y-74152296D02*
X278286618Y-74266581D01*
X278286618Y-74266581D02*
X278210428Y-74342772D01*
X278210428Y-74342772D02*
X278134237Y-74380867D01*
X279353285Y-74952296D02*
X278896142Y-74952296D01*
X279124714Y-74952296D02*
X279124714Y-74152296D01*
X279124714Y-74152296D02*
X279048523Y-74266581D01*
X279048523Y-74266581D02*
X278972333Y-74342772D01*
X278972333Y-74342772D02*
X278896142Y-74380867D01*
X288751476Y-56410391D02*
X288675286Y-56372296D01*
X288675286Y-56372296D02*
X288561000Y-56372296D01*
X288561000Y-56372296D02*
X288446714Y-56410391D01*
X288446714Y-56410391D02*
X288370524Y-56486581D01*
X288370524Y-56486581D02*
X288332429Y-56562772D01*
X288332429Y-56562772D02*
X288294333Y-56715153D01*
X288294333Y-56715153D02*
X288294333Y-56829439D01*
X288294333Y-56829439D02*
X288332429Y-56981820D01*
X288332429Y-56981820D02*
X288370524Y-57058010D01*
X288370524Y-57058010D02*
X288446714Y-57134201D01*
X288446714Y-57134201D02*
X288561000Y-57172296D01*
X288561000Y-57172296D02*
X288637191Y-57172296D01*
X288637191Y-57172296D02*
X288751476Y-57134201D01*
X288751476Y-57134201D02*
X288789572Y-57096105D01*
X288789572Y-57096105D02*
X288789572Y-56829439D01*
X288789572Y-56829439D02*
X288637191Y-56829439D01*
X289132429Y-57172296D02*
X289132429Y-56372296D01*
X289132429Y-56372296D02*
X289589572Y-57172296D01*
X289589572Y-57172296D02*
X289589572Y-56372296D01*
X289970524Y-57172296D02*
X289970524Y-56372296D01*
X289970524Y-56372296D02*
X290161000Y-56372296D01*
X290161000Y-56372296D02*
X290275286Y-56410391D01*
X290275286Y-56410391D02*
X290351476Y-56486581D01*
X290351476Y-56486581D02*
X290389571Y-56562772D01*
X290389571Y-56562772D02*
X290427667Y-56715153D01*
X290427667Y-56715153D02*
X290427667Y-56829439D01*
X290427667Y-56829439D02*
X290389571Y-56981820D01*
X290389571Y-56981820D02*
X290351476Y-57058010D01*
X290351476Y-57058010D02*
X290275286Y-57134201D01*
X290275286Y-57134201D02*
X290161000Y-57172296D01*
X290161000Y-57172296D02*
X289970524Y-57172296D01*
X288637190Y-51292296D02*
X288713380Y-51292296D01*
X288713380Y-51292296D02*
X288789571Y-51330391D01*
X288789571Y-51330391D02*
X288827666Y-51368486D01*
X288827666Y-51368486D02*
X288865761Y-51444677D01*
X288865761Y-51444677D02*
X288903856Y-51597058D01*
X288903856Y-51597058D02*
X288903856Y-51787534D01*
X288903856Y-51787534D02*
X288865761Y-51939915D01*
X288865761Y-51939915D02*
X288827666Y-52016105D01*
X288827666Y-52016105D02*
X288789571Y-52054201D01*
X288789571Y-52054201D02*
X288713380Y-52092296D01*
X288713380Y-52092296D02*
X288637190Y-52092296D01*
X288637190Y-52092296D02*
X288560999Y-52054201D01*
X288560999Y-52054201D02*
X288522904Y-52016105D01*
X288522904Y-52016105D02*
X288484809Y-51939915D01*
X288484809Y-51939915D02*
X288446713Y-51787534D01*
X288446713Y-51787534D02*
X288446713Y-51597058D01*
X288446713Y-51597058D02*
X288484809Y-51444677D01*
X288484809Y-51444677D02*
X288522904Y-51368486D01*
X288522904Y-51368486D02*
X288560999Y-51330391D01*
X288560999Y-51330391D02*
X288637190Y-51292296D01*
X289399095Y-51292296D02*
X289475285Y-51292296D01*
X289475285Y-51292296D02*
X289551476Y-51330391D01*
X289551476Y-51330391D02*
X289589571Y-51368486D01*
X289589571Y-51368486D02*
X289627666Y-51444677D01*
X289627666Y-51444677D02*
X289665761Y-51597058D01*
X289665761Y-51597058D02*
X289665761Y-51787534D01*
X289665761Y-51787534D02*
X289627666Y-51939915D01*
X289627666Y-51939915D02*
X289589571Y-52016105D01*
X289589571Y-52016105D02*
X289551476Y-52054201D01*
X289551476Y-52054201D02*
X289475285Y-52092296D01*
X289475285Y-52092296D02*
X289399095Y-52092296D01*
X289399095Y-52092296D02*
X289322904Y-52054201D01*
X289322904Y-52054201D02*
X289284809Y-52016105D01*
X289284809Y-52016105D02*
X289246714Y-51939915D01*
X289246714Y-51939915D02*
X289208618Y-51787534D01*
X289208618Y-51787534D02*
X289208618Y-51597058D01*
X289208618Y-51597058D02*
X289246714Y-51444677D01*
X289246714Y-51444677D02*
X289284809Y-51368486D01*
X289284809Y-51368486D02*
X289322904Y-51330391D01*
X289322904Y-51330391D02*
X289399095Y-51292296D01*
X290351476Y-51292296D02*
X290199095Y-51292296D01*
X290199095Y-51292296D02*
X290122904Y-51330391D01*
X290122904Y-51330391D02*
X290084809Y-51368486D01*
X290084809Y-51368486D02*
X290008619Y-51482772D01*
X290008619Y-51482772D02*
X289970523Y-51635153D01*
X289970523Y-51635153D02*
X289970523Y-51939915D01*
X289970523Y-51939915D02*
X290008619Y-52016105D01*
X290008619Y-52016105D02*
X290046714Y-52054201D01*
X290046714Y-52054201D02*
X290122904Y-52092296D01*
X290122904Y-52092296D02*
X290275285Y-52092296D01*
X290275285Y-52092296D02*
X290351476Y-52054201D01*
X290351476Y-52054201D02*
X290389571Y-52016105D01*
X290389571Y-52016105D02*
X290427666Y-51939915D01*
X290427666Y-51939915D02*
X290427666Y-51749439D01*
X290427666Y-51749439D02*
X290389571Y-51673248D01*
X290389571Y-51673248D02*
X290351476Y-51635153D01*
X290351476Y-51635153D02*
X290275285Y-51597058D01*
X290275285Y-51597058D02*
X290122904Y-51597058D01*
X290122904Y-51597058D02*
X290046714Y-51635153D01*
X290046714Y-51635153D02*
X290008619Y-51673248D01*
X290008619Y-51673248D02*
X289970523Y-51749439D01*
X277562809Y-63992296D02*
X277638999Y-63992296D01*
X277638999Y-63992296D02*
X277715190Y-64030391D01*
X277715190Y-64030391D02*
X277753285Y-64068486D01*
X277753285Y-64068486D02*
X277791380Y-64144677D01*
X277791380Y-64144677D02*
X277829475Y-64297058D01*
X277829475Y-64297058D02*
X277829475Y-64487534D01*
X277829475Y-64487534D02*
X277791380Y-64639915D01*
X277791380Y-64639915D02*
X277753285Y-64716105D01*
X277753285Y-64716105D02*
X277715190Y-64754201D01*
X277715190Y-64754201D02*
X277638999Y-64792296D01*
X277638999Y-64792296D02*
X277562809Y-64792296D01*
X277562809Y-64792296D02*
X277486618Y-64754201D01*
X277486618Y-64754201D02*
X277448523Y-64716105D01*
X277448523Y-64716105D02*
X277410428Y-64639915D01*
X277410428Y-64639915D02*
X277372332Y-64487534D01*
X277372332Y-64487534D02*
X277372332Y-64297058D01*
X277372332Y-64297058D02*
X277410428Y-64144677D01*
X277410428Y-64144677D02*
X277448523Y-64068486D01*
X277448523Y-64068486D02*
X277486618Y-64030391D01*
X277486618Y-64030391D02*
X277562809Y-63992296D01*
X278134237Y-64068486D02*
X278172333Y-64030391D01*
X278172333Y-64030391D02*
X278248523Y-63992296D01*
X278248523Y-63992296D02*
X278438999Y-63992296D01*
X278438999Y-63992296D02*
X278515190Y-64030391D01*
X278515190Y-64030391D02*
X278553285Y-64068486D01*
X278553285Y-64068486D02*
X278591380Y-64144677D01*
X278591380Y-64144677D02*
X278591380Y-64220867D01*
X278591380Y-64220867D02*
X278553285Y-64335153D01*
X278553285Y-64335153D02*
X278096142Y-64792296D01*
X278096142Y-64792296D02*
X278591380Y-64792296D01*
X278972333Y-64792296D02*
X279124714Y-64792296D01*
X279124714Y-64792296D02*
X279200904Y-64754201D01*
X279200904Y-64754201D02*
X279239000Y-64716105D01*
X279239000Y-64716105D02*
X279315190Y-64601820D01*
X279315190Y-64601820D02*
X279353285Y-64449439D01*
X279353285Y-64449439D02*
X279353285Y-64144677D01*
X279353285Y-64144677D02*
X279315190Y-64068486D01*
X279315190Y-64068486D02*
X279277095Y-64030391D01*
X279277095Y-64030391D02*
X279200904Y-63992296D01*
X279200904Y-63992296D02*
X279048523Y-63992296D01*
X279048523Y-63992296D02*
X278972333Y-64030391D01*
X278972333Y-64030391D02*
X278934238Y-64068486D01*
X278934238Y-64068486D02*
X278896142Y-64144677D01*
X278896142Y-64144677D02*
X278896142Y-64335153D01*
X278896142Y-64335153D02*
X278934238Y-64411343D01*
X278934238Y-64411343D02*
X278972333Y-64449439D01*
X278972333Y-64449439D02*
X279048523Y-64487534D01*
X279048523Y-64487534D02*
X279200904Y-64487534D01*
X279200904Y-64487534D02*
X279277095Y-64449439D01*
X279277095Y-64449439D02*
X279315190Y-64411343D01*
X279315190Y-64411343D02*
X279353285Y-64335153D01*
X288637190Y-66562296D02*
X288713380Y-66562296D01*
X288713380Y-66562296D02*
X288789571Y-66600391D01*
X288789571Y-66600391D02*
X288827666Y-66638486D01*
X288827666Y-66638486D02*
X288865761Y-66714677D01*
X288865761Y-66714677D02*
X288903856Y-66867058D01*
X288903856Y-66867058D02*
X288903856Y-67057534D01*
X288903856Y-67057534D02*
X288865761Y-67209915D01*
X288865761Y-67209915D02*
X288827666Y-67286105D01*
X288827666Y-67286105D02*
X288789571Y-67324201D01*
X288789571Y-67324201D02*
X288713380Y-67362296D01*
X288713380Y-67362296D02*
X288637190Y-67362296D01*
X288637190Y-67362296D02*
X288560999Y-67324201D01*
X288560999Y-67324201D02*
X288522904Y-67286105D01*
X288522904Y-67286105D02*
X288484809Y-67209915D01*
X288484809Y-67209915D02*
X288446713Y-67057534D01*
X288446713Y-67057534D02*
X288446713Y-66867058D01*
X288446713Y-66867058D02*
X288484809Y-66714677D01*
X288484809Y-66714677D02*
X288522904Y-66638486D01*
X288522904Y-66638486D02*
X288560999Y-66600391D01*
X288560999Y-66600391D02*
X288637190Y-66562296D01*
X289208618Y-66638486D02*
X289246714Y-66600391D01*
X289246714Y-66600391D02*
X289322904Y-66562296D01*
X289322904Y-66562296D02*
X289513380Y-66562296D01*
X289513380Y-66562296D02*
X289589571Y-66600391D01*
X289589571Y-66600391D02*
X289627666Y-66638486D01*
X289627666Y-66638486D02*
X289665761Y-66714677D01*
X289665761Y-66714677D02*
X289665761Y-66790867D01*
X289665761Y-66790867D02*
X289627666Y-66905153D01*
X289627666Y-66905153D02*
X289170523Y-67362296D01*
X289170523Y-67362296D02*
X289665761Y-67362296D01*
X289970523Y-66638486D02*
X290008619Y-66600391D01*
X290008619Y-66600391D02*
X290084809Y-66562296D01*
X290084809Y-66562296D02*
X290275285Y-66562296D01*
X290275285Y-66562296D02*
X290351476Y-66600391D01*
X290351476Y-66600391D02*
X290389571Y-66638486D01*
X290389571Y-66638486D02*
X290427666Y-66714677D01*
X290427666Y-66714677D02*
X290427666Y-66790867D01*
X290427666Y-66790867D02*
X290389571Y-66905153D01*
X290389571Y-66905153D02*
X289932428Y-67362296D01*
X289932428Y-67362296D02*
X290427666Y-67362296D01*
X288903856Y-72412296D02*
X288446713Y-72412296D01*
X288675285Y-72412296D02*
X288675285Y-71612296D01*
X288675285Y-71612296D02*
X288599094Y-71726581D01*
X288599094Y-71726581D02*
X288522904Y-71802772D01*
X288522904Y-71802772D02*
X288446713Y-71840867D01*
X289399095Y-71612296D02*
X289475285Y-71612296D01*
X289475285Y-71612296D02*
X289551476Y-71650391D01*
X289551476Y-71650391D02*
X289589571Y-71688486D01*
X289589571Y-71688486D02*
X289627666Y-71764677D01*
X289627666Y-71764677D02*
X289665761Y-71917058D01*
X289665761Y-71917058D02*
X289665761Y-72107534D01*
X289665761Y-72107534D02*
X289627666Y-72259915D01*
X289627666Y-72259915D02*
X289589571Y-72336105D01*
X289589571Y-72336105D02*
X289551476Y-72374201D01*
X289551476Y-72374201D02*
X289475285Y-72412296D01*
X289475285Y-72412296D02*
X289399095Y-72412296D01*
X289399095Y-72412296D02*
X289322904Y-72374201D01*
X289322904Y-72374201D02*
X289284809Y-72336105D01*
X289284809Y-72336105D02*
X289246714Y-72259915D01*
X289246714Y-72259915D02*
X289208618Y-72107534D01*
X289208618Y-72107534D02*
X289208618Y-71917058D01*
X289208618Y-71917058D02*
X289246714Y-71764677D01*
X289246714Y-71764677D02*
X289284809Y-71688486D01*
X289284809Y-71688486D02*
X289322904Y-71650391D01*
X289322904Y-71650391D02*
X289399095Y-71612296D01*
X290161000Y-71612296D02*
X290237190Y-71612296D01*
X290237190Y-71612296D02*
X290313381Y-71650391D01*
X290313381Y-71650391D02*
X290351476Y-71688486D01*
X290351476Y-71688486D02*
X290389571Y-71764677D01*
X290389571Y-71764677D02*
X290427666Y-71917058D01*
X290427666Y-71917058D02*
X290427666Y-72107534D01*
X290427666Y-72107534D02*
X290389571Y-72259915D01*
X290389571Y-72259915D02*
X290351476Y-72336105D01*
X290351476Y-72336105D02*
X290313381Y-72374201D01*
X290313381Y-72374201D02*
X290237190Y-72412296D01*
X290237190Y-72412296D02*
X290161000Y-72412296D01*
X290161000Y-72412296D02*
X290084809Y-72374201D01*
X290084809Y-72374201D02*
X290046714Y-72336105D01*
X290046714Y-72336105D02*
X290008619Y-72259915D01*
X290008619Y-72259915D02*
X289970523Y-72107534D01*
X289970523Y-72107534D02*
X289970523Y-71917058D01*
X289970523Y-71917058D02*
X290008619Y-71764677D01*
X290008619Y-71764677D02*
X290046714Y-71688486D01*
X290046714Y-71688486D02*
X290084809Y-71650391D01*
X290084809Y-71650391D02*
X290161000Y-71612296D01*
X277296142Y-58912296D02*
X277562809Y-59712296D01*
X277562809Y-59712296D02*
X277829475Y-58912296D01*
X278553285Y-59636105D02*
X278515189Y-59674201D01*
X278515189Y-59674201D02*
X278400904Y-59712296D01*
X278400904Y-59712296D02*
X278324713Y-59712296D01*
X278324713Y-59712296D02*
X278210427Y-59674201D01*
X278210427Y-59674201D02*
X278134237Y-59598010D01*
X278134237Y-59598010D02*
X278096142Y-59521820D01*
X278096142Y-59521820D02*
X278058046Y-59369439D01*
X278058046Y-59369439D02*
X278058046Y-59255153D01*
X278058046Y-59255153D02*
X278096142Y-59102772D01*
X278096142Y-59102772D02*
X278134237Y-59026581D01*
X278134237Y-59026581D02*
X278210427Y-58950391D01*
X278210427Y-58950391D02*
X278324713Y-58912296D01*
X278324713Y-58912296D02*
X278400904Y-58912296D01*
X278400904Y-58912296D02*
X278515189Y-58950391D01*
X278515189Y-58950391D02*
X278553285Y-58988486D01*
X279353285Y-59636105D02*
X279315189Y-59674201D01*
X279315189Y-59674201D02*
X279200904Y-59712296D01*
X279200904Y-59712296D02*
X279124713Y-59712296D01*
X279124713Y-59712296D02*
X279010427Y-59674201D01*
X279010427Y-59674201D02*
X278934237Y-59598010D01*
X278934237Y-59598010D02*
X278896142Y-59521820D01*
X278896142Y-59521820D02*
X278858046Y-59369439D01*
X278858046Y-59369439D02*
X278858046Y-59255153D01*
X278858046Y-59255153D02*
X278896142Y-59102772D01*
X278896142Y-59102772D02*
X278934237Y-59026581D01*
X278934237Y-59026581D02*
X279010427Y-58950391D01*
X279010427Y-58950391D02*
X279124713Y-58912296D01*
X279124713Y-58912296D02*
X279200904Y-58912296D01*
X279200904Y-58912296D02*
X279315189Y-58950391D01*
X279315189Y-58950391D02*
X279353285Y-58988486D01*
X277873905Y-57172296D02*
X277607238Y-56791343D01*
X277416762Y-57172296D02*
X277416762Y-56372296D01*
X277416762Y-56372296D02*
X277721524Y-56372296D01*
X277721524Y-56372296D02*
X277797714Y-56410391D01*
X277797714Y-56410391D02*
X277835809Y-56448486D01*
X277835809Y-56448486D02*
X277873905Y-56524677D01*
X277873905Y-56524677D02*
X277873905Y-56638962D01*
X277873905Y-56638962D02*
X277835809Y-56715153D01*
X277835809Y-56715153D02*
X277797714Y-56753248D01*
X277797714Y-56753248D02*
X277721524Y-56791343D01*
X277721524Y-56791343D02*
X277416762Y-56791343D01*
X278178666Y-57134201D02*
X278292952Y-57172296D01*
X278292952Y-57172296D02*
X278483428Y-57172296D01*
X278483428Y-57172296D02*
X278559619Y-57134201D01*
X278559619Y-57134201D02*
X278597714Y-57096105D01*
X278597714Y-57096105D02*
X278635809Y-57019915D01*
X278635809Y-57019915D02*
X278635809Y-56943724D01*
X278635809Y-56943724D02*
X278597714Y-56867534D01*
X278597714Y-56867534D02*
X278559619Y-56829439D01*
X278559619Y-56829439D02*
X278483428Y-56791343D01*
X278483428Y-56791343D02*
X278331047Y-56753248D01*
X278331047Y-56753248D02*
X278254857Y-56715153D01*
X278254857Y-56715153D02*
X278216762Y-56677058D01*
X278216762Y-56677058D02*
X278178666Y-56600867D01*
X278178666Y-56600867D02*
X278178666Y-56524677D01*
X278178666Y-56524677D02*
X278216762Y-56448486D01*
X278216762Y-56448486D02*
X278254857Y-56410391D01*
X278254857Y-56410391D02*
X278331047Y-56372296D01*
X278331047Y-56372296D02*
X278521524Y-56372296D01*
X278521524Y-56372296D02*
X278635809Y-56410391D01*
X278864381Y-56372296D02*
X279321524Y-56372296D01*
X279092952Y-57172296D02*
X279092952Y-56372296D01*
X288751475Y-58950391D02*
X288675285Y-58912296D01*
X288675285Y-58912296D02*
X288560999Y-58912296D01*
X288560999Y-58912296D02*
X288446713Y-58950391D01*
X288446713Y-58950391D02*
X288370523Y-59026581D01*
X288370523Y-59026581D02*
X288332428Y-59102772D01*
X288332428Y-59102772D02*
X288294332Y-59255153D01*
X288294332Y-59255153D02*
X288294332Y-59369439D01*
X288294332Y-59369439D02*
X288332428Y-59521820D01*
X288332428Y-59521820D02*
X288370523Y-59598010D01*
X288370523Y-59598010D02*
X288446713Y-59674201D01*
X288446713Y-59674201D02*
X288560999Y-59712296D01*
X288560999Y-59712296D02*
X288637190Y-59712296D01*
X288637190Y-59712296D02*
X288751475Y-59674201D01*
X288751475Y-59674201D02*
X288789571Y-59636105D01*
X288789571Y-59636105D02*
X288789571Y-59369439D01*
X288789571Y-59369439D02*
X288637190Y-59369439D01*
X289132428Y-59712296D02*
X289132428Y-58912296D01*
X289132428Y-58912296D02*
X289589571Y-59712296D01*
X289589571Y-59712296D02*
X289589571Y-58912296D01*
X289970523Y-59712296D02*
X289970523Y-58912296D01*
X289970523Y-58912296D02*
X290160999Y-58912296D01*
X290160999Y-58912296D02*
X290275285Y-58950391D01*
X290275285Y-58950391D02*
X290351475Y-59026581D01*
X290351475Y-59026581D02*
X290389570Y-59102772D01*
X290389570Y-59102772D02*
X290427666Y-59255153D01*
X290427666Y-59255153D02*
X290427666Y-59369439D01*
X290427666Y-59369439D02*
X290389570Y-59521820D01*
X290389570Y-59521820D02*
X290351475Y-59598010D01*
X290351475Y-59598010D02*
X290275285Y-59674201D01*
X290275285Y-59674201D02*
X290160999Y-59712296D01*
X290160999Y-59712296D02*
X289970523Y-59712296D01*
X277873904Y-52092296D02*
X277607237Y-51711343D01*
X277416761Y-52092296D02*
X277416761Y-51292296D01*
X277416761Y-51292296D02*
X277721523Y-51292296D01*
X277721523Y-51292296D02*
X277797713Y-51330391D01*
X277797713Y-51330391D02*
X277835808Y-51368486D01*
X277835808Y-51368486D02*
X277873904Y-51444677D01*
X277873904Y-51444677D02*
X277873904Y-51558962D01*
X277873904Y-51558962D02*
X277835808Y-51635153D01*
X277835808Y-51635153D02*
X277797713Y-51673248D01*
X277797713Y-51673248D02*
X277721523Y-51711343D01*
X277721523Y-51711343D02*
X277416761Y-51711343D01*
X278178665Y-51863724D02*
X278559618Y-51863724D01*
X278102475Y-52092296D02*
X278369142Y-51292296D01*
X278369142Y-51292296D02*
X278635808Y-52092296D01*
X278826284Y-51292296D02*
X279016760Y-52092296D01*
X279016760Y-52092296D02*
X279169141Y-51520867D01*
X279169141Y-51520867D02*
X279321522Y-52092296D01*
X279321522Y-52092296D02*
X279511999Y-51292296D01*
X277835809Y-53870391D02*
X277759619Y-53832296D01*
X277759619Y-53832296D02*
X277645333Y-53832296D01*
X277645333Y-53832296D02*
X277531047Y-53870391D01*
X277531047Y-53870391D02*
X277454857Y-53946581D01*
X277454857Y-53946581D02*
X277416762Y-54022772D01*
X277416762Y-54022772D02*
X277378666Y-54175153D01*
X277378666Y-54175153D02*
X277378666Y-54289439D01*
X277378666Y-54289439D02*
X277416762Y-54441820D01*
X277416762Y-54441820D02*
X277454857Y-54518010D01*
X277454857Y-54518010D02*
X277531047Y-54594201D01*
X277531047Y-54594201D02*
X277645333Y-54632296D01*
X277645333Y-54632296D02*
X277721524Y-54632296D01*
X277721524Y-54632296D02*
X277835809Y-54594201D01*
X277835809Y-54594201D02*
X277873905Y-54556105D01*
X277873905Y-54556105D02*
X277873905Y-54289439D01*
X277873905Y-54289439D02*
X277721524Y-54289439D01*
X278216762Y-54632296D02*
X278216762Y-53832296D01*
X278216762Y-53832296D02*
X278673905Y-54632296D01*
X278673905Y-54632296D02*
X278673905Y-53832296D01*
X279054857Y-54632296D02*
X279054857Y-53832296D01*
X279054857Y-53832296D02*
X279245333Y-53832296D01*
X279245333Y-53832296D02*
X279359619Y-53870391D01*
X279359619Y-53870391D02*
X279435809Y-53946581D01*
X279435809Y-53946581D02*
X279473904Y-54022772D01*
X279473904Y-54022772D02*
X279512000Y-54175153D01*
X279512000Y-54175153D02*
X279512000Y-54289439D01*
X279512000Y-54289439D02*
X279473904Y-54441820D01*
X279473904Y-54441820D02*
X279435809Y-54518010D01*
X279435809Y-54518010D02*
X279359619Y-54594201D01*
X279359619Y-54594201D02*
X279245333Y-54632296D01*
X279245333Y-54632296D02*
X279054857Y-54632296D01*
X277829475Y-69872296D02*
X277372332Y-69872296D01*
X277600904Y-69872296D02*
X277600904Y-69072296D01*
X277600904Y-69072296D02*
X277524713Y-69186581D01*
X277524713Y-69186581D02*
X277448523Y-69262772D01*
X277448523Y-69262772D02*
X277372332Y-69300867D01*
X278591380Y-69872296D02*
X278134237Y-69872296D01*
X278362809Y-69872296D02*
X278362809Y-69072296D01*
X278362809Y-69072296D02*
X278286618Y-69186581D01*
X278286618Y-69186581D02*
X278210428Y-69262772D01*
X278210428Y-69262772D02*
X278134237Y-69300867D01*
X279315190Y-69072296D02*
X278934238Y-69072296D01*
X278934238Y-69072296D02*
X278896142Y-69453248D01*
X278896142Y-69453248D02*
X278934238Y-69415153D01*
X278934238Y-69415153D02*
X279010428Y-69377058D01*
X279010428Y-69377058D02*
X279200904Y-69377058D01*
X279200904Y-69377058D02*
X279277095Y-69415153D01*
X279277095Y-69415153D02*
X279315190Y-69453248D01*
X279315190Y-69453248D02*
X279353285Y-69529439D01*
X279353285Y-69529439D02*
X279353285Y-69719915D01*
X279353285Y-69719915D02*
X279315190Y-69796105D01*
X279315190Y-69796105D02*
X279277095Y-69834201D01*
X279277095Y-69834201D02*
X279200904Y-69872296D01*
X279200904Y-69872296D02*
X279010428Y-69872296D01*
X279010428Y-69872296D02*
X278934238Y-69834201D01*
X278934238Y-69834201D02*
X278896142Y-69796105D01*
X288903856Y-77492293D02*
X288446713Y-77492293D01*
X288675285Y-77492293D02*
X288675285Y-76692293D01*
X288675285Y-76692293D02*
X288599094Y-76806578D01*
X288599094Y-76806578D02*
X288522904Y-76882769D01*
X288522904Y-76882769D02*
X288446713Y-76920864D01*
X289399095Y-76692293D02*
X289475285Y-76692293D01*
X289475285Y-76692293D02*
X289551476Y-76730388D01*
X289551476Y-76730388D02*
X289589571Y-76768483D01*
X289589571Y-76768483D02*
X289627666Y-76844674D01*
X289627666Y-76844674D02*
X289665761Y-76997055D01*
X289665761Y-76997055D02*
X289665761Y-77187531D01*
X289665761Y-77187531D02*
X289627666Y-77339912D01*
X289627666Y-77339912D02*
X289589571Y-77416102D01*
X289589571Y-77416102D02*
X289551476Y-77454198D01*
X289551476Y-77454198D02*
X289475285Y-77492293D01*
X289475285Y-77492293D02*
X289399095Y-77492293D01*
X289399095Y-77492293D02*
X289322904Y-77454198D01*
X289322904Y-77454198D02*
X289284809Y-77416102D01*
X289284809Y-77416102D02*
X289246714Y-77339912D01*
X289246714Y-77339912D02*
X289208618Y-77187531D01*
X289208618Y-77187531D02*
X289208618Y-76997055D01*
X289208618Y-76997055D02*
X289246714Y-76844674D01*
X289246714Y-76844674D02*
X289284809Y-76768483D01*
X289284809Y-76768483D02*
X289322904Y-76730388D01*
X289322904Y-76730388D02*
X289399095Y-76692293D01*
X290351476Y-76958959D02*
X290351476Y-77492293D01*
X290161000Y-76654198D02*
X289970523Y-77225626D01*
X289970523Y-77225626D02*
X290465762Y-77225626D01*
X288637190Y-64062296D02*
X288713380Y-64062296D01*
X288713380Y-64062296D02*
X288789571Y-64100391D01*
X288789571Y-64100391D02*
X288827666Y-64138486D01*
X288827666Y-64138486D02*
X288865761Y-64214677D01*
X288865761Y-64214677D02*
X288903856Y-64367058D01*
X288903856Y-64367058D02*
X288903856Y-64557534D01*
X288903856Y-64557534D02*
X288865761Y-64709915D01*
X288865761Y-64709915D02*
X288827666Y-64786105D01*
X288827666Y-64786105D02*
X288789571Y-64824201D01*
X288789571Y-64824201D02*
X288713380Y-64862296D01*
X288713380Y-64862296D02*
X288637190Y-64862296D01*
X288637190Y-64862296D02*
X288560999Y-64824201D01*
X288560999Y-64824201D02*
X288522904Y-64786105D01*
X288522904Y-64786105D02*
X288484809Y-64709915D01*
X288484809Y-64709915D02*
X288446713Y-64557534D01*
X288446713Y-64557534D02*
X288446713Y-64367058D01*
X288446713Y-64367058D02*
X288484809Y-64214677D01*
X288484809Y-64214677D02*
X288522904Y-64138486D01*
X288522904Y-64138486D02*
X288560999Y-64100391D01*
X288560999Y-64100391D02*
X288637190Y-64062296D01*
X289208618Y-64138486D02*
X289246714Y-64100391D01*
X289246714Y-64100391D02*
X289322904Y-64062296D01*
X289322904Y-64062296D02*
X289513380Y-64062296D01*
X289513380Y-64062296D02*
X289589571Y-64100391D01*
X289589571Y-64100391D02*
X289627666Y-64138486D01*
X289627666Y-64138486D02*
X289665761Y-64214677D01*
X289665761Y-64214677D02*
X289665761Y-64290867D01*
X289665761Y-64290867D02*
X289627666Y-64405153D01*
X289627666Y-64405153D02*
X289170523Y-64862296D01*
X289170523Y-64862296D02*
X289665761Y-64862296D01*
X290161000Y-64062296D02*
X290237190Y-64062296D01*
X290237190Y-64062296D02*
X290313381Y-64100391D01*
X290313381Y-64100391D02*
X290351476Y-64138486D01*
X290351476Y-64138486D02*
X290389571Y-64214677D01*
X290389571Y-64214677D02*
X290427666Y-64367058D01*
X290427666Y-64367058D02*
X290427666Y-64557534D01*
X290427666Y-64557534D02*
X290389571Y-64709915D01*
X290389571Y-64709915D02*
X290351476Y-64786105D01*
X290351476Y-64786105D02*
X290313381Y-64824201D01*
X290313381Y-64824201D02*
X290237190Y-64862296D01*
X290237190Y-64862296D02*
X290161000Y-64862296D01*
X290161000Y-64862296D02*
X290084809Y-64824201D01*
X290084809Y-64824201D02*
X290046714Y-64786105D01*
X290046714Y-64786105D02*
X290008619Y-64709915D01*
X290008619Y-64709915D02*
X289970523Y-64557534D01*
X289970523Y-64557534D02*
X289970523Y-64367058D01*
X289970523Y-64367058D02*
X290008619Y-64214677D01*
X290008619Y-64214677D02*
X290046714Y-64138486D01*
X290046714Y-64138486D02*
X290084809Y-64100391D01*
X290084809Y-64100391D02*
X290161000Y-64062296D01*
X277562809Y-76692296D02*
X277638999Y-76692296D01*
X277638999Y-76692296D02*
X277715190Y-76730391D01*
X277715190Y-76730391D02*
X277753285Y-76768486D01*
X277753285Y-76768486D02*
X277791380Y-76844677D01*
X277791380Y-76844677D02*
X277829475Y-76997058D01*
X277829475Y-76997058D02*
X277829475Y-77187534D01*
X277829475Y-77187534D02*
X277791380Y-77339915D01*
X277791380Y-77339915D02*
X277753285Y-77416105D01*
X277753285Y-77416105D02*
X277715190Y-77454201D01*
X277715190Y-77454201D02*
X277638999Y-77492296D01*
X277638999Y-77492296D02*
X277562809Y-77492296D01*
X277562809Y-77492296D02*
X277486618Y-77454201D01*
X277486618Y-77454201D02*
X277448523Y-77416105D01*
X277448523Y-77416105D02*
X277410428Y-77339915D01*
X277410428Y-77339915D02*
X277372332Y-77187534D01*
X277372332Y-77187534D02*
X277372332Y-76997058D01*
X277372332Y-76997058D02*
X277410428Y-76844677D01*
X277410428Y-76844677D02*
X277448523Y-76768486D01*
X277448523Y-76768486D02*
X277486618Y-76730391D01*
X277486618Y-76730391D02*
X277562809Y-76692296D01*
X278591380Y-77492296D02*
X278134237Y-77492296D01*
X278362809Y-77492296D02*
X278362809Y-76692296D01*
X278362809Y-76692296D02*
X278286618Y-76806581D01*
X278286618Y-76806581D02*
X278210428Y-76882772D01*
X278210428Y-76882772D02*
X278134237Y-76920867D01*
X279086619Y-76692296D02*
X279162809Y-76692296D01*
X279162809Y-76692296D02*
X279239000Y-76730391D01*
X279239000Y-76730391D02*
X279277095Y-76768486D01*
X279277095Y-76768486D02*
X279315190Y-76844677D01*
X279315190Y-76844677D02*
X279353285Y-76997058D01*
X279353285Y-76997058D02*
X279353285Y-77187534D01*
X279353285Y-77187534D02*
X279315190Y-77339915D01*
X279315190Y-77339915D02*
X279277095Y-77416105D01*
X279277095Y-77416105D02*
X279239000Y-77454201D01*
X279239000Y-77454201D02*
X279162809Y-77492296D01*
X279162809Y-77492296D02*
X279086619Y-77492296D01*
X279086619Y-77492296D02*
X279010428Y-77454201D01*
X279010428Y-77454201D02*
X278972333Y-77416105D01*
X278972333Y-77416105D02*
X278934238Y-77339915D01*
X278934238Y-77339915D02*
X278896142Y-77187534D01*
X278896142Y-77187534D02*
X278896142Y-76997058D01*
X278896142Y-76997058D02*
X278934238Y-76844677D01*
X278934238Y-76844677D02*
X278972333Y-76768486D01*
X278972333Y-76768486D02*
X279010428Y-76730391D01*
X279010428Y-76730391D02*
X279086619Y-76692296D01*
X288637190Y-69072296D02*
X288713380Y-69072296D01*
X288713380Y-69072296D02*
X288789571Y-69110391D01*
X288789571Y-69110391D02*
X288827666Y-69148486D01*
X288827666Y-69148486D02*
X288865761Y-69224677D01*
X288865761Y-69224677D02*
X288903856Y-69377058D01*
X288903856Y-69377058D02*
X288903856Y-69567534D01*
X288903856Y-69567534D02*
X288865761Y-69719915D01*
X288865761Y-69719915D02*
X288827666Y-69796105D01*
X288827666Y-69796105D02*
X288789571Y-69834201D01*
X288789571Y-69834201D02*
X288713380Y-69872296D01*
X288713380Y-69872296D02*
X288637190Y-69872296D01*
X288637190Y-69872296D02*
X288560999Y-69834201D01*
X288560999Y-69834201D02*
X288522904Y-69796105D01*
X288522904Y-69796105D02*
X288484809Y-69719915D01*
X288484809Y-69719915D02*
X288446713Y-69567534D01*
X288446713Y-69567534D02*
X288446713Y-69377058D01*
X288446713Y-69377058D02*
X288484809Y-69224677D01*
X288484809Y-69224677D02*
X288522904Y-69148486D01*
X288522904Y-69148486D02*
X288560999Y-69110391D01*
X288560999Y-69110391D02*
X288637190Y-69072296D01*
X289208618Y-69148486D02*
X289246714Y-69110391D01*
X289246714Y-69110391D02*
X289322904Y-69072296D01*
X289322904Y-69072296D02*
X289513380Y-69072296D01*
X289513380Y-69072296D02*
X289589571Y-69110391D01*
X289589571Y-69110391D02*
X289627666Y-69148486D01*
X289627666Y-69148486D02*
X289665761Y-69224677D01*
X289665761Y-69224677D02*
X289665761Y-69300867D01*
X289665761Y-69300867D02*
X289627666Y-69415153D01*
X289627666Y-69415153D02*
X289170523Y-69872296D01*
X289170523Y-69872296D02*
X289665761Y-69872296D01*
X290351476Y-69338962D02*
X290351476Y-69872296D01*
X290161000Y-69034201D02*
X289970523Y-69605629D01*
X289970523Y-69605629D02*
X290465762Y-69605629D01*
D10*
X25120081Y-78842123D02*
X25120081Y-79842123D01*
X25120081Y-78984980D02*
X25191510Y-78913552D01*
X25191510Y-78913552D02*
X25334367Y-78842123D01*
X25334367Y-78842123D02*
X25548653Y-78842123D01*
X25548653Y-78842123D02*
X25691510Y-78913552D01*
X25691510Y-78913552D02*
X25762939Y-79056409D01*
X25762939Y-79056409D02*
X25762939Y-79842123D01*
X26477224Y-79842123D02*
X26477224Y-78842123D01*
X26477224Y-78342123D02*
X26405796Y-78413552D01*
X26405796Y-78413552D02*
X26477224Y-78484980D01*
X26477224Y-78484980D02*
X26548653Y-78413552D01*
X26548653Y-78413552D02*
X26477224Y-78342123D01*
X26477224Y-78342123D02*
X26477224Y-78484980D01*
X27834368Y-79770695D02*
X27691510Y-79842123D01*
X27691510Y-79842123D02*
X27405796Y-79842123D01*
X27405796Y-79842123D02*
X27262939Y-79770695D01*
X27262939Y-79770695D02*
X27191510Y-79699266D01*
X27191510Y-79699266D02*
X27120082Y-79556409D01*
X27120082Y-79556409D02*
X27120082Y-79127837D01*
X27120082Y-79127837D02*
X27191510Y-78984980D01*
X27191510Y-78984980D02*
X27262939Y-78913552D01*
X27262939Y-78913552D02*
X27405796Y-78842123D01*
X27405796Y-78842123D02*
X27691510Y-78842123D01*
X27691510Y-78842123D02*
X27834368Y-78913552D01*
X29048653Y-79770695D02*
X28905796Y-79842123D01*
X28905796Y-79842123D02*
X28620082Y-79842123D01*
X28620082Y-79842123D02*
X28477224Y-79770695D01*
X28477224Y-79770695D02*
X28405796Y-79627837D01*
X28405796Y-79627837D02*
X28405796Y-79056409D01*
X28405796Y-79056409D02*
X28477224Y-78913552D01*
X28477224Y-78913552D02*
X28620082Y-78842123D01*
X28620082Y-78842123D02*
X28905796Y-78842123D01*
X28905796Y-78842123D02*
X29048653Y-78913552D01*
X29048653Y-78913552D02*
X29120082Y-79056409D01*
X29120082Y-79056409D02*
X29120082Y-79199266D01*
X29120082Y-79199266D02*
X28405796Y-79342123D01*
X29762938Y-79699266D02*
X29834367Y-79770695D01*
X29834367Y-79770695D02*
X29762938Y-79842123D01*
X29762938Y-79842123D02*
X29691510Y-79770695D01*
X29691510Y-79770695D02*
X29762938Y-79699266D01*
X29762938Y-79699266D02*
X29762938Y-79842123D01*
X29762938Y-79270695D02*
X29691510Y-78413552D01*
X29691510Y-78413552D02*
X29762938Y-78342123D01*
X29762938Y-78342123D02*
X29834367Y-78413552D01*
X29834367Y-78413552D02*
X29762938Y-79270695D01*
X29762938Y-79270695D02*
X29762938Y-78342123D01*
X30477224Y-78842123D02*
X30477224Y-79842123D01*
X30477224Y-78984980D02*
X30548653Y-78913552D01*
X30548653Y-78913552D02*
X30691510Y-78842123D01*
X30691510Y-78842123D02*
X30905796Y-78842123D01*
X30905796Y-78842123D02*
X31048653Y-78913552D01*
X31048653Y-78913552D02*
X31120082Y-79056409D01*
X31120082Y-79056409D02*
X31120082Y-79842123D01*
X32477225Y-79842123D02*
X32477225Y-79056409D01*
X32477225Y-79056409D02*
X32405796Y-78913552D01*
X32405796Y-78913552D02*
X32262939Y-78842123D01*
X32262939Y-78842123D02*
X31977225Y-78842123D01*
X31977225Y-78842123D02*
X31834367Y-78913552D01*
X32477225Y-79770695D02*
X32334367Y-79842123D01*
X32334367Y-79842123D02*
X31977225Y-79842123D01*
X31977225Y-79842123D02*
X31834367Y-79770695D01*
X31834367Y-79770695D02*
X31762939Y-79627837D01*
X31762939Y-79627837D02*
X31762939Y-79484980D01*
X31762939Y-79484980D02*
X31834367Y-79342123D01*
X31834367Y-79342123D02*
X31977225Y-79270695D01*
X31977225Y-79270695D02*
X32334367Y-79270695D01*
X32334367Y-79270695D02*
X32477225Y-79199266D01*
X33191510Y-78842123D02*
X33191510Y-79842123D01*
X33191510Y-78984980D02*
X33262939Y-78913552D01*
X33262939Y-78913552D02*
X33405796Y-78842123D01*
X33405796Y-78842123D02*
X33620082Y-78842123D01*
X33620082Y-78842123D02*
X33762939Y-78913552D01*
X33762939Y-78913552D02*
X33834368Y-79056409D01*
X33834368Y-79056409D02*
X33834368Y-79842123D01*
X34762939Y-79842123D02*
X34620082Y-79770695D01*
X34620082Y-79770695D02*
X34548653Y-79699266D01*
X34548653Y-79699266D02*
X34477225Y-79556409D01*
X34477225Y-79556409D02*
X34477225Y-79127837D01*
X34477225Y-79127837D02*
X34548653Y-78984980D01*
X34548653Y-78984980D02*
X34620082Y-78913552D01*
X34620082Y-78913552D02*
X34762939Y-78842123D01*
X34762939Y-78842123D02*
X34977225Y-78842123D01*
X34977225Y-78842123D02*
X35120082Y-78913552D01*
X35120082Y-78913552D02*
X35191511Y-78984980D01*
X35191511Y-78984980D02*
X35262939Y-79127837D01*
X35262939Y-79127837D02*
X35262939Y-79556409D01*
X35262939Y-79556409D02*
X35191511Y-79699266D01*
X35191511Y-79699266D02*
X35120082Y-79770695D01*
X35120082Y-79770695D02*
X34977225Y-79842123D01*
X34977225Y-79842123D02*
X34762939Y-79842123D01*
D11*
X23831272Y-56412185D02*
X23755082Y-56374090D01*
X23755082Y-56374090D02*
X23640796Y-56374090D01*
X23640796Y-56374090D02*
X23526510Y-56412185D01*
X23526510Y-56412185D02*
X23450320Y-56488375D01*
X23450320Y-56488375D02*
X23412225Y-56564566D01*
X23412225Y-56564566D02*
X23374129Y-56716947D01*
X23374129Y-56716947D02*
X23374129Y-56831233D01*
X23374129Y-56831233D02*
X23412225Y-56983614D01*
X23412225Y-56983614D02*
X23450320Y-57059804D01*
X23450320Y-57059804D02*
X23526510Y-57135995D01*
X23526510Y-57135995D02*
X23640796Y-57174090D01*
X23640796Y-57174090D02*
X23716987Y-57174090D01*
X23716987Y-57174090D02*
X23831272Y-57135995D01*
X23831272Y-57135995D02*
X23869368Y-57097899D01*
X23869368Y-57097899D02*
X23869368Y-56831233D01*
X23869368Y-56831233D02*
X23716987Y-56831233D01*
X24212225Y-57174090D02*
X24212225Y-56374090D01*
X24212225Y-56374090D02*
X24669368Y-57174090D01*
X24669368Y-57174090D02*
X24669368Y-56374090D01*
X25050320Y-57174090D02*
X25050320Y-56374090D01*
X25050320Y-56374090D02*
X25240796Y-56374090D01*
X25240796Y-56374090D02*
X25355082Y-56412185D01*
X25355082Y-56412185D02*
X25431272Y-56488375D01*
X25431272Y-56488375D02*
X25469367Y-56564566D01*
X25469367Y-56564566D02*
X25507463Y-56716947D01*
X25507463Y-56716947D02*
X25507463Y-56831233D01*
X25507463Y-56831233D02*
X25469367Y-56983614D01*
X25469367Y-56983614D02*
X25431272Y-57059804D01*
X25431272Y-57059804D02*
X25355082Y-57135995D01*
X25355082Y-57135995D02*
X25240796Y-57174090D01*
X25240796Y-57174090D02*
X25050320Y-57174090D01*
X34638987Y-63994090D02*
X34715177Y-63994090D01*
X34715177Y-63994090D02*
X34791368Y-64032185D01*
X34791368Y-64032185D02*
X34829463Y-64070280D01*
X34829463Y-64070280D02*
X34867558Y-64146471D01*
X34867558Y-64146471D02*
X34905653Y-64298852D01*
X34905653Y-64298852D02*
X34905653Y-64489328D01*
X34905653Y-64489328D02*
X34867558Y-64641709D01*
X34867558Y-64641709D02*
X34829463Y-64717899D01*
X34829463Y-64717899D02*
X34791368Y-64755995D01*
X34791368Y-64755995D02*
X34715177Y-64794090D01*
X34715177Y-64794090D02*
X34638987Y-64794090D01*
X34638987Y-64794090D02*
X34562796Y-64755995D01*
X34562796Y-64755995D02*
X34524701Y-64717899D01*
X34524701Y-64717899D02*
X34486606Y-64641709D01*
X34486606Y-64641709D02*
X34448510Y-64489328D01*
X34448510Y-64489328D02*
X34448510Y-64298852D01*
X34448510Y-64298852D02*
X34486606Y-64146471D01*
X34486606Y-64146471D02*
X34524701Y-64070280D01*
X34524701Y-64070280D02*
X34562796Y-64032185D01*
X34562796Y-64032185D02*
X34638987Y-63994090D01*
X35210415Y-64070280D02*
X35248511Y-64032185D01*
X35248511Y-64032185D02*
X35324701Y-63994090D01*
X35324701Y-63994090D02*
X35515177Y-63994090D01*
X35515177Y-63994090D02*
X35591368Y-64032185D01*
X35591368Y-64032185D02*
X35629463Y-64070280D01*
X35629463Y-64070280D02*
X35667558Y-64146471D01*
X35667558Y-64146471D02*
X35667558Y-64222661D01*
X35667558Y-64222661D02*
X35629463Y-64336947D01*
X35629463Y-64336947D02*
X35172320Y-64794090D01*
X35172320Y-64794090D02*
X35667558Y-64794090D01*
X36048511Y-64794090D02*
X36200892Y-64794090D01*
X36200892Y-64794090D02*
X36277082Y-64755995D01*
X36277082Y-64755995D02*
X36315178Y-64717899D01*
X36315178Y-64717899D02*
X36391368Y-64603614D01*
X36391368Y-64603614D02*
X36429463Y-64451233D01*
X36429463Y-64451233D02*
X36429463Y-64146471D01*
X36429463Y-64146471D02*
X36391368Y-64070280D01*
X36391368Y-64070280D02*
X36353273Y-64032185D01*
X36353273Y-64032185D02*
X36277082Y-63994090D01*
X36277082Y-63994090D02*
X36124701Y-63994090D01*
X36124701Y-63994090D02*
X36048511Y-64032185D01*
X36048511Y-64032185D02*
X36010416Y-64070280D01*
X36010416Y-64070280D02*
X35972320Y-64146471D01*
X35972320Y-64146471D02*
X35972320Y-64336947D01*
X35972320Y-64336947D02*
X36010416Y-64413137D01*
X36010416Y-64413137D02*
X36048511Y-64451233D01*
X36048511Y-64451233D02*
X36124701Y-64489328D01*
X36124701Y-64489328D02*
X36277082Y-64489328D01*
X36277082Y-64489328D02*
X36353273Y-64451233D01*
X36353273Y-64451233D02*
X36391368Y-64413137D01*
X36391368Y-64413137D02*
X36429463Y-64336947D01*
X35051701Y-57174090D02*
X34785034Y-56793137D01*
X34594558Y-57174090D02*
X34594558Y-56374090D01*
X34594558Y-56374090D02*
X34899320Y-56374090D01*
X34899320Y-56374090D02*
X34975510Y-56412185D01*
X34975510Y-56412185D02*
X35013605Y-56450280D01*
X35013605Y-56450280D02*
X35051701Y-56526471D01*
X35051701Y-56526471D02*
X35051701Y-56640756D01*
X35051701Y-56640756D02*
X35013605Y-56716947D01*
X35013605Y-56716947D02*
X34975510Y-56755042D01*
X34975510Y-56755042D02*
X34899320Y-56793137D01*
X34899320Y-56793137D02*
X34594558Y-56793137D01*
X35356462Y-57135995D02*
X35470748Y-57174090D01*
X35470748Y-57174090D02*
X35661224Y-57174090D01*
X35661224Y-57174090D02*
X35737415Y-57135995D01*
X35737415Y-57135995D02*
X35775510Y-57097899D01*
X35775510Y-57097899D02*
X35813605Y-57021709D01*
X35813605Y-57021709D02*
X35813605Y-56945518D01*
X35813605Y-56945518D02*
X35775510Y-56869328D01*
X35775510Y-56869328D02*
X35737415Y-56831233D01*
X35737415Y-56831233D02*
X35661224Y-56793137D01*
X35661224Y-56793137D02*
X35508843Y-56755042D01*
X35508843Y-56755042D02*
X35432653Y-56716947D01*
X35432653Y-56716947D02*
X35394558Y-56678852D01*
X35394558Y-56678852D02*
X35356462Y-56602661D01*
X35356462Y-56602661D02*
X35356462Y-56526471D01*
X35356462Y-56526471D02*
X35394558Y-56450280D01*
X35394558Y-56450280D02*
X35432653Y-56412185D01*
X35432653Y-56412185D02*
X35508843Y-56374090D01*
X35508843Y-56374090D02*
X35699320Y-56374090D01*
X35699320Y-56374090D02*
X35813605Y-56412185D01*
X36042177Y-56374090D02*
X36499320Y-56374090D01*
X36270748Y-57174090D02*
X36270748Y-56374090D01*
X23564606Y-66564090D02*
X23640796Y-66564090D01*
X23640796Y-66564090D02*
X23716987Y-66602185D01*
X23716987Y-66602185D02*
X23755082Y-66640280D01*
X23755082Y-66640280D02*
X23793177Y-66716471D01*
X23793177Y-66716471D02*
X23831272Y-66868852D01*
X23831272Y-66868852D02*
X23831272Y-67059328D01*
X23831272Y-67059328D02*
X23793177Y-67211709D01*
X23793177Y-67211709D02*
X23755082Y-67287899D01*
X23755082Y-67287899D02*
X23716987Y-67325995D01*
X23716987Y-67325995D02*
X23640796Y-67364090D01*
X23640796Y-67364090D02*
X23564606Y-67364090D01*
X23564606Y-67364090D02*
X23488415Y-67325995D01*
X23488415Y-67325995D02*
X23450320Y-67287899D01*
X23450320Y-67287899D02*
X23412225Y-67211709D01*
X23412225Y-67211709D02*
X23374129Y-67059328D01*
X23374129Y-67059328D02*
X23374129Y-66868852D01*
X23374129Y-66868852D02*
X23412225Y-66716471D01*
X23412225Y-66716471D02*
X23450320Y-66640280D01*
X23450320Y-66640280D02*
X23488415Y-66602185D01*
X23488415Y-66602185D02*
X23564606Y-66564090D01*
X24136034Y-66640280D02*
X24174130Y-66602185D01*
X24174130Y-66602185D02*
X24250320Y-66564090D01*
X24250320Y-66564090D02*
X24440796Y-66564090D01*
X24440796Y-66564090D02*
X24516987Y-66602185D01*
X24516987Y-66602185D02*
X24555082Y-66640280D01*
X24555082Y-66640280D02*
X24593177Y-66716471D01*
X24593177Y-66716471D02*
X24593177Y-66792661D01*
X24593177Y-66792661D02*
X24555082Y-66906947D01*
X24555082Y-66906947D02*
X24097939Y-67364090D01*
X24097939Y-67364090D02*
X24593177Y-67364090D01*
X24897939Y-66640280D02*
X24936035Y-66602185D01*
X24936035Y-66602185D02*
X25012225Y-66564090D01*
X25012225Y-66564090D02*
X25202701Y-66564090D01*
X25202701Y-66564090D02*
X25278892Y-66602185D01*
X25278892Y-66602185D02*
X25316987Y-66640280D01*
X25316987Y-66640280D02*
X25355082Y-66716471D01*
X25355082Y-66716471D02*
X25355082Y-66792661D01*
X25355082Y-66792661D02*
X25316987Y-66906947D01*
X25316987Y-66906947D02*
X24859844Y-67364090D01*
X24859844Y-67364090D02*
X25355082Y-67364090D01*
X23831273Y-58952185D02*
X23755083Y-58914090D01*
X23755083Y-58914090D02*
X23640797Y-58914090D01*
X23640797Y-58914090D02*
X23526511Y-58952185D01*
X23526511Y-58952185D02*
X23450321Y-59028375D01*
X23450321Y-59028375D02*
X23412226Y-59104566D01*
X23412226Y-59104566D02*
X23374130Y-59256947D01*
X23374130Y-59256947D02*
X23374130Y-59371233D01*
X23374130Y-59371233D02*
X23412226Y-59523614D01*
X23412226Y-59523614D02*
X23450321Y-59599804D01*
X23450321Y-59599804D02*
X23526511Y-59675995D01*
X23526511Y-59675995D02*
X23640797Y-59714090D01*
X23640797Y-59714090D02*
X23716988Y-59714090D01*
X23716988Y-59714090D02*
X23831273Y-59675995D01*
X23831273Y-59675995D02*
X23869369Y-59637899D01*
X23869369Y-59637899D02*
X23869369Y-59371233D01*
X23869369Y-59371233D02*
X23716988Y-59371233D01*
X24212226Y-59714090D02*
X24212226Y-58914090D01*
X24212226Y-58914090D02*
X24669369Y-59714090D01*
X24669369Y-59714090D02*
X24669369Y-58914090D01*
X25050321Y-59714090D02*
X25050321Y-58914090D01*
X25050321Y-58914090D02*
X25240797Y-58914090D01*
X25240797Y-58914090D02*
X25355083Y-58952185D01*
X25355083Y-58952185D02*
X25431273Y-59028375D01*
X25431273Y-59028375D02*
X25469368Y-59104566D01*
X25469368Y-59104566D02*
X25507464Y-59256947D01*
X25507464Y-59256947D02*
X25507464Y-59371233D01*
X25507464Y-59371233D02*
X25469368Y-59523614D01*
X25469368Y-59523614D02*
X25431273Y-59599804D01*
X25431273Y-59599804D02*
X25355083Y-59675995D01*
X25355083Y-59675995D02*
X25240797Y-59714090D01*
X25240797Y-59714090D02*
X25050321Y-59714090D01*
X34372320Y-58914090D02*
X34638987Y-59714090D01*
X34638987Y-59714090D02*
X34905653Y-58914090D01*
X35629463Y-59637899D02*
X35591367Y-59675995D01*
X35591367Y-59675995D02*
X35477082Y-59714090D01*
X35477082Y-59714090D02*
X35400891Y-59714090D01*
X35400891Y-59714090D02*
X35286605Y-59675995D01*
X35286605Y-59675995D02*
X35210415Y-59599804D01*
X35210415Y-59599804D02*
X35172320Y-59523614D01*
X35172320Y-59523614D02*
X35134224Y-59371233D01*
X35134224Y-59371233D02*
X35134224Y-59256947D01*
X35134224Y-59256947D02*
X35172320Y-59104566D01*
X35172320Y-59104566D02*
X35210415Y-59028375D01*
X35210415Y-59028375D02*
X35286605Y-58952185D01*
X35286605Y-58952185D02*
X35400891Y-58914090D01*
X35400891Y-58914090D02*
X35477082Y-58914090D01*
X35477082Y-58914090D02*
X35591367Y-58952185D01*
X35591367Y-58952185D02*
X35629463Y-58990280D01*
X36429463Y-59637899D02*
X36391367Y-59675995D01*
X36391367Y-59675995D02*
X36277082Y-59714090D01*
X36277082Y-59714090D02*
X36200891Y-59714090D01*
X36200891Y-59714090D02*
X36086605Y-59675995D01*
X36086605Y-59675995D02*
X36010415Y-59599804D01*
X36010415Y-59599804D02*
X35972320Y-59523614D01*
X35972320Y-59523614D02*
X35934224Y-59371233D01*
X35934224Y-59371233D02*
X35934224Y-59256947D01*
X35934224Y-59256947D02*
X35972320Y-59104566D01*
X35972320Y-59104566D02*
X36010415Y-59028375D01*
X36010415Y-59028375D02*
X36086605Y-58952185D01*
X36086605Y-58952185D02*
X36200891Y-58914090D01*
X36200891Y-58914090D02*
X36277082Y-58914090D01*
X36277082Y-58914090D02*
X36391367Y-58952185D01*
X36391367Y-58952185D02*
X36429463Y-58990280D01*
X23831272Y-77494089D02*
X23374129Y-77494089D01*
X23602701Y-77494089D02*
X23602701Y-76694089D01*
X23602701Y-76694089D02*
X23526510Y-76808374D01*
X23526510Y-76808374D02*
X23450320Y-76884565D01*
X23450320Y-76884565D02*
X23374129Y-76922660D01*
X24326511Y-76694089D02*
X24402701Y-76694089D01*
X24402701Y-76694089D02*
X24478892Y-76732184D01*
X24478892Y-76732184D02*
X24516987Y-76770279D01*
X24516987Y-76770279D02*
X24555082Y-76846470D01*
X24555082Y-76846470D02*
X24593177Y-76998851D01*
X24593177Y-76998851D02*
X24593177Y-77189327D01*
X24593177Y-77189327D02*
X24555082Y-77341708D01*
X24555082Y-77341708D02*
X24516987Y-77417898D01*
X24516987Y-77417898D02*
X24478892Y-77455994D01*
X24478892Y-77455994D02*
X24402701Y-77494089D01*
X24402701Y-77494089D02*
X24326511Y-77494089D01*
X24326511Y-77494089D02*
X24250320Y-77455994D01*
X24250320Y-77455994D02*
X24212225Y-77417898D01*
X24212225Y-77417898D02*
X24174130Y-77341708D01*
X24174130Y-77341708D02*
X24136034Y-77189327D01*
X24136034Y-77189327D02*
X24136034Y-76998851D01*
X24136034Y-76998851D02*
X24174130Y-76846470D01*
X24174130Y-76846470D02*
X24212225Y-76770279D01*
X24212225Y-76770279D02*
X24250320Y-76732184D01*
X24250320Y-76732184D02*
X24326511Y-76694089D01*
X25278892Y-76960755D02*
X25278892Y-77494089D01*
X25088416Y-76655994D02*
X24897939Y-77227422D01*
X24897939Y-77227422D02*
X25393178Y-77227422D01*
X23564606Y-61464090D02*
X23640796Y-61464090D01*
X23640796Y-61464090D02*
X23716987Y-61502185D01*
X23716987Y-61502185D02*
X23755082Y-61540280D01*
X23755082Y-61540280D02*
X23793177Y-61616471D01*
X23793177Y-61616471D02*
X23831272Y-61768852D01*
X23831272Y-61768852D02*
X23831272Y-61959328D01*
X23831272Y-61959328D02*
X23793177Y-62111709D01*
X23793177Y-62111709D02*
X23755082Y-62187899D01*
X23755082Y-62187899D02*
X23716987Y-62225995D01*
X23716987Y-62225995D02*
X23640796Y-62264090D01*
X23640796Y-62264090D02*
X23564606Y-62264090D01*
X23564606Y-62264090D02*
X23488415Y-62225995D01*
X23488415Y-62225995D02*
X23450320Y-62187899D01*
X23450320Y-62187899D02*
X23412225Y-62111709D01*
X23412225Y-62111709D02*
X23374129Y-61959328D01*
X23374129Y-61959328D02*
X23374129Y-61768852D01*
X23374129Y-61768852D02*
X23412225Y-61616471D01*
X23412225Y-61616471D02*
X23450320Y-61540280D01*
X23450320Y-61540280D02*
X23488415Y-61502185D01*
X23488415Y-61502185D02*
X23564606Y-61464090D01*
X24593177Y-62264090D02*
X24136034Y-62264090D01*
X24364606Y-62264090D02*
X24364606Y-61464090D01*
X24364606Y-61464090D02*
X24288415Y-61578375D01*
X24288415Y-61578375D02*
X24212225Y-61654566D01*
X24212225Y-61654566D02*
X24136034Y-61692661D01*
X24859844Y-61464090D02*
X25393178Y-61464090D01*
X25393178Y-61464090D02*
X25050320Y-62264090D01*
X34638987Y-76694090D02*
X34715177Y-76694090D01*
X34715177Y-76694090D02*
X34791368Y-76732185D01*
X34791368Y-76732185D02*
X34829463Y-76770280D01*
X34829463Y-76770280D02*
X34867558Y-76846471D01*
X34867558Y-76846471D02*
X34905653Y-76998852D01*
X34905653Y-76998852D02*
X34905653Y-77189328D01*
X34905653Y-77189328D02*
X34867558Y-77341709D01*
X34867558Y-77341709D02*
X34829463Y-77417899D01*
X34829463Y-77417899D02*
X34791368Y-77455995D01*
X34791368Y-77455995D02*
X34715177Y-77494090D01*
X34715177Y-77494090D02*
X34638987Y-77494090D01*
X34638987Y-77494090D02*
X34562796Y-77455995D01*
X34562796Y-77455995D02*
X34524701Y-77417899D01*
X34524701Y-77417899D02*
X34486606Y-77341709D01*
X34486606Y-77341709D02*
X34448510Y-77189328D01*
X34448510Y-77189328D02*
X34448510Y-76998852D01*
X34448510Y-76998852D02*
X34486606Y-76846471D01*
X34486606Y-76846471D02*
X34524701Y-76770280D01*
X34524701Y-76770280D02*
X34562796Y-76732185D01*
X34562796Y-76732185D02*
X34638987Y-76694090D01*
X35667558Y-77494090D02*
X35210415Y-77494090D01*
X35438987Y-77494090D02*
X35438987Y-76694090D01*
X35438987Y-76694090D02*
X35362796Y-76808375D01*
X35362796Y-76808375D02*
X35286606Y-76884566D01*
X35286606Y-76884566D02*
X35210415Y-76922661D01*
X36162797Y-76694090D02*
X36238987Y-76694090D01*
X36238987Y-76694090D02*
X36315178Y-76732185D01*
X36315178Y-76732185D02*
X36353273Y-76770280D01*
X36353273Y-76770280D02*
X36391368Y-76846471D01*
X36391368Y-76846471D02*
X36429463Y-76998852D01*
X36429463Y-76998852D02*
X36429463Y-77189328D01*
X36429463Y-77189328D02*
X36391368Y-77341709D01*
X36391368Y-77341709D02*
X36353273Y-77417899D01*
X36353273Y-77417899D02*
X36315178Y-77455995D01*
X36315178Y-77455995D02*
X36238987Y-77494090D01*
X36238987Y-77494090D02*
X36162797Y-77494090D01*
X36162797Y-77494090D02*
X36086606Y-77455995D01*
X36086606Y-77455995D02*
X36048511Y-77417899D01*
X36048511Y-77417899D02*
X36010416Y-77341709D01*
X36010416Y-77341709D02*
X35972320Y-77189328D01*
X35972320Y-77189328D02*
X35972320Y-76998852D01*
X35972320Y-76998852D02*
X36010416Y-76846471D01*
X36010416Y-76846471D02*
X36048511Y-76770280D01*
X36048511Y-76770280D02*
X36086606Y-76732185D01*
X36086606Y-76732185D02*
X36162797Y-76694090D01*
X23564606Y-51294090D02*
X23640796Y-51294090D01*
X23640796Y-51294090D02*
X23716987Y-51332185D01*
X23716987Y-51332185D02*
X23755082Y-51370280D01*
X23755082Y-51370280D02*
X23793177Y-51446471D01*
X23793177Y-51446471D02*
X23831272Y-51598852D01*
X23831272Y-51598852D02*
X23831272Y-51789328D01*
X23831272Y-51789328D02*
X23793177Y-51941709D01*
X23793177Y-51941709D02*
X23755082Y-52017899D01*
X23755082Y-52017899D02*
X23716987Y-52055995D01*
X23716987Y-52055995D02*
X23640796Y-52094090D01*
X23640796Y-52094090D02*
X23564606Y-52094090D01*
X23564606Y-52094090D02*
X23488415Y-52055995D01*
X23488415Y-52055995D02*
X23450320Y-52017899D01*
X23450320Y-52017899D02*
X23412225Y-51941709D01*
X23412225Y-51941709D02*
X23374129Y-51789328D01*
X23374129Y-51789328D02*
X23374129Y-51598852D01*
X23374129Y-51598852D02*
X23412225Y-51446471D01*
X23412225Y-51446471D02*
X23450320Y-51370280D01*
X23450320Y-51370280D02*
X23488415Y-51332185D01*
X23488415Y-51332185D02*
X23564606Y-51294090D01*
X24326511Y-51294090D02*
X24402701Y-51294090D01*
X24402701Y-51294090D02*
X24478892Y-51332185D01*
X24478892Y-51332185D02*
X24516987Y-51370280D01*
X24516987Y-51370280D02*
X24555082Y-51446471D01*
X24555082Y-51446471D02*
X24593177Y-51598852D01*
X24593177Y-51598852D02*
X24593177Y-51789328D01*
X24593177Y-51789328D02*
X24555082Y-51941709D01*
X24555082Y-51941709D02*
X24516987Y-52017899D01*
X24516987Y-52017899D02*
X24478892Y-52055995D01*
X24478892Y-52055995D02*
X24402701Y-52094090D01*
X24402701Y-52094090D02*
X24326511Y-52094090D01*
X24326511Y-52094090D02*
X24250320Y-52055995D01*
X24250320Y-52055995D02*
X24212225Y-52017899D01*
X24212225Y-52017899D02*
X24174130Y-51941709D01*
X24174130Y-51941709D02*
X24136034Y-51789328D01*
X24136034Y-51789328D02*
X24136034Y-51598852D01*
X24136034Y-51598852D02*
X24174130Y-51446471D01*
X24174130Y-51446471D02*
X24212225Y-51370280D01*
X24212225Y-51370280D02*
X24250320Y-51332185D01*
X24250320Y-51332185D02*
X24326511Y-51294090D01*
X25278892Y-51294090D02*
X25126511Y-51294090D01*
X25126511Y-51294090D02*
X25050320Y-51332185D01*
X25050320Y-51332185D02*
X25012225Y-51370280D01*
X25012225Y-51370280D02*
X24936035Y-51484566D01*
X24936035Y-51484566D02*
X24897939Y-51636947D01*
X24897939Y-51636947D02*
X24897939Y-51941709D01*
X24897939Y-51941709D02*
X24936035Y-52017899D01*
X24936035Y-52017899D02*
X24974130Y-52055995D01*
X24974130Y-52055995D02*
X25050320Y-52094090D01*
X25050320Y-52094090D02*
X25202701Y-52094090D01*
X25202701Y-52094090D02*
X25278892Y-52055995D01*
X25278892Y-52055995D02*
X25316987Y-52017899D01*
X25316987Y-52017899D02*
X25355082Y-51941709D01*
X25355082Y-51941709D02*
X25355082Y-51751233D01*
X25355082Y-51751233D02*
X25316987Y-51675042D01*
X25316987Y-51675042D02*
X25278892Y-51636947D01*
X25278892Y-51636947D02*
X25202701Y-51598852D01*
X25202701Y-51598852D02*
X25050320Y-51598852D01*
X25050320Y-51598852D02*
X24974130Y-51636947D01*
X24974130Y-51636947D02*
X24936035Y-51675042D01*
X24936035Y-51675042D02*
X24897939Y-51751233D01*
X23564606Y-53764090D02*
X23640796Y-53764090D01*
X23640796Y-53764090D02*
X23716987Y-53802185D01*
X23716987Y-53802185D02*
X23755082Y-53840280D01*
X23755082Y-53840280D02*
X23793177Y-53916471D01*
X23793177Y-53916471D02*
X23831272Y-54068852D01*
X23831272Y-54068852D02*
X23831272Y-54259328D01*
X23831272Y-54259328D02*
X23793177Y-54411709D01*
X23793177Y-54411709D02*
X23755082Y-54487899D01*
X23755082Y-54487899D02*
X23716987Y-54525995D01*
X23716987Y-54525995D02*
X23640796Y-54564090D01*
X23640796Y-54564090D02*
X23564606Y-54564090D01*
X23564606Y-54564090D02*
X23488415Y-54525995D01*
X23488415Y-54525995D02*
X23450320Y-54487899D01*
X23450320Y-54487899D02*
X23412225Y-54411709D01*
X23412225Y-54411709D02*
X23374129Y-54259328D01*
X23374129Y-54259328D02*
X23374129Y-54068852D01*
X23374129Y-54068852D02*
X23412225Y-53916471D01*
X23412225Y-53916471D02*
X23450320Y-53840280D01*
X23450320Y-53840280D02*
X23488415Y-53802185D01*
X23488415Y-53802185D02*
X23564606Y-53764090D01*
X24326511Y-53764090D02*
X24402701Y-53764090D01*
X24402701Y-53764090D02*
X24478892Y-53802185D01*
X24478892Y-53802185D02*
X24516987Y-53840280D01*
X24516987Y-53840280D02*
X24555082Y-53916471D01*
X24555082Y-53916471D02*
X24593177Y-54068852D01*
X24593177Y-54068852D02*
X24593177Y-54259328D01*
X24593177Y-54259328D02*
X24555082Y-54411709D01*
X24555082Y-54411709D02*
X24516987Y-54487899D01*
X24516987Y-54487899D02*
X24478892Y-54525995D01*
X24478892Y-54525995D02*
X24402701Y-54564090D01*
X24402701Y-54564090D02*
X24326511Y-54564090D01*
X24326511Y-54564090D02*
X24250320Y-54525995D01*
X24250320Y-54525995D02*
X24212225Y-54487899D01*
X24212225Y-54487899D02*
X24174130Y-54411709D01*
X24174130Y-54411709D02*
X24136034Y-54259328D01*
X24136034Y-54259328D02*
X24136034Y-54068852D01*
X24136034Y-54068852D02*
X24174130Y-53916471D01*
X24174130Y-53916471D02*
X24212225Y-53840280D01*
X24212225Y-53840280D02*
X24250320Y-53802185D01*
X24250320Y-53802185D02*
X24326511Y-53764090D01*
X25050320Y-54106947D02*
X24974130Y-54068852D01*
X24974130Y-54068852D02*
X24936035Y-54030756D01*
X24936035Y-54030756D02*
X24897939Y-53954566D01*
X24897939Y-53954566D02*
X24897939Y-53916471D01*
X24897939Y-53916471D02*
X24936035Y-53840280D01*
X24936035Y-53840280D02*
X24974130Y-53802185D01*
X24974130Y-53802185D02*
X25050320Y-53764090D01*
X25050320Y-53764090D02*
X25202701Y-53764090D01*
X25202701Y-53764090D02*
X25278892Y-53802185D01*
X25278892Y-53802185D02*
X25316987Y-53840280D01*
X25316987Y-53840280D02*
X25355082Y-53916471D01*
X25355082Y-53916471D02*
X25355082Y-53954566D01*
X25355082Y-53954566D02*
X25316987Y-54030756D01*
X25316987Y-54030756D02*
X25278892Y-54068852D01*
X25278892Y-54068852D02*
X25202701Y-54106947D01*
X25202701Y-54106947D02*
X25050320Y-54106947D01*
X25050320Y-54106947D02*
X24974130Y-54145042D01*
X24974130Y-54145042D02*
X24936035Y-54183137D01*
X24936035Y-54183137D02*
X24897939Y-54259328D01*
X24897939Y-54259328D02*
X24897939Y-54411709D01*
X24897939Y-54411709D02*
X24936035Y-54487899D01*
X24936035Y-54487899D02*
X24974130Y-54525995D01*
X24974130Y-54525995D02*
X25050320Y-54564090D01*
X25050320Y-54564090D02*
X25202701Y-54564090D01*
X25202701Y-54564090D02*
X25278892Y-54525995D01*
X25278892Y-54525995D02*
X25316987Y-54487899D01*
X25316987Y-54487899D02*
X25355082Y-54411709D01*
X25355082Y-54411709D02*
X25355082Y-54259328D01*
X25355082Y-54259328D02*
X25316987Y-54183137D01*
X25316987Y-54183137D02*
X25278892Y-54145042D01*
X25278892Y-54145042D02*
X25202701Y-54106947D01*
X34638987Y-66534090D02*
X34715177Y-66534090D01*
X34715177Y-66534090D02*
X34791368Y-66572185D01*
X34791368Y-66572185D02*
X34829463Y-66610280D01*
X34829463Y-66610280D02*
X34867558Y-66686471D01*
X34867558Y-66686471D02*
X34905653Y-66838852D01*
X34905653Y-66838852D02*
X34905653Y-67029328D01*
X34905653Y-67029328D02*
X34867558Y-67181709D01*
X34867558Y-67181709D02*
X34829463Y-67257899D01*
X34829463Y-67257899D02*
X34791368Y-67295995D01*
X34791368Y-67295995D02*
X34715177Y-67334090D01*
X34715177Y-67334090D02*
X34638987Y-67334090D01*
X34638987Y-67334090D02*
X34562796Y-67295995D01*
X34562796Y-67295995D02*
X34524701Y-67257899D01*
X34524701Y-67257899D02*
X34486606Y-67181709D01*
X34486606Y-67181709D02*
X34448510Y-67029328D01*
X34448510Y-67029328D02*
X34448510Y-66838852D01*
X34448510Y-66838852D02*
X34486606Y-66686471D01*
X34486606Y-66686471D02*
X34524701Y-66610280D01*
X34524701Y-66610280D02*
X34562796Y-66572185D01*
X34562796Y-66572185D02*
X34638987Y-66534090D01*
X35400892Y-66534090D02*
X35477082Y-66534090D01*
X35477082Y-66534090D02*
X35553273Y-66572185D01*
X35553273Y-66572185D02*
X35591368Y-66610280D01*
X35591368Y-66610280D02*
X35629463Y-66686471D01*
X35629463Y-66686471D02*
X35667558Y-66838852D01*
X35667558Y-66838852D02*
X35667558Y-67029328D01*
X35667558Y-67029328D02*
X35629463Y-67181709D01*
X35629463Y-67181709D02*
X35591368Y-67257899D01*
X35591368Y-67257899D02*
X35553273Y-67295995D01*
X35553273Y-67295995D02*
X35477082Y-67334090D01*
X35477082Y-67334090D02*
X35400892Y-67334090D01*
X35400892Y-67334090D02*
X35324701Y-67295995D01*
X35324701Y-67295995D02*
X35286606Y-67257899D01*
X35286606Y-67257899D02*
X35248511Y-67181709D01*
X35248511Y-67181709D02*
X35210415Y-67029328D01*
X35210415Y-67029328D02*
X35210415Y-66838852D01*
X35210415Y-66838852D02*
X35248511Y-66686471D01*
X35248511Y-66686471D02*
X35286606Y-66610280D01*
X35286606Y-66610280D02*
X35324701Y-66572185D01*
X35324701Y-66572185D02*
X35400892Y-66534090D01*
X35972320Y-66610280D02*
X36010416Y-66572185D01*
X36010416Y-66572185D02*
X36086606Y-66534090D01*
X36086606Y-66534090D02*
X36277082Y-66534090D01*
X36277082Y-66534090D02*
X36353273Y-66572185D01*
X36353273Y-66572185D02*
X36391368Y-66610280D01*
X36391368Y-66610280D02*
X36429463Y-66686471D01*
X36429463Y-66686471D02*
X36429463Y-66762661D01*
X36429463Y-66762661D02*
X36391368Y-66876947D01*
X36391368Y-66876947D02*
X35934225Y-67334090D01*
X35934225Y-67334090D02*
X36429463Y-67334090D01*
X34905653Y-74954090D02*
X34448510Y-74954090D01*
X34677082Y-74954090D02*
X34677082Y-74154090D01*
X34677082Y-74154090D02*
X34600891Y-74268375D01*
X34600891Y-74268375D02*
X34524701Y-74344566D01*
X34524701Y-74344566D02*
X34448510Y-74382661D01*
X35667558Y-74954090D02*
X35210415Y-74954090D01*
X35438987Y-74954090D02*
X35438987Y-74154090D01*
X35438987Y-74154090D02*
X35362796Y-74268375D01*
X35362796Y-74268375D02*
X35286606Y-74344566D01*
X35286606Y-74344566D02*
X35210415Y-74382661D01*
X36429463Y-74954090D02*
X35972320Y-74954090D01*
X36200892Y-74954090D02*
X36200892Y-74154090D01*
X36200892Y-74154090D02*
X36124701Y-74268375D01*
X36124701Y-74268375D02*
X36048511Y-74344566D01*
X36048511Y-74344566D02*
X35972320Y-74382661D01*
X34638987Y-61454090D02*
X34715177Y-61454090D01*
X34715177Y-61454090D02*
X34791368Y-61492185D01*
X34791368Y-61492185D02*
X34829463Y-61530280D01*
X34829463Y-61530280D02*
X34867558Y-61606471D01*
X34867558Y-61606471D02*
X34905653Y-61758852D01*
X34905653Y-61758852D02*
X34905653Y-61949328D01*
X34905653Y-61949328D02*
X34867558Y-62101709D01*
X34867558Y-62101709D02*
X34829463Y-62177899D01*
X34829463Y-62177899D02*
X34791368Y-62215995D01*
X34791368Y-62215995D02*
X34715177Y-62254090D01*
X34715177Y-62254090D02*
X34638987Y-62254090D01*
X34638987Y-62254090D02*
X34562796Y-62215995D01*
X34562796Y-62215995D02*
X34524701Y-62177899D01*
X34524701Y-62177899D02*
X34486606Y-62101709D01*
X34486606Y-62101709D02*
X34448510Y-61949328D01*
X34448510Y-61949328D02*
X34448510Y-61758852D01*
X34448510Y-61758852D02*
X34486606Y-61606471D01*
X34486606Y-61606471D02*
X34524701Y-61530280D01*
X34524701Y-61530280D02*
X34562796Y-61492185D01*
X34562796Y-61492185D02*
X34638987Y-61454090D01*
X35172320Y-61454090D02*
X35667558Y-61454090D01*
X35667558Y-61454090D02*
X35400892Y-61758852D01*
X35400892Y-61758852D02*
X35515177Y-61758852D01*
X35515177Y-61758852D02*
X35591368Y-61796947D01*
X35591368Y-61796947D02*
X35629463Y-61835042D01*
X35629463Y-61835042D02*
X35667558Y-61911233D01*
X35667558Y-61911233D02*
X35667558Y-62101709D01*
X35667558Y-62101709D02*
X35629463Y-62177899D01*
X35629463Y-62177899D02*
X35591368Y-62215995D01*
X35591368Y-62215995D02*
X35515177Y-62254090D01*
X35515177Y-62254090D02*
X35286606Y-62254090D01*
X35286606Y-62254090D02*
X35210415Y-62215995D01*
X35210415Y-62215995D02*
X35172320Y-62177899D01*
X36429463Y-62254090D02*
X35972320Y-62254090D01*
X36200892Y-62254090D02*
X36200892Y-61454090D01*
X36200892Y-61454090D02*
X36124701Y-61568375D01*
X36124701Y-61568375D02*
X36048511Y-61644566D01*
X36048511Y-61644566D02*
X35972320Y-61682661D01*
X23564606Y-64064090D02*
X23640796Y-64064090D01*
X23640796Y-64064090D02*
X23716987Y-64102185D01*
X23716987Y-64102185D02*
X23755082Y-64140280D01*
X23755082Y-64140280D02*
X23793177Y-64216471D01*
X23793177Y-64216471D02*
X23831272Y-64368852D01*
X23831272Y-64368852D02*
X23831272Y-64559328D01*
X23831272Y-64559328D02*
X23793177Y-64711709D01*
X23793177Y-64711709D02*
X23755082Y-64787899D01*
X23755082Y-64787899D02*
X23716987Y-64825995D01*
X23716987Y-64825995D02*
X23640796Y-64864090D01*
X23640796Y-64864090D02*
X23564606Y-64864090D01*
X23564606Y-64864090D02*
X23488415Y-64825995D01*
X23488415Y-64825995D02*
X23450320Y-64787899D01*
X23450320Y-64787899D02*
X23412225Y-64711709D01*
X23412225Y-64711709D02*
X23374129Y-64559328D01*
X23374129Y-64559328D02*
X23374129Y-64368852D01*
X23374129Y-64368852D02*
X23412225Y-64216471D01*
X23412225Y-64216471D02*
X23450320Y-64140280D01*
X23450320Y-64140280D02*
X23488415Y-64102185D01*
X23488415Y-64102185D02*
X23564606Y-64064090D01*
X24136034Y-64140280D02*
X24174130Y-64102185D01*
X24174130Y-64102185D02*
X24250320Y-64064090D01*
X24250320Y-64064090D02*
X24440796Y-64064090D01*
X24440796Y-64064090D02*
X24516987Y-64102185D01*
X24516987Y-64102185D02*
X24555082Y-64140280D01*
X24555082Y-64140280D02*
X24593177Y-64216471D01*
X24593177Y-64216471D02*
X24593177Y-64292661D01*
X24593177Y-64292661D02*
X24555082Y-64406947D01*
X24555082Y-64406947D02*
X24097939Y-64864090D01*
X24097939Y-64864090D02*
X24593177Y-64864090D01*
X25088416Y-64064090D02*
X25164606Y-64064090D01*
X25164606Y-64064090D02*
X25240797Y-64102185D01*
X25240797Y-64102185D02*
X25278892Y-64140280D01*
X25278892Y-64140280D02*
X25316987Y-64216471D01*
X25316987Y-64216471D02*
X25355082Y-64368852D01*
X25355082Y-64368852D02*
X25355082Y-64559328D01*
X25355082Y-64559328D02*
X25316987Y-64711709D01*
X25316987Y-64711709D02*
X25278892Y-64787899D01*
X25278892Y-64787899D02*
X25240797Y-64825995D01*
X25240797Y-64825995D02*
X25164606Y-64864090D01*
X25164606Y-64864090D02*
X25088416Y-64864090D01*
X25088416Y-64864090D02*
X25012225Y-64825995D01*
X25012225Y-64825995D02*
X24974130Y-64787899D01*
X24974130Y-64787899D02*
X24936035Y-64711709D01*
X24936035Y-64711709D02*
X24897939Y-64559328D01*
X24897939Y-64559328D02*
X24897939Y-64368852D01*
X24897939Y-64368852D02*
X24936035Y-64216471D01*
X24936035Y-64216471D02*
X24974130Y-64140280D01*
X24974130Y-64140280D02*
X25012225Y-64102185D01*
X25012225Y-64102185D02*
X25088416Y-64064090D01*
X34746939Y-53872185D02*
X34670749Y-53834090D01*
X34670749Y-53834090D02*
X34556463Y-53834090D01*
X34556463Y-53834090D02*
X34442177Y-53872185D01*
X34442177Y-53872185D02*
X34365987Y-53948375D01*
X34365987Y-53948375D02*
X34327892Y-54024566D01*
X34327892Y-54024566D02*
X34289796Y-54176947D01*
X34289796Y-54176947D02*
X34289796Y-54291233D01*
X34289796Y-54291233D02*
X34327892Y-54443614D01*
X34327892Y-54443614D02*
X34365987Y-54519804D01*
X34365987Y-54519804D02*
X34442177Y-54595995D01*
X34442177Y-54595995D02*
X34556463Y-54634090D01*
X34556463Y-54634090D02*
X34632654Y-54634090D01*
X34632654Y-54634090D02*
X34746939Y-54595995D01*
X34746939Y-54595995D02*
X34785035Y-54557899D01*
X34785035Y-54557899D02*
X34785035Y-54291233D01*
X34785035Y-54291233D02*
X34632654Y-54291233D01*
X35127892Y-54634090D02*
X35127892Y-53834090D01*
X35127892Y-53834090D02*
X35585035Y-54634090D01*
X35585035Y-54634090D02*
X35585035Y-53834090D01*
X35965987Y-54634090D02*
X35965987Y-53834090D01*
X35965987Y-53834090D02*
X36156463Y-53834090D01*
X36156463Y-53834090D02*
X36270749Y-53872185D01*
X36270749Y-53872185D02*
X36346939Y-53948375D01*
X36346939Y-53948375D02*
X36385034Y-54024566D01*
X36385034Y-54024566D02*
X36423130Y-54176947D01*
X36423130Y-54176947D02*
X36423130Y-54291233D01*
X36423130Y-54291233D02*
X36385034Y-54443614D01*
X36385034Y-54443614D02*
X36346939Y-54519804D01*
X36346939Y-54519804D02*
X36270749Y-54595995D01*
X36270749Y-54595995D02*
X36156463Y-54634090D01*
X36156463Y-54634090D02*
X35965987Y-54634090D01*
X23564606Y-69074090D02*
X23640796Y-69074090D01*
X23640796Y-69074090D02*
X23716987Y-69112185D01*
X23716987Y-69112185D02*
X23755082Y-69150280D01*
X23755082Y-69150280D02*
X23793177Y-69226471D01*
X23793177Y-69226471D02*
X23831272Y-69378852D01*
X23831272Y-69378852D02*
X23831272Y-69569328D01*
X23831272Y-69569328D02*
X23793177Y-69721709D01*
X23793177Y-69721709D02*
X23755082Y-69797899D01*
X23755082Y-69797899D02*
X23716987Y-69835995D01*
X23716987Y-69835995D02*
X23640796Y-69874090D01*
X23640796Y-69874090D02*
X23564606Y-69874090D01*
X23564606Y-69874090D02*
X23488415Y-69835995D01*
X23488415Y-69835995D02*
X23450320Y-69797899D01*
X23450320Y-69797899D02*
X23412225Y-69721709D01*
X23412225Y-69721709D02*
X23374129Y-69569328D01*
X23374129Y-69569328D02*
X23374129Y-69378852D01*
X23374129Y-69378852D02*
X23412225Y-69226471D01*
X23412225Y-69226471D02*
X23450320Y-69150280D01*
X23450320Y-69150280D02*
X23488415Y-69112185D01*
X23488415Y-69112185D02*
X23564606Y-69074090D01*
X24136034Y-69150280D02*
X24174130Y-69112185D01*
X24174130Y-69112185D02*
X24250320Y-69074090D01*
X24250320Y-69074090D02*
X24440796Y-69074090D01*
X24440796Y-69074090D02*
X24516987Y-69112185D01*
X24516987Y-69112185D02*
X24555082Y-69150280D01*
X24555082Y-69150280D02*
X24593177Y-69226471D01*
X24593177Y-69226471D02*
X24593177Y-69302661D01*
X24593177Y-69302661D02*
X24555082Y-69416947D01*
X24555082Y-69416947D02*
X24097939Y-69874090D01*
X24097939Y-69874090D02*
X24593177Y-69874090D01*
X25278892Y-69340756D02*
X25278892Y-69874090D01*
X25088416Y-69035995D02*
X24897939Y-69607423D01*
X24897939Y-69607423D02*
X25393178Y-69607423D01*
X34905653Y-72414090D02*
X34448510Y-72414090D01*
X34677082Y-72414090D02*
X34677082Y-71614090D01*
X34677082Y-71614090D02*
X34600891Y-71728375D01*
X34600891Y-71728375D02*
X34524701Y-71804566D01*
X34524701Y-71804566D02*
X34448510Y-71842661D01*
X35667558Y-72414090D02*
X35210415Y-72414090D01*
X35438987Y-72414090D02*
X35438987Y-71614090D01*
X35438987Y-71614090D02*
X35362796Y-71728375D01*
X35362796Y-71728375D02*
X35286606Y-71804566D01*
X35286606Y-71804566D02*
X35210415Y-71842661D01*
X35934225Y-71614090D02*
X36429463Y-71614090D01*
X36429463Y-71614090D02*
X36162797Y-71918852D01*
X36162797Y-71918852D02*
X36277082Y-71918852D01*
X36277082Y-71918852D02*
X36353273Y-71956947D01*
X36353273Y-71956947D02*
X36391368Y-71995042D01*
X36391368Y-71995042D02*
X36429463Y-72071233D01*
X36429463Y-72071233D02*
X36429463Y-72261709D01*
X36429463Y-72261709D02*
X36391368Y-72337899D01*
X36391368Y-72337899D02*
X36353273Y-72375995D01*
X36353273Y-72375995D02*
X36277082Y-72414090D01*
X36277082Y-72414090D02*
X36048511Y-72414090D01*
X36048511Y-72414090D02*
X35972320Y-72375995D01*
X35972320Y-72375995D02*
X35934225Y-72337899D01*
X34823130Y-52094090D02*
X34556463Y-51713137D01*
X34365987Y-52094090D02*
X34365987Y-51294090D01*
X34365987Y-51294090D02*
X34670749Y-51294090D01*
X34670749Y-51294090D02*
X34746939Y-51332185D01*
X34746939Y-51332185D02*
X34785034Y-51370280D01*
X34785034Y-51370280D02*
X34823130Y-51446471D01*
X34823130Y-51446471D02*
X34823130Y-51560756D01*
X34823130Y-51560756D02*
X34785034Y-51636947D01*
X34785034Y-51636947D02*
X34746939Y-51675042D01*
X34746939Y-51675042D02*
X34670749Y-51713137D01*
X34670749Y-51713137D02*
X34365987Y-51713137D01*
X35127891Y-51865518D02*
X35508844Y-51865518D01*
X35051701Y-52094090D02*
X35318368Y-51294090D01*
X35318368Y-51294090D02*
X35585034Y-52094090D01*
X35775510Y-51294090D02*
X35965986Y-52094090D01*
X35965986Y-52094090D02*
X36118367Y-51522661D01*
X36118367Y-51522661D02*
X36270748Y-52094090D01*
X36270748Y-52094090D02*
X36461225Y-51294090D01*
X34905653Y-69874090D02*
X34448510Y-69874090D01*
X34677082Y-69874090D02*
X34677082Y-69074090D01*
X34677082Y-69074090D02*
X34600891Y-69188375D01*
X34600891Y-69188375D02*
X34524701Y-69264566D01*
X34524701Y-69264566D02*
X34448510Y-69302661D01*
X35667558Y-69874090D02*
X35210415Y-69874090D01*
X35438987Y-69874090D02*
X35438987Y-69074090D01*
X35438987Y-69074090D02*
X35362796Y-69188375D01*
X35362796Y-69188375D02*
X35286606Y-69264566D01*
X35286606Y-69264566D02*
X35210415Y-69302661D01*
X36391368Y-69074090D02*
X36010416Y-69074090D01*
X36010416Y-69074090D02*
X35972320Y-69455042D01*
X35972320Y-69455042D02*
X36010416Y-69416947D01*
X36010416Y-69416947D02*
X36086606Y-69378852D01*
X36086606Y-69378852D02*
X36277082Y-69378852D01*
X36277082Y-69378852D02*
X36353273Y-69416947D01*
X36353273Y-69416947D02*
X36391368Y-69455042D01*
X36391368Y-69455042D02*
X36429463Y-69531233D01*
X36429463Y-69531233D02*
X36429463Y-69721709D01*
X36429463Y-69721709D02*
X36391368Y-69797899D01*
X36391368Y-69797899D02*
X36353273Y-69835995D01*
X36353273Y-69835995D02*
X36277082Y-69874090D01*
X36277082Y-69874090D02*
X36086606Y-69874090D01*
X36086606Y-69874090D02*
X36010416Y-69835995D01*
X36010416Y-69835995D02*
X35972320Y-69797899D01*
X23831272Y-72414090D02*
X23374129Y-72414090D01*
X23602701Y-72414090D02*
X23602701Y-71614090D01*
X23602701Y-71614090D02*
X23526510Y-71728375D01*
X23526510Y-71728375D02*
X23450320Y-71804566D01*
X23450320Y-71804566D02*
X23374129Y-71842661D01*
X24326511Y-71614090D02*
X24402701Y-71614090D01*
X24402701Y-71614090D02*
X24478892Y-71652185D01*
X24478892Y-71652185D02*
X24516987Y-71690280D01*
X24516987Y-71690280D02*
X24555082Y-71766471D01*
X24555082Y-71766471D02*
X24593177Y-71918852D01*
X24593177Y-71918852D02*
X24593177Y-72109328D01*
X24593177Y-72109328D02*
X24555082Y-72261709D01*
X24555082Y-72261709D02*
X24516987Y-72337899D01*
X24516987Y-72337899D02*
X24478892Y-72375995D01*
X24478892Y-72375995D02*
X24402701Y-72414090D01*
X24402701Y-72414090D02*
X24326511Y-72414090D01*
X24326511Y-72414090D02*
X24250320Y-72375995D01*
X24250320Y-72375995D02*
X24212225Y-72337899D01*
X24212225Y-72337899D02*
X24174130Y-72261709D01*
X24174130Y-72261709D02*
X24136034Y-72109328D01*
X24136034Y-72109328D02*
X24136034Y-71918852D01*
X24136034Y-71918852D02*
X24174130Y-71766471D01*
X24174130Y-71766471D02*
X24212225Y-71690280D01*
X24212225Y-71690280D02*
X24250320Y-71652185D01*
X24250320Y-71652185D02*
X24326511Y-71614090D01*
X25088416Y-71614090D02*
X25164606Y-71614090D01*
X25164606Y-71614090D02*
X25240797Y-71652185D01*
X25240797Y-71652185D02*
X25278892Y-71690280D01*
X25278892Y-71690280D02*
X25316987Y-71766471D01*
X25316987Y-71766471D02*
X25355082Y-71918852D01*
X25355082Y-71918852D02*
X25355082Y-72109328D01*
X25355082Y-72109328D02*
X25316987Y-72261709D01*
X25316987Y-72261709D02*
X25278892Y-72337899D01*
X25278892Y-72337899D02*
X25240797Y-72375995D01*
X25240797Y-72375995D02*
X25164606Y-72414090D01*
X25164606Y-72414090D02*
X25088416Y-72414090D01*
X25088416Y-72414090D02*
X25012225Y-72375995D01*
X25012225Y-72375995D02*
X24974130Y-72337899D01*
X24974130Y-72337899D02*
X24936035Y-72261709D01*
X24936035Y-72261709D02*
X24897939Y-72109328D01*
X24897939Y-72109328D02*
X24897939Y-71918852D01*
X24897939Y-71918852D02*
X24936035Y-71766471D01*
X24936035Y-71766471D02*
X24974130Y-71690280D01*
X24974130Y-71690280D02*
X25012225Y-71652185D01*
X25012225Y-71652185D02*
X25088416Y-71614090D01*
%TO.C,T1*%
X292900004Y-85399998D02*
X292900004Y-91999998D01*
X292900004Y-91999998D02*
X295750004Y-91999998D01*
X295750004Y-85399998D02*
X292900004Y-85399998D01*
X295750004Y-88699998D02*
X295750004Y-85399998D01*
X295750004Y-88699998D02*
X295750004Y-91999998D01*
X295750004Y-90650001D02*
X295750004Y-86749998D01*
%TO.C,B1*%
X275150001Y-87449998D02*
X275150001Y-89949998D01*
X276650001Y-85949998D02*
X275150001Y-87449998D01*
X276650001Y-91449998D02*
X275150001Y-89949998D01*
X279150001Y-85949998D02*
X276650001Y-85949998D01*
X279150001Y-85949998D02*
X280650001Y-87449998D01*
X279150001Y-91449998D02*
X276650001Y-91449998D01*
X279150001Y-91449998D02*
X280650001Y-89949998D01*
X280650001Y-87449998D02*
X280650001Y-89949998D01*
D12*
%TO.C,D18*%
X265150005Y-64700001D02*
X265550005Y-64700002D01*
X265550005Y-64700002D02*
X265550005Y-64150001D01*
X265550005Y-64700002D02*
X265550006Y-65249997D01*
X265550005Y-64700002D02*
X266150005Y-64300001D01*
X266150005Y-64300001D02*
X266150005Y-65100001D01*
X266150005Y-65100001D02*
X265550005Y-64700002D01*
X266150006Y-64700001D02*
X266650005Y-64700001D01*
%TO.C,D12*%
X228150001Y-56699999D02*
X228550001Y-56700000D01*
X228550001Y-56700000D02*
X228550001Y-56149999D01*
X228550001Y-56700000D02*
X228550002Y-57249995D01*
X228550001Y-56700000D02*
X229150001Y-56299999D01*
X229150001Y-56299999D02*
X229150001Y-57099999D01*
X229150001Y-57099999D02*
X228550001Y-56700000D01*
X229150002Y-56699999D02*
X229650001Y-56699999D01*
%TO.C,D17*%
X265150005Y-82199999D02*
X265550005Y-82200000D01*
X265550005Y-82200000D02*
X265550005Y-81649999D01*
X265550005Y-82200000D02*
X265550006Y-82749995D01*
X265550005Y-82200000D02*
X266150005Y-81799999D01*
X266150005Y-81799999D02*
X266150005Y-82599999D01*
X266150005Y-82599999D02*
X265550005Y-82200000D01*
X266150006Y-82199999D02*
X266650005Y-82199999D01*
%TO.C,D6*%
X191150002Y-72699999D02*
X191550002Y-72700000D01*
X191550002Y-72700000D02*
X191550002Y-72149999D01*
X191550002Y-72700000D02*
X191550003Y-73249995D01*
X191550002Y-72700000D02*
X192150002Y-72299999D01*
X192150002Y-72299999D02*
X192150002Y-73099999D01*
X192150002Y-73099999D02*
X191550002Y-72700000D01*
X192150003Y-72699999D02*
X192650002Y-72699999D01*
%TO.C,D13*%
X246650002Y-97699999D02*
X247050002Y-97700000D01*
X247050002Y-97700000D02*
X247050002Y-97149999D01*
X247050002Y-97700000D02*
X247050003Y-98249995D01*
X247050002Y-97700000D02*
X247650002Y-97299999D01*
X247650002Y-97299999D02*
X247650002Y-98099999D01*
X247650002Y-98099999D02*
X247050002Y-97700000D01*
X247650003Y-97699999D02*
X248150002Y-97699999D01*
%TO.C,D8*%
X209650002Y-79199998D02*
X210050002Y-79199999D01*
X210050002Y-79199999D02*
X210050002Y-78649998D01*
X210050002Y-79199999D02*
X210050003Y-79749994D01*
X210050002Y-79199999D02*
X210650002Y-78799998D01*
X210650002Y-78799998D02*
X210650002Y-79599998D01*
X210650002Y-79599998D02*
X210050002Y-79199999D01*
X210650003Y-79199998D02*
X211150002Y-79199998D01*
%TO.C,D2*%
X172650001Y-92199998D02*
X173050001Y-92199999D01*
X173050001Y-92199999D02*
X173050001Y-91649998D01*
X173050001Y-92199999D02*
X173050002Y-92749994D01*
X173050001Y-92199999D02*
X173650001Y-91799998D01*
X173650001Y-91799998D02*
X173650001Y-92599998D01*
X173650001Y-92599998D02*
X173050001Y-92199999D01*
X173650002Y-92199998D02*
X174150001Y-92199998D01*
%TO.C,D7*%
X209650005Y-96700000D02*
X210050005Y-96700001D01*
X210050005Y-96700001D02*
X210050005Y-96150000D01*
X210050005Y-96700001D02*
X210050006Y-97249996D01*
X210050005Y-96700001D02*
X210650005Y-96300000D01*
X210650005Y-96300000D02*
X210650005Y-97100000D01*
X210650005Y-97100000D02*
X210050005Y-96700001D01*
X210650006Y-96700000D02*
X211150005Y-96700000D01*
%TO.C,D11*%
X228150007Y-74199999D02*
X228550007Y-74200000D01*
X228550007Y-74200000D02*
X228550007Y-73649999D01*
X228550007Y-74200000D02*
X228550008Y-74749995D01*
X228550007Y-74200000D02*
X229150007Y-73799999D01*
X229150007Y-73799999D02*
X229150007Y-74599999D01*
X229150007Y-74599999D02*
X228550007Y-74200000D01*
X229150008Y-74199999D02*
X229650007Y-74199999D01*
%TO.C,D21*%
X258673687Y-119714309D02*
X259067610Y-119783768D01*
X259067610Y-119783768D02*
X258972104Y-120325412D01*
X259067610Y-119783768D02*
X259163117Y-119242127D01*
X259067610Y-119783768D02*
X259727954Y-119494034D01*
X259589036Y-120281880D02*
X259067610Y-119783768D01*
X259658495Y-119887957D02*
X260150899Y-119974781D01*
X259727954Y-119494034D02*
X259589036Y-120281880D01*
%TO.C,D22*%
X276711274Y-126971064D02*
X277087152Y-127107871D01*
X277087152Y-127107871D02*
X276899040Y-127624703D01*
X277087152Y-127107871D02*
X277275261Y-126591044D01*
X277087152Y-127107871D02*
X277787774Y-126937207D01*
X277514158Y-127688961D02*
X277087152Y-127107871D01*
X277650968Y-127313084D02*
X278120812Y-127484094D01*
X277787774Y-126937207D02*
X277514158Y-127688961D01*
%TO.C,D10*%
X228149999Y-91700002D02*
X228549999Y-91700003D01*
X228549999Y-91700003D02*
X228549999Y-91150002D01*
X228549999Y-91700003D02*
X228550000Y-92249998D01*
X228549999Y-91700003D02*
X229149999Y-91300002D01*
X229149999Y-91300002D02*
X229149999Y-92100002D01*
X229149999Y-92100002D02*
X228549999Y-91700003D01*
X229150000Y-91700002D02*
X229649999Y-91700002D01*
%TO.C,D3*%
X172650004Y-74699998D02*
X173050004Y-74699999D01*
X173050004Y-74699999D02*
X173050004Y-74149998D01*
X173050004Y-74699999D02*
X173050005Y-75249994D01*
X173050004Y-74699999D02*
X173650004Y-74299998D01*
X173650004Y-74299998D02*
X173650004Y-75099998D01*
X173650004Y-75099998D02*
X173050004Y-74699999D01*
X173650005Y-74699998D02*
X174150004Y-74699998D01*
%TO.C,D19*%
X221150006Y-117699999D02*
X221550006Y-117700000D01*
X221550006Y-117700000D02*
X221550006Y-117149999D01*
X221550006Y-117700000D02*
X221550007Y-118249995D01*
X221550006Y-117700000D02*
X222150006Y-117299999D01*
X222150006Y-117299999D02*
X222150006Y-118099999D01*
X222150006Y-118099999D02*
X221550006Y-117700000D01*
X222150007Y-117699999D02*
X222650006Y-117699999D01*
%TO.C,D9*%
X209650007Y-61699999D02*
X210050007Y-61700000D01*
X210050007Y-61700000D02*
X210050007Y-61149999D01*
X210050007Y-61700000D02*
X210050008Y-62249995D01*
X210050007Y-61700000D02*
X210650007Y-61299999D01*
X210650007Y-61299999D02*
X210650007Y-62099999D01*
X210650007Y-62099999D02*
X210050007Y-61700000D01*
X210650008Y-61699999D02*
X211150007Y-61699999D01*
D11*
%TO.C,JST1*%
X282950005Y-98449999D02*
X282950005Y-106049999D01*
X282950005Y-106049999D02*
X283650005Y-106049999D01*
X283650003Y-104449999D02*
X288150005Y-104449999D01*
X283650005Y-106049999D02*
X283650003Y-104449999D01*
X286900005Y-103199999D02*
X286900005Y-102699999D01*
X287150005Y-102949999D02*
X286650008Y-102949999D01*
X288150005Y-104449999D02*
X288150005Y-106049999D01*
X288150005Y-106049999D02*
X288850005Y-106049999D01*
X288850005Y-98449999D02*
X282950005Y-98449999D01*
X288850005Y-106049999D02*
X288850005Y-98449999D01*
D12*
%TO.C,D1*%
X172650004Y-109699999D02*
X173050004Y-109700000D01*
X173050004Y-109700000D02*
X173050004Y-109149999D01*
X173050004Y-109700000D02*
X173050005Y-110249995D01*
X173050004Y-109700000D02*
X173650004Y-109299999D01*
X173650004Y-109299999D02*
X173650004Y-110099999D01*
X173650004Y-110099999D02*
X173050004Y-109700000D01*
X173650005Y-109699999D02*
X174150004Y-109699999D01*
%TO.C,D14*%
X246650007Y-80199997D02*
X247050007Y-80199998D01*
X247050007Y-80199998D02*
X247050007Y-79649997D01*
X247050007Y-80199998D02*
X247050008Y-80749993D01*
X247050007Y-80199998D02*
X247650007Y-79799997D01*
X247650007Y-79799997D02*
X247650007Y-80599997D01*
X247650007Y-80599997D02*
X247050007Y-80199998D01*
X247650008Y-80199997D02*
X248150007Y-80199997D01*
%TO.C,D16*%
X265150006Y-99700001D02*
X265550006Y-99700002D01*
X265550006Y-99700002D02*
X265550006Y-99150001D01*
X265550006Y-99700002D02*
X265550007Y-100249997D01*
X265550006Y-99700002D02*
X266150006Y-99300001D01*
X266150006Y-99300001D02*
X266150006Y-100100001D01*
X266150006Y-100100001D02*
X265550006Y-99700002D01*
X266150007Y-99700001D02*
X266650006Y-99700001D01*
%TO.C,D15*%
X246650004Y-62699997D02*
X247050004Y-62699998D01*
X247050004Y-62699998D02*
X247050004Y-62149997D01*
X247050004Y-62699998D02*
X247050005Y-63249993D01*
X247050004Y-62699998D02*
X247650004Y-62299997D01*
X247650004Y-62299997D02*
X247650004Y-63099997D01*
X247650004Y-63099997D02*
X247050004Y-62699998D01*
X247650005Y-62699997D02*
X248150004Y-62699997D01*
D13*
%TO.C,MCU1*%
X275010000Y-47920001D02*
X275010000Y-80940001D01*
X275010000Y-80940001D02*
X292790000Y-80940001D01*
X292790000Y-47920001D02*
X275010000Y-47920001D01*
X292790000Y-80940001D02*
X292790000Y-47920001D01*
D12*
%TO.C,D4*%
X191149998Y-107700000D02*
X191549998Y-107700001D01*
X191549998Y-107700001D02*
X191549998Y-107150000D01*
X191549998Y-107700001D02*
X191549999Y-108249996D01*
X191549998Y-107700001D02*
X192149998Y-107300000D01*
X192149998Y-107300000D02*
X192149998Y-108100000D01*
X192149998Y-108100000D02*
X191549998Y-107700001D01*
X192149999Y-107700000D02*
X192649998Y-107700000D01*
%TO.C,D20*%
X239650004Y-116700001D02*
X240050004Y-116700002D01*
X240050004Y-116700002D02*
X240050004Y-116150001D01*
X240050004Y-116700002D02*
X240050005Y-117249997D01*
X240050004Y-116700002D02*
X240650004Y-116300001D01*
X240650004Y-116300001D02*
X240650004Y-117100001D01*
X240650004Y-117100001D02*
X240050004Y-116700002D01*
X240650005Y-116700001D02*
X241150004Y-116700001D01*
%TO.C,D5*%
X191150008Y-90200002D02*
X191550008Y-90200003D01*
X191550008Y-90200003D02*
X191550008Y-89650002D01*
X191550008Y-90200003D02*
X191550009Y-90749998D01*
X191550008Y-90200003D02*
X192150008Y-89800002D01*
X192150008Y-89800002D02*
X192150008Y-90600002D01*
X192150008Y-90600002D02*
X191550008Y-90200003D01*
X192150009Y-90200002D02*
X192650008Y-90200002D01*
D11*
%TO.C,T1*%
X18051796Y-86751793D02*
X18051796Y-90651794D01*
X18051796Y-88701793D02*
X18051796Y-85401793D01*
X18051796Y-88701793D02*
X18051796Y-92001793D01*
X18051796Y-92001793D02*
X20901796Y-92001793D01*
X20901796Y-85401793D02*
X18051796Y-85401793D01*
X20901796Y-92001793D02*
X20901796Y-85401793D01*
%TO.C,B1*%
X33151797Y-89951793D02*
X33151797Y-87451793D01*
X34651797Y-85951793D02*
X33151797Y-87451793D01*
X34651797Y-85951793D02*
X37151797Y-85951793D01*
X34651797Y-91451793D02*
X33151797Y-89951793D01*
X34651797Y-91451793D02*
X37151797Y-91451793D01*
X37151797Y-85951793D02*
X38651797Y-87451793D01*
X37151797Y-91451793D02*
X38651797Y-89951793D01*
X38651797Y-89951793D02*
X38651797Y-87451793D01*
D12*
%TO.C,D7*%
X108651795Y-96701795D02*
X109051795Y-96701794D01*
X109051795Y-96701794D02*
X109051795Y-97251795D01*
X109051795Y-96701794D02*
X109051796Y-96151796D01*
X109051795Y-96701794D02*
X109651795Y-96301795D01*
X109651795Y-96301795D02*
X109651795Y-97101795D01*
X109651795Y-97101795D02*
X109051795Y-96701794D01*
X109651796Y-96701795D02*
X110151795Y-96701795D01*
%TO.C,D3*%
X145651795Y-74701795D02*
X146051795Y-74701794D01*
X146051795Y-74701794D02*
X146051795Y-75251795D01*
X146051795Y-74701794D02*
X146051796Y-74151796D01*
X146051795Y-74701794D02*
X146651795Y-74301795D01*
X146651795Y-74301795D02*
X146651795Y-75101795D01*
X146651795Y-75101795D02*
X146051795Y-74701794D01*
X146651796Y-74701795D02*
X147151795Y-74701795D01*
%TO.C,D12*%
X90151797Y-56701795D02*
X90551797Y-56701794D01*
X90551797Y-56701794D02*
X90551797Y-57251795D01*
X90551797Y-56701794D02*
X90551798Y-56151796D01*
X90551797Y-56701794D02*
X91151797Y-56301795D01*
X91151797Y-56301795D02*
X91151797Y-57101795D01*
X91151797Y-57101795D02*
X90551797Y-56701794D01*
X91151798Y-56701795D02*
X91651797Y-56701795D01*
%TO.C,D18*%
X53151796Y-64701795D02*
X53551796Y-64701794D01*
X53551796Y-64701794D02*
X53551796Y-65251795D01*
X53551796Y-64701794D02*
X53551797Y-64151796D01*
X53551796Y-64701794D02*
X54151796Y-64301795D01*
X54151796Y-64301795D02*
X54151796Y-65101795D01*
X54151796Y-65101795D02*
X53551796Y-64701794D01*
X54151797Y-64701795D02*
X54651796Y-64701795D01*
%TO.C,D2*%
X145651797Y-92201794D02*
X146051797Y-92201793D01*
X146051797Y-92201793D02*
X146051797Y-92751794D01*
X146051797Y-92201793D02*
X146051798Y-91651795D01*
X146051797Y-92201793D02*
X146651797Y-91801794D01*
X146651797Y-91801794D02*
X146651797Y-92601794D01*
X146651797Y-92601794D02*
X146051797Y-92201793D01*
X146651798Y-92201794D02*
X147151797Y-92201794D01*
%TO.C,D17*%
X53151797Y-82201793D02*
X53551797Y-82201792D01*
X53551797Y-82201792D02*
X53551797Y-82751793D01*
X53551797Y-82201792D02*
X53551798Y-81651794D01*
X53551797Y-82201792D02*
X54151797Y-81801793D01*
X54151797Y-81801793D02*
X54151797Y-82601793D01*
X54151797Y-82601793D02*
X53551797Y-82201792D01*
X54151798Y-82201793D02*
X54651797Y-82201793D01*
%TO.C,D15*%
X71651796Y-62701795D02*
X72051796Y-62701794D01*
X72051796Y-62701794D02*
X72051796Y-63251795D01*
X72051796Y-62701794D02*
X72051797Y-62151796D01*
X72051796Y-62701794D02*
X72651796Y-62301795D01*
X72651796Y-62301795D02*
X72651796Y-63101795D01*
X72651796Y-63101795D02*
X72051796Y-62701794D01*
X72651797Y-62701795D02*
X73151796Y-62701795D01*
%TO.C,D9*%
X108651796Y-61701795D02*
X109051796Y-61701794D01*
X109051796Y-61701794D02*
X109051796Y-62251795D01*
X109051796Y-61701794D02*
X109051797Y-61151796D01*
X109051796Y-61701794D02*
X109651796Y-61301795D01*
X109651796Y-61301795D02*
X109651796Y-62101795D01*
X109651796Y-62101795D02*
X109051796Y-61701794D01*
X109651797Y-61701795D02*
X110151796Y-61701795D01*
%TO.C,D16*%
X53151796Y-99701796D02*
X53551796Y-99701795D01*
X53551796Y-99701795D02*
X53551796Y-100251796D01*
X53551796Y-99701795D02*
X53551797Y-99151797D01*
X53551796Y-99701795D02*
X54151796Y-99301796D01*
X54151796Y-99301796D02*
X54151796Y-100101796D01*
X54151796Y-100101796D02*
X53551796Y-99701795D01*
X54151797Y-99701796D02*
X54651796Y-99701796D01*
%TO.C,D1*%
X145651796Y-109701796D02*
X146051796Y-109701795D01*
X146051796Y-109701795D02*
X146051796Y-110251796D01*
X146051796Y-109701795D02*
X146051797Y-109151797D01*
X146051796Y-109701795D02*
X146651796Y-109301796D01*
X146651796Y-109301796D02*
X146651796Y-110101796D01*
X146651796Y-110101796D02*
X146051796Y-109701795D01*
X146651797Y-109701796D02*
X147151796Y-109701796D01*
%TO.C,D4*%
X127151796Y-107701795D02*
X127551796Y-107701794D01*
X127551796Y-107701794D02*
X127551796Y-108251795D01*
X127551796Y-107701794D02*
X127551797Y-107151796D01*
X127551796Y-107701794D02*
X128151796Y-107301795D01*
X128151796Y-107301795D02*
X128151796Y-108101795D01*
X128151796Y-108101795D02*
X127551796Y-107701794D01*
X128151797Y-107701795D02*
X128651796Y-107701795D01*
%TO.C,D21*%
X59559751Y-118934689D02*
X59953674Y-118865230D01*
X59953674Y-118865230D02*
X59858168Y-118323586D01*
X59953674Y-118865230D02*
X60049181Y-119406873D01*
X59953674Y-118865230D02*
X60475100Y-118367118D01*
X60475100Y-118367118D02*
X60614018Y-119154964D01*
X60544559Y-118761041D02*
X61036963Y-118674217D01*
X60614018Y-119154964D02*
X59953674Y-118865230D01*
%TO.C,D5*%
X127151794Y-90201795D02*
X127551794Y-90201794D01*
X127551794Y-90201794D02*
X127551794Y-90751795D01*
X127551794Y-90201794D02*
X127551795Y-89651796D01*
X127551794Y-90201794D02*
X128151794Y-89801795D01*
X128151794Y-89801795D02*
X128151794Y-90601795D01*
X128151794Y-90601795D02*
X127551794Y-90201794D01*
X128151795Y-90201795D02*
X128651794Y-90201795D01*
%TO.C,D13*%
X71651797Y-97701796D02*
X72051797Y-97701795D01*
X72051797Y-97701795D02*
X72051797Y-98251796D01*
X72051797Y-97701795D02*
X72051798Y-97151797D01*
X72051797Y-97701795D02*
X72651797Y-97301796D01*
X72651797Y-97301796D02*
X72651797Y-98101796D01*
X72651797Y-98101796D02*
X72051797Y-97701795D01*
X72651798Y-97701796D02*
X73151797Y-97701796D01*
%TO.C,D22*%
X41319143Y-125433767D02*
X41695021Y-125296960D01*
X41695021Y-125296960D02*
X41506909Y-124780128D01*
X41695021Y-125296960D02*
X41883131Y-125813789D01*
X41695021Y-125296960D02*
X42122027Y-124715870D01*
X42122027Y-124715870D02*
X42395643Y-125467624D01*
X42258836Y-125091747D02*
X42728681Y-124920737D01*
X42395643Y-125467624D02*
X41695021Y-125296960D01*
%TO.C,D6*%
X127151797Y-72701795D02*
X127551797Y-72701794D01*
X127551797Y-72701794D02*
X127551797Y-73251795D01*
X127551797Y-72701794D02*
X127551798Y-72151796D01*
X127551797Y-72701794D02*
X128151797Y-72301795D01*
X128151797Y-72301795D02*
X128151797Y-73101795D01*
X128151797Y-73101795D02*
X127551797Y-72701794D01*
X128151798Y-72701795D02*
X128651797Y-72701795D01*
D13*
%TO.C,MCU1*%
X21011796Y-47921795D02*
X21011796Y-80941795D01*
X21011796Y-80941795D02*
X38791796Y-80941795D01*
X38791796Y-47921795D02*
X21011796Y-47921795D01*
X38791796Y-80941795D02*
X38791796Y-47921795D01*
D12*
%TO.C,D20*%
X78651796Y-116701794D02*
X79051796Y-116701793D01*
X79051796Y-116701793D02*
X79051796Y-117251794D01*
X79051796Y-116701793D02*
X79051797Y-116151795D01*
X79051796Y-116701793D02*
X79651796Y-116301794D01*
X79651796Y-116301794D02*
X79651796Y-117101794D01*
X79651796Y-117101794D02*
X79051796Y-116701793D01*
X79651797Y-116701794D02*
X80151796Y-116701794D01*
%TO.C,D14*%
X71651795Y-80201794D02*
X72051795Y-80201793D01*
X72051795Y-80201793D02*
X72051795Y-80751794D01*
X72051795Y-80201793D02*
X72051796Y-79651795D01*
X72051795Y-80201793D02*
X72651795Y-79801794D01*
X72651795Y-79801794D02*
X72651795Y-80601794D01*
X72651795Y-80601794D02*
X72051795Y-80201793D01*
X72651796Y-80201794D02*
X73151795Y-80201794D01*
%TO.C,D10*%
X90151795Y-91701795D02*
X90551795Y-91701794D01*
X90551795Y-91701794D02*
X90551795Y-92251795D01*
X90551795Y-91701794D02*
X90551796Y-91151796D01*
X90551795Y-91701794D02*
X91151795Y-91301795D01*
X91151795Y-91301795D02*
X91151795Y-92101795D01*
X91151795Y-92101795D02*
X90551795Y-91701794D01*
X91151796Y-91701795D02*
X91651795Y-91701795D01*
%TO.C,D19*%
X97151794Y-117701795D02*
X97551794Y-117701794D01*
X97551794Y-117701794D02*
X97551794Y-118251795D01*
X97551794Y-117701794D02*
X97551795Y-117151796D01*
X97551794Y-117701794D02*
X98151794Y-117301795D01*
X98151794Y-117301795D02*
X98151794Y-118101795D01*
X98151794Y-118101795D02*
X97551794Y-117701794D01*
X98151795Y-117701795D02*
X98651794Y-117701795D01*
%TO.C,D8*%
X108651797Y-79201794D02*
X109051797Y-79201793D01*
X109051797Y-79201793D02*
X109051797Y-79751794D01*
X109051797Y-79201793D02*
X109051798Y-78651795D01*
X109051797Y-79201793D02*
X109651797Y-78801794D01*
X109651797Y-78801794D02*
X109651797Y-79601794D01*
X109651797Y-79601794D02*
X109051797Y-79201793D01*
X109651798Y-79201794D02*
X110151797Y-79201794D01*
%TO.C,D11*%
X90151796Y-74201794D02*
X90551796Y-74201793D01*
X90551796Y-74201793D02*
X90551796Y-74751794D01*
X90551796Y-74201793D02*
X90551797Y-73651795D01*
X90551796Y-74201793D02*
X91151796Y-73801794D01*
X91151796Y-73801794D02*
X91151796Y-74601794D01*
X91151796Y-74601794D02*
X90551796Y-74201793D01*
X91151797Y-74201794D02*
X91651796Y-74201794D01*
D11*
%TO.C,JST1*%
X24951796Y-98451794D02*
X24951796Y-106051794D01*
X24951796Y-106051794D02*
X25651796Y-106051794D01*
X25651795Y-104451794D02*
X30151796Y-104451794D01*
X25651796Y-106051794D02*
X25651795Y-104451794D01*
X26901796Y-102701794D02*
X26901796Y-103201794D01*
X27151795Y-102951794D02*
X26651795Y-102951795D01*
X30151796Y-104451794D02*
X30151796Y-106051794D01*
X30151796Y-106051794D02*
X30851796Y-106051794D01*
X30851796Y-98451794D02*
X24951796Y-98451794D01*
X30851796Y-106051794D02*
X30851796Y-98451794D01*
%TD*%
D14*
%TO.C,MCU1*%
X291520000Y-51730004D03*
X291520000Y-54270001D03*
X291520000Y-56810001D03*
X291520000Y-59350001D03*
X291520000Y-61890001D03*
X291520000Y-64430001D03*
X291520000Y-66970001D03*
X291520000Y-69510001D03*
X291519996Y-72050001D03*
X291520000Y-74590001D03*
X291520000Y-77130001D03*
X291520000Y-79670001D03*
X276280000Y-79669998D03*
X276280000Y-77130001D03*
X276280000Y-74590001D03*
X276280000Y-72050001D03*
X276280000Y-69510001D03*
X276280000Y-66970001D03*
X276280000Y-64430001D03*
X276280000Y-61890001D03*
X276280004Y-59350001D03*
X276280000Y-56810001D03*
X276280000Y-54270001D03*
X276280000Y-51730001D03*
X278820002Y-74590000D03*
X281360000Y-74590001D03*
X283900000Y-74590001D03*
%TD*%
%TO.C,MCU1*%
X22281796Y-51731796D03*
X22281796Y-54271795D03*
X22281796Y-56811795D03*
X22281796Y-59351795D03*
X22281796Y-61891795D03*
X22281796Y-64431795D03*
X22281796Y-66971795D03*
X22281796Y-69511795D03*
X22281797Y-72051795D03*
X22281796Y-74591795D03*
X22281796Y-77131795D03*
X22281796Y-79671795D03*
X37521796Y-79671794D03*
X37521796Y-77131795D03*
X37521796Y-74591795D03*
X37521796Y-72051795D03*
X37521796Y-69511795D03*
X37521796Y-66971795D03*
X37521796Y-64431795D03*
X37521796Y-61891795D03*
X37521795Y-59351795D03*
X37521796Y-56811795D03*
X37521796Y-54271795D03*
X37521796Y-51731795D03*
X24821796Y-74591795D03*
X27361796Y-74591795D03*
X29901796Y-74591795D03*
%TD*%
M02*
