0
SECTION
2
HEADER
9
$INSUNITS
70
4
0
ENDSEC
0
SECTION
2
TABLES
0
TABLE
2
LTYPE
0
LTYPE
72
65
70
64
2
CONTINUOUS
3
______
73
0
40
0
0
ENDTAB
0
TABLE
2
LAYER
0
ENDTAB
0
ENDSEC
0
SECTION
2
ENTITIES
0
LINE
8
0
10
87
20
-93
11
87
21
-36.8939758
0
LINE
8
0
10
88.8911696
20
-34.896939
11
121.8598164
21
-33.1002825
0
LINE
8
0
10
123.7502426
20
-31.1577709
11
123.9469416
21
-23.9454748
0
LINE
8
0
10
125.9461982
20
-22
11
140.3164032
21
-22
0
LINE
8
0
10
142.3128129
20
-20.1197846
11
142.3871871
21
-18.8802154
0
LINE
8
0
10
144.3835968
20
-17
11
166.5975015
21
-17
0
LINE
8
0
10
168.5950062
20
-18.9001248
11
168.7049938
21
-21.0998752
0
LINE
8
0
10
170.7024985
20
-23
11
224.001794
21
-23
0
LINE
8
0
10
226.0017932
20
-24.9982052
11
226.0626563
21
-92.8213272
0
LINE
8
0
10
225.814148
20
-93.7886681
11
214.6744135
21
-113.9960317
0
LINE
8
0
10
212.2388824
20
-114.9098708
11
189.6240522
21
-106.6787458
0
LINE
8
0
10
189.1960184
20
-106.5745835
11
161.6274747
21
-103.0164525
0
LINE
8
0
10
161.3714683
20
-103
11
136.2299356
21
-103
0
LINE
8
0
10
134.9416642
20
-102.5298224
11
126.5583358
21
-95.4701776
0
LINE
8
0
10
125.2700644
20
-95
11
89
21
-95
0
ARC
8
0
10
89
20
-36.8939758
40
2
50
93.119302
51
180
0
ARC
8
0
10
121.750986
20
-31.1032457
40
2
50
273.119302
51
358.4377745
0
ARC
8
0
10
125.9461982
20
-24
40
2
50
90
51
178.4377745
0
ARC
8
0
10
140.3164032
20
-20
40
2
50
270
51
356.566369
0
ARC
8
0
10
144.3835968
20
-19
40
2
50
90
51
176.566369
0
ARC
8
0
10
166.5975015
20
-19
40
2
50
2.8624044
51
90
0
ARC
8
0
10
170.7024985
20
-21
40
2
50
182.8624044
51
270
0
ARC
8
0
10
224.001794
20
-25
40
2
50
0.0514172
51
90
0
ARC
8
0
10
224.0626571
20
-92.823122
40
2
50
331.133326
51
0.0514172
0
ARC
8
0
10
212.9229226
20
-113.0304855
40
2
50
250.0000019
51
331.133326
0
ARC
8
0
10
188.940012
20
-108.558131
40
2
50
70.0000019
51
82.6457803
0
ARC
8
0
10
161.3714683
20
-105
40
2
50
82.6457803
51
90
0
ARC
8
0
10
136.2299356
20
-101
40
2
50
229.8990945
51
270
0
ARC
8
0
10
125.2700644
20
-97
40
2
50
49.8990945
51
90
0
ARC
8
0
10
89
20
-93
40
2
50
180
51
270
0
ENDSEC
0
EOF