0
SECTION
2
HEADER
9
$INSUNITS
70
4
0
ENDSEC
0
SECTION
2
TABLES
0
TABLE
2
LTYPE
0
LTYPE
72
65
70
64
2
CONTINUOUS
3
______
73
0
40
0
0
ENDTAB
0
TABLE
2
LAYER
0
ENDTAB
0
ENDSEC
0
SECTION
2
ENTITIES
0
LINE
8
0
10
89
20
-91
11
89
21
-38.8934111
0
LINE
8
0
10
90.8905752
20
-36.8964068
11
123.6715412
21
-35.1001895
0
LINE
8
0
10
125.5610062
20
-33.1698148
11
125.9355543
21
-21.9333704
0
LINE
8
0
10
127.9344441
20
-20
11
142.1900249
21
-20
0
LINE
8
0
10
144.1800993
20
-18.1990074
11
144.3199007
21
-16.8009926
0
LINE
8
0
10
146.3099751
20
-15
11
164.6597343
21
-15
0
LINE
8
0
10
166.6528258
20
-16.833909
11
166.8471742
21
-19.166091
0
LINE
8
0
10
168.8402658
20
-21
11
219.2873772
21
-21
0
LINE
8
0
10
221.2873376
20
-23.012583
11
220.8710729
21
-89.1744047
0
LINE
8
0
10
220.7121431
20
-89.9432347
11
213.3940224
21
-107.184929
0
LINE
8
0
10
210.8689516
20
-108.2829012
11
192.1812724
21
-101.4811422
0
LINE
8
0
10
191.7661778
20
-101.3786928
11
159.6338592
21
-97.0181654
0
LINE
8
0
10
159.3649136
20
-97
11
138.2603986
21
-97
0
LINE
8
0
10
136.931671
20
-96.4948186
11
133.568329
21
-93.5051814
0
LINE
8
0
10
132.2396014
20
-93
11
91
21
-93
0
ARC
8
0
10
91
20
-38.8934111
40
2
50
93.1363555
51
180
0
ARC
8
0
10
123.5621164
20
-33.1031852
40
2
50
273.1363555
51
358.0908493
0
ARC
8
0
10
127.9344441
20
-22
40
2
50
90
51
178.0908493
0
ARC
8
0
10
142.1900249
20
-18
40
2
50
270
51
354.289408
0
ARC
8
0
10
146.3099751
20
-17
40
2
50
90
51
174.289408
0
ARC
8
0
10
164.6597343
20
-17
40
2
50
4.7636426
51
90
0
ARC
8
0
10
168.8402658
20
-19
40
2
50
184.7636426
51
270
0
ARC
8
0
10
219.2873772
20
-23
40
2
50
359.6395212
51
90
0
ARC
8
0
10
218.8711125
20
-89.1618217
40
2
50
337.0015328
51
359.6395212
0
ARC
8
0
10
211.5529918
20
-106.403516
40
2
50
250.0000019
51
337.0015328
0
ARC
8
0
10
191.4972322
20
-103.3605274
40
2
50
70.0000019
51
82.2718645
0
ARC
8
0
10
159.3649136
20
-99
40
2
50
82.2718645
51
90
0
ARC
8
0
10
138.2603986
20
-95
40
2
50
228.3664616
51
270
0
ARC
8
0
10
132.2396014
20
-95
40
2
50
48.3664616
51
90
0
ARC
8
0
10
91
20
-91
40
2
50
180
51
270
0
ENDSEC
0
EOF