0
SECTION
2
HEADER
9
$INSUNITS
70
4
0
ENDSEC
0
SECTION
2
TABLES
0
TABLE
2
LTYPE
0
LTYPE
72
65
70
64
2
CONTINUOUS
3
______
73
0
40
0
0
ENDTAB
0
TABLE
2
LAYER
0
ENDTAB
0
ENDSEC
0
SECTION
2
ENTITIES
0
ARC
8
0
10
39.9650348
20
-16.5302479
40
80
50
68.2124798
51
131.3797392
0
LINE
8
0
10
122.0096006
20
36.9112902
11
121.9789129
21
-29.0270379
0
LINE
8
0
10
121.0972989
20
-30.6841822
11
107.4628031
21
-39.8807658
0
LINE
8
0
10
105.4194409
20
-39.9959415
11
59.6437652
21
-16.118091
0
LINE
8
0
10
58.7297649
20
-15.1310745
11
50.7987084
21
3.4194074
0
LINE
8
0
10
48.4740544
20
4.5733065
11
13.1659619
21
-4.2654356
0
LINE
8
0
10
12.6516391
20
-4.4735182
11
-2.5210236
21
-13.2334591
0
LINE
8
0
10
-5.2530744
20
-12.5014083
11
-30.4530744
21
31.146272
0
LINE
8
0
10
-29.7210236
20
33.8783228
11
-14.3057714
21
42.7783228
0
LINE
8
0
10
-14.3057714
20
42.7783228
11
-12.9186909
21
43.497342
0
LINE
8
0
10
70.4006132
20
57.612221
11
87.6105317
21
57.612221
0
LINE
8
0
10
89.6105317
20
55.612221
11
89.6105317
21
40.912221
0
LINE
8
0
10
91.6105317
20
38.912221
11
120.0096008
21
38.912221
0
ARC
8
0
10
-28.7210236
20
32.146272
40
2
50
120.0000001
51
210.0000001
0
ARC
8
0
10
-3.5210236
20
-11.5014083
40
2
50
210.0000001
51
300.0000001
0
ARC
8
0
10
13.6516391
20
-6.205569
40
2
50
104.0541377
51
120.0000001
0
ARC
8
0
10
48.9597317
20
2.633173
40
2
50
23.1485997
51
104.0541377
0
ARC
8
0
10
60.5687417
20
-14.3448401
40
2
50
203.1485997
51
242.4522156
0
ARC
8
0
10
106.3444174
20
-38.2226907
40
2
50
242.4522156
51
303.999999
0
ARC
8
0
10
119.9789131
20
-29.0261071
40
2
50
303.999999
51
359.9733345
0
ARC
8
0
10
120.0096008
20
36.912221
40
2
50
359.9733345
51
90
0
ARC
8
0
10
91.6105317
20
40.912221
40
2
50
180
51
270
0
ARC
8
0
10
87.6105317
20
55.612221
40
2
50
0
51
90
0
ARC
8
0
10
70.4006132
20
59.612221
40
2
50
248.2124798
51
270
0
LINE
8
0
10
-3.4527223
20
-11.5197096
11
11.7027223
21
-2.7697096
0
LINE
8
0
10
11.7027223
20
-2.7697096
11
3.4527223
21
11.5197096
0
LINE
8
0
10
3.4527223
20
11.5197096
11
-11.7027223
21
2.7697096
0
LINE
8
0
10
-11.7027223
20
2.7697096
11
-3.4527223
21
-11.5197096
0
LINE
8
0
10
-11.9527223
20
3.2027223
11
3.2027223
21
11.9527223
0
LINE
8
0
10
3.2027223
20
11.9527223
11
-5.0472777
21
26.2421415
0
LINE
8
0
10
-5.0472777
20
26.2421415
11
-20.2027223
21
17.4921415
0
LINE
8
0
10
-20.2027223
20
17.4921415
11
-11.9527223
21
3.2027223
0
LINE
8
0
10
-20.4527223
20
17.9251541
11
-5.2972777
21
26.6751541
0
LINE
8
0
10
-5.2972777
20
26.6751541
11
-13.5472777
21
40.9645733
0
LINE
8
0
10
-13.5472777
20
40.9645733
11
-28.7027223
21
32.2145733
0
LINE
8
0
10
-28.7027223
20
32.2145733
11
-20.4527223
21
17.9251541
0
LINE
8
0
10
12.3520172
20
3.6398725
11
29.7854244
21
5.165098
0
LINE
8
0
10
29.7854244
20
5.165098
11
28.3473546
21
21.6023105
0
LINE
8
0
10
28.3473546
20
21.6023105
11
10.9139474
21
20.077085
0
LINE
8
0
10
10.9139474
20
20.077085
11
12.3520172
21
3.6398725
0
LINE
8
0
10
10.8703695
20
20.5751824
11
28.3037767
21
22.1004079
0
LINE
8
0
10
28.3037767
20
22.1004079
11
26.8657069
21
38.5376204
0
LINE
8
0
10
26.8657069
20
38.5376204
11
9.4322997
21
37.0123949
0
LINE
8
0
10
9.4322997
20
37.0123949
11
10.8703695
21
20.5751824
0
LINE
8
0
10
9.3887218
20
37.5104922
11
26.822129
21
39.0357177
0
LINE
8
0
10
26.822129
20
39.0357177
11
25.3840592
21
55.4729302
0
LINE
8
0
10
25.3840592
20
55.4729302
11
7.950652
21
53.9477047
0
LINE
8
0
10
7.950652
20
53.9477047
11
9.3887218
21
37.5104922
0
LINE
8
0
10
30.9093046
20
9.5296591
11
48.3427118
21
11.0548846
0
LINE
8
0
10
48.3427118
20
11.0548846
11
46.904642
21
27.4920971
0
LINE
8
0
10
46.904642
20
27.4920971
11
29.4712348
21
25.9668716
0
LINE
8
0
10
29.4712348
20
25.9668716
11
30.9093046
21
9.5296591
0
LINE
8
0
10
29.4276569
20
26.4649689
11
46.8610641
21
27.9901944
0
LINE
8
0
10
46.8610641
20
27.9901944
11
45.4229943
21
44.4274069
0
LINE
8
0
10
45.4229943
20
44.4274069
11
27.9895871
21
42.9021814
0
LINE
8
0
10
27.9895871
20
42.9021814
11
29.4276569
21
26.4649689
0
LINE
8
0
10
27.9460092
20
43.4002788
11
45.3794164
21
44.9255043
0
LINE
8
0
10
45.3794164
20
44.9255043
11
43.9413466
21
61.3627168
0
LINE
8
0
10
43.9413466
20
61.3627168
11
26.5079394
21
59.8374913
0
LINE
8
0
10
26.5079394
20
59.8374913
11
27.9460092
21
43.4002788
0
LINE
8
0
10
50.2074158
20
6.9517907
11
67.640823
21
8.4770162
0
LINE
8
0
10
67.640823
20
8.4770162
11
66.2027532
21
24.9142287
0
LINE
8
0
10
66.2027532
20
24.9142287
11
48.769346
21
23.3890032
0
LINE
8
0
10
48.769346
20
23.3890032
11
50.2074158
21
6.9517907
0
LINE
8
0
10
48.7257681
20
23.8871005
11
66.1591753
21
25.412326
0
LINE
8
0
10
66.1591753
20
25.412326
11
64.7211055
21
41.8495385
0
LINE
8
0
10
64.7211055
20
41.8495385
11
47.2876983
21
40.324313
0
LINE
8
0
10
47.2876983
20
40.324313
11
48.7257681
21
23.8871005
0
LINE
8
0
10
47.2441204
20
40.8224104
11
64.6775276
21
42.3476359
0
LINE
8
0
10
64.6775276
20
42.3476359
11
63.2394578
21
58.7848484
0
LINE
8
0
10
63.2394578
20
58.7848484
11
45.8060506
21
57.2596229
0
LINE
8
0
10
45.8060506
20
57.2596229
11
47.2441204
21
40.8224104
0
LINE
8
0
10
70.0605318
20
5.162221
11
87.5605318
21
5.162221
0
LINE
8
0
10
87.5605318
20
5.162221
11
87.5605318
21
21.662221
0
LINE
8
0
10
87.5605318
20
21.662221
11
70.0605318
21
21.662221
0
LINE
8
0
10
70.0605318
20
21.662221
11
70.0605318
21
5.162221
0
LINE
8
0
10
70.0605318
20
22.162221
11
87.5605318
21
22.162221
0
LINE
8
0
10
87.5605318
20
22.162221
11
87.5605318
21
38.662221
0
LINE
8
0
10
87.5605318
20
38.662221
11
70.0605318
21
38.662221
0
LINE
8
0
10
70.0605318
20
38.662221
11
70.0605318
21
22.162221
0
LINE
8
0
10
70.0605317
20
39.162221
11
87.5605317
21
39.162221
0
LINE
8
0
10
87.5605317
20
39.162221
11
87.5605317
21
55.662221
0
LINE
8
0
10
87.5605317
20
55.662221
11
70.0605317
21
55.662221
0
LINE
8
0
10
70.0605317
20
55.662221
11
70.0605317
21
39.162221
0
LINE
8
0
10
61.0605318
20
-13.837779
11
78.5605318
21
-13.837779
0
LINE
8
0
10
78.5605318
20
-13.837779
11
78.5605318
21
2.662221
0
LINE
8
0
10
78.5605318
20
2.662221
11
61.0605318
21
2.662221
0
LINE
8
0
10
61.0605318
20
2.662221
11
61.0605318
21
-13.837779
0
LINE
8
0
10
80.2833724
20
-14.0429362
11
95.7349552
21
-22.2586885
0
LINE
8
0
10
95.7349552
20
-22.2586885
11
103.481236
21
-7.6900532
0
LINE
8
0
10
103.481236
20
-7.6900532
11
88.0296532
21
0.5256991
0
LINE
8
0
10
88.0296532
20
0.5256991
11
80.2833724
21
-14.0429362
0
LINE
8
0
10
97.1598177
20
-23.2486563
11
106.9456935
21
-37.7568138
0
LINE
8
0
10
106.9456935
20
-37.7568138
11
120.6248135
21
-28.5301309
0
LINE
8
0
10
120.6248135
20
-28.5301309
11
110.8389377
21
-14.0219734
0
LINE
8
0
10
110.8389377
20
-14.0219734
11
97.1598177
21
-23.2486563
0
ENDSEC
0
EOF