0
SECTION
2
HEADER
9
$INSUNITS
70
4
0
ENDSEC
0
SECTION
2
TABLES
0
TABLE
2
LTYPE
0
LTYPE
72
65
70
64
2
CONTINUOUS
3
______
73
0
40
0
0
ENDTAB
0
TABLE
2
LAYER
0
ENDTAB
0
ENDSEC
0
SECTION
2
ENTITIES
0
LINE
8
0
10
93
20
-89.5
11
107
21
-89.5
0
LINE
8
0
10
107
20
-89.5
11
107
21
-75.5
0
LINE
8
0
10
107
20
-75.5
11
93
21
-75.5
0
LINE
8
0
10
93
20
-75.5
11
93
21
-89.5
0
LINE
8
0
10
93
20
-72
11
107
21
-72
0
LINE
8
0
10
107
20
-72
11
107
21
-58
0
LINE
8
0
10
107
20
-58
11
93
21
-58
0
LINE
8
0
10
93
20
-58
11
93
21
-72
0
LINE
8
0
10
93
20
-54.5
11
107
21
-54.5
0
LINE
8
0
10
107
20
-54.5
11
107
21
-40.5
0
LINE
8
0
10
107
20
-40.5
11
93
21
-40.5
0
LINE
8
0
10
93
20
-40.5
11
93
21
-54.5
0
LINE
8
0
10
111.5
20
-87.5
11
125.5
21
-87.5
0
LINE
8
0
10
125.5
20
-87.5
11
125.5
21
-73.5
0
LINE
8
0
10
125.5
20
-73.5
11
111.5
21
-73.5
0
LINE
8
0
10
111.5
20
-73.5
11
111.5
21
-87.5
0
LINE
8
0
10
111.5
20
-70
11
125.5
21
-70
0
LINE
8
0
10
125.5
20
-70
11
125.5
21
-56
0
LINE
8
0
10
125.5
20
-56
11
111.5
21
-56
0
LINE
8
0
10
111.5
20
-56
11
111.5
21
-70
0
LINE
8
0
10
111.5
20
-52.5
11
125.5
21
-52.5
0
LINE
8
0
10
125.5
20
-52.5
11
125.5
21
-38.5
0
LINE
8
0
10
125.5
20
-38.5
11
111.5
21
-38.5
0
LINE
8
0
10
111.5
20
-38.5
11
111.5
21
-52.5
0
LINE
8
0
10
130
20
-72.5
11
144
21
-72.5
0
LINE
8
0
10
144
20
-72.5
11
144
21
-58.5
0
LINE
8
0
10
144
20
-58.5
11
130
21
-58.5
0
LINE
8
0
10
130
20
-58.5
11
130
21
-72.5
0
LINE
8
0
10
130
20
-55
11
144
21
-55
0
LINE
8
0
10
144
20
-55
11
144
21
-41
0
LINE
8
0
10
144
20
-41
11
130
21
-41
0
LINE
8
0
10
130
20
-41
11
130
21
-55
0
LINE
8
0
10
130
20
-37.5
11
144
21
-37.5
0
LINE
8
0
10
144
20
-37.5
11
144
21
-23.5
0
LINE
8
0
10
144
20
-23.5
11
130
21
-23.5
0
LINE
8
0
10
130
20
-23.5
11
130
21
-37.5
0
LINE
8
0
10
148.5
20
-67.5
11
162.5
21
-67.5
0
LINE
8
0
10
162.5
20
-67.5
11
162.5
21
-53.5
0
LINE
8
0
10
162.5
20
-53.5
11
148.5
21
-53.5
0
LINE
8
0
10
148.5
20
-53.5
11
148.5
21
-67.5
0
LINE
8
0
10
148.5
20
-50
11
162.5
21
-50
0
LINE
8
0
10
162.5
20
-50
11
162.5
21
-36
0
LINE
8
0
10
162.5
20
-36
11
148.5
21
-36
0
LINE
8
0
10
148.5
20
-36
11
148.5
21
-50
0
LINE
8
0
10
148.5
20
-32.5
11
162.5
21
-32.5
0
LINE
8
0
10
162.5
20
-32.5
11
162.5
21
-18.5
0
LINE
8
0
10
162.5
20
-18.5
11
148.5
21
-18.5
0
LINE
8
0
10
148.5
20
-18.5
11
148.5
21
-32.5
0
LINE
8
0
10
167
20
-73.5
11
181
21
-73.5
0
LINE
8
0
10
181
20
-73.5
11
181
21
-59.5
0
LINE
8
0
10
181
20
-59.5
11
167
21
-59.5
0
LINE
8
0
10
167
20
-59.5
11
167
21
-73.5
0
LINE
8
0
10
167
20
-56
11
181
21
-56
0
LINE
8
0
10
181
20
-56
11
181
21
-42
0
LINE
8
0
10
181
20
-42
11
167
21
-42
0
LINE
8
0
10
167
20
-42
11
167
21
-56
0
LINE
8
0
10
167
20
-38.5
11
181
21
-38.5
0
LINE
8
0
10
181
20
-38.5
11
181
21
-24.5
0
LINE
8
0
10
181
20
-24.5
11
167
21
-24.5
0
LINE
8
0
10
167
20
-24.5
11
167
21
-38.5
0
LINE
8
0
10
185.5
20
-75.5
11
199.5
21
-75.5
0
LINE
8
0
10
199.5
20
-75.5
11
199.5
21
-61.5
0
LINE
8
0
10
199.5
20
-61.5
11
185.5
21
-61.5
0
LINE
8
0
10
185.5
20
-61.5
11
185.5
21
-75.5
0
LINE
8
0
10
185.5
20
-58
11
199.5
21
-58
0
LINE
8
0
10
199.5
20
-58
11
199.5
21
-44
0
LINE
8
0
10
199.5
20
-44
11
185.5
21
-44
0
LINE
8
0
10
185.5
20
-44
11
185.5
21
-58
0
LINE
8
0
10
185.5
20
-40.5
11
199.5
21
-40.5
0
LINE
8
0
10
199.5
20
-40.5
11
199.5
21
-26.5
0
LINE
8
0
10
199.5
20
-26.5
11
185.5
21
-26.5
0
LINE
8
0
10
185.5
20
-26.5
11
185.5
21
-40.5
0
LINE
8
0
10
141.5
20
-93.5
11
155.5
21
-93.5
0
LINE
8
0
10
155.5
20
-93.5
11
155.5
21
-79.5
0
LINE
8
0
10
155.5
20
-79.5
11
141.5
21
-79.5
0
LINE
8
0
10
141.5
20
-79.5
11
141.5
21
-93.5
0
LINE
8
0
10
160
20
-92.5
11
174
21
-92.5
0
LINE
8
0
10
174
20
-92.5
11
174
21
-78.5
0
LINE
8
0
10
174
20
-78.5
11
160
21
-78.5
0
LINE
8
0
10
160
20
-78.5
11
160
21
-92.5
0
LINE
8
0
10
178.8169119
20
-93.8776808
11
192.6042204
21
-96.3087553
0
LINE
8
0
10
192.6042204
20
-96.3087553
11
195.0352949
21
-82.5214468
0
LINE
8
0
10
195.0352949
20
-82.5214468
11
181.2479864
21
-80.0903723
0
LINE
8
0
10
181.2479864
20
-80.0903723
11
178.8169119
21
-93.8776808
0
LINE
8
0
10
196.9350727
20
-99.4867618
11
210.0907693
21
-104.2750438
0
LINE
8
0
10
210.0907693
20
-104.2750438
11
214.8790513
21
-91.1193472
0
LINE
8
0
10
214.8790513
20
-91.1193472
11
201.7233547
21
-86.3310652
0
LINE
8
0
10
201.7233547
20
-86.3310652
11
196.9350727
21
-99.4867618
0
LINE
8
0
10
378
20
-89.5
11
392
21
-89.5
0
LINE
8
0
10
392
20
-89.5
11
392
21
-75.5
0
LINE
8
0
10
392
20
-75.5
11
378
21
-75.5
0
LINE
8
0
10
378
20
-75.5
11
378
21
-89.5
0
LINE
8
0
10
378
20
-72
11
392
21
-72
0
LINE
8
0
10
392
20
-72
11
392
21
-58
0
LINE
8
0
10
392
20
-58
11
378
21
-58
0
LINE
8
0
10
378
20
-58
11
378
21
-72
0
LINE
8
0
10
378
20
-54.5
11
392
21
-54.5
0
LINE
8
0
10
392
20
-54.5
11
392
21
-40.5
0
LINE
8
0
10
392
20
-40.5
11
378
21
-40.5
0
LINE
8
0
10
378
20
-40.5
11
378
21
-54.5
0
LINE
8
0
10
359.5
20
-87.5
11
373.5
21
-87.5
0
LINE
8
0
10
373.5
20
-87.5
11
373.5
21
-73.5
0
LINE
8
0
10
373.5
20
-73.5
11
359.5
21
-73.5
0
LINE
8
0
10
359.5
20
-73.5
11
359.5
21
-87.5
0
LINE
8
0
10
359.5
20
-70
11
373.5
21
-70
0
LINE
8
0
10
373.5
20
-70
11
373.5
21
-56
0
LINE
8
0
10
373.5
20
-56
11
359.5
21
-56
0
LINE
8
0
10
359.5
20
-56
11
359.5
21
-70
0
LINE
8
0
10
359.5
20
-52.5
11
373.5
21
-52.5
0
LINE
8
0
10
373.5
20
-52.5
11
373.5
21
-38.5
0
LINE
8
0
10
373.5
20
-38.5
11
359.5
21
-38.5
0
LINE
8
0
10
359.5
20
-38.5
11
359.5
21
-52.5
0
LINE
8
0
10
341
20
-72.5
11
355
21
-72.5
0
LINE
8
0
10
355
20
-72.5
11
355
21
-58.5
0
LINE
8
0
10
355
20
-58.5
11
341
21
-58.5
0
LINE
8
0
10
341
20
-58.5
11
341
21
-72.5
0
LINE
8
0
10
341
20
-55
11
355
21
-55
0
LINE
8
0
10
355
20
-55
11
355
21
-41
0
LINE
8
0
10
355
20
-41
11
341
21
-41
0
LINE
8
0
10
341
20
-41
11
341
21
-55
0
LINE
8
0
10
341
20
-37.5
11
355
21
-37.5
0
LINE
8
0
10
355
20
-37.5
11
355
21
-23.5
0
LINE
8
0
10
355
20
-23.5
11
341
21
-23.5
0
LINE
8
0
10
341
20
-23.5
11
341
21
-37.5
0
LINE
8
0
10
322.5
20
-67.5
11
336.5
21
-67.5
0
LINE
8
0
10
336.5
20
-67.5
11
336.5
21
-53.5
0
LINE
8
0
10
336.5
20
-53.5
11
322.5
21
-53.5
0
LINE
8
0
10
322.5
20
-53.5
11
322.5
21
-67.5
0
LINE
8
0
10
322.5
20
-50
11
336.5
21
-50
0
LINE
8
0
10
336.5
20
-50
11
336.5
21
-36
0
LINE
8
0
10
336.5
20
-36
11
322.5
21
-36
0
LINE
8
0
10
322.5
20
-36
11
322.5
21
-50
0
LINE
8
0
10
322.5
20
-32.5
11
336.5
21
-32.5
0
LINE
8
0
10
336.5
20
-32.5
11
336.5
21
-18.5
0
LINE
8
0
10
336.5
20
-18.5
11
322.5
21
-18.5
0
LINE
8
0
10
322.5
20
-18.5
11
322.5
21
-32.5
0
LINE
8
0
10
304
20
-73.5
11
318
21
-73.5
0
LINE
8
0
10
318
20
-73.5
11
318
21
-59.5
0
LINE
8
0
10
318
20
-59.5
11
304
21
-59.5
0
LINE
8
0
10
304
20
-59.5
11
304
21
-73.5
0
LINE
8
0
10
304
20
-56
11
318
21
-56
0
LINE
8
0
10
318
20
-56
11
318
21
-42
0
LINE
8
0
10
318
20
-42
11
304
21
-42
0
LINE
8
0
10
304
20
-42
11
304
21
-56
0
LINE
8
0
10
304
20
-38.5
11
318
21
-38.5
0
LINE
8
0
10
318
20
-38.5
11
318
21
-24.5
0
LINE
8
0
10
318
20
-24.5
11
304
21
-24.5
0
LINE
8
0
10
304
20
-24.5
11
304
21
-38.5
0
LINE
8
0
10
285.5
20
-75.5
11
299.5
21
-75.5
0
LINE
8
0
10
299.5
20
-75.5
11
299.5
21
-61.5
0
LINE
8
0
10
299.5
20
-61.5
11
285.5
21
-61.5
0
LINE
8
0
10
285.5
20
-61.5
11
285.5
21
-75.5
0
LINE
8
0
10
285.5
20
-58
11
299.5
21
-58
0
LINE
8
0
10
299.5
20
-58
11
299.5
21
-44
0
LINE
8
0
10
299.5
20
-44
11
285.5
21
-44
0
LINE
8
0
10
285.5
20
-44
11
285.5
21
-58
0
LINE
8
0
10
285.5
20
-40.5
11
299.5
21
-40.5
0
LINE
8
0
10
299.5
20
-40.5
11
299.5
21
-26.5
0
LINE
8
0
10
299.5
20
-26.5
11
285.5
21
-26.5
0
LINE
8
0
10
285.5
20
-26.5
11
285.5
21
-40.5
0
LINE
8
0
10
329.5
20
-93.5
11
343.5
21
-93.5
0
LINE
8
0
10
343.5
20
-93.5
11
343.5
21
-79.5
0
LINE
8
0
10
343.5
20
-79.5
11
329.5
21
-79.5
0
LINE
8
0
10
329.5
20
-79.5
11
329.5
21
-93.5
0
LINE
8
0
10
311
20
-92.5
11
325
21
-92.5
0
LINE
8
0
10
325
20
-92.5
11
325
21
-78.5
0
LINE
8
0
10
325
20
-78.5
11
311
21
-78.5
0
LINE
8
0
10
311
20
-78.5
11
311
21
-92.5
0
LINE
8
0
10
292.3957796
20
-96.3087553
11
306.1830881
21
-93.8776808
0
LINE
8
0
10
306.1830881
20
-93.8776808
11
303.7520136
21
-80.0903723
0
LINE
8
0
10
303.7520136
20
-80.0903723
11
289.9647051
21
-82.5214468
0
LINE
8
0
10
289.9647051
20
-82.5214468
11
292.3957796
21
-96.3087553
0
LINE
8
0
10
274.9092307
20
-104.2750438
11
288.0649273
21
-99.4867618
0
LINE
8
0
10
288.0649273
20
-99.4867618
11
283.2766453
21
-86.3310652
0
LINE
8
0
10
283.2766453
20
-86.3310652
11
270.1209487
21
-91.1193472
0
LINE
8
0
10
270.1209487
20
-91.1193472
11
274.9092307
21
-104.2750438
0
ENDSEC
0
EOF