<svg width="310.62mm" height="108.923mm" viewBox="0 0 310.62 108.923" xmlns="http://www.w3.org/2000/svg"><g id="svgGroup" stroke-linecap="round" fill-rule="evenodd" font-size="9pt" stroke="#000" stroke-width="0.25mm" fill="none" style="stroke:#000;stroke-width:0.25mm;fill:none"><path d="M 103.832 94.083 L 113.105 108.923 L 127.098 100.18 L 117.825 85.339 L 103.832 94.083 Z M 197.515 108.923 L 206.788 94.083 L 192.795 85.339 L 183.522 100.18 L 197.515 108.923 Z M 72.948 58.562 L 90.066 62.201 L 93.496 46.061 L 76.379 42.423 L 72.948 58.562 Z M 80.017 25.305 L 97.135 28.944 L 100.565 12.804 L 83.448 9.166 L 80.017 25.305 Z M 76.483 41.934 L 93.6 45.572 L 97.031 29.433 L 79.913 25.794 L 76.483 41.934 Z M 220.554 62.201 L 237.672 58.562 L 234.241 42.423 L 217.124 46.061 L 220.554 62.201 Z M 217.02 45.572 L 234.137 41.934 L 230.707 25.794 L 213.589 29.433 L 217.02 45.572 Z M 213.485 28.944 L 230.603 25.305 L 227.172 9.166 L 210.055 12.804 L 213.485 28.944 Z M 36.286 72.882 L 53.69 74.711 L 55.414 58.301 L 38.01 56.472 L 36.286 72.882 Z M 256.93 74.711 L 274.334 72.882 L 272.61 56.472 L 255.206 58.301 L 256.93 74.711 Z M 221.747 82.396 L 238.39 76.988 L 233.292 61.295 L 216.648 66.703 L 221.747 82.396 Z M 72.23 76.988 L 88.873 82.396 L 93.972 66.703 L 77.328 61.295 L 72.23 76.988 Z M 203.545 68.843 L 220.367 64.02 L 215.819 48.159 L 198.997 52.983 L 203.545 68.843 Z M 198.859 52.502 L 215.681 47.678 L 211.133 31.818 L 194.311 36.641 L 198.859 52.502 Z M 194.173 36.161 L 210.995 31.337 L 206.447 15.476 L 189.625 20.3 L 194.173 36.161 Z M 90.253 64.02 L 107.075 68.843 L 111.623 52.983 L 94.801 48.159 L 90.253 64.02 Z M 94.939 47.678 L 111.761 52.502 L 116.309 36.641 L 99.487 31.818 L 94.939 47.678 Z M 99.625 31.337 L 116.447 36.161 L 120.995 20.3 L 104.173 15.476 L 99.625 31.337 Z M 89.538 82.749 L 103.328 93.523 L 113.486 80.521 L 99.696 69.747 L 89.538 82.749 Z M 207.292 93.523 L 221.082 82.749 L 210.924 69.747 L 197.134 80.521 L 207.292 93.523 Z M 0 70.315 L 17.5 70.315 L 17.5 53.815 L 0 53.815 L 0 70.315 Z M 0 53.315 L 17.5 53.315 L 17.5 36.815 L 0 36.815 L 0 53.315 Z M 0 36.315 L 17.5 36.315 L 17.5 19.815 L 0 19.815 L 0 36.315 Z M 18 68.315 L 35.5 68.315 L 35.5 51.815 L 18 51.815 L 18 68.315 Z M 18 51.315 L 35.5 51.315 L 35.5 34.815 L 18 34.815 L 18 51.315 Z M 18 34.315 L 35.5 34.315 L 35.5 17.815 L 18 17.815 L 18 34.315 Z M 293.12 70.315 L 310.62 70.315 L 310.62 53.815 L 293.12 53.815 L 293.12 70.315 Z M 293.12 53.315 L 310.62 53.315 L 310.62 36.815 L 293.12 36.815 L 293.12 53.315 Z M 293.12 36.315 L 310.62 36.315 L 310.62 19.815 L 293.12 19.815 L 293.12 36.315 Z M 275.12 68.315 L 292.62 68.315 L 292.62 51.815 L 275.12 51.815 L 275.12 68.315 Z M 275.12 51.315 L 292.62 51.315 L 292.62 34.815 L 275.12 34.815 L 275.12 51.315 Z M 275.12 34.315 L 292.62 34.315 L 292.62 17.815 L 275.12 17.815 L 275.12 34.315 Z M 36.742 53.568 L 54.199 54.789 L 55.35 38.329 L 37.893 37.108 L 36.742 53.568 Z M 37.928 36.61 L 55.385 37.83 L 56.536 21.371 L 39.079 20.15 L 37.928 36.61 Z M 39.114 19.651 L 56.571 20.872 L 57.722 4.412 L 40.265 3.191 L 39.114 19.651 Z M 255.235 37.83 L 272.692 36.61 L 271.541 20.15 L 254.084 21.371 L 255.235 37.83 Z M 254.049 20.872 L 271.506 19.651 L 270.355 3.191 L 252.898 4.412 L 254.049 20.872 Z M 256.421 54.789 L 273.878 53.568 L 272.727 37.108 L 255.27 38.329 L 256.421 54.789 Z M 238.976 76.842 L 256.21 73.803 L 253.345 57.554 L 236.111 60.592 L 238.976 76.842 Z M 54.41 73.803 L 71.644 76.842 L 74.509 60.592 L 57.275 57.554 L 54.41 73.803 Z M 55.853 50.009 L 73.183 52.444 L 75.479 36.105 L 58.15 33.669 L 55.853 50.009 Z M 60.585 16.339 L 77.915 18.775 L 80.211 2.436 L 62.882 0 L 60.585 16.339 Z M 58.219 33.174 L 75.549 35.61 L 77.845 19.27 L 60.516 16.835 L 58.219 33.174 Z M 232.705 18.775 L 250.035 16.339 L 247.738 0 L 230.409 2.436 L 232.705 18.775 Z M 237.437 52.444 L 254.767 50.009 L 252.47 33.669 L 235.141 36.105 L 237.437 52.444 Z M 235.071 35.61 L 252.401 33.174 L 250.104 16.835 L 232.775 19.27 L 235.071 35.61 Z" vector-effect="non-scaling-stroke"/></g></svg>