0
SECTION
2
HEADER
9
$INSUNITS
70
4
0
ENDSEC
0
SECTION
2
TABLES
0
TABLE
2
LTYPE
0
LTYPE
72
65
70
64
2
CONTINUOUS
3
______
73
0
40
0
0
ENDTAB
0
TABLE
2
LAYER
0
ENDTAB
0
ENDSEC
0
SECTION
2
ENTITIES
0
LINE
8
0
10
93
20
-89.5
11
107
21
-89.5
0
LINE
8
0
10
107
20
-89.5
11
107
21
-75.5
0
LINE
8
0
10
107
20
-75.5
11
93
21
-75.5
0
LINE
8
0
10
93
20
-75.5
11
93
21
-89.5
0
LINE
8
0
10
93
20
-72
11
107
21
-72
0
LINE
8
0
10
107
20
-72
11
107
21
-58
0
LINE
8
0
10
107
20
-58
11
93
21
-58
0
LINE
8
0
10
93
20
-58
11
93
21
-72
0
LINE
8
0
10
93
20
-54.5
11
107
21
-54.5
0
LINE
8
0
10
107
20
-54.5
11
107
21
-40.5
0
LINE
8
0
10
107
20
-40.5
11
93
21
-40.5
0
LINE
8
0
10
93
20
-40.5
11
93
21
-54.5
0
LINE
8
0
10
111.5
20
-87.5
11
125.5
21
-87.5
0
LINE
8
0
10
125.5
20
-87.5
11
125.5
21
-73.5
0
LINE
8
0
10
125.5
20
-73.5
11
111.5
21
-73.5
0
LINE
8
0
10
111.5
20
-73.5
11
111.5
21
-87.5
0
LINE
8
0
10
111.5
20
-70
11
125.5
21
-70
0
LINE
8
0
10
125.5
20
-70
11
125.5
21
-56
0
LINE
8
0
10
125.5
20
-56
11
111.5
21
-56
0
LINE
8
0
10
111.5
20
-56
11
111.5
21
-70
0
LINE
8
0
10
111.5
20
-52.5
11
125.5
21
-52.5
0
LINE
8
0
10
125.5
20
-52.5
11
125.5
21
-38.5
0
LINE
8
0
10
125.5
20
-38.5
11
111.5
21
-38.5
0
LINE
8
0
10
111.5
20
-38.5
11
111.5
21
-52.5
0
LINE
8
0
10
130
20
-76.5
11
144
21
-76.5
0
LINE
8
0
10
144
20
-76.5
11
144
21
-62.5
0
LINE
8
0
10
144
20
-62.5
11
130
21
-62.5
0
LINE
8
0
10
130
20
-62.5
11
130
21
-76.5
0
LINE
8
0
10
130
20
-59
11
144
21
-59
0
LINE
8
0
10
144
20
-59
11
144
21
-45
0
LINE
8
0
10
144
20
-45
11
130
21
-45
0
LINE
8
0
10
130
20
-45
11
130
21
-59
0
LINE
8
0
10
130
20
-41.5
11
144
21
-41.5
0
LINE
8
0
10
144
20
-41.5
11
144
21
-27.5
0
LINE
8
0
10
144
20
-27.5
11
130
21
-27.5
0
LINE
8
0
10
130
20
-27.5
11
130
21
-41.5
0
LINE
8
0
10
148.5
20
-71.5
11
162.5
21
-71.5
0
LINE
8
0
10
162.5
20
-71.5
11
162.5
21
-57.5
0
LINE
8
0
10
162.5
20
-57.5
11
148.5
21
-57.5
0
LINE
8
0
10
148.5
20
-57.5
11
148.5
21
-71.5
0
LINE
8
0
10
148.5
20
-54
11
162.5
21
-54
0
LINE
8
0
10
162.5
20
-54
11
162.5
21
-40
0
LINE
8
0
10
162.5
20
-40
11
148.5
21
-40
0
LINE
8
0
10
148.5
20
-40
11
148.5
21
-54
0
LINE
8
0
10
148.5
20
-36.5
11
162.5
21
-36.5
0
LINE
8
0
10
162.5
20
-36.5
11
162.5
21
-22.5
0
LINE
8
0
10
162.5
20
-22.5
11
148.5
21
-22.5
0
LINE
8
0
10
148.5
20
-22.5
11
148.5
21
-36.5
0
LINE
8
0
10
167
20
-77.5
11
181
21
-77.5
0
LINE
8
0
10
181
20
-77.5
11
181
21
-63.5
0
LINE
8
0
10
181
20
-63.5
11
167
21
-63.5
0
LINE
8
0
10
167
20
-63.5
11
167
21
-77.5
0
LINE
8
0
10
167
20
-60
11
181
21
-60
0
LINE
8
0
10
181
20
-60
11
181
21
-46
0
LINE
8
0
10
181
20
-46
11
167
21
-46
0
LINE
8
0
10
167
20
-46
11
167
21
-60
0
LINE
8
0
10
167
20
-42.5
11
181
21
-42.5
0
LINE
8
0
10
181
20
-42.5
11
181
21
-28.5
0
LINE
8
0
10
181
20
-28.5
11
167
21
-28.5
0
LINE
8
0
10
167
20
-28.5
11
167
21
-42.5
0
LINE
8
0
10
185.5
20
-79.5
11
199.5
21
-79.5
0
LINE
8
0
10
199.5
20
-79.5
11
199.5
21
-65.5
0
LINE
8
0
10
199.5
20
-65.5
11
185.5
21
-65.5
0
LINE
8
0
10
185.5
20
-65.5
11
185.5
21
-79.5
0
LINE
8
0
10
185.5
20
-62
11
199.5
21
-62
0
LINE
8
0
10
199.5
20
-62
11
199.5
21
-48
0
LINE
8
0
10
199.5
20
-48
11
185.5
21
-48
0
LINE
8
0
10
185.5
20
-48
11
185.5
21
-62
0
LINE
8
0
10
185.5
20
-44.5
11
199.5
21
-44.5
0
LINE
8
0
10
199.5
20
-44.5
11
199.5
21
-30.5
0
LINE
8
0
10
199.5
20
-30.5
11
185.5
21
-30.5
0
LINE
8
0
10
185.5
20
-30.5
11
185.5
21
-44.5
0
LINE
8
0
10
141.5
20
-97.5
11
155.5
21
-97.5
0
LINE
8
0
10
155.5
20
-97.5
11
155.5
21
-83.5
0
LINE
8
0
10
155.5
20
-83.5
11
141.5
21
-83.5
0
LINE
8
0
10
141.5
20
-83.5
11
141.5
21
-97.5
0
LINE
8
0
10
160
20
-96.5
11
174
21
-96.5
0
LINE
8
0
10
174
20
-96.5
11
174
21
-82.5
0
LINE
8
0
10
174
20
-82.5
11
160
21
-82.5
0
LINE
8
0
10
160
20
-82.5
11
160
21
-96.5
0
LINE
8
0
10
178.8169119
20
-97.8776808
11
192.6042204
21
-100.3087553
0
LINE
8
0
10
192.6042204
20
-100.3087553
11
195.0352949
21
-86.5214468
0
LINE
8
0
10
195.0352949
20
-86.5214468
11
181.2479864
21
-84.0903723
0
LINE
8
0
10
181.2479864
20
-84.0903723
11
178.8169119
21
-97.8776808
0
LINE
8
0
10
196.9350727
20
-103.4867618
11
210.0907693
21
-108.2750438
0
LINE
8
0
10
210.0907693
20
-108.2750438
11
214.8790513
21
-95.1193472
0
LINE
8
0
10
214.8790513
20
-95.1193472
11
201.7233547
21
-90.3310652
0
LINE
8
0
10
201.7233547
20
-90.3310652
11
196.9350727
21
-103.4867618
0
LINE
8
0
10
378
20
-89.5
11
392
21
-89.5
0
LINE
8
0
10
392
20
-89.5
11
392
21
-75.5
0
LINE
8
0
10
392
20
-75.5
11
378
21
-75.5
0
LINE
8
0
10
378
20
-75.5
11
378
21
-89.5
0
LINE
8
0
10
378
20
-72
11
392
21
-72
0
LINE
8
0
10
392
20
-72
11
392
21
-58
0
LINE
8
0
10
392
20
-58
11
378
21
-58
0
LINE
8
0
10
378
20
-58
11
378
21
-72
0
LINE
8
0
10
378
20
-54.5
11
392
21
-54.5
0
LINE
8
0
10
392
20
-54.5
11
392
21
-40.5
0
LINE
8
0
10
392
20
-40.5
11
378
21
-40.5
0
LINE
8
0
10
378
20
-40.5
11
378
21
-54.5
0
LINE
8
0
10
359.5
20
-87.5
11
373.5
21
-87.5
0
LINE
8
0
10
373.5
20
-87.5
11
373.5
21
-73.5
0
LINE
8
0
10
373.5
20
-73.5
11
359.5
21
-73.5
0
LINE
8
0
10
359.5
20
-73.5
11
359.5
21
-87.5
0
LINE
8
0
10
359.5
20
-70
11
373.5
21
-70
0
LINE
8
0
10
373.5
20
-70
11
373.5
21
-56
0
LINE
8
0
10
373.5
20
-56
11
359.5
21
-56
0
LINE
8
0
10
359.5
20
-56
11
359.5
21
-70
0
LINE
8
0
10
359.5
20
-52.5
11
373.5
21
-52.5
0
LINE
8
0
10
373.5
20
-52.5
11
373.5
21
-38.5
0
LINE
8
0
10
373.5
20
-38.5
11
359.5
21
-38.5
0
LINE
8
0
10
359.5
20
-38.5
11
359.5
21
-52.5
0
LINE
8
0
10
341
20
-76.5
11
355
21
-76.5
0
LINE
8
0
10
355
20
-76.5
11
355
21
-62.5
0
LINE
8
0
10
355
20
-62.5
11
341
21
-62.5
0
LINE
8
0
10
341
20
-62.5
11
341
21
-76.5
0
LINE
8
0
10
341
20
-59
11
355
21
-59
0
LINE
8
0
10
355
20
-59
11
355
21
-45
0
LINE
8
0
10
355
20
-45
11
341
21
-45
0
LINE
8
0
10
341
20
-45
11
341
21
-59
0
LINE
8
0
10
341
20
-41.5
11
355
21
-41.5
0
LINE
8
0
10
355
20
-41.5
11
355
21
-27.5
0
LINE
8
0
10
355
20
-27.5
11
341
21
-27.5
0
LINE
8
0
10
341
20
-27.5
11
341
21
-41.5
0
LINE
8
0
10
322.5
20
-71.5
11
336.5
21
-71.5
0
LINE
8
0
10
336.5
20
-71.5
11
336.5
21
-57.5
0
LINE
8
0
10
336.5
20
-57.5
11
322.5
21
-57.5
0
LINE
8
0
10
322.5
20
-57.5
11
322.5
21
-71.5
0
LINE
8
0
10
322.5
20
-54
11
336.5
21
-54
0
LINE
8
0
10
336.5
20
-54
11
336.5
21
-40
0
LINE
8
0
10
336.5
20
-40
11
322.5
21
-40
0
LINE
8
0
10
322.5
20
-40
11
322.5
21
-54
0
LINE
8
0
10
322.5
20
-36.5
11
336.5
21
-36.5
0
LINE
8
0
10
336.5
20
-36.5
11
336.5
21
-22.5
0
LINE
8
0
10
336.5
20
-22.5
11
322.5
21
-22.5
0
LINE
8
0
10
322.5
20
-22.5
11
322.5
21
-36.5
0
LINE
8
0
10
304
20
-77.5
11
318
21
-77.5
0
LINE
8
0
10
318
20
-77.5
11
318
21
-63.5
0
LINE
8
0
10
318
20
-63.5
11
304
21
-63.5
0
LINE
8
0
10
304
20
-63.5
11
304
21
-77.5
0
LINE
8
0
10
304
20
-60
11
318
21
-60
0
LINE
8
0
10
318
20
-60
11
318
21
-46
0
LINE
8
0
10
318
20
-46
11
304
21
-46
0
LINE
8
0
10
304
20
-46
11
304
21
-60
0
LINE
8
0
10
304
20
-42.5
11
318
21
-42.5
0
LINE
8
0
10
318
20
-42.5
11
318
21
-28.5
0
LINE
8
0
10
318
20
-28.5
11
304
21
-28.5
0
LINE
8
0
10
304
20
-28.5
11
304
21
-42.5
0
LINE
8
0
10
285.5
20
-79.5
11
299.5
21
-79.5
0
LINE
8
0
10
299.5
20
-79.5
11
299.5
21
-65.5
0
LINE
8
0
10
299.5
20
-65.5
11
285.5
21
-65.5
0
LINE
8
0
10
285.5
20
-65.5
11
285.5
21
-79.5
0
LINE
8
0
10
285.5
20
-62
11
299.5
21
-62
0
LINE
8
0
10
299.5
20
-62
11
299.5
21
-48
0
LINE
8
0
10
299.5
20
-48
11
285.5
21
-48
0
LINE
8
0
10
285.5
20
-48
11
285.5
21
-62
0
LINE
8
0
10
285.5
20
-44.5
11
299.5
21
-44.5
0
LINE
8
0
10
299.5
20
-44.5
11
299.5
21
-30.5
0
LINE
8
0
10
299.5
20
-30.5
11
285.5
21
-30.5
0
LINE
8
0
10
285.5
20
-30.5
11
285.5
21
-44.5
0
LINE
8
0
10
329.5
20
-97.5
11
343.5
21
-97.5
0
LINE
8
0
10
343.5
20
-97.5
11
343.5
21
-83.5
0
LINE
8
0
10
343.5
20
-83.5
11
329.5
21
-83.5
0
LINE
8
0
10
329.5
20
-83.5
11
329.5
21
-97.5
0
LINE
8
0
10
311
20
-96.5
11
325
21
-96.5
0
LINE
8
0
10
325
20
-96.5
11
325
21
-82.5
0
LINE
8
0
10
325
20
-82.5
11
311
21
-82.5
0
LINE
8
0
10
311
20
-82.5
11
311
21
-96.5
0
LINE
8
0
10
292.3957796
20
-100.3087553
11
306.1830881
21
-97.8776808
0
LINE
8
0
10
306.1830881
20
-97.8776808
11
303.7520136
21
-84.0903723
0
LINE
8
0
10
303.7520136
20
-84.0903723
11
289.9647051
21
-86.5214468
0
LINE
8
0
10
289.9647051
20
-86.5214468
11
292.3957796
21
-100.3087553
0
LINE
8
0
10
274.9092307
20
-108.2750438
11
288.0649273
21
-103.4867618
0
LINE
8
0
10
288.0649273
20
-103.4867618
11
283.2766453
21
-90.3310652
0
LINE
8
0
10
283.2766453
20
-90.3310652
11
270.1209487
21
-95.1193472
0
LINE
8
0
10
270.1209487
20
-95.1193472
11
274.9092307
21
-108.2750438
0
ENDSEC
0
EOF