0
SECTION
2
HEADER
9
$INSUNITS
70
4
0
ENDSEC
0
SECTION
2
TABLES
0
TABLE
2
LTYPE
0
LTYPE
72
65
70
64
2
CONTINUOUS
3
______
73
0
40
0
0
ENDTAB
0
TABLE
2
LAYER
0
ENDTAB
0
ENDSEC
0
SECTION
2
ENTITIES
0
LINE
8
0
10
89
20
-108.6244673
11
89
21
-58.2706893
0
LINE
8
0
10
90.7014044
20
-56.2931048
11
109.0515434
21
-53.5224155
0
LINE
8
0
10
109.3501389
20
-53.5
11
126.0960527
21
-53.5
0
LINE
8
0
10
128.0854557
20
-51.705611
11
129.2649556
21
-40.2932804
0
LINE
8
0
10
130.9905136
20
-38.5163713
11
153.0497822
21
-35.5805988
0
LINE
8
0
10
153.5624662
20
-35.5786595
11
172.8469046
21
-37.9968095
0
LINE
8
0
10
173.5139722
20
-38.2033163
11
194.3409366
21
-48.9322622
0
LINE
8
0
10
194.6372437
20
-49.0559133
11
238.610391
21
-63.383688
0
LINE
8
0
10
239.9249383
20
-65.7942866
11
220.7600103
21
-138.6197136
0
LINE
8
0
10
219.885702
20
-139.8068147
11
205.3376354
21
-148.8974557
0
LINE
8
0
10
202.5805135
20
-148.259296
11
193.4186948
21
-133.5606794
0
LINE
8
0
10
192.9547228
20
-133.0441498
11
179.7546428
21
-122.7042591
0
LINE
8
0
10
179.13795
20
-122.3761527
11
162.7458032
21
-117.0635028
0
LINE
8
0
10
162.3509158
20
-116.9784045
11
125.1092992
21
-112.8239828
0
LINE
8
0
10
125.0159006
20
-112.8157751
11
90.8716676
21
-110.6203458
0
ARC
8
0
10
91
20
-58.2706893
40
2
50
98.586235
51
180
0
ARC
8
0
10
109.3501389
20
-55.5
40
2
50
90
51
98.586235
0
ARC
8
0
10
126.0960527
20
-51.5
40
2
50
270
51
354.0992534
0
ARC
8
0
10
131.2543586
20
-40.4988914
40
2
50
97.5807006
51
174.0992534
0
ARC
8
0
10
153.3136272
20
-37.5631189
40
2
50
82.8527661
51
97.5807006
0
ARC
8
0
10
172.5980656
20
-39.9812689
40
2
50
62.7448823
51
82.8527661
0
ARC
8
0
10
195.2568433
20
-47.1543096
40
2
50
242.7448823
51
251.9528339
0
ARC
8
0
10
237.9907914
20
-65.2852916
40
2
50
345.2561878
51
71.9528339
0
ARC
8
0
10
218.8258635
20
-138.1107186
40
2
50
302.0000016
51
345.2561878
0
ARC
8
0
10
204.2777968
20
-147.2013596
40
2
50
211.9357681
51
302.0000016
0
ARC
8
0
10
191.7214116
20
-134.6186159
40
2
50
31.9357681
51
51.9276805
0
ARC
8
0
10
178.5213316
20
-124.2787251
40
2
50
51.9276805
51
72.0426354
0
ARC
8
0
10
162.1291848
20
-118.9660753
40
2
50
72.0426354
51
83.6347896
0
ARC
8
0
10
124.8875682
20
-114.8116536
40
2
50
83.6347896
51
86.3210199
0
ARC
8
0
10
91
20
-108.6244673
40
2
50
180
51
266.3210199
0
ENDSEC
0
EOF