<svg width="150.991mm" height="113.638mm" viewBox="0 0 150.991 113.638" xmlns="http://www.w3.org/2000/svg"><g id="svgGroup" stroke-linecap="round" fill-rule="evenodd" font-size="9pt" stroke="#000" stroke-width="0.25mm" fill="none" style="stroke:#000;stroke-width:0.25mm;fill:none"><path d="M 0 73.061 L 0 22.708 A 2 2 0 0 1 1.701 20.73 L 20.052 17.959 A 2 2 0 0 1 20.35 17.937 L 37.096 17.937 A 2 2 0 0 0 39.085 16.142 L 40.265 4.73 A 2 2 0 0 1 41.991 2.953 L 64.05 0.017 A 2 2 0 0 1 64.562 0.016 L 83.847 2.434 A 2 2 0 0 1 84.514 2.64 L 105.341 13.369 A 2 2 0 0 0 105.637 13.493 L 149.61 27.821 A 2 2 0 0 1 150.925 30.231 L 131.76 103.057 A 2 2 0 0 1 130.886 104.244 L 116.338 113.334 A 2 2 0 0 1 113.581 112.696 L 104.419 97.998 A 2 2 0 0 0 103.955 97.481 L 90.755 87.141 A 2 2 0 0 0 90.138 86.813 L 73.746 81.5 A 2 2 0 0 0 73.351 81.415 L 36.109 77.261 A 2 2 0 0 0 36.016 77.253 L 1.872 75.057 A 2 2 0 0 1 0 73.061 Z" vector-effect="non-scaling-stroke"/></g></svg>