<svg width="150.991mm" height="113.638mm" viewBox="0 0 150.991 113.638" xmlns="http://www.w3.org/2000/svg"><g id="svgGroup" stroke-linecap="round" fill-rule="evenodd" font-size="9pt" stroke="#000" stroke-width="0.25mm" fill="none" style="stroke:#000;stroke-width:0.25mm;fill:none"><path d="M 0 73.061 L 0 22.708 A 2 2 0 0 1 1.701 20.73 L 20.052 17.959 A 2 2 0 0 1 20.35 17.937 L 37.096 17.937 A 2 2 0 0 0 39.085 16.142 L 40.265 4.73 A 2 2 0 0 1 41.991 2.953 L 64.05 0.017 A 2 2 0 0 1 64.562 0.016 L 83.847 2.434 A 2 2 0 0 1 84.514 2.64 L 105.341 13.369 A 2 2 0 0 0 105.637 13.493 L 149.61 27.821 A 2 2 0 0 1 150.925 30.231 L 131.76 103.057 A 2 2 0 0 1 130.886 104.244 L 116.338 113.334 A 2 2 0 0 1 113.581 112.696 L 104.419 97.998 A 2 2 0 0 0 103.955 97.481 L 90.755 87.141 A 2 2 0 0 0 90.138 86.813 L 73.746 81.5 A 2 2 0 0 0 73.351 81.415 L 36.109 77.261 A 2 2 0 0 0 36.016 77.253 L 1.872 75.057 A 2 2 0 0 1 0 73.061 Z M 106.082 96.454 L 115.355 111.295 L 129.348 102.551 L 120.075 87.71 L 106.082 96.454 Z M 75.198 60.934 L 92.316 64.572 L 95.746 48.433 L 78.629 44.794 L 75.198 60.934 Z M 82.267 27.677 L 99.385 31.315 L 102.815 15.176 L 85.698 11.537 L 82.267 27.677 Z M 78.733 44.305 L 95.85 47.944 L 99.281 31.804 L 82.163 28.166 L 78.733 44.305 Z M 38.536 75.253 L 55.94 77.082 L 57.664 60.673 L 40.26 58.844 L 38.536 75.253 Z M 74.48 79.359 L 91.123 84.767 L 96.222 69.075 L 79.578 63.667 L 74.48 79.359 Z M 92.503 66.391 L 109.325 71.215 L 113.873 55.354 L 97.051 50.531 L 92.503 66.391 Z M 97.189 50.05 L 114.011 54.874 L 118.559 39.013 L 101.737 34.189 L 97.189 50.05 Z M 101.875 33.708 L 118.697 38.532 L 123.245 22.671 L 106.423 17.848 L 101.875 33.708 Z M 91.788 85.121 L 105.578 95.895 L 115.736 82.892 L 101.946 72.118 L 91.788 85.121 Z M 2.25 72.687 L 19.75 72.687 L 19.75 56.187 L 2.25 56.187 L 2.25 72.687 Z M 2.25 55.687 L 19.75 55.687 L 19.75 39.187 L 2.25 39.187 L 2.25 55.687 Z M 2.25 38.687 L 19.75 38.687 L 19.75 22.187 L 2.25 22.187 L 2.25 38.687 Z M 20.25 70.687 L 37.75 70.687 L 37.75 54.187 L 20.25 54.187 L 20.25 70.687 Z M 20.25 53.687 L 37.75 53.687 L 37.75 37.187 L 20.25 37.187 L 20.25 53.687 Z M 20.25 36.687 L 37.75 36.687 L 37.75 20.187 L 20.25 20.187 L 20.25 36.687 Z M 38.992 55.94 L 56.449 57.161 L 57.6 40.701 L 40.143 39.48 L 38.992 55.94 Z M 40.178 38.981 L 57.635 40.202 L 58.786 23.742 L 41.329 22.521 L 40.178 38.981 Z M 41.364 22.023 L 58.821 23.243 L 59.972 6.784 L 42.515 5.563 L 41.364 22.023 Z M 56.66 76.174 L 73.894 79.213 L 76.759 62.964 L 59.525 59.925 L 56.66 76.174 Z M 58.103 52.38 L 75.433 54.816 L 77.729 38.476 L 60.4 36.041 L 58.103 52.38 Z M 62.835 18.711 L 80.165 21.146 L 82.461 4.807 L 65.132 2.372 L 62.835 18.711 Z M 60.469 35.546 L 77.799 37.981 L 80.095 21.642 L 62.766 19.206 L 60.469 35.546 Z" vector-effect="non-scaling-stroke"/></g></svg>