<svg width="315.12mm" height="114.565mm" viewBox="0 0 315.12 114.565" xmlns="http://www.w3.org/2000/svg"><g id="svgGroup" stroke-linecap="round" fill-rule="evenodd" font-size="9pt" stroke="#000" stroke-width="0.25mm" fill="none" style="stroke:#000;stroke-width:0.25mm;fill:none"><path d="M 0 75.107 L 22 75.107 L 22 73.107 L 36.517 73.107 L 36.063 77.425 L 57.942 79.725 L 58.032 78.871 L 73.646 81.624 L 90.414 87.072 L 104.181 97.828 L 114.64 114.565 L 132.449 103.437 L 120.79 84.78 L 113.873 89.102 L 118.895 82.674 L 106.348 72.872 L 110.868 74.168 L 126.028 21.298 L 105.125 15.304 L 105.484 13.613 L 84.157 9.079 L 85.003 3.062 L 63.217 0 L 62.216 7.123 L 62.374 4.866 L 40.427 3.331 L 39.394 18.107 L 18 18.107 L 18 20.107 L 0 20.107 L 0 75.107 Z M 293.12 75.107 L 315.12 75.107 L 315.12 20.107 L 297.12 20.107 L 297.12 18.107 L 275.726 18.107 L 274.693 3.331 L 252.747 4.866 L 252.904 7.123 L 251.903 0 L 230.117 3.062 L 230.963 9.079 L 209.636 13.613 L 209.996 15.304 L 189.092 21.298 L 204.252 74.168 L 208.772 72.872 L 196.225 82.674 L 201.248 89.102 L 194.33 84.78 L 182.671 103.437 L 200.48 114.565 L 210.939 97.828 L 224.706 87.072 L 241.474 81.624 L 257.088 78.871 L 257.178 79.725 L 279.057 77.425 L 278.603 73.107 L 293.12 73.107 L 293.12 75.107 Z M 256.247 54.93 L 256.438 57.661 L 242.03 60.202 L 241.355 57.023 L 256.247 54.93 Z M 58.682 57.661 L 58.873 54.93 L 73.765 57.023 L 73.09 60.202 L 58.682 57.661 Z M 98.171 70.527 L 100.047 71.065 L 96.536 75.558 L 98.171 70.527 Z M 215.073 71.065 L 216.949 70.527 L 218.584 75.558 L 215.073 71.065 Z" vector-effect="non-scaling-stroke"/></g></svg>