0
SECTION
2
HEADER
9
$INSUNITS
70
4
0
ENDSEC
0
SECTION
2
TABLES
0
TABLE
2
LTYPE
0
LTYPE
72
65
70
64
2
CONTINUOUS
3
______
73
0
40
0
0
ENDTAB
0
TABLE
2
LAYER
0
ENDTAB
0
ENDSEC
0
SECTION
2
ENTITIES
0
LINE
8
0
10
404.1200448
20
-108.6244673
11
404.1200448
21
-58.2706893
0
LINE
8
0
10
402.4186404
20
-56.2931048
11
384.0685014
21
-53.5224155
0
LINE
8
0
10
383.7699059
20
-53.5
11
367.0239921
21
-53.5
0
LINE
8
0
10
365.0345891
20
-51.705611
11
363.8550892
21
-40.2932804
0
LINE
8
0
10
362.1295312
20
-38.5163713
11
340.0702626
21
-35.5805988
0
LINE
8
0
10
339.5575786
20
-35.5786595
11
320.2731402
21
-37.9968095
0
LINE
8
0
10
319.6060726
20
-38.2033163
11
298.7791082
21
-48.9322622
0
LINE
8
0
10
298.4828011
20
-49.0559133
11
254.5096538
21
-63.383688
0
LINE
8
0
10
253.1951065
20
-65.7942866
11
272.3600345
21
-138.6197136
0
LINE
8
0
10
273.2343428
20
-139.8068147
11
287.7824094
21
-148.8974557
0
LINE
8
0
10
290.5395313
20
-148.259296
11
299.70135
21
-133.5606794
0
LINE
8
0
10
300.165322
20
-133.0441498
11
313.365402
21
-122.7042591
0
LINE
8
0
10
313.9820948
20
-122.3761527
11
330.3742416
21
-117.0635028
0
LINE
8
0
10
330.769129
20
-116.9784045
11
368.0107456
21
-112.8239828
0
LINE
8
0
10
368.1041442
20
-112.8157751
11
402.2483772
21
-110.6203458
0
ARC
8
0
10
402.1200448
20
-58.2706893
40
2
50
0
51
81.413765
0
ARC
8
0
10
383.7699059
20
-55.5
40
2
50
81.413765
51
90
0
ARC
8
0
10
367.0239921
20
-51.5
40
2
50
185.9007466
51
270
0
ARC
8
0
10
361.8656862
20
-40.4988914
40
2
50
5.9007466
51
82.4192994
0
ARC
8
0
10
339.8064176
20
-37.5631189
40
2
50
82.4192994
51
97.1472339
0
ARC
8
0
10
320.5219792
20
-39.9812689
40
2
50
97.1472339
51
117.2551177
0
ARC
8
0
10
297.8632015
20
-47.1543096
40
2
50
288.0471661
51
297.2551177
0
ARC
8
0
10
255.1292534
20
-65.2852916
40
2
50
108.0471661
51
194.7438122
0
ARC
8
0
10
274.2941813
20
-138.1107186
40
2
50
194.7438122
51
237.9999984
0
ARC
8
0
10
288.842248
20
-147.2013596
40
2
50
237.9999984
51
328.0642319
0
ARC
8
0
10
301.3986332
20
-134.6186159
40
2
50
128.0723195
51
148.0642319
0
ARC
8
0
10
314.5987132
20
-124.2787251
40
2
50
107.9573646
51
128.0723195
0
ARC
8
0
10
330.99086
20
-118.9660753
40
2
50
96.3652104
51
107.9573646
0
ARC
8
0
10
368.2324766
20
-114.8116536
40
2
50
93.6789801
51
96.3652104
0
ARC
8
0
10
402.1200448
20
-108.6244673
40
2
50
273.6789801
51
0
0
LINE
8
0
10
384.3700448
20
-108.25
11
401.8700448
21
-108.25
0
LINE
8
0
10
401.8700448
20
-108.25
11
401.8700448
21
-91.75
0
LINE
8
0
10
401.8700448
20
-91.75
11
384.3700448
21
-91.75
0
LINE
8
0
10
384.3700448
20
-91.75
11
384.3700448
21
-108.25
0
LINE
8
0
10
384.3700448
20
-91.25
11
401.8700448
21
-91.25
0
LINE
8
0
10
401.8700448
20
-91.25
11
401.8700448
21
-74.75
0
LINE
8
0
10
401.8700448
20
-74.75
11
384.3700448
21
-74.75
0
LINE
8
0
10
384.3700448
20
-74.75
11
384.3700448
21
-91.25
0
LINE
8
0
10
384.3700448
20
-74.25
11
401.8700448
21
-74.25
0
LINE
8
0
10
401.8700448
20
-74.25
11
401.8700448
21
-57.75
0
LINE
8
0
10
401.8700448
20
-57.75
11
384.3700448
21
-57.75
0
LINE
8
0
10
384.3700448
20
-57.75
11
384.3700448
21
-74.25
0
LINE
8
0
10
366.3700448
20
-106.25
11
383.8700448
21
-106.25
0
LINE
8
0
10
383.8700448
20
-106.25
11
383.8700448
21
-89.75
0
LINE
8
0
10
383.8700448
20
-89.75
11
366.3700448
21
-89.75
0
LINE
8
0
10
366.3700448
20
-89.75
11
366.3700448
21
-106.25
0
LINE
8
0
10
366.3700448
20
-89.25
11
383.8700448
21
-89.25
0
LINE
8
0
10
383.8700448
20
-89.25
11
383.8700448
21
-72.75
0
LINE
8
0
10
383.8700448
20
-72.75
11
366.3700448
21
-72.75
0
LINE
8
0
10
366.3700448
20
-72.75
11
366.3700448
21
-89.25
0
LINE
8
0
10
366.3700448
20
-72.25
11
383.8700448
21
-72.25
0
LINE
8
0
10
383.8700448
20
-72.25
11
383.8700448
21
-55.75
0
LINE
8
0
10
383.8700448
20
-55.75
11
366.3700448
21
-55.75
0
LINE
8
0
10
366.3700448
20
-55.75
11
366.3700448
21
-72.25
0
LINE
8
0
10
347.6707087
20
-92.7236333
11
365.1280795
21
-91.502895
0
LINE
8
0
10
365.1280795
20
-91.502895
11
363.9770977
21
-75.0430881
0
LINE
8
0
10
363.9770977
20
-75.0430881
11
346.5197269
21
-76.2638264
0
LINE
8
0
10
346.5197269
20
-76.2638264
11
347.6707087
21
-92.7236333
0
LINE
8
0
10
346.4848486
20
-75.7650444
11
363.9422194
21
-74.5443061
0
LINE
8
0
10
363.9422194
20
-74.5443061
11
362.7912376
21
-58.0844992
0
LINE
8
0
10
362.7912376
20
-58.0844992
11
345.3338668
21
-59.3052375
0
LINE
8
0
10
345.3338668
20
-59.3052375
11
346.4848486
21
-75.7650444
0
LINE
8
0
10
345.2989885
20
-58.8064555
11
362.7563593
21
-57.5857172
0
LINE
8
0
10
362.7563593
20
-57.5857172
11
361.6053775
21
-41.1259103
0
LINE
8
0
10
361.6053775
20
-41.1259103
11
344.1480067
21
-42.3466486
0
LINE
8
0
10
344.1480067
20
-42.3466486
11
345.2989885
21
-58.8064555
0
LINE
8
0
10
328.6869277
20
-90.3787191
11
346.0166189
21
-87.9431898
0
LINE
8
0
10
346.0166189
20
-87.9431898
11
343.7202627
21
-71.6037667
0
LINE
8
0
10
343.7202627
20
-71.6037667
11
326.3905715
21
-74.039296
0
LINE
8
0
10
326.3905715
20
-74.039296
11
328.6869277
21
-90.3787191
0
LINE
8
0
10
326.320985
20
-73.5441619
11
343.6506762
21
-71.1086326
0
LINE
8
0
10
343.6506762
20
-71.1086326
11
341.35432
21
-54.7692095
0
LINE
8
0
10
341.35432
20
-54.7692095
11
324.0246288
21
-57.2047388
0
LINE
8
0
10
324.0246288
20
-57.2047388
11
326.320985
21
-73.5441619
0
LINE
8
0
10
323.9550423
20
-56.7096047
11
341.2847335
21
-54.2740754
0
LINE
8
0
10
341.2847335
20
-54.2740754
11
338.9883773
21
-37.9346523
0
LINE
8
0
10
338.9883773
20
-37.9346523
11
321.6586861
21
-40.3701816
0
LINE
8
0
10
321.6586861
20
-40.3701816
11
323.9550423
21
-56.7096047
0
LINE
8
0
10
311.8041073
20
-100.1355027
11
328.9216904
21
-96.4970481
0
LINE
8
0
10
328.9216904
20
-96.4970481
11
325.4911475
21
-80.3576127
0
LINE
8
0
10
325.4911475
20
-80.3576127
11
308.3735644
21
-83.9960673
0
LINE
8
0
10
308.3735644
20
-83.9960673
11
311.8041073
21
-100.1355027
0
LINE
8
0
10
308.2696086
20
-83.5069935
11
325.3871917
21
-79.8685389
0
LINE
8
0
10
325.3871917
20
-79.8685389
11
321.9566488
21
-63.7291035
0
LINE
8
0
10
321.9566488
20
-63.7291035
11
304.8390657
21
-67.3675581
0
LINE
8
0
10
304.8390657
20
-67.3675581
11
308.2696086
21
-83.5069935
0
LINE
8
0
10
304.7351099
20
-66.8784843
11
321.852693
21
-63.2400297
0
LINE
8
0
10
321.852693
20
-63.2400297
11
318.4221501
21
-47.1005943
0
LINE
8
0
10
318.4221501
20
-47.1005943
11
301.304567
21
-50.7390489
0
LINE
8
0
10
301.304567
20
-50.7390489
11
304.7351099
21
-66.8784843
0
LINE
8
0
10
294.7946607
20
-106.7781008
11
311.6167404
21
-101.954447
0
LINE
8
0
10
311.6167404
20
-101.954447
11
307.0687241
21
-86.093629
0
LINE
8
0
10
307.0687241
20
-86.093629
11
290.2466444
21
-90.9172828
0
LINE
8
0
10
290.2466444
20
-90.9172828
11
294.7946607
21
-106.7781008
0
LINE
8
0
10
290.1088257
20
-90.436652
11
306.9309054
21
-85.6129982
0
LINE
8
0
10
306.9309054
20
-85.6129982
11
302.3828891
21
-69.7521802
0
LINE
8
0
10
302.3828891
20
-69.7521802
11
285.5608094
21
-74.575834
0
LINE
8
0
10
285.5608094
20
-74.575834
11
290.1088257
21
-90.436652
0
LINE
8
0
10
285.4229907
20
-74.0952032
11
302.2450704
21
-69.2715494
0
LINE
8
0
10
302.2450704
20
-69.2715494
11
297.6970541
21
-53.4107314
0
LINE
8
0
10
297.6970541
20
-53.4107314
11
280.8749744
21
-58.2343852
0
LINE
8
0
10
280.8749744
20
-58.2343852
11
285.4229907
21
-74.0952032
0
LINE
8
0
10
348.180354
20
-112.6455468
11
365.5844872
21
-110.8162987
0
LINE
8
0
10
365.5844872
20
-110.8162987
11
363.8597676
21
-94.4066874
0
LINE
8
0
10
363.8597676
20
-94.4066874
11
346.4556344
21
-96.2359355
0
LINE
8
0
10
346.4556344
20
-96.2359355
11
348.180354
21
-112.6455468
0
LINE
8
0
10
330.2258979
20
-114.7764119
11
347.4600336
21
-111.7375688
0
LINE
8
0
10
347.4600336
20
-111.7375688
11
344.5948387
21
-95.4882409
0
LINE
8
0
10
344.5948387
20
-95.4882409
11
327.360703
21
-98.527084
0
LINE
8
0
10
327.360703
20
-98.527084
11
330.2258979
21
-114.7764119
0
LINE
8
0
10
312.9969163
20
-120.3301891
11
329.6404053
21
-114.9223917
0
LINE
8
0
10
329.6404053
20
-114.9223917
11
324.5416249
21
-99.2299591
0
LINE
8
0
10
324.5416249
20
-99.2299591
11
307.8981359
21
-104.6377565
0
LINE
8
0
10
307.8981359
20
-104.6377565
11
312.9969163
21
-120.3301891
0
LINE
8
0
10
298.5419779
20
-131.4577188
11
312.3321661
21
-120.683643
0
LINE
8
0
10
312.3321661
20
-120.683643
11
302.1737517
21
-107.6814656
0
LINE
8
0
10
302.1737517
20
-107.6814656
11
288.3835635
21
-118.4555414
0
LINE
8
0
10
288.3835635
20
-118.4555414
11
298.5419779
21
-131.4577188
0
LINE
8
0
10
288.7646183
20
-146.8580566
11
298.0382055
21
-132.0172149
0
LINE
8
0
10
298.0382055
20
-132.0172149
11
284.0454119
21
-123.273547
0
LINE
8
0
10
284.0454119
20
-123.273547
11
274.7718247
21
-138.1143887
0
LINE
8
0
10
274.7718247
20
-138.1143887
11
288.7646183
21
-146.8580566
0
ENDSEC
0
EOF