<svg width="150.991mm" height="113.638mm" viewBox="0 0 150.991 113.638" xmlns="http://www.w3.org/2000/svg"><g id="svgGroup" stroke-linecap="round" fill-rule="evenodd" font-size="9pt" stroke="#000" stroke-width="0.25mm" fill="none" style="stroke:#000;stroke-width:0.25mm;fill:none"><path d="M 150.991 73.061 L 150.991 22.708 A 2 2 0 0 0 149.289 20.73 L 130.939 17.959 A 2 2 0 0 0 130.641 17.937 L 113.895 17.937 A 2 2 0 0 1 111.905 16.142 L 110.726 4.73 A 2 2 0 0 0 109 2.953 L 86.941 0.017 A 2 2 0 0 0 86.428 0.016 L 67.144 2.434 A 2 2 0 0 0 66.477 2.64 L 45.65 13.369 A 2 2 0 0 1 45.354 13.493 L 1.38 27.821 A 2 2 0 0 0 0.066 30.231 L 19.231 103.057 A 2 2 0 0 0 20.105 104.244 L 34.653 113.334 A 2 2 0 0 0 37.41 112.696 L 46.572 97.998 A 2 2 0 0 1 47.036 97.481 L 60.236 87.141 A 2 2 0 0 1 60.853 86.813 L 77.245 81.5 A 2 2 0 0 1 77.64 81.415 L 114.881 77.261 A 2 2 0 0 1 114.975 77.253 L 149.119 75.057 A 2 2 0 0 0 150.991 73.061 Z M 35.635 111.295 L 44.909 96.454 L 30.916 87.71 L 21.643 102.551 L 35.635 111.295 Z M 58.675 64.572 L 75.792 60.934 L 72.362 44.794 L 55.244 48.433 L 58.675 64.572 Z M 55.14 47.944 L 72.258 44.305 L 68.827 28.166 L 51.71 31.804 L 55.14 47.944 Z M 51.606 31.315 L 68.723 27.677 L 65.293 11.537 L 48.175 15.176 L 51.606 31.315 Z M 95.051 77.082 L 112.455 75.253 L 110.731 58.844 L 93.326 60.673 L 95.051 77.082 Z M 59.868 84.767 L 76.511 79.359 L 71.412 63.667 L 54.769 69.075 L 59.868 84.767 Z M 41.665 71.215 L 58.487 66.391 L 53.939 50.531 L 37.117 55.354 L 41.665 71.215 Z M 36.98 54.874 L 53.802 50.05 L 49.254 34.189 L 32.432 39.013 L 36.98 54.874 Z M 32.294 38.532 L 49.116 33.708 L 44.568 17.848 L 27.746 22.671 L 32.294 38.532 Z M 45.413 95.895 L 59.203 85.121 L 49.044 72.118 L 35.254 82.892 L 45.413 95.895 Z M 131.241 72.687 L 148.741 72.687 L 148.741 56.187 L 131.241 56.187 L 131.241 72.687 Z M 131.241 55.687 L 148.741 55.687 L 148.741 39.187 L 131.241 39.187 L 131.241 55.687 Z M 131.241 38.687 L 148.741 38.687 L 148.741 22.187 L 131.241 22.187 L 131.241 38.687 Z M 113.241 70.687 L 130.741 70.687 L 130.741 54.187 L 113.241 54.187 L 113.241 70.687 Z M 113.241 53.687 L 130.741 53.687 L 130.741 37.187 L 113.241 37.187 L 113.241 53.687 Z M 113.241 36.687 L 130.741 36.687 L 130.741 20.187 L 113.241 20.187 L 113.241 36.687 Z M 93.356 40.202 L 110.813 38.981 L 109.662 22.521 L 92.205 23.742 L 93.356 40.202 Z M 92.17 23.243 L 109.627 22.023 L 108.476 5.563 L 91.019 6.784 L 92.17 23.243 Z M 94.541 57.161 L 111.999 55.94 L 110.848 39.48 L 93.39 40.701 L 94.541 57.161 Z M 77.097 79.213 L 94.331 76.174 L 91.466 59.925 L 74.231 62.964 L 77.097 79.213 Z M 70.826 21.146 L 88.155 18.711 L 85.859 2.372 L 68.529 4.807 L 70.826 21.146 Z M 75.558 54.816 L 92.887 52.38 L 90.591 36.041 L 73.261 38.476 L 75.558 54.816 Z M 73.192 37.981 L 90.521 35.546 L 88.225 19.206 L 70.895 21.642 L 73.192 37.981 Z" vector-effect="non-scaling-stroke"/></g></svg>