0
SECTION
2
HEADER
9
$INSUNITS
70
4
0
ENDSEC
0
SECTION
2
TABLES
0
TABLE
2
LTYPE
0
LTYPE
72
65
70
64
2
CONTINUOUS
3
______
73
0
40
0
0
ENDTAB
0
TABLE
2
LAYER
0
ENDTAB
0
ENDSEC
0
SECTION
2
ENTITIES
0
LINE
8
0
10
404.1200448
20
-108.6244673
11
404.1200448
21
-58.2706893
0
LINE
8
0
10
402.4186404
20
-56.2931048
11
384.0685014
21
-53.5224155
0
LINE
8
0
10
383.7699059
20
-53.5
11
367.0239921
21
-53.5
0
LINE
8
0
10
365.0345891
20
-51.705611
11
363.8550892
21
-40.2932804
0
LINE
8
0
10
362.1295312
20
-38.5163713
11
340.0702626
21
-35.5805988
0
LINE
8
0
10
339.5575786
20
-35.5786595
11
320.2731402
21
-37.9968095
0
LINE
8
0
10
319.6060726
20
-38.2033163
11
298.7791082
21
-48.9322622
0
LINE
8
0
10
298.4828011
20
-49.0559133
11
254.5096538
21
-63.383688
0
LINE
8
0
10
253.1951065
20
-65.7942866
11
272.3600345
21
-138.6197136
0
LINE
8
0
10
273.2343428
20
-139.8068147
11
287.7824094
21
-148.8974557
0
LINE
8
0
10
290.5395313
20
-148.259296
11
299.70135
21
-133.5606794
0
LINE
8
0
10
300.165322
20
-133.0441498
11
313.365402
21
-122.7042591
0
LINE
8
0
10
313.9820948
20
-122.3761527
11
330.3742416
21
-117.0635028
0
LINE
8
0
10
330.769129
20
-116.9784045
11
368.0107456
21
-112.8239828
0
LINE
8
0
10
368.1041442
20
-112.8157751
11
402.2483772
21
-110.6203458
0
ARC
8
0
10
402.1200448
20
-58.2706893
40
2
50
0
51
81.413765
0
ARC
8
0
10
383.7699059
20
-55.5
40
2
50
81.413765
51
90
0
ARC
8
0
10
367.0239921
20
-51.5
40
2
50
185.9007466
51
270
0
ARC
8
0
10
361.8656862
20
-40.4988914
40
2
50
5.9007466
51
82.4192994
0
ARC
8
0
10
339.8064176
20
-37.5631189
40
2
50
82.4192994
51
97.1472339
0
ARC
8
0
10
320.5219792
20
-39.9812689
40
2
50
97.1472339
51
117.2551177
0
ARC
8
0
10
297.8632015
20
-47.1543096
40
2
50
288.0471661
51
297.2551177
0
ARC
8
0
10
255.1292534
20
-65.2852916
40
2
50
108.0471661
51
194.7438122
0
ARC
8
0
10
274.2941813
20
-138.1107186
40
2
50
194.7438122
51
237.9999984
0
ARC
8
0
10
288.842248
20
-147.2013596
40
2
50
237.9999984
51
328.0642319
0
ARC
8
0
10
301.3986332
20
-134.6186159
40
2
50
128.0723195
51
148.0642319
0
ARC
8
0
10
314.5987132
20
-124.2787251
40
2
50
107.9573646
51
128.0723195
0
ARC
8
0
10
330.99086
20
-118.9660753
40
2
50
96.3652104
51
107.9573646
0
ARC
8
0
10
368.2324766
20
-114.8116536
40
2
50
93.6789801
51
96.3652104
0
ARC
8
0
10
402.1200448
20
-108.6244673
40
2
50
273.6789801
51
0
0
ENDSEC
0
EOF