<svg width="150.991mm" height="113.638mm" viewBox="0 0 150.991 113.638" xmlns="http://www.w3.org/2000/svg"><g id="svgGroup" stroke-linecap="round" fill-rule="evenodd" font-size="9pt" stroke="#000" stroke-width="0.25mm" fill="none" style="stroke:#000;stroke-width:0.25mm;fill:none"><path d="M 150.991 73.061 L 150.991 22.708 A 2 2 0 0 0 149.289 20.73 L 130.939 17.959 A 2 2 0 0 0 130.641 17.937 L 113.895 17.937 A 2 2 0 0 1 111.905 16.142 L 110.726 4.73 A 2 2 0 0 0 109 2.953 L 86.941 0.017 A 2 2 0 0 0 86.428 0.016 L 67.144 2.434 A 2 2 0 0 0 66.477 2.64 L 45.65 13.369 A 2 2 0 0 1 45.354 13.493 L 1.38 27.821 A 2 2 0 0 0 0.066 30.231 L 19.231 103.057 A 2 2 0 0 0 20.105 104.244 L 34.653 113.334 A 2 2 0 0 0 37.41 112.696 L 46.572 97.998 A 2 2 0 0 1 47.036 97.481 L 60.236 87.141 A 2 2 0 0 1 60.853 86.813 L 77.245 81.5 A 2 2 0 0 1 77.64 81.415 L 114.881 77.261 A 2 2 0 0 1 114.975 77.253 L 149.119 75.057 A 2 2 0 0 0 150.991 73.061 Z" vector-effect="non-scaling-stroke"/></g></svg>