0
SECTION
2
HEADER
9
$INSUNITS
70
4
0
ENDSEC
0
SECTION
2
TABLES
0
TABLE
2
LTYPE
0
LTYPE
72
65
70
64
2
CONTINUOUS
3
______
73
0
40
0
0
ENDTAB
0
TABLE
2
LAYER
0
ENDTAB
0
ENDSEC
0
SECTION
2
ENTITIES
0
LINE
8
0
10
396
20
-91.0055325
11
396
21
-38.8934111
0
LINE
8
0
10
394.1094248
20
-36.8964068
11
361.3284588
21
-35.1001895
0
LINE
8
0
10
359.4389938
20
-33.1698148
11
359.0644457
21
-21.9333704
0
LINE
8
0
10
357.0655559
20
-20
11
342.8099751
21
-20
0
LINE
8
0
10
340.8199007
20
-18.1990074
11
340.6800993
21
-16.8009926
0
LINE
8
0
10
338.6900249
20
-15
11
320.3402658
21
-15
0
LINE
8
0
10
318.3471742
20
-16.833909
11
318.1528258
21
-19.166091
0
LINE
8
0
10
316.1597343
20
-21
11
300.0545293
21
-21
0
LINE
8
0
10
299.9455509
20
-21.0029713
11
265.228096
21
-22.8975118
0
LINE
8
0
10
263.3371213
20
-24.8808463
11
262.8943349
21
-89.546674
0
LINE
8
0
10
263.105568
20
-90.4550642
11
271.5500167
21
-107.3376196
0
LINE
8
0
10
274.0227769
20
-108.3223088
11
292.976696
21
-101.4236464
0
LINE
8
0
10
293.0655433
20
-101.3936481
11
306.7093015
21
-97.1406165
0
LINE
8
0
10
307.3044945
20
-97.05
11
328.9972956
21
-97.05
0
LINE
8
0
10
329.002701
20
-97.0499927
11
347.1956662
21
-97.0008225
0
LINE
8
0
10
347.7903141
20
-96.9086915
11
359.6097518
21
-93.1912877
0
LINE
8
0
10
360.2042648
20
-93.0991572
11
394.0055402
21
-93.0055248
0
ARC
8
0
10
394
20
-38.8934111
40
2
50
0
51
86.8636445
0
ARC
8
0
10
361.4378836
20
-33.1031852
40
2
50
181.9091507
51
266.8636445
0
ARC
8
0
10
357.0655559
20
-22
40
2
50
1.9091507
51
90
0
ARC
8
0
10
342.8099751
20
-18
40
2
50
185.710592
51
270
0
ARC
8
0
10
338.6900249
20
-17
40
2
50
5.710592
51
90
0
ARC
8
0
10
320.3402658
20
-17
40
2
50
90
51
175.2363574
0
ARC
8
0
10
316.1597343
20
-19
40
2
50
270
51
355.2363574
0
ARC
8
0
10
300.0545293
20
-23
40
2
50
90
51
93.123548
0
ARC
8
0
10
265.3370744
20
-24.8945405
40
2
50
93.123548
51
179.607687
0
ARC
8
0
10
264.894288
20
-89.5603682
40
2
50
179.607687
51
206.5736607
0
ARC
8
0
10
273.3387367
20
-106.4429236
40
2
50
206.5736607
51
289.9999981
0
ARC
8
0
10
293.6607363
20
-103.3030316
40
2
50
107.3132994
51
109.9999981
0
ARC
8
0
10
307.3044945
20
-99.05
40
2
50
90
51
107.3132994
0
ARC
8
0
10
328.9972956
20
-95.05
40
2
50
270
51
270.1548535
0
ARC
8
0
10
347.1902608
20
-95.0008298
40
2
50
270.1548535
51
287.4592014
0
ARC
8
0
10
360.209805
20
-95.0991495
40
2
50
90.1587152
51
107.4592014
0
ARC
8
0
10
394
20
-91.0055325
40
2
50
270.1587152
51
0
0
LINE
8
0
10
378
20
-89.5
11
392
21
-89.5
0
LINE
8
0
10
392
20
-89.5
11
392
21
-75.5
0
LINE
8
0
10
392
20
-75.5
11
378
21
-75.5
0
LINE
8
0
10
378
20
-75.5
11
378
21
-89.5
0
LINE
8
0
10
378
20
-72
11
392
21
-72
0
LINE
8
0
10
392
20
-72
11
392
21
-58
0
LINE
8
0
10
392
20
-58
11
378
21
-58
0
LINE
8
0
10
378
20
-58
11
378
21
-72
0
LINE
8
0
10
378
20
-54.5
11
392
21
-54.5
0
LINE
8
0
10
392
20
-54.5
11
392
21
-40.5
0
LINE
8
0
10
392
20
-40.5
11
378
21
-40.5
0
LINE
8
0
10
378
20
-40.5
11
378
21
-54.5
0
LINE
8
0
10
359.5
20
-87.5
11
373.5
21
-87.5
0
LINE
8
0
10
373.5
20
-87.5
11
373.5
21
-73.5
0
LINE
8
0
10
373.5
20
-73.5
11
359.5
21
-73.5
0
LINE
8
0
10
359.5
20
-73.5
11
359.5
21
-87.5
0
LINE
8
0
10
359.5
20
-70
11
373.5
21
-70
0
LINE
8
0
10
373.5
20
-70
11
373.5
21
-56
0
LINE
8
0
10
373.5
20
-56
11
359.5
21
-56
0
LINE
8
0
10
359.5
20
-56
11
359.5
21
-70
0
LINE
8
0
10
359.5
20
-52.5
11
373.5
21
-52.5
0
LINE
8
0
10
373.5
20
-52.5
11
373.5
21
-38.5
0
LINE
8
0
10
373.5
20
-38.5
11
359.5
21
-38.5
0
LINE
8
0
10
359.5
20
-38.5
11
359.5
21
-52.5
0
LINE
8
0
10
341
20
-72.5
11
355
21
-72.5
0
LINE
8
0
10
355
20
-72.5
11
355
21
-58.5
0
LINE
8
0
10
355
20
-58.5
11
341
21
-58.5
0
LINE
8
0
10
341
20
-58.5
11
341
21
-72.5
0
LINE
8
0
10
341
20
-55
11
355
21
-55
0
LINE
8
0
10
355
20
-55
11
355
21
-41
0
LINE
8
0
10
355
20
-41
11
341
21
-41
0
LINE
8
0
10
341
20
-41
11
341
21
-55
0
LINE
8
0
10
341
20
-37.5
11
355
21
-37.5
0
LINE
8
0
10
355
20
-37.5
11
355
21
-23.5
0
LINE
8
0
10
355
20
-23.5
11
341
21
-23.5
0
LINE
8
0
10
341
20
-23.5
11
341
21
-37.5
0
LINE
8
0
10
322.5
20
-67.5
11
336.5
21
-67.5
0
LINE
8
0
10
336.5
20
-67.5
11
336.5
21
-53.5
0
LINE
8
0
10
336.5
20
-53.5
11
322.5
21
-53.5
0
LINE
8
0
10
322.5
20
-53.5
11
322.5
21
-67.5
0
LINE
8
0
10
322.5
20
-50
11
336.5
21
-50
0
LINE
8
0
10
336.5
20
-50
11
336.5
21
-36
0
LINE
8
0
10
336.5
20
-36
11
322.5
21
-36
0
LINE
8
0
10
322.5
20
-36
11
322.5
21
-50
0
LINE
8
0
10
322.5
20
-32.5
11
336.5
21
-32.5
0
LINE
8
0
10
336.5
20
-32.5
11
336.5
21
-18.5
0
LINE
8
0
10
336.5
20
-18.5
11
322.5
21
-18.5
0
LINE
8
0
10
322.5
20
-18.5
11
322.5
21
-32.5
0
LINE
8
0
10
304
20
-73.5
11
318
21
-73.5
0
LINE
8
0
10
318
20
-73.5
11
318
21
-59.5
0
LINE
8
0
10
318
20
-59.5
11
304
21
-59.5
0
LINE
8
0
10
304
20
-59.5
11
304
21
-73.5
0
LINE
8
0
10
304
20
-56
11
318
21
-56
0
LINE
8
0
10
318
20
-56
11
318
21
-42
0
LINE
8
0
10
318
20
-42
11
304
21
-42
0
LINE
8
0
10
304
20
-42
11
304
21
-56
0
LINE
8
0
10
304
20
-38.5
11
318
21
-38.5
0
LINE
8
0
10
318
20
-38.5
11
318
21
-24.5
0
LINE
8
0
10
318
20
-24.5
11
304
21
-24.5
0
LINE
8
0
10
304
20
-24.5
11
304
21
-38.5
0
LINE
8
0
10
285.5
20
-75.5
11
299.5
21
-75.5
0
LINE
8
0
10
299.5
20
-75.5
11
299.5
21
-61.5
0
LINE
8
0
10
299.5
20
-61.5
11
285.5
21
-61.5
0
LINE
8
0
10
285.5
20
-61.5
11
285.5
21
-75.5
0
LINE
8
0
10
285.5
20
-58
11
299.5
21
-58
0
LINE
8
0
10
299.5
20
-58
11
299.5
21
-44
0
LINE
8
0
10
299.5
20
-44
11
285.5
21
-44
0
LINE
8
0
10
285.5
20
-44
11
285.5
21
-58
0
LINE
8
0
10
285.5
20
-40.5
11
299.5
21
-40.5
0
LINE
8
0
10
299.5
20
-40.5
11
299.5
21
-26.5
0
LINE
8
0
10
299.5
20
-26.5
11
285.5
21
-26.5
0
LINE
8
0
10
285.5
20
-26.5
11
285.5
21
-40.5
0
LINE
8
0
10
329.5
20
-93.5
11
343.5
21
-93.5
0
LINE
8
0
10
343.5
20
-93.5
11
343.5
21
-79.5
0
LINE
8
0
10
343.5
20
-79.5
11
329.5
21
-79.5
0
LINE
8
0
10
329.5
20
-79.5
11
329.5
21
-93.5
0
LINE
8
0
10
311
20
-92.5
11
325
21
-92.5
0
LINE
8
0
10
325
20
-92.5
11
325
21
-78.5
0
LINE
8
0
10
325
20
-78.5
11
311
21
-78.5
0
LINE
8
0
10
311
20
-78.5
11
311
21
-92.5
0
LINE
8
0
10
292.3957796
20
-96.3087553
11
306.1830881
21
-93.8776808
0
LINE
8
0
10
306.1830881
20
-93.8776808
11
303.7520136
21
-80.0903723
0
LINE
8
0
10
303.7520136
20
-80.0903723
11
289.9647051
21
-82.5214468
0
LINE
8
0
10
289.9647051
20
-82.5214468
11
292.3957796
21
-96.3087553
0
LINE
8
0
10
274.9092307
20
-104.2750438
11
288.0649273
21
-99.4867618
0
LINE
8
0
10
288.0649273
20
-99.4867618
11
283.2766453
21
-86.3310652
0
LINE
8
0
10
283.2766453
20
-86.3310652
11
270.1209487
21
-91.1193472
0
LINE
8
0
10
270.1209487
20
-91.1193472
11
274.9092307
21
-104.2750438
0
ENDSEC
0
EOF