0
SECTION
2
HEADER
9
$INSUNITS
70
4
0
ENDSEC
0
SECTION
2
TABLES
0
TABLE
2
LTYPE
0
LTYPE
72
65
70
64
2
CONTINUOUS
3
______
73
0
40
0
0
ENDTAB
0
TABLE
2
LAYER
0
ENDTAB
0
ENDSEC
0
SECTION
2
ENTITIES
0
LINE
8
0
10
398
20
-93
11
398
21
-36.8939758
0
LINE
8
0
10
396.1088304
20
-34.896939
11
363.1401836
21
-33.1002825
0
LINE
8
0
10
361.2497574
20
-31.1577709
11
361.0530584
21
-23.9454748
0
LINE
8
0
10
359.0538018
20
-22
11
344.6835968
21
-22
0
LINE
8
0
10
342.6871871
20
-20.1197846
11
342.6128129
21
-18.8802154
0
LINE
8
0
10
340.6164032
20
-17
11
318.4024985
21
-17
0
LINE
8
0
10
316.4049938
20
-18.9001248
11
316.2950062
21
-21.0998752
0
LINE
8
0
10
314.2975015
20
-23
11
260.998206
21
-23
0
LINE
8
0
10
258.9982068
20
-24.9982052
11
258.9373437
21
-92.8213272
0
LINE
8
0
10
259.185852
20
-93.7886681
11
270.3255865
21
-113.9960317
0
LINE
8
0
10
272.7611176
20
-114.9098708
11
295.3759478
21
-106.6787458
0
LINE
8
0
10
295.8039816
20
-106.5745835
11
323.3725253
21
-103.0164525
0
LINE
8
0
10
323.6285317
20
-103
11
348.7700644
21
-103
0
LINE
8
0
10
350.0583358
20
-102.5298224
11
358.4416642
21
-95.4701776
0
LINE
8
0
10
359.7299356
20
-95
11
396
21
-95
0
ARC
8
0
10
396
20
-36.8939758
40
2
50
0
51
86.880698
0
ARC
8
0
10
363.249014
20
-31.1032457
40
2
50
181.5622255
51
266.880698
0
ARC
8
0
10
359.0538018
20
-24
40
2
50
1.5622255
51
90
0
ARC
8
0
10
344.6835968
20
-20
40
2
50
183.433631
51
270
0
ARC
8
0
10
340.6164032
20
-19
40
2
50
3.433631
51
90
0
ARC
8
0
10
318.4024985
20
-19
40
2
50
90
51
177.1375956
0
ARC
8
0
10
314.2975015
20
-21
40
2
50
270
51
357.1375956
0
ARC
8
0
10
260.998206
20
-25
40
2
50
90
51
179.9485828
0
ARC
8
0
10
260.9373429
20
-92.823122
40
2
50
179.9485828
51
208.866674
0
ARC
8
0
10
272.0770774
20
-113.0304855
40
2
50
208.866674
51
289.9999981
0
ARC
8
0
10
296.059988
20
-108.558131
40
2
50
97.3542197
51
109.9999981
0
ARC
8
0
10
323.6285317
20
-105
40
2
50
90
51
97.3542197
0
ARC
8
0
10
348.7700644
20
-101
40
2
50
270
51
310.1009055
0
ARC
8
0
10
359.7299356
20
-97
40
2
50
90
51
130.1009055
0
ARC
8
0
10
396
20
-93
40
2
50
270
51
0
0
LINE
8
0
10
378
20
-89.5
11
392
21
-89.5
0
LINE
8
0
10
392
20
-89.5
11
392
21
-75.5
0
LINE
8
0
10
392
20
-75.5
11
378
21
-75.5
0
LINE
8
0
10
378
20
-75.5
11
378
21
-89.5
0
LINE
8
0
10
378
20
-72
11
392
21
-72
0
LINE
8
0
10
392
20
-72
11
392
21
-58
0
LINE
8
0
10
392
20
-58
11
378
21
-58
0
LINE
8
0
10
378
20
-58
11
378
21
-72
0
LINE
8
0
10
378
20
-54.5
11
392
21
-54.5
0
LINE
8
0
10
392
20
-54.5
11
392
21
-40.5
0
LINE
8
0
10
392
20
-40.5
11
378
21
-40.5
0
LINE
8
0
10
378
20
-40.5
11
378
21
-54.5
0
LINE
8
0
10
359.5
20
-87.5
11
373.5
21
-87.5
0
LINE
8
0
10
373.5
20
-87.5
11
373.5
21
-73.5
0
LINE
8
0
10
373.5
20
-73.5
11
359.5
21
-73.5
0
LINE
8
0
10
359.5
20
-73.5
11
359.5
21
-87.5
0
LINE
8
0
10
359.5
20
-70
11
373.5
21
-70
0
LINE
8
0
10
373.5
20
-70
11
373.5
21
-56
0
LINE
8
0
10
373.5
20
-56
11
359.5
21
-56
0
LINE
8
0
10
359.5
20
-56
11
359.5
21
-70
0
LINE
8
0
10
359.5
20
-52.5
11
373.5
21
-52.5
0
LINE
8
0
10
373.5
20
-52.5
11
373.5
21
-38.5
0
LINE
8
0
10
373.5
20
-38.5
11
359.5
21
-38.5
0
LINE
8
0
10
359.5
20
-38.5
11
359.5
21
-52.5
0
LINE
8
0
10
341
20
-76.5
11
355
21
-76.5
0
LINE
8
0
10
355
20
-76.5
11
355
21
-62.5
0
LINE
8
0
10
355
20
-62.5
11
341
21
-62.5
0
LINE
8
0
10
341
20
-62.5
11
341
21
-76.5
0
LINE
8
0
10
341
20
-59
11
355
21
-59
0
LINE
8
0
10
355
20
-59
11
355
21
-45
0
LINE
8
0
10
355
20
-45
11
341
21
-45
0
LINE
8
0
10
341
20
-45
11
341
21
-59
0
LINE
8
0
10
341
20
-41.5
11
355
21
-41.5
0
LINE
8
0
10
355
20
-41.5
11
355
21
-27.5
0
LINE
8
0
10
355
20
-27.5
11
341
21
-27.5
0
LINE
8
0
10
341
20
-27.5
11
341
21
-41.5
0
LINE
8
0
10
322.5
20
-71.5
11
336.5
21
-71.5
0
LINE
8
0
10
336.5
20
-71.5
11
336.5
21
-57.5
0
LINE
8
0
10
336.5
20
-57.5
11
322.5
21
-57.5
0
LINE
8
0
10
322.5
20
-57.5
11
322.5
21
-71.5
0
LINE
8
0
10
322.5
20
-54
11
336.5
21
-54
0
LINE
8
0
10
336.5
20
-54
11
336.5
21
-40
0
LINE
8
0
10
336.5
20
-40
11
322.5
21
-40
0
LINE
8
0
10
322.5
20
-40
11
322.5
21
-54
0
LINE
8
0
10
322.5
20
-36.5
11
336.5
21
-36.5
0
LINE
8
0
10
336.5
20
-36.5
11
336.5
21
-22.5
0
LINE
8
0
10
336.5
20
-22.5
11
322.5
21
-22.5
0
LINE
8
0
10
322.5
20
-22.5
11
322.5
21
-36.5
0
LINE
8
0
10
304
20
-77.5
11
318
21
-77.5
0
LINE
8
0
10
318
20
-77.5
11
318
21
-63.5
0
LINE
8
0
10
318
20
-63.5
11
304
21
-63.5
0
LINE
8
0
10
304
20
-63.5
11
304
21
-77.5
0
LINE
8
0
10
304
20
-60
11
318
21
-60
0
LINE
8
0
10
318
20
-60
11
318
21
-46
0
LINE
8
0
10
318
20
-46
11
304
21
-46
0
LINE
8
0
10
304
20
-46
11
304
21
-60
0
LINE
8
0
10
304
20
-42.5
11
318
21
-42.5
0
LINE
8
0
10
318
20
-42.5
11
318
21
-28.5
0
LINE
8
0
10
318
20
-28.5
11
304
21
-28.5
0
LINE
8
0
10
304
20
-28.5
11
304
21
-42.5
0
LINE
8
0
10
285.5
20
-79.5
11
299.5
21
-79.5
0
LINE
8
0
10
299.5
20
-79.5
11
299.5
21
-65.5
0
LINE
8
0
10
299.5
20
-65.5
11
285.5
21
-65.5
0
LINE
8
0
10
285.5
20
-65.5
11
285.5
21
-79.5
0
LINE
8
0
10
285.5
20
-62
11
299.5
21
-62
0
LINE
8
0
10
299.5
20
-62
11
299.5
21
-48
0
LINE
8
0
10
299.5
20
-48
11
285.5
21
-48
0
LINE
8
0
10
285.5
20
-48
11
285.5
21
-62
0
LINE
8
0
10
285.5
20
-44.5
11
299.5
21
-44.5
0
LINE
8
0
10
299.5
20
-44.5
11
299.5
21
-30.5
0
LINE
8
0
10
299.5
20
-30.5
11
285.5
21
-30.5
0
LINE
8
0
10
285.5
20
-30.5
11
285.5
21
-44.5
0
LINE
8
0
10
329.5
20
-97.5
11
343.5
21
-97.5
0
LINE
8
0
10
343.5
20
-97.5
11
343.5
21
-83.5
0
LINE
8
0
10
343.5
20
-83.5
11
329.5
21
-83.5
0
LINE
8
0
10
329.5
20
-83.5
11
329.5
21
-97.5
0
LINE
8
0
10
311
20
-96.5
11
325
21
-96.5
0
LINE
8
0
10
325
20
-96.5
11
325
21
-82.5
0
LINE
8
0
10
325
20
-82.5
11
311
21
-82.5
0
LINE
8
0
10
311
20
-82.5
11
311
21
-96.5
0
LINE
8
0
10
292.3957796
20
-100.3087553
11
306.1830881
21
-97.8776808
0
LINE
8
0
10
306.1830881
20
-97.8776808
11
303.7520136
21
-84.0903723
0
LINE
8
0
10
303.7520136
20
-84.0903723
11
289.9647051
21
-86.5214468
0
LINE
8
0
10
289.9647051
20
-86.5214468
11
292.3957796
21
-100.3087553
0
LINE
8
0
10
274.9092307
20
-108.2750438
11
288.0649273
21
-103.4867618
0
LINE
8
0
10
288.0649273
20
-103.4867618
11
283.2766453
21
-90.3310652
0
LINE
8
0
10
283.2766453
20
-90.3310652
11
270.1209487
21
-95.1193472
0
LINE
8
0
10
270.1209487
20
-95.1193472
11
274.9092307
21
-108.2750438
0
ENDSEC
0
EOF