<svg width="311.12mm" height="109.55mm" viewBox="0 0 311.12 109.55" xmlns="http://www.w3.org/2000/svg"><g id="svgGroup" stroke-linecap="round" fill-rule="evenodd" font-size="9pt" stroke="#000" stroke-width="0.25mm" fill="none" style="stroke:#000;stroke-width:0.25mm;fill:none"><path d="M 235.108 36.174 L 252.933 33.669 L 255.299 50.504 L 237.474 53.009 L 235.108 36.174 Z M 252.933 33.669 L 250.567 16.835 L 232.742 19.34 L 235.108 36.174 L 252.933 33.669 Z M 250.567 16.835 L 248.201 0 L 230.376 2.505 L 232.742 19.34 L 250.567 16.835 Z M 58.187 33.669 L 76.012 36.174 L 73.646 53.009 L 55.821 50.504 L 58.187 33.669 Z M 76.012 36.174 L 78.378 19.34 L 60.553 16.835 L 58.187 33.669 L 76.012 36.174 Z M 60.553 16.835 L 78.378 19.34 L 80.744 2.505 L 62.919 0 L 60.553 16.835 Z M 55.867 38.38 L 57.053 21.421 L 39.097 20.165 L 37.911 37.124 L 55.867 38.38 Z M 39.097 20.165 L 57.053 21.421 L 58.239 4.462 L 40.283 3.207 L 39.097 20.165 Z M 255.253 38.38 L 273.209 37.124 L 274.395 54.083 L 256.439 55.338 L 255.253 38.38 Z M 273.209 37.124 L 272.023 20.165 L 254.067 21.421 L 255.253 38.38 L 273.209 37.124 Z M 254.067 21.421 L 272.023 20.165 L 270.837 3.207 L 252.881 4.462 L 254.067 21.421 Z M 37.911 37.124 L 55.867 38.38 L 54.681 55.338 L 36.725 54.083 L 37.911 37.124 Z M 57.322 57.546 L 75.049 60.672 L 72.097 77.414 L 54.37 74.288 L 57.322 57.546 Z M 236.071 60.672 L 253.798 57.546 L 256.75 74.288 L 239.023 77.414 L 236.071 60.672 Z M 0 53.848 L 18 53.848 L 18 70.848 L 0 70.848 L 0 53.848 Z M 18 53.848 L 18 36.848 L 0 36.848 L 0 53.848 L 18 53.848 Z M 0 36.848 L 18 36.848 L 18 19.848 L 0 19.848 L 0 36.848 Z M 18 51.848 L 36 51.848 L 36 68.848 L 18 68.848 L 18 51.848 Z M 36 51.848 L 36 34.848 L 18 34.848 L 18 51.848 L 36 51.848 Z M 18 34.848 L 36 34.848 L 36 17.848 L 18 17.848 L 18 34.848 Z M 293.12 53.848 L 311.12 53.848 L 311.12 70.848 L 293.12 70.848 L 293.12 53.848 Z M 311.12 53.848 L 311.12 36.848 L 293.12 36.848 L 293.12 53.848 L 311.12 53.848 Z M 293.12 36.848 L 311.12 36.848 L 311.12 19.848 L 293.12 19.848 L 293.12 36.848 Z M 275.12 51.848 L 293.12 51.848 L 293.12 68.848 L 275.12 68.848 L 275.12 51.848 Z M 293.12 51.848 L 293.12 34.848 L 275.12 34.848 L 275.12 51.848 L 293.12 51.848 Z M 275.12 34.848 L 293.12 34.848 L 293.12 17.848 L 275.12 17.848 L 275.12 34.848 Z M 217.077 46.151 L 234.684 42.409 L 238.218 59.037 L 220.612 62.78 L 217.077 46.151 Z M 213.543 29.523 L 231.149 25.78 L 234.684 42.409 L 217.077 46.151 L 213.543 29.523 Z M 210.008 12.894 L 227.615 9.152 L 231.149 25.78 L 213.543 29.523 L 210.008 12.894 Z M 76.436 42.409 L 94.043 46.151 L 90.508 62.78 L 72.902 59.037 L 76.436 42.409 Z M 79.971 25.78 L 97.577 29.523 L 94.043 46.151 L 76.436 42.409 L 79.971 25.78 Z M 83.505 9.152 L 101.112 12.894 L 97.577 29.523 L 79.971 25.78 L 83.505 9.152 Z M 197.033 80.76 L 211.217 69.678 L 221.683 83.074 L 207.499 94.156 L 197.033 80.76 Z M 99.903 69.678 L 114.087 80.76 L 103.621 94.156 L 89.437 83.074 L 99.903 69.678 Z M 118.154 85.277 L 127.693 100.542 L 113.276 109.55 L 103.737 94.285 L 118.154 85.277 Z M 183.427 100.542 L 192.966 85.277 L 207.383 94.285 L 197.844 109.55 L 183.427 100.542 Z M 38.038 56.48 L 55.939 58.361 L 54.162 75.268 L 36.261 73.387 L 38.038 56.48 Z M 255.181 58.361 L 273.082 56.48 L 274.859 73.387 L 256.958 75.268 L 255.181 58.361 Z M 104.252 15.449 L 121.554 20.411 L 116.868 36.752 L 99.566 31.791 L 104.252 15.449 Z M 94.88 48.132 L 112.183 53.094 L 107.497 69.435 L 90.194 64.474 L 94.88 48.132 Z M 99.566 31.791 L 116.868 36.752 L 112.183 53.094 L 94.88 48.132 L 99.566 31.791 Z M 198.937 53.094 L 216.24 48.132 L 220.926 64.474 L 203.623 69.435 L 198.937 53.094 Z M 194.252 36.752 L 211.554 31.791 L 216.24 48.132 L 198.937 53.094 L 194.252 36.752 Z M 189.566 20.411 L 206.868 15.449 L 211.554 31.791 L 194.252 36.752 L 189.566 20.411 Z M 77.418 61.263 L 94.537 66.825 L 89.284 82.993 L 72.165 77.431 L 77.418 61.263 Z M 216.583 66.825 L 233.702 61.263 L 238.955 77.431 L 221.836 82.993 L 216.583 66.825 Z" vector-effect="non-scaling-stroke"/></g></svg>