0
SECTION
2
HEADER
9
$INSUNITS
70
4
0
ENDSEC
0
SECTION
2
TABLES
0
TABLE
2
LTYPE
0
LTYPE
72
65
70
64
2
CONTINUOUS
3
______
73
0
40
0
0
ENDTAB
0
TABLE
2
LAYER
0
ENDTAB
0
ENDSEC
0
SECTION
2
ENTITIES
0
LINE
8
0
10
91
20
-91.5
11
109
21
-91.5
0
LINE
8
0
10
109
20
-91.5
11
109
21
-108.5
0
LINE
8
0
10
109
20
-108.5
11
91
21
-108.5
0
LINE
8
0
10
91
20
-108.5
11
91
21
-91.5
0
LINE
8
0
10
91
20
-74.5
11
109
21
-74.5
0
LINE
8
0
10
109
20
-74.5
11
109
21
-91.5
0
LINE
8
0
10
109
20
-91.5
11
91
21
-91.5
0
LINE
8
0
10
91
20
-91.5
11
91
21
-74.5
0
LINE
8
0
10
91
20
-57.5
11
109
21
-57.5
0
LINE
8
0
10
109
20
-57.5
11
109
21
-74.5
0
LINE
8
0
10
109
20
-74.5
11
91
21
-74.5
0
LINE
8
0
10
91
20
-74.5
11
91
21
-57.5
0
LINE
8
0
10
109
20
-89.5
11
127
21
-89.5
0
LINE
8
0
10
127
20
-89.5
11
127
21
-106.5
0
LINE
8
0
10
127
20
-106.5
11
109
21
-106.5
0
LINE
8
0
10
109
20
-106.5
11
109
21
-89.5
0
LINE
8
0
10
109
20
-72.5
11
127
21
-72.5
0
LINE
8
0
10
127
20
-72.5
11
127
21
-89.5
0
LINE
8
0
10
127
20
-89.5
11
109
21
-89.5
0
LINE
8
0
10
109
20
-89.5
11
109
21
-72.5
0
LINE
8
0
10
109
20
-55.5
11
127
21
-55.5
0
LINE
8
0
10
127
20
-55.5
11
127
21
-72.5
0
LINE
8
0
10
127
20
-72.5
11
109
21
-72.5
0
LINE
8
0
10
109
20
-72.5
11
109
21
-55.5
0
LINE
8
0
10
128.9109952
20
-74.776258
11
146.8671481
21
-76.0318745
0
LINE
8
0
10
146.8671481
20
-76.0318745
11
145.681288
21
-92.9904634
0
LINE
8
0
10
145.681288
20
-92.9904634
11
127.7251351
21
-91.7348469
0
LINE
8
0
10
127.7251351
20
-91.7348469
11
128.9109952
21
-74.776258
0
LINE
8
0
10
130.0968553
20
-57.8176691
11
148.0530082
21
-59.0732856
0
LINE
8
0
10
148.0530082
20
-59.0732856
11
146.8671481
21
-76.0318745
0
LINE
8
0
10
146.8671481
20
-76.0318745
11
128.9109952
21
-74.776258
0
LINE
8
0
10
128.9109952
20
-74.776258
11
130.0968553
21
-57.8176691
0
LINE
8
0
10
131.2827154
20
-40.8590802
11
149.2388683
21
-42.1146967
0
LINE
8
0
10
149.2388683
20
-42.1146967
11
148.0530082
21
-59.0732856
0
LINE
8
0
10
148.0530082
20
-59.0732856
11
130.0968553
21
-57.8176691
0
LINE
8
0
10
130.0968553
20
-57.8176691
11
131.2827154
21
-40.8590802
0
LINE
8
0
10
149.1870083
20
-71.3214064
11
167.0118336
21
-73.8265222
0
LINE
8
0
10
167.0118336
20
-73.8265222
11
164.6458909
21
-90.6610794
0
LINE
8
0
10
164.6458909
20
-90.6610794
11
146.8210656
21
-88.1559636
0
LINE
8
0
10
146.8210656
20
-88.1559636
11
149.1870083
21
-71.3214064
0
LINE
8
0
10
151.552951
20
-54.4868492
11
169.3777763
21
-56.991965
0
LINE
8
0
10
169.3777763
20
-56.991965
11
167.0118336
21
-73.8265222
0
LINE
8
0
10
167.0118336
20
-73.8265222
11
149.1870083
21
-71.3214064
0
LINE
8
0
10
149.1870083
20
-71.3214064
11
151.552951
21
-54.4868492
0
LINE
8
0
10
153.9188937
20
-37.652292
11
171.743719
21
-40.1574078
0
LINE
8
0
10
171.743719
20
-40.1574078
11
169.3777763
21
-56.991965
0
LINE
8
0
10
169.3777763
20
-56.991965
11
151.552951
21
-54.4868492
0
LINE
8
0
10
151.552951
20
-54.4868492
11
153.9188937
21
-37.652292
0
LINE
8
0
10
167.4363384
20
-80.0610979
11
185.0429952
21
-83.8035083
0
LINE
8
0
10
185.0429952
20
-83.8035083
11
181.5084964
21
-100.4320175
0
LINE
8
0
10
181.5084964
20
-100.4320175
11
163.9018396
21
-96.6896071
0
LINE
8
0
10
163.9018396
20
-96.6896071
11
167.4363384
21
-80.0610979
0
LINE
8
0
10
170.9708371
20
-63.4325887
11
188.5774939
21
-67.1749991
0
LINE
8
0
10
188.5774939
20
-67.1749991
11
185.0429951
21
-83.8035083
0
LINE
8
0
10
185.0429951
20
-83.8035083
11
167.4363383
21
-80.0610979
0
LINE
8
0
10
167.4363383
20
-80.0610979
11
170.9708371
21
-63.4325887
0
LINE
8
0
10
174.5053358
20
-46.8040795
11
192.1119926
21
-50.5464899
0
LINE
8
0
10
192.1119926
20
-50.5464899
11
188.5774938
21
-67.1749991
0
LINE
8
0
10
188.5774938
20
-67.1749991
11
170.970837
21
-63.4325887
0
LINE
8
0
10
170.970837
20
-63.4325887
11
174.5053358
21
-46.8040795
0
LINE
8
0
10
185.8799147
20
-85.7844043
11
203.1826252
21
-90.7458767
0
LINE
8
0
10
203.1826252
20
-90.7458767
11
198.4967901
21
-107.0873255
0
LINE
8
0
10
198.4967901
20
-107.0873255
11
181.1940796
21
-102.1258531
0
LINE
8
0
10
181.1940796
20
-102.1258531
11
185.8799147
21
-85.7844043
0
LINE
8
0
10
190.5657497
20
-69.4429555
11
207.8684602
21
-74.4044279
0
LINE
8
0
10
207.8684602
20
-74.4044279
11
203.1826251
21
-90.7458767
0
LINE
8
0
10
203.1826251
20
-90.7458767
11
185.8799146
21
-85.7844043
0
LINE
8
0
10
185.8799146
20
-85.7844043
11
190.5657497
21
-69.4429555
0
LINE
8
0
10
195.2515847
20
-53.1015067
11
212.5542952
21
-58.0629791
0
LINE
8
0
10
212.5542952
20
-58.0629791
11
207.8684601
21
-74.4044279
0
LINE
8
0
10
207.8684601
20
-74.4044279
11
190.5657496
21
-69.4429555
0
LINE
8
0
10
190.5657496
20
-69.4429555
11
195.2515847
21
-53.1015067
0
LINE
8
0
10
129.0377789
20
-94.1319248
11
146.939173
21
-96.0134372
0
LINE
8
0
10
146.939173
20
-96.0134372
11
145.1621891
21
-112.9203094
0
LINE
8
0
10
145.1621891
20
-112.9203094
11
127.260795
21
-111.038797
0
LINE
8
0
10
127.260795
20
-111.038797
11
129.0377789
21
-94.1319248
0
LINE
8
0
10
148.3224162
20
-95.1986269
11
166.0489558
21
-98.3242941
0
LINE
8
0
10
166.0489558
20
-98.3242941
11
163.0969368
21
-115.0660259
0
LINE
8
0
10
163.0969368
20
-115.0660259
11
145.3703972
21
-111.9403587
0
LINE
8
0
10
145.3703972
20
-111.9403587
11
148.3224162
21
-95.1986269
0
LINE
8
0
10
168.41791
20
-98.9149408
11
185.5369273
21
-104.4772467
0
LINE
8
0
10
185.5369273
20
-104.4772467
11
180.2836384
21
-120.6452074
0
LINE
8
0
10
180.2836384
20
-120.6452074
11
163.1646211
21
-115.0829015
0
LINE
8
0
10
163.1646211
20
-115.0829015
11
168.41791
21
-98.9149408
0
LINE
8
0
10
190.9032058
20
-107.3305475
11
205.0873993
21
-118.4124541
0
LINE
8
0
10
205.0873993
20
-118.4124541
11
194.6211542
21
-131.8086369
0
LINE
8
0
10
194.6211542
20
-131.8086369
11
180.4369607
21
-120.7267303
0
LINE
8
0
10
180.4369607
20
-120.7267303
11
190.9032058
21
-107.3305475
0
LINE
8
0
10
209.1541651
20
-122.9290552
11
218.6927119
21
-138.1939209
0
LINE
8
0
10
218.6927119
20
-138.1939209
11
204.2758943
21
-147.2025484
0
LINE
8
0
10
204.2758943
20
-147.2025484
11
194.7373475
21
-131.9376827
0
LINE
8
0
10
194.7373475
20
-131.9376827
11
209.1541651
21
-122.9290552
0
LINE
8
0
10
384.1200448
20
-91.5
11
402.1200448
21
-91.5
0
LINE
8
0
10
402.1200448
20
-91.5
11
402.1200448
21
-108.5
0
LINE
8
0
10
402.1200448
20
-108.5
11
384.1200448
21
-108.5
0
LINE
8
0
10
384.1200448
20
-108.5
11
384.1200448
21
-91.5
0
LINE
8
0
10
384.1200448
20
-74.5
11
402.1200448
21
-74.5
0
LINE
8
0
10
402.1200448
20
-74.5
11
402.1200448
21
-91.5
0
LINE
8
0
10
402.1200448
20
-91.5
11
384.1200448
21
-91.5
0
LINE
8
0
10
384.1200448
20
-91.5
11
384.1200448
21
-74.5
0
LINE
8
0
10
384.1200448
20
-57.5
11
402.1200448
21
-57.5
0
LINE
8
0
10
402.1200448
20
-57.5
11
402.1200448
21
-74.5
0
LINE
8
0
10
402.1200448
20
-74.5
11
384.1200448
21
-74.5
0
LINE
8
0
10
384.1200448
20
-74.5
11
384.1200448
21
-57.5
0
LINE
8
0
10
366.1200448
20
-89.5
11
384.1200448
21
-89.5
0
LINE
8
0
10
384.1200448
20
-89.5
11
384.1200448
21
-106.5
0
LINE
8
0
10
384.1200448
20
-106.5
11
366.1200448
21
-106.5
0
LINE
8
0
10
366.1200448
20
-106.5
11
366.1200448
21
-89.5
0
LINE
8
0
10
366.1200448
20
-72.5
11
384.1200448
21
-72.5
0
LINE
8
0
10
384.1200448
20
-72.5
11
384.1200448
21
-89.5
0
LINE
8
0
10
384.1200448
20
-89.5
11
366.1200448
21
-89.5
0
LINE
8
0
10
366.1200448
20
-89.5
11
366.1200448
21
-72.5
0
LINE
8
0
10
366.1200448
20
-55.5
11
384.1200448
21
-55.5
0
LINE
8
0
10
384.1200448
20
-55.5
11
384.1200448
21
-72.5
0
LINE
8
0
10
384.1200448
20
-72.5
11
366.1200448
21
-72.5
0
LINE
8
0
10
366.1200448
20
-72.5
11
366.1200448
21
-55.5
0
LINE
8
0
10
346.2528967
20
-76.0318745
11
364.2090496
21
-74.776258
0
LINE
8
0
10
364.2090496
20
-74.776258
11
365.3949097
21
-91.7348469
0
LINE
8
0
10
365.3949097
20
-91.7348469
11
347.4387568
21
-92.9904634
0
LINE
8
0
10
347.4387568
20
-92.9904634
11
346.2528967
21
-76.0318745
0
LINE
8
0
10
345.0670366
20
-59.0732856
11
363.0231895
21
-57.8176691
0
LINE
8
0
10
363.0231895
20
-57.8176691
11
364.2090496
21
-74.776258
0
LINE
8
0
10
364.2090496
20
-74.776258
11
346.2528967
21
-76.0318745
0
LINE
8
0
10
346.2528967
20
-76.0318745
11
345.0670366
21
-59.0732856
0
LINE
8
0
10
343.8811765
20
-42.1146967
11
361.8373294
21
-40.8590802
0
LINE
8
0
10
361.8373294
20
-40.8590802
11
363.0231895
21
-57.8176691
0
LINE
8
0
10
363.0231895
20
-57.8176691
11
345.0670366
21
-59.0732856
0
LINE
8
0
10
345.0670366
20
-59.0732856
11
343.8811765
21
-42.1146967
0
LINE
8
0
10
326.1082112
20
-73.8265222
11
343.9330365
21
-71.3214064
0
LINE
8
0
10
343.9330365
20
-71.3214064
11
346.2989792
21
-88.1559636
0
LINE
8
0
10
346.2989792
20
-88.1559636
11
328.4741539
21
-90.6610794
0
LINE
8
0
10
328.4741539
20
-90.6610794
11
326.1082112
21
-73.8265222
0
LINE
8
0
10
323.7422685
20
-56.991965
11
341.5670938
21
-54.4868492
0
LINE
8
0
10
341.5670938
20
-54.4868492
11
343.9330365
21
-71.3214064
0
LINE
8
0
10
343.9330365
20
-71.3214064
11
326.1082112
21
-73.8265222
0
LINE
8
0
10
326.1082112
20
-73.8265222
11
323.7422685
21
-56.991965
0
LINE
8
0
10
321.3763258
20
-40.1574078
11
339.2011511
21
-37.652292
0
LINE
8
0
10
339.2011511
20
-37.652292
11
341.5670938
21
-54.4868492
0
LINE
8
0
10
341.5670938
20
-54.4868492
11
323.7422685
21
-56.991965
0
LINE
8
0
10
323.7422685
20
-56.991965
11
321.3763258
21
-40.1574078
0
LINE
8
0
10
308.0770496
20
-83.8035083
11
325.6837064
21
-80.0610979
0
LINE
8
0
10
325.6837064
20
-80.0610979
11
329.2182052
21
-96.6896071
0
LINE
8
0
10
329.2182052
20
-96.6896071
11
311.6115484
21
-100.4320175
0
LINE
8
0
10
311.6115484
20
-100.4320175
11
308.0770496
21
-83.8035083
0
LINE
8
0
10
304.5425509
20
-67.1749991
11
322.1492077
21
-63.4325887
0
LINE
8
0
10
322.1492077
20
-63.4325887
11
325.6837065
21
-80.0610979
0
LINE
8
0
10
325.6837065
20
-80.0610979
11
308.0770497
21
-83.8035083
0
LINE
8
0
10
308.0770497
20
-83.8035083
11
304.5425509
21
-67.1749991
0
LINE
8
0
10
301.0080522
20
-50.5464899
11
318.614709
21
-46.8040795
0
LINE
8
0
10
318.614709
20
-46.8040795
11
322.1492078
21
-63.4325887
0
LINE
8
0
10
322.1492078
20
-63.4325887
11
304.542551
21
-67.1749991
0
LINE
8
0
10
304.542551
20
-67.1749991
11
301.0080522
21
-50.5464899
0
LINE
8
0
10
289.9374196
20
-90.7458767
11
307.2401301
21
-85.7844043
0
LINE
8
0
10
307.2401301
20
-85.7844043
11
311.9259652
21
-102.1258531
0
LINE
8
0
10
311.9259652
20
-102.1258531
11
294.6232547
21
-107.0873255
0
LINE
8
0
10
294.6232547
20
-107.0873255
11
289.9374196
21
-90.7458767
0
LINE
8
0
10
285.2515846
20
-74.4044279
11
302.5542951
21
-69.4429555
0
LINE
8
0
10
302.5542951
20
-69.4429555
11
307.2401302
21
-85.7844043
0
LINE
8
0
10
307.2401302
20
-85.7844043
11
289.9374197
21
-90.7458767
0
LINE
8
0
10
289.9374197
20
-90.7458767
11
285.2515846
21
-74.4044279
0
LINE
8
0
10
280.5657496
20
-58.0629791
11
297.8684601
21
-53.1015067
0
LINE
8
0
10
297.8684601
20
-53.1015067
11
302.5542952
21
-69.4429555
0
LINE
8
0
10
302.5542952
20
-69.4429555
11
285.2515847
21
-74.4044279
0
LINE
8
0
10
285.2515847
20
-74.4044279
11
280.5657496
21
-58.0629791
0
LINE
8
0
10
346.1808718
20
-96.0134372
11
364.0822659
21
-94.1319248
0
LINE
8
0
10
364.0822659
20
-94.1319248
11
365.8592498
21
-111.038797
0
LINE
8
0
10
365.8592498
20
-111.038797
11
347.9578557
21
-112.9203094
0
LINE
8
0
10
347.9578557
20
-112.9203094
11
346.1808718
21
-96.0134372
0
LINE
8
0
10
327.071089
20
-98.3242941
11
344.7976286
21
-95.1986269
0
LINE
8
0
10
344.7976286
20
-95.1986269
11
347.7496476
21
-111.9403587
0
LINE
8
0
10
347.7496476
20
-111.9403587
11
330.023108
21
-115.0660259
0
LINE
8
0
10
330.023108
20
-115.0660259
11
327.071089
21
-98.3242941
0
LINE
8
0
10
307.5831175
20
-104.4772467
11
324.7021348
21
-98.9149408
0
LINE
8
0
10
324.7021348
20
-98.9149408
11
329.9554237
21
-115.0829015
0
LINE
8
0
10
329.9554237
20
-115.0829015
11
312.8364064
21
-120.6452074
0
LINE
8
0
10
312.8364064
20
-120.6452074
11
307.5831175
21
-104.4772467
0
LINE
8
0
10
288.0326455
20
-118.4124541
11
302.216839
21
-107.3305475
0
LINE
8
0
10
302.216839
20
-107.3305475
11
312.6830841
21
-120.7267303
0
LINE
8
0
10
312.6830841
20
-120.7267303
11
298.4988906
21
-131.8086369
0
LINE
8
0
10
298.4988906
20
-131.8086369
11
288.0326455
21
-118.4124541
0
LINE
8
0
10
274.4273329
20
-138.1939209
11
283.9658797
21
-122.9290552
0
LINE
8
0
10
283.9658797
20
-122.9290552
11
298.3826973
21
-131.9376827
0
LINE
8
0
10
298.3826973
20
-131.9376827
11
288.8441505
21
-147.2025484
0
LINE
8
0
10
288.8441505
20
-147.2025484
11
274.4273329
21
-138.1939209
0
ENDSEC
0
EOF